G04 #@! TF.GenerationSoftware,KiCad,Pcbnew,(5.1.5)-3*
G04 #@! TF.CreationDate,2020-03-11T18:50:25+01:00*
G04 #@! TF.ProjectId,BE6502 SBC,42453635-3032-4205-9342-432e6b696361,rev?*
G04 #@! TF.SameCoordinates,Original*
G04 #@! TF.FileFunction,Legend,Top*
G04 #@! TF.FilePolarity,Positive*
%FSLAX46Y46*%
G04 Gerber Fmt 4.6, Leading zero omitted, Abs format (unit mm)*
G04 Created by KiCad (PCBNEW (5.1.5)-3) date 2020-03-11 18:50:25*
%MOMM*%
%LPD*%
G04 APERTURE LIST*
%ADD10C,0.150000*%
%ADD11C,0.300000*%
%ADD12C,0.120000*%
%ADD13C,0.100000*%
G04 APERTURE END LIST*
D10*
X117016785Y-82367380D02*
X116540595Y-82367380D01*
X116540595Y-81367380D01*
X117921547Y-82272142D02*
X117873928Y-82319761D01*
X117731071Y-82367380D01*
X117635833Y-82367380D01*
X117492976Y-82319761D01*
X117397738Y-82224523D01*
X117350119Y-82129285D01*
X117302500Y-81938809D01*
X117302500Y-81795952D01*
X117350119Y-81605476D01*
X117397738Y-81510238D01*
X117492976Y-81415000D01*
X117635833Y-81367380D01*
X117731071Y-81367380D01*
X117873928Y-81415000D01*
X117921547Y-81462619D01*
X118350119Y-82367380D02*
X118350119Y-81367380D01*
X118588214Y-81367380D01*
X118731071Y-81415000D01*
X118826309Y-81510238D01*
X118873928Y-81605476D01*
X118921547Y-81795952D01*
X118921547Y-81938809D01*
X118873928Y-82129285D01*
X118826309Y-82224523D01*
X118731071Y-82319761D01*
X118588214Y-82367380D01*
X118350119Y-82367380D01*
X119873928Y-82367380D02*
X119302500Y-82367380D01*
X119588214Y-82367380D02*
X119588214Y-81367380D01*
X119492976Y-81510238D01*
X119397738Y-81605476D01*
X119302500Y-81653095D01*
X120731071Y-81367380D02*
X120540595Y-81367380D01*
X120445357Y-81415000D01*
X120397738Y-81462619D01*
X120302500Y-81605476D01*
X120254880Y-81795952D01*
X120254880Y-82176904D01*
X120302500Y-82272142D01*
X120350119Y-82319761D01*
X120445357Y-82367380D01*
X120635833Y-82367380D01*
X120731071Y-82319761D01*
X120778690Y-82272142D01*
X120826309Y-82176904D01*
X120826309Y-81938809D01*
X120778690Y-81843571D01*
X120731071Y-81795952D01*
X120635833Y-81748333D01*
X120445357Y-81748333D01*
X120350119Y-81795952D01*
X120302500Y-81843571D01*
X120254880Y-81938809D01*
X121445357Y-81367380D02*
X121540595Y-81367380D01*
X121635833Y-81415000D01*
X121683452Y-81462619D01*
X121731071Y-81557857D01*
X121778690Y-81748333D01*
X121778690Y-81986428D01*
X121731071Y-82176904D01*
X121683452Y-82272142D01*
X121635833Y-82319761D01*
X121540595Y-82367380D01*
X121445357Y-82367380D01*
X121350119Y-82319761D01*
X121302500Y-82272142D01*
X121254880Y-82176904D01*
X121207261Y-81986428D01*
X121207261Y-81748333D01*
X121254880Y-81557857D01*
X121302500Y-81462619D01*
X121350119Y-81415000D01*
X121445357Y-81367380D01*
X122159642Y-81462619D02*
X122207261Y-81415000D01*
X122302500Y-81367380D01*
X122540595Y-81367380D01*
X122635833Y-81415000D01*
X122683452Y-81462619D01*
X122731071Y-81557857D01*
X122731071Y-81653095D01*
X122683452Y-81795952D01*
X122112023Y-82367380D01*
X122731071Y-82367380D01*
X123112023Y-82081666D02*
X123588214Y-82081666D01*
X123016785Y-82367380D02*
X123350119Y-81367380D01*
X123683452Y-82367380D01*
X127945238Y-142025714D02*
X127945238Y-142835238D01*
X127897619Y-142930476D01*
X127850000Y-142978095D01*
X127754761Y-143025714D01*
X127611904Y-143025714D01*
X127516666Y-142978095D01*
X127945238Y-142644761D02*
X127850000Y-142692380D01*
X127659523Y-142692380D01*
X127564285Y-142644761D01*
X127516666Y-142597142D01*
X127469047Y-142501904D01*
X127469047Y-142216190D01*
X127516666Y-142120952D01*
X127564285Y-142073333D01*
X127659523Y-142025714D01*
X127850000Y-142025714D01*
X127945238Y-142073333D01*
X128421428Y-142692380D02*
X128421428Y-142025714D01*
X128421428Y-141692380D02*
X128373809Y-141740000D01*
X128421428Y-141787619D01*
X128469047Y-141740000D01*
X128421428Y-141692380D01*
X128421428Y-141787619D01*
X128754761Y-142025714D02*
X129135714Y-142025714D01*
X128897619Y-141692380D02*
X128897619Y-142549523D01*
X128945238Y-142644761D01*
X129040476Y-142692380D01*
X129135714Y-142692380D01*
X129469047Y-142692380D02*
X129469047Y-141692380D01*
X129897619Y-142692380D02*
X129897619Y-142168571D01*
X129850000Y-142073333D01*
X129754761Y-142025714D01*
X129611904Y-142025714D01*
X129516666Y-142073333D01*
X129469047Y-142120952D01*
X130802380Y-142025714D02*
X130802380Y-142692380D01*
X130373809Y-142025714D02*
X130373809Y-142549523D01*
X130421428Y-142644761D01*
X130516666Y-142692380D01*
X130659523Y-142692380D01*
X130754761Y-142644761D01*
X130802380Y-142597142D01*
X131278571Y-142692380D02*
X131278571Y-141692380D01*
X131278571Y-142073333D02*
X131373809Y-142025714D01*
X131564285Y-142025714D01*
X131659523Y-142073333D01*
X131707142Y-142120952D01*
X131754761Y-142216190D01*
X131754761Y-142501904D01*
X131707142Y-142597142D01*
X131659523Y-142644761D01*
X131564285Y-142692380D01*
X131373809Y-142692380D01*
X131278571Y-142644761D01*
X132183333Y-142597142D02*
X132230952Y-142644761D01*
X132183333Y-142692380D01*
X132135714Y-142644761D01*
X132183333Y-142597142D01*
X132183333Y-142692380D01*
X133088095Y-142644761D02*
X132992857Y-142692380D01*
X132802380Y-142692380D01*
X132707142Y-142644761D01*
X132659523Y-142597142D01*
X132611904Y-142501904D01*
X132611904Y-142216190D01*
X132659523Y-142120952D01*
X132707142Y-142073333D01*
X132802380Y-142025714D01*
X132992857Y-142025714D01*
X133088095Y-142073333D01*
X133659523Y-142692380D02*
X133564285Y-142644761D01*
X133516666Y-142597142D01*
X133469047Y-142501904D01*
X133469047Y-142216190D01*
X133516666Y-142120952D01*
X133564285Y-142073333D01*
X133659523Y-142025714D01*
X133802380Y-142025714D01*
X133897619Y-142073333D01*
X133945238Y-142120952D01*
X133992857Y-142216190D01*
X133992857Y-142501904D01*
X133945238Y-142597142D01*
X133897619Y-142644761D01*
X133802380Y-142692380D01*
X133659523Y-142692380D01*
X134421428Y-142692380D02*
X134421428Y-142025714D01*
X134421428Y-142120952D02*
X134469047Y-142073333D01*
X134564285Y-142025714D01*
X134707142Y-142025714D01*
X134802380Y-142073333D01*
X134850000Y-142168571D01*
X134850000Y-142692380D01*
X134850000Y-142168571D02*
X134897619Y-142073333D01*
X134992857Y-142025714D01*
X135135714Y-142025714D01*
X135230952Y-142073333D01*
X135278571Y-142168571D01*
X135278571Y-142692380D01*
X136469047Y-141644761D02*
X135611904Y-142930476D01*
X136659523Y-142025714D02*
X137040476Y-142025714D01*
X136802380Y-141692380D02*
X136802380Y-142549523D01*
X136850000Y-142644761D01*
X136945238Y-142692380D01*
X137040476Y-142692380D01*
X137754761Y-142644761D02*
X137659523Y-142692380D01*
X137469047Y-142692380D01*
X137373809Y-142644761D01*
X137326190Y-142549523D01*
X137326190Y-142168571D01*
X137373809Y-142073333D01*
X137469047Y-142025714D01*
X137659523Y-142025714D01*
X137754761Y-142073333D01*
X137802380Y-142168571D01*
X137802380Y-142263809D01*
X137326190Y-142359047D01*
X138230952Y-142692380D02*
X138230952Y-141692380D01*
X138230952Y-142073333D02*
X138326190Y-142025714D01*
X138516666Y-142025714D01*
X138611904Y-142073333D01*
X138659523Y-142120952D01*
X138707142Y-142216190D01*
X138707142Y-142501904D01*
X138659523Y-142597142D01*
X138611904Y-142644761D01*
X138516666Y-142692380D01*
X138326190Y-142692380D01*
X138230952Y-142644761D01*
X139278571Y-142692380D02*
X139183333Y-142644761D01*
X139135714Y-142549523D01*
X139135714Y-141692380D01*
X122183333Y-140120714D02*
X122564285Y-140120714D01*
X122326190Y-140787380D02*
X122326190Y-139930238D01*
X122373809Y-139835000D01*
X122469047Y-139787380D01*
X122564285Y-139787380D01*
X123040476Y-140787380D02*
X122945238Y-140739761D01*
X122897619Y-140692142D01*
X122850000Y-140596904D01*
X122850000Y-140311190D01*
X122897619Y-140215952D01*
X122945238Y-140168333D01*
X123040476Y-140120714D01*
X123183333Y-140120714D01*
X123278571Y-140168333D01*
X123326190Y-140215952D01*
X123373809Y-140311190D01*
X123373809Y-140596904D01*
X123326190Y-140692142D01*
X123278571Y-140739761D01*
X123183333Y-140787380D01*
X123040476Y-140787380D01*
X123802380Y-140787380D02*
X123802380Y-140120714D01*
X123802380Y-140311190D02*
X123850000Y-140215952D01*
X123897619Y-140168333D01*
X123992857Y-140120714D01*
X124088095Y-140120714D01*
X125088095Y-140120714D02*
X125326190Y-140787380D01*
X125564285Y-140120714D01*
X125945238Y-140787380D02*
X125945238Y-140120714D01*
X125945238Y-139787380D02*
X125897619Y-139835000D01*
X125945238Y-139882619D01*
X125992857Y-139835000D01*
X125945238Y-139787380D01*
X125945238Y-139882619D01*
X126850000Y-140787380D02*
X126850000Y-139787380D01*
X126850000Y-140739761D02*
X126754761Y-140787380D01*
X126564285Y-140787380D01*
X126469047Y-140739761D01*
X126421428Y-140692142D01*
X126373809Y-140596904D01*
X126373809Y-140311190D01*
X126421428Y-140215952D01*
X126469047Y-140168333D01*
X126564285Y-140120714D01*
X126754761Y-140120714D01*
X126850000Y-140168333D01*
X127707142Y-140739761D02*
X127611904Y-140787380D01*
X127421428Y-140787380D01*
X127326190Y-140739761D01*
X127278571Y-140644523D01*
X127278571Y-140263571D01*
X127326190Y-140168333D01*
X127421428Y-140120714D01*
X127611904Y-140120714D01*
X127707142Y-140168333D01*
X127754761Y-140263571D01*
X127754761Y-140358809D01*
X127278571Y-140454047D01*
X128326190Y-140787380D02*
X128230952Y-140739761D01*
X128183333Y-140692142D01*
X128135714Y-140596904D01*
X128135714Y-140311190D01*
X128183333Y-140215952D01*
X128230952Y-140168333D01*
X128326190Y-140120714D01*
X128469047Y-140120714D01*
X128564285Y-140168333D01*
X128611904Y-140215952D01*
X128659523Y-140311190D01*
X128659523Y-140596904D01*
X128611904Y-140692142D01*
X128564285Y-140739761D01*
X128469047Y-140787380D01*
X128326190Y-140787380D01*
X129802380Y-140739761D02*
X129897619Y-140787380D01*
X130088095Y-140787380D01*
X130183333Y-140739761D01*
X130230952Y-140644523D01*
X130230952Y-140596904D01*
X130183333Y-140501666D01*
X130088095Y-140454047D01*
X129945238Y-140454047D01*
X129850000Y-140406428D01*
X129802380Y-140311190D01*
X129802380Y-140263571D01*
X129850000Y-140168333D01*
X129945238Y-140120714D01*
X130088095Y-140120714D01*
X130183333Y-140168333D01*
X131040476Y-140739761D02*
X130945238Y-140787380D01*
X130754761Y-140787380D01*
X130659523Y-140739761D01*
X130611904Y-140644523D01*
X130611904Y-140263571D01*
X130659523Y-140168333D01*
X130754761Y-140120714D01*
X130945238Y-140120714D01*
X131040476Y-140168333D01*
X131088095Y-140263571D01*
X131088095Y-140358809D01*
X130611904Y-140454047D01*
X131516666Y-140787380D02*
X131516666Y-140120714D01*
X131516666Y-140311190D02*
X131564285Y-140215952D01*
X131611904Y-140168333D01*
X131707142Y-140120714D01*
X131802380Y-140120714D01*
X132135714Y-140787380D02*
X132135714Y-140120714D01*
X132135714Y-139787380D02*
X132088095Y-139835000D01*
X132135714Y-139882619D01*
X132183333Y-139835000D01*
X132135714Y-139787380D01*
X132135714Y-139882619D01*
X132992857Y-140739761D02*
X132897619Y-140787380D01*
X132707142Y-140787380D01*
X132611904Y-140739761D01*
X132564285Y-140644523D01*
X132564285Y-140263571D01*
X132611904Y-140168333D01*
X132707142Y-140120714D01*
X132897619Y-140120714D01*
X132992857Y-140168333D01*
X133040476Y-140263571D01*
X133040476Y-140358809D01*
X132564285Y-140454047D01*
X133421428Y-140739761D02*
X133516666Y-140787380D01*
X133707142Y-140787380D01*
X133802380Y-140739761D01*
X133850000Y-140644523D01*
X133850000Y-140596904D01*
X133802380Y-140501666D01*
X133707142Y-140454047D01*
X133564285Y-140454047D01*
X133469047Y-140406428D01*
X133421428Y-140311190D01*
X133421428Y-140263571D01*
X133469047Y-140168333D01*
X133564285Y-140120714D01*
X133707142Y-140120714D01*
X133802380Y-140168333D01*
X135040476Y-140787380D02*
X135040476Y-139787380D01*
X135040476Y-140168333D02*
X135135714Y-140120714D01*
X135326190Y-140120714D01*
X135421428Y-140168333D01*
X135469047Y-140215952D01*
X135516666Y-140311190D01*
X135516666Y-140596904D01*
X135469047Y-140692142D01*
X135421428Y-140739761D01*
X135326190Y-140787380D01*
X135135714Y-140787380D01*
X135040476Y-140739761D01*
X135850000Y-140120714D02*
X136088095Y-140787380D01*
X136326190Y-140120714D02*
X136088095Y-140787380D01*
X135992857Y-141025476D01*
X135945238Y-141073095D01*
X135850000Y-141120714D01*
X137802380Y-140263571D02*
X137945238Y-140311190D01*
X137992857Y-140358809D01*
X138040476Y-140454047D01*
X138040476Y-140596904D01*
X137992857Y-140692142D01*
X137945238Y-140739761D01*
X137850000Y-140787380D01*
X137469047Y-140787380D01*
X137469047Y-139787380D01*
X137802380Y-139787380D01*
X137897619Y-139835000D01*
X137945238Y-139882619D01*
X137992857Y-139977857D01*
X137992857Y-140073095D01*
X137945238Y-140168333D01*
X137897619Y-140215952D01*
X137802380Y-140263571D01*
X137469047Y-140263571D01*
X138850000Y-140739761D02*
X138754761Y-140787380D01*
X138564285Y-140787380D01*
X138469047Y-140739761D01*
X138421428Y-140644523D01*
X138421428Y-140263571D01*
X138469047Y-140168333D01*
X138564285Y-140120714D01*
X138754761Y-140120714D01*
X138850000Y-140168333D01*
X138897619Y-140263571D01*
X138897619Y-140358809D01*
X138421428Y-140454047D01*
X139326190Y-140120714D02*
X139326190Y-140787380D01*
X139326190Y-140215952D02*
X139373809Y-140168333D01*
X139469047Y-140120714D01*
X139611904Y-140120714D01*
X139707142Y-140168333D01*
X139754761Y-140263571D01*
X139754761Y-140787380D01*
X140992857Y-140263571D02*
X141326190Y-140263571D01*
X141469047Y-140787380D02*
X140992857Y-140787380D01*
X140992857Y-139787380D01*
X141469047Y-139787380D01*
X142326190Y-140787380D02*
X142326190Y-140263571D01*
X142278571Y-140168333D01*
X142183333Y-140120714D01*
X141992857Y-140120714D01*
X141897619Y-140168333D01*
X142326190Y-140739761D02*
X142230952Y-140787380D01*
X141992857Y-140787380D01*
X141897619Y-140739761D01*
X141850000Y-140644523D01*
X141850000Y-140549285D01*
X141897619Y-140454047D01*
X141992857Y-140406428D01*
X142230952Y-140406428D01*
X142326190Y-140358809D01*
X142659523Y-140120714D02*
X143040476Y-140120714D01*
X142802380Y-139787380D02*
X142802380Y-140644523D01*
X142850000Y-140739761D01*
X142945238Y-140787380D01*
X143040476Y-140787380D01*
X143754761Y-140739761D02*
X143659523Y-140787380D01*
X143469047Y-140787380D01*
X143373809Y-140739761D01*
X143326190Y-140644523D01*
X143326190Y-140263571D01*
X143373809Y-140168333D01*
X143469047Y-140120714D01*
X143659523Y-140120714D01*
X143754761Y-140168333D01*
X143802380Y-140263571D01*
X143802380Y-140358809D01*
X143326190Y-140454047D01*
X144230952Y-140787380D02*
X144230952Y-140120714D01*
X144230952Y-140311190D02*
X144278571Y-140215952D01*
X144326190Y-140168333D01*
X144421428Y-140120714D01*
X144516666Y-140120714D01*
D11*
X120242857Y-138322857D02*
X120457142Y-138394285D01*
X120528571Y-138465714D01*
X120600000Y-138608571D01*
X120600000Y-138822857D01*
X120528571Y-138965714D01*
X120457142Y-139037142D01*
X120314285Y-139108571D01*
X119742857Y-139108571D01*
X119742857Y-137608571D01*
X120242857Y-137608571D01*
X120385714Y-137680000D01*
X120457142Y-137751428D01*
X120528571Y-137894285D01*
X120528571Y-138037142D01*
X120457142Y-138180000D01*
X120385714Y-138251428D01*
X120242857Y-138322857D01*
X119742857Y-138322857D01*
X121885714Y-138108571D02*
X121885714Y-139108571D01*
X121242857Y-138108571D02*
X121242857Y-138894285D01*
X121314285Y-139037142D01*
X121457142Y-139108571D01*
X121671428Y-139108571D01*
X121814285Y-139037142D01*
X121885714Y-138965714D01*
X122600000Y-139108571D02*
X122600000Y-138108571D01*
X122600000Y-137608571D02*
X122528571Y-137680000D01*
X122600000Y-137751428D01*
X122671428Y-137680000D01*
X122600000Y-137608571D01*
X122600000Y-137751428D01*
X123528571Y-139108571D02*
X123385714Y-139037142D01*
X123314285Y-138894285D01*
X123314285Y-137608571D01*
X124742857Y-139108571D02*
X124742857Y-137608571D01*
X124742857Y-139037142D02*
X124600000Y-139108571D01*
X124314285Y-139108571D01*
X124171428Y-139037142D01*
X124100000Y-138965714D01*
X124028571Y-138822857D01*
X124028571Y-138394285D01*
X124100000Y-138251428D01*
X124171428Y-138180000D01*
X124314285Y-138108571D01*
X124600000Y-138108571D01*
X124742857Y-138180000D01*
X127242857Y-139108571D02*
X127242857Y-138322857D01*
X127171428Y-138180000D01*
X127028571Y-138108571D01*
X126742857Y-138108571D01*
X126600000Y-138180000D01*
X127242857Y-139037142D02*
X127100000Y-139108571D01*
X126742857Y-139108571D01*
X126600000Y-139037142D01*
X126528571Y-138894285D01*
X126528571Y-138751428D01*
X126600000Y-138608571D01*
X126742857Y-138537142D01*
X127100000Y-138537142D01*
X127242857Y-138465714D01*
X129742857Y-137608571D02*
X129457142Y-137608571D01*
X129314285Y-137680000D01*
X129242857Y-137751428D01*
X129100000Y-137965714D01*
X129028571Y-138251428D01*
X129028571Y-138822857D01*
X129100000Y-138965714D01*
X129171428Y-139037142D01*
X129314285Y-139108571D01*
X129600000Y-139108571D01*
X129742857Y-139037142D01*
X129814285Y-138965714D01*
X129885714Y-138822857D01*
X129885714Y-138465714D01*
X129814285Y-138322857D01*
X129742857Y-138251428D01*
X129600000Y-138180000D01*
X129314285Y-138180000D01*
X129171428Y-138251428D01*
X129100000Y-138322857D01*
X129028571Y-138465714D01*
X131242857Y-137608571D02*
X130528571Y-137608571D01*
X130457142Y-138322857D01*
X130528571Y-138251428D01*
X130671428Y-138180000D01*
X131028571Y-138180000D01*
X131171428Y-138251428D01*
X131242857Y-138322857D01*
X131314285Y-138465714D01*
X131314285Y-138822857D01*
X131242857Y-138965714D01*
X131171428Y-139037142D01*
X131028571Y-139108571D01*
X130671428Y-139108571D01*
X130528571Y-139037142D01*
X130457142Y-138965714D01*
X132600000Y-139037142D02*
X132457142Y-139108571D01*
X132171428Y-139108571D01*
X132028571Y-139037142D01*
X131957142Y-138965714D01*
X131885714Y-138822857D01*
X131885714Y-138394285D01*
X131957142Y-138251428D01*
X132028571Y-138180000D01*
X132171428Y-138108571D01*
X132457142Y-138108571D01*
X132600000Y-138180000D01*
X133528571Y-137608571D02*
X133671428Y-137608571D01*
X133814285Y-137680000D01*
X133885714Y-137751428D01*
X133957142Y-137894285D01*
X134028571Y-138180000D01*
X134028571Y-138537142D01*
X133957142Y-138822857D01*
X133885714Y-138965714D01*
X133814285Y-139037142D01*
X133671428Y-139108571D01*
X133528571Y-139108571D01*
X133385714Y-139037142D01*
X133314285Y-138965714D01*
X133242857Y-138822857D01*
X133171428Y-138537142D01*
X133171428Y-138180000D01*
X133242857Y-137894285D01*
X133314285Y-137751428D01*
X133385714Y-137680000D01*
X133528571Y-137608571D01*
X134600000Y-137751428D02*
X134671428Y-137680000D01*
X134814285Y-137608571D01*
X135171428Y-137608571D01*
X135314285Y-137680000D01*
X135385714Y-137751428D01*
X135457142Y-137894285D01*
X135457142Y-138037142D01*
X135385714Y-138251428D01*
X134528571Y-139108571D01*
X135457142Y-139108571D01*
X137885714Y-139037142D02*
X137742857Y-139108571D01*
X137457142Y-139108571D01*
X137314285Y-139037142D01*
X137242857Y-138965714D01*
X137171428Y-138822857D01*
X137171428Y-138394285D01*
X137242857Y-138251428D01*
X137314285Y-138180000D01*
X137457142Y-138108571D01*
X137742857Y-138108571D01*
X137885714Y-138180000D01*
X138742857Y-139108571D02*
X138600000Y-139037142D01*
X138528571Y-138965714D01*
X138457142Y-138822857D01*
X138457142Y-138394285D01*
X138528571Y-138251428D01*
X138600000Y-138180000D01*
X138742857Y-138108571D01*
X138957142Y-138108571D01*
X139100000Y-138180000D01*
X139171428Y-138251428D01*
X139242857Y-138394285D01*
X139242857Y-138822857D01*
X139171428Y-138965714D01*
X139100000Y-139037142D01*
X138957142Y-139108571D01*
X138742857Y-139108571D01*
X139885714Y-139108571D02*
X139885714Y-138108571D01*
X139885714Y-138251428D02*
X139957142Y-138180000D01*
X140100000Y-138108571D01*
X140314285Y-138108571D01*
X140457142Y-138180000D01*
X140528571Y-138322857D01*
X140528571Y-139108571D01*
X140528571Y-138322857D02*
X140600000Y-138180000D01*
X140742857Y-138108571D01*
X140957142Y-138108571D01*
X141100000Y-138180000D01*
X141171428Y-138322857D01*
X141171428Y-139108571D01*
X141885714Y-138108571D02*
X141885714Y-139608571D01*
X141885714Y-138180000D02*
X142028571Y-138108571D01*
X142314285Y-138108571D01*
X142457142Y-138180000D01*
X142528571Y-138251428D01*
X142600000Y-138394285D01*
X142600000Y-138822857D01*
X142528571Y-138965714D01*
X142457142Y-139037142D01*
X142314285Y-139108571D01*
X142028571Y-139108571D01*
X141885714Y-139037142D01*
X143885714Y-138108571D02*
X143885714Y-139108571D01*
X143242857Y-138108571D02*
X143242857Y-138894285D01*
X143314285Y-139037142D01*
X143457142Y-139108571D01*
X143671428Y-139108571D01*
X143814285Y-139037142D01*
X143885714Y-138965714D01*
X144385714Y-138108571D02*
X144957142Y-138108571D01*
X144600000Y-137608571D02*
X144600000Y-138894285D01*
X144671428Y-139037142D01*
X144814285Y-139108571D01*
X144957142Y-139108571D01*
X146028571Y-139037142D02*
X145885714Y-139108571D01*
X145600000Y-139108571D01*
X145457142Y-139037142D01*
X145385714Y-138894285D01*
X145385714Y-138322857D01*
X145457142Y-138180000D01*
X145600000Y-138108571D01*
X145885714Y-138108571D01*
X146028571Y-138180000D01*
X146100000Y-138322857D01*
X146100000Y-138465714D01*
X145385714Y-138608571D01*
X146742857Y-139108571D02*
X146742857Y-138108571D01*
X146742857Y-138394285D02*
X146814285Y-138251428D01*
X146885714Y-138180000D01*
X147028571Y-138108571D01*
X147171428Y-138108571D01*
D12*
X162290000Y-58995000D02*
G75*
G02X160290000Y-58995000I-1000000J0D01*
G01*
X160290000Y-58995000D02*
X159040000Y-58995000D01*
X159040000Y-58995000D02*
X159040000Y-76895000D01*
X159040000Y-76895000D02*
X163540000Y-76895000D01*
X163540000Y-76895000D02*
X163540000Y-58995000D01*
X163540000Y-58995000D02*
X162290000Y-58995000D01*
X156040000Y-58935000D02*
X156040000Y-76955000D01*
X156040000Y-76955000D02*
X166540000Y-76955000D01*
X166540000Y-76955000D02*
X166540000Y-58935000D01*
X166540000Y-58935000D02*
X156040000Y-58935000D01*
X153325000Y-64770000D02*
X152435000Y-64770000D01*
X145125000Y-64770000D02*
X146015000Y-64770000D01*
X152435000Y-63460000D02*
X146015000Y-63460000D01*
X152435000Y-66080000D02*
X152435000Y-63460000D01*
X146015000Y-66080000D02*
X152435000Y-66080000D01*
X146015000Y-63460000D02*
X146015000Y-66080000D01*
X146015000Y-66635000D02*
X146015000Y-69255000D01*
X146015000Y-69255000D02*
X152435000Y-69255000D01*
X152435000Y-69255000D02*
X152435000Y-66635000D01*
X152435000Y-66635000D02*
X146015000Y-66635000D01*
X145125000Y-67945000D02*
X146015000Y-67945000D01*
X153325000Y-67945000D02*
X152435000Y-67945000D01*
X170780000Y-72985000D02*
X170780000Y-75605000D01*
X170780000Y-75605000D02*
X177200000Y-75605000D01*
X177200000Y-75605000D02*
X177200000Y-72985000D01*
X177200000Y-72985000D02*
X170780000Y-72985000D01*
X169890000Y-74295000D02*
X170780000Y-74295000D01*
X178090000Y-74295000D02*
X177200000Y-74295000D01*
X199450000Y-146855000D02*
X100270000Y-146855000D01*
X100270000Y-146855000D02*
X100270000Y-149515000D01*
X100270000Y-149515000D02*
X199450000Y-149515000D01*
X199450000Y-149515000D02*
X199450000Y-146855000D01*
X198500000Y-149515000D02*
X198500000Y-155515000D01*
X198500000Y-155515000D02*
X197740000Y-155515000D01*
X197740000Y-155515000D02*
X197740000Y-149515000D01*
X198440000Y-149515000D02*
X198440000Y-155515000D01*
X198320000Y-149515000D02*
X198320000Y-155515000D01*
X198200000Y-149515000D02*
X198200000Y-155515000D01*
X198080000Y-149515000D02*
X198080000Y-155515000D01*
X197960000Y-149515000D02*
X197960000Y-155515000D01*
X197840000Y-149515000D02*
X197840000Y-155515000D01*
X198500000Y-146525000D02*
X198500000Y-146855000D01*
X197740000Y-146525000D02*
X197740000Y-146855000D01*
X196850000Y-146855000D02*
X196850000Y-149515000D01*
X195960000Y-149515000D02*
X195960000Y-155515000D01*
X195960000Y-155515000D02*
X195200000Y-155515000D01*
X195200000Y-155515000D02*
X195200000Y-149515000D01*
X195960000Y-146457929D02*
X195960000Y-146855000D01*
X195200000Y-146457929D02*
X195200000Y-146855000D01*
X194310000Y-146855000D02*
X194310000Y-149515000D01*
X193420000Y-149515000D02*
X193420000Y-155515000D01*
X193420000Y-155515000D02*
X192660000Y-155515000D01*
X192660000Y-155515000D02*
X192660000Y-149515000D01*
X193420000Y-146457929D02*
X193420000Y-146855000D01*
X192660000Y-146457929D02*
X192660000Y-146855000D01*
X191770000Y-146855000D02*
X191770000Y-149515000D01*
X190880000Y-149515000D02*
X190880000Y-155515000D01*
X190880000Y-155515000D02*
X190120000Y-155515000D01*
X190120000Y-155515000D02*
X190120000Y-149515000D01*
X190880000Y-146457929D02*
X190880000Y-146855000D01*
X190120000Y-146457929D02*
X190120000Y-146855000D01*
X189230000Y-146855000D02*
X189230000Y-149515000D01*
X188340000Y-149515000D02*
X188340000Y-155515000D01*
X188340000Y-155515000D02*
X187580000Y-155515000D01*
X187580000Y-155515000D02*
X187580000Y-149515000D01*
X188340000Y-146457929D02*
X188340000Y-146855000D01*
X187580000Y-146457929D02*
X187580000Y-146855000D01*
X186690000Y-146855000D02*
X186690000Y-149515000D01*
X185800000Y-149515000D02*
X185800000Y-155515000D01*
X185800000Y-155515000D02*
X185040000Y-155515000D01*
X185040000Y-155515000D02*
X185040000Y-149515000D01*
X185800000Y-146457929D02*
X185800000Y-146855000D01*
X185040000Y-146457929D02*
X185040000Y-146855000D01*
X184150000Y-146855000D02*
X184150000Y-149515000D01*
X183260000Y-149515000D02*
X183260000Y-155515000D01*
X183260000Y-155515000D02*
X182500000Y-155515000D01*
X182500000Y-155515000D02*
X182500000Y-149515000D01*
X183260000Y-146457929D02*
X183260000Y-146855000D01*
X182500000Y-146457929D02*
X182500000Y-146855000D01*
X181610000Y-146855000D02*
X181610000Y-149515000D01*
X180720000Y-149515000D02*
X180720000Y-155515000D01*
X180720000Y-155515000D02*
X179960000Y-155515000D01*
X179960000Y-155515000D02*
X179960000Y-149515000D01*
X180720000Y-146457929D02*
X180720000Y-146855000D01*
X179960000Y-146457929D02*
X179960000Y-146855000D01*
X179070000Y-146855000D02*
X179070000Y-149515000D01*
X178180000Y-149515000D02*
X178180000Y-155515000D01*
X178180000Y-155515000D02*
X177420000Y-155515000D01*
X177420000Y-155515000D02*
X177420000Y-149515000D01*
X178180000Y-146457929D02*
X178180000Y-146855000D01*
X177420000Y-146457929D02*
X177420000Y-146855000D01*
X176530000Y-146855000D02*
X176530000Y-149515000D01*
X175640000Y-149515000D02*
X175640000Y-155515000D01*
X175640000Y-155515000D02*
X174880000Y-155515000D01*
X174880000Y-155515000D02*
X174880000Y-149515000D01*
X175640000Y-146457929D02*
X175640000Y-146855000D01*
X174880000Y-146457929D02*
X174880000Y-146855000D01*
X173990000Y-146855000D02*
X173990000Y-149515000D01*
X173100000Y-149515000D02*
X173100000Y-155515000D01*
X173100000Y-155515000D02*
X172340000Y-155515000D01*
X172340000Y-155515000D02*
X172340000Y-149515000D01*
X173100000Y-146457929D02*
X173100000Y-146855000D01*
X172340000Y-146457929D02*
X172340000Y-146855000D01*
X171450000Y-146855000D02*
X171450000Y-149515000D01*
X170560000Y-149515000D02*
X170560000Y-155515000D01*
X170560000Y-155515000D02*
X169800000Y-155515000D01*
X169800000Y-155515000D02*
X169800000Y-149515000D01*
X170560000Y-146457929D02*
X170560000Y-146855000D01*
X169800000Y-146457929D02*
X169800000Y-146855000D01*
X168910000Y-146855000D02*
X168910000Y-149515000D01*
X168020000Y-149515000D02*
X168020000Y-155515000D01*
X168020000Y-155515000D02*
X167260000Y-155515000D01*
X167260000Y-155515000D02*
X167260000Y-149515000D01*
X168020000Y-146457929D02*
X168020000Y-146855000D01*
X167260000Y-146457929D02*
X167260000Y-146855000D01*
X166370000Y-146855000D02*
X166370000Y-149515000D01*
X165480000Y-149515000D02*
X165480000Y-155515000D01*
X165480000Y-155515000D02*
X164720000Y-155515000D01*
X164720000Y-155515000D02*
X164720000Y-149515000D01*
X165480000Y-146457929D02*
X165480000Y-146855000D01*
X164720000Y-146457929D02*
X164720000Y-146855000D01*
X163830000Y-146855000D02*
X163830000Y-149515000D01*
X162940000Y-149515000D02*
X162940000Y-155515000D01*
X162940000Y-155515000D02*
X162180000Y-155515000D01*
X162180000Y-155515000D02*
X162180000Y-149515000D01*
X162940000Y-146457929D02*
X162940000Y-146855000D01*
X162180000Y-146457929D02*
X162180000Y-146855000D01*
X161290000Y-146855000D02*
X161290000Y-149515000D01*
X160400000Y-149515000D02*
X160400000Y-155515000D01*
X160400000Y-155515000D02*
X159640000Y-155515000D01*
X159640000Y-155515000D02*
X159640000Y-149515000D01*
X160400000Y-146457929D02*
X160400000Y-146855000D01*
X159640000Y-146457929D02*
X159640000Y-146855000D01*
X158750000Y-146855000D02*
X158750000Y-149515000D01*
X157860000Y-149515000D02*
X157860000Y-155515000D01*
X157860000Y-155515000D02*
X157100000Y-155515000D01*
X157100000Y-155515000D02*
X157100000Y-149515000D01*
X157860000Y-146457929D02*
X157860000Y-146855000D01*
X157100000Y-146457929D02*
X157100000Y-146855000D01*
X156210000Y-146855000D02*
X156210000Y-149515000D01*
X155320000Y-149515000D02*
X155320000Y-155515000D01*
X155320000Y-155515000D02*
X154560000Y-155515000D01*
X154560000Y-155515000D02*
X154560000Y-149515000D01*
X155320000Y-146457929D02*
X155320000Y-146855000D01*
X154560000Y-146457929D02*
X154560000Y-146855000D01*
X153670000Y-146855000D02*
X153670000Y-149515000D01*
X152780000Y-149515000D02*
X152780000Y-155515000D01*
X152780000Y-155515000D02*
X152020000Y-155515000D01*
X152020000Y-155515000D02*
X152020000Y-149515000D01*
X152780000Y-146457929D02*
X152780000Y-146855000D01*
X152020000Y-146457929D02*
X152020000Y-146855000D01*
X151130000Y-146855000D02*
X151130000Y-149515000D01*
X150240000Y-149515000D02*
X150240000Y-155515000D01*
X150240000Y-155515000D02*
X149480000Y-155515000D01*
X149480000Y-155515000D02*
X149480000Y-149515000D01*
X150240000Y-146457929D02*
X150240000Y-146855000D01*
X149480000Y-146457929D02*
X149480000Y-146855000D01*
X148590000Y-146855000D02*
X148590000Y-149515000D01*
X147700000Y-149515000D02*
X147700000Y-155515000D01*
X147700000Y-155515000D02*
X146940000Y-155515000D01*
X146940000Y-155515000D02*
X146940000Y-149515000D01*
X147700000Y-146457929D02*
X147700000Y-146855000D01*
X146940000Y-146457929D02*
X146940000Y-146855000D01*
X146050000Y-146855000D02*
X146050000Y-149515000D01*
X145160000Y-149515000D02*
X145160000Y-155515000D01*
X145160000Y-155515000D02*
X144400000Y-155515000D01*
X144400000Y-155515000D02*
X144400000Y-149515000D01*
X145160000Y-146457929D02*
X145160000Y-146855000D01*
X144400000Y-146457929D02*
X144400000Y-146855000D01*
X143510000Y-146855000D02*
X143510000Y-149515000D01*
X142620000Y-149515000D02*
X142620000Y-155515000D01*
X142620000Y-155515000D02*
X141860000Y-155515000D01*
X141860000Y-155515000D02*
X141860000Y-149515000D01*
X142620000Y-146457929D02*
X142620000Y-146855000D01*
X141860000Y-146457929D02*
X141860000Y-146855000D01*
X140970000Y-146855000D02*
X140970000Y-149515000D01*
X140080000Y-149515000D02*
X140080000Y-155515000D01*
X140080000Y-155515000D02*
X139320000Y-155515000D01*
X139320000Y-155515000D02*
X139320000Y-149515000D01*
X140080000Y-146457929D02*
X140080000Y-146855000D01*
X139320000Y-146457929D02*
X139320000Y-146855000D01*
X138430000Y-146855000D02*
X138430000Y-149515000D01*
X137540000Y-149515000D02*
X137540000Y-155515000D01*
X137540000Y-155515000D02*
X136780000Y-155515000D01*
X136780000Y-155515000D02*
X136780000Y-149515000D01*
X137540000Y-146457929D02*
X137540000Y-146855000D01*
X136780000Y-146457929D02*
X136780000Y-146855000D01*
X135890000Y-146855000D02*
X135890000Y-149515000D01*
X135000000Y-149515000D02*
X135000000Y-155515000D01*
X135000000Y-155515000D02*
X134240000Y-155515000D01*
X134240000Y-155515000D02*
X134240000Y-149515000D01*
X135000000Y-146457929D02*
X135000000Y-146855000D01*
X134240000Y-146457929D02*
X134240000Y-146855000D01*
X133350000Y-146855000D02*
X133350000Y-149515000D01*
X132460000Y-149515000D02*
X132460000Y-155515000D01*
X132460000Y-155515000D02*
X131700000Y-155515000D01*
X131700000Y-155515000D02*
X131700000Y-149515000D01*
X132460000Y-146457929D02*
X132460000Y-146855000D01*
X131700000Y-146457929D02*
X131700000Y-146855000D01*
X130810000Y-146855000D02*
X130810000Y-149515000D01*
X129920000Y-149515000D02*
X129920000Y-155515000D01*
X129920000Y-155515000D02*
X129160000Y-155515000D01*
X129160000Y-155515000D02*
X129160000Y-149515000D01*
X129920000Y-146457929D02*
X129920000Y-146855000D01*
X129160000Y-146457929D02*
X129160000Y-146855000D01*
X128270000Y-146855000D02*
X128270000Y-149515000D01*
X127380000Y-149515000D02*
X127380000Y-155515000D01*
X127380000Y-155515000D02*
X126620000Y-155515000D01*
X126620000Y-155515000D02*
X126620000Y-149515000D01*
X127380000Y-146457929D02*
X127380000Y-146855000D01*
X126620000Y-146457929D02*
X126620000Y-146855000D01*
X125730000Y-146855000D02*
X125730000Y-149515000D01*
X124840000Y-149515000D02*
X124840000Y-155515000D01*
X124840000Y-155515000D02*
X124080000Y-155515000D01*
X124080000Y-155515000D02*
X124080000Y-149515000D01*
X124840000Y-146457929D02*
X124840000Y-146855000D01*
X124080000Y-146457929D02*
X124080000Y-146855000D01*
X123190000Y-146855000D02*
X123190000Y-149515000D01*
X122300000Y-149515000D02*
X122300000Y-155515000D01*
X122300000Y-155515000D02*
X121540000Y-155515000D01*
X121540000Y-155515000D02*
X121540000Y-149515000D01*
X122300000Y-146457929D02*
X122300000Y-146855000D01*
X121540000Y-146457929D02*
X121540000Y-146855000D01*
X120650000Y-146855000D02*
X120650000Y-149515000D01*
X119760000Y-149515000D02*
X119760000Y-155515000D01*
X119760000Y-155515000D02*
X119000000Y-155515000D01*
X119000000Y-155515000D02*
X119000000Y-149515000D01*
X119760000Y-146457929D02*
X119760000Y-146855000D01*
X119000000Y-146457929D02*
X119000000Y-146855000D01*
X118110000Y-146855000D02*
X118110000Y-149515000D01*
X117220000Y-149515000D02*
X117220000Y-155515000D01*
X117220000Y-155515000D02*
X116460000Y-155515000D01*
X116460000Y-155515000D02*
X116460000Y-149515000D01*
X117220000Y-146457929D02*
X117220000Y-146855000D01*
X116460000Y-146457929D02*
X116460000Y-146855000D01*
X115570000Y-146855000D02*
X115570000Y-149515000D01*
X114680000Y-149515000D02*
X114680000Y-155515000D01*
X114680000Y-155515000D02*
X113920000Y-155515000D01*
X113920000Y-155515000D02*
X113920000Y-149515000D01*
X114680000Y-146457929D02*
X114680000Y-146855000D01*
X113920000Y-146457929D02*
X113920000Y-146855000D01*
X113030000Y-146855000D02*
X113030000Y-149515000D01*
X112140000Y-149515000D02*
X112140000Y-155515000D01*
X112140000Y-155515000D02*
X111380000Y-155515000D01*
X111380000Y-155515000D02*
X111380000Y-149515000D01*
X112140000Y-146457929D02*
X112140000Y-146855000D01*
X111380000Y-146457929D02*
X111380000Y-146855000D01*
X110490000Y-146855000D02*
X110490000Y-149515000D01*
X109600000Y-149515000D02*
X109600000Y-155515000D01*
X109600000Y-155515000D02*
X108840000Y-155515000D01*
X108840000Y-155515000D02*
X108840000Y-149515000D01*
X109600000Y-146457929D02*
X109600000Y-146855000D01*
X108840000Y-146457929D02*
X108840000Y-146855000D01*
X107950000Y-146855000D02*
X107950000Y-149515000D01*
X107060000Y-149515000D02*
X107060000Y-155515000D01*
X107060000Y-155515000D02*
X106300000Y-155515000D01*
X106300000Y-155515000D02*
X106300000Y-149515000D01*
X107060000Y-146457929D02*
X107060000Y-146855000D01*
X106300000Y-146457929D02*
X106300000Y-146855000D01*
X105410000Y-146855000D02*
X105410000Y-149515000D01*
X104520000Y-149515000D02*
X104520000Y-155515000D01*
X104520000Y-155515000D02*
X103760000Y-155515000D01*
X103760000Y-155515000D02*
X103760000Y-149515000D01*
X104520000Y-146457929D02*
X104520000Y-146855000D01*
X103760000Y-146457929D02*
X103760000Y-146855000D01*
X102870000Y-146855000D02*
X102870000Y-149515000D01*
X101980000Y-149515000D02*
X101980000Y-155515000D01*
X101980000Y-155515000D02*
X101220000Y-155515000D01*
X101220000Y-155515000D02*
X101220000Y-149515000D01*
X101980000Y-146457929D02*
X101980000Y-146855000D01*
X101220000Y-146457929D02*
X101220000Y-146855000D01*
X198120000Y-144145000D02*
X199390000Y-144145000D01*
X199390000Y-144145000D02*
X199390000Y-145415000D01*
X103585000Y-64925000D02*
X94785000Y-64925000D01*
X94785000Y-64925000D02*
X94785000Y-55725000D01*
X109485000Y-62225000D02*
X109485000Y-64925000D01*
X109485000Y-64925000D02*
X107585000Y-64925000D01*
X94785000Y-55725000D02*
X109485000Y-55725000D01*
X109485000Y-55725000D02*
X109485000Y-58325000D01*
X106426000Y-140335000D02*
G75*
G03X106426000Y-140335000I-2286000J0D01*
G01*
X197866000Y-140335000D02*
G75*
G03X197866000Y-140335000I-2286000J0D01*
G01*
X197866000Y-52070000D02*
G75*
G03X197866000Y-52070000I-2286000J0D01*
G01*
X106426000Y-52070000D02*
G75*
G03X106426000Y-52070000I-2286000J0D01*
G01*
X132040000Y-104050000D02*
X132040000Y-99230000D01*
X134660000Y-104050000D02*
X134660000Y-99230000D01*
X132040000Y-104050000D02*
X132354000Y-104050000D01*
X134346000Y-104050000D02*
X134660000Y-104050000D01*
X132040000Y-99230000D02*
X132354000Y-99230000D01*
X134346000Y-99230000D02*
X134660000Y-99230000D01*
X180380000Y-86450000D02*
X180380000Y-91270000D01*
X177760000Y-86450000D02*
X177760000Y-91270000D01*
X180380000Y-86450000D02*
X180066000Y-86450000D01*
X178074000Y-86450000D02*
X177760000Y-86450000D01*
X180380000Y-91270000D02*
X180066000Y-91270000D01*
X178074000Y-91270000D02*
X177760000Y-91270000D01*
X198030000Y-83860000D02*
X193210000Y-83860000D01*
X198030000Y-81240000D02*
X193210000Y-81240000D01*
X198030000Y-83860000D02*
X198030000Y-83546000D01*
X198030000Y-81554000D02*
X198030000Y-81240000D01*
X193210000Y-83860000D02*
X193210000Y-83546000D01*
X193210000Y-81554000D02*
X193210000Y-81240000D01*
X109180000Y-134530000D02*
X109180000Y-129710000D01*
X111800000Y-134530000D02*
X111800000Y-129710000D01*
X109180000Y-134530000D02*
X109494000Y-134530000D01*
X111486000Y-134530000D02*
X111800000Y-134530000D01*
X109180000Y-129710000D02*
X109494000Y-129710000D01*
X111486000Y-129710000D02*
X111800000Y-129710000D01*
X163740000Y-57825000D02*
X158920000Y-57825000D01*
X163740000Y-55205000D02*
X158920000Y-55205000D01*
X163740000Y-57825000D02*
X163740000Y-57511000D01*
X163740000Y-55519000D02*
X163740000Y-55205000D01*
X158920000Y-57825000D02*
X158920000Y-57511000D01*
X158920000Y-55519000D02*
X158920000Y-55205000D01*
X146775000Y-59650000D02*
X151595000Y-59650000D01*
X146775000Y-62270000D02*
X151595000Y-62270000D01*
X146775000Y-59650000D02*
X146775000Y-59964000D01*
X146775000Y-61956000D02*
X146775000Y-62270000D01*
X151595000Y-59650000D02*
X151595000Y-59964000D01*
X151595000Y-61956000D02*
X151595000Y-62270000D01*
X109160000Y-125790000D02*
X111820000Y-125790000D01*
X109160000Y-123190000D02*
X109160000Y-125790000D01*
X111820000Y-123190000D02*
X111820000Y-125790000D01*
X109160000Y-123190000D02*
X111820000Y-123190000D01*
X109160000Y-121920000D02*
X109160000Y-120590000D01*
X109160000Y-120590000D02*
X110490000Y-120590000D01*
X152435000Y-78780000D02*
X152435000Y-76160000D01*
X152435000Y-76160000D02*
X146015000Y-76160000D01*
X146015000Y-76160000D02*
X146015000Y-78780000D01*
X146015000Y-78780000D02*
X152435000Y-78780000D01*
X153325000Y-77470000D02*
X152435000Y-77470000D01*
X145125000Y-77470000D02*
X146015000Y-77470000D01*
X152435000Y-75605000D02*
X152435000Y-72985000D01*
X152435000Y-72985000D02*
X146015000Y-72985000D01*
X146015000Y-72985000D02*
X146015000Y-75605000D01*
X146015000Y-75605000D02*
X152435000Y-75605000D01*
X153325000Y-74295000D02*
X152435000Y-74295000D01*
X145125000Y-74295000D02*
X146015000Y-74295000D01*
X152435000Y-72430000D02*
X152435000Y-69810000D01*
X152435000Y-69810000D02*
X146015000Y-69810000D01*
X146015000Y-69810000D02*
X146015000Y-72430000D01*
X146015000Y-72430000D02*
X152435000Y-72430000D01*
X153325000Y-71120000D02*
X152435000Y-71120000D01*
X145125000Y-71120000D02*
X146015000Y-71120000D01*
X170780000Y-76160000D02*
X170780000Y-78780000D01*
X170780000Y-78780000D02*
X177200000Y-78780000D01*
X177200000Y-78780000D02*
X177200000Y-76160000D01*
X177200000Y-76160000D02*
X170780000Y-76160000D01*
X169890000Y-77470000D02*
X170780000Y-77470000D01*
X178090000Y-77470000D02*
X177200000Y-77470000D01*
X170780000Y-63460000D02*
X170780000Y-66080000D01*
X170780000Y-66080000D02*
X177200000Y-66080000D01*
X177200000Y-66080000D02*
X177200000Y-63460000D01*
X177200000Y-63460000D02*
X170780000Y-63460000D01*
X169890000Y-64770000D02*
X170780000Y-64770000D01*
X178090000Y-64770000D02*
X177200000Y-64770000D01*
X170780000Y-66635000D02*
X170780000Y-69255000D01*
X170780000Y-69255000D02*
X177200000Y-69255000D01*
X177200000Y-69255000D02*
X177200000Y-66635000D01*
X177200000Y-66635000D02*
X170780000Y-66635000D01*
X169890000Y-67945000D02*
X170780000Y-67945000D01*
X178090000Y-67945000D02*
X177200000Y-67945000D01*
X117440000Y-53935000D02*
X117440000Y-56555000D01*
X117440000Y-56555000D02*
X123860000Y-56555000D01*
X123860000Y-56555000D02*
X123860000Y-53935000D01*
X123860000Y-53935000D02*
X117440000Y-53935000D01*
X116550000Y-55245000D02*
X117440000Y-55245000D01*
X124750000Y-55245000D02*
X123860000Y-55245000D01*
X117440000Y-57110000D02*
X117440000Y-59730000D01*
X117440000Y-59730000D02*
X123860000Y-59730000D01*
X123860000Y-59730000D02*
X123860000Y-57110000D01*
X123860000Y-57110000D02*
X117440000Y-57110000D01*
X116550000Y-58420000D02*
X117440000Y-58420000D01*
X124750000Y-58420000D02*
X123860000Y-58420000D01*
X117440000Y-60285000D02*
X117440000Y-62905000D01*
X117440000Y-62905000D02*
X123860000Y-62905000D01*
X123860000Y-62905000D02*
X123860000Y-60285000D01*
X123860000Y-60285000D02*
X117440000Y-60285000D01*
X116550000Y-61595000D02*
X117440000Y-61595000D01*
X124750000Y-61595000D02*
X123860000Y-61595000D01*
X141590000Y-57495000D02*
X129440000Y-57495000D01*
X142340000Y-77645000D02*
X142340000Y-58245000D01*
X130190000Y-78395000D02*
X141590000Y-78395000D01*
X129440000Y-57495000D02*
X129440000Y-77645000D01*
X129440000Y-77645000D02*
G75*
G03X130190000Y-78395000I750000J0D01*
G01*
X141590000Y-78395000D02*
G75*
G03X142340000Y-77645000I0J750000D01*
G01*
X142340000Y-58245000D02*
G75*
G03X141590000Y-57495000I-750000J0D01*
G01*
X101785000Y-85089538D02*
G75*
G03X107335000Y-86634830I2990000J-462D01*
G01*
X101785000Y-85090462D02*
G75*
G02X107335000Y-83545170I2990000J462D01*
G01*
X107275000Y-85090000D02*
G75*
G03X107275000Y-85090000I-2500000J0D01*
G01*
X107335000Y-86635000D02*
X107335000Y-83545000D01*
X101785000Y-92074538D02*
G75*
G03X107335000Y-93619830I2990000J-462D01*
G01*
X101785000Y-92075462D02*
G75*
G02X107335000Y-90530170I2990000J462D01*
G01*
X107275000Y-92075000D02*
G75*
G03X107275000Y-92075000I-2500000J0D01*
G01*
X107335000Y-93620000D02*
X107335000Y-90530000D01*
X101785000Y-99059538D02*
G75*
G03X107335000Y-100604830I2990000J-462D01*
G01*
X101785000Y-99060462D02*
G75*
G02X107335000Y-97515170I2990000J462D01*
G01*
X107275000Y-99060000D02*
G75*
G03X107275000Y-99060000I-2500000J0D01*
G01*
X107335000Y-100605000D02*
X107335000Y-97515000D01*
X101785000Y-106044538D02*
G75*
G03X107335000Y-107589830I2990000J-462D01*
G01*
X101785000Y-106045462D02*
G75*
G02X107335000Y-104500170I2990000J462D01*
G01*
X107275000Y-106045000D02*
G75*
G03X107275000Y-106045000I-2500000J0D01*
G01*
X107335000Y-107590000D02*
X107335000Y-104500000D01*
X101785000Y-113029538D02*
G75*
G03X107335000Y-114574830I2990000J-462D01*
G01*
X101785000Y-113030462D02*
G75*
G02X107335000Y-111485170I2990000J462D01*
G01*
X107275000Y-113030000D02*
G75*
G03X107275000Y-113030000I-2500000J0D01*
G01*
X107335000Y-114575000D02*
X107335000Y-111485000D01*
X101785000Y-120014538D02*
G75*
G03X107335000Y-121559830I2990000J-462D01*
G01*
X101785000Y-120015462D02*
G75*
G02X107335000Y-118470170I2990000J462D01*
G01*
X107275000Y-120015000D02*
G75*
G03X107275000Y-120015000I-2500000J0D01*
G01*
X107335000Y-121560000D02*
X107335000Y-118470000D01*
X101785000Y-126999538D02*
G75*
G03X107335000Y-128544830I2990000J-462D01*
G01*
X101785000Y-127000462D02*
G75*
G02X107335000Y-125455170I2990000J462D01*
G01*
X107275000Y-127000000D02*
G75*
G03X107275000Y-127000000I-2500000J0D01*
G01*
X107335000Y-128545000D02*
X107335000Y-125455000D01*
X101785000Y-133984538D02*
G75*
G03X107335000Y-135529830I2990000J-462D01*
G01*
X101785000Y-133985462D02*
G75*
G02X107335000Y-132440170I2990000J462D01*
G01*
X107275000Y-133985000D02*
G75*
G03X107275000Y-133985000I-2500000J0D01*
G01*
X107335000Y-135530000D02*
X107335000Y-132440000D01*
X109160000Y-115630000D02*
X111820000Y-115630000D01*
X109160000Y-110490000D02*
X109160000Y-115630000D01*
X111820000Y-110490000D02*
X111820000Y-115630000D01*
X109160000Y-110490000D02*
X111820000Y-110490000D01*
X109160000Y-109220000D02*
X109160000Y-107890000D01*
X109160000Y-107890000D02*
X110490000Y-107890000D01*
X178090000Y-58420000D02*
X177200000Y-58420000D01*
X169890000Y-58420000D02*
X170780000Y-58420000D01*
X177200000Y-57110000D02*
X170780000Y-57110000D01*
X177200000Y-59730000D02*
X177200000Y-57110000D01*
X170780000Y-59730000D02*
X177200000Y-59730000D01*
X170780000Y-57110000D02*
X170780000Y-59730000D01*
X170780000Y-69810000D02*
X170780000Y-72430000D01*
X170780000Y-72430000D02*
X177200000Y-72430000D01*
X177200000Y-72430000D02*
X177200000Y-69810000D01*
X177200000Y-69810000D02*
X170780000Y-69810000D01*
X169890000Y-71120000D02*
X170780000Y-71120000D01*
X178090000Y-71120000D02*
X177200000Y-71120000D01*
X117440000Y-63460000D02*
X117440000Y-66080000D01*
X117440000Y-66080000D02*
X123860000Y-66080000D01*
X123860000Y-66080000D02*
X123860000Y-63460000D01*
X123860000Y-63460000D02*
X117440000Y-63460000D01*
X116550000Y-64770000D02*
X117440000Y-64770000D01*
X124750000Y-64770000D02*
X123860000Y-64770000D01*
X117440000Y-66635000D02*
X117440000Y-69255000D01*
X117440000Y-69255000D02*
X123860000Y-69255000D01*
X123860000Y-69255000D02*
X123860000Y-66635000D01*
X123860000Y-66635000D02*
X117440000Y-66635000D01*
X116550000Y-67945000D02*
X117440000Y-67945000D01*
X124750000Y-67945000D02*
X123860000Y-67945000D01*
X117440000Y-69810000D02*
X117440000Y-72430000D01*
X117440000Y-72430000D02*
X123860000Y-72430000D01*
X123860000Y-72430000D02*
X123860000Y-69810000D01*
X123860000Y-69810000D02*
X117440000Y-69810000D01*
X116550000Y-71120000D02*
X117440000Y-71120000D01*
X124750000Y-71120000D02*
X123860000Y-71120000D01*
X117440000Y-72985000D02*
X117440000Y-75605000D01*
X117440000Y-75605000D02*
X123860000Y-75605000D01*
X123860000Y-75605000D02*
X123860000Y-72985000D01*
X123860000Y-72985000D02*
X117440000Y-72985000D01*
X116550000Y-74295000D02*
X117440000Y-74295000D01*
X124750000Y-74295000D02*
X123860000Y-74295000D01*
X117440000Y-76160000D02*
X117440000Y-78780000D01*
X117440000Y-78780000D02*
X123860000Y-78780000D01*
X123860000Y-78780000D02*
X123860000Y-76160000D01*
X123860000Y-76160000D02*
X117440000Y-76160000D01*
X116550000Y-77470000D02*
X117440000Y-77470000D01*
X124750000Y-77470000D02*
X123860000Y-77470000D01*
X195575704Y-57505309D02*
G75*
G02X197885000Y-57465000I1154296J40309D01*
G01*
X197884052Y-57444879D02*
G75*
G02X196490000Y-58594000I-1154052J-20121D01*
G01*
X193110000Y-65785000D02*
X193110000Y-56135000D01*
X198061000Y-65785000D02*
X198061000Y-56135000D01*
X193110000Y-65785000D02*
X198061000Y-65785000D01*
X193110000Y-56135000D02*
X198061000Y-56135000D01*
X195996000Y-56589000D02*
X197606000Y-58200000D01*
X195855000Y-56729000D02*
X197465000Y-58341000D01*
X109005000Y-75835000D02*
X109005000Y-71335000D01*
X105005000Y-77085000D02*
X106505000Y-77085000D01*
X102505000Y-71335000D02*
X102505000Y-75835000D01*
X106505000Y-70085000D02*
X105005000Y-70085000D01*
X176895000Y-136310000D02*
X181395000Y-136310000D01*
X175645000Y-132310000D02*
X175645000Y-133810000D01*
X181395000Y-129810000D02*
X176895000Y-129810000D01*
X182645000Y-133810000D02*
X182645000Y-132310000D01*
X176895000Y-128690000D02*
X181395000Y-128690000D01*
X175645000Y-124690000D02*
X175645000Y-126190000D01*
X181395000Y-122190000D02*
X176895000Y-122190000D01*
X182645000Y-126190000D02*
X182645000Y-124690000D01*
X176895000Y-143930000D02*
X181395000Y-143930000D01*
X175645000Y-139930000D02*
X175645000Y-141430000D01*
X181395000Y-137430000D02*
X176895000Y-137430000D01*
X182645000Y-141430000D02*
X182645000Y-139930000D01*
X167370000Y-136310000D02*
X171870000Y-136310000D01*
X166120000Y-132310000D02*
X166120000Y-133810000D01*
X171870000Y-129810000D02*
X167370000Y-129810000D01*
X173120000Y-133810000D02*
X173120000Y-132310000D01*
X186420000Y-136310000D02*
X190920000Y-136310000D01*
X185170000Y-132310000D02*
X185170000Y-133810000D01*
X190920000Y-129810000D02*
X186420000Y-129810000D01*
X192170000Y-133810000D02*
X192170000Y-132310000D01*
X145780000Y-85030000D02*
G75*
G02X143780000Y-85030000I-1000000J0D01*
G01*
X143780000Y-85030000D02*
X138720000Y-85030000D01*
X138720000Y-85030000D02*
X138720000Y-135950000D01*
X138720000Y-135950000D02*
X150840000Y-135950000D01*
X150840000Y-135950000D02*
X150840000Y-85030000D01*
X150840000Y-85030000D02*
X145780000Y-85030000D01*
X135720000Y-84970000D02*
X135720000Y-136010000D01*
X135720000Y-136010000D02*
X153840000Y-136010000D01*
X153840000Y-136010000D02*
X153840000Y-84970000D01*
X153840000Y-84970000D02*
X135720000Y-84970000D01*
X168640000Y-85030000D02*
G75*
G02X166640000Y-85030000I-1000000J0D01*
G01*
X166640000Y-85030000D02*
X161580000Y-85030000D01*
X161580000Y-85030000D02*
X161580000Y-120710000D01*
X161580000Y-120710000D02*
X173700000Y-120710000D01*
X173700000Y-120710000D02*
X173700000Y-85030000D01*
X173700000Y-85030000D02*
X168640000Y-85030000D01*
X158580000Y-84970000D02*
X158580000Y-120770000D01*
X158580000Y-120770000D02*
X176700000Y-120770000D01*
X176700000Y-120770000D02*
X176700000Y-84970000D01*
X176700000Y-84970000D02*
X158580000Y-84970000D01*
X191500000Y-85030000D02*
G75*
G02X189500000Y-85030000I-1000000J0D01*
G01*
X189500000Y-85030000D02*
X184440000Y-85030000D01*
X184440000Y-85030000D02*
X184440000Y-120710000D01*
X184440000Y-120710000D02*
X196560000Y-120710000D01*
X196560000Y-120710000D02*
X196560000Y-85030000D01*
X196560000Y-85030000D02*
X191500000Y-85030000D01*
X181440000Y-84970000D02*
X181440000Y-120770000D01*
X181440000Y-120770000D02*
X199560000Y-120770000D01*
X199560000Y-120770000D02*
X199560000Y-84970000D01*
X199560000Y-84970000D02*
X181440000Y-84970000D01*
X122920000Y-85030000D02*
G75*
G02X120920000Y-85030000I-1000000J0D01*
G01*
X120920000Y-85030000D02*
X115860000Y-85030000D01*
X115860000Y-85030000D02*
X115860000Y-135950000D01*
X115860000Y-135950000D02*
X127980000Y-135950000D01*
X127980000Y-135950000D02*
X127980000Y-85030000D01*
X127980000Y-85030000D02*
X122920000Y-85030000D01*
X112860000Y-84970000D02*
X112860000Y-136010000D01*
X112860000Y-136010000D02*
X130980000Y-136010000D01*
X130980000Y-136010000D02*
X130980000Y-84970000D01*
X130980000Y-84970000D02*
X112860000Y-84970000D01*
X196385000Y-67885000D02*
X196385000Y-78165000D01*
X196385000Y-78165000D02*
X199045000Y-78165000D01*
X199045000Y-78165000D02*
X199045000Y-67885000D01*
X199045000Y-67885000D02*
X196385000Y-67885000D01*
X199045000Y-68835000D02*
X205045000Y-68835000D01*
X205045000Y-68835000D02*
X205045000Y-69595000D01*
X205045000Y-69595000D02*
X199045000Y-69595000D01*
X199045000Y-68895000D02*
X205045000Y-68895000D01*
X199045000Y-69015000D02*
X205045000Y-69015000D01*
X199045000Y-69135000D02*
X205045000Y-69135000D01*
X199045000Y-69255000D02*
X205045000Y-69255000D01*
X199045000Y-69375000D02*
X205045000Y-69375000D01*
X199045000Y-69495000D02*
X205045000Y-69495000D01*
X196055000Y-68835000D02*
X196385000Y-68835000D01*
X196055000Y-69595000D02*
X196385000Y-69595000D01*
X196385000Y-70485000D02*
X199045000Y-70485000D01*
X199045000Y-71375000D02*
X205045000Y-71375000D01*
X205045000Y-71375000D02*
X205045000Y-72135000D01*
X205045000Y-72135000D02*
X199045000Y-72135000D01*
X195987929Y-71375000D02*
X196385000Y-71375000D01*
X195987929Y-72135000D02*
X196385000Y-72135000D01*
X196385000Y-73025000D02*
X199045000Y-73025000D01*
X199045000Y-73915000D02*
X205045000Y-73915000D01*
X205045000Y-73915000D02*
X205045000Y-74675000D01*
X205045000Y-74675000D02*
X199045000Y-74675000D01*
X195987929Y-73915000D02*
X196385000Y-73915000D01*
X195987929Y-74675000D02*
X196385000Y-74675000D01*
X196385000Y-75565000D02*
X199045000Y-75565000D01*
X199045000Y-76455000D02*
X205045000Y-76455000D01*
X205045000Y-76455000D02*
X205045000Y-77215000D01*
X205045000Y-77215000D02*
X199045000Y-77215000D01*
X195987929Y-76455000D02*
X196385000Y-76455000D01*
X195987929Y-77215000D02*
X196385000Y-77215000D01*
X193675000Y-69215000D02*
X193675000Y-67945000D01*
X193675000Y-67945000D02*
X194945000Y-67945000D01*
X154900000Y-94650000D02*
X157520000Y-94650000D01*
X157520000Y-94650000D02*
X157520000Y-88230000D01*
X157520000Y-88230000D02*
X154900000Y-88230000D01*
X154900000Y-88230000D02*
X154900000Y-94650000D01*
X156210000Y-95540000D02*
X156210000Y-94650000D01*
X156210000Y-87340000D02*
X156210000Y-88230000D01*
X178090000Y-61595000D02*
X177200000Y-61595000D01*
X169890000Y-61595000D02*
X170780000Y-61595000D01*
X177200000Y-60285000D02*
X170780000Y-60285000D01*
X177200000Y-62905000D02*
X177200000Y-60285000D01*
X170780000Y-62905000D02*
X177200000Y-62905000D01*
X170780000Y-60285000D02*
X170780000Y-62905000D01*
X167640000Y-52070000D02*
X167640000Y-50800000D01*
X168910000Y-52070000D02*
X167640000Y-52070000D01*
X181990000Y-49757071D02*
X181990000Y-49360000D01*
X181230000Y-49757071D02*
X181230000Y-49360000D01*
X181990000Y-40700000D02*
X181990000Y-46700000D01*
X181230000Y-40700000D02*
X181990000Y-40700000D01*
X181230000Y-46700000D02*
X181230000Y-40700000D01*
X180340000Y-49360000D02*
X180340000Y-46700000D01*
X179450000Y-49757071D02*
X179450000Y-49360000D01*
X178690000Y-49757071D02*
X178690000Y-49360000D01*
X179450000Y-40700000D02*
X179450000Y-46700000D01*
X178690000Y-40700000D02*
X179450000Y-40700000D01*
X178690000Y-46700000D02*
X178690000Y-40700000D01*
X177800000Y-49360000D02*
X177800000Y-46700000D01*
X176910000Y-49757071D02*
X176910000Y-49360000D01*
X176150000Y-49757071D02*
X176150000Y-49360000D01*
X176910000Y-40700000D02*
X176910000Y-46700000D01*
X176150000Y-40700000D02*
X176910000Y-40700000D01*
X176150000Y-46700000D02*
X176150000Y-40700000D01*
X175260000Y-49360000D02*
X175260000Y-46700000D01*
X174370000Y-49757071D02*
X174370000Y-49360000D01*
X173610000Y-49757071D02*
X173610000Y-49360000D01*
X174370000Y-40700000D02*
X174370000Y-46700000D01*
X173610000Y-40700000D02*
X174370000Y-40700000D01*
X173610000Y-46700000D02*
X173610000Y-40700000D01*
X172720000Y-49360000D02*
X172720000Y-46700000D01*
X171830000Y-49757071D02*
X171830000Y-49360000D01*
X171070000Y-49757071D02*
X171070000Y-49360000D01*
X171830000Y-40700000D02*
X171830000Y-46700000D01*
X171070000Y-40700000D02*
X171830000Y-40700000D01*
X171070000Y-46700000D02*
X171070000Y-40700000D01*
X170180000Y-49360000D02*
X170180000Y-46700000D01*
X169290000Y-49690000D02*
X169290000Y-49360000D01*
X168530000Y-49690000D02*
X168530000Y-49360000D01*
X169190000Y-46700000D02*
X169190000Y-40700000D01*
X169070000Y-46700000D02*
X169070000Y-40700000D01*
X168950000Y-46700000D02*
X168950000Y-40700000D01*
X168830000Y-46700000D02*
X168830000Y-40700000D01*
X168710000Y-46700000D02*
X168710000Y-40700000D01*
X168590000Y-46700000D02*
X168590000Y-40700000D01*
X169290000Y-40700000D02*
X169290000Y-46700000D01*
X168530000Y-40700000D02*
X169290000Y-40700000D01*
X168530000Y-46700000D02*
X168530000Y-40700000D01*
X167580000Y-46700000D02*
X167580000Y-49360000D01*
X182940000Y-46700000D02*
X167580000Y-46700000D01*
X182940000Y-49360000D02*
X182940000Y-46700000D01*
X167580000Y-49360000D02*
X182940000Y-49360000D01*
X191305000Y-64015000D02*
X180805000Y-64015000D01*
X191305000Y-74415000D02*
X191305000Y-64015000D01*
X180805000Y-74415000D02*
X191305000Y-74415000D01*
X180805000Y-64015000D02*
X180805000Y-74415000D01*
X188305000Y-64075000D02*
X187055000Y-64075000D01*
X188305000Y-74355000D02*
X188305000Y-64075000D01*
X183805000Y-74355000D02*
X188305000Y-74355000D01*
X183805000Y-64075000D02*
X183805000Y-74355000D01*
X185055000Y-64075000D02*
X183805000Y-64075000D01*
X187055000Y-64075000D02*
G75*
G02X185055000Y-64075000I-1000000J0D01*
G01*
X183685000Y-60599000D02*
X183685000Y-60285000D01*
X183685000Y-62905000D02*
X183685000Y-62591000D01*
X188505000Y-60599000D02*
X188505000Y-60285000D01*
X188505000Y-62905000D02*
X188505000Y-62591000D01*
X188505000Y-60285000D02*
X183685000Y-60285000D01*
X188505000Y-62905000D02*
X183685000Y-62905000D01*
X111240000Y-84440000D02*
X191520000Y-84440000D01*
X191520000Y-84440000D02*
X191520000Y-48160000D01*
X191520000Y-48160000D02*
X112040000Y-48160000D01*
X111240000Y-48160000D02*
X111240000Y-84440000D01*
X111250000Y-48160000D02*
X112040000Y-48160000D01*
X117880000Y-47800000D02*
X120880000Y-47800000D01*
D10*
X160528095Y-62317380D02*
X160528095Y-63126904D01*
X160575714Y-63222142D01*
X160623333Y-63269761D01*
X160718571Y-63317380D01*
X160909047Y-63317380D01*
X161004285Y-63269761D01*
X161051904Y-63222142D01*
X161099523Y-63126904D01*
X161099523Y-62317380D01*
X162051904Y-62317380D02*
X161575714Y-62317380D01*
X161528095Y-62793571D01*
X161575714Y-62745952D01*
X161670952Y-62698333D01*
X161909047Y-62698333D01*
X162004285Y-62745952D01*
X162051904Y-62793571D01*
X162099523Y-62888809D01*
X162099523Y-63126904D01*
X162051904Y-63222142D01*
X162004285Y-63269761D01*
X161909047Y-63317380D01*
X161670952Y-63317380D01*
X161575714Y-63269761D01*
X161528095Y-63222142D01*
X160742380Y-70730714D02*
X160742380Y-70064047D01*
X161742380Y-70492619D01*
X161075714Y-69254523D02*
X161742380Y-69254523D01*
X160694761Y-69492619D02*
X161409047Y-69730714D01*
X161409047Y-69111666D01*
X161742380Y-68730714D02*
X160742380Y-68730714D01*
X161218571Y-68730714D02*
X161218571Y-68159285D01*
X161742380Y-68159285D02*
X160742380Y-68159285D01*
X161647142Y-67111666D02*
X161694761Y-67159285D01*
X161742380Y-67302142D01*
X161742380Y-67397380D01*
X161694761Y-67540238D01*
X161599523Y-67635476D01*
X161504285Y-67683095D01*
X161313809Y-67730714D01*
X161170952Y-67730714D01*
X160980476Y-67683095D01*
X160885238Y-67635476D01*
X160790000Y-67540238D01*
X160742380Y-67397380D01*
X160742380Y-67302142D01*
X160790000Y-67159285D01*
X160837619Y-67111666D01*
X160742380Y-66492619D02*
X160742380Y-66397380D01*
X160790000Y-66302142D01*
X160837619Y-66254523D01*
X160932857Y-66206904D01*
X161123333Y-66159285D01*
X161361428Y-66159285D01*
X161551904Y-66206904D01*
X161647142Y-66254523D01*
X161694761Y-66302142D01*
X161742380Y-66397380D01*
X161742380Y-66492619D01*
X161694761Y-66587857D01*
X161647142Y-66635476D01*
X161551904Y-66683095D01*
X161361428Y-66730714D01*
X161123333Y-66730714D01*
X160932857Y-66683095D01*
X160837619Y-66635476D01*
X160790000Y-66587857D01*
X160742380Y-66492619D01*
X160742380Y-65540238D02*
X160742380Y-65445000D01*
X160790000Y-65349761D01*
X160837619Y-65302142D01*
X160932857Y-65254523D01*
X161123333Y-65206904D01*
X161361428Y-65206904D01*
X161551904Y-65254523D01*
X161647142Y-65302142D01*
X161694761Y-65349761D01*
X161742380Y-65445000D01*
X161742380Y-65540238D01*
X161694761Y-65635476D01*
X161647142Y-65683095D01*
X161551904Y-65730714D01*
X161361428Y-65778333D01*
X161123333Y-65778333D01*
X160932857Y-65730714D01*
X160837619Y-65683095D01*
X160790000Y-65635476D01*
X160742380Y-65540238D01*
X147772380Y-65412857D02*
X147296190Y-65746190D01*
X147772380Y-65984285D02*
X146772380Y-65984285D01*
X146772380Y-65603333D01*
X146820000Y-65508095D01*
X146867619Y-65460476D01*
X146962857Y-65412857D01*
X147105714Y-65412857D01*
X147200952Y-65460476D01*
X147248571Y-65508095D01*
X147296190Y-65603333D01*
X147296190Y-65984285D01*
X146867619Y-65031904D02*
X146820000Y-64984285D01*
X146772380Y-64889047D01*
X146772380Y-64650952D01*
X146820000Y-64555714D01*
X146867619Y-64508095D01*
X146962857Y-64460476D01*
X147058095Y-64460476D01*
X147200952Y-64508095D01*
X147772380Y-65079523D01*
X147772380Y-64460476D01*
X147772380Y-63508095D02*
X147772380Y-64079523D01*
X147772380Y-63793809D02*
X146772380Y-63793809D01*
X146915238Y-63889047D01*
X147010476Y-63984285D01*
X147058095Y-64079523D01*
X151010952Y-65222380D02*
X150439523Y-65222380D01*
X150725238Y-65222380D02*
X150725238Y-64222380D01*
X150630000Y-64365238D01*
X150534761Y-64460476D01*
X150439523Y-64508095D01*
X151439523Y-65222380D02*
X151439523Y-64222380D01*
X151534761Y-64841428D02*
X151820476Y-65222380D01*
X151820476Y-64555714D02*
X151439523Y-64936666D01*
X147772380Y-68587857D02*
X147296190Y-68921190D01*
X147772380Y-69159285D02*
X146772380Y-69159285D01*
X146772380Y-68778333D01*
X146820000Y-68683095D01*
X146867619Y-68635476D01*
X146962857Y-68587857D01*
X147105714Y-68587857D01*
X147200952Y-68635476D01*
X147248571Y-68683095D01*
X147296190Y-68778333D01*
X147296190Y-69159285D01*
X146867619Y-68206904D02*
X146820000Y-68159285D01*
X146772380Y-68064047D01*
X146772380Y-67825952D01*
X146820000Y-67730714D01*
X146867619Y-67683095D01*
X146962857Y-67635476D01*
X147058095Y-67635476D01*
X147200952Y-67683095D01*
X147772380Y-68254523D01*
X147772380Y-67635476D01*
X146772380Y-67016428D02*
X146772380Y-66921190D01*
X146820000Y-66825952D01*
X146867619Y-66778333D01*
X146962857Y-66730714D01*
X147153333Y-66683095D01*
X147391428Y-66683095D01*
X147581904Y-66730714D01*
X147677142Y-66778333D01*
X147724761Y-66825952D01*
X147772380Y-66921190D01*
X147772380Y-67016428D01*
X147724761Y-67111666D01*
X147677142Y-67159285D01*
X147581904Y-67206904D01*
X147391428Y-67254523D01*
X147153333Y-67254523D01*
X146962857Y-67206904D01*
X146867619Y-67159285D01*
X146820000Y-67111666D01*
X146772380Y-67016428D01*
X149804523Y-67730714D02*
X149804523Y-68397380D01*
X149566428Y-67349761D02*
X149328333Y-68064047D01*
X149947380Y-68064047D01*
X150233095Y-67397380D02*
X150899761Y-67397380D01*
X150471190Y-68397380D01*
X151280714Y-68397380D02*
X151280714Y-67397380D01*
X151375952Y-68016428D02*
X151661666Y-68397380D01*
X151661666Y-67730714D02*
X151280714Y-68111666D01*
X172537380Y-74461666D02*
X172061190Y-74795000D01*
X172537380Y-75033095D02*
X171537380Y-75033095D01*
X171537380Y-74652142D01*
X171585000Y-74556904D01*
X171632619Y-74509285D01*
X171727857Y-74461666D01*
X171870714Y-74461666D01*
X171965952Y-74509285D01*
X172013571Y-74556904D01*
X172061190Y-74652142D01*
X172061190Y-75033095D01*
X171965952Y-73890238D02*
X171918333Y-73985476D01*
X171870714Y-74033095D01*
X171775476Y-74080714D01*
X171727857Y-74080714D01*
X171632619Y-74033095D01*
X171585000Y-73985476D01*
X171537380Y-73890238D01*
X171537380Y-73699761D01*
X171585000Y-73604523D01*
X171632619Y-73556904D01*
X171727857Y-73509285D01*
X171775476Y-73509285D01*
X171870714Y-73556904D01*
X171918333Y-73604523D01*
X171965952Y-73699761D01*
X171965952Y-73890238D01*
X172013571Y-73985476D01*
X172061190Y-74033095D01*
X172156428Y-74080714D01*
X172346904Y-74080714D01*
X172442142Y-74033095D01*
X172489761Y-73985476D01*
X172537380Y-73890238D01*
X172537380Y-73699761D01*
X172489761Y-73604523D01*
X172442142Y-73556904D01*
X172346904Y-73509285D01*
X172156428Y-73509285D01*
X172061190Y-73556904D01*
X172013571Y-73604523D01*
X171965952Y-73699761D01*
X175140952Y-74747380D02*
X174569523Y-74747380D01*
X174855238Y-74747380D02*
X174855238Y-73747380D01*
X174760000Y-73890238D01*
X174664761Y-73985476D01*
X174569523Y-74033095D01*
X175569523Y-74747380D02*
X175569523Y-73747380D01*
X175664761Y-74366428D02*
X175950476Y-74747380D01*
X175950476Y-74080714D02*
X175569523Y-74461666D01*
X199842380Y-150133333D02*
X200556666Y-150133333D01*
X200699523Y-150180952D01*
X200794761Y-150276190D01*
X200842380Y-150419047D01*
X200842380Y-150514285D01*
X200842380Y-149133333D02*
X200842380Y-149704761D01*
X200842380Y-149419047D02*
X199842380Y-149419047D01*
X199985238Y-149514285D01*
X200080476Y-149609523D01*
X200128095Y-149704761D01*
X96186666Y-60412380D02*
X96186666Y-61126666D01*
X96139047Y-61269523D01*
X96043809Y-61364761D01*
X95900952Y-61412380D01*
X95805714Y-61412380D01*
X96567619Y-60412380D02*
X97186666Y-60412380D01*
X96853333Y-60793333D01*
X96996190Y-60793333D01*
X97091428Y-60840952D01*
X97139047Y-60888571D01*
X97186666Y-60983809D01*
X97186666Y-61221904D01*
X97139047Y-61317142D01*
X97091428Y-61364761D01*
X96996190Y-61412380D01*
X96710476Y-61412380D01*
X96615238Y-61364761D01*
X96567619Y-61317142D01*
X133707142Y-101766666D02*
X133754761Y-101814285D01*
X133802380Y-101957142D01*
X133802380Y-102052380D01*
X133754761Y-102195238D01*
X133659523Y-102290476D01*
X133564285Y-102338095D01*
X133373809Y-102385714D01*
X133230952Y-102385714D01*
X133040476Y-102338095D01*
X132945238Y-102290476D01*
X132850000Y-102195238D01*
X132802380Y-102052380D01*
X132802380Y-101957142D01*
X132850000Y-101814285D01*
X132897619Y-101766666D01*
X133802380Y-100814285D02*
X133802380Y-101385714D01*
X133802380Y-101100000D02*
X132802380Y-101100000D01*
X132945238Y-101195238D01*
X133040476Y-101290476D01*
X133088095Y-101385714D01*
X179427142Y-89066666D02*
X179474761Y-89114285D01*
X179522380Y-89257142D01*
X179522380Y-89352380D01*
X179474761Y-89495238D01*
X179379523Y-89590476D01*
X179284285Y-89638095D01*
X179093809Y-89685714D01*
X178950952Y-89685714D01*
X178760476Y-89638095D01*
X178665238Y-89590476D01*
X178570000Y-89495238D01*
X178522380Y-89352380D01*
X178522380Y-89257142D01*
X178570000Y-89114285D01*
X178617619Y-89066666D01*
X178617619Y-88685714D02*
X178570000Y-88638095D01*
X178522380Y-88542857D01*
X178522380Y-88304761D01*
X178570000Y-88209523D01*
X178617619Y-88161904D01*
X178712857Y-88114285D01*
X178808095Y-88114285D01*
X178950952Y-88161904D01*
X179522380Y-88733333D01*
X179522380Y-88114285D01*
X195413333Y-82907142D02*
X195365714Y-82954761D01*
X195222857Y-83002380D01*
X195127619Y-83002380D01*
X194984761Y-82954761D01*
X194889523Y-82859523D01*
X194841904Y-82764285D01*
X194794285Y-82573809D01*
X194794285Y-82430952D01*
X194841904Y-82240476D01*
X194889523Y-82145238D01*
X194984761Y-82050000D01*
X195127619Y-82002380D01*
X195222857Y-82002380D01*
X195365714Y-82050000D01*
X195413333Y-82097619D01*
X195746666Y-82002380D02*
X196365714Y-82002380D01*
X196032380Y-82383333D01*
X196175238Y-82383333D01*
X196270476Y-82430952D01*
X196318095Y-82478571D01*
X196365714Y-82573809D01*
X196365714Y-82811904D01*
X196318095Y-82907142D01*
X196270476Y-82954761D01*
X196175238Y-83002380D01*
X195889523Y-83002380D01*
X195794285Y-82954761D01*
X195746666Y-82907142D01*
X110847142Y-132246666D02*
X110894761Y-132294285D01*
X110942380Y-132437142D01*
X110942380Y-132532380D01*
X110894761Y-132675238D01*
X110799523Y-132770476D01*
X110704285Y-132818095D01*
X110513809Y-132865714D01*
X110370952Y-132865714D01*
X110180476Y-132818095D01*
X110085238Y-132770476D01*
X109990000Y-132675238D01*
X109942380Y-132532380D01*
X109942380Y-132437142D01*
X109990000Y-132294285D01*
X110037619Y-132246666D01*
X110275714Y-131389523D02*
X110942380Y-131389523D01*
X109894761Y-131627619D02*
X110609047Y-131865714D01*
X110609047Y-131246666D01*
X161123333Y-56872142D02*
X161075714Y-56919761D01*
X160932857Y-56967380D01*
X160837619Y-56967380D01*
X160694761Y-56919761D01*
X160599523Y-56824523D01*
X160551904Y-56729285D01*
X160504285Y-56538809D01*
X160504285Y-56395952D01*
X160551904Y-56205476D01*
X160599523Y-56110238D01*
X160694761Y-56015000D01*
X160837619Y-55967380D01*
X160932857Y-55967380D01*
X161075714Y-56015000D01*
X161123333Y-56062619D01*
X162028095Y-55967380D02*
X161551904Y-55967380D01*
X161504285Y-56443571D01*
X161551904Y-56395952D01*
X161647142Y-56348333D01*
X161885238Y-56348333D01*
X161980476Y-56395952D01*
X162028095Y-56443571D01*
X162075714Y-56538809D01*
X162075714Y-56776904D01*
X162028095Y-56872142D01*
X161980476Y-56919761D01*
X161885238Y-56967380D01*
X161647142Y-56967380D01*
X161551904Y-56919761D01*
X161504285Y-56872142D01*
X149058333Y-60682142D02*
X149010714Y-60729761D01*
X148867857Y-60777380D01*
X148772619Y-60777380D01*
X148629761Y-60729761D01*
X148534523Y-60634523D01*
X148486904Y-60539285D01*
X148439285Y-60348809D01*
X148439285Y-60205952D01*
X148486904Y-60015476D01*
X148534523Y-59920238D01*
X148629761Y-59825000D01*
X148772619Y-59777380D01*
X148867857Y-59777380D01*
X149010714Y-59825000D01*
X149058333Y-59872619D01*
X149915476Y-59777380D02*
X149725000Y-59777380D01*
X149629761Y-59825000D01*
X149582142Y-59872619D01*
X149486904Y-60015476D01*
X149439285Y-60205952D01*
X149439285Y-60586904D01*
X149486904Y-60682142D01*
X149534523Y-60729761D01*
X149629761Y-60777380D01*
X149820238Y-60777380D01*
X149915476Y-60729761D01*
X149963095Y-60682142D01*
X150010714Y-60586904D01*
X150010714Y-60348809D01*
X149963095Y-60253571D01*
X149915476Y-60205952D01*
X149820238Y-60158333D01*
X149629761Y-60158333D01*
X149534523Y-60205952D01*
X149486904Y-60253571D01*
X149439285Y-60348809D01*
D13*
X147489761Y-61233095D02*
X147527857Y-61195000D01*
X147604047Y-61156904D01*
X147794523Y-61156904D01*
X147870714Y-61195000D01*
X147908809Y-61233095D01*
X147946904Y-61309285D01*
X147946904Y-61385476D01*
X147908809Y-61499761D01*
X147451666Y-61956904D01*
X147946904Y-61956904D01*
X148251666Y-61233095D02*
X148289761Y-61195000D01*
X148365952Y-61156904D01*
X148556428Y-61156904D01*
X148632619Y-61195000D01*
X148670714Y-61233095D01*
X148708809Y-61309285D01*
X148708809Y-61385476D01*
X148670714Y-61499761D01*
X148213571Y-61956904D01*
X148708809Y-61956904D01*
X149204047Y-61156904D02*
X149280238Y-61156904D01*
X149356428Y-61195000D01*
X149394523Y-61233095D01*
X149432619Y-61309285D01*
X149470714Y-61461666D01*
X149470714Y-61652142D01*
X149432619Y-61804523D01*
X149394523Y-61880714D01*
X149356428Y-61918809D01*
X149280238Y-61956904D01*
X149204047Y-61956904D01*
X149127857Y-61918809D01*
X149089761Y-61880714D01*
X149051666Y-61804523D01*
X149013571Y-61652142D01*
X149013571Y-61461666D01*
X149051666Y-61309285D01*
X149089761Y-61233095D01*
X149127857Y-61195000D01*
X149204047Y-61156904D01*
X149813571Y-61423571D02*
X149813571Y-61956904D01*
X149813571Y-61499761D02*
X149851666Y-61461666D01*
X149927857Y-61423571D01*
X150042142Y-61423571D01*
X150118333Y-61461666D01*
X150156428Y-61537857D01*
X150156428Y-61956904D01*
X150804047Y-61537857D02*
X150537380Y-61537857D01*
X150537380Y-61956904D02*
X150537380Y-61156904D01*
X150918333Y-61156904D01*
X108890000Y-127361904D02*
X108509047Y-127361904D01*
X108509047Y-126561904D01*
X109156666Y-126942857D02*
X109423333Y-126942857D01*
X109537619Y-127361904D02*
X109156666Y-127361904D01*
X109156666Y-126561904D01*
X109537619Y-126561904D01*
X109880476Y-127361904D02*
X109880476Y-126561904D01*
X110070952Y-126561904D01*
X110185238Y-126600000D01*
X110261428Y-126676190D01*
X110299523Y-126752380D01*
X110337619Y-126904761D01*
X110337619Y-127019047D01*
X110299523Y-127171428D01*
X110261428Y-127247619D01*
X110185238Y-127323809D01*
X110070952Y-127361904D01*
X109880476Y-127361904D01*
X110490000Y-127438095D02*
X111099523Y-127438095D01*
X111290000Y-126942857D02*
X111556666Y-126942857D01*
X111670952Y-127361904D02*
X111290000Y-127361904D01*
X111290000Y-126561904D01*
X111670952Y-126561904D01*
X112013809Y-127361904D02*
X112013809Y-126561904D01*
X112470952Y-127361904D01*
X112470952Y-126561904D01*
D10*
X147772380Y-77636666D02*
X147296190Y-77970000D01*
X147772380Y-78208095D02*
X146772380Y-78208095D01*
X146772380Y-77827142D01*
X146820000Y-77731904D01*
X146867619Y-77684285D01*
X146962857Y-77636666D01*
X147105714Y-77636666D01*
X147200952Y-77684285D01*
X147248571Y-77731904D01*
X147296190Y-77827142D01*
X147296190Y-78208095D01*
X147772380Y-76684285D02*
X147772380Y-77255714D01*
X147772380Y-76970000D02*
X146772380Y-76970000D01*
X146915238Y-77065238D01*
X147010476Y-77160476D01*
X147058095Y-77255714D01*
X149280714Y-76922380D02*
X149899761Y-76922380D01*
X149566428Y-77303333D01*
X149709285Y-77303333D01*
X149804523Y-77350952D01*
X149852142Y-77398571D01*
X149899761Y-77493809D01*
X149899761Y-77731904D01*
X149852142Y-77827142D01*
X149804523Y-77874761D01*
X149709285Y-77922380D01*
X149423571Y-77922380D01*
X149328333Y-77874761D01*
X149280714Y-77827142D01*
X150328333Y-77922380D02*
X150328333Y-76922380D01*
X150423571Y-77541428D02*
X150709285Y-77922380D01*
X150709285Y-77255714D02*
X150328333Y-77636666D01*
X151042619Y-76922380D02*
X151661666Y-76922380D01*
X151328333Y-77303333D01*
X151471190Y-77303333D01*
X151566428Y-77350952D01*
X151614047Y-77398571D01*
X151661666Y-77493809D01*
X151661666Y-77731904D01*
X151614047Y-77827142D01*
X151566428Y-77874761D01*
X151471190Y-77922380D01*
X151185476Y-77922380D01*
X151090238Y-77874761D01*
X151042619Y-77827142D01*
X147772380Y-74461666D02*
X147296190Y-74795000D01*
X147772380Y-75033095D02*
X146772380Y-75033095D01*
X146772380Y-74652142D01*
X146820000Y-74556904D01*
X146867619Y-74509285D01*
X146962857Y-74461666D01*
X147105714Y-74461666D01*
X147200952Y-74509285D01*
X147248571Y-74556904D01*
X147296190Y-74652142D01*
X147296190Y-75033095D01*
X146867619Y-74080714D02*
X146820000Y-74033095D01*
X146772380Y-73937857D01*
X146772380Y-73699761D01*
X146820000Y-73604523D01*
X146867619Y-73556904D01*
X146962857Y-73509285D01*
X147058095Y-73509285D01*
X147200952Y-73556904D01*
X147772380Y-74128333D01*
X147772380Y-73509285D01*
X149280714Y-73747380D02*
X149899761Y-73747380D01*
X149566428Y-74128333D01*
X149709285Y-74128333D01*
X149804523Y-74175952D01*
X149852142Y-74223571D01*
X149899761Y-74318809D01*
X149899761Y-74556904D01*
X149852142Y-74652142D01*
X149804523Y-74699761D01*
X149709285Y-74747380D01*
X149423571Y-74747380D01*
X149328333Y-74699761D01*
X149280714Y-74652142D01*
X150328333Y-74747380D02*
X150328333Y-73747380D01*
X150423571Y-74366428D02*
X150709285Y-74747380D01*
X150709285Y-74080714D02*
X150328333Y-74461666D01*
X151042619Y-73747380D02*
X151661666Y-73747380D01*
X151328333Y-74128333D01*
X151471190Y-74128333D01*
X151566428Y-74175952D01*
X151614047Y-74223571D01*
X151661666Y-74318809D01*
X151661666Y-74556904D01*
X151614047Y-74652142D01*
X151566428Y-74699761D01*
X151471190Y-74747380D01*
X151185476Y-74747380D01*
X151090238Y-74699761D01*
X151042619Y-74652142D01*
X147772380Y-71286666D02*
X147296190Y-71620000D01*
X147772380Y-71858095D02*
X146772380Y-71858095D01*
X146772380Y-71477142D01*
X146820000Y-71381904D01*
X146867619Y-71334285D01*
X146962857Y-71286666D01*
X147105714Y-71286666D01*
X147200952Y-71334285D01*
X147248571Y-71381904D01*
X147296190Y-71477142D01*
X147296190Y-71858095D01*
X146772380Y-70953333D02*
X146772380Y-70334285D01*
X147153333Y-70667619D01*
X147153333Y-70524761D01*
X147200952Y-70429523D01*
X147248571Y-70381904D01*
X147343809Y-70334285D01*
X147581904Y-70334285D01*
X147677142Y-70381904D01*
X147724761Y-70429523D01*
X147772380Y-70524761D01*
X147772380Y-70810476D01*
X147724761Y-70905714D01*
X147677142Y-70953333D01*
X149042619Y-70572380D02*
X149661666Y-70572380D01*
X149328333Y-70953333D01*
X149471190Y-70953333D01*
X149566428Y-71000952D01*
X149614047Y-71048571D01*
X149661666Y-71143809D01*
X149661666Y-71381904D01*
X149614047Y-71477142D01*
X149566428Y-71524761D01*
X149471190Y-71572380D01*
X149185476Y-71572380D01*
X149090238Y-71524761D01*
X149042619Y-71477142D01*
X150090238Y-71477142D02*
X150137857Y-71524761D01*
X150090238Y-71572380D01*
X150042619Y-71524761D01*
X150090238Y-71477142D01*
X150090238Y-71572380D01*
X150471190Y-70572380D02*
X151090238Y-70572380D01*
X150756904Y-70953333D01*
X150899761Y-70953333D01*
X150995000Y-71000952D01*
X151042619Y-71048571D01*
X151090238Y-71143809D01*
X151090238Y-71381904D01*
X151042619Y-71477142D01*
X150995000Y-71524761D01*
X150899761Y-71572380D01*
X150614047Y-71572380D01*
X150518809Y-71524761D01*
X150471190Y-71477142D01*
X151518809Y-71572380D02*
X151518809Y-70572380D01*
X151614047Y-71191428D02*
X151899761Y-71572380D01*
X151899761Y-70905714D02*
X151518809Y-71286666D01*
X172537380Y-77636666D02*
X172061190Y-77970000D01*
X172537380Y-78208095D02*
X171537380Y-78208095D01*
X171537380Y-77827142D01*
X171585000Y-77731904D01*
X171632619Y-77684285D01*
X171727857Y-77636666D01*
X171870714Y-77636666D01*
X171965952Y-77684285D01*
X172013571Y-77731904D01*
X172061190Y-77827142D01*
X172061190Y-78208095D01*
X171537380Y-76779523D02*
X171537380Y-76970000D01*
X171585000Y-77065238D01*
X171632619Y-77112857D01*
X171775476Y-77208095D01*
X171965952Y-77255714D01*
X172346904Y-77255714D01*
X172442142Y-77208095D01*
X172489761Y-77160476D01*
X172537380Y-77065238D01*
X172537380Y-76874761D01*
X172489761Y-76779523D01*
X172442142Y-76731904D01*
X172346904Y-76684285D01*
X172108809Y-76684285D01*
X172013571Y-76731904D01*
X171965952Y-76779523D01*
X171918333Y-76874761D01*
X171918333Y-77065238D01*
X171965952Y-77160476D01*
X172013571Y-77208095D01*
X172108809Y-77255714D01*
X175140952Y-77922380D02*
X174569523Y-77922380D01*
X174855238Y-77922380D02*
X174855238Y-76922380D01*
X174760000Y-77065238D01*
X174664761Y-77160476D01*
X174569523Y-77208095D01*
X175569523Y-77922380D02*
X175569523Y-76922380D01*
X175664761Y-77541428D02*
X175950476Y-77922380D01*
X175950476Y-77255714D02*
X175569523Y-77636666D01*
X172537380Y-64936666D02*
X172061190Y-65270000D01*
X172537380Y-65508095D02*
X171537380Y-65508095D01*
X171537380Y-65127142D01*
X171585000Y-65031904D01*
X171632619Y-64984285D01*
X171727857Y-64936666D01*
X171870714Y-64936666D01*
X171965952Y-64984285D01*
X172013571Y-65031904D01*
X172061190Y-65127142D01*
X172061190Y-65508095D01*
X171537380Y-64603333D02*
X171537380Y-63936666D01*
X172537380Y-64365238D01*
X175140952Y-65222380D02*
X174569523Y-65222380D01*
X174855238Y-65222380D02*
X174855238Y-64222380D01*
X174760000Y-64365238D01*
X174664761Y-64460476D01*
X174569523Y-64508095D01*
X175569523Y-65222380D02*
X175569523Y-64222380D01*
X175664761Y-64841428D02*
X175950476Y-65222380D01*
X175950476Y-64555714D02*
X175569523Y-64936666D01*
X172537380Y-68111666D02*
X172061190Y-68445000D01*
X172537380Y-68683095D02*
X171537380Y-68683095D01*
X171537380Y-68302142D01*
X171585000Y-68206904D01*
X171632619Y-68159285D01*
X171727857Y-68111666D01*
X171870714Y-68111666D01*
X171965952Y-68159285D01*
X172013571Y-68206904D01*
X172061190Y-68302142D01*
X172061190Y-68683095D01*
X172537380Y-67635476D02*
X172537380Y-67445000D01*
X172489761Y-67349761D01*
X172442142Y-67302142D01*
X172299285Y-67206904D01*
X172108809Y-67159285D01*
X171727857Y-67159285D01*
X171632619Y-67206904D01*
X171585000Y-67254523D01*
X171537380Y-67349761D01*
X171537380Y-67540238D01*
X171585000Y-67635476D01*
X171632619Y-67683095D01*
X171727857Y-67730714D01*
X171965952Y-67730714D01*
X172061190Y-67683095D01*
X172108809Y-67635476D01*
X172156428Y-67540238D01*
X172156428Y-67349761D01*
X172108809Y-67254523D01*
X172061190Y-67206904D01*
X171965952Y-67159285D01*
X175140952Y-68397380D02*
X174569523Y-68397380D01*
X174855238Y-68397380D02*
X174855238Y-67397380D01*
X174760000Y-67540238D01*
X174664761Y-67635476D01*
X174569523Y-67683095D01*
X175569523Y-68397380D02*
X175569523Y-67397380D01*
X175664761Y-68016428D02*
X175950476Y-68397380D01*
X175950476Y-67730714D02*
X175569523Y-68111666D01*
X119197380Y-55887857D02*
X118721190Y-56221190D01*
X119197380Y-56459285D02*
X118197380Y-56459285D01*
X118197380Y-56078333D01*
X118245000Y-55983095D01*
X118292619Y-55935476D01*
X118387857Y-55887857D01*
X118530714Y-55887857D01*
X118625952Y-55935476D01*
X118673571Y-55983095D01*
X118721190Y-56078333D01*
X118721190Y-56459285D01*
X119197380Y-54935476D02*
X119197380Y-55506904D01*
X119197380Y-55221190D02*
X118197380Y-55221190D01*
X118340238Y-55316428D01*
X118435476Y-55411666D01*
X118483095Y-55506904D01*
X118197380Y-54316428D02*
X118197380Y-54221190D01*
X118245000Y-54125952D01*
X118292619Y-54078333D01*
X118387857Y-54030714D01*
X118578333Y-53983095D01*
X118816428Y-53983095D01*
X119006904Y-54030714D01*
X119102142Y-54078333D01*
X119149761Y-54125952D01*
X119197380Y-54221190D01*
X119197380Y-54316428D01*
X119149761Y-54411666D01*
X119102142Y-54459285D01*
X119006904Y-54506904D01*
X118816428Y-54554523D01*
X118578333Y-54554523D01*
X118387857Y-54506904D01*
X118292619Y-54459285D01*
X118245000Y-54411666D01*
X118197380Y-54316428D01*
X120681904Y-54792619D02*
X120729523Y-54745000D01*
X120824761Y-54697380D01*
X121062857Y-54697380D01*
X121158095Y-54745000D01*
X121205714Y-54792619D01*
X121253333Y-54887857D01*
X121253333Y-54983095D01*
X121205714Y-55125952D01*
X120634285Y-55697380D01*
X121253333Y-55697380D01*
X121634285Y-54792619D02*
X121681904Y-54745000D01*
X121777142Y-54697380D01*
X122015238Y-54697380D01*
X122110476Y-54745000D01*
X122158095Y-54792619D01*
X122205714Y-54887857D01*
X122205714Y-54983095D01*
X122158095Y-55125952D01*
X121586666Y-55697380D01*
X122205714Y-55697380D01*
X122824761Y-54697380D02*
X122920000Y-54697380D01*
X123015238Y-54745000D01*
X123062857Y-54792619D01*
X123110476Y-54887857D01*
X123158095Y-55078333D01*
X123158095Y-55316428D01*
X123110476Y-55506904D01*
X123062857Y-55602142D01*
X123015238Y-55649761D01*
X122920000Y-55697380D01*
X122824761Y-55697380D01*
X122729523Y-55649761D01*
X122681904Y-55602142D01*
X122634285Y-55506904D01*
X122586666Y-55316428D01*
X122586666Y-55078333D01*
X122634285Y-54887857D01*
X122681904Y-54792619D01*
X122729523Y-54745000D01*
X122824761Y-54697380D01*
X119197380Y-59062857D02*
X118721190Y-59396190D01*
X119197380Y-59634285D02*
X118197380Y-59634285D01*
X118197380Y-59253333D01*
X118245000Y-59158095D01*
X118292619Y-59110476D01*
X118387857Y-59062857D01*
X118530714Y-59062857D01*
X118625952Y-59110476D01*
X118673571Y-59158095D01*
X118721190Y-59253333D01*
X118721190Y-59634285D01*
X119197380Y-58110476D02*
X119197380Y-58681904D01*
X119197380Y-58396190D02*
X118197380Y-58396190D01*
X118340238Y-58491428D01*
X118435476Y-58586666D01*
X118483095Y-58681904D01*
X119197380Y-57158095D02*
X119197380Y-57729523D01*
X119197380Y-57443809D02*
X118197380Y-57443809D01*
X118340238Y-57539047D01*
X118435476Y-57634285D01*
X118483095Y-57729523D01*
X120681904Y-57967619D02*
X120729523Y-57920000D01*
X120824761Y-57872380D01*
X121062857Y-57872380D01*
X121158095Y-57920000D01*
X121205714Y-57967619D01*
X121253333Y-58062857D01*
X121253333Y-58158095D01*
X121205714Y-58300952D01*
X120634285Y-58872380D01*
X121253333Y-58872380D01*
X121634285Y-57967619D02*
X121681904Y-57920000D01*
X121777142Y-57872380D01*
X122015238Y-57872380D01*
X122110476Y-57920000D01*
X122158095Y-57967619D01*
X122205714Y-58062857D01*
X122205714Y-58158095D01*
X122158095Y-58300952D01*
X121586666Y-58872380D01*
X122205714Y-58872380D01*
X122824761Y-57872380D02*
X122920000Y-57872380D01*
X123015238Y-57920000D01*
X123062857Y-57967619D01*
X123110476Y-58062857D01*
X123158095Y-58253333D01*
X123158095Y-58491428D01*
X123110476Y-58681904D01*
X123062857Y-58777142D01*
X123015238Y-58824761D01*
X122920000Y-58872380D01*
X122824761Y-58872380D01*
X122729523Y-58824761D01*
X122681904Y-58777142D01*
X122634285Y-58681904D01*
X122586666Y-58491428D01*
X122586666Y-58253333D01*
X122634285Y-58062857D01*
X122681904Y-57967619D01*
X122729523Y-57920000D01*
X122824761Y-57872380D01*
X119197380Y-62237857D02*
X118721190Y-62571190D01*
X119197380Y-62809285D02*
X118197380Y-62809285D01*
X118197380Y-62428333D01*
X118245000Y-62333095D01*
X118292619Y-62285476D01*
X118387857Y-62237857D01*
X118530714Y-62237857D01*
X118625952Y-62285476D01*
X118673571Y-62333095D01*
X118721190Y-62428333D01*
X118721190Y-62809285D01*
X119197380Y-61285476D02*
X119197380Y-61856904D01*
X119197380Y-61571190D02*
X118197380Y-61571190D01*
X118340238Y-61666428D01*
X118435476Y-61761666D01*
X118483095Y-61856904D01*
X118292619Y-60904523D02*
X118245000Y-60856904D01*
X118197380Y-60761666D01*
X118197380Y-60523571D01*
X118245000Y-60428333D01*
X118292619Y-60380714D01*
X118387857Y-60333095D01*
X118483095Y-60333095D01*
X118625952Y-60380714D01*
X119197380Y-60952142D01*
X119197380Y-60333095D01*
X120681904Y-61142619D02*
X120729523Y-61095000D01*
X120824761Y-61047380D01*
X121062857Y-61047380D01*
X121158095Y-61095000D01*
X121205714Y-61142619D01*
X121253333Y-61237857D01*
X121253333Y-61333095D01*
X121205714Y-61475952D01*
X120634285Y-62047380D01*
X121253333Y-62047380D01*
X121634285Y-61142619D02*
X121681904Y-61095000D01*
X121777142Y-61047380D01*
X122015238Y-61047380D01*
X122110476Y-61095000D01*
X122158095Y-61142619D01*
X122205714Y-61237857D01*
X122205714Y-61333095D01*
X122158095Y-61475952D01*
X121586666Y-62047380D01*
X122205714Y-62047380D01*
X122824761Y-61047380D02*
X122920000Y-61047380D01*
X123015238Y-61095000D01*
X123062857Y-61142619D01*
X123110476Y-61237857D01*
X123158095Y-61428333D01*
X123158095Y-61666428D01*
X123110476Y-61856904D01*
X123062857Y-61952142D01*
X123015238Y-61999761D01*
X122920000Y-62047380D01*
X122824761Y-62047380D01*
X122729523Y-61999761D01*
X122681904Y-61952142D01*
X122634285Y-61856904D01*
X122586666Y-61666428D01*
X122586666Y-61428333D01*
X122634285Y-61237857D01*
X122681904Y-61142619D01*
X122729523Y-61095000D01*
X122824761Y-61047380D01*
X135080476Y-66127380D02*
X135747142Y-67127380D01*
X135747142Y-66127380D02*
X135080476Y-67127380D01*
X136651904Y-67127380D02*
X136080476Y-67127380D01*
X136366190Y-67127380D02*
X136366190Y-66127380D01*
X136270952Y-66270238D01*
X136175714Y-66365476D01*
X136080476Y-66413095D01*
X134675714Y-69032380D02*
X134104285Y-69032380D01*
X134390000Y-69032380D02*
X134390000Y-68032380D01*
X134294761Y-68175238D01*
X134199523Y-68270476D01*
X134104285Y-68318095D01*
X135104285Y-69032380D02*
X135104285Y-68032380D01*
X135437619Y-68746666D01*
X135770952Y-68032380D01*
X135770952Y-69032380D01*
X136247142Y-69032380D02*
X136247142Y-68032380D01*
X136247142Y-68508571D02*
X136818571Y-68508571D01*
X136818571Y-69032380D02*
X136818571Y-68032380D01*
X137199523Y-68365714D02*
X137723333Y-68365714D01*
X137199523Y-69032380D01*
X137723333Y-69032380D01*
D13*
X108851904Y-117201904D02*
X108470952Y-117201904D01*
X108470952Y-116401904D01*
X109575714Y-117125714D02*
X109537619Y-117163809D01*
X109423333Y-117201904D01*
X109347142Y-117201904D01*
X109232857Y-117163809D01*
X109156666Y-117087619D01*
X109118571Y-117011428D01*
X109080476Y-116859047D01*
X109080476Y-116744761D01*
X109118571Y-116592380D01*
X109156666Y-116516190D01*
X109232857Y-116440000D01*
X109347142Y-116401904D01*
X109423333Y-116401904D01*
X109537619Y-116440000D01*
X109575714Y-116478095D01*
X109918571Y-117201904D02*
X109918571Y-116401904D01*
X110109047Y-116401904D01*
X110223333Y-116440000D01*
X110299523Y-116516190D01*
X110337619Y-116592380D01*
X110375714Y-116744761D01*
X110375714Y-116859047D01*
X110337619Y-117011428D01*
X110299523Y-117087619D01*
X110223333Y-117163809D01*
X110109047Y-117201904D01*
X109918571Y-117201904D01*
X110528095Y-117278095D02*
X111137619Y-117278095D01*
X111328095Y-116782857D02*
X111594761Y-116782857D01*
X111709047Y-117201904D02*
X111328095Y-117201904D01*
X111328095Y-116401904D01*
X111709047Y-116401904D01*
X112051904Y-117201904D02*
X112051904Y-116401904D01*
X112509047Y-117201904D01*
X112509047Y-116401904D01*
D10*
X172537380Y-58586666D02*
X172061190Y-58920000D01*
X172537380Y-59158095D02*
X171537380Y-59158095D01*
X171537380Y-58777142D01*
X171585000Y-58681904D01*
X171632619Y-58634285D01*
X171727857Y-58586666D01*
X171870714Y-58586666D01*
X171965952Y-58634285D01*
X172013571Y-58681904D01*
X172061190Y-58777142D01*
X172061190Y-59158095D01*
X171870714Y-57729523D02*
X172537380Y-57729523D01*
X171489761Y-57967619D02*
X172204047Y-58205714D01*
X172204047Y-57586666D01*
X175140952Y-58872380D02*
X174569523Y-58872380D01*
X174855238Y-58872380D02*
X174855238Y-57872380D01*
X174760000Y-58015238D01*
X174664761Y-58110476D01*
X174569523Y-58158095D01*
X175569523Y-58872380D02*
X175569523Y-57872380D01*
X175664761Y-58491428D02*
X175950476Y-58872380D01*
X175950476Y-58205714D02*
X175569523Y-58586666D01*
X172537380Y-71286666D02*
X172061190Y-71620000D01*
X172537380Y-71858095D02*
X171537380Y-71858095D01*
X171537380Y-71477142D01*
X171585000Y-71381904D01*
X171632619Y-71334285D01*
X171727857Y-71286666D01*
X171870714Y-71286666D01*
X171965952Y-71334285D01*
X172013571Y-71381904D01*
X172061190Y-71477142D01*
X172061190Y-71858095D01*
X171537380Y-70381904D02*
X171537380Y-70858095D01*
X172013571Y-70905714D01*
X171965952Y-70858095D01*
X171918333Y-70762857D01*
X171918333Y-70524761D01*
X171965952Y-70429523D01*
X172013571Y-70381904D01*
X172108809Y-70334285D01*
X172346904Y-70334285D01*
X172442142Y-70381904D01*
X172489761Y-70429523D01*
X172537380Y-70524761D01*
X172537380Y-70762857D01*
X172489761Y-70858095D01*
X172442142Y-70905714D01*
X175140952Y-71572380D02*
X174569523Y-71572380D01*
X174855238Y-71572380D02*
X174855238Y-70572380D01*
X174760000Y-70715238D01*
X174664761Y-70810476D01*
X174569523Y-70858095D01*
X175569523Y-71572380D02*
X175569523Y-70572380D01*
X175664761Y-71191428D02*
X175950476Y-71572380D01*
X175950476Y-70905714D02*
X175569523Y-71286666D01*
X119197380Y-65412857D02*
X118721190Y-65746190D01*
X119197380Y-65984285D02*
X118197380Y-65984285D01*
X118197380Y-65603333D01*
X118245000Y-65508095D01*
X118292619Y-65460476D01*
X118387857Y-65412857D01*
X118530714Y-65412857D01*
X118625952Y-65460476D01*
X118673571Y-65508095D01*
X118721190Y-65603333D01*
X118721190Y-65984285D01*
X119197380Y-64460476D02*
X119197380Y-65031904D01*
X119197380Y-64746190D02*
X118197380Y-64746190D01*
X118340238Y-64841428D01*
X118435476Y-64936666D01*
X118483095Y-65031904D01*
X118197380Y-64127142D02*
X118197380Y-63508095D01*
X118578333Y-63841428D01*
X118578333Y-63698571D01*
X118625952Y-63603333D01*
X118673571Y-63555714D01*
X118768809Y-63508095D01*
X119006904Y-63508095D01*
X119102142Y-63555714D01*
X119149761Y-63603333D01*
X119197380Y-63698571D01*
X119197380Y-63984285D01*
X119149761Y-64079523D01*
X119102142Y-64127142D01*
X120681904Y-64317619D02*
X120729523Y-64270000D01*
X120824761Y-64222380D01*
X121062857Y-64222380D01*
X121158095Y-64270000D01*
X121205714Y-64317619D01*
X121253333Y-64412857D01*
X121253333Y-64508095D01*
X121205714Y-64650952D01*
X120634285Y-65222380D01*
X121253333Y-65222380D01*
X121634285Y-64317619D02*
X121681904Y-64270000D01*
X121777142Y-64222380D01*
X122015238Y-64222380D01*
X122110476Y-64270000D01*
X122158095Y-64317619D01*
X122205714Y-64412857D01*
X122205714Y-64508095D01*
X122158095Y-64650952D01*
X121586666Y-65222380D01*
X122205714Y-65222380D01*
X122824761Y-64222380D02*
X122920000Y-64222380D01*
X123015238Y-64270000D01*
X123062857Y-64317619D01*
X123110476Y-64412857D01*
X123158095Y-64603333D01*
X123158095Y-64841428D01*
X123110476Y-65031904D01*
X123062857Y-65127142D01*
X123015238Y-65174761D01*
X122920000Y-65222380D01*
X122824761Y-65222380D01*
X122729523Y-65174761D01*
X122681904Y-65127142D01*
X122634285Y-65031904D01*
X122586666Y-64841428D01*
X122586666Y-64603333D01*
X122634285Y-64412857D01*
X122681904Y-64317619D01*
X122729523Y-64270000D01*
X122824761Y-64222380D01*
X119197380Y-68587857D02*
X118721190Y-68921190D01*
X119197380Y-69159285D02*
X118197380Y-69159285D01*
X118197380Y-68778333D01*
X118245000Y-68683095D01*
X118292619Y-68635476D01*
X118387857Y-68587857D01*
X118530714Y-68587857D01*
X118625952Y-68635476D01*
X118673571Y-68683095D01*
X118721190Y-68778333D01*
X118721190Y-69159285D01*
X119197380Y-67635476D02*
X119197380Y-68206904D01*
X119197380Y-67921190D02*
X118197380Y-67921190D01*
X118340238Y-68016428D01*
X118435476Y-68111666D01*
X118483095Y-68206904D01*
X118530714Y-66778333D02*
X119197380Y-66778333D01*
X118149761Y-67016428D02*
X118864047Y-67254523D01*
X118864047Y-66635476D01*
X120681904Y-67492619D02*
X120729523Y-67445000D01*
X120824761Y-67397380D01*
X121062857Y-67397380D01*
X121158095Y-67445000D01*
X121205714Y-67492619D01*
X121253333Y-67587857D01*
X121253333Y-67683095D01*
X121205714Y-67825952D01*
X120634285Y-68397380D01*
X121253333Y-68397380D01*
X121634285Y-67492619D02*
X121681904Y-67445000D01*
X121777142Y-67397380D01*
X122015238Y-67397380D01*
X122110476Y-67445000D01*
X122158095Y-67492619D01*
X122205714Y-67587857D01*
X122205714Y-67683095D01*
X122158095Y-67825952D01*
X121586666Y-68397380D01*
X122205714Y-68397380D01*
X122824761Y-67397380D02*
X122920000Y-67397380D01*
X123015238Y-67445000D01*
X123062857Y-67492619D01*
X123110476Y-67587857D01*
X123158095Y-67778333D01*
X123158095Y-68016428D01*
X123110476Y-68206904D01*
X123062857Y-68302142D01*
X123015238Y-68349761D01*
X122920000Y-68397380D01*
X122824761Y-68397380D01*
X122729523Y-68349761D01*
X122681904Y-68302142D01*
X122634285Y-68206904D01*
X122586666Y-68016428D01*
X122586666Y-67778333D01*
X122634285Y-67587857D01*
X122681904Y-67492619D01*
X122729523Y-67445000D01*
X122824761Y-67397380D01*
X119197380Y-71762857D02*
X118721190Y-72096190D01*
X119197380Y-72334285D02*
X118197380Y-72334285D01*
X118197380Y-71953333D01*
X118245000Y-71858095D01*
X118292619Y-71810476D01*
X118387857Y-71762857D01*
X118530714Y-71762857D01*
X118625952Y-71810476D01*
X118673571Y-71858095D01*
X118721190Y-71953333D01*
X118721190Y-72334285D01*
X119197380Y-70810476D02*
X119197380Y-71381904D01*
X119197380Y-71096190D02*
X118197380Y-71096190D01*
X118340238Y-71191428D01*
X118435476Y-71286666D01*
X118483095Y-71381904D01*
X118197380Y-69905714D02*
X118197380Y-70381904D01*
X118673571Y-70429523D01*
X118625952Y-70381904D01*
X118578333Y-70286666D01*
X118578333Y-70048571D01*
X118625952Y-69953333D01*
X118673571Y-69905714D01*
X118768809Y-69858095D01*
X119006904Y-69858095D01*
X119102142Y-69905714D01*
X119149761Y-69953333D01*
X119197380Y-70048571D01*
X119197380Y-70286666D01*
X119149761Y-70381904D01*
X119102142Y-70429523D01*
X120681904Y-70667619D02*
X120729523Y-70620000D01*
X120824761Y-70572380D01*
X121062857Y-70572380D01*
X121158095Y-70620000D01*
X121205714Y-70667619D01*
X121253333Y-70762857D01*
X121253333Y-70858095D01*
X121205714Y-71000952D01*
X120634285Y-71572380D01*
X121253333Y-71572380D01*
X121634285Y-70667619D02*
X121681904Y-70620000D01*
X121777142Y-70572380D01*
X122015238Y-70572380D01*
X122110476Y-70620000D01*
X122158095Y-70667619D01*
X122205714Y-70762857D01*
X122205714Y-70858095D01*
X122158095Y-71000952D01*
X121586666Y-71572380D01*
X122205714Y-71572380D01*
X122824761Y-70572380D02*
X122920000Y-70572380D01*
X123015238Y-70620000D01*
X123062857Y-70667619D01*
X123110476Y-70762857D01*
X123158095Y-70953333D01*
X123158095Y-71191428D01*
X123110476Y-71381904D01*
X123062857Y-71477142D01*
X123015238Y-71524761D01*
X122920000Y-71572380D01*
X122824761Y-71572380D01*
X122729523Y-71524761D01*
X122681904Y-71477142D01*
X122634285Y-71381904D01*
X122586666Y-71191428D01*
X122586666Y-70953333D01*
X122634285Y-70762857D01*
X122681904Y-70667619D01*
X122729523Y-70620000D01*
X122824761Y-70572380D01*
X119197380Y-74937857D02*
X118721190Y-75271190D01*
X119197380Y-75509285D02*
X118197380Y-75509285D01*
X118197380Y-75128333D01*
X118245000Y-75033095D01*
X118292619Y-74985476D01*
X118387857Y-74937857D01*
X118530714Y-74937857D01*
X118625952Y-74985476D01*
X118673571Y-75033095D01*
X118721190Y-75128333D01*
X118721190Y-75509285D01*
X119197380Y-73985476D02*
X119197380Y-74556904D01*
X119197380Y-74271190D02*
X118197380Y-74271190D01*
X118340238Y-74366428D01*
X118435476Y-74461666D01*
X118483095Y-74556904D01*
X118197380Y-73128333D02*
X118197380Y-73318809D01*
X118245000Y-73414047D01*
X118292619Y-73461666D01*
X118435476Y-73556904D01*
X118625952Y-73604523D01*
X119006904Y-73604523D01*
X119102142Y-73556904D01*
X119149761Y-73509285D01*
X119197380Y-73414047D01*
X119197380Y-73223571D01*
X119149761Y-73128333D01*
X119102142Y-73080714D01*
X119006904Y-73033095D01*
X118768809Y-73033095D01*
X118673571Y-73080714D01*
X118625952Y-73128333D01*
X118578333Y-73223571D01*
X118578333Y-73414047D01*
X118625952Y-73509285D01*
X118673571Y-73556904D01*
X118768809Y-73604523D01*
X120681904Y-73842619D02*
X120729523Y-73795000D01*
X120824761Y-73747380D01*
X121062857Y-73747380D01*
X121158095Y-73795000D01*
X121205714Y-73842619D01*
X121253333Y-73937857D01*
X121253333Y-74033095D01*
X121205714Y-74175952D01*
X120634285Y-74747380D01*
X121253333Y-74747380D01*
X121634285Y-73842619D02*
X121681904Y-73795000D01*
X121777142Y-73747380D01*
X122015238Y-73747380D01*
X122110476Y-73795000D01*
X122158095Y-73842619D01*
X122205714Y-73937857D01*
X122205714Y-74033095D01*
X122158095Y-74175952D01*
X121586666Y-74747380D01*
X122205714Y-74747380D01*
X122824761Y-73747380D02*
X122920000Y-73747380D01*
X123015238Y-73795000D01*
X123062857Y-73842619D01*
X123110476Y-73937857D01*
X123158095Y-74128333D01*
X123158095Y-74366428D01*
X123110476Y-74556904D01*
X123062857Y-74652142D01*
X123015238Y-74699761D01*
X122920000Y-74747380D01*
X122824761Y-74747380D01*
X122729523Y-74699761D01*
X122681904Y-74652142D01*
X122634285Y-74556904D01*
X122586666Y-74366428D01*
X122586666Y-74128333D01*
X122634285Y-73937857D01*
X122681904Y-73842619D01*
X122729523Y-73795000D01*
X122824761Y-73747380D01*
X119197380Y-78112857D02*
X118721190Y-78446190D01*
X119197380Y-78684285D02*
X118197380Y-78684285D01*
X118197380Y-78303333D01*
X118245000Y-78208095D01*
X118292619Y-78160476D01*
X118387857Y-78112857D01*
X118530714Y-78112857D01*
X118625952Y-78160476D01*
X118673571Y-78208095D01*
X118721190Y-78303333D01*
X118721190Y-78684285D01*
X119197380Y-77160476D02*
X119197380Y-77731904D01*
X119197380Y-77446190D02*
X118197380Y-77446190D01*
X118340238Y-77541428D01*
X118435476Y-77636666D01*
X118483095Y-77731904D01*
X118197380Y-76827142D02*
X118197380Y-76160476D01*
X119197380Y-76589047D01*
X120681904Y-77017619D02*
X120729523Y-76970000D01*
X120824761Y-76922380D01*
X121062857Y-76922380D01*
X121158095Y-76970000D01*
X121205714Y-77017619D01*
X121253333Y-77112857D01*
X121253333Y-77208095D01*
X121205714Y-77350952D01*
X120634285Y-77922380D01*
X121253333Y-77922380D01*
X121634285Y-77017619D02*
X121681904Y-76970000D01*
X121777142Y-76922380D01*
X122015238Y-76922380D01*
X122110476Y-76970000D01*
X122158095Y-77017619D01*
X122205714Y-77112857D01*
X122205714Y-77208095D01*
X122158095Y-77350952D01*
X121586666Y-77922380D01*
X122205714Y-77922380D01*
X122824761Y-76922380D02*
X122920000Y-76922380D01*
X123015238Y-76970000D01*
X123062857Y-77017619D01*
X123110476Y-77112857D01*
X123158095Y-77303333D01*
X123158095Y-77541428D01*
X123110476Y-77731904D01*
X123062857Y-77827142D01*
X123015238Y-77874761D01*
X122920000Y-77922380D01*
X122824761Y-77922380D01*
X122729523Y-77874761D01*
X122681904Y-77827142D01*
X122634285Y-77731904D01*
X122586666Y-77541428D01*
X122586666Y-77303333D01*
X122634285Y-77112857D01*
X122681904Y-77017619D01*
X122729523Y-76970000D01*
X122824761Y-76922380D01*
X194127380Y-59015238D02*
X193651190Y-59348571D01*
X194127380Y-59586666D02*
X193127380Y-59586666D01*
X193127380Y-59205714D01*
X193175000Y-59110476D01*
X193222619Y-59062857D01*
X193317857Y-59015238D01*
X193460714Y-59015238D01*
X193555952Y-59062857D01*
X193603571Y-59110476D01*
X193651190Y-59205714D01*
X193651190Y-59586666D01*
X193127380Y-58729523D02*
X194127380Y-58396190D01*
X193127380Y-58062857D01*
X194127380Y-57205714D02*
X194127380Y-57777142D01*
X194127380Y-57491428D02*
X193127380Y-57491428D01*
X193270238Y-57586666D01*
X193365476Y-57681904D01*
X193413095Y-57777142D01*
X194127380Y-64095238D02*
X194127380Y-64666666D01*
X194127380Y-64380952D02*
X193127380Y-64380952D01*
X193270238Y-64476190D01*
X193365476Y-64571428D01*
X193413095Y-64666666D01*
X193127380Y-63476190D02*
X193127380Y-63380952D01*
X193175000Y-63285714D01*
X193222619Y-63238095D01*
X193317857Y-63190476D01*
X193508333Y-63142857D01*
X193746428Y-63142857D01*
X193936904Y-63190476D01*
X194032142Y-63238095D01*
X194079761Y-63285714D01*
X194127380Y-63380952D01*
X194127380Y-63476190D01*
X194079761Y-63571428D01*
X194032142Y-63619047D01*
X193936904Y-63666666D01*
X193746428Y-63714285D01*
X193508333Y-63714285D01*
X193317857Y-63666666D01*
X193222619Y-63619047D01*
X193175000Y-63571428D01*
X193127380Y-63476190D01*
X194127380Y-62714285D02*
X193127380Y-62714285D01*
X193746428Y-62619047D02*
X194127380Y-62333333D01*
X193460714Y-62333333D02*
X193841666Y-62714285D01*
X104457666Y-74064761D02*
X104600523Y-74112380D01*
X104838619Y-74112380D01*
X104933857Y-74064761D01*
X104981476Y-74017142D01*
X105029095Y-73921904D01*
X105029095Y-73826666D01*
X104981476Y-73731428D01*
X104933857Y-73683809D01*
X104838619Y-73636190D01*
X104648142Y-73588571D01*
X104552904Y-73540952D01*
X104505285Y-73493333D01*
X104457666Y-73398095D01*
X104457666Y-73302857D01*
X104505285Y-73207619D01*
X104552904Y-73160000D01*
X104648142Y-73112380D01*
X104886238Y-73112380D01*
X105029095Y-73160000D01*
X105362428Y-73112380D02*
X105600523Y-74112380D01*
X105791000Y-73398095D01*
X105981476Y-74112380D01*
X106219571Y-73112380D01*
X107124333Y-74112380D02*
X106552904Y-74112380D01*
X106838619Y-74112380D02*
X106838619Y-73112380D01*
X106743380Y-73255238D01*
X106648142Y-73350476D01*
X106552904Y-73398095D01*
D13*
X104629095Y-79482904D02*
X104362428Y-79101952D01*
X104171952Y-79482904D02*
X104171952Y-78682904D01*
X104476714Y-78682904D01*
X104552904Y-78721000D01*
X104591000Y-78759095D01*
X104629095Y-78835285D01*
X104629095Y-78949571D01*
X104591000Y-79025761D01*
X104552904Y-79063857D01*
X104476714Y-79101952D01*
X104171952Y-79101952D01*
X104971952Y-79063857D02*
X105238619Y-79063857D01*
X105352904Y-79482904D02*
X104971952Y-79482904D01*
X104971952Y-78682904D01*
X105352904Y-78682904D01*
X105657666Y-79444809D02*
X105771952Y-79482904D01*
X105962428Y-79482904D01*
X106038619Y-79444809D01*
X106076714Y-79406714D01*
X106114809Y-79330523D01*
X106114809Y-79254333D01*
X106076714Y-79178142D01*
X106038619Y-79140047D01*
X105962428Y-79101952D01*
X105810047Y-79063857D01*
X105733857Y-79025761D01*
X105695761Y-78987666D01*
X105657666Y-78911476D01*
X105657666Y-78835285D01*
X105695761Y-78759095D01*
X105733857Y-78721000D01*
X105810047Y-78682904D01*
X106000523Y-78682904D01*
X106114809Y-78721000D01*
X106457666Y-79063857D02*
X106724333Y-79063857D01*
X106838619Y-79482904D02*
X106457666Y-79482904D01*
X106457666Y-78682904D01*
X106838619Y-78682904D01*
X107067190Y-78682904D02*
X107524333Y-78682904D01*
X107295761Y-79482904D02*
X107295761Y-78682904D01*
D10*
X177736666Y-133119761D02*
X177879523Y-133167380D01*
X178117619Y-133167380D01*
X178212857Y-133119761D01*
X178260476Y-133072142D01*
X178308095Y-132976904D01*
X178308095Y-132881666D01*
X178260476Y-132786428D01*
X178212857Y-132738809D01*
X178117619Y-132691190D01*
X177927142Y-132643571D01*
X177831904Y-132595952D01*
X177784285Y-132548333D01*
X177736666Y-132453095D01*
X177736666Y-132357857D01*
X177784285Y-132262619D01*
X177831904Y-132215000D01*
X177927142Y-132167380D01*
X178165238Y-132167380D01*
X178308095Y-132215000D01*
X178641428Y-132167380D02*
X178879523Y-133167380D01*
X179070000Y-132453095D01*
X179260476Y-133167380D01*
X179498571Y-132167380D01*
X179831904Y-132262619D02*
X179879523Y-132215000D01*
X179974761Y-132167380D01*
X180212857Y-132167380D01*
X180308095Y-132215000D01*
X180355714Y-132262619D01*
X180403333Y-132357857D01*
X180403333Y-132453095D01*
X180355714Y-132595952D01*
X179784285Y-133167380D01*
X180403333Y-133167380D01*
X177736666Y-125499761D02*
X177879523Y-125547380D01*
X178117619Y-125547380D01*
X178212857Y-125499761D01*
X178260476Y-125452142D01*
X178308095Y-125356904D01*
X178308095Y-125261666D01*
X178260476Y-125166428D01*
X178212857Y-125118809D01*
X178117619Y-125071190D01*
X177927142Y-125023571D01*
X177831904Y-124975952D01*
X177784285Y-124928333D01*
X177736666Y-124833095D01*
X177736666Y-124737857D01*
X177784285Y-124642619D01*
X177831904Y-124595000D01*
X177927142Y-124547380D01*
X178165238Y-124547380D01*
X178308095Y-124595000D01*
X178641428Y-124547380D02*
X178879523Y-125547380D01*
X179070000Y-124833095D01*
X179260476Y-125547380D01*
X179498571Y-124547380D01*
X179784285Y-124547380D02*
X180403333Y-124547380D01*
X180070000Y-124928333D01*
X180212857Y-124928333D01*
X180308095Y-124975952D01*
X180355714Y-125023571D01*
X180403333Y-125118809D01*
X180403333Y-125356904D01*
X180355714Y-125452142D01*
X180308095Y-125499761D01*
X180212857Y-125547380D01*
X179927142Y-125547380D01*
X179831904Y-125499761D01*
X179784285Y-125452142D01*
X177736666Y-140739761D02*
X177879523Y-140787380D01*
X178117619Y-140787380D01*
X178212857Y-140739761D01*
X178260476Y-140692142D01*
X178308095Y-140596904D01*
X178308095Y-140501666D01*
X178260476Y-140406428D01*
X178212857Y-140358809D01*
X178117619Y-140311190D01*
X177927142Y-140263571D01*
X177831904Y-140215952D01*
X177784285Y-140168333D01*
X177736666Y-140073095D01*
X177736666Y-139977857D01*
X177784285Y-139882619D01*
X177831904Y-139835000D01*
X177927142Y-139787380D01*
X178165238Y-139787380D01*
X178308095Y-139835000D01*
X178641428Y-139787380D02*
X178879523Y-140787380D01*
X179070000Y-140073095D01*
X179260476Y-140787380D01*
X179498571Y-139787380D01*
X180308095Y-140120714D02*
X180308095Y-140787380D01*
X180070000Y-139739761D02*
X179831904Y-140454047D01*
X180450952Y-140454047D01*
X168211666Y-133119761D02*
X168354523Y-133167380D01*
X168592619Y-133167380D01*
X168687857Y-133119761D01*
X168735476Y-133072142D01*
X168783095Y-132976904D01*
X168783095Y-132881666D01*
X168735476Y-132786428D01*
X168687857Y-132738809D01*
X168592619Y-132691190D01*
X168402142Y-132643571D01*
X168306904Y-132595952D01*
X168259285Y-132548333D01*
X168211666Y-132453095D01*
X168211666Y-132357857D01*
X168259285Y-132262619D01*
X168306904Y-132215000D01*
X168402142Y-132167380D01*
X168640238Y-132167380D01*
X168783095Y-132215000D01*
X169116428Y-132167380D02*
X169354523Y-133167380D01*
X169545000Y-132453095D01*
X169735476Y-133167380D01*
X169973571Y-132167380D01*
X170830714Y-132167380D02*
X170354523Y-132167380D01*
X170306904Y-132643571D01*
X170354523Y-132595952D01*
X170449761Y-132548333D01*
X170687857Y-132548333D01*
X170783095Y-132595952D01*
X170830714Y-132643571D01*
X170878333Y-132738809D01*
X170878333Y-132976904D01*
X170830714Y-133072142D01*
X170783095Y-133119761D01*
X170687857Y-133167380D01*
X170449761Y-133167380D01*
X170354523Y-133119761D01*
X170306904Y-133072142D01*
X187261666Y-133119761D02*
X187404523Y-133167380D01*
X187642619Y-133167380D01*
X187737857Y-133119761D01*
X187785476Y-133072142D01*
X187833095Y-132976904D01*
X187833095Y-132881666D01*
X187785476Y-132786428D01*
X187737857Y-132738809D01*
X187642619Y-132691190D01*
X187452142Y-132643571D01*
X187356904Y-132595952D01*
X187309285Y-132548333D01*
X187261666Y-132453095D01*
X187261666Y-132357857D01*
X187309285Y-132262619D01*
X187356904Y-132215000D01*
X187452142Y-132167380D01*
X187690238Y-132167380D01*
X187833095Y-132215000D01*
X188166428Y-132167380D02*
X188404523Y-133167380D01*
X188595000Y-132453095D01*
X188785476Y-133167380D01*
X189023571Y-132167380D01*
X189833095Y-132167380D02*
X189642619Y-132167380D01*
X189547380Y-132215000D01*
X189499761Y-132262619D01*
X189404523Y-132405476D01*
X189356904Y-132595952D01*
X189356904Y-132976904D01*
X189404523Y-133072142D01*
X189452142Y-133119761D01*
X189547380Y-133167380D01*
X189737857Y-133167380D01*
X189833095Y-133119761D01*
X189880714Y-133072142D01*
X189928333Y-132976904D01*
X189928333Y-132738809D01*
X189880714Y-132643571D01*
X189833095Y-132595952D01*
X189737857Y-132548333D01*
X189547380Y-132548333D01*
X189452142Y-132595952D01*
X189404523Y-132643571D01*
X189356904Y-132738809D01*
X144018095Y-88352380D02*
X144018095Y-89161904D01*
X144065714Y-89257142D01*
X144113333Y-89304761D01*
X144208571Y-89352380D01*
X144399047Y-89352380D01*
X144494285Y-89304761D01*
X144541904Y-89257142D01*
X144589523Y-89161904D01*
X144589523Y-88352380D01*
X145589523Y-89352380D02*
X145018095Y-89352380D01*
X145303809Y-89352380D02*
X145303809Y-88352380D01*
X145208571Y-88495238D01*
X145113333Y-88590476D01*
X145018095Y-88638095D01*
X141946666Y-90892380D02*
X142184761Y-91892380D01*
X142375238Y-91178095D01*
X142565714Y-91892380D01*
X142803809Y-90892380D01*
X143613333Y-90892380D02*
X143422857Y-90892380D01*
X143327619Y-90940000D01*
X143280000Y-90987619D01*
X143184761Y-91130476D01*
X143137142Y-91320952D01*
X143137142Y-91701904D01*
X143184761Y-91797142D01*
X143232380Y-91844761D01*
X143327619Y-91892380D01*
X143518095Y-91892380D01*
X143613333Y-91844761D01*
X143660952Y-91797142D01*
X143708571Y-91701904D01*
X143708571Y-91463809D01*
X143660952Y-91368571D01*
X143613333Y-91320952D01*
X143518095Y-91273333D01*
X143327619Y-91273333D01*
X143232380Y-91320952D01*
X143184761Y-91368571D01*
X143137142Y-91463809D01*
X144613333Y-90892380D02*
X144137142Y-90892380D01*
X144089523Y-91368571D01*
X144137142Y-91320952D01*
X144232380Y-91273333D01*
X144470476Y-91273333D01*
X144565714Y-91320952D01*
X144613333Y-91368571D01*
X144660952Y-91463809D01*
X144660952Y-91701904D01*
X144613333Y-91797142D01*
X144565714Y-91844761D01*
X144470476Y-91892380D01*
X144232380Y-91892380D01*
X144137142Y-91844761D01*
X144089523Y-91797142D01*
X145660952Y-91797142D02*
X145613333Y-91844761D01*
X145470476Y-91892380D01*
X145375238Y-91892380D01*
X145232380Y-91844761D01*
X145137142Y-91749523D01*
X145089523Y-91654285D01*
X145041904Y-91463809D01*
X145041904Y-91320952D01*
X145089523Y-91130476D01*
X145137142Y-91035238D01*
X145232380Y-90940000D01*
X145375238Y-90892380D01*
X145470476Y-90892380D01*
X145613333Y-90940000D01*
X145660952Y-90987619D01*
X146280000Y-90892380D02*
X146375238Y-90892380D01*
X146470476Y-90940000D01*
X146518095Y-90987619D01*
X146565714Y-91082857D01*
X146613333Y-91273333D01*
X146613333Y-91511428D01*
X146565714Y-91701904D01*
X146518095Y-91797142D01*
X146470476Y-91844761D01*
X146375238Y-91892380D01*
X146280000Y-91892380D01*
X146184761Y-91844761D01*
X146137142Y-91797142D01*
X146089523Y-91701904D01*
X146041904Y-91511428D01*
X146041904Y-91273333D01*
X146089523Y-91082857D01*
X146137142Y-90987619D01*
X146184761Y-90940000D01*
X146280000Y-90892380D01*
X146994285Y-90987619D02*
X147041904Y-90940000D01*
X147137142Y-90892380D01*
X147375238Y-90892380D01*
X147470476Y-90940000D01*
X147518095Y-90987619D01*
X147565714Y-91082857D01*
X147565714Y-91178095D01*
X147518095Y-91320952D01*
X146946666Y-91892380D01*
X147565714Y-91892380D01*
X166878095Y-88352380D02*
X166878095Y-89161904D01*
X166925714Y-89257142D01*
X166973333Y-89304761D01*
X167068571Y-89352380D01*
X167259047Y-89352380D01*
X167354285Y-89304761D01*
X167401904Y-89257142D01*
X167449523Y-89161904D01*
X167449523Y-88352380D01*
X167878095Y-88447619D02*
X167925714Y-88400000D01*
X168020952Y-88352380D01*
X168259047Y-88352380D01*
X168354285Y-88400000D01*
X168401904Y-88447619D01*
X168449523Y-88542857D01*
X168449523Y-88638095D01*
X168401904Y-88780952D01*
X167830476Y-89352380D01*
X168449523Y-89352380D01*
X161901904Y-91892380D02*
X161901904Y-90892380D01*
X161901904Y-91368571D02*
X162473333Y-91368571D01*
X162473333Y-91892380D02*
X162473333Y-90892380D01*
X162949523Y-91892380D02*
X162949523Y-90892380D01*
X163282857Y-91606666D01*
X163616190Y-90892380D01*
X163616190Y-91892380D01*
X164520952Y-90892380D02*
X164330476Y-90892380D01*
X164235238Y-90940000D01*
X164187619Y-90987619D01*
X164092380Y-91130476D01*
X164044761Y-91320952D01*
X164044761Y-91701904D01*
X164092380Y-91797142D01*
X164140000Y-91844761D01*
X164235238Y-91892380D01*
X164425714Y-91892380D01*
X164520952Y-91844761D01*
X164568571Y-91797142D01*
X164616190Y-91701904D01*
X164616190Y-91463809D01*
X164568571Y-91368571D01*
X164520952Y-91320952D01*
X164425714Y-91273333D01*
X164235238Y-91273333D01*
X164140000Y-91320952D01*
X164092380Y-91368571D01*
X164044761Y-91463809D01*
X164997142Y-90987619D02*
X165044761Y-90940000D01*
X165140000Y-90892380D01*
X165378095Y-90892380D01*
X165473333Y-90940000D01*
X165520952Y-90987619D01*
X165568571Y-91082857D01*
X165568571Y-91178095D01*
X165520952Y-91320952D01*
X164949523Y-91892380D01*
X165568571Y-91892380D01*
X165949523Y-90987619D02*
X165997142Y-90940000D01*
X166092380Y-90892380D01*
X166330476Y-90892380D01*
X166425714Y-90940000D01*
X166473333Y-90987619D01*
X166520952Y-91082857D01*
X166520952Y-91178095D01*
X166473333Y-91320952D01*
X165901904Y-91892380D01*
X166520952Y-91892380D01*
X167425714Y-90892380D02*
X166949523Y-90892380D01*
X166901904Y-91368571D01*
X166949523Y-91320952D01*
X167044761Y-91273333D01*
X167282857Y-91273333D01*
X167378095Y-91320952D01*
X167425714Y-91368571D01*
X167473333Y-91463809D01*
X167473333Y-91701904D01*
X167425714Y-91797142D01*
X167378095Y-91844761D01*
X167282857Y-91892380D01*
X167044761Y-91892380D01*
X166949523Y-91844761D01*
X166901904Y-91797142D01*
X168330476Y-90892380D02*
X168140000Y-90892380D01*
X168044761Y-90940000D01*
X167997142Y-90987619D01*
X167901904Y-91130476D01*
X167854285Y-91320952D01*
X167854285Y-91701904D01*
X167901904Y-91797142D01*
X167949523Y-91844761D01*
X168044761Y-91892380D01*
X168235238Y-91892380D01*
X168330476Y-91844761D01*
X168378095Y-91797142D01*
X168425714Y-91701904D01*
X168425714Y-91463809D01*
X168378095Y-91368571D01*
X168330476Y-91320952D01*
X168235238Y-91273333D01*
X168044761Y-91273333D01*
X167949523Y-91320952D01*
X167901904Y-91368571D01*
X167854285Y-91463809D01*
X169187619Y-91368571D02*
X169330476Y-91416190D01*
X169378095Y-91463809D01*
X169425714Y-91559047D01*
X169425714Y-91701904D01*
X169378095Y-91797142D01*
X169330476Y-91844761D01*
X169235238Y-91892380D01*
X168854285Y-91892380D01*
X168854285Y-90892380D01*
X169187619Y-90892380D01*
X169282857Y-90940000D01*
X169330476Y-90987619D01*
X169378095Y-91082857D01*
X169378095Y-91178095D01*
X169330476Y-91273333D01*
X169282857Y-91320952D01*
X169187619Y-91368571D01*
X168854285Y-91368571D01*
X170330476Y-91892380D02*
X169854285Y-91892380D01*
X169854285Y-90892380D01*
X170663809Y-91892380D02*
X170663809Y-90892380D01*
X171044761Y-90892380D01*
X171140000Y-90940000D01*
X171187619Y-90987619D01*
X171235238Y-91082857D01*
X171235238Y-91225714D01*
X171187619Y-91320952D01*
X171140000Y-91368571D01*
X171044761Y-91416190D01*
X170663809Y-91416190D01*
X171663809Y-91511428D02*
X172425714Y-91511428D01*
X172806666Y-90892380D02*
X173473333Y-90892380D01*
X173044761Y-91892380D01*
X189738095Y-88352380D02*
X189738095Y-89161904D01*
X189785714Y-89257142D01*
X189833333Y-89304761D01*
X189928571Y-89352380D01*
X190119047Y-89352380D01*
X190214285Y-89304761D01*
X190261904Y-89257142D01*
X190309523Y-89161904D01*
X190309523Y-88352380D01*
X190690476Y-88352380D02*
X191309523Y-88352380D01*
X190976190Y-88733333D01*
X191119047Y-88733333D01*
X191214285Y-88780952D01*
X191261904Y-88828571D01*
X191309523Y-88923809D01*
X191309523Y-89161904D01*
X191261904Y-89257142D01*
X191214285Y-89304761D01*
X191119047Y-89352380D01*
X190833333Y-89352380D01*
X190738095Y-89304761D01*
X190690476Y-89257142D01*
X187809523Y-90987619D02*
X187857142Y-90940000D01*
X187952380Y-90892380D01*
X188190476Y-90892380D01*
X188285714Y-90940000D01*
X188333333Y-90987619D01*
X188380952Y-91082857D01*
X188380952Y-91178095D01*
X188333333Y-91320952D01*
X187761904Y-91892380D01*
X188380952Y-91892380D01*
X188952380Y-91320952D02*
X188857142Y-91273333D01*
X188809523Y-91225714D01*
X188761904Y-91130476D01*
X188761904Y-91082857D01*
X188809523Y-90987619D01*
X188857142Y-90940000D01*
X188952380Y-90892380D01*
X189142857Y-90892380D01*
X189238095Y-90940000D01*
X189285714Y-90987619D01*
X189333333Y-91082857D01*
X189333333Y-91130476D01*
X189285714Y-91225714D01*
X189238095Y-91273333D01*
X189142857Y-91320952D01*
X188952380Y-91320952D01*
X188857142Y-91368571D01*
X188809523Y-91416190D01*
X188761904Y-91511428D01*
X188761904Y-91701904D01*
X188809523Y-91797142D01*
X188857142Y-91844761D01*
X188952380Y-91892380D01*
X189142857Y-91892380D01*
X189238095Y-91844761D01*
X189285714Y-91797142D01*
X189333333Y-91701904D01*
X189333333Y-91511428D01*
X189285714Y-91416190D01*
X189238095Y-91368571D01*
X189142857Y-91320952D01*
X190333333Y-91797142D02*
X190285714Y-91844761D01*
X190142857Y-91892380D01*
X190047619Y-91892380D01*
X189904761Y-91844761D01*
X189809523Y-91749523D01*
X189761904Y-91654285D01*
X189714285Y-91463809D01*
X189714285Y-91320952D01*
X189761904Y-91130476D01*
X189809523Y-91035238D01*
X189904761Y-90940000D01*
X190047619Y-90892380D01*
X190142857Y-90892380D01*
X190285714Y-90940000D01*
X190333333Y-90987619D01*
X190714285Y-90987619D02*
X190761904Y-90940000D01*
X190857142Y-90892380D01*
X191095238Y-90892380D01*
X191190476Y-90940000D01*
X191238095Y-90987619D01*
X191285714Y-91082857D01*
X191285714Y-91178095D01*
X191238095Y-91320952D01*
X190666666Y-91892380D01*
X191285714Y-91892380D01*
X192190476Y-90892380D02*
X191714285Y-90892380D01*
X191666666Y-91368571D01*
X191714285Y-91320952D01*
X191809523Y-91273333D01*
X192047619Y-91273333D01*
X192142857Y-91320952D01*
X192190476Y-91368571D01*
X192238095Y-91463809D01*
X192238095Y-91701904D01*
X192190476Y-91797142D01*
X192142857Y-91844761D01*
X192047619Y-91892380D01*
X191809523Y-91892380D01*
X191714285Y-91844761D01*
X191666666Y-91797142D01*
X193095238Y-90892380D02*
X192904761Y-90892380D01*
X192809523Y-90940000D01*
X192761904Y-90987619D01*
X192666666Y-91130476D01*
X192619047Y-91320952D01*
X192619047Y-91701904D01*
X192666666Y-91797142D01*
X192714285Y-91844761D01*
X192809523Y-91892380D01*
X193000000Y-91892380D01*
X193095238Y-91844761D01*
X193142857Y-91797142D01*
X193190476Y-91701904D01*
X193190476Y-91463809D01*
X193142857Y-91368571D01*
X193095238Y-91320952D01*
X193000000Y-91273333D01*
X192809523Y-91273333D01*
X192714285Y-91320952D01*
X192666666Y-91368571D01*
X192619047Y-91463809D01*
X121158095Y-88352380D02*
X121158095Y-89161904D01*
X121205714Y-89257142D01*
X121253333Y-89304761D01*
X121348571Y-89352380D01*
X121539047Y-89352380D01*
X121634285Y-89304761D01*
X121681904Y-89257142D01*
X121729523Y-89161904D01*
X121729523Y-88352380D01*
X122634285Y-88685714D02*
X122634285Y-89352380D01*
X122396190Y-88304761D02*
X122158095Y-89019047D01*
X122777142Y-89019047D01*
X118586666Y-90892380D02*
X118824761Y-91892380D01*
X119015238Y-91178095D01*
X119205714Y-91892380D01*
X119443809Y-90892380D01*
X119824761Y-91892380D02*
X119824761Y-90892380D01*
X120062857Y-90892380D01*
X120205714Y-90940000D01*
X120300952Y-91035238D01*
X120348571Y-91130476D01*
X120396190Y-91320952D01*
X120396190Y-91463809D01*
X120348571Y-91654285D01*
X120300952Y-91749523D01*
X120205714Y-91844761D01*
X120062857Y-91892380D01*
X119824761Y-91892380D01*
X121253333Y-90892380D02*
X121062857Y-90892380D01*
X120967619Y-90940000D01*
X120920000Y-90987619D01*
X120824761Y-91130476D01*
X120777142Y-91320952D01*
X120777142Y-91701904D01*
X120824761Y-91797142D01*
X120872380Y-91844761D01*
X120967619Y-91892380D01*
X121158095Y-91892380D01*
X121253333Y-91844761D01*
X121300952Y-91797142D01*
X121348571Y-91701904D01*
X121348571Y-91463809D01*
X121300952Y-91368571D01*
X121253333Y-91320952D01*
X121158095Y-91273333D01*
X120967619Y-91273333D01*
X120872380Y-91320952D01*
X120824761Y-91368571D01*
X120777142Y-91463809D01*
X122253333Y-90892380D02*
X121777142Y-90892380D01*
X121729523Y-91368571D01*
X121777142Y-91320952D01*
X121872380Y-91273333D01*
X122110476Y-91273333D01*
X122205714Y-91320952D01*
X122253333Y-91368571D01*
X122300952Y-91463809D01*
X122300952Y-91701904D01*
X122253333Y-91797142D01*
X122205714Y-91844761D01*
X122110476Y-91892380D01*
X121872380Y-91892380D01*
X121777142Y-91844761D01*
X121729523Y-91797142D01*
X123300952Y-91797142D02*
X123253333Y-91844761D01*
X123110476Y-91892380D01*
X123015238Y-91892380D01*
X122872380Y-91844761D01*
X122777142Y-91749523D01*
X122729523Y-91654285D01*
X122681904Y-91463809D01*
X122681904Y-91320952D01*
X122729523Y-91130476D01*
X122777142Y-91035238D01*
X122872380Y-90940000D01*
X123015238Y-90892380D01*
X123110476Y-90892380D01*
X123253333Y-90940000D01*
X123300952Y-90987619D01*
X123681904Y-90987619D02*
X123729523Y-90940000D01*
X123824761Y-90892380D01*
X124062857Y-90892380D01*
X124158095Y-90940000D01*
X124205714Y-90987619D01*
X124253333Y-91082857D01*
X124253333Y-91178095D01*
X124205714Y-91320952D01*
X123634285Y-91892380D01*
X124253333Y-91892380D01*
X124634285Y-90987619D02*
X124681904Y-90940000D01*
X124777142Y-90892380D01*
X125015238Y-90892380D01*
X125110476Y-90940000D01*
X125158095Y-90987619D01*
X125205714Y-91082857D01*
X125205714Y-91178095D01*
X125158095Y-91320952D01*
X124586666Y-91892380D01*
X125205714Y-91892380D01*
X200326666Y-66127380D02*
X200326666Y-66841666D01*
X200279047Y-66984523D01*
X200183809Y-67079761D01*
X200040952Y-67127380D01*
X199945714Y-67127380D01*
X200755238Y-66222619D02*
X200802857Y-66175000D01*
X200898095Y-66127380D01*
X201136190Y-66127380D01*
X201231428Y-66175000D01*
X201279047Y-66222619D01*
X201326666Y-66317857D01*
X201326666Y-66413095D01*
X201279047Y-66555952D01*
X200707619Y-67127380D01*
X201326666Y-67127380D01*
D13*
X193325714Y-75691666D02*
X193363809Y-75729761D01*
X193401904Y-75844047D01*
X193401904Y-75920238D01*
X193363809Y-76034523D01*
X193287619Y-76110714D01*
X193211428Y-76148809D01*
X193059047Y-76186904D01*
X192944761Y-76186904D01*
X192792380Y-76148809D01*
X192716190Y-76110714D01*
X192640000Y-76034523D01*
X192601904Y-75920238D01*
X192601904Y-75844047D01*
X192640000Y-75729761D01*
X192678095Y-75691666D01*
X193401904Y-74967857D02*
X193401904Y-75348809D01*
X192601904Y-75348809D01*
X192601904Y-74548809D02*
X192601904Y-74396428D01*
X192640000Y-74320238D01*
X192716190Y-74244047D01*
X192868571Y-74205952D01*
X193135238Y-74205952D01*
X193287619Y-74244047D01*
X193363809Y-74320238D01*
X193401904Y-74396428D01*
X193401904Y-74548809D01*
X193363809Y-74625000D01*
X193287619Y-74701190D01*
X193135238Y-74739285D01*
X192868571Y-74739285D01*
X192716190Y-74701190D01*
X192640000Y-74625000D01*
X192601904Y-74548809D01*
X193325714Y-73405952D02*
X193363809Y-73444047D01*
X193401904Y-73558333D01*
X193401904Y-73634523D01*
X193363809Y-73748809D01*
X193287619Y-73825000D01*
X193211428Y-73863095D01*
X193059047Y-73901190D01*
X192944761Y-73901190D01*
X192792380Y-73863095D01*
X192716190Y-73825000D01*
X192640000Y-73748809D01*
X192601904Y-73634523D01*
X192601904Y-73558333D01*
X192640000Y-73444047D01*
X192678095Y-73405952D01*
X193401904Y-73063095D02*
X192601904Y-73063095D01*
X193401904Y-72605952D02*
X192944761Y-72948809D01*
X192601904Y-72605952D02*
X193059047Y-73063095D01*
X193478095Y-72453571D02*
X193478095Y-71844047D01*
X193363809Y-71691666D02*
X193401904Y-71577380D01*
X193401904Y-71386904D01*
X193363809Y-71310714D01*
X193325714Y-71272619D01*
X193249523Y-71234523D01*
X193173333Y-71234523D01*
X193097142Y-71272619D01*
X193059047Y-71310714D01*
X193020952Y-71386904D01*
X192982857Y-71539285D01*
X192944761Y-71615476D01*
X192906666Y-71653571D01*
X192830476Y-71691666D01*
X192754285Y-71691666D01*
X192678095Y-71653571D01*
X192640000Y-71615476D01*
X192601904Y-71539285D01*
X192601904Y-71348809D01*
X192640000Y-71234523D01*
X192982857Y-70891666D02*
X192982857Y-70625000D01*
X193401904Y-70510714D02*
X193401904Y-70891666D01*
X192601904Y-70891666D01*
X192601904Y-70510714D01*
X193401904Y-69786904D02*
X193401904Y-70167857D01*
X192601904Y-70167857D01*
X155695714Y-89896904D02*
X155429047Y-89515952D01*
X155238571Y-89896904D02*
X155238571Y-89096904D01*
X155543333Y-89096904D01*
X155619523Y-89135000D01*
X155657619Y-89173095D01*
X155695714Y-89249285D01*
X155695714Y-89363571D01*
X155657619Y-89439761D01*
X155619523Y-89477857D01*
X155543333Y-89515952D01*
X155238571Y-89515952D01*
X156457619Y-89896904D02*
X156000476Y-89896904D01*
X156229047Y-89896904D02*
X156229047Y-89096904D01*
X156152857Y-89211190D01*
X156076666Y-89287380D01*
X156000476Y-89325476D01*
X156914761Y-89439761D02*
X156838571Y-89401666D01*
X156800476Y-89363571D01*
X156762380Y-89287380D01*
X156762380Y-89249285D01*
X156800476Y-89173095D01*
X156838571Y-89135000D01*
X156914761Y-89096904D01*
X157067142Y-89096904D01*
X157143333Y-89135000D01*
X157181428Y-89173095D01*
X157219523Y-89249285D01*
X157219523Y-89287380D01*
X157181428Y-89363571D01*
X157143333Y-89401666D01*
X157067142Y-89439761D01*
X156914761Y-89439761D01*
X156838571Y-89477857D01*
X156800476Y-89515952D01*
X156762380Y-89592142D01*
X156762380Y-89744523D01*
X156800476Y-89820714D01*
X156838571Y-89858809D01*
X156914761Y-89896904D01*
X157067142Y-89896904D01*
X157143333Y-89858809D01*
X157181428Y-89820714D01*
X157219523Y-89744523D01*
X157219523Y-89592142D01*
X157181428Y-89515952D01*
X157143333Y-89477857D01*
X157067142Y-89439761D01*
D10*
X155662380Y-94162380D02*
X155662380Y-93543333D01*
X156043333Y-93876666D01*
X156043333Y-93733809D01*
X156090952Y-93638571D01*
X156138571Y-93590952D01*
X156233809Y-93543333D01*
X156471904Y-93543333D01*
X156567142Y-93590952D01*
X156614761Y-93638571D01*
X156662380Y-93733809D01*
X156662380Y-94019523D01*
X156614761Y-94114761D01*
X156567142Y-94162380D01*
X156567142Y-93114761D02*
X156614761Y-93067142D01*
X156662380Y-93114761D01*
X156614761Y-93162380D01*
X156567142Y-93114761D01*
X156662380Y-93114761D01*
X155662380Y-92733809D02*
X155662380Y-92114761D01*
X156043333Y-92448095D01*
X156043333Y-92305238D01*
X156090952Y-92210000D01*
X156138571Y-92162380D01*
X156233809Y-92114761D01*
X156471904Y-92114761D01*
X156567142Y-92162380D01*
X156614761Y-92210000D01*
X156662380Y-92305238D01*
X156662380Y-92590952D01*
X156614761Y-92686190D01*
X156567142Y-92733809D01*
X156662380Y-91686190D02*
X155662380Y-91686190D01*
X156281428Y-91590952D02*
X156662380Y-91305238D01*
X155995714Y-91305238D02*
X156376666Y-91686190D01*
D13*
X172446904Y-62109285D02*
X172065952Y-62375952D01*
X172446904Y-62566428D02*
X171646904Y-62566428D01*
X171646904Y-62261666D01*
X171685000Y-62185476D01*
X171723095Y-62147380D01*
X171799285Y-62109285D01*
X171913571Y-62109285D01*
X171989761Y-62147380D01*
X172027857Y-62185476D01*
X172065952Y-62261666D01*
X172065952Y-62566428D01*
X172446904Y-61347380D02*
X172446904Y-61804523D01*
X172446904Y-61575952D02*
X171646904Y-61575952D01*
X171761190Y-61652142D01*
X171837380Y-61728333D01*
X171875476Y-61804523D01*
X172446904Y-60966428D02*
X172446904Y-60814047D01*
X172408809Y-60737857D01*
X172370714Y-60699761D01*
X172256428Y-60623571D01*
X172104047Y-60585476D01*
X171799285Y-60585476D01*
X171723095Y-60623571D01*
X171685000Y-60661666D01*
X171646904Y-60737857D01*
X171646904Y-60890238D01*
X171685000Y-60966428D01*
X171723095Y-61004523D01*
X171799285Y-61042619D01*
X171989761Y-61042619D01*
X172065952Y-61004523D01*
X172104047Y-60966428D01*
X172142142Y-60890238D01*
X172142142Y-60737857D01*
X172104047Y-60661666D01*
X172065952Y-60623571D01*
X171989761Y-60585476D01*
D10*
X173386904Y-61142619D02*
X173434523Y-61095000D01*
X173529761Y-61047380D01*
X173767857Y-61047380D01*
X173863095Y-61095000D01*
X173910714Y-61142619D01*
X173958333Y-61237857D01*
X173958333Y-61333095D01*
X173910714Y-61475952D01*
X173339285Y-62047380D01*
X173958333Y-62047380D01*
X174339285Y-61142619D02*
X174386904Y-61095000D01*
X174482142Y-61047380D01*
X174720238Y-61047380D01*
X174815476Y-61095000D01*
X174863095Y-61142619D01*
X174910714Y-61237857D01*
X174910714Y-61333095D01*
X174863095Y-61475952D01*
X174291666Y-62047380D01*
X174910714Y-62047380D01*
X175529761Y-61047380D02*
X175625000Y-61047380D01*
X175720238Y-61095000D01*
X175767857Y-61142619D01*
X175815476Y-61237857D01*
X175863095Y-61428333D01*
X175863095Y-61666428D01*
X175815476Y-61856904D01*
X175767857Y-61952142D01*
X175720238Y-61999761D01*
X175625000Y-62047380D01*
X175529761Y-62047380D01*
X175434523Y-61999761D01*
X175386904Y-61952142D01*
X175339285Y-61856904D01*
X175291666Y-61666428D01*
X175291666Y-61428333D01*
X175339285Y-61237857D01*
X175386904Y-61142619D01*
X175434523Y-61095000D01*
X175529761Y-61047380D01*
X166092380Y-46748333D02*
X166806666Y-46748333D01*
X166949523Y-46795952D01*
X167044761Y-46891190D01*
X167092380Y-47034047D01*
X167092380Y-47129285D01*
X166425714Y-45843571D02*
X167092380Y-45843571D01*
X166044761Y-46081666D02*
X166759047Y-46319761D01*
X166759047Y-45700714D01*
X185293095Y-67397380D02*
X185293095Y-68206904D01*
X185340714Y-68302142D01*
X185388333Y-68349761D01*
X185483571Y-68397380D01*
X185674047Y-68397380D01*
X185769285Y-68349761D01*
X185816904Y-68302142D01*
X185864523Y-68206904D01*
X185864523Y-67397380D01*
X186245476Y-67397380D02*
X186912142Y-67397380D01*
X186483571Y-68397380D01*
D13*
X184702619Y-70846904D02*
X184321666Y-70846904D01*
X184321666Y-70046904D01*
X184969285Y-70846904D02*
X184969285Y-70046904D01*
X185235952Y-70618333D01*
X185502619Y-70046904D01*
X185502619Y-70846904D01*
X186264523Y-70046904D02*
X185883571Y-70046904D01*
X185845476Y-70427857D01*
X185883571Y-70389761D01*
X185959761Y-70351666D01*
X186150238Y-70351666D01*
X186226428Y-70389761D01*
X186264523Y-70427857D01*
X186302619Y-70504047D01*
X186302619Y-70694523D01*
X186264523Y-70770714D01*
X186226428Y-70808809D01*
X186150238Y-70846904D01*
X185959761Y-70846904D01*
X185883571Y-70808809D01*
X185845476Y-70770714D01*
X187026428Y-70046904D02*
X186645476Y-70046904D01*
X186607380Y-70427857D01*
X186645476Y-70389761D01*
X186721666Y-70351666D01*
X186912142Y-70351666D01*
X186988333Y-70389761D01*
X187026428Y-70427857D01*
X187064523Y-70504047D01*
X187064523Y-70694523D01*
X187026428Y-70770714D01*
X186988333Y-70808809D01*
X186912142Y-70846904D01*
X186721666Y-70846904D01*
X186645476Y-70808809D01*
X186607380Y-70770714D01*
X187788333Y-70046904D02*
X187407380Y-70046904D01*
X187369285Y-70427857D01*
X187407380Y-70389761D01*
X187483571Y-70351666D01*
X187674047Y-70351666D01*
X187750238Y-70389761D01*
X187788333Y-70427857D01*
X187826428Y-70504047D01*
X187826428Y-70694523D01*
X187788333Y-70770714D01*
X187750238Y-70808809D01*
X187674047Y-70846904D01*
X187483571Y-70846904D01*
X187407380Y-70808809D01*
X187369285Y-70770714D01*
D10*
X185928333Y-61952142D02*
X185880714Y-61999761D01*
X185737857Y-62047380D01*
X185642619Y-62047380D01*
X185499761Y-61999761D01*
X185404523Y-61904523D01*
X185356904Y-61809285D01*
X185309285Y-61618809D01*
X185309285Y-61475952D01*
X185356904Y-61285476D01*
X185404523Y-61190238D01*
X185499761Y-61095000D01*
X185642619Y-61047380D01*
X185737857Y-61047380D01*
X185880714Y-61095000D01*
X185928333Y-61142619D01*
X186261666Y-61047380D02*
X186928333Y-61047380D01*
X186499761Y-62047380D01*
X112798095Y-46442380D02*
X112798095Y-47251904D01*
X112845714Y-47347142D01*
X112893333Y-47394761D01*
X112988571Y-47442380D01*
X113179047Y-47442380D01*
X113274285Y-47394761D01*
X113321904Y-47347142D01*
X113369523Y-47251904D01*
X113369523Y-46442380D01*
X114274285Y-46442380D02*
X114083809Y-46442380D01*
X113988571Y-46490000D01*
X113940952Y-46537619D01*
X113845714Y-46680476D01*
X113798095Y-46870952D01*
X113798095Y-47251904D01*
X113845714Y-47347142D01*
X113893333Y-47394761D01*
X113988571Y-47442380D01*
X114179047Y-47442380D01*
X114274285Y-47394761D01*
X114321904Y-47347142D01*
X114369523Y-47251904D01*
X114369523Y-47013809D01*
X114321904Y-46918571D01*
X114274285Y-46870952D01*
X114179047Y-46823333D01*
X113988571Y-46823333D01*
X113893333Y-46870952D01*
X113845714Y-46918571D01*
X113798095Y-47013809D01*
M02*
