G04 #@! TF.FileFunction,Legend,Bot*
%FSLAX46Y46*%
G04 Gerber Fmt 4.6, Leading zero omitted, Abs format (unit mm)*
G04 Created by KiCad (PCBNEW 4.0.7) date 11/13/19 17:55:31*
%MOMM*%
%LPD*%
G01*
G04 APERTURE LIST*
%ADD10C,0.100000*%
%ADD11C,0.150000*%
%ADD12C,0.200000*%
%ADD13C,0.300000*%
G04 APERTURE END LIST*
D10*
D11*
X127729524Y-91844762D02*
X127586667Y-91892381D01*
X127348571Y-91892381D01*
X127253333Y-91844762D01*
X127205714Y-91797143D01*
X127158095Y-91701905D01*
X127158095Y-91606667D01*
X127205714Y-91511429D01*
X127253333Y-91463810D01*
X127348571Y-91416190D01*
X127539048Y-91368571D01*
X127634286Y-91320952D01*
X127681905Y-91273333D01*
X127729524Y-91178095D01*
X127729524Y-91082857D01*
X127681905Y-90987619D01*
X127634286Y-90940000D01*
X127539048Y-90892381D01*
X127300952Y-90892381D01*
X127158095Y-90940000D01*
X127443810Y-90749524D02*
X127443810Y-92035238D01*
X126300952Y-90892381D02*
X126491429Y-90892381D01*
X126586667Y-90940000D01*
X126634286Y-90987619D01*
X126729524Y-91130476D01*
X126777143Y-91320952D01*
X126777143Y-91701905D01*
X126729524Y-91797143D01*
X126681905Y-91844762D01*
X126586667Y-91892381D01*
X126396190Y-91892381D01*
X126300952Y-91844762D01*
X126253333Y-91797143D01*
X126205714Y-91701905D01*
X126205714Y-91463810D01*
X126253333Y-91368571D01*
X126300952Y-91320952D01*
X126396190Y-91273333D01*
X126586667Y-91273333D01*
X126681905Y-91320952D01*
X126729524Y-91368571D01*
X126777143Y-91463810D01*
X125586667Y-90892381D02*
X125491428Y-90892381D01*
X125396190Y-90940000D01*
X125348571Y-90987619D01*
X125300952Y-91082857D01*
X125253333Y-91273333D01*
X125253333Y-91511429D01*
X125300952Y-91701905D01*
X125348571Y-91797143D01*
X125396190Y-91844762D01*
X125491428Y-91892381D01*
X125586667Y-91892381D01*
X125681905Y-91844762D01*
X125729524Y-91797143D01*
X125777143Y-91701905D01*
X125824762Y-91511429D01*
X125824762Y-91273333D01*
X125777143Y-91082857D01*
X125729524Y-90987619D01*
X125681905Y-90940000D01*
X125586667Y-90892381D01*
X124634286Y-90892381D02*
X124539047Y-90892381D01*
X124443809Y-90940000D01*
X124396190Y-90987619D01*
X124348571Y-91082857D01*
X124300952Y-91273333D01*
X124300952Y-91511429D01*
X124348571Y-91701905D01*
X124396190Y-91797143D01*
X124443809Y-91844762D01*
X124539047Y-91892381D01*
X124634286Y-91892381D01*
X124729524Y-91844762D01*
X124777143Y-91797143D01*
X124824762Y-91701905D01*
X124872381Y-91511429D01*
X124872381Y-91273333D01*
X124824762Y-91082857D01*
X124777143Y-90987619D01*
X124729524Y-90940000D01*
X124634286Y-90892381D01*
X123681905Y-90892381D02*
X123586666Y-90892381D01*
X123491428Y-90940000D01*
X123443809Y-90987619D01*
X123396190Y-91082857D01*
X123348571Y-91273333D01*
X123348571Y-91511429D01*
X123396190Y-91701905D01*
X123443809Y-91797143D01*
X123491428Y-91844762D01*
X123586666Y-91892381D01*
X123681905Y-91892381D01*
X123777143Y-91844762D01*
X123824762Y-91797143D01*
X123872381Y-91701905D01*
X123920000Y-91511429D01*
X123920000Y-91273333D01*
X123872381Y-91082857D01*
X123824762Y-90987619D01*
X123777143Y-90940000D01*
X123681905Y-90892381D01*
X122158095Y-91511429D02*
X121396190Y-91511429D01*
X120205714Y-91844762D02*
X120062857Y-91892381D01*
X119824761Y-91892381D01*
X119729523Y-91844762D01*
X119681904Y-91797143D01*
X119634285Y-91701905D01*
X119634285Y-91606667D01*
X119681904Y-91511429D01*
X119729523Y-91463810D01*
X119824761Y-91416190D01*
X120015238Y-91368571D01*
X120110476Y-91320952D01*
X120158095Y-91273333D01*
X120205714Y-91178095D01*
X120205714Y-91082857D01*
X120158095Y-90987619D01*
X120110476Y-90940000D01*
X120015238Y-90892381D01*
X119777142Y-90892381D01*
X119634285Y-90940000D01*
X119920000Y-90749524D02*
X119920000Y-92035238D01*
X119300952Y-90892381D02*
X118634285Y-90892381D01*
X119062857Y-91892381D01*
X117919999Y-91368571D02*
X118253333Y-91368571D01*
X118253333Y-91892381D02*
X118253333Y-90892381D01*
X117777142Y-90892381D01*
X117062856Y-91368571D02*
X117396190Y-91368571D01*
X117396190Y-91892381D02*
X117396190Y-90892381D01*
X116919999Y-90892381D01*
X116205713Y-91368571D02*
X116539047Y-91368571D01*
X116539047Y-91892381D02*
X116539047Y-90892381D01*
X116062856Y-90892381D01*
X173449524Y-91844762D02*
X173306667Y-91892381D01*
X173068571Y-91892381D01*
X172973333Y-91844762D01*
X172925714Y-91797143D01*
X172878095Y-91701905D01*
X172878095Y-91606667D01*
X172925714Y-91511429D01*
X172973333Y-91463810D01*
X173068571Y-91416190D01*
X173259048Y-91368571D01*
X173354286Y-91320952D01*
X173401905Y-91273333D01*
X173449524Y-91178095D01*
X173449524Y-91082857D01*
X173401905Y-90987619D01*
X173354286Y-90940000D01*
X173259048Y-90892381D01*
X173020952Y-90892381D01*
X172878095Y-90940000D01*
X173163810Y-90749524D02*
X173163810Y-92035238D01*
X172259048Y-90892381D02*
X172163809Y-90892381D01*
X172068571Y-90940000D01*
X172020952Y-90987619D01*
X171973333Y-91082857D01*
X171925714Y-91273333D01*
X171925714Y-91511429D01*
X171973333Y-91701905D01*
X172020952Y-91797143D01*
X172068571Y-91844762D01*
X172163809Y-91892381D01*
X172259048Y-91892381D01*
X172354286Y-91844762D01*
X172401905Y-91797143D01*
X172449524Y-91701905D01*
X172497143Y-91511429D01*
X172497143Y-91273333D01*
X172449524Y-91082857D01*
X172401905Y-90987619D01*
X172354286Y-90940000D01*
X172259048Y-90892381D01*
X171306667Y-90892381D02*
X171211428Y-90892381D01*
X171116190Y-90940000D01*
X171068571Y-90987619D01*
X171020952Y-91082857D01*
X170973333Y-91273333D01*
X170973333Y-91511429D01*
X171020952Y-91701905D01*
X171068571Y-91797143D01*
X171116190Y-91844762D01*
X171211428Y-91892381D01*
X171306667Y-91892381D01*
X171401905Y-91844762D01*
X171449524Y-91797143D01*
X171497143Y-91701905D01*
X171544762Y-91511429D01*
X171544762Y-91273333D01*
X171497143Y-91082857D01*
X171449524Y-90987619D01*
X171401905Y-90940000D01*
X171306667Y-90892381D01*
X170354286Y-90892381D02*
X170259047Y-90892381D01*
X170163809Y-90940000D01*
X170116190Y-90987619D01*
X170068571Y-91082857D01*
X170020952Y-91273333D01*
X170020952Y-91511429D01*
X170068571Y-91701905D01*
X170116190Y-91797143D01*
X170163809Y-91844762D01*
X170259047Y-91892381D01*
X170354286Y-91892381D01*
X170449524Y-91844762D01*
X170497143Y-91797143D01*
X170544762Y-91701905D01*
X170592381Y-91511429D01*
X170592381Y-91273333D01*
X170544762Y-91082857D01*
X170497143Y-90987619D01*
X170449524Y-90940000D01*
X170354286Y-90892381D01*
X169401905Y-90892381D02*
X169306666Y-90892381D01*
X169211428Y-90940000D01*
X169163809Y-90987619D01*
X169116190Y-91082857D01*
X169068571Y-91273333D01*
X169068571Y-91511429D01*
X169116190Y-91701905D01*
X169163809Y-91797143D01*
X169211428Y-91844762D01*
X169306666Y-91892381D01*
X169401905Y-91892381D01*
X169497143Y-91844762D01*
X169544762Y-91797143D01*
X169592381Y-91701905D01*
X169640000Y-91511429D01*
X169640000Y-91273333D01*
X169592381Y-91082857D01*
X169544762Y-90987619D01*
X169497143Y-90940000D01*
X169401905Y-90892381D01*
X167878095Y-91511429D02*
X167116190Y-91511429D01*
X165925714Y-91844762D02*
X165782857Y-91892381D01*
X165544761Y-91892381D01*
X165449523Y-91844762D01*
X165401904Y-91797143D01*
X165354285Y-91701905D01*
X165354285Y-91606667D01*
X165401904Y-91511429D01*
X165449523Y-91463810D01*
X165544761Y-91416190D01*
X165735238Y-91368571D01*
X165830476Y-91320952D01*
X165878095Y-91273333D01*
X165925714Y-91178095D01*
X165925714Y-91082857D01*
X165878095Y-90987619D01*
X165830476Y-90940000D01*
X165735238Y-90892381D01*
X165497142Y-90892381D01*
X165354285Y-90940000D01*
X165640000Y-90749524D02*
X165640000Y-92035238D01*
X165020952Y-90892381D02*
X164401904Y-90892381D01*
X164735238Y-91273333D01*
X164592380Y-91273333D01*
X164497142Y-91320952D01*
X164449523Y-91368571D01*
X164401904Y-91463810D01*
X164401904Y-91701905D01*
X164449523Y-91797143D01*
X164497142Y-91844762D01*
X164592380Y-91892381D01*
X164878095Y-91892381D01*
X164973333Y-91844762D01*
X165020952Y-91797143D01*
X163639999Y-91368571D02*
X163973333Y-91368571D01*
X163973333Y-91892381D02*
X163973333Y-90892381D01*
X163497142Y-90892381D01*
X162782856Y-91368571D02*
X163116190Y-91368571D01*
X163116190Y-91892381D02*
X163116190Y-90892381D01*
X162639999Y-90892381D01*
X161925713Y-91368571D02*
X162259047Y-91368571D01*
X162259047Y-91892381D02*
X162259047Y-90892381D01*
X161782856Y-90892381D01*
X196261905Y-91844762D02*
X196119048Y-91892381D01*
X195880952Y-91892381D01*
X195785714Y-91844762D01*
X195738095Y-91797143D01*
X195690476Y-91701905D01*
X195690476Y-91606667D01*
X195738095Y-91511429D01*
X195785714Y-91463810D01*
X195880952Y-91416190D01*
X196071429Y-91368571D01*
X196166667Y-91320952D01*
X196214286Y-91273333D01*
X196261905Y-91178095D01*
X196261905Y-91082857D01*
X196214286Y-90987619D01*
X196166667Y-90940000D01*
X196071429Y-90892381D01*
X195833333Y-90892381D01*
X195690476Y-90940000D01*
X195976191Y-90749524D02*
X195976191Y-92035238D01*
X195119048Y-91320952D02*
X195214286Y-91273333D01*
X195261905Y-91225714D01*
X195309524Y-91130476D01*
X195309524Y-91082857D01*
X195261905Y-90987619D01*
X195214286Y-90940000D01*
X195119048Y-90892381D01*
X194928571Y-90892381D01*
X194833333Y-90940000D01*
X194785714Y-90987619D01*
X194738095Y-91082857D01*
X194738095Y-91130476D01*
X194785714Y-91225714D01*
X194833333Y-91273333D01*
X194928571Y-91320952D01*
X195119048Y-91320952D01*
X195214286Y-91368571D01*
X195261905Y-91416190D01*
X195309524Y-91511429D01*
X195309524Y-91701905D01*
X195261905Y-91797143D01*
X195214286Y-91844762D01*
X195119048Y-91892381D01*
X194928571Y-91892381D01*
X194833333Y-91844762D01*
X194785714Y-91797143D01*
X194738095Y-91701905D01*
X194738095Y-91511429D01*
X194785714Y-91416190D01*
X194833333Y-91368571D01*
X194928571Y-91320952D01*
X194119048Y-90892381D02*
X194023809Y-90892381D01*
X193928571Y-90940000D01*
X193880952Y-90987619D01*
X193833333Y-91082857D01*
X193785714Y-91273333D01*
X193785714Y-91511429D01*
X193833333Y-91701905D01*
X193880952Y-91797143D01*
X193928571Y-91844762D01*
X194023809Y-91892381D01*
X194119048Y-91892381D01*
X194214286Y-91844762D01*
X194261905Y-91797143D01*
X194309524Y-91701905D01*
X194357143Y-91511429D01*
X194357143Y-91273333D01*
X194309524Y-91082857D01*
X194261905Y-90987619D01*
X194214286Y-90940000D01*
X194119048Y-90892381D01*
X193166667Y-90892381D02*
X193071428Y-90892381D01*
X192976190Y-90940000D01*
X192928571Y-90987619D01*
X192880952Y-91082857D01*
X192833333Y-91273333D01*
X192833333Y-91511429D01*
X192880952Y-91701905D01*
X192928571Y-91797143D01*
X192976190Y-91844762D01*
X193071428Y-91892381D01*
X193166667Y-91892381D01*
X193261905Y-91844762D01*
X193309524Y-91797143D01*
X193357143Y-91701905D01*
X193404762Y-91511429D01*
X193404762Y-91273333D01*
X193357143Y-91082857D01*
X193309524Y-90987619D01*
X193261905Y-90940000D01*
X193166667Y-90892381D01*
X192214286Y-90892381D02*
X192119047Y-90892381D01*
X192023809Y-90940000D01*
X191976190Y-90987619D01*
X191928571Y-91082857D01*
X191880952Y-91273333D01*
X191880952Y-91511429D01*
X191928571Y-91701905D01*
X191976190Y-91797143D01*
X192023809Y-91844762D01*
X192119047Y-91892381D01*
X192214286Y-91892381D01*
X192309524Y-91844762D01*
X192357143Y-91797143D01*
X192404762Y-91701905D01*
X192452381Y-91511429D01*
X192452381Y-91273333D01*
X192404762Y-91082857D01*
X192357143Y-90987619D01*
X192309524Y-90940000D01*
X192214286Y-90892381D01*
X190690476Y-91511429D02*
X189928571Y-91511429D01*
X188738095Y-91844762D02*
X188595238Y-91892381D01*
X188357142Y-91892381D01*
X188261904Y-91844762D01*
X188214285Y-91797143D01*
X188166666Y-91701905D01*
X188166666Y-91606667D01*
X188214285Y-91511429D01*
X188261904Y-91463810D01*
X188357142Y-91416190D01*
X188547619Y-91368571D01*
X188642857Y-91320952D01*
X188690476Y-91273333D01*
X188738095Y-91178095D01*
X188738095Y-91082857D01*
X188690476Y-90987619D01*
X188642857Y-90940000D01*
X188547619Y-90892381D01*
X188309523Y-90892381D01*
X188166666Y-90940000D01*
X188452381Y-90749524D02*
X188452381Y-92035238D01*
X187404761Y-91368571D02*
X187738095Y-91368571D01*
X187738095Y-91892381D02*
X187738095Y-90892381D01*
X187261904Y-90892381D01*
X186547618Y-91368571D02*
X186880952Y-91368571D01*
X186880952Y-91892381D02*
X186880952Y-90892381D01*
X186404761Y-90892381D01*
X185690475Y-91368571D02*
X186023809Y-91368571D01*
X186023809Y-91892381D02*
X186023809Y-90892381D01*
X185547618Y-90892381D01*
X184833332Y-91368571D02*
X185166666Y-91368571D01*
X185166666Y-91892381D02*
X185166666Y-90892381D01*
X184690475Y-90892381D01*
D12*
X193040000Y-67310000D02*
X193040000Y-71120000D01*
X193040000Y-74930000D02*
X193040000Y-78740000D01*
X193040000Y-74295000D02*
X194310000Y-74295000D01*
X193040000Y-71755000D02*
X193040000Y-74295000D01*
X194310000Y-71755000D02*
X193040000Y-71755000D01*
X196850000Y-78740000D02*
X193040000Y-78740000D01*
X196850000Y-67310000D02*
X196850000Y-78740000D01*
X193040000Y-67310000D02*
X196850000Y-67310000D01*
D13*
X177418570Y-50692857D02*
X177204284Y-50764286D01*
X177132856Y-50835714D01*
X177061427Y-50978571D01*
X177061427Y-51192857D01*
X177132856Y-51335714D01*
X177204284Y-51407143D01*
X177347142Y-51478571D01*
X177918570Y-51478571D01*
X177918570Y-49978571D01*
X177418570Y-49978571D01*
X177275713Y-50050000D01*
X177204284Y-50121429D01*
X177132856Y-50264286D01*
X177132856Y-50407143D01*
X177204284Y-50550000D01*
X177275713Y-50621429D01*
X177418570Y-50692857D01*
X177918570Y-50692857D01*
X176418570Y-50692857D02*
X175918570Y-50692857D01*
X175704284Y-51478571D02*
X176418570Y-51478571D01*
X176418570Y-49978571D01*
X175704284Y-49978571D01*
X174418570Y-49978571D02*
X174704284Y-49978571D01*
X174847141Y-50050000D01*
X174918570Y-50121429D01*
X175061427Y-50335714D01*
X175132856Y-50621429D01*
X175132856Y-51192857D01*
X175061427Y-51335714D01*
X174989999Y-51407143D01*
X174847141Y-51478571D01*
X174561427Y-51478571D01*
X174418570Y-51407143D01*
X174347141Y-51335714D01*
X174275713Y-51192857D01*
X174275713Y-50835714D01*
X174347141Y-50692857D01*
X174418570Y-50621429D01*
X174561427Y-50550000D01*
X174847141Y-50550000D01*
X174989999Y-50621429D01*
X175061427Y-50692857D01*
X175132856Y-50835714D01*
X172918570Y-49978571D02*
X173632856Y-49978571D01*
X173704285Y-50692857D01*
X173632856Y-50621429D01*
X173489999Y-50550000D01*
X173132856Y-50550000D01*
X172989999Y-50621429D01*
X172918570Y-50692857D01*
X172847142Y-50835714D01*
X172847142Y-51192857D01*
X172918570Y-51335714D01*
X172989999Y-51407143D01*
X173132856Y-51478571D01*
X173489999Y-51478571D01*
X173632856Y-51407143D01*
X173704285Y-51335714D01*
X171918571Y-49978571D02*
X171775714Y-49978571D01*
X171632857Y-50050000D01*
X171561428Y-50121429D01*
X171489999Y-50264286D01*
X171418571Y-50550000D01*
X171418571Y-50907143D01*
X171489999Y-51192857D01*
X171561428Y-51335714D01*
X171632857Y-51407143D01*
X171775714Y-51478571D01*
X171918571Y-51478571D01*
X172061428Y-51407143D01*
X172132857Y-51335714D01*
X172204285Y-51192857D01*
X172275714Y-50907143D01*
X172275714Y-50550000D01*
X172204285Y-50264286D01*
X172132857Y-50121429D01*
X172061428Y-50050000D01*
X171918571Y-49978571D01*
X170847143Y-50121429D02*
X170775714Y-50050000D01*
X170632857Y-49978571D01*
X170275714Y-49978571D01*
X170132857Y-50050000D01*
X170061428Y-50121429D01*
X169990000Y-50264286D01*
X169990000Y-50407143D01*
X170061428Y-50621429D01*
X170918571Y-51478571D01*
X169990000Y-51478571D01*
D11*
X179561429Y-53109762D02*
X179418572Y-53157381D01*
X179180476Y-53157381D01*
X179085238Y-53109762D01*
X179037619Y-53062143D01*
X178990000Y-52966905D01*
X178990000Y-52871667D01*
X179037619Y-52776429D01*
X179085238Y-52728810D01*
X179180476Y-52681190D01*
X179370953Y-52633571D01*
X179466191Y-52585952D01*
X179513810Y-52538333D01*
X179561429Y-52443095D01*
X179561429Y-52347857D01*
X179513810Y-52252619D01*
X179466191Y-52205000D01*
X179370953Y-52157381D01*
X179132857Y-52157381D01*
X178990000Y-52205000D01*
X178228095Y-52633571D02*
X178085238Y-52681190D01*
X178037619Y-52728810D01*
X177990000Y-52824048D01*
X177990000Y-52966905D01*
X178037619Y-53062143D01*
X178085238Y-53109762D01*
X178180476Y-53157381D01*
X178561429Y-53157381D01*
X178561429Y-52157381D01*
X178228095Y-52157381D01*
X178132857Y-52205000D01*
X178085238Y-52252619D01*
X178037619Y-52347857D01*
X178037619Y-52443095D01*
X178085238Y-52538333D01*
X178132857Y-52585952D01*
X178228095Y-52633571D01*
X178561429Y-52633571D01*
X176990000Y-53062143D02*
X177037619Y-53109762D01*
X177180476Y-53157381D01*
X177275714Y-53157381D01*
X177418572Y-53109762D01*
X177513810Y-53014524D01*
X177561429Y-52919286D01*
X177609048Y-52728810D01*
X177609048Y-52585952D01*
X177561429Y-52395476D01*
X177513810Y-52300238D01*
X177418572Y-52205000D01*
X177275714Y-52157381D01*
X177180476Y-52157381D01*
X177037619Y-52205000D01*
X176990000Y-52252619D01*
X175228095Y-53157381D02*
X175561429Y-52681190D01*
X175799524Y-53157381D02*
X175799524Y-52157381D01*
X175418571Y-52157381D01*
X175323333Y-52205000D01*
X175275714Y-52252619D01*
X175228095Y-52347857D01*
X175228095Y-52490714D01*
X175275714Y-52585952D01*
X175323333Y-52633571D01*
X175418571Y-52681190D01*
X175799524Y-52681190D01*
X174418571Y-53109762D02*
X174513809Y-53157381D01*
X174704286Y-53157381D01*
X174799524Y-53109762D01*
X174847143Y-53014524D01*
X174847143Y-52633571D01*
X174799524Y-52538333D01*
X174704286Y-52490714D01*
X174513809Y-52490714D01*
X174418571Y-52538333D01*
X174370952Y-52633571D01*
X174370952Y-52728810D01*
X174847143Y-52824048D01*
X174037619Y-52490714D02*
X173799524Y-53157381D01*
X173561428Y-52490714D01*
X173180476Y-53157381D02*
X173180476Y-52490714D01*
X173180476Y-52157381D02*
X173228095Y-52205000D01*
X173180476Y-52252619D01*
X173132857Y-52205000D01*
X173180476Y-52157381D01*
X173180476Y-52252619D01*
X172751905Y-53109762D02*
X172656667Y-53157381D01*
X172466191Y-53157381D01*
X172370952Y-53109762D01*
X172323333Y-53014524D01*
X172323333Y-52966905D01*
X172370952Y-52871667D01*
X172466191Y-52824048D01*
X172609048Y-52824048D01*
X172704286Y-52776429D01*
X172751905Y-52681190D01*
X172751905Y-52633571D01*
X172704286Y-52538333D01*
X172609048Y-52490714D01*
X172466191Y-52490714D01*
X172370952Y-52538333D01*
X171894762Y-53157381D02*
X171894762Y-52490714D01*
X171894762Y-52157381D02*
X171942381Y-52205000D01*
X171894762Y-52252619D01*
X171847143Y-52205000D01*
X171894762Y-52157381D01*
X171894762Y-52252619D01*
X171275715Y-53157381D02*
X171370953Y-53109762D01*
X171418572Y-53062143D01*
X171466191Y-52966905D01*
X171466191Y-52681190D01*
X171418572Y-52585952D01*
X171370953Y-52538333D01*
X171275715Y-52490714D01*
X171132857Y-52490714D01*
X171037619Y-52538333D01*
X170990000Y-52585952D01*
X170942381Y-52681190D01*
X170942381Y-52966905D01*
X170990000Y-53062143D01*
X171037619Y-53109762D01*
X171132857Y-53157381D01*
X171275715Y-53157381D01*
X170513810Y-52490714D02*
X170513810Y-53157381D01*
X170513810Y-52585952D02*
X170466191Y-52538333D01*
X170370953Y-52490714D01*
X170228095Y-52490714D01*
X170132857Y-52538333D01*
X170085238Y-52633571D01*
X170085238Y-53157381D01*
X168894762Y-52871667D02*
X168418571Y-52871667D01*
X168990000Y-53157381D02*
X168656667Y-52157381D01*
X168323333Y-53157381D01*
X125991427Y-88078571D02*
X126277141Y-88078571D01*
X126419998Y-88150000D01*
X126491427Y-88221429D01*
X126634284Y-88435714D01*
X126705713Y-88721429D01*
X126705713Y-89292857D01*
X126634284Y-89435714D01*
X126562856Y-89507143D01*
X126419998Y-89578571D01*
X126134284Y-89578571D01*
X125991427Y-89507143D01*
X125919998Y-89435714D01*
X125848570Y-89292857D01*
X125848570Y-88935714D01*
X125919998Y-88792857D01*
X125991427Y-88721429D01*
X126134284Y-88650000D01*
X126419998Y-88650000D01*
X126562856Y-88721429D01*
X126634284Y-88792857D01*
X126705713Y-88935714D01*
X124491427Y-88078571D02*
X125205713Y-88078571D01*
X125277142Y-88792857D01*
X125205713Y-88721429D01*
X125062856Y-88650000D01*
X124705713Y-88650000D01*
X124562856Y-88721429D01*
X124491427Y-88792857D01*
X124419999Y-88935714D01*
X124419999Y-89292857D01*
X124491427Y-89435714D01*
X124562856Y-89507143D01*
X124705713Y-89578571D01*
X125062856Y-89578571D01*
X125205713Y-89507143D01*
X125277142Y-89435714D01*
X123848571Y-88221429D02*
X123777142Y-88150000D01*
X123634285Y-88078571D01*
X123277142Y-88078571D01*
X123134285Y-88150000D01*
X123062856Y-88221429D01*
X122991428Y-88364286D01*
X122991428Y-88507143D01*
X123062856Y-88721429D01*
X123919999Y-89578571D01*
X122991428Y-89578571D01*
X122420000Y-88221429D02*
X122348571Y-88150000D01*
X122205714Y-88078571D01*
X121848571Y-88078571D01*
X121705714Y-88150000D01*
X121634285Y-88221429D01*
X121562857Y-88364286D01*
X121562857Y-88507143D01*
X121634285Y-88721429D01*
X122491428Y-89578571D01*
X121562857Y-89578571D01*
X119991429Y-88078571D02*
X119491429Y-89578571D01*
X118991429Y-88078571D01*
X118491429Y-89578571D02*
X118491429Y-88078571D01*
X117848572Y-89150000D02*
X117134286Y-89150000D01*
X117991429Y-89578571D02*
X117491429Y-88078571D01*
X116991429Y-89578571D01*
D12*
X129857500Y-57467500D02*
X129857500Y-78422500D01*
X142557500Y-57467500D02*
X142557500Y-78422500D01*
X129857500Y-57467500D02*
X142557500Y-57467500D01*
X142557500Y-78422500D02*
X129857500Y-78422500D01*
D11*
X135386071Y-61698928D02*
X135386071Y-61984642D01*
X135457500Y-62127500D01*
X135600357Y-62270357D01*
X135886071Y-62341785D01*
X136386071Y-62341785D01*
X136671786Y-62270357D01*
X136814643Y-62127500D01*
X136886071Y-61984642D01*
X136886071Y-61698928D01*
X136814643Y-61556071D01*
X136671786Y-61413214D01*
X136386071Y-61341785D01*
X135886071Y-61341785D01*
X135600357Y-61413214D01*
X135457500Y-61556071D01*
X135386071Y-61698928D01*
X136814643Y-62913214D02*
X136886071Y-63127500D01*
X136886071Y-63484643D01*
X136814643Y-63627500D01*
X136743214Y-63698929D01*
X136600357Y-63770357D01*
X136457500Y-63770357D01*
X136314643Y-63698929D01*
X136243214Y-63627500D01*
X136171786Y-63484643D01*
X136100357Y-63198929D01*
X136028929Y-63056071D01*
X135957500Y-62984643D01*
X135814643Y-62913214D01*
X135671786Y-62913214D01*
X135528929Y-62984643D01*
X135457500Y-63056071D01*
X135386071Y-63198929D01*
X135386071Y-63556071D01*
X135457500Y-63770357D01*
X136743214Y-65270357D02*
X136814643Y-65198928D01*
X136886071Y-64984642D01*
X136886071Y-64841785D01*
X136814643Y-64627500D01*
X136671786Y-64484642D01*
X136528929Y-64413214D01*
X136243214Y-64341785D01*
X136028929Y-64341785D01*
X135743214Y-64413214D01*
X135600357Y-64484642D01*
X135457500Y-64627500D01*
X135386071Y-64841785D01*
X135386071Y-64984642D01*
X135457500Y-65198928D01*
X135528929Y-65270357D01*
X136886071Y-65913214D02*
X135386071Y-65913214D01*
X136886071Y-67341786D02*
X136886071Y-66627500D01*
X135386071Y-66627500D01*
X136886071Y-68556072D02*
X136886071Y-67841786D01*
X135386071Y-67841786D01*
X136457500Y-68984643D02*
X136457500Y-69698929D01*
X136886071Y-68841786D02*
X135386071Y-69341786D01*
X136886071Y-69841786D01*
X135386071Y-70127500D02*
X135386071Y-70984643D01*
X136886071Y-70556072D02*
X135386071Y-70556072D01*
X135386071Y-71770357D02*
X135386071Y-72056071D01*
X135457500Y-72198929D01*
X135600357Y-72341786D01*
X135886071Y-72413214D01*
X136386071Y-72413214D01*
X136671786Y-72341786D01*
X136814643Y-72198929D01*
X136886071Y-72056071D01*
X136886071Y-71770357D01*
X136814643Y-71627500D01*
X136671786Y-71484643D01*
X136386071Y-71413214D01*
X135886071Y-71413214D01*
X135600357Y-71484643D01*
X135457500Y-71627500D01*
X135386071Y-71770357D01*
X136886071Y-73913215D02*
X136171786Y-73413215D01*
X136886071Y-73056072D02*
X135386071Y-73056072D01*
X135386071Y-73627500D01*
X135457500Y-73770358D01*
X135528929Y-73841786D01*
X135671786Y-73913215D01*
X135886071Y-73913215D01*
X136028929Y-73841786D01*
X136100357Y-73770358D01*
X136171786Y-73627500D01*
X136171786Y-73056072D01*
X194642857Y-88792857D02*
X194142857Y-88792857D01*
X193928571Y-89578571D02*
X194642857Y-89578571D01*
X194642857Y-88078571D01*
X193928571Y-88078571D01*
X193285714Y-88792857D02*
X192785714Y-88792857D01*
X192571428Y-89578571D02*
X193285714Y-89578571D01*
X193285714Y-88078571D01*
X192571428Y-88078571D01*
X191928571Y-89578571D02*
X191928571Y-88078571D01*
X191357143Y-88078571D01*
X191214285Y-88150000D01*
X191142857Y-88221429D01*
X191071428Y-88364286D01*
X191071428Y-88578571D01*
X191142857Y-88721429D01*
X191214285Y-88792857D01*
X191357143Y-88864286D01*
X191928571Y-88864286D01*
X189571428Y-89578571D02*
X190071428Y-88864286D01*
X190428571Y-89578571D02*
X190428571Y-88078571D01*
X189857143Y-88078571D01*
X189714285Y-88150000D01*
X189642857Y-88221429D01*
X189571428Y-88364286D01*
X189571428Y-88578571D01*
X189642857Y-88721429D01*
X189714285Y-88792857D01*
X189857143Y-88864286D01*
X190428571Y-88864286D01*
X188642857Y-88078571D02*
X188357143Y-88078571D01*
X188214285Y-88150000D01*
X188071428Y-88292857D01*
X188000000Y-88578571D01*
X188000000Y-89078571D01*
X188071428Y-89364286D01*
X188214285Y-89507143D01*
X188357143Y-89578571D01*
X188642857Y-89578571D01*
X188785714Y-89507143D01*
X188928571Y-89364286D01*
X189000000Y-89078571D01*
X189000000Y-88578571D01*
X188928571Y-88292857D01*
X188785714Y-88150000D01*
X188642857Y-88078571D01*
X187357142Y-89578571D02*
X187357142Y-88078571D01*
X186857142Y-89150000D01*
X186357142Y-88078571D01*
X186357142Y-89578571D01*
X173782857Y-89507143D02*
X173568571Y-89578571D01*
X173211428Y-89578571D01*
X173068571Y-89507143D01*
X172997142Y-89435714D01*
X172925714Y-89292857D01*
X172925714Y-89150000D01*
X172997142Y-89007143D01*
X173068571Y-88935714D01*
X173211428Y-88864286D01*
X173497142Y-88792857D01*
X173640000Y-88721429D01*
X173711428Y-88650000D01*
X173782857Y-88507143D01*
X173782857Y-88364286D01*
X173711428Y-88221429D01*
X173640000Y-88150000D01*
X173497142Y-88078571D01*
X173140000Y-88078571D01*
X172925714Y-88150000D01*
X172497143Y-88078571D02*
X171640000Y-88078571D01*
X172068571Y-89578571D02*
X172068571Y-88078571D01*
X171211429Y-89150000D02*
X170497143Y-89150000D01*
X171354286Y-89578571D02*
X170854286Y-88078571D01*
X170354286Y-89578571D01*
X170068572Y-88078571D02*
X169211429Y-88078571D01*
X169640000Y-89578571D02*
X169640000Y-88078571D01*
X168711429Y-89578571D02*
X168711429Y-88078571D01*
X167140000Y-89435714D02*
X167211429Y-89507143D01*
X167425715Y-89578571D01*
X167568572Y-89578571D01*
X167782857Y-89507143D01*
X167925715Y-89364286D01*
X167997143Y-89221429D01*
X168068572Y-88935714D01*
X168068572Y-88721429D01*
X167997143Y-88435714D01*
X167925715Y-88292857D01*
X167782857Y-88150000D01*
X167568572Y-88078571D01*
X167425715Y-88078571D01*
X167211429Y-88150000D01*
X167140000Y-88221429D01*
X164497143Y-89578571D02*
X164997143Y-88864286D01*
X165354286Y-89578571D02*
X165354286Y-88078571D01*
X164782858Y-88078571D01*
X164640000Y-88150000D01*
X164568572Y-88221429D01*
X164497143Y-88364286D01*
X164497143Y-88578571D01*
X164568572Y-88721429D01*
X164640000Y-88792857D01*
X164782858Y-88864286D01*
X165354286Y-88864286D01*
X163925715Y-89150000D02*
X163211429Y-89150000D01*
X164068572Y-89578571D02*
X163568572Y-88078571D01*
X163068572Y-89578571D01*
X162568572Y-89578571D02*
X162568572Y-88078571D01*
X162068572Y-89150000D01*
X161568572Y-88078571D01*
X161568572Y-89578571D01*
X149494285Y-88078571D02*
X149779999Y-88078571D01*
X149922856Y-88150000D01*
X149994285Y-88221429D01*
X150137142Y-88435714D01*
X150208571Y-88721429D01*
X150208571Y-89292857D01*
X150137142Y-89435714D01*
X150065714Y-89507143D01*
X149922856Y-89578571D01*
X149637142Y-89578571D01*
X149494285Y-89507143D01*
X149422856Y-89435714D01*
X149351428Y-89292857D01*
X149351428Y-88935714D01*
X149422856Y-88792857D01*
X149494285Y-88721429D01*
X149637142Y-88650000D01*
X149922856Y-88650000D01*
X150065714Y-88721429D01*
X150137142Y-88792857D01*
X150208571Y-88935714D01*
X147994285Y-88078571D02*
X148708571Y-88078571D01*
X148780000Y-88792857D01*
X148708571Y-88721429D01*
X148565714Y-88650000D01*
X148208571Y-88650000D01*
X148065714Y-88721429D01*
X147994285Y-88792857D01*
X147922857Y-88935714D01*
X147922857Y-89292857D01*
X147994285Y-89435714D01*
X148065714Y-89507143D01*
X148208571Y-89578571D01*
X148565714Y-89578571D01*
X148708571Y-89507143D01*
X148780000Y-89435714D01*
X146994286Y-88078571D02*
X146851429Y-88078571D01*
X146708572Y-88150000D01*
X146637143Y-88221429D01*
X146565714Y-88364286D01*
X146494286Y-88650000D01*
X146494286Y-89007143D01*
X146565714Y-89292857D01*
X146637143Y-89435714D01*
X146708572Y-89507143D01*
X146851429Y-89578571D01*
X146994286Y-89578571D01*
X147137143Y-89507143D01*
X147208572Y-89435714D01*
X147280000Y-89292857D01*
X147351429Y-89007143D01*
X147351429Y-88650000D01*
X147280000Y-88364286D01*
X147208572Y-88221429D01*
X147137143Y-88150000D01*
X146994286Y-88078571D01*
X145922858Y-88221429D02*
X145851429Y-88150000D01*
X145708572Y-88078571D01*
X145351429Y-88078571D01*
X145208572Y-88150000D01*
X145137143Y-88221429D01*
X145065715Y-88364286D01*
X145065715Y-88507143D01*
X145137143Y-88721429D01*
X145994286Y-89578571D01*
X145065715Y-89578571D01*
X142422858Y-89435714D02*
X142494287Y-89507143D01*
X142708573Y-89578571D01*
X142851430Y-89578571D01*
X143065715Y-89507143D01*
X143208573Y-89364286D01*
X143280001Y-89221429D01*
X143351430Y-88935714D01*
X143351430Y-88721429D01*
X143280001Y-88435714D01*
X143208573Y-88292857D01*
X143065715Y-88150000D01*
X142851430Y-88078571D01*
X142708573Y-88078571D01*
X142494287Y-88150000D01*
X142422858Y-88221429D01*
X141780001Y-89578571D02*
X141780001Y-88078571D01*
X141208573Y-88078571D01*
X141065715Y-88150000D01*
X140994287Y-88221429D01*
X140922858Y-88364286D01*
X140922858Y-88578571D01*
X140994287Y-88721429D01*
X141065715Y-88792857D01*
X141208573Y-88864286D01*
X141780001Y-88864286D01*
X140280001Y-88078571D02*
X140280001Y-89292857D01*
X140208573Y-89435714D01*
X140137144Y-89507143D01*
X139994287Y-89578571D01*
X139708573Y-89578571D01*
X139565715Y-89507143D01*
X139494287Y-89435714D01*
X139422858Y-89292857D01*
X139422858Y-88078571D01*
D10*
X162680476Y-67656905D02*
X162680476Y-66856905D01*
X162223333Y-67656905D01*
X162223333Y-66856905D01*
X161880476Y-67428333D02*
X161499524Y-67428333D01*
X161956667Y-67656905D02*
X161690000Y-66856905D01*
X161423333Y-67656905D01*
X161156667Y-67656905D02*
X161156667Y-66856905D01*
X160699524Y-67656905D01*
X160699524Y-66856905D01*
X160318572Y-67656905D02*
X160318572Y-66856905D01*
X160128096Y-66856905D01*
X160013810Y-66895000D01*
X159937619Y-66971190D01*
X159899524Y-67047381D01*
X159861429Y-67199762D01*
X159861429Y-67314048D01*
X159899524Y-67466429D01*
X159937619Y-67542619D01*
X160013810Y-67618810D01*
X160128096Y-67656905D01*
X160318572Y-67656905D01*
X162470952Y-68195000D02*
X162547143Y-68156905D01*
X162661428Y-68156905D01*
X162775714Y-68195000D01*
X162851905Y-68271190D01*
X162890000Y-68347381D01*
X162928095Y-68499762D01*
X162928095Y-68614048D01*
X162890000Y-68766429D01*
X162851905Y-68842619D01*
X162775714Y-68918810D01*
X162661428Y-68956905D01*
X162585238Y-68956905D01*
X162470952Y-68918810D01*
X162432857Y-68880714D01*
X162432857Y-68614048D01*
X162585238Y-68614048D01*
X162128095Y-68728333D02*
X161747143Y-68728333D01*
X162204286Y-68956905D02*
X161937619Y-68156905D01*
X161670952Y-68956905D01*
X161518572Y-68156905D02*
X161061429Y-68156905D01*
X161290000Y-68956905D02*
X161290000Y-68156905D01*
X160794762Y-68537857D02*
X160528095Y-68537857D01*
X160413809Y-68956905D02*
X160794762Y-68956905D01*
X160794762Y-68156905D01*
X160413809Y-68156905D01*
X160109047Y-68918810D02*
X159994761Y-68956905D01*
X159804285Y-68956905D01*
X159728095Y-68918810D01*
X159689999Y-68880714D01*
X159651904Y-68804524D01*
X159651904Y-68728333D01*
X159689999Y-68652143D01*
X159728095Y-68614048D01*
X159804285Y-68575952D01*
X159956666Y-68537857D01*
X160032857Y-68499762D01*
X160070952Y-68461667D01*
X160109047Y-68385476D01*
X160109047Y-68309286D01*
X160070952Y-68233095D01*
X160032857Y-68195000D01*
X159956666Y-68156905D01*
X159766190Y-68156905D01*
X159651904Y-68195000D01*
D12*
X165100000Y-58420000D02*
X165100000Y-59690000D01*
X157480000Y-58420000D02*
X165100000Y-58420000D01*
X157480000Y-59690000D02*
X157480000Y-58420000D01*
X165100000Y-77470000D02*
X165100000Y-76200000D01*
X157480000Y-77470000D02*
X165100000Y-77470000D01*
X157480000Y-76200000D02*
X157480000Y-77470000D01*
X198120000Y-121285000D02*
X198120000Y-120015000D01*
X182880000Y-121285000D02*
X198120000Y-121285000D01*
X182880000Y-120015000D02*
X182880000Y-121285000D01*
X129540000Y-136525000D02*
X129540000Y-135255000D01*
X114300000Y-136525000D02*
X129540000Y-136525000D01*
X114300000Y-135255000D02*
X114300000Y-136525000D01*
X198120000Y-84455000D02*
X198120000Y-85725000D01*
X182880000Y-84455000D02*
X198120000Y-84455000D01*
X182880000Y-85725000D02*
X182880000Y-84455000D01*
X175260000Y-84455000D02*
X175260000Y-85725000D01*
X160020000Y-84455000D02*
X175260000Y-84455000D01*
X160020000Y-85725000D02*
X160020000Y-84455000D01*
X152400000Y-84455000D02*
X152400000Y-85725000D01*
X137160000Y-84455000D02*
X152400000Y-84455000D01*
X137160000Y-85725000D02*
X137160000Y-84455000D01*
X129540000Y-84455000D02*
X129540000Y-85725000D01*
X114300000Y-84455000D02*
X129540000Y-84455000D01*
X114300000Y-85725000D02*
X114300000Y-84455000D01*
X137160000Y-136525000D02*
X137160000Y-135255000D01*
X152400000Y-136525000D02*
X137160000Y-136525000D01*
X152400000Y-135255000D02*
X152400000Y-136525000D01*
X175260000Y-121285000D02*
X175260000Y-120015000D01*
X160020000Y-121285000D02*
X175260000Y-121285000D01*
X160020000Y-120015000D02*
X160020000Y-121285000D01*
D11*
X179394762Y-54395714D02*
X179394762Y-55205238D01*
X179442381Y-55300476D01*
X179490000Y-55348095D01*
X179585239Y-55395714D01*
X179728096Y-55395714D01*
X179823334Y-55348095D01*
X179394762Y-55014762D02*
X179490000Y-55062381D01*
X179680477Y-55062381D01*
X179775715Y-55014762D01*
X179823334Y-54967143D01*
X179870953Y-54871905D01*
X179870953Y-54586190D01*
X179823334Y-54490952D01*
X179775715Y-54443333D01*
X179680477Y-54395714D01*
X179490000Y-54395714D01*
X179394762Y-54443333D01*
X178918572Y-55062381D02*
X178918572Y-54395714D01*
X178918572Y-54062381D02*
X178966191Y-54110000D01*
X178918572Y-54157619D01*
X178870953Y-54110000D01*
X178918572Y-54062381D01*
X178918572Y-54157619D01*
X178585239Y-54395714D02*
X178204287Y-54395714D01*
X178442382Y-54062381D02*
X178442382Y-54919524D01*
X178394763Y-55014762D01*
X178299525Y-55062381D01*
X178204287Y-55062381D01*
X177870953Y-55062381D02*
X177870953Y-54062381D01*
X177442381Y-55062381D02*
X177442381Y-54538571D01*
X177490000Y-54443333D01*
X177585238Y-54395714D01*
X177728096Y-54395714D01*
X177823334Y-54443333D01*
X177870953Y-54490952D01*
X176537619Y-54395714D02*
X176537619Y-55062381D01*
X176966191Y-54395714D02*
X176966191Y-54919524D01*
X176918572Y-55014762D01*
X176823334Y-55062381D01*
X176680476Y-55062381D01*
X176585238Y-55014762D01*
X176537619Y-54967143D01*
X176061429Y-55062381D02*
X176061429Y-54062381D01*
X176061429Y-54443333D02*
X175966191Y-54395714D01*
X175775714Y-54395714D01*
X175680476Y-54443333D01*
X175632857Y-54490952D01*
X175585238Y-54586190D01*
X175585238Y-54871905D01*
X175632857Y-54967143D01*
X175680476Y-55014762D01*
X175775714Y-55062381D01*
X175966191Y-55062381D01*
X176061429Y-55014762D01*
X175156667Y-54967143D02*
X175109048Y-55014762D01*
X175156667Y-55062381D01*
X175204286Y-55014762D01*
X175156667Y-54967143D01*
X175156667Y-55062381D01*
X174251905Y-55014762D02*
X174347143Y-55062381D01*
X174537620Y-55062381D01*
X174632858Y-55014762D01*
X174680477Y-54967143D01*
X174728096Y-54871905D01*
X174728096Y-54586190D01*
X174680477Y-54490952D01*
X174632858Y-54443333D01*
X174537620Y-54395714D01*
X174347143Y-54395714D01*
X174251905Y-54443333D01*
X173680477Y-55062381D02*
X173775715Y-55014762D01*
X173823334Y-54967143D01*
X173870953Y-54871905D01*
X173870953Y-54586190D01*
X173823334Y-54490952D01*
X173775715Y-54443333D01*
X173680477Y-54395714D01*
X173537619Y-54395714D01*
X173442381Y-54443333D01*
X173394762Y-54490952D01*
X173347143Y-54586190D01*
X173347143Y-54871905D01*
X173394762Y-54967143D01*
X173442381Y-55014762D01*
X173537619Y-55062381D01*
X173680477Y-55062381D01*
X172918572Y-55062381D02*
X172918572Y-54395714D01*
X172918572Y-54490952D02*
X172870953Y-54443333D01*
X172775715Y-54395714D01*
X172632857Y-54395714D01*
X172537619Y-54443333D01*
X172490000Y-54538571D01*
X172490000Y-55062381D01*
X172490000Y-54538571D02*
X172442381Y-54443333D01*
X172347143Y-54395714D01*
X172204286Y-54395714D01*
X172109048Y-54443333D01*
X172061429Y-54538571D01*
X172061429Y-55062381D01*
X170870953Y-54014762D02*
X171728096Y-55300476D01*
X170680477Y-54395714D02*
X170299525Y-54395714D01*
X170537620Y-54062381D02*
X170537620Y-54919524D01*
X170490001Y-55014762D01*
X170394763Y-55062381D01*
X170299525Y-55062381D01*
X169585238Y-55014762D02*
X169680476Y-55062381D01*
X169870953Y-55062381D01*
X169966191Y-55014762D01*
X170013810Y-54919524D01*
X170013810Y-54538571D01*
X169966191Y-54443333D01*
X169870953Y-54395714D01*
X169680476Y-54395714D01*
X169585238Y-54443333D01*
X169537619Y-54538571D01*
X169537619Y-54633810D01*
X170013810Y-54729048D01*
X169109048Y-55062381D02*
X169109048Y-54062381D01*
X169109048Y-54443333D02*
X169013810Y-54395714D01*
X168823333Y-54395714D01*
X168728095Y-54443333D01*
X168680476Y-54490952D01*
X168632857Y-54586190D01*
X168632857Y-54871905D01*
X168680476Y-54967143D01*
X168728095Y-55014762D01*
X168823333Y-55062381D01*
X169013810Y-55062381D01*
X169109048Y-55014762D01*
X168061429Y-55062381D02*
X168156667Y-55014762D01*
X168204286Y-54919524D01*
X168204286Y-54062381D01*
X105513095Y-83637381D02*
X105513095Y-82637381D01*
X105275000Y-82637381D01*
X105132142Y-82685000D01*
X105036904Y-82780238D01*
X104989285Y-82875476D01*
X104941666Y-83065952D01*
X104941666Y-83208810D01*
X104989285Y-83399286D01*
X105036904Y-83494524D01*
X105132142Y-83589762D01*
X105275000Y-83637381D01*
X105513095Y-83637381D01*
X103989285Y-83637381D02*
X104560714Y-83637381D01*
X104275000Y-83637381D02*
X104275000Y-82637381D01*
X104370238Y-82780238D01*
X104465476Y-82875476D01*
X104560714Y-82923095D01*
X105513095Y-90622381D02*
X105513095Y-89622381D01*
X105275000Y-89622381D01*
X105132142Y-89670000D01*
X105036904Y-89765238D01*
X104989285Y-89860476D01*
X104941666Y-90050952D01*
X104941666Y-90193810D01*
X104989285Y-90384286D01*
X105036904Y-90479524D01*
X105132142Y-90574762D01*
X105275000Y-90622381D01*
X105513095Y-90622381D01*
X104560714Y-89717619D02*
X104513095Y-89670000D01*
X104417857Y-89622381D01*
X104179761Y-89622381D01*
X104084523Y-89670000D01*
X104036904Y-89717619D01*
X103989285Y-89812857D01*
X103989285Y-89908095D01*
X104036904Y-90050952D01*
X104608333Y-90622381D01*
X103989285Y-90622381D01*
X105513095Y-97607381D02*
X105513095Y-96607381D01*
X105275000Y-96607381D01*
X105132142Y-96655000D01*
X105036904Y-96750238D01*
X104989285Y-96845476D01*
X104941666Y-97035952D01*
X104941666Y-97178810D01*
X104989285Y-97369286D01*
X105036904Y-97464524D01*
X105132142Y-97559762D01*
X105275000Y-97607381D01*
X105513095Y-97607381D01*
X104608333Y-96607381D02*
X103989285Y-96607381D01*
X104322619Y-96988333D01*
X104179761Y-96988333D01*
X104084523Y-97035952D01*
X104036904Y-97083571D01*
X103989285Y-97178810D01*
X103989285Y-97416905D01*
X104036904Y-97512143D01*
X104084523Y-97559762D01*
X104179761Y-97607381D01*
X104465476Y-97607381D01*
X104560714Y-97559762D01*
X104608333Y-97512143D01*
X105513095Y-104592381D02*
X105513095Y-103592381D01*
X105275000Y-103592381D01*
X105132142Y-103640000D01*
X105036904Y-103735238D01*
X104989285Y-103830476D01*
X104941666Y-104020952D01*
X104941666Y-104163810D01*
X104989285Y-104354286D01*
X105036904Y-104449524D01*
X105132142Y-104544762D01*
X105275000Y-104592381D01*
X105513095Y-104592381D01*
X104084523Y-103925714D02*
X104084523Y-104592381D01*
X104322619Y-103544762D02*
X104560714Y-104259048D01*
X103941666Y-104259048D01*
X105513095Y-111577381D02*
X105513095Y-110577381D01*
X105275000Y-110577381D01*
X105132142Y-110625000D01*
X105036904Y-110720238D01*
X104989285Y-110815476D01*
X104941666Y-111005952D01*
X104941666Y-111148810D01*
X104989285Y-111339286D01*
X105036904Y-111434524D01*
X105132142Y-111529762D01*
X105275000Y-111577381D01*
X105513095Y-111577381D01*
X104036904Y-110577381D02*
X104513095Y-110577381D01*
X104560714Y-111053571D01*
X104513095Y-111005952D01*
X104417857Y-110958333D01*
X104179761Y-110958333D01*
X104084523Y-111005952D01*
X104036904Y-111053571D01*
X103989285Y-111148810D01*
X103989285Y-111386905D01*
X104036904Y-111482143D01*
X104084523Y-111529762D01*
X104179761Y-111577381D01*
X104417857Y-111577381D01*
X104513095Y-111529762D01*
X104560714Y-111482143D01*
X105513095Y-118562381D02*
X105513095Y-117562381D01*
X105275000Y-117562381D01*
X105132142Y-117610000D01*
X105036904Y-117705238D01*
X104989285Y-117800476D01*
X104941666Y-117990952D01*
X104941666Y-118133810D01*
X104989285Y-118324286D01*
X105036904Y-118419524D01*
X105132142Y-118514762D01*
X105275000Y-118562381D01*
X105513095Y-118562381D01*
X104084523Y-117562381D02*
X104275000Y-117562381D01*
X104370238Y-117610000D01*
X104417857Y-117657619D01*
X104513095Y-117800476D01*
X104560714Y-117990952D01*
X104560714Y-118371905D01*
X104513095Y-118467143D01*
X104465476Y-118514762D01*
X104370238Y-118562381D01*
X104179761Y-118562381D01*
X104084523Y-118514762D01*
X104036904Y-118467143D01*
X103989285Y-118371905D01*
X103989285Y-118133810D01*
X104036904Y-118038571D01*
X104084523Y-117990952D01*
X104179761Y-117943333D01*
X104370238Y-117943333D01*
X104465476Y-117990952D01*
X104513095Y-118038571D01*
X104560714Y-118133810D01*
X105513095Y-125547381D02*
X105513095Y-124547381D01*
X105275000Y-124547381D01*
X105132142Y-124595000D01*
X105036904Y-124690238D01*
X104989285Y-124785476D01*
X104941666Y-124975952D01*
X104941666Y-125118810D01*
X104989285Y-125309286D01*
X105036904Y-125404524D01*
X105132142Y-125499762D01*
X105275000Y-125547381D01*
X105513095Y-125547381D01*
X104608333Y-124547381D02*
X103941666Y-124547381D01*
X104370238Y-125547381D01*
X105513095Y-132532381D02*
X105513095Y-131532381D01*
X105275000Y-131532381D01*
X105132142Y-131580000D01*
X105036904Y-131675238D01*
X104989285Y-131770476D01*
X104941666Y-131960952D01*
X104941666Y-132103810D01*
X104989285Y-132294286D01*
X105036904Y-132389524D01*
X105132142Y-132484762D01*
X105275000Y-132532381D01*
X105513095Y-132532381D01*
X104370238Y-131960952D02*
X104465476Y-131913333D01*
X104513095Y-131865714D01*
X104560714Y-131770476D01*
X104560714Y-131722857D01*
X104513095Y-131627619D01*
X104465476Y-131580000D01*
X104370238Y-131532381D01*
X104179761Y-131532381D01*
X104084523Y-131580000D01*
X104036904Y-131627619D01*
X103989285Y-131722857D01*
X103989285Y-131770476D01*
X104036904Y-131865714D01*
X104084523Y-131913333D01*
X104179761Y-131960952D01*
X104370238Y-131960952D01*
X104465476Y-132008571D01*
X104513095Y-132056190D01*
X104560714Y-132151429D01*
X104560714Y-132341905D01*
X104513095Y-132437143D01*
X104465476Y-132484762D01*
X104370238Y-132532381D01*
X104179761Y-132532381D01*
X104084523Y-132484762D01*
X104036904Y-132437143D01*
X103989285Y-132341905D01*
X103989285Y-132151429D01*
X104036904Y-132056190D01*
X104084523Y-132008571D01*
X104179761Y-131960952D01*
X182133571Y-133802381D02*
X182133571Y-132802381D01*
X181800237Y-133516667D01*
X181466904Y-132802381D01*
X181466904Y-133802381D01*
X180990714Y-133802381D02*
X180990714Y-132802381D01*
X180514524Y-133802381D02*
X180514524Y-132802381D01*
X180276429Y-132802381D01*
X180133571Y-132850000D01*
X180038333Y-132945238D01*
X179990714Y-133040476D01*
X179943095Y-133230952D01*
X179943095Y-133373810D01*
X179990714Y-133564286D01*
X180038333Y-133659524D01*
X180133571Y-133754762D01*
X180276429Y-133802381D01*
X180514524Y-133802381D01*
X179514524Y-133802381D02*
X179514524Y-132802381D01*
X179276429Y-132802381D01*
X179133571Y-132850000D01*
X179038333Y-132945238D01*
X178990714Y-133040476D01*
X178943095Y-133230952D01*
X178943095Y-133373810D01*
X178990714Y-133564286D01*
X179038333Y-133659524D01*
X179133571Y-133754762D01*
X179276429Y-133802381D01*
X179514524Y-133802381D01*
X178038333Y-133802381D02*
X178514524Y-133802381D01*
X178514524Y-132802381D01*
X177705000Y-133278571D02*
X177371666Y-133278571D01*
X177228809Y-133802381D02*
X177705000Y-133802381D01*
X177705000Y-132802381D01*
X177228809Y-132802381D01*
X179855714Y-125182381D02*
X179855714Y-125991905D01*
X179808095Y-126087143D01*
X179760476Y-126134762D01*
X179665238Y-126182381D01*
X179474761Y-126182381D01*
X179379523Y-126134762D01*
X179331904Y-126087143D01*
X179284285Y-125991905D01*
X179284285Y-125182381D01*
X178808095Y-126182381D02*
X178808095Y-125182381D01*
X178427142Y-125182381D01*
X178331904Y-125230000D01*
X178284285Y-125277619D01*
X178236666Y-125372857D01*
X178236666Y-125515714D01*
X178284285Y-125610952D01*
X178331904Y-125658571D01*
X178427142Y-125706190D01*
X178808095Y-125706190D01*
X180950952Y-141422381D02*
X180950952Y-140422381D01*
X180712857Y-140422381D01*
X180569999Y-140470000D01*
X180474761Y-140565238D01*
X180427142Y-140660476D01*
X180379523Y-140850952D01*
X180379523Y-140993810D01*
X180427142Y-141184286D01*
X180474761Y-141279524D01*
X180569999Y-141374762D01*
X180712857Y-141422381D01*
X180950952Y-141422381D01*
X179760476Y-140422381D02*
X179569999Y-140422381D01*
X179474761Y-140470000D01*
X179379523Y-140565238D01*
X179331904Y-140755714D01*
X179331904Y-141089048D01*
X179379523Y-141279524D01*
X179474761Y-141374762D01*
X179569999Y-141422381D01*
X179760476Y-141422381D01*
X179855714Y-141374762D01*
X179950952Y-141279524D01*
X179998571Y-141089048D01*
X179998571Y-140755714D01*
X179950952Y-140565238D01*
X179855714Y-140470000D01*
X179760476Y-140422381D01*
X178998571Y-140422381D02*
X178760476Y-141422381D01*
X178569999Y-140708095D01*
X178379523Y-141422381D01*
X178141428Y-140422381D01*
X177760476Y-141422381D02*
X177760476Y-140422381D01*
X177189047Y-141422381D01*
X177189047Y-140422381D01*
X170497381Y-133802381D02*
X170973572Y-133802381D01*
X170973572Y-132802381D01*
X170164048Y-133278571D02*
X169830714Y-133278571D01*
X169687857Y-133802381D02*
X170164048Y-133802381D01*
X170164048Y-132802381D01*
X169687857Y-132802381D01*
X168925952Y-133278571D02*
X169259286Y-133278571D01*
X169259286Y-133802381D02*
X169259286Y-132802381D01*
X168783095Y-132802381D01*
X168545000Y-132802381D02*
X167973571Y-132802381D01*
X168259286Y-133802381D02*
X168259286Y-132802381D01*
X190563333Y-133802381D02*
X190896667Y-133326190D01*
X191134762Y-133802381D02*
X191134762Y-132802381D01*
X190753809Y-132802381D01*
X190658571Y-132850000D01*
X190610952Y-132897619D01*
X190563333Y-132992857D01*
X190563333Y-133135714D01*
X190610952Y-133230952D01*
X190658571Y-133278571D01*
X190753809Y-133326190D01*
X191134762Y-133326190D01*
X190134762Y-133802381D02*
X190134762Y-132802381D01*
X189134762Y-132850000D02*
X189230000Y-132802381D01*
X189372857Y-132802381D01*
X189515715Y-132850000D01*
X189610953Y-132945238D01*
X189658572Y-133040476D01*
X189706191Y-133230952D01*
X189706191Y-133373810D01*
X189658572Y-133564286D01*
X189610953Y-133659524D01*
X189515715Y-133754762D01*
X189372857Y-133802381D01*
X189277619Y-133802381D01*
X189134762Y-133754762D01*
X189087143Y-133707143D01*
X189087143Y-133373810D01*
X189277619Y-133373810D01*
X188658572Y-133802381D02*
X188658572Y-132802381D01*
X188658572Y-133278571D02*
X188087143Y-133278571D01*
X188087143Y-133802381D02*
X188087143Y-132802381D01*
X187753810Y-132802381D02*
X187182381Y-132802381D01*
X187468096Y-133802381D02*
X187468096Y-132802381D01*
M02*
