G04 #@! TF.FileFunction,Copper,L1,Top,Signal*
%FSLAX46Y46*%
G04 Gerber Fmt 4.6, Leading zero omitted, Abs format (unit mm)*
G04 Created by KiCad (PCBNEW 4.0.7) date 11/16/19 22:56:08*
%MOMM*%
%LPD*%
G01*
G04 APERTURE LIST*
%ADD10C,0.100000*%
%ADD11R,1.700000X1.700000*%
%ADD12O,1.700000X1.700000*%
%ADD13R,3.500000X3.500000*%
%ADD14C,5.000000*%
%ADD15C,1.600000*%
%ADD16O,1.600000X1.600000*%
%ADD17R,1.600000X1.600000*%
%ADD18R,1.800000X1.800000*%
%ADD19C,1.800000*%
%ADD20C,1.440000*%
%ADD21C,2.000000*%
%ADD22R,2.400000X1.600000*%
%ADD23O,2.400000X1.600000*%
%ADD24R,1.800000X2.600000*%
%ADD25O,1.800000X2.600000*%
%ADD26C,3.000000*%
%ADD27C,0.600000*%
%ADD28C,0.250000*%
G04 APERTURE END LIST*
D10*
D11*
X198120000Y-145415000D03*
D12*
X195580000Y-145415000D03*
X193040000Y-145415000D03*
X190500000Y-145415000D03*
X187960000Y-145415000D03*
X185420000Y-145415000D03*
X182880000Y-145415000D03*
X180340000Y-145415000D03*
X177800000Y-145415000D03*
X175260000Y-145415000D03*
X172720000Y-145415000D03*
X170180000Y-145415000D03*
X167640000Y-145415000D03*
X165100000Y-145415000D03*
X162560000Y-145415000D03*
X160020000Y-145415000D03*
X157480000Y-145415000D03*
X154940000Y-145415000D03*
X152400000Y-145415000D03*
X149860000Y-145415000D03*
X147320000Y-145415000D03*
X144780000Y-145415000D03*
X142240000Y-145415000D03*
X139700000Y-145415000D03*
X137160000Y-145415000D03*
X134620000Y-145415000D03*
X132080000Y-145415000D03*
X129540000Y-145415000D03*
X127000000Y-145415000D03*
X124460000Y-145415000D03*
X121920000Y-145415000D03*
X119380000Y-145415000D03*
X116840000Y-145415000D03*
X114300000Y-145415000D03*
X111760000Y-145415000D03*
X109220000Y-145415000D03*
X106680000Y-145415000D03*
X104140000Y-145415000D03*
X101600000Y-145415000D03*
D13*
X108585000Y-60325000D03*
X102585000Y-60325000D03*
X105585000Y-65025000D03*
D14*
X104140000Y-140335000D03*
X195580000Y-140335000D03*
X195580000Y-52070000D03*
X104140000Y-52070000D03*
D15*
X133350000Y-104140000D03*
X133350000Y-99140000D03*
X179070000Y-86360000D03*
X179070000Y-91360000D03*
X198120000Y-82550000D03*
X193120000Y-82550000D03*
X110490000Y-134620000D03*
X110490000Y-129620000D03*
X163830000Y-56515000D03*
X158830000Y-56515000D03*
X146685000Y-64135000D03*
X151685000Y-64135000D03*
D11*
X110490000Y-121920000D03*
D12*
X110490000Y-124460000D03*
D15*
X154305000Y-77470000D03*
D16*
X144145000Y-77470000D03*
D15*
X154305000Y-74295000D03*
D16*
X144145000Y-74295000D03*
D15*
X154305000Y-71120000D03*
D16*
X144145000Y-71120000D03*
D15*
X168910000Y-77470000D03*
D16*
X179070000Y-77470000D03*
D15*
X168910000Y-64770000D03*
D16*
X179070000Y-64770000D03*
D15*
X168910000Y-67945000D03*
D16*
X179070000Y-67945000D03*
D15*
X115570000Y-55245000D03*
D16*
X125730000Y-55245000D03*
D15*
X115570000Y-58420000D03*
D16*
X125730000Y-58420000D03*
D15*
X115570000Y-61595000D03*
D16*
X125730000Y-61595000D03*
D17*
X132080000Y-60325000D03*
D15*
X139700000Y-60325000D03*
X139700000Y-75565000D03*
X132080000Y-75565000D03*
D18*
X106045000Y-85090000D03*
D19*
X103505000Y-85090000D03*
D18*
X106045000Y-92075000D03*
D19*
X103505000Y-92075000D03*
D18*
X106045000Y-99060000D03*
D19*
X103505000Y-99060000D03*
D18*
X106045000Y-106045000D03*
D19*
X103505000Y-106045000D03*
D18*
X106045000Y-113030000D03*
D19*
X103505000Y-113030000D03*
D18*
X106045000Y-120015000D03*
D19*
X103505000Y-120015000D03*
D18*
X106045000Y-127000000D03*
D19*
X103505000Y-127000000D03*
D18*
X106045000Y-133985000D03*
D19*
X103505000Y-133985000D03*
D11*
X110490000Y-109220000D03*
D12*
X110490000Y-111760000D03*
X110490000Y-114300000D03*
D15*
X154305000Y-67945000D03*
D16*
X144145000Y-67945000D03*
D15*
X168910000Y-71120000D03*
D16*
X179070000Y-71120000D03*
D15*
X168910000Y-74295000D03*
D16*
X179070000Y-74295000D03*
D15*
X115570000Y-64770000D03*
D16*
X125730000Y-64770000D03*
D15*
X115570000Y-67945000D03*
D16*
X125730000Y-67945000D03*
D15*
X115570000Y-71120000D03*
D16*
X125730000Y-71120000D03*
D15*
X115570000Y-74295000D03*
D16*
X125730000Y-74295000D03*
D15*
X115570000Y-77470000D03*
D16*
X125730000Y-77470000D03*
D20*
X195580000Y-58420000D03*
X195580000Y-60960000D03*
X195580000Y-63500000D03*
D21*
X108005000Y-76835000D03*
X103505000Y-76835000D03*
X108005000Y-70335000D03*
X103505000Y-70335000D03*
X175895000Y-135310000D03*
X175895000Y-130810000D03*
X182395000Y-135310000D03*
X182395000Y-130810000D03*
X175895000Y-127690000D03*
X175895000Y-123190000D03*
X182395000Y-127690000D03*
X182395000Y-123190000D03*
X175895000Y-142930000D03*
X175895000Y-138430000D03*
X182395000Y-142930000D03*
X182395000Y-138430000D03*
X166370000Y-135310000D03*
X166370000Y-130810000D03*
X172870000Y-135310000D03*
X172870000Y-130810000D03*
X185420000Y-135310000D03*
X185420000Y-130810000D03*
X191920000Y-135310000D03*
X191920000Y-130810000D03*
D22*
X137160000Y-86360000D03*
D23*
X152400000Y-134620000D03*
X137160000Y-88900000D03*
X152400000Y-132080000D03*
X137160000Y-91440000D03*
X152400000Y-129540000D03*
X137160000Y-93980000D03*
X152400000Y-127000000D03*
X137160000Y-96520000D03*
X152400000Y-124460000D03*
X137160000Y-99060000D03*
X152400000Y-121920000D03*
X137160000Y-101600000D03*
X152400000Y-119380000D03*
X137160000Y-104140000D03*
X152400000Y-116840000D03*
X137160000Y-106680000D03*
X152400000Y-114300000D03*
X137160000Y-109220000D03*
X152400000Y-111760000D03*
X137160000Y-111760000D03*
X152400000Y-109220000D03*
X137160000Y-114300000D03*
X152400000Y-106680000D03*
X137160000Y-116840000D03*
X152400000Y-104140000D03*
X137160000Y-119380000D03*
X152400000Y-101600000D03*
X137160000Y-121920000D03*
X152400000Y-99060000D03*
X137160000Y-124460000D03*
X152400000Y-96520000D03*
X137160000Y-127000000D03*
X152400000Y-93980000D03*
X137160000Y-129540000D03*
X152400000Y-91440000D03*
X137160000Y-132080000D03*
X152400000Y-88900000D03*
X137160000Y-134620000D03*
X152400000Y-86360000D03*
D22*
X160020000Y-86360000D03*
D23*
X175260000Y-119380000D03*
X160020000Y-88900000D03*
X175260000Y-116840000D03*
X160020000Y-91440000D03*
X175260000Y-114300000D03*
X160020000Y-93980000D03*
X175260000Y-111760000D03*
X160020000Y-96520000D03*
X175260000Y-109220000D03*
X160020000Y-99060000D03*
X175260000Y-106680000D03*
X160020000Y-101600000D03*
X175260000Y-104140000D03*
X160020000Y-104140000D03*
X175260000Y-101600000D03*
X160020000Y-106680000D03*
X175260000Y-99060000D03*
X160020000Y-109220000D03*
X175260000Y-96520000D03*
X160020000Y-111760000D03*
X175260000Y-93980000D03*
X160020000Y-114300000D03*
X175260000Y-91440000D03*
X160020000Y-116840000D03*
X175260000Y-88900000D03*
X160020000Y-119380000D03*
X175260000Y-86360000D03*
D22*
X182880000Y-86360000D03*
D23*
X198120000Y-119380000D03*
X182880000Y-88900000D03*
X198120000Y-116840000D03*
X182880000Y-91440000D03*
X198120000Y-114300000D03*
X182880000Y-93980000D03*
X198120000Y-111760000D03*
X182880000Y-96520000D03*
X198120000Y-109220000D03*
X182880000Y-99060000D03*
X198120000Y-106680000D03*
X182880000Y-101600000D03*
X198120000Y-104140000D03*
X182880000Y-104140000D03*
X198120000Y-101600000D03*
X182880000Y-106680000D03*
X198120000Y-99060000D03*
X182880000Y-109220000D03*
X198120000Y-96520000D03*
X182880000Y-111760000D03*
X198120000Y-93980000D03*
X182880000Y-114300000D03*
X198120000Y-91440000D03*
X182880000Y-116840000D03*
X198120000Y-88900000D03*
X182880000Y-119380000D03*
X198120000Y-86360000D03*
D22*
X114300000Y-86360000D03*
D23*
X129540000Y-134620000D03*
X114300000Y-88900000D03*
X129540000Y-132080000D03*
X114300000Y-91440000D03*
X129540000Y-129540000D03*
X114300000Y-93980000D03*
X129540000Y-127000000D03*
X114300000Y-96520000D03*
X129540000Y-124460000D03*
X114300000Y-99060000D03*
X129540000Y-121920000D03*
X114300000Y-101600000D03*
X129540000Y-119380000D03*
X114300000Y-104140000D03*
X129540000Y-116840000D03*
X114300000Y-106680000D03*
X129540000Y-114300000D03*
X114300000Y-109220000D03*
X129540000Y-111760000D03*
X114300000Y-111760000D03*
X129540000Y-109220000D03*
X114300000Y-114300000D03*
X129540000Y-106680000D03*
X114300000Y-116840000D03*
X129540000Y-104140000D03*
X114300000Y-119380000D03*
X129540000Y-101600000D03*
X114300000Y-121920000D03*
X129540000Y-99060000D03*
X114300000Y-124460000D03*
X129540000Y-96520000D03*
X114300000Y-127000000D03*
X129540000Y-93980000D03*
X114300000Y-129540000D03*
X129540000Y-91440000D03*
X114300000Y-132080000D03*
X129540000Y-88900000D03*
X114300000Y-134620000D03*
X129540000Y-86360000D03*
D22*
X157480000Y-60325000D03*
D23*
X165100000Y-75565000D03*
X157480000Y-62865000D03*
X165100000Y-73025000D03*
X157480000Y-65405000D03*
X165100000Y-70485000D03*
X157480000Y-67945000D03*
X165100000Y-67945000D03*
X157480000Y-70485000D03*
X165100000Y-65405000D03*
X157480000Y-73025000D03*
X165100000Y-62865000D03*
X157480000Y-75565000D03*
X165100000Y-60325000D03*
D24*
X119380000Y-50800000D03*
D25*
X121920000Y-50800000D03*
X124460000Y-50800000D03*
X127000000Y-50800000D03*
X129540000Y-50800000D03*
X132080000Y-50800000D03*
X134620000Y-50800000D03*
X137160000Y-50800000D03*
X139700000Y-50800000D03*
X142240000Y-50800000D03*
X144780000Y-50800000D03*
X147320000Y-50800000D03*
X149860000Y-50800000D03*
X152400000Y-50800000D03*
X154940000Y-50800000D03*
X157480000Y-50800000D03*
D26*
X113880900Y-50800000D03*
X113880900Y-81800700D03*
X188879480Y-81800700D03*
X188880000Y-50800000D03*
D11*
X194945000Y-69215000D03*
D12*
X194945000Y-71755000D03*
X194945000Y-74295000D03*
X194945000Y-76835000D03*
D27*
X184785000Y-102235000D03*
X163830000Y-58420000D03*
X127000000Y-105410000D03*
X100965000Y-134620000D03*
X100965000Y-113665000D03*
X100965000Y-67945000D03*
X121920000Y-56515000D03*
X168910000Y-126365000D03*
X167640000Y-76200000D03*
X168275000Y-118745000D03*
X168275000Y-86995000D03*
X168275000Y-82550000D03*
X158750000Y-127000000D03*
X167005000Y-78105000D03*
X167005000Y-81915000D03*
X191135000Y-127000000D03*
X193040000Y-99695000D03*
X193040000Y-121285000D03*
X190500000Y-140970000D03*
X193040000Y-86995000D03*
X140335000Y-99695000D03*
X140335000Y-126365000D03*
X150495000Y-99695000D03*
X161925000Y-100965000D03*
X159385000Y-128905000D03*
X169545000Y-128270000D03*
X189865000Y-133350000D03*
X168910000Y-92075000D03*
X168910000Y-118110000D03*
X189865000Y-127000000D03*
X192405000Y-90170000D03*
X192405000Y-121920000D03*
X189865000Y-141605000D03*
X158750000Y-129540000D03*
X173990000Y-128270000D03*
X189230000Y-132715000D03*
X189230000Y-126365000D03*
X191770000Y-121285000D03*
X191770000Y-89535000D03*
X189230000Y-140970000D03*
X141605000Y-98425000D03*
X188595000Y-141605000D03*
X188595000Y-127000000D03*
X191135000Y-97790000D03*
X191135000Y-121920000D03*
X150495000Y-98425000D03*
X161925000Y-98425000D03*
X187960000Y-140970000D03*
X190500000Y-102870000D03*
X190500000Y-121285000D03*
X187960000Y-126365000D03*
X139700000Y-102235000D03*
X150495000Y-102235000D03*
X161925000Y-103505000D03*
X140970000Y-129540000D03*
X143510000Y-94615000D03*
X172720000Y-93345000D03*
X187325000Y-141605000D03*
X189865000Y-95250000D03*
X189865000Y-121920000D03*
X187325000Y-125730000D03*
X168275000Y-127635000D03*
X158750000Y-128270000D03*
X167640000Y-94615000D03*
X167640000Y-118110000D03*
X164465000Y-127000000D03*
X159385000Y-127635000D03*
X167005000Y-92710000D03*
X167005000Y-118745000D03*
X164465000Y-125730000D03*
X159385000Y-126365000D03*
X166370000Y-118110000D03*
X166370000Y-95250000D03*
X142240000Y-95885000D03*
X165735000Y-97790000D03*
X165735000Y-118745000D03*
X141605000Y-118745000D03*
X140970000Y-97790000D03*
X165100000Y-100330000D03*
X165100000Y-118110000D03*
X140970000Y-116205000D03*
X143510000Y-113665000D03*
X144145000Y-100330000D03*
X164465000Y-102870000D03*
X164465000Y-118745000D03*
X163830000Y-105410000D03*
X163830000Y-118110000D03*
X142875000Y-102870000D03*
X142875000Y-111125000D03*
X128270000Y-102870000D03*
X139065000Y-98425000D03*
X163195000Y-106680000D03*
X163195000Y-118745000D03*
X157480000Y-106045000D03*
X150495000Y-104775000D03*
X139065000Y-104775000D03*
X144145000Y-97155000D03*
X144780000Y-106680000D03*
X162560000Y-109220000D03*
X162560000Y-118110000D03*
X156845000Y-108585000D03*
X150495000Y-107315000D03*
X173990000Y-110490000D03*
X177165000Y-109855000D03*
X146050000Y-86360000D03*
X147955000Y-76835000D03*
X146050000Y-81915000D03*
X146050000Y-97155000D03*
X142875000Y-130175000D03*
X132080000Y-133985000D03*
X144145000Y-143510000D03*
X133350000Y-143510000D03*
X148590000Y-83185000D03*
X148590000Y-75565000D03*
X148590000Y-86995000D03*
X149225000Y-130175000D03*
X148590000Y-99060000D03*
X145415000Y-90805000D03*
X142240000Y-129540000D03*
X145415000Y-100965000D03*
X139065000Y-142875000D03*
X133985000Y-142875000D03*
X147955000Y-78105000D03*
X147955000Y-82550000D03*
X147955000Y-86360000D03*
X147955000Y-89535000D03*
X147955000Y-130175000D03*
X136525000Y-142240000D03*
X147955000Y-101600000D03*
X148590000Y-130810000D03*
X138430000Y-142240000D03*
X173990000Y-113030000D03*
X177165000Y-112395000D03*
X177165000Y-114935000D03*
X173990000Y-115570000D03*
X127000000Y-107315000D03*
X173990000Y-118110000D03*
X177165000Y-117475000D03*
X126365000Y-109855000D03*
X156845000Y-117475000D03*
X125730000Y-112395000D03*
X172720000Y-111125000D03*
X125095000Y-114935000D03*
X124460000Y-117475000D03*
X157480000Y-118110000D03*
X161925000Y-111125000D03*
X123825000Y-120015000D03*
X154305000Y-121285000D03*
X154305000Y-113030000D03*
X123190000Y-122555000D03*
X136525000Y-59690000D03*
X136525000Y-56515000D03*
X119380000Y-68580000D03*
X137160000Y-57150000D03*
X137160000Y-59055000D03*
X120015000Y-71755000D03*
X121285000Y-102235000D03*
X120650000Y-53975000D03*
X137795000Y-56515000D03*
X137795000Y-59690000D03*
X120650000Y-74930000D03*
X120015000Y-54610000D03*
X121285000Y-100965000D03*
X138430000Y-59055000D03*
X138430000Y-57150000D03*
X121285000Y-78105000D03*
X123825000Y-98425000D03*
X125095000Y-79375000D03*
X195580000Y-83820000D03*
X195580000Y-121285000D03*
X135890000Y-59055000D03*
X135890000Y-57150000D03*
X118745000Y-65405000D03*
X126365000Y-80645000D03*
X125095000Y-95885000D03*
X194310000Y-83820000D03*
X194310000Y-121285000D03*
X135255000Y-56515000D03*
X135255000Y-59690000D03*
X118110000Y-62230000D03*
X123190000Y-93345000D03*
X123825000Y-79375000D03*
X196215000Y-121920000D03*
X196215000Y-83185000D03*
X134620000Y-57150000D03*
X133985000Y-59055000D03*
X117475000Y-59055000D03*
X127000000Y-81280000D03*
X125730000Y-90805000D03*
X193675000Y-121920000D03*
X192405000Y-83820000D03*
X116840000Y-55880000D03*
X125730000Y-80010000D03*
X124460000Y-88265000D03*
X194945000Y-121920000D03*
X194945000Y-83185000D03*
X149225000Y-72390000D03*
X149225000Y-76200000D03*
X149225000Y-82550000D03*
X149225000Y-87630000D03*
X149860000Y-130810000D03*
X139065000Y-69215000D03*
X136525000Y-69215000D03*
X112395000Y-69215000D03*
X106045000Y-125095000D03*
X104775000Y-83185000D03*
X104775000Y-87630000D03*
X104775000Y-94615000D03*
X104775000Y-101600000D03*
X104775000Y-111125000D03*
X106680000Y-114935000D03*
X104775000Y-116205000D03*
X107315000Y-111125000D03*
X107315000Y-115570000D03*
X107950000Y-113665000D03*
X104775000Y-123190000D03*
X172720000Y-73025000D03*
X190500000Y-73660000D03*
X149860000Y-85725000D03*
X159385000Y-82550000D03*
X160020000Y-77470000D03*
X150495000Y-126365000D03*
X150495000Y-130175000D03*
X149860000Y-94615000D03*
X121285000Y-109855000D03*
X121285000Y-54610000D03*
X127000000Y-56515000D03*
X166370000Y-85725000D03*
X168910000Y-90805000D03*
X167005000Y-90805000D03*
X166370000Y-82550000D03*
X170180000Y-106045000D03*
X188595000Y-84455000D03*
X189230000Y-106045000D03*
X173990000Y-78740000D03*
X143510000Y-128905000D03*
X146685000Y-86995000D03*
X135255000Y-128905000D03*
X139065000Y-128905000D03*
X159385000Y-78105000D03*
X158750000Y-81915000D03*
X172085000Y-69850000D03*
X191135000Y-70485000D03*
X167005000Y-67310000D03*
D28*
X198120000Y-101600000D02*
X185420000Y-101600000D01*
X185420000Y-101600000D02*
X184785000Y-102235000D01*
X168910000Y-61595000D02*
X167640000Y-60325000D01*
X163830000Y-56515000D02*
X167640000Y-56515000D01*
X197485000Y-59690000D02*
X198120000Y-60325000D01*
X170815000Y-59690000D02*
X197485000Y-59690000D01*
X167640000Y-56515000D02*
X170815000Y-59690000D01*
X168910000Y-67945000D02*
X168910000Y-64770000D01*
X180340000Y-85090000D02*
X197485000Y-85090000D01*
X197485000Y-85090000D02*
X198120000Y-84455000D01*
X123825000Y-105410000D02*
X122555000Y-105410000D01*
X121920000Y-110490000D02*
X119380000Y-113030000D01*
X121920000Y-106045000D02*
X121920000Y-110490000D01*
X122555000Y-105410000D02*
X121920000Y-106045000D01*
X153670000Y-68580000D02*
X153035000Y-69215000D01*
X153035000Y-69215000D02*
X146050000Y-69215000D01*
X153670000Y-68580000D02*
X154305000Y-67945000D01*
X168910000Y-67945000D02*
X168910000Y-71120000D01*
X168910000Y-74295000D02*
X168910000Y-71120000D01*
X198120000Y-69850000D02*
X198120000Y-60325000D01*
X154305000Y-67945000D02*
X154305000Y-59055000D01*
X154305000Y-59055000D02*
X154940000Y-58420000D01*
X154940000Y-58420000D02*
X163830000Y-58420000D01*
X175260000Y-86360000D02*
X179070000Y-86360000D01*
X127000000Y-105410000D02*
X123825000Y-105410000D01*
X111760000Y-113030000D02*
X110490000Y-114300000D01*
X119380000Y-113030000D02*
X111760000Y-113030000D01*
X110490000Y-134620000D02*
X109855000Y-135255000D01*
X101600000Y-135255000D02*
X100965000Y-134620000D01*
X109855000Y-135255000D02*
X101600000Y-135255000D01*
X108585000Y-66675000D02*
X107950000Y-67310000D01*
X108585000Y-60325000D02*
X108585000Y-66675000D01*
X101600000Y-114300000D02*
X110490000Y-114300000D01*
X100965000Y-113665000D02*
X101600000Y-114300000D01*
X101600000Y-67310000D02*
X100965000Y-67945000D01*
X107950000Y-67310000D02*
X101600000Y-67310000D01*
X122555000Y-57150000D02*
X121920000Y-56515000D01*
X128270000Y-58420000D02*
X127635000Y-58420000D01*
X139700000Y-59055000D02*
X139065000Y-58420000D01*
X139065000Y-58420000D02*
X128270000Y-58420000D01*
X139700000Y-60325000D02*
X139700000Y-59055000D01*
X126365000Y-57150000D02*
X122555000Y-57150000D01*
X127635000Y-58420000D02*
X126365000Y-57150000D01*
X198120000Y-86360000D02*
X198120000Y-88900000D01*
X133350000Y-104140000D02*
X137160000Y-104140000D01*
X168910000Y-64770000D02*
X168910000Y-61595000D01*
X167640000Y-60325000D02*
X165100000Y-60325000D01*
X154305000Y-48895000D02*
X163195000Y-48895000D01*
X163830000Y-49530000D02*
X163830000Y-56515000D01*
X163195000Y-48895000D02*
X163830000Y-49530000D01*
X121285000Y-48895000D02*
X154305000Y-48895000D01*
X154305000Y-48895000D02*
X154940000Y-49530000D01*
X154940000Y-49530000D02*
X154940000Y-50800000D01*
X146050000Y-69215000D02*
X144145000Y-71120000D01*
X144145000Y-77470000D02*
X144145000Y-74295000D01*
X108585000Y-60325000D02*
X108585000Y-49530000D01*
X121285000Y-48895000D02*
X112395000Y-48895000D01*
X121285000Y-48895000D02*
X121920000Y-49530000D01*
X109220000Y-48895000D02*
X112395000Y-48895000D01*
X108585000Y-49530000D02*
X109220000Y-48895000D01*
X121920000Y-50800000D02*
X121920000Y-49530000D01*
X198120000Y-82550000D02*
X198120000Y-69850000D01*
X197485000Y-69215000D02*
X194945000Y-69215000D01*
X198120000Y-69850000D02*
X197485000Y-69215000D01*
X179070000Y-86360000D02*
X180340000Y-85090000D01*
X110490000Y-134620000D02*
X114300000Y-134620000D01*
X198120000Y-86360000D02*
X198120000Y-85090000D01*
X198120000Y-85090000D02*
X198120000Y-84455000D01*
X198120000Y-84455000D02*
X198120000Y-82550000D01*
X166370000Y-65405000D02*
X167640000Y-66675000D01*
X167640000Y-66675000D02*
X167640000Y-76200000D01*
X168275000Y-123825000D02*
X168275000Y-118745000D01*
X168910000Y-124460000D02*
X168275000Y-123825000D01*
X168910000Y-124460000D02*
X168910000Y-126365000D01*
X168275000Y-82550000D02*
X168275000Y-86995000D01*
X165100000Y-65405000D02*
X166370000Y-65405000D01*
X168910000Y-126365000D02*
X168910000Y-127000000D01*
X152400000Y-124460000D02*
X154305000Y-124460000D01*
X154305000Y-124460000D02*
X154940000Y-125095000D01*
X154940000Y-125095000D02*
X154940000Y-126365000D01*
X154940000Y-126365000D02*
X155575000Y-127000000D01*
X155575000Y-127000000D02*
X158750000Y-127000000D01*
X170180000Y-133350000D02*
X169545000Y-133350000D01*
X169545000Y-133350000D02*
X168910000Y-132715000D01*
X168910000Y-127635000D02*
X168910000Y-127000000D01*
X168910000Y-132715000D02*
X168910000Y-127635000D01*
X178435000Y-139065000D02*
X178435000Y-133985000D01*
X184150000Y-140970000D02*
X181610000Y-140970000D01*
X181610000Y-140970000D02*
X180340000Y-139700000D01*
X180340000Y-139700000D02*
X179070000Y-139700000D01*
X192405000Y-141605000D02*
X191135000Y-140335000D01*
X198120000Y-144145000D02*
X197485000Y-143510000D01*
X197485000Y-143510000D02*
X194310000Y-143510000D01*
X194310000Y-143510000D02*
X192405000Y-141605000D01*
X198120000Y-145415000D02*
X198120000Y-144145000D01*
X191135000Y-140335000D02*
X184785000Y-140335000D01*
X184785000Y-140335000D02*
X184150000Y-140970000D01*
X179070000Y-139700000D02*
X178435000Y-139065000D01*
X177800000Y-133350000D02*
X170180000Y-133350000D01*
X178435000Y-133985000D02*
X177800000Y-133350000D01*
X167005000Y-86995000D02*
X167640000Y-87630000D01*
X160020000Y-86360000D02*
X166370000Y-86360000D01*
X166370000Y-86360000D02*
X167005000Y-86995000D01*
X157480000Y-70485000D02*
X162560000Y-70485000D01*
X162560000Y-70485000D02*
X163830000Y-69215000D01*
X163830000Y-69215000D02*
X166370000Y-69215000D01*
X166370000Y-69215000D02*
X167005000Y-69850000D01*
X167005000Y-69850000D02*
X167005000Y-78105000D01*
X167005000Y-81915000D02*
X167005000Y-86995000D01*
X193040000Y-126365000D02*
X193040000Y-125730000D01*
X192405000Y-127000000D02*
X193040000Y-126365000D01*
X191135000Y-127000000D02*
X192405000Y-127000000D01*
X184150000Y-100330000D02*
X192405000Y-100330000D01*
X192405000Y-100330000D02*
X193040000Y-99695000D01*
X193040000Y-125730000D02*
X193040000Y-121285000D01*
X190500000Y-140970000D02*
X191770000Y-142240000D01*
X193675000Y-144145000D02*
X191770000Y-142240000D01*
X194945000Y-144145000D02*
X193675000Y-144145000D01*
X195580000Y-144780000D02*
X194945000Y-144145000D01*
X192405000Y-86360000D02*
X182880000Y-86360000D01*
X193040000Y-86995000D02*
X192405000Y-86360000D01*
X195580000Y-145415000D02*
X195580000Y-144780000D01*
X140335000Y-99695000D02*
X140970000Y-99695000D01*
X140970000Y-127000000D02*
X140335000Y-126365000D01*
X175260000Y-101600000D02*
X162560000Y-101600000D01*
X150495000Y-99695000D02*
X140970000Y-99695000D01*
X162560000Y-101600000D02*
X161925000Y-100965000D01*
X140970000Y-127000000D02*
X152400000Y-127000000D01*
X167640000Y-87630000D02*
X177165000Y-87630000D01*
X181610000Y-86360000D02*
X182880000Y-86360000D01*
X180340000Y-87630000D02*
X181610000Y-86360000D01*
X177165000Y-87630000D02*
X180340000Y-87630000D01*
X175260000Y-101600000D02*
X180340000Y-101600000D01*
X180340000Y-101600000D02*
X181610000Y-100330000D01*
X181610000Y-100330000D02*
X184150000Y-100330000D01*
X142240000Y-128270000D02*
X149860000Y-128270000D01*
X149860000Y-128270000D02*
X151130000Y-129540000D01*
X153670000Y-129540000D02*
X152400000Y-129540000D01*
X154305000Y-128905000D02*
X153670000Y-129540000D01*
X159385000Y-128905000D02*
X154305000Y-128905000D01*
X152400000Y-129540000D02*
X151130000Y-129540000D01*
X129540000Y-127000000D02*
X130810000Y-128270000D01*
X130810000Y-128270000D02*
X142240000Y-128270000D01*
X178435000Y-132715000D02*
X179070000Y-133350000D01*
X179070000Y-133350000D02*
X189865000Y-133350000D01*
X170180000Y-132715000D02*
X169545000Y-132080000D01*
X168910000Y-92075000D02*
X169545000Y-91440000D01*
X168910000Y-123190000D02*
X168910000Y-118110000D01*
X169545000Y-123825000D02*
X168910000Y-123190000D01*
X169545000Y-132080000D02*
X169545000Y-128270000D01*
X169545000Y-128270000D02*
X169545000Y-123825000D01*
X169545000Y-91440000D02*
X175260000Y-91440000D01*
X178435000Y-132715000D02*
X170180000Y-132715000D01*
X189865000Y-127000000D02*
X190500000Y-126365000D01*
X192405000Y-125730000D02*
X192405000Y-121920000D01*
X191770000Y-126365000D02*
X192405000Y-125730000D01*
X190500000Y-126365000D02*
X191770000Y-126365000D01*
X191135000Y-142875000D02*
X189865000Y-141605000D01*
X191135000Y-142875000D02*
X193040000Y-144780000D01*
X193040000Y-145415000D02*
X193040000Y-144780000D01*
X151765000Y-129540000D02*
X152400000Y-129540000D01*
X175260000Y-91440000D02*
X177165000Y-91440000D01*
X177165000Y-91440000D02*
X178435000Y-90170000D01*
X178435000Y-90170000D02*
X192405000Y-90170000D01*
X196850000Y-90170000D02*
X198120000Y-91440000D01*
X192405000Y-90170000D02*
X196850000Y-90170000D01*
X154940000Y-129540000D02*
X154305000Y-130175000D01*
X158750000Y-129540000D02*
X154940000Y-129540000D01*
X178435000Y-125730000D02*
X174625000Y-125730000D01*
X174625000Y-125730000D02*
X173990000Y-126365000D01*
X173990000Y-126365000D02*
X173990000Y-128270000D01*
X179070000Y-126365000D02*
X178435000Y-125730000D01*
X179705000Y-132715000D02*
X179070000Y-132080000D01*
X179070000Y-132080000D02*
X179070000Y-126365000D01*
X189230000Y-132715000D02*
X180340000Y-132715000D01*
X180340000Y-132715000D02*
X179705000Y-132715000D01*
X153670000Y-132080000D02*
X152400000Y-132080000D01*
X154305000Y-131445000D02*
X153670000Y-132080000D01*
X154305000Y-130175000D02*
X154305000Y-131445000D01*
X189230000Y-126365000D02*
X189865000Y-125730000D01*
X189865000Y-125730000D02*
X191135000Y-125730000D01*
X191135000Y-125730000D02*
X191770000Y-125095000D01*
X191770000Y-125095000D02*
X191770000Y-121285000D01*
X191770000Y-89535000D02*
X191135000Y-88900000D01*
X182880000Y-88900000D02*
X191135000Y-88900000D01*
X189865000Y-142875000D02*
X189230000Y-142240000D01*
X190500000Y-143510000D02*
X189865000Y-142875000D01*
X190500000Y-143510000D02*
X190500000Y-145415000D01*
X189230000Y-142240000D02*
X189230000Y-140970000D01*
X182880000Y-88900000D02*
X178435000Y-88900000D01*
X161290000Y-90170000D02*
X160020000Y-88900000D01*
X177165000Y-90170000D02*
X161290000Y-90170000D01*
X178435000Y-88900000D02*
X177165000Y-90170000D01*
X142240000Y-98425000D02*
X141605000Y-98425000D01*
X188595000Y-127000000D02*
X188595000Y-125730000D01*
X187960000Y-144780000D02*
X188595000Y-144145000D01*
X188595000Y-144145000D02*
X188595000Y-141605000D01*
X191135000Y-124460000D02*
X191135000Y-121920000D01*
X190500000Y-125095000D02*
X191135000Y-124460000D01*
X189230000Y-125095000D02*
X190500000Y-125095000D01*
X188595000Y-125730000D02*
X189230000Y-125095000D01*
X187960000Y-145415000D02*
X187960000Y-144780000D01*
X150495000Y-98425000D02*
X142240000Y-98425000D01*
X175260000Y-99060000D02*
X162560000Y-99060000D01*
X162560000Y-99060000D02*
X161925000Y-98425000D01*
X184150000Y-97790000D02*
X181610000Y-97790000D01*
X181610000Y-97790000D02*
X180340000Y-99060000D01*
X180340000Y-99060000D02*
X175260000Y-99060000D01*
X191135000Y-97790000D02*
X184150000Y-97790000D01*
X196850000Y-97790000D02*
X191135000Y-97790000D01*
X198120000Y-99060000D02*
X196850000Y-97790000D01*
X187960000Y-143510000D02*
X187960000Y-140970000D01*
X187325000Y-144145000D02*
X187960000Y-143510000D01*
X186055000Y-144145000D02*
X187325000Y-144145000D01*
X185420000Y-144780000D02*
X186055000Y-144145000D01*
X190500000Y-123825000D02*
X190500000Y-121285000D01*
X189865000Y-124460000D02*
X190500000Y-123825000D01*
X188595000Y-124460000D02*
X189865000Y-124460000D01*
X187960000Y-125095000D02*
X188595000Y-124460000D01*
X187960000Y-126365000D02*
X187960000Y-125095000D01*
X185420000Y-145415000D02*
X185420000Y-144780000D01*
X150495000Y-102235000D02*
X139700000Y-102235000D01*
X175260000Y-104140000D02*
X162560000Y-104140000D01*
X162560000Y-104140000D02*
X161925000Y-103505000D01*
X175260000Y-104140000D02*
X180340000Y-104140000D01*
X181610000Y-102870000D02*
X190500000Y-102870000D01*
X180340000Y-104140000D02*
X181610000Y-102870000D01*
X196850000Y-102870000D02*
X198120000Y-104140000D01*
X190500000Y-102870000D02*
X196850000Y-102870000D01*
X158115000Y-92710000D02*
X165735000Y-92710000D01*
X143510000Y-93345000D02*
X144145000Y-92710000D01*
X144145000Y-92710000D02*
X158115000Y-92710000D01*
X137160000Y-129540000D02*
X140970000Y-129540000D01*
X143510000Y-94615000D02*
X143510000Y-93345000D01*
X166370000Y-93345000D02*
X172720000Y-93345000D01*
X165735000Y-92710000D02*
X166370000Y-93345000D01*
X184150000Y-144145000D02*
X184785000Y-143510000D01*
X182880000Y-145415000D02*
X184150000Y-144145000D01*
X187325000Y-142875000D02*
X187325000Y-141605000D01*
X186690000Y-143510000D02*
X187325000Y-142875000D01*
X184785000Y-143510000D02*
X186690000Y-143510000D01*
X189865000Y-123190000D02*
X189865000Y-121920000D01*
X189230000Y-123825000D02*
X189865000Y-123190000D01*
X187960000Y-123825000D02*
X189230000Y-123825000D01*
X187325000Y-124460000D02*
X187960000Y-123825000D01*
X187325000Y-125730000D02*
X187325000Y-124460000D01*
X181610000Y-95250000D02*
X180340000Y-96520000D01*
X180340000Y-96520000D02*
X179705000Y-96520000D01*
X184150000Y-95250000D02*
X181610000Y-95250000D01*
X196850000Y-95250000D02*
X189865000Y-95250000D01*
X189865000Y-95250000D02*
X184150000Y-95250000D01*
X198120000Y-96520000D02*
X196850000Y-95250000D01*
X179705000Y-96520000D02*
X175260000Y-96520000D01*
X150495000Y-127635000D02*
X151130000Y-128270000D01*
X151130000Y-128270000D02*
X158750000Y-128270000D01*
X137160000Y-127000000D02*
X139065000Y-127000000D01*
X139700000Y-127635000D02*
X147320000Y-127635000D01*
X139065000Y-127000000D02*
X139700000Y-127635000D01*
X147320000Y-127635000D02*
X150495000Y-127635000D01*
X168275000Y-131445000D02*
X168275000Y-127635000D01*
X168275000Y-127635000D02*
X168275000Y-125095000D01*
X180340000Y-141605000D02*
X180340000Y-140970000D01*
X180340000Y-145415000D02*
X180340000Y-141605000D01*
X174625000Y-139700000D02*
X168910000Y-139700000D01*
X175260000Y-140335000D02*
X174625000Y-139700000D01*
X179705000Y-140335000D02*
X175260000Y-140335000D01*
X180340000Y-140970000D02*
X179705000Y-140335000D01*
X168275000Y-139065000D02*
X168275000Y-131445000D01*
X168910000Y-139700000D02*
X168275000Y-139065000D01*
X168275000Y-93980000D02*
X175260000Y-93980000D01*
X167640000Y-94615000D02*
X168275000Y-93980000D01*
X167640000Y-124460000D02*
X167640000Y-118110000D01*
X168275000Y-125095000D02*
X167640000Y-124460000D01*
X181610000Y-92710000D02*
X196850000Y-92710000D01*
X175260000Y-93980000D02*
X179705000Y-93980000D01*
X180340000Y-93980000D02*
X181610000Y-92710000D01*
X179705000Y-93980000D02*
X180340000Y-93980000D01*
X196850000Y-92710000D02*
X198120000Y-93980000D01*
X149225000Y-124460000D02*
X149860000Y-124460000D01*
X149860000Y-124460000D02*
X151130000Y-125730000D01*
X160020000Y-91440000D02*
X165735000Y-91440000D01*
X165735000Y-91440000D02*
X167005000Y-92710000D01*
X153035000Y-125730000D02*
X153670000Y-125730000D01*
X151130000Y-125730000D02*
X153035000Y-125730000D01*
X137160000Y-124460000D02*
X149225000Y-124460000D01*
X154940000Y-127635000D02*
X159385000Y-127635000D01*
X154305000Y-127000000D02*
X154940000Y-127635000D01*
X154305000Y-126365000D02*
X154305000Y-127000000D01*
X153670000Y-125730000D02*
X154305000Y-126365000D01*
X167005000Y-122555000D02*
X167005000Y-118745000D01*
X164465000Y-127000000D02*
X167005000Y-124460000D01*
X167005000Y-124460000D02*
X167005000Y-122555000D01*
X164465000Y-127635000D02*
X164465000Y-127000000D01*
X177800000Y-141605000D02*
X177165000Y-140970000D01*
X177800000Y-145415000D02*
X177800000Y-141605000D01*
X165100000Y-140335000D02*
X164465000Y-139700000D01*
X173990000Y-140335000D02*
X165100000Y-140335000D01*
X174625000Y-140970000D02*
X173990000Y-140335000D01*
X177165000Y-140970000D02*
X174625000Y-140970000D01*
X164465000Y-139700000D02*
X164465000Y-127635000D01*
X182880000Y-91440000D02*
X181610000Y-91440000D01*
X181610000Y-91440000D02*
X180340000Y-92710000D01*
X167005000Y-92710000D02*
X180340000Y-92710000D01*
X155575000Y-125730000D02*
X156210000Y-126365000D01*
X159385000Y-126365000D02*
X156210000Y-126365000D01*
X154940000Y-120650000D02*
X155575000Y-121285000D01*
X155575000Y-121285000D02*
X155575000Y-125730000D01*
X137160000Y-121920000D02*
X149860000Y-121920000D01*
X151130000Y-120650000D02*
X154940000Y-120650000D01*
X149860000Y-121920000D02*
X151130000Y-120650000D01*
X166370000Y-123825000D02*
X166370000Y-118110000D01*
X164465000Y-125730000D02*
X166370000Y-123825000D01*
X163830000Y-126365000D02*
X164465000Y-125730000D01*
X163830000Y-127000000D02*
X163830000Y-126365000D01*
X173990000Y-141605000D02*
X173355000Y-140970000D01*
X173990000Y-142875000D02*
X173990000Y-141605000D01*
X173990000Y-144145000D02*
X173990000Y-142875000D01*
X175260000Y-145415000D02*
X173990000Y-144145000D01*
X163830000Y-140335000D02*
X163830000Y-127000000D01*
X164465000Y-140970000D02*
X163830000Y-140335000D01*
X173355000Y-140970000D02*
X164465000Y-140970000D01*
X176530000Y-95250000D02*
X180340000Y-95250000D01*
X180340000Y-95250000D02*
X181610000Y-93980000D01*
X182880000Y-93980000D02*
X181610000Y-93980000D01*
X160020000Y-93980000D02*
X161290000Y-95250000D01*
X161290000Y-95250000D02*
X166370000Y-95250000D01*
X166370000Y-95250000D02*
X176530000Y-95250000D01*
X165735000Y-121285000D02*
X165735000Y-118745000D01*
X172085000Y-141605000D02*
X163830000Y-141605000D01*
X163830000Y-141605000D02*
X163195000Y-140970000D01*
X163195000Y-140970000D02*
X163195000Y-125730000D01*
X163195000Y-125730000D02*
X165735000Y-123190000D01*
X165735000Y-123190000D02*
X165735000Y-121285000D01*
X172720000Y-145415000D02*
X172720000Y-142240000D01*
X172720000Y-142240000D02*
X172085000Y-141605000D01*
X150495000Y-95250000D02*
X142875000Y-95250000D01*
X158750000Y-95250000D02*
X150495000Y-95250000D01*
X160020000Y-96520000D02*
X158750000Y-95250000D01*
X140970000Y-119380000D02*
X137160000Y-119380000D01*
X141605000Y-118745000D02*
X140970000Y-119380000D01*
X142875000Y-95250000D02*
X142240000Y-95885000D01*
X179705000Y-97790000D02*
X180340000Y-97790000D01*
X180340000Y-97790000D02*
X181610000Y-96520000D01*
X176530000Y-97790000D02*
X179705000Y-97790000D01*
X182880000Y-96520000D02*
X181610000Y-96520000D01*
X160020000Y-96520000D02*
X161290000Y-97790000D01*
X161290000Y-97790000D02*
X165735000Y-97790000D01*
X165735000Y-97790000D02*
X176530000Y-97790000D01*
X141605000Y-97790000D02*
X140970000Y-97790000D01*
X170180000Y-145415000D02*
X170180000Y-142875000D01*
X165100000Y-122555000D02*
X165100000Y-118110000D01*
X162560000Y-125095000D02*
X165100000Y-122555000D01*
X162560000Y-141605000D02*
X162560000Y-125095000D01*
X163195000Y-142240000D02*
X162560000Y-141605000D01*
X169545000Y-142240000D02*
X163195000Y-142240000D01*
X170180000Y-142875000D02*
X169545000Y-142240000D01*
X160020000Y-99060000D02*
X158750000Y-97790000D01*
X158750000Y-97790000D02*
X150495000Y-97790000D01*
X141605000Y-97790000D02*
X150495000Y-97790000D01*
X140335000Y-116840000D02*
X137160000Y-116840000D01*
X140970000Y-116205000D02*
X140335000Y-116840000D01*
X182880000Y-99060000D02*
X181610000Y-99060000D01*
X181610000Y-99060000D02*
X180340000Y-100330000D01*
X182880000Y-99060000D02*
X182245000Y-99060000D01*
X160020000Y-99060000D02*
X161290000Y-100330000D01*
X161290000Y-100330000D02*
X165100000Y-100330000D01*
X165100000Y-100330000D02*
X180340000Y-100330000D01*
X142875000Y-114300000D02*
X143510000Y-113665000D01*
X142875000Y-114300000D02*
X137160000Y-114300000D01*
X167640000Y-145415000D02*
X167640000Y-143510000D01*
X164465000Y-121920000D02*
X164465000Y-118745000D01*
X161925000Y-124460000D02*
X164465000Y-121920000D01*
X161925000Y-142240000D02*
X161925000Y-124460000D01*
X162560000Y-142875000D02*
X161925000Y-142240000D01*
X167005000Y-142875000D02*
X162560000Y-142875000D01*
X167640000Y-143510000D02*
X167005000Y-142875000D01*
X129540000Y-99060000D02*
X130810000Y-100330000D01*
X158750000Y-100330000D02*
X160020000Y-101600000D01*
X130810000Y-100330000D02*
X144145000Y-100330000D01*
X144145000Y-100330000D02*
X158750000Y-100330000D01*
X176530000Y-102870000D02*
X180340000Y-102870000D01*
X180340000Y-102870000D02*
X181610000Y-101600000D01*
X182880000Y-101600000D02*
X181610000Y-101600000D01*
X160020000Y-101600000D02*
X161290000Y-102870000D01*
X161290000Y-102870000D02*
X164465000Y-102870000D01*
X164465000Y-102870000D02*
X176530000Y-102870000D01*
X129540000Y-96520000D02*
X130175000Y-96520000D01*
X165100000Y-145415000D02*
X165100000Y-144145000D01*
X163830000Y-121285000D02*
X163830000Y-118110000D01*
X161290000Y-123825000D02*
X163830000Y-121285000D01*
X161290000Y-142875000D02*
X161290000Y-123825000D01*
X161925000Y-143510000D02*
X161290000Y-142875000D01*
X164465000Y-143510000D02*
X161925000Y-143510000D01*
X165100000Y-144145000D02*
X164465000Y-143510000D01*
X142240000Y-111760000D02*
X137160000Y-111760000D01*
X142875000Y-111125000D02*
X142240000Y-111760000D01*
X160020000Y-104140000D02*
X158750000Y-102870000D01*
X158750000Y-102870000D02*
X142875000Y-102870000D01*
X142875000Y-102870000D02*
X128270000Y-102870000D01*
X160020000Y-104140000D02*
X161290000Y-105410000D01*
X181610000Y-105410000D02*
X182880000Y-104140000D01*
X161290000Y-105410000D02*
X163830000Y-105410000D01*
X163830000Y-105410000D02*
X181610000Y-105410000D01*
X130810000Y-93980000D02*
X129540000Y-93980000D01*
X131445000Y-94615000D02*
X130810000Y-93980000D01*
X131445000Y-97155000D02*
X131445000Y-94615000D01*
X132080000Y-97790000D02*
X131445000Y-97155000D01*
X138430000Y-97790000D02*
X132080000Y-97790000D01*
X139065000Y-98425000D02*
X138430000Y-97790000D01*
X160655000Y-123190000D02*
X160655000Y-143510000D01*
X163195000Y-120650000D02*
X160655000Y-123190000D01*
X163195000Y-118745000D02*
X163195000Y-120650000D01*
X161925000Y-144145000D02*
X162560000Y-144780000D01*
X161290000Y-144145000D02*
X161925000Y-144145000D01*
X160655000Y-143510000D02*
X161290000Y-144145000D01*
X162560000Y-144780000D02*
X162560000Y-145415000D01*
X160020000Y-106680000D02*
X158115000Y-106680000D01*
X158115000Y-106680000D02*
X157480000Y-106045000D01*
X160020000Y-106680000D02*
X163195000Y-106680000D01*
X163195000Y-106680000D02*
X172085000Y-106680000D01*
X172085000Y-106680000D02*
X173355000Y-107950000D01*
X150495000Y-104775000D02*
X149860000Y-104140000D01*
X149860000Y-104140000D02*
X139700000Y-104140000D01*
X139700000Y-104140000D02*
X139065000Y-104775000D01*
X181610000Y-107950000D02*
X182880000Y-106680000D01*
X173355000Y-107950000D02*
X181610000Y-107950000D01*
X139065000Y-95250000D02*
X139700000Y-95885000D01*
X139700000Y-95885000D02*
X139700000Y-96520000D01*
X139700000Y-96520000D02*
X140335000Y-97155000D01*
X140335000Y-97155000D02*
X144145000Y-97155000D01*
X129540000Y-91440000D02*
X131445000Y-91440000D01*
X132715000Y-95250000D02*
X138430000Y-95250000D01*
X132080000Y-94615000D02*
X132715000Y-95250000D01*
X132080000Y-92075000D02*
X132080000Y-94615000D01*
X131445000Y-91440000D02*
X132080000Y-92075000D01*
X138430000Y-95250000D02*
X139065000Y-95250000D01*
X160020000Y-122555000D02*
X162560000Y-120015000D01*
X162560000Y-120015000D02*
X162560000Y-118110000D01*
X160020000Y-145415000D02*
X160020000Y-122555000D01*
X160020000Y-109220000D02*
X157480000Y-109220000D01*
X157480000Y-109220000D02*
X156845000Y-108585000D01*
X160020000Y-109220000D02*
X162560000Y-109220000D01*
X162560000Y-109220000D02*
X172085000Y-109220000D01*
X172085000Y-109220000D02*
X173355000Y-110490000D01*
X137160000Y-106680000D02*
X144780000Y-106680000D01*
X144780000Y-106680000D02*
X149860000Y-106680000D01*
X149860000Y-106680000D02*
X150495000Y-107315000D01*
X173355000Y-110490000D02*
X173990000Y-110490000D01*
X177800000Y-109220000D02*
X182880000Y-109220000D01*
X177165000Y-109855000D02*
X177800000Y-109220000D01*
X146050000Y-86360000D02*
X146050000Y-81915000D01*
X152400000Y-76835000D02*
X154305000Y-74930000D01*
X147955000Y-76835000D02*
X152400000Y-76835000D01*
X154305000Y-74930000D02*
X154305000Y-74295000D01*
X141605000Y-133350000D02*
X142240000Y-133350000D01*
X145415000Y-96520000D02*
X144780000Y-96520000D01*
X146050000Y-97155000D02*
X145415000Y-96520000D01*
X142875000Y-132715000D02*
X142875000Y-130175000D01*
X142240000Y-133350000D02*
X142875000Y-132715000D01*
X132080000Y-133985000D02*
X132715000Y-133350000D01*
X132715000Y-133350000D02*
X141605000Y-133350000D01*
X137160000Y-93980000D02*
X139700000Y-93980000D01*
X140970000Y-96520000D02*
X144780000Y-96520000D01*
X140335000Y-95885000D02*
X140970000Y-96520000D01*
X140335000Y-94615000D02*
X140335000Y-95885000D01*
X139700000Y-93980000D02*
X140335000Y-94615000D01*
X129540000Y-134620000D02*
X129540000Y-137795000D01*
X144780000Y-144145000D02*
X144780000Y-145415000D01*
X144145000Y-143510000D02*
X144780000Y-144145000D01*
X132715000Y-142875000D02*
X133350000Y-143510000D01*
X132715000Y-139065000D02*
X132715000Y-142875000D01*
X132080000Y-138430000D02*
X132715000Y-139065000D01*
X130175000Y-138430000D02*
X132080000Y-138430000D01*
X129540000Y-137795000D02*
X130175000Y-138430000D01*
X148590000Y-71755000D02*
X149225000Y-71120000D01*
X154305000Y-71120000D02*
X149225000Y-71120000D01*
X148590000Y-75565000D02*
X148590000Y-71755000D01*
X148590000Y-84455000D02*
X148590000Y-86995000D01*
X148590000Y-84455000D02*
X148590000Y-83185000D01*
X137160000Y-99060000D02*
X148590000Y-99060000D01*
X142240000Y-143510000D02*
X142240000Y-145415000D01*
X142875000Y-142875000D02*
X142240000Y-143510000D01*
X148590000Y-142875000D02*
X142875000Y-142875000D01*
X149225000Y-142240000D02*
X148590000Y-142875000D01*
X149225000Y-130175000D02*
X149225000Y-142240000D01*
X151130000Y-90170000D02*
X146050000Y-90170000D01*
X146050000Y-90170000D02*
X145415000Y-90805000D01*
X151130000Y-90170000D02*
X155575000Y-90170000D01*
X162560000Y-88900000D02*
X161290000Y-87630000D01*
X161290000Y-87630000D02*
X158115000Y-87630000D01*
X175260000Y-88900000D02*
X162560000Y-88900000D01*
X155575000Y-90170000D02*
X158115000Y-87630000D01*
X141605000Y-130175000D02*
X142240000Y-129540000D01*
X131445000Y-131445000D02*
X132080000Y-130810000D01*
X132080000Y-130810000D02*
X140970000Y-130810000D01*
X140970000Y-130810000D02*
X141605000Y-130175000D01*
X131445000Y-132715000D02*
X131445000Y-131445000D01*
X151130000Y-101600000D02*
X152400000Y-101600000D01*
X150495000Y-100965000D02*
X151130000Y-101600000D01*
X145415000Y-100965000D02*
X150495000Y-100965000D01*
X129540000Y-132080000D02*
X130810000Y-132080000D01*
X139700000Y-143510000D02*
X139700000Y-145415000D01*
X139065000Y-142875000D02*
X139700000Y-143510000D01*
X133350000Y-142240000D02*
X133985000Y-142875000D01*
X133350000Y-138430000D02*
X133350000Y-142240000D01*
X131445000Y-136525000D02*
X133350000Y-138430000D01*
X131445000Y-132715000D02*
X131445000Y-136525000D01*
X130810000Y-132080000D02*
X131445000Y-132715000D01*
X147955000Y-83820000D02*
X147955000Y-82550000D01*
X148590000Y-77470000D02*
X149225000Y-77470000D01*
X147955000Y-78105000D02*
X148590000Y-77470000D01*
X147955000Y-86360000D02*
X147955000Y-83820000D01*
X149225000Y-77470000D02*
X154305000Y-77470000D01*
X147955000Y-89535000D02*
X147320000Y-88900000D01*
X146050000Y-141605000D02*
X147320000Y-141605000D01*
X137160000Y-142240000D02*
X137795000Y-141605000D01*
X137795000Y-141605000D02*
X146050000Y-141605000D01*
X137160000Y-145415000D02*
X137160000Y-142875000D01*
X137160000Y-142875000D02*
X137160000Y-142240000D01*
X147320000Y-88900000D02*
X137160000Y-88900000D01*
X147955000Y-140970000D02*
X147955000Y-130175000D01*
X147320000Y-141605000D02*
X147955000Y-140970000D01*
X136525000Y-142240000D02*
X135255000Y-142240000D01*
X148590000Y-130810000D02*
X148590000Y-141605000D01*
X148590000Y-141605000D02*
X147955000Y-142240000D01*
X147955000Y-142240000D02*
X138430000Y-142240000D01*
X134620000Y-145415000D02*
X134620000Y-142875000D01*
X135255000Y-142240000D02*
X134620000Y-142875000D01*
X147955000Y-101600000D02*
X137160000Y-101600000D01*
X173990000Y-113030000D02*
X162560000Y-113030000D01*
X162560000Y-113030000D02*
X161290000Y-111760000D01*
X160020000Y-111760000D02*
X161290000Y-111760000D01*
X177165000Y-112395000D02*
X177800000Y-111760000D01*
X177800000Y-111760000D02*
X182880000Y-111760000D01*
X127635000Y-104775000D02*
X127635000Y-138430000D01*
X128270000Y-104140000D02*
X127635000Y-104775000D01*
X128905000Y-104140000D02*
X128270000Y-104140000D01*
X132080000Y-139700000D02*
X132080000Y-145415000D01*
X131445000Y-139065000D02*
X132080000Y-139700000D01*
X128270000Y-139065000D02*
X131445000Y-139065000D01*
X127635000Y-138430000D02*
X128270000Y-139065000D01*
X129540000Y-104140000D02*
X128905000Y-104140000D01*
X129540000Y-104140000D02*
X130810000Y-105410000D01*
X151130000Y-105410000D02*
X152400000Y-104140000D01*
X130810000Y-105410000D02*
X151130000Y-105410000D01*
X160020000Y-114300000D02*
X161290000Y-114300000D01*
X161290000Y-114300000D02*
X162560000Y-115570000D01*
X173355000Y-115570000D02*
X162560000Y-115570000D01*
X177800000Y-114300000D02*
X182880000Y-114300000D01*
X177165000Y-114935000D02*
X177800000Y-114300000D01*
X173355000Y-115570000D02*
X173990000Y-115570000D01*
X129540000Y-145415000D02*
X129540000Y-140335000D01*
X127000000Y-139065000D02*
X127000000Y-107315000D01*
X127635000Y-139700000D02*
X127000000Y-139065000D01*
X128905000Y-139700000D02*
X127635000Y-139700000D01*
X129540000Y-140335000D02*
X128905000Y-139700000D01*
X129540000Y-106680000D02*
X130810000Y-107950000D01*
X151130000Y-107950000D02*
X152400000Y-106680000D01*
X130810000Y-107950000D02*
X151130000Y-107950000D01*
X160020000Y-116840000D02*
X172085000Y-116840000D01*
X173355000Y-118110000D02*
X173990000Y-118110000D01*
X177165000Y-117475000D02*
X177800000Y-116840000D01*
X177800000Y-116840000D02*
X182880000Y-116840000D01*
X172085000Y-116840000D02*
X173355000Y-118110000D01*
X127000000Y-140335000D02*
X127000000Y-145415000D01*
X126365000Y-139700000D02*
X127000000Y-140335000D01*
X126365000Y-109855000D02*
X126365000Y-139700000D01*
X129540000Y-109220000D02*
X130810000Y-110490000D01*
X151130000Y-110490000D02*
X152400000Y-109220000D01*
X130810000Y-110490000D02*
X151130000Y-110490000D01*
X156845000Y-117475000D02*
X158115000Y-117475000D01*
X158115000Y-117475000D02*
X158750000Y-118110000D01*
X161290000Y-118110000D02*
X161925000Y-117475000D01*
X171450000Y-117475000D02*
X172085000Y-118110000D01*
X161925000Y-117475000D02*
X171450000Y-117475000D01*
X173355000Y-119380000D02*
X175260000Y-119380000D01*
X172085000Y-118110000D02*
X173355000Y-119380000D01*
X158750000Y-118110000D02*
X161290000Y-118110000D01*
X124460000Y-140970000D02*
X124460000Y-140335000D01*
X124460000Y-140335000D02*
X125730000Y-139065000D01*
X124460000Y-145415000D02*
X124460000Y-140970000D01*
X125730000Y-139065000D02*
X125730000Y-112395000D01*
X129540000Y-111760000D02*
X130810000Y-113030000D01*
X151130000Y-113030000D02*
X152400000Y-111760000D01*
X130810000Y-113030000D02*
X151130000Y-113030000D01*
X175260000Y-119380000D02*
X176530000Y-120650000D01*
X176530000Y-120650000D02*
X196850000Y-120650000D01*
X196850000Y-120650000D02*
X198120000Y-119380000D01*
X161290000Y-110490000D02*
X172085000Y-110490000D01*
X172085000Y-110490000D02*
X172720000Y-111125000D01*
X157480000Y-113030000D02*
X158115000Y-112395000D01*
X158750000Y-110490000D02*
X161290000Y-110490000D01*
X157480000Y-113665000D02*
X157480000Y-113030000D01*
X156845000Y-114300000D02*
X157480000Y-113665000D01*
X152400000Y-114300000D02*
X156845000Y-114300000D01*
X158115000Y-112395000D02*
X158115000Y-111125000D01*
X158115000Y-111125000D02*
X158750000Y-110490000D01*
X125095000Y-138430000D02*
X124460000Y-139065000D01*
X121920000Y-139700000D02*
X121920000Y-140335000D01*
X122555000Y-139065000D02*
X121920000Y-139700000D01*
X124460000Y-139065000D02*
X122555000Y-139065000D01*
X121920000Y-140335000D02*
X121920000Y-142240000D01*
X121920000Y-142240000D02*
X121920000Y-145415000D01*
X125095000Y-114935000D02*
X125095000Y-138430000D01*
X152400000Y-114300000D02*
X151130000Y-115570000D01*
X130810000Y-115570000D02*
X129540000Y-114300000D01*
X151130000Y-115570000D02*
X130810000Y-115570000D01*
X175260000Y-116840000D02*
X176530000Y-118110000D01*
X176530000Y-118110000D02*
X196850000Y-118110000D01*
X196850000Y-118110000D02*
X198120000Y-116840000D01*
X173355000Y-114300000D02*
X162560000Y-114300000D01*
X162560000Y-114300000D02*
X161290000Y-113030000D01*
X152400000Y-116840000D02*
X157480000Y-116840000D01*
X157480000Y-116840000D02*
X158115000Y-116205000D01*
X158115000Y-116205000D02*
X158115000Y-113665000D01*
X158115000Y-113665000D02*
X158750000Y-113030000D01*
X158750000Y-113030000D02*
X161290000Y-113030000D01*
X173355000Y-114300000D02*
X175260000Y-114300000D01*
X124460000Y-137795000D02*
X123825000Y-138430000D01*
X119380000Y-139065000D02*
X119380000Y-139700000D01*
X120015000Y-138430000D02*
X119380000Y-139065000D01*
X123825000Y-138430000D02*
X120015000Y-138430000D01*
X119380000Y-139700000D02*
X119380000Y-143510000D01*
X119380000Y-145415000D02*
X119380000Y-143510000D01*
X124460000Y-137795000D02*
X124460000Y-117475000D01*
X129540000Y-116840000D02*
X130810000Y-118110000D01*
X151130000Y-118110000D02*
X152400000Y-116840000D01*
X130810000Y-118110000D02*
X151130000Y-118110000D01*
X175260000Y-114300000D02*
X176530000Y-115570000D01*
X176530000Y-115570000D02*
X196850000Y-115570000D01*
X196850000Y-115570000D02*
X198120000Y-114300000D01*
X153670000Y-118110000D02*
X152400000Y-119380000D01*
X157480000Y-118110000D02*
X153670000Y-118110000D01*
X153035000Y-118745000D02*
X152400000Y-119380000D01*
X162560000Y-111125000D02*
X161925000Y-111125000D01*
X172085000Y-111760000D02*
X171450000Y-111125000D01*
X171450000Y-111125000D02*
X162560000Y-111125000D01*
X175260000Y-111760000D02*
X172085000Y-111760000D01*
X152400000Y-119380000D02*
X142240000Y-119380000D01*
X142240000Y-119380000D02*
X140970000Y-120650000D01*
X130810000Y-120650000D02*
X129540000Y-119380000D01*
X140970000Y-120650000D02*
X130810000Y-120650000D01*
X116840000Y-139065000D02*
X116840000Y-138430000D01*
X123190000Y-137795000D02*
X123825000Y-137160000D01*
X117475000Y-137795000D02*
X123190000Y-137795000D01*
X116840000Y-138430000D02*
X117475000Y-137795000D01*
X116840000Y-139065000D02*
X116840000Y-145415000D01*
X123825000Y-120015000D02*
X123825000Y-137160000D01*
X116840000Y-144780000D02*
X116840000Y-145415000D01*
X175260000Y-111760000D02*
X176530000Y-113030000D01*
X196850000Y-113030000D02*
X198120000Y-111760000D01*
X176530000Y-113030000D02*
X196850000Y-113030000D01*
X164465000Y-107950000D02*
X163195000Y-107950000D01*
X163195000Y-107950000D02*
X154940000Y-107950000D01*
X173355000Y-109220000D02*
X172085000Y-107950000D01*
X172085000Y-107950000D02*
X164465000Y-107950000D01*
X175260000Y-109220000D02*
X173355000Y-109220000D01*
X154305000Y-108585000D02*
X154305000Y-113030000D01*
X154940000Y-107950000D02*
X154305000Y-108585000D01*
X152400000Y-121920000D02*
X153670000Y-121920000D01*
X153670000Y-121920000D02*
X154305000Y-121285000D01*
X123190000Y-136525000D02*
X122555000Y-137160000D01*
X114300000Y-137795000D02*
X114300000Y-138430000D01*
X114935000Y-137160000D02*
X114300000Y-137795000D01*
X122555000Y-137160000D02*
X114935000Y-137160000D01*
X114300000Y-138430000D02*
X114300000Y-145415000D01*
X123190000Y-122555000D02*
X123190000Y-136525000D01*
X114300000Y-144780000D02*
X114300000Y-145415000D01*
X129540000Y-121920000D02*
X130810000Y-123190000D01*
X151130000Y-123190000D02*
X152400000Y-121920000D01*
X130810000Y-123190000D02*
X151130000Y-123190000D01*
X175260000Y-109220000D02*
X176530000Y-110490000D01*
X196850000Y-110490000D02*
X198120000Y-109220000D01*
X176530000Y-110490000D02*
X196850000Y-110490000D01*
X138430000Y-54610000D02*
X144145000Y-54610000D01*
X135890000Y-67945000D02*
X136525000Y-67310000D01*
X136525000Y-67310000D02*
X136525000Y-59690000D01*
X136525000Y-56515000D02*
X136525000Y-55245000D01*
X136525000Y-55245000D02*
X137160000Y-54610000D01*
X137160000Y-54610000D02*
X138430000Y-54610000D01*
X125730000Y-67945000D02*
X135890000Y-67945000D01*
X144780000Y-53975000D02*
X144780000Y-50800000D01*
X144145000Y-54610000D02*
X144780000Y-53975000D01*
X120015000Y-67945000D02*
X125730000Y-67945000D01*
X119380000Y-68580000D02*
X120015000Y-67945000D01*
X110490000Y-109220000D02*
X110490000Y-107315000D01*
X111125000Y-106680000D02*
X114300000Y-106680000D01*
X110490000Y-107315000D02*
X111125000Y-106680000D01*
X125730000Y-71120000D02*
X136525000Y-71120000D01*
X147320000Y-54610000D02*
X147320000Y-50800000D01*
X146685000Y-55245000D02*
X147320000Y-54610000D01*
X137795000Y-55245000D02*
X146685000Y-55245000D01*
X137160000Y-55880000D02*
X137795000Y-55245000D01*
X137160000Y-57150000D02*
X137160000Y-55880000D01*
X137160000Y-70485000D02*
X137160000Y-59055000D01*
X136525000Y-71120000D02*
X137160000Y-70485000D01*
X120650000Y-71120000D02*
X125730000Y-71120000D01*
X120015000Y-71755000D02*
X120650000Y-71120000D01*
X119380000Y-104140000D02*
X121285000Y-102235000D01*
X121920000Y-53340000D02*
X121285000Y-53340000D01*
X129540000Y-52705000D02*
X128905000Y-53340000D01*
X128905000Y-53340000D02*
X121920000Y-53340000D01*
X129540000Y-50800000D02*
X129540000Y-52705000D01*
X121285000Y-53340000D02*
X120650000Y-53975000D01*
X119380000Y-104140000D02*
X114300000Y-104140000D01*
X125730000Y-74295000D02*
X137160000Y-74295000D01*
X149860000Y-55245000D02*
X149860000Y-50800000D01*
X149225000Y-55880000D02*
X149860000Y-55245000D01*
X138430000Y-55880000D02*
X149225000Y-55880000D01*
X137795000Y-56515000D02*
X138430000Y-55880000D01*
X137795000Y-73660000D02*
X137795000Y-59690000D01*
X137160000Y-74295000D02*
X137795000Y-73660000D01*
X121285000Y-74295000D02*
X125730000Y-74295000D01*
X120650000Y-74930000D02*
X121285000Y-74295000D01*
X120650000Y-52705000D02*
X120015000Y-53340000D01*
X120015000Y-53340000D02*
X120015000Y-54610000D01*
X127000000Y-52070000D02*
X126365000Y-52705000D01*
X126365000Y-52705000D02*
X121285000Y-52705000D01*
X121285000Y-52705000D02*
X120650000Y-52705000D01*
X120650000Y-101600000D02*
X114300000Y-101600000D01*
X121285000Y-100965000D02*
X120650000Y-101600000D01*
X127000000Y-50800000D02*
X127000000Y-52070000D01*
X125730000Y-77470000D02*
X137795000Y-77470000D01*
X138430000Y-76835000D02*
X138430000Y-59690000D01*
X137795000Y-77470000D02*
X138430000Y-76835000D01*
X138430000Y-59055000D02*
X138430000Y-59690000D01*
X152400000Y-55880000D02*
X152400000Y-50800000D01*
X151765000Y-56515000D02*
X152400000Y-55880000D01*
X139065000Y-56515000D02*
X151765000Y-56515000D01*
X138430000Y-57150000D02*
X139065000Y-56515000D01*
X121920000Y-77470000D02*
X125730000Y-77470000D01*
X121285000Y-78105000D02*
X121920000Y-77470000D01*
X159385000Y-79375000D02*
X125095000Y-79375000D01*
X114300000Y-99060000D02*
X123190000Y-99060000D01*
X172085000Y-67945000D02*
X179070000Y-67945000D01*
X171450000Y-78740000D02*
X170815000Y-79375000D01*
X171450000Y-68580000D02*
X171450000Y-78740000D01*
X172085000Y-67945000D02*
X171450000Y-68580000D01*
X159385000Y-79375000D02*
X170815000Y-79375000D01*
X123825000Y-98425000D02*
X123190000Y-99060000D01*
X191770000Y-77470000D02*
X191770000Y-68580000D01*
X195580000Y-83820000D02*
X195580000Y-80010000D01*
X195580000Y-80010000D02*
X194945000Y-79375000D01*
X193675000Y-79375000D02*
X193040000Y-78740000D01*
X194945000Y-79375000D02*
X193675000Y-79375000D01*
X191920000Y-130810000D02*
X193675000Y-130810000D01*
X195580000Y-128905000D02*
X195580000Y-121285000D01*
X193675000Y-130810000D02*
X195580000Y-128905000D01*
X193040000Y-78740000D02*
X191770000Y-77470000D01*
X191135000Y-67945000D02*
X179070000Y-67945000D01*
X191770000Y-68580000D02*
X191135000Y-67945000D01*
X191920000Y-130810000D02*
X192405000Y-130810000D01*
X185420000Y-130810000D02*
X191920000Y-130810000D01*
X142240000Y-50800000D02*
X142240000Y-53340000D01*
X135255000Y-64770000D02*
X125730000Y-64770000D01*
X135890000Y-64135000D02*
X135255000Y-64770000D01*
X135890000Y-59055000D02*
X135890000Y-64135000D01*
X135890000Y-54610000D02*
X135890000Y-57150000D01*
X136525000Y-53975000D02*
X135890000Y-54610000D01*
X141605000Y-53975000D02*
X136525000Y-53975000D01*
X142240000Y-53340000D02*
X141605000Y-53975000D01*
X125730000Y-64770000D02*
X119380000Y-64770000D01*
X119380000Y-64770000D02*
X118745000Y-65405000D01*
X172870000Y-126215000D02*
X172870000Y-125580000D01*
X183515000Y-125095000D02*
X184150000Y-125730000D01*
X173355000Y-125095000D02*
X183515000Y-125095000D01*
X172870000Y-125580000D02*
X173355000Y-125095000D01*
X160655000Y-80645000D02*
X126365000Y-80645000D01*
X172720000Y-78740000D02*
X172720000Y-80010000D01*
X173355000Y-74295000D02*
X172720000Y-74930000D01*
X172720000Y-74930000D02*
X172720000Y-78740000D01*
X179070000Y-74295000D02*
X173355000Y-74295000D01*
X172720000Y-80010000D02*
X172085000Y-80645000D01*
X160655000Y-80645000D02*
X172085000Y-80645000D01*
X124460000Y-96520000D02*
X114300000Y-96520000D01*
X125095000Y-95885000D02*
X124460000Y-96520000D01*
X190500000Y-78740000D02*
X190500000Y-74930000D01*
X190500000Y-74930000D02*
X189865000Y-74295000D01*
X189865000Y-74295000D02*
X179070000Y-74295000D01*
X194310000Y-83820000D02*
X194310000Y-81280000D01*
X191770000Y-80010000D02*
X192405000Y-80645000D01*
X193675000Y-80645000D02*
X194310000Y-81280000D01*
X192405000Y-80645000D02*
X193675000Y-80645000D01*
X194310000Y-127635000D02*
X193675000Y-128270000D01*
X193675000Y-128270000D02*
X186690000Y-128270000D01*
X184150000Y-125730000D02*
X184785000Y-126365000D01*
X184785000Y-126365000D02*
X186690000Y-128270000D01*
X194310000Y-121285000D02*
X194310000Y-127635000D01*
X191770000Y-80010000D02*
X190500000Y-78740000D01*
X172870000Y-130810000D02*
X172870000Y-126215000D01*
X125730000Y-61595000D02*
X134620000Y-61595000D01*
X139700000Y-52705000D02*
X139700000Y-50800000D01*
X139065000Y-53340000D02*
X139700000Y-52705000D01*
X135890000Y-53340000D02*
X139065000Y-53340000D01*
X135255000Y-53975000D02*
X135890000Y-53340000D01*
X135255000Y-56515000D02*
X135255000Y-53975000D01*
X135255000Y-60960000D02*
X135255000Y-59690000D01*
X134620000Y-61595000D02*
X135255000Y-60960000D01*
X118745000Y-61595000D02*
X125730000Y-61595000D01*
X118110000Y-62230000D02*
X118745000Y-61595000D01*
X128270000Y-78740000D02*
X170180000Y-78740000D01*
X122555000Y-93980000D02*
X123190000Y-93345000D01*
X123825000Y-79375000D02*
X124460000Y-78740000D01*
X124460000Y-78740000D02*
X128270000Y-78740000D01*
X114300000Y-93980000D02*
X122555000Y-93980000D01*
X171450000Y-64770000D02*
X179070000Y-64770000D01*
X170815000Y-65405000D02*
X171450000Y-64770000D01*
X170815000Y-78105000D02*
X170815000Y-65405000D01*
X170180000Y-78740000D02*
X170815000Y-78105000D01*
X192405000Y-71755000D02*
X192405000Y-65405000D01*
X192405000Y-65405000D02*
X191770000Y-64770000D01*
X191770000Y-64770000D02*
X179070000Y-64770000D01*
X192405000Y-76835000D02*
X192405000Y-71755000D01*
X193675000Y-78105000D02*
X192405000Y-76835000D01*
X193675000Y-132080000D02*
X193675000Y-137160000D01*
X196215000Y-129540000D02*
X193675000Y-132080000D01*
X196215000Y-121920000D02*
X196215000Y-129540000D01*
X192405000Y-138430000D02*
X193675000Y-137160000D01*
X182395000Y-138430000D02*
X192405000Y-138430000D01*
X195580000Y-78740000D02*
X194310000Y-78740000D01*
X194310000Y-78740000D02*
X193675000Y-78105000D01*
X196215000Y-79375000D02*
X195580000Y-78740000D01*
X196215000Y-83185000D02*
X196215000Y-79375000D01*
X135890000Y-52705000D02*
X135255000Y-52705000D01*
X134620000Y-53340000D02*
X134620000Y-53975000D01*
X135255000Y-52705000D02*
X134620000Y-53340000D01*
X125730000Y-58420000D02*
X126365000Y-58420000D01*
X126365000Y-58420000D02*
X127000000Y-59055000D01*
X136525000Y-52705000D02*
X137160000Y-52070000D01*
X135890000Y-52705000D02*
X136525000Y-52705000D01*
X134620000Y-57150000D02*
X134620000Y-53975000D01*
X127000000Y-59055000D02*
X133985000Y-59055000D01*
X137160000Y-52070000D02*
X137160000Y-50800000D01*
X118110000Y-58420000D02*
X125730000Y-58420000D01*
X117475000Y-59055000D02*
X118110000Y-58420000D01*
X114300000Y-91440000D02*
X125095000Y-91440000D01*
X173355000Y-80010000D02*
X173355000Y-80645000D01*
X173990000Y-77470000D02*
X173355000Y-78105000D01*
X173355000Y-78105000D02*
X173355000Y-80010000D01*
X173990000Y-77470000D02*
X179070000Y-77470000D01*
X172720000Y-81280000D02*
X165100000Y-81280000D01*
X173355000Y-80645000D02*
X172720000Y-81280000D01*
X165100000Y-81280000D02*
X127000000Y-81280000D01*
X125095000Y-91440000D02*
X125730000Y-90805000D01*
X188595000Y-77470000D02*
X189230000Y-77470000D01*
X189865000Y-78105000D02*
X189865000Y-78740000D01*
X189230000Y-77470000D02*
X189865000Y-78105000D01*
X189865000Y-79375000D02*
X189865000Y-78740000D01*
X189865000Y-79375000D02*
X191135000Y-80645000D01*
X193675000Y-121920000D02*
X193675000Y-127000000D01*
X182880000Y-123190000D02*
X187325000Y-127635000D01*
X193040000Y-127635000D02*
X193675000Y-127000000D01*
X187325000Y-127635000D02*
X193040000Y-127635000D01*
X191770000Y-83185000D02*
X191770000Y-81280000D01*
X192405000Y-83820000D02*
X191770000Y-83185000D01*
X191135000Y-80645000D02*
X191770000Y-81280000D01*
X188595000Y-77470000D02*
X179070000Y-77470000D01*
X182395000Y-123190000D02*
X182880000Y-123190000D01*
X175895000Y-123190000D02*
X182395000Y-123190000D01*
X125730000Y-55245000D02*
X133350000Y-55245000D01*
X133985000Y-54610000D02*
X133985000Y-52705000D01*
X133350000Y-55245000D02*
X133985000Y-54610000D01*
X125730000Y-55245000D02*
X123825000Y-55245000D01*
X116840000Y-55880000D02*
X117475000Y-55245000D01*
X117475000Y-55245000D02*
X123825000Y-55245000D01*
X133985000Y-52705000D02*
X134620000Y-52070000D01*
X134620000Y-52070000D02*
X134620000Y-50800000D01*
X160020000Y-80010000D02*
X125730000Y-80010000D01*
X179070000Y-71120000D02*
X172720000Y-71120000D01*
X172085000Y-79375000D02*
X171450000Y-80010000D01*
X172085000Y-71755000D02*
X172085000Y-79375000D01*
X172720000Y-71120000D02*
X172085000Y-71755000D01*
X160020000Y-80010000D02*
X171450000Y-80010000D01*
X123825000Y-88900000D02*
X114300000Y-88900000D01*
X124460000Y-88265000D02*
X123825000Y-88900000D01*
X191135000Y-78105000D02*
X191135000Y-71755000D01*
X192405000Y-79375000D02*
X191135000Y-78105000D01*
X194310000Y-128905000D02*
X194945000Y-128270000D01*
X194945000Y-128270000D02*
X194945000Y-121920000D01*
X182395000Y-130660000D02*
X184150000Y-128905000D01*
X184150000Y-128905000D02*
X194310000Y-128905000D01*
X194310000Y-80010000D02*
X193040000Y-80010000D01*
X193040000Y-80010000D02*
X192405000Y-79375000D01*
X194945000Y-80645000D02*
X194310000Y-80010000D01*
X194945000Y-83185000D02*
X194945000Y-80645000D01*
X190500000Y-71120000D02*
X179070000Y-71120000D01*
X191135000Y-71755000D02*
X190500000Y-71120000D01*
X182395000Y-130810000D02*
X182395000Y-130660000D01*
X149225000Y-83185000D02*
X149225000Y-82550000D01*
X149225000Y-86995000D02*
X149225000Y-83185000D01*
X149225000Y-76200000D02*
X149225000Y-72390000D01*
X152400000Y-86360000D02*
X149860000Y-86360000D01*
X149860000Y-86360000D02*
X149225000Y-86995000D01*
X149225000Y-87630000D02*
X149225000Y-86995000D01*
X129540000Y-101600000D02*
X128270000Y-101600000D01*
X128270000Y-101600000D02*
X127635000Y-100965000D01*
X127635000Y-100965000D02*
X127635000Y-88265000D01*
X127635000Y-88265000D02*
X128270000Y-87630000D01*
X128270000Y-87630000D02*
X149225000Y-87630000D01*
X149860000Y-145415000D02*
X149860000Y-130810000D01*
X143510000Y-69215000D02*
X144145000Y-68580000D01*
X139065000Y-69215000D02*
X143510000Y-69215000D01*
X112395000Y-69215000D02*
X136525000Y-69215000D01*
X144145000Y-68580000D02*
X144145000Y-67945000D01*
X144145000Y-67945000D02*
X144145000Y-64770000D01*
X144145000Y-64770000D02*
X144780000Y-64135000D01*
X144780000Y-64135000D02*
X146685000Y-64135000D01*
X110490000Y-124460000D02*
X106680000Y-124460000D01*
X106680000Y-124460000D02*
X106045000Y-125095000D01*
X106045000Y-67945000D02*
X102235000Y-67945000D01*
X102235000Y-85090000D02*
X103505000Y-85090000D01*
X101600000Y-84455000D02*
X102235000Y-85090000D01*
X101600000Y-68580000D02*
X101600000Y-84455000D01*
X102235000Y-67945000D02*
X101600000Y-68580000D01*
X109220000Y-64135000D02*
X109855000Y-63500000D01*
X109220000Y-67310000D02*
X109220000Y-64135000D01*
X108585000Y-67945000D02*
X109220000Y-67310000D01*
X106045000Y-67945000D02*
X108585000Y-67945000D01*
X109855000Y-63500000D02*
X110490000Y-62865000D01*
X110490000Y-62865000D02*
X111125000Y-62230000D01*
X111125000Y-55880000D02*
X111125000Y-62230000D01*
X111760000Y-55245000D02*
X111125000Y-55880000D01*
X115570000Y-55245000D02*
X111760000Y-55245000D01*
X106680000Y-68580000D02*
X106045000Y-68580000D01*
X105410000Y-69215000D02*
X105410000Y-82550000D01*
X106045000Y-68580000D02*
X105410000Y-69215000D01*
X105410000Y-82550000D02*
X104775000Y-83185000D01*
X111760000Y-62865000D02*
X111125000Y-63500000D01*
X112395000Y-58420000D02*
X115570000Y-58420000D01*
X112395000Y-58420000D02*
X111760000Y-59055000D01*
X111760000Y-59055000D02*
X111760000Y-62865000D01*
X110490000Y-64135000D02*
X111125000Y-63500000D01*
X106680000Y-68580000D02*
X109220000Y-68580000D01*
X109220000Y-68580000D02*
X109855000Y-67945000D01*
X109855000Y-67945000D02*
X109855000Y-64770000D01*
X109855000Y-64770000D02*
X110490000Y-64135000D01*
X109855000Y-71755000D02*
X109220000Y-72390000D01*
X106045000Y-82550000D02*
X107315000Y-83820000D01*
X106045000Y-73025000D02*
X106045000Y-82550000D01*
X106680000Y-72390000D02*
X106045000Y-73025000D01*
X109220000Y-72390000D02*
X106680000Y-72390000D01*
X104775000Y-87630000D02*
X105410000Y-86995000D01*
X105410000Y-86995000D02*
X106680000Y-86995000D01*
X107315000Y-86360000D02*
X107315000Y-83820000D01*
X106680000Y-86995000D02*
X107315000Y-86360000D01*
X110490000Y-65405000D02*
X111125000Y-64770000D01*
X110490000Y-68580000D02*
X110490000Y-65405000D01*
X109855000Y-69215000D02*
X110490000Y-68580000D01*
X109855000Y-71755000D02*
X109855000Y-69215000D01*
X113030000Y-61595000D02*
X115570000Y-61595000D01*
X111125000Y-64770000D02*
X112395000Y-63500000D01*
X112395000Y-63500000D02*
X112395000Y-62230000D01*
X112395000Y-62230000D02*
X113030000Y-61595000D01*
X107950000Y-80010000D02*
X107950000Y-79375000D01*
X109855000Y-73025000D02*
X110490000Y-72390000D01*
X109855000Y-77470000D02*
X109855000Y-73025000D01*
X107950000Y-79375000D02*
X109855000Y-77470000D01*
X106680000Y-93980000D02*
X105410000Y-93980000D01*
X115570000Y-64770000D02*
X112395000Y-64770000D01*
X112395000Y-64770000D02*
X111125000Y-66040000D01*
X111125000Y-66040000D02*
X111125000Y-69215000D01*
X111125000Y-69215000D02*
X110490000Y-69850000D01*
X110490000Y-69850000D02*
X110490000Y-72390000D01*
X107950000Y-86995000D02*
X107950000Y-80010000D01*
X107315000Y-87630000D02*
X107315000Y-93345000D01*
X107315000Y-93345000D02*
X106680000Y-93980000D01*
X107950000Y-86995000D02*
X107315000Y-87630000D01*
X105410000Y-93980000D02*
X104775000Y-94615000D01*
X108585000Y-80645000D02*
X108585000Y-80010000D01*
X110490000Y-73660000D02*
X111125000Y-73025000D01*
X110490000Y-78105000D02*
X110490000Y-73660000D01*
X108585000Y-80010000D02*
X110490000Y-78105000D01*
X108585000Y-85725000D02*
X108585000Y-80645000D01*
X104775000Y-101600000D02*
X105410000Y-100965000D01*
X105410000Y-100965000D02*
X106680000Y-100965000D01*
X106680000Y-100965000D02*
X107315000Y-100330000D01*
X107315000Y-100330000D02*
X107315000Y-94615000D01*
X107315000Y-94615000D02*
X107950000Y-93980000D01*
X107950000Y-93980000D02*
X107950000Y-88265000D01*
X107950000Y-88265000D02*
X108585000Y-87630000D01*
X108585000Y-87630000D02*
X108585000Y-85725000D01*
X112395000Y-67945000D02*
X115570000Y-67945000D01*
X111760000Y-68580000D02*
X112395000Y-67945000D01*
X111760000Y-69850000D02*
X111760000Y-68580000D01*
X111125000Y-70485000D02*
X111760000Y-69850000D01*
X111125000Y-73025000D02*
X111125000Y-70485000D01*
X111760000Y-73660000D02*
X111125000Y-74295000D01*
X109220000Y-80645000D02*
X109220000Y-81280000D01*
X111125000Y-78740000D02*
X109220000Y-80645000D01*
X111125000Y-74295000D02*
X111125000Y-78740000D01*
X112395000Y-71120000D02*
X111760000Y-71755000D01*
X111760000Y-71755000D02*
X111760000Y-73660000D01*
X109220000Y-81280000D02*
X109220000Y-88265000D01*
X109220000Y-88265000D02*
X108585000Y-88900000D01*
X108585000Y-88900000D02*
X108585000Y-94615000D01*
X108585000Y-94615000D02*
X107950000Y-95250000D01*
X107950000Y-95250000D02*
X107950000Y-100965000D01*
X107950000Y-100965000D02*
X107315000Y-101600000D01*
X107315000Y-101600000D02*
X107315000Y-107315000D01*
X107315000Y-107315000D02*
X106680000Y-107950000D01*
X106680000Y-107950000D02*
X105410000Y-107950000D01*
X105410000Y-107950000D02*
X104775000Y-108585000D01*
X104775000Y-108585000D02*
X104775000Y-111125000D01*
X115570000Y-71120000D02*
X112395000Y-71120000D01*
X106680000Y-114935000D02*
X106045000Y-115570000D01*
X108585000Y-97790000D02*
X108585000Y-101600000D01*
X109220000Y-95250000D02*
X108585000Y-95885000D01*
X108585000Y-95885000D02*
X108585000Y-97790000D01*
X109855000Y-87630000D02*
X109855000Y-88900000D01*
X109855000Y-81915000D02*
X109855000Y-87630000D01*
X115570000Y-74295000D02*
X113030000Y-74295000D01*
X109855000Y-81280000D02*
X111760000Y-79375000D01*
X111760000Y-79375000D02*
X111760000Y-74930000D01*
X111760000Y-74930000D02*
X112395000Y-74295000D01*
X112395000Y-74295000D02*
X113030000Y-74295000D01*
X109855000Y-81915000D02*
X109855000Y-81280000D01*
X109855000Y-88900000D02*
X109220000Y-89535000D01*
X109220000Y-89535000D02*
X109220000Y-95250000D01*
X105410000Y-115570000D02*
X104775000Y-116205000D01*
X106045000Y-115570000D02*
X105410000Y-115570000D01*
X107315000Y-108585000D02*
X107315000Y-111125000D01*
X107950000Y-107950000D02*
X107315000Y-108585000D01*
X107950000Y-102235000D02*
X107950000Y-107950000D01*
X108585000Y-101600000D02*
X107950000Y-102235000D01*
X106680000Y-122555000D02*
X107315000Y-121920000D01*
X107315000Y-121920000D02*
X107315000Y-115570000D01*
X109855000Y-95885000D02*
X109220000Y-96520000D01*
X109220000Y-96520000D02*
X109220000Y-100965000D01*
X110490000Y-85090000D02*
X110490000Y-89535000D01*
X113030000Y-77470000D02*
X112395000Y-78105000D01*
X112395000Y-78105000D02*
X112395000Y-80010000D01*
X112395000Y-80010000D02*
X110490000Y-81915000D01*
X110490000Y-81915000D02*
X110490000Y-85090000D01*
X113030000Y-77470000D02*
X115570000Y-77470000D01*
X110490000Y-89535000D02*
X109855000Y-90170000D01*
X109855000Y-90170000D02*
X109855000Y-95885000D01*
X109220000Y-102235000D02*
X109220000Y-100965000D01*
X108585000Y-102870000D02*
X109220000Y-102235000D01*
X108585000Y-108585000D02*
X108585000Y-102870000D01*
X107950000Y-109220000D02*
X108585000Y-108585000D01*
X107950000Y-113665000D02*
X107950000Y-109220000D01*
X105410000Y-122555000D02*
X106680000Y-122555000D01*
X104775000Y-123190000D02*
X105410000Y-122555000D01*
X172720000Y-73025000D02*
X189865000Y-73025000D01*
X189865000Y-73025000D02*
X190500000Y-73660000D01*
X165100000Y-73025000D02*
X160655000Y-73025000D01*
X149860000Y-83185000D02*
X149860000Y-85725000D01*
X150495000Y-82550000D02*
X149860000Y-83185000D01*
X159385000Y-82550000D02*
X150495000Y-82550000D01*
X160020000Y-73660000D02*
X160020000Y-77470000D01*
X160655000Y-73025000D02*
X160020000Y-73660000D01*
X152400000Y-145415000D02*
X152400000Y-138430000D01*
X150495000Y-126365000D02*
X149860000Y-125730000D01*
X150495000Y-136525000D02*
X150495000Y-130175000D01*
X152400000Y-138430000D02*
X150495000Y-136525000D01*
X149225000Y-125730000D02*
X149860000Y-125730000D01*
X134620000Y-124460000D02*
X135890000Y-125730000D01*
X135890000Y-125730000D02*
X149225000Y-125730000D01*
X129540000Y-124460000D02*
X134620000Y-124460000D01*
X150495000Y-93980000D02*
X152400000Y-93980000D01*
X149860000Y-94615000D02*
X150495000Y-93980000D01*
X121285000Y-109855000D02*
X120650000Y-110490000D01*
X122555000Y-53975000D02*
X121920000Y-53975000D01*
X132080000Y-53340000D02*
X131445000Y-53975000D01*
X131445000Y-53975000D02*
X122555000Y-53975000D01*
X132080000Y-50800000D02*
X132080000Y-53340000D01*
X121920000Y-53975000D02*
X121285000Y-54610000D01*
X111760000Y-110490000D02*
X110490000Y-111760000D01*
X120650000Y-110490000D02*
X111760000Y-110490000D01*
X194310000Y-60960000D02*
X170180000Y-60960000D01*
X170180000Y-60960000D02*
X167005000Y-57785000D01*
X127000000Y-56515000D02*
X128270000Y-57785000D01*
X195580000Y-60960000D02*
X194310000Y-60960000D01*
X167005000Y-57785000D02*
X128270000Y-57785000D01*
X168910000Y-90805000D02*
X167005000Y-90805000D01*
X175260000Y-106680000D02*
X173990000Y-106680000D01*
X173355000Y-106045000D02*
X170180000Y-106045000D01*
X173990000Y-106680000D02*
X173355000Y-106045000D01*
X166370000Y-82550000D02*
X166370000Y-85725000D01*
X188595000Y-84455000D02*
X187960000Y-84455000D01*
X189865000Y-106680000D02*
X192405000Y-106680000D01*
X189230000Y-106045000D02*
X189865000Y-106680000D01*
X187960000Y-84455000D02*
X174625000Y-84455000D01*
X174625000Y-84455000D02*
X173990000Y-83820000D01*
X173990000Y-83820000D02*
X173990000Y-78740000D01*
X198120000Y-106680000D02*
X192405000Y-106680000D01*
X165100000Y-67945000D02*
X157480000Y-67945000D01*
X146685000Y-86995000D02*
X146685000Y-82550000D01*
X134620000Y-129540000D02*
X135255000Y-128905000D01*
X129540000Y-129540000D02*
X134620000Y-129540000D01*
X139065000Y-128905000D02*
X140335000Y-128905000D01*
X140335000Y-128905000D02*
X143510000Y-128905000D01*
X158750000Y-73025000D02*
X157480000Y-73025000D01*
X159385000Y-73660000D02*
X158750000Y-73025000D01*
X159385000Y-78105000D02*
X159385000Y-73660000D01*
X147320000Y-81915000D02*
X158750000Y-81915000D01*
X146685000Y-82550000D02*
X147320000Y-81915000D01*
X145415000Y-72390000D02*
X140335000Y-72390000D01*
X154940000Y-69850000D02*
X147955000Y-69850000D01*
X147955000Y-69850000D02*
X145415000Y-72390000D01*
X191135000Y-70485000D02*
X190500000Y-69850000D01*
X190500000Y-69850000D02*
X172085000Y-69850000D01*
X155575000Y-67310000D02*
X155575000Y-69215000D01*
X156210000Y-66675000D02*
X155575000Y-67310000D01*
X166370000Y-66675000D02*
X156210000Y-66675000D01*
X167005000Y-67310000D02*
X166370000Y-66675000D01*
X155575000Y-69215000D02*
X154940000Y-69850000D01*
X139700000Y-73025000D02*
X139700000Y-75565000D01*
X140335000Y-72390000D02*
X139700000Y-73025000D01*
M02*
