G04 #@! TF.FileFunction,Legend,Top*
%FSLAX46Y46*%
G04 Gerber Fmt 4.6, Leading zero omitted, Abs format (unit mm)*
G04 Created by KiCad (PCBNEW 4.0.7) date 11/16/19 22:56:08*
%MOMM*%
%LPD*%
G01*
G04 APERTURE LIST*
%ADD10C,0.100000*%
%ADD11C,0.150000*%
%ADD12C,0.300000*%
%ADD13C,0.120000*%
G04 APERTURE END LIST*
D10*
D11*
X122183331Y-141390714D02*
X122564283Y-141390714D01*
X122326188Y-142057381D02*
X122326188Y-141200238D01*
X122373807Y-141105000D01*
X122469045Y-141057381D01*
X122564283Y-141057381D01*
X123040474Y-142057381D02*
X122945236Y-142009762D01*
X122897617Y-141962143D01*
X122849998Y-141866905D01*
X122849998Y-141581190D01*
X122897617Y-141485952D01*
X122945236Y-141438333D01*
X123040474Y-141390714D01*
X123183332Y-141390714D01*
X123278570Y-141438333D01*
X123326189Y-141485952D01*
X123373808Y-141581190D01*
X123373808Y-141866905D01*
X123326189Y-141962143D01*
X123278570Y-142009762D01*
X123183332Y-142057381D01*
X123040474Y-142057381D01*
X123802379Y-142057381D02*
X123802379Y-141390714D01*
X123802379Y-141581190D02*
X123849998Y-141485952D01*
X123897617Y-141438333D01*
X123992855Y-141390714D01*
X124088094Y-141390714D01*
X125088094Y-141390714D02*
X125326189Y-142057381D01*
X125564285Y-141390714D01*
X125945237Y-142057381D02*
X125945237Y-141390714D01*
X125945237Y-141057381D02*
X125897618Y-141105000D01*
X125945237Y-141152619D01*
X125992856Y-141105000D01*
X125945237Y-141057381D01*
X125945237Y-141152619D01*
X126849999Y-142057381D02*
X126849999Y-141057381D01*
X126849999Y-142009762D02*
X126754761Y-142057381D01*
X126564284Y-142057381D01*
X126469046Y-142009762D01*
X126421427Y-141962143D01*
X126373808Y-141866905D01*
X126373808Y-141581190D01*
X126421427Y-141485952D01*
X126469046Y-141438333D01*
X126564284Y-141390714D01*
X126754761Y-141390714D01*
X126849999Y-141438333D01*
X127707142Y-142009762D02*
X127611904Y-142057381D01*
X127421427Y-142057381D01*
X127326189Y-142009762D01*
X127278570Y-141914524D01*
X127278570Y-141533571D01*
X127326189Y-141438333D01*
X127421427Y-141390714D01*
X127611904Y-141390714D01*
X127707142Y-141438333D01*
X127754761Y-141533571D01*
X127754761Y-141628810D01*
X127278570Y-141724048D01*
X128326189Y-142057381D02*
X128230951Y-142009762D01*
X128183332Y-141962143D01*
X128135713Y-141866905D01*
X128135713Y-141581190D01*
X128183332Y-141485952D01*
X128230951Y-141438333D01*
X128326189Y-141390714D01*
X128469047Y-141390714D01*
X128564285Y-141438333D01*
X128611904Y-141485952D01*
X128659523Y-141581190D01*
X128659523Y-141866905D01*
X128611904Y-141962143D01*
X128564285Y-142009762D01*
X128469047Y-142057381D01*
X128326189Y-142057381D01*
X129802380Y-142009762D02*
X129897618Y-142057381D01*
X130088094Y-142057381D01*
X130183333Y-142009762D01*
X130230952Y-141914524D01*
X130230952Y-141866905D01*
X130183333Y-141771667D01*
X130088094Y-141724048D01*
X129945237Y-141724048D01*
X129849999Y-141676429D01*
X129802380Y-141581190D01*
X129802380Y-141533571D01*
X129849999Y-141438333D01*
X129945237Y-141390714D01*
X130088094Y-141390714D01*
X130183333Y-141438333D01*
X131040476Y-142009762D02*
X130945238Y-142057381D01*
X130754761Y-142057381D01*
X130659523Y-142009762D01*
X130611904Y-141914524D01*
X130611904Y-141533571D01*
X130659523Y-141438333D01*
X130754761Y-141390714D01*
X130945238Y-141390714D01*
X131040476Y-141438333D01*
X131088095Y-141533571D01*
X131088095Y-141628810D01*
X130611904Y-141724048D01*
X131516666Y-142057381D02*
X131516666Y-141390714D01*
X131516666Y-141581190D02*
X131564285Y-141485952D01*
X131611904Y-141438333D01*
X131707142Y-141390714D01*
X131802381Y-141390714D01*
X132135714Y-142057381D02*
X132135714Y-141390714D01*
X132135714Y-141057381D02*
X132088095Y-141105000D01*
X132135714Y-141152619D01*
X132183333Y-141105000D01*
X132135714Y-141057381D01*
X132135714Y-141152619D01*
X132992857Y-142009762D02*
X132897619Y-142057381D01*
X132707142Y-142057381D01*
X132611904Y-142009762D01*
X132564285Y-141914524D01*
X132564285Y-141533571D01*
X132611904Y-141438333D01*
X132707142Y-141390714D01*
X132897619Y-141390714D01*
X132992857Y-141438333D01*
X133040476Y-141533571D01*
X133040476Y-141628810D01*
X132564285Y-141724048D01*
X133421428Y-142009762D02*
X133516666Y-142057381D01*
X133707142Y-142057381D01*
X133802381Y-142009762D01*
X133850000Y-141914524D01*
X133850000Y-141866905D01*
X133802381Y-141771667D01*
X133707142Y-141724048D01*
X133564285Y-141724048D01*
X133469047Y-141676429D01*
X133421428Y-141581190D01*
X133421428Y-141533571D01*
X133469047Y-141438333D01*
X133564285Y-141390714D01*
X133707142Y-141390714D01*
X133802381Y-141438333D01*
X135040476Y-142057381D02*
X135040476Y-141057381D01*
X135040476Y-141438333D02*
X135135714Y-141390714D01*
X135326191Y-141390714D01*
X135421429Y-141438333D01*
X135469048Y-141485952D01*
X135516667Y-141581190D01*
X135516667Y-141866905D01*
X135469048Y-141962143D01*
X135421429Y-142009762D01*
X135326191Y-142057381D01*
X135135714Y-142057381D01*
X135040476Y-142009762D01*
X135850000Y-141390714D02*
X136088095Y-142057381D01*
X136326191Y-141390714D02*
X136088095Y-142057381D01*
X135992857Y-142295476D01*
X135945238Y-142343095D01*
X135850000Y-142390714D01*
X137802382Y-141533571D02*
X137945239Y-141581190D01*
X137992858Y-141628810D01*
X138040477Y-141724048D01*
X138040477Y-141866905D01*
X137992858Y-141962143D01*
X137945239Y-142009762D01*
X137850001Y-142057381D01*
X137469048Y-142057381D01*
X137469048Y-141057381D01*
X137802382Y-141057381D01*
X137897620Y-141105000D01*
X137945239Y-141152619D01*
X137992858Y-141247857D01*
X137992858Y-141343095D01*
X137945239Y-141438333D01*
X137897620Y-141485952D01*
X137802382Y-141533571D01*
X137469048Y-141533571D01*
X138850001Y-142009762D02*
X138754763Y-142057381D01*
X138564286Y-142057381D01*
X138469048Y-142009762D01*
X138421429Y-141914524D01*
X138421429Y-141533571D01*
X138469048Y-141438333D01*
X138564286Y-141390714D01*
X138754763Y-141390714D01*
X138850001Y-141438333D01*
X138897620Y-141533571D01*
X138897620Y-141628810D01*
X138421429Y-141724048D01*
X139326191Y-141390714D02*
X139326191Y-142057381D01*
X139326191Y-141485952D02*
X139373810Y-141438333D01*
X139469048Y-141390714D01*
X139611906Y-141390714D01*
X139707144Y-141438333D01*
X139754763Y-141533571D01*
X139754763Y-142057381D01*
X140992858Y-141533571D02*
X141326192Y-141533571D01*
X141469049Y-142057381D02*
X140992858Y-142057381D01*
X140992858Y-141057381D01*
X141469049Y-141057381D01*
X142326192Y-142057381D02*
X142326192Y-141533571D01*
X142278573Y-141438333D01*
X142183335Y-141390714D01*
X141992858Y-141390714D01*
X141897620Y-141438333D01*
X142326192Y-142009762D02*
X142230954Y-142057381D01*
X141992858Y-142057381D01*
X141897620Y-142009762D01*
X141850001Y-141914524D01*
X141850001Y-141819286D01*
X141897620Y-141724048D01*
X141992858Y-141676429D01*
X142230954Y-141676429D01*
X142326192Y-141628810D01*
X142659525Y-141390714D02*
X143040477Y-141390714D01*
X142802382Y-141057381D02*
X142802382Y-141914524D01*
X142850001Y-142009762D01*
X142945239Y-142057381D01*
X143040477Y-142057381D01*
X143754764Y-142009762D02*
X143659526Y-142057381D01*
X143469049Y-142057381D01*
X143373811Y-142009762D01*
X143326192Y-141914524D01*
X143326192Y-141533571D01*
X143373811Y-141438333D01*
X143469049Y-141390714D01*
X143659526Y-141390714D01*
X143754764Y-141438333D01*
X143802383Y-141533571D01*
X143802383Y-141628810D01*
X143326192Y-141724048D01*
X144230954Y-142057381D02*
X144230954Y-141390714D01*
X144230954Y-141581190D02*
X144278573Y-141485952D01*
X144326192Y-141438333D01*
X144421430Y-141390714D01*
X144516669Y-141390714D01*
D12*
X120885716Y-139592857D02*
X121100002Y-139664286D01*
X121171430Y-139735714D01*
X121242859Y-139878571D01*
X121242859Y-140092857D01*
X121171430Y-140235714D01*
X121100002Y-140307143D01*
X120957144Y-140378571D01*
X120385716Y-140378571D01*
X120385716Y-138878571D01*
X120885716Y-138878571D01*
X121028573Y-138950000D01*
X121100002Y-139021429D01*
X121171430Y-139164286D01*
X121171430Y-139307143D01*
X121100002Y-139450000D01*
X121028573Y-139521429D01*
X120885716Y-139592857D01*
X120385716Y-139592857D01*
X122528573Y-139378571D02*
X122528573Y-140378571D01*
X121885716Y-139378571D02*
X121885716Y-140164286D01*
X121957144Y-140307143D01*
X122100002Y-140378571D01*
X122314287Y-140378571D01*
X122457144Y-140307143D01*
X122528573Y-140235714D01*
X123242859Y-140378571D02*
X123242859Y-139378571D01*
X123242859Y-138878571D02*
X123171430Y-138950000D01*
X123242859Y-139021429D01*
X123314287Y-138950000D01*
X123242859Y-138878571D01*
X123242859Y-139021429D01*
X124171431Y-140378571D02*
X124028573Y-140307143D01*
X123957145Y-140164286D01*
X123957145Y-138878571D01*
X125385716Y-140378571D02*
X125385716Y-138878571D01*
X125385716Y-140307143D02*
X125242859Y-140378571D01*
X124957145Y-140378571D01*
X124814287Y-140307143D01*
X124742859Y-140235714D01*
X124671430Y-140092857D01*
X124671430Y-139664286D01*
X124742859Y-139521429D01*
X124814287Y-139450000D01*
X124957145Y-139378571D01*
X125242859Y-139378571D01*
X125385716Y-139450000D01*
X127885716Y-140378571D02*
X127885716Y-139592857D01*
X127814287Y-139450000D01*
X127671430Y-139378571D01*
X127385716Y-139378571D01*
X127242859Y-139450000D01*
X127885716Y-140307143D02*
X127742859Y-140378571D01*
X127385716Y-140378571D01*
X127242859Y-140307143D01*
X127171430Y-140164286D01*
X127171430Y-140021429D01*
X127242859Y-139878571D01*
X127385716Y-139807143D01*
X127742859Y-139807143D01*
X127885716Y-139735714D01*
X130385716Y-138878571D02*
X130100002Y-138878571D01*
X129957145Y-138950000D01*
X129885716Y-139021429D01*
X129742859Y-139235714D01*
X129671430Y-139521429D01*
X129671430Y-140092857D01*
X129742859Y-140235714D01*
X129814287Y-140307143D01*
X129957145Y-140378571D01*
X130242859Y-140378571D01*
X130385716Y-140307143D01*
X130457145Y-140235714D01*
X130528573Y-140092857D01*
X130528573Y-139735714D01*
X130457145Y-139592857D01*
X130385716Y-139521429D01*
X130242859Y-139450000D01*
X129957145Y-139450000D01*
X129814287Y-139521429D01*
X129742859Y-139592857D01*
X129671430Y-139735714D01*
X131885716Y-138878571D02*
X131171430Y-138878571D01*
X131100001Y-139592857D01*
X131171430Y-139521429D01*
X131314287Y-139450000D01*
X131671430Y-139450000D01*
X131814287Y-139521429D01*
X131885716Y-139592857D01*
X131957144Y-139735714D01*
X131957144Y-140092857D01*
X131885716Y-140235714D01*
X131814287Y-140307143D01*
X131671430Y-140378571D01*
X131314287Y-140378571D01*
X131171430Y-140307143D01*
X131100001Y-140235714D01*
X132885715Y-138878571D02*
X133028572Y-138878571D01*
X133171429Y-138950000D01*
X133242858Y-139021429D01*
X133314287Y-139164286D01*
X133385715Y-139450000D01*
X133385715Y-139807143D01*
X133314287Y-140092857D01*
X133242858Y-140235714D01*
X133171429Y-140307143D01*
X133028572Y-140378571D01*
X132885715Y-140378571D01*
X132742858Y-140307143D01*
X132671429Y-140235714D01*
X132600001Y-140092857D01*
X132528572Y-139807143D01*
X132528572Y-139450000D01*
X132600001Y-139164286D01*
X132671429Y-139021429D01*
X132742858Y-138950000D01*
X132885715Y-138878571D01*
X133957143Y-139021429D02*
X134028572Y-138950000D01*
X134171429Y-138878571D01*
X134528572Y-138878571D01*
X134671429Y-138950000D01*
X134742858Y-139021429D01*
X134814286Y-139164286D01*
X134814286Y-139307143D01*
X134742858Y-139521429D01*
X133885715Y-140378571D01*
X134814286Y-140378571D01*
X137242857Y-140307143D02*
X137100000Y-140378571D01*
X136814286Y-140378571D01*
X136671428Y-140307143D01*
X136600000Y-140235714D01*
X136528571Y-140092857D01*
X136528571Y-139664286D01*
X136600000Y-139521429D01*
X136671428Y-139450000D01*
X136814286Y-139378571D01*
X137100000Y-139378571D01*
X137242857Y-139450000D01*
X138100000Y-140378571D02*
X137957142Y-140307143D01*
X137885714Y-140235714D01*
X137814285Y-140092857D01*
X137814285Y-139664286D01*
X137885714Y-139521429D01*
X137957142Y-139450000D01*
X138100000Y-139378571D01*
X138314285Y-139378571D01*
X138457142Y-139450000D01*
X138528571Y-139521429D01*
X138600000Y-139664286D01*
X138600000Y-140092857D01*
X138528571Y-140235714D01*
X138457142Y-140307143D01*
X138314285Y-140378571D01*
X138100000Y-140378571D01*
X139242857Y-140378571D02*
X139242857Y-139378571D01*
X139242857Y-139521429D02*
X139314285Y-139450000D01*
X139457143Y-139378571D01*
X139671428Y-139378571D01*
X139814285Y-139450000D01*
X139885714Y-139592857D01*
X139885714Y-140378571D01*
X139885714Y-139592857D02*
X139957143Y-139450000D01*
X140100000Y-139378571D01*
X140314285Y-139378571D01*
X140457143Y-139450000D01*
X140528571Y-139592857D01*
X140528571Y-140378571D01*
X141242857Y-139378571D02*
X141242857Y-140878571D01*
X141242857Y-139450000D02*
X141385714Y-139378571D01*
X141671428Y-139378571D01*
X141814285Y-139450000D01*
X141885714Y-139521429D01*
X141957143Y-139664286D01*
X141957143Y-140092857D01*
X141885714Y-140235714D01*
X141814285Y-140307143D01*
X141671428Y-140378571D01*
X141385714Y-140378571D01*
X141242857Y-140307143D01*
X143242857Y-139378571D02*
X143242857Y-140378571D01*
X142600000Y-139378571D02*
X142600000Y-140164286D01*
X142671428Y-140307143D01*
X142814286Y-140378571D01*
X143028571Y-140378571D01*
X143171428Y-140307143D01*
X143242857Y-140235714D01*
X143742857Y-139378571D02*
X144314286Y-139378571D01*
X143957143Y-138878571D02*
X143957143Y-140164286D01*
X144028571Y-140307143D01*
X144171429Y-140378571D01*
X144314286Y-140378571D01*
X145385714Y-140307143D02*
X145242857Y-140378571D01*
X144957143Y-140378571D01*
X144814286Y-140307143D01*
X144742857Y-140164286D01*
X144742857Y-139592857D01*
X144814286Y-139450000D01*
X144957143Y-139378571D01*
X145242857Y-139378571D01*
X145385714Y-139450000D01*
X145457143Y-139592857D01*
X145457143Y-139735714D01*
X144742857Y-139878571D01*
X146100000Y-140378571D02*
X146100000Y-139378571D01*
X146100000Y-139664286D02*
X146171428Y-139521429D01*
X146242857Y-139450000D01*
X146385714Y-139378571D01*
X146528571Y-139378571D01*
D13*
X199450000Y-146855000D02*
X100270000Y-146855000D01*
X100270000Y-146855000D02*
X100270000Y-149515000D01*
X100270000Y-149515000D02*
X199450000Y-149515000D01*
X199450000Y-149515000D02*
X199450000Y-146855000D01*
X198500000Y-149515000D02*
X198500000Y-155515000D01*
X198500000Y-155515000D02*
X197740000Y-155515000D01*
X197740000Y-155515000D02*
X197740000Y-149515000D01*
X198440000Y-149515000D02*
X198440000Y-155515000D01*
X198320000Y-149515000D02*
X198320000Y-155515000D01*
X198200000Y-149515000D02*
X198200000Y-155515000D01*
X198080000Y-149515000D02*
X198080000Y-155515000D01*
X197960000Y-149515000D02*
X197960000Y-155515000D01*
X197840000Y-149515000D02*
X197840000Y-155515000D01*
X198500000Y-146525000D02*
X198500000Y-146855000D01*
X197740000Y-146525000D02*
X197740000Y-146855000D01*
X196850000Y-146855000D02*
X196850000Y-149515000D01*
X195960000Y-149515000D02*
X195960000Y-155515000D01*
X195960000Y-155515000D02*
X195200000Y-155515000D01*
X195200000Y-155515000D02*
X195200000Y-149515000D01*
X195960000Y-146457929D02*
X195960000Y-146855000D01*
X195200000Y-146457929D02*
X195200000Y-146855000D01*
X194310000Y-146855000D02*
X194310000Y-149515000D01*
X193420000Y-149515000D02*
X193420000Y-155515000D01*
X193420000Y-155515000D02*
X192660000Y-155515000D01*
X192660000Y-155515000D02*
X192660000Y-149515000D01*
X193420000Y-146457929D02*
X193420000Y-146855000D01*
X192660000Y-146457929D02*
X192660000Y-146855000D01*
X191770000Y-146855000D02*
X191770000Y-149515000D01*
X190880000Y-149515000D02*
X190880000Y-155515000D01*
X190880000Y-155515000D02*
X190120000Y-155515000D01*
X190120000Y-155515000D02*
X190120000Y-149515000D01*
X190880000Y-146457929D02*
X190880000Y-146855000D01*
X190120000Y-146457929D02*
X190120000Y-146855000D01*
X189230000Y-146855000D02*
X189230000Y-149515000D01*
X188340000Y-149515000D02*
X188340000Y-155515000D01*
X188340000Y-155515000D02*
X187580000Y-155515000D01*
X187580000Y-155515000D02*
X187580000Y-149515000D01*
X188340000Y-146457929D02*
X188340000Y-146855000D01*
X187580000Y-146457929D02*
X187580000Y-146855000D01*
X186690000Y-146855000D02*
X186690000Y-149515000D01*
X185800000Y-149515000D02*
X185800000Y-155515000D01*
X185800000Y-155515000D02*
X185040000Y-155515000D01*
X185040000Y-155515000D02*
X185040000Y-149515000D01*
X185800000Y-146457929D02*
X185800000Y-146855000D01*
X185040000Y-146457929D02*
X185040000Y-146855000D01*
X184150000Y-146855000D02*
X184150000Y-149515000D01*
X183260000Y-149515000D02*
X183260000Y-155515000D01*
X183260000Y-155515000D02*
X182500000Y-155515000D01*
X182500000Y-155515000D02*
X182500000Y-149515000D01*
X183260000Y-146457929D02*
X183260000Y-146855000D01*
X182500000Y-146457929D02*
X182500000Y-146855000D01*
X181610000Y-146855000D02*
X181610000Y-149515000D01*
X180720000Y-149515000D02*
X180720000Y-155515000D01*
X180720000Y-155515000D02*
X179960000Y-155515000D01*
X179960000Y-155515000D02*
X179960000Y-149515000D01*
X180720000Y-146457929D02*
X180720000Y-146855000D01*
X179960000Y-146457929D02*
X179960000Y-146855000D01*
X179070000Y-146855000D02*
X179070000Y-149515000D01*
X178180000Y-149515000D02*
X178180000Y-155515000D01*
X178180000Y-155515000D02*
X177420000Y-155515000D01*
X177420000Y-155515000D02*
X177420000Y-149515000D01*
X178180000Y-146457929D02*
X178180000Y-146855000D01*
X177420000Y-146457929D02*
X177420000Y-146855000D01*
X176530000Y-146855000D02*
X176530000Y-149515000D01*
X175640000Y-149515000D02*
X175640000Y-155515000D01*
X175640000Y-155515000D02*
X174880000Y-155515000D01*
X174880000Y-155515000D02*
X174880000Y-149515000D01*
X175640000Y-146457929D02*
X175640000Y-146855000D01*
X174880000Y-146457929D02*
X174880000Y-146855000D01*
X173990000Y-146855000D02*
X173990000Y-149515000D01*
X173100000Y-149515000D02*
X173100000Y-155515000D01*
X173100000Y-155515000D02*
X172340000Y-155515000D01*
X172340000Y-155515000D02*
X172340000Y-149515000D01*
X173100000Y-146457929D02*
X173100000Y-146855000D01*
X172340000Y-146457929D02*
X172340000Y-146855000D01*
X171450000Y-146855000D02*
X171450000Y-149515000D01*
X170560000Y-149515000D02*
X170560000Y-155515000D01*
X170560000Y-155515000D02*
X169800000Y-155515000D01*
X169800000Y-155515000D02*
X169800000Y-149515000D01*
X170560000Y-146457929D02*
X170560000Y-146855000D01*
X169800000Y-146457929D02*
X169800000Y-146855000D01*
X168910000Y-146855000D02*
X168910000Y-149515000D01*
X168020000Y-149515000D02*
X168020000Y-155515000D01*
X168020000Y-155515000D02*
X167260000Y-155515000D01*
X167260000Y-155515000D02*
X167260000Y-149515000D01*
X168020000Y-146457929D02*
X168020000Y-146855000D01*
X167260000Y-146457929D02*
X167260000Y-146855000D01*
X166370000Y-146855000D02*
X166370000Y-149515000D01*
X165480000Y-149515000D02*
X165480000Y-155515000D01*
X165480000Y-155515000D02*
X164720000Y-155515000D01*
X164720000Y-155515000D02*
X164720000Y-149515000D01*
X165480000Y-146457929D02*
X165480000Y-146855000D01*
X164720000Y-146457929D02*
X164720000Y-146855000D01*
X163830000Y-146855000D02*
X163830000Y-149515000D01*
X162940000Y-149515000D02*
X162940000Y-155515000D01*
X162940000Y-155515000D02*
X162180000Y-155515000D01*
X162180000Y-155515000D02*
X162180000Y-149515000D01*
X162940000Y-146457929D02*
X162940000Y-146855000D01*
X162180000Y-146457929D02*
X162180000Y-146855000D01*
X161290000Y-146855000D02*
X161290000Y-149515000D01*
X160400000Y-149515000D02*
X160400000Y-155515000D01*
X160400000Y-155515000D02*
X159640000Y-155515000D01*
X159640000Y-155515000D02*
X159640000Y-149515000D01*
X160400000Y-146457929D02*
X160400000Y-146855000D01*
X159640000Y-146457929D02*
X159640000Y-146855000D01*
X158750000Y-146855000D02*
X158750000Y-149515000D01*
X157860000Y-149515000D02*
X157860000Y-155515000D01*
X157860000Y-155515000D02*
X157100000Y-155515000D01*
X157100000Y-155515000D02*
X157100000Y-149515000D01*
X157860000Y-146457929D02*
X157860000Y-146855000D01*
X157100000Y-146457929D02*
X157100000Y-146855000D01*
X156210000Y-146855000D02*
X156210000Y-149515000D01*
X155320000Y-149515000D02*
X155320000Y-155515000D01*
X155320000Y-155515000D02*
X154560000Y-155515000D01*
X154560000Y-155515000D02*
X154560000Y-149515000D01*
X155320000Y-146457929D02*
X155320000Y-146855000D01*
X154560000Y-146457929D02*
X154560000Y-146855000D01*
X153670000Y-146855000D02*
X153670000Y-149515000D01*
X152780000Y-149515000D02*
X152780000Y-155515000D01*
X152780000Y-155515000D02*
X152020000Y-155515000D01*
X152020000Y-155515000D02*
X152020000Y-149515000D01*
X152780000Y-146457929D02*
X152780000Y-146855000D01*
X152020000Y-146457929D02*
X152020000Y-146855000D01*
X151130000Y-146855000D02*
X151130000Y-149515000D01*
X150240000Y-149515000D02*
X150240000Y-155515000D01*
X150240000Y-155515000D02*
X149480000Y-155515000D01*
X149480000Y-155515000D02*
X149480000Y-149515000D01*
X150240000Y-146457929D02*
X150240000Y-146855000D01*
X149480000Y-146457929D02*
X149480000Y-146855000D01*
X148590000Y-146855000D02*
X148590000Y-149515000D01*
X147700000Y-149515000D02*
X147700000Y-155515000D01*
X147700000Y-155515000D02*
X146940000Y-155515000D01*
X146940000Y-155515000D02*
X146940000Y-149515000D01*
X147700000Y-146457929D02*
X147700000Y-146855000D01*
X146940000Y-146457929D02*
X146940000Y-146855000D01*
X146050000Y-146855000D02*
X146050000Y-149515000D01*
X145160000Y-149515000D02*
X145160000Y-155515000D01*
X145160000Y-155515000D02*
X144400000Y-155515000D01*
X144400000Y-155515000D02*
X144400000Y-149515000D01*
X145160000Y-146457929D02*
X145160000Y-146855000D01*
X144400000Y-146457929D02*
X144400000Y-146855000D01*
X143510000Y-146855000D02*
X143510000Y-149515000D01*
X142620000Y-149515000D02*
X142620000Y-155515000D01*
X142620000Y-155515000D02*
X141860000Y-155515000D01*
X141860000Y-155515000D02*
X141860000Y-149515000D01*
X142620000Y-146457929D02*
X142620000Y-146855000D01*
X141860000Y-146457929D02*
X141860000Y-146855000D01*
X140970000Y-146855000D02*
X140970000Y-149515000D01*
X140080000Y-149515000D02*
X140080000Y-155515000D01*
X140080000Y-155515000D02*
X139320000Y-155515000D01*
X139320000Y-155515000D02*
X139320000Y-149515000D01*
X140080000Y-146457929D02*
X140080000Y-146855000D01*
X139320000Y-146457929D02*
X139320000Y-146855000D01*
X138430000Y-146855000D02*
X138430000Y-149515000D01*
X137540000Y-149515000D02*
X137540000Y-155515000D01*
X137540000Y-155515000D02*
X136780000Y-155515000D01*
X136780000Y-155515000D02*
X136780000Y-149515000D01*
X137540000Y-146457929D02*
X137540000Y-146855000D01*
X136780000Y-146457929D02*
X136780000Y-146855000D01*
X135890000Y-146855000D02*
X135890000Y-149515000D01*
X135000000Y-149515000D02*
X135000000Y-155515000D01*
X135000000Y-155515000D02*
X134240000Y-155515000D01*
X134240000Y-155515000D02*
X134240000Y-149515000D01*
X135000000Y-146457929D02*
X135000000Y-146855000D01*
X134240000Y-146457929D02*
X134240000Y-146855000D01*
X133350000Y-146855000D02*
X133350000Y-149515000D01*
X132460000Y-149515000D02*
X132460000Y-155515000D01*
X132460000Y-155515000D02*
X131700000Y-155515000D01*
X131700000Y-155515000D02*
X131700000Y-149515000D01*
X132460000Y-146457929D02*
X132460000Y-146855000D01*
X131700000Y-146457929D02*
X131700000Y-146855000D01*
X130810000Y-146855000D02*
X130810000Y-149515000D01*
X129920000Y-149515000D02*
X129920000Y-155515000D01*
X129920000Y-155515000D02*
X129160000Y-155515000D01*
X129160000Y-155515000D02*
X129160000Y-149515000D01*
X129920000Y-146457929D02*
X129920000Y-146855000D01*
X129160000Y-146457929D02*
X129160000Y-146855000D01*
X128270000Y-146855000D02*
X128270000Y-149515000D01*
X127380000Y-149515000D02*
X127380000Y-155515000D01*
X127380000Y-155515000D02*
X126620000Y-155515000D01*
X126620000Y-155515000D02*
X126620000Y-149515000D01*
X127380000Y-146457929D02*
X127380000Y-146855000D01*
X126620000Y-146457929D02*
X126620000Y-146855000D01*
X125730000Y-146855000D02*
X125730000Y-149515000D01*
X124840000Y-149515000D02*
X124840000Y-155515000D01*
X124840000Y-155515000D02*
X124080000Y-155515000D01*
X124080000Y-155515000D02*
X124080000Y-149515000D01*
X124840000Y-146457929D02*
X124840000Y-146855000D01*
X124080000Y-146457929D02*
X124080000Y-146855000D01*
X123190000Y-146855000D02*
X123190000Y-149515000D01*
X122300000Y-149515000D02*
X122300000Y-155515000D01*
X122300000Y-155515000D02*
X121540000Y-155515000D01*
X121540000Y-155515000D02*
X121540000Y-149515000D01*
X122300000Y-146457929D02*
X122300000Y-146855000D01*
X121540000Y-146457929D02*
X121540000Y-146855000D01*
X120650000Y-146855000D02*
X120650000Y-149515000D01*
X119760000Y-149515000D02*
X119760000Y-155515000D01*
X119760000Y-155515000D02*
X119000000Y-155515000D01*
X119000000Y-155515000D02*
X119000000Y-149515000D01*
X119760000Y-146457929D02*
X119760000Y-146855000D01*
X119000000Y-146457929D02*
X119000000Y-146855000D01*
X118110000Y-146855000D02*
X118110000Y-149515000D01*
X117220000Y-149515000D02*
X117220000Y-155515000D01*
X117220000Y-155515000D02*
X116460000Y-155515000D01*
X116460000Y-155515000D02*
X116460000Y-149515000D01*
X117220000Y-146457929D02*
X117220000Y-146855000D01*
X116460000Y-146457929D02*
X116460000Y-146855000D01*
X115570000Y-146855000D02*
X115570000Y-149515000D01*
X114680000Y-149515000D02*
X114680000Y-155515000D01*
X114680000Y-155515000D02*
X113920000Y-155515000D01*
X113920000Y-155515000D02*
X113920000Y-149515000D01*
X114680000Y-146457929D02*
X114680000Y-146855000D01*
X113920000Y-146457929D02*
X113920000Y-146855000D01*
X113030000Y-146855000D02*
X113030000Y-149515000D01*
X112140000Y-149515000D02*
X112140000Y-155515000D01*
X112140000Y-155515000D02*
X111380000Y-155515000D01*
X111380000Y-155515000D02*
X111380000Y-149515000D01*
X112140000Y-146457929D02*
X112140000Y-146855000D01*
X111380000Y-146457929D02*
X111380000Y-146855000D01*
X110490000Y-146855000D02*
X110490000Y-149515000D01*
X109600000Y-149515000D02*
X109600000Y-155515000D01*
X109600000Y-155515000D02*
X108840000Y-155515000D01*
X108840000Y-155515000D02*
X108840000Y-149515000D01*
X109600000Y-146457929D02*
X109600000Y-146855000D01*
X108840000Y-146457929D02*
X108840000Y-146855000D01*
X107950000Y-146855000D02*
X107950000Y-149515000D01*
X107060000Y-149515000D02*
X107060000Y-155515000D01*
X107060000Y-155515000D02*
X106300000Y-155515000D01*
X106300000Y-155515000D02*
X106300000Y-149515000D01*
X107060000Y-146457929D02*
X107060000Y-146855000D01*
X106300000Y-146457929D02*
X106300000Y-146855000D01*
X105410000Y-146855000D02*
X105410000Y-149515000D01*
X104520000Y-149515000D02*
X104520000Y-155515000D01*
X104520000Y-155515000D02*
X103760000Y-155515000D01*
X103760000Y-155515000D02*
X103760000Y-149515000D01*
X104520000Y-146457929D02*
X104520000Y-146855000D01*
X103760000Y-146457929D02*
X103760000Y-146855000D01*
X102870000Y-146855000D02*
X102870000Y-149515000D01*
X101980000Y-149515000D02*
X101980000Y-155515000D01*
X101980000Y-155515000D02*
X101220000Y-155515000D01*
X101220000Y-155515000D02*
X101220000Y-149515000D01*
X101980000Y-146457929D02*
X101980000Y-146855000D01*
X101220000Y-146457929D02*
X101220000Y-146855000D01*
X198120000Y-144145000D02*
X199390000Y-144145000D01*
X199390000Y-144145000D02*
X199390000Y-145415000D01*
X103585000Y-64925000D02*
X94785000Y-64925000D01*
X94785000Y-64925000D02*
X94785000Y-55725000D01*
X109485000Y-62225000D02*
X109485000Y-64925000D01*
X109485000Y-64925000D02*
X107585000Y-64925000D01*
X94785000Y-55725000D02*
X109485000Y-55725000D01*
X109485000Y-55725000D02*
X109485000Y-58325000D01*
X106426000Y-140335000D02*
G75*
G03X106426000Y-140335000I-2286000J0D01*
G01*
X197866000Y-140335000D02*
G75*
G03X197866000Y-140335000I-2286000J0D01*
G01*
X197866000Y-52070000D02*
G75*
G03X197866000Y-52070000I-2286000J0D01*
G01*
X106426000Y-52070000D02*
G75*
G03X106426000Y-52070000I-2286000J0D01*
G01*
X132040000Y-104050000D02*
X132040000Y-99230000D01*
X134660000Y-104050000D02*
X134660000Y-99230000D01*
X132040000Y-104050000D02*
X132354000Y-104050000D01*
X134346000Y-104050000D02*
X134660000Y-104050000D01*
X132040000Y-99230000D02*
X132354000Y-99230000D01*
X134346000Y-99230000D02*
X134660000Y-99230000D01*
X180380000Y-86450000D02*
X180380000Y-91270000D01*
X177760000Y-86450000D02*
X177760000Y-91270000D01*
X180380000Y-86450000D02*
X180066000Y-86450000D01*
X178074000Y-86450000D02*
X177760000Y-86450000D01*
X180380000Y-91270000D02*
X180066000Y-91270000D01*
X178074000Y-91270000D02*
X177760000Y-91270000D01*
X198030000Y-83860000D02*
X193210000Y-83860000D01*
X198030000Y-81240000D02*
X193210000Y-81240000D01*
X198030000Y-83860000D02*
X198030000Y-83546000D01*
X198030000Y-81554000D02*
X198030000Y-81240000D01*
X193210000Y-83860000D02*
X193210000Y-83546000D01*
X193210000Y-81554000D02*
X193210000Y-81240000D01*
X109180000Y-134530000D02*
X109180000Y-129710000D01*
X111800000Y-134530000D02*
X111800000Y-129710000D01*
X109180000Y-134530000D02*
X109494000Y-134530000D01*
X111486000Y-134530000D02*
X111800000Y-134530000D01*
X109180000Y-129710000D02*
X109494000Y-129710000D01*
X111486000Y-129710000D02*
X111800000Y-129710000D01*
X163740000Y-57825000D02*
X158920000Y-57825000D01*
X163740000Y-55205000D02*
X158920000Y-55205000D01*
X163740000Y-57825000D02*
X163740000Y-57511000D01*
X163740000Y-55519000D02*
X163740000Y-55205000D01*
X158920000Y-57825000D02*
X158920000Y-57511000D01*
X158920000Y-55519000D02*
X158920000Y-55205000D01*
X146775000Y-62825000D02*
X151595000Y-62825000D01*
X146775000Y-65445000D02*
X151595000Y-65445000D01*
X146775000Y-62825000D02*
X146775000Y-63139000D01*
X146775000Y-65131000D02*
X146775000Y-65445000D01*
X151595000Y-62825000D02*
X151595000Y-63139000D01*
X151595000Y-65131000D02*
X151595000Y-65445000D01*
X109160000Y-125790000D02*
X111820000Y-125790000D01*
X109160000Y-123190000D02*
X109160000Y-125790000D01*
X111820000Y-123190000D02*
X111820000Y-125790000D01*
X109160000Y-123190000D02*
X111820000Y-123190000D01*
X109160000Y-121920000D02*
X109160000Y-120590000D01*
X109160000Y-120590000D02*
X110490000Y-120590000D01*
X152435000Y-78780000D02*
X152435000Y-76160000D01*
X152435000Y-76160000D02*
X146015000Y-76160000D01*
X146015000Y-76160000D02*
X146015000Y-78780000D01*
X146015000Y-78780000D02*
X152435000Y-78780000D01*
X153325000Y-77470000D02*
X152435000Y-77470000D01*
X145125000Y-77470000D02*
X146015000Y-77470000D01*
X152435000Y-75605000D02*
X152435000Y-72985000D01*
X152435000Y-72985000D02*
X146015000Y-72985000D01*
X146015000Y-72985000D02*
X146015000Y-75605000D01*
X146015000Y-75605000D02*
X152435000Y-75605000D01*
X153325000Y-74295000D02*
X152435000Y-74295000D01*
X145125000Y-74295000D02*
X146015000Y-74295000D01*
X152435000Y-72430000D02*
X152435000Y-69810000D01*
X152435000Y-69810000D02*
X146015000Y-69810000D01*
X146015000Y-69810000D02*
X146015000Y-72430000D01*
X146015000Y-72430000D02*
X152435000Y-72430000D01*
X153325000Y-71120000D02*
X152435000Y-71120000D01*
X145125000Y-71120000D02*
X146015000Y-71120000D01*
X170780000Y-76160000D02*
X170780000Y-78780000D01*
X170780000Y-78780000D02*
X177200000Y-78780000D01*
X177200000Y-78780000D02*
X177200000Y-76160000D01*
X177200000Y-76160000D02*
X170780000Y-76160000D01*
X169890000Y-77470000D02*
X170780000Y-77470000D01*
X178090000Y-77470000D02*
X177200000Y-77470000D01*
X170780000Y-63460000D02*
X170780000Y-66080000D01*
X170780000Y-66080000D02*
X177200000Y-66080000D01*
X177200000Y-66080000D02*
X177200000Y-63460000D01*
X177200000Y-63460000D02*
X170780000Y-63460000D01*
X169890000Y-64770000D02*
X170780000Y-64770000D01*
X178090000Y-64770000D02*
X177200000Y-64770000D01*
X170780000Y-66635000D02*
X170780000Y-69255000D01*
X170780000Y-69255000D02*
X177200000Y-69255000D01*
X177200000Y-69255000D02*
X177200000Y-66635000D01*
X177200000Y-66635000D02*
X170780000Y-66635000D01*
X169890000Y-67945000D02*
X170780000Y-67945000D01*
X178090000Y-67945000D02*
X177200000Y-67945000D01*
X117440000Y-53935000D02*
X117440000Y-56555000D01*
X117440000Y-56555000D02*
X123860000Y-56555000D01*
X123860000Y-56555000D02*
X123860000Y-53935000D01*
X123860000Y-53935000D02*
X117440000Y-53935000D01*
X116550000Y-55245000D02*
X117440000Y-55245000D01*
X124750000Y-55245000D02*
X123860000Y-55245000D01*
X117440000Y-57110000D02*
X117440000Y-59730000D01*
X117440000Y-59730000D02*
X123860000Y-59730000D01*
X123860000Y-59730000D02*
X123860000Y-57110000D01*
X123860000Y-57110000D02*
X117440000Y-57110000D01*
X116550000Y-58420000D02*
X117440000Y-58420000D01*
X124750000Y-58420000D02*
X123860000Y-58420000D01*
X117440000Y-60285000D02*
X117440000Y-62905000D01*
X117440000Y-62905000D02*
X123860000Y-62905000D01*
X123860000Y-62905000D02*
X123860000Y-60285000D01*
X123860000Y-60285000D02*
X117440000Y-60285000D01*
X116550000Y-61595000D02*
X117440000Y-61595000D01*
X124750000Y-61595000D02*
X123860000Y-61595000D01*
X141590000Y-57495000D02*
X129440000Y-57495000D01*
X142340000Y-77645000D02*
X142340000Y-58245000D01*
X130190000Y-78395000D02*
X141590000Y-78395000D01*
X129440000Y-57495000D02*
X129440000Y-77645000D01*
X129440000Y-77645000D02*
G75*
G03X130190000Y-78395000I750000J0D01*
G01*
X141590000Y-78395000D02*
G75*
G03X142340000Y-77645000I0J750000D01*
G01*
X142340000Y-58245000D02*
G75*
G03X141590000Y-57495000I-750000J0D01*
G01*
X101785000Y-85089538D02*
G75*
G03X107335000Y-86634830I2990000J-462D01*
G01*
X101785000Y-85090462D02*
G75*
G02X107335000Y-83545170I2990000J462D01*
G01*
X107275000Y-85090000D02*
G75*
G03X107275000Y-85090000I-2500000J0D01*
G01*
X107335000Y-86635000D02*
X107335000Y-83545000D01*
X101785000Y-92074538D02*
G75*
G03X107335000Y-93619830I2990000J-462D01*
G01*
X101785000Y-92075462D02*
G75*
G02X107335000Y-90530170I2990000J462D01*
G01*
X107275000Y-92075000D02*
G75*
G03X107275000Y-92075000I-2500000J0D01*
G01*
X107335000Y-93620000D02*
X107335000Y-90530000D01*
X101785000Y-99059538D02*
G75*
G03X107335000Y-100604830I2990000J-462D01*
G01*
X101785000Y-99060462D02*
G75*
G02X107335000Y-97515170I2990000J462D01*
G01*
X107275000Y-99060000D02*
G75*
G03X107275000Y-99060000I-2500000J0D01*
G01*
X107335000Y-100605000D02*
X107335000Y-97515000D01*
X101785000Y-106044538D02*
G75*
G03X107335000Y-107589830I2990000J-462D01*
G01*
X101785000Y-106045462D02*
G75*
G02X107335000Y-104500170I2990000J462D01*
G01*
X107275000Y-106045000D02*
G75*
G03X107275000Y-106045000I-2500000J0D01*
G01*
X107335000Y-107590000D02*
X107335000Y-104500000D01*
X101785000Y-113029538D02*
G75*
G03X107335000Y-114574830I2990000J-462D01*
G01*
X101785000Y-113030462D02*
G75*
G02X107335000Y-111485170I2990000J462D01*
G01*
X107275000Y-113030000D02*
G75*
G03X107275000Y-113030000I-2500000J0D01*
G01*
X107335000Y-114575000D02*
X107335000Y-111485000D01*
X101785000Y-120014538D02*
G75*
G03X107335000Y-121559830I2990000J-462D01*
G01*
X101785000Y-120015462D02*
G75*
G02X107335000Y-118470170I2990000J462D01*
G01*
X107275000Y-120015000D02*
G75*
G03X107275000Y-120015000I-2500000J0D01*
G01*
X107335000Y-121560000D02*
X107335000Y-118470000D01*
X101785000Y-126999538D02*
G75*
G03X107335000Y-128544830I2990000J-462D01*
G01*
X101785000Y-127000462D02*
G75*
G02X107335000Y-125455170I2990000J462D01*
G01*
X107275000Y-127000000D02*
G75*
G03X107275000Y-127000000I-2500000J0D01*
G01*
X107335000Y-128545000D02*
X107335000Y-125455000D01*
X101785000Y-133984538D02*
G75*
G03X107335000Y-135529830I2990000J-462D01*
G01*
X101785000Y-133985462D02*
G75*
G02X107335000Y-132440170I2990000J462D01*
G01*
X107275000Y-133985000D02*
G75*
G03X107275000Y-133985000I-2500000J0D01*
G01*
X107335000Y-135530000D02*
X107335000Y-132440000D01*
X109160000Y-115630000D02*
X111820000Y-115630000D01*
X109160000Y-110490000D02*
X109160000Y-115630000D01*
X111820000Y-110490000D02*
X111820000Y-115630000D01*
X109160000Y-110490000D02*
X111820000Y-110490000D01*
X109160000Y-109220000D02*
X109160000Y-107890000D01*
X109160000Y-107890000D02*
X110490000Y-107890000D01*
X152435000Y-69255000D02*
X152435000Y-66635000D01*
X152435000Y-66635000D02*
X146015000Y-66635000D01*
X146015000Y-66635000D02*
X146015000Y-69255000D01*
X146015000Y-69255000D02*
X152435000Y-69255000D01*
X153325000Y-67945000D02*
X152435000Y-67945000D01*
X145125000Y-67945000D02*
X146015000Y-67945000D01*
X170780000Y-69810000D02*
X170780000Y-72430000D01*
X170780000Y-72430000D02*
X177200000Y-72430000D01*
X177200000Y-72430000D02*
X177200000Y-69810000D01*
X177200000Y-69810000D02*
X170780000Y-69810000D01*
X169890000Y-71120000D02*
X170780000Y-71120000D01*
X178090000Y-71120000D02*
X177200000Y-71120000D01*
X170780000Y-72985000D02*
X170780000Y-75605000D01*
X170780000Y-75605000D02*
X177200000Y-75605000D01*
X177200000Y-75605000D02*
X177200000Y-72985000D01*
X177200000Y-72985000D02*
X170780000Y-72985000D01*
X169890000Y-74295000D02*
X170780000Y-74295000D01*
X178090000Y-74295000D02*
X177200000Y-74295000D01*
X117440000Y-63460000D02*
X117440000Y-66080000D01*
X117440000Y-66080000D02*
X123860000Y-66080000D01*
X123860000Y-66080000D02*
X123860000Y-63460000D01*
X123860000Y-63460000D02*
X117440000Y-63460000D01*
X116550000Y-64770000D02*
X117440000Y-64770000D01*
X124750000Y-64770000D02*
X123860000Y-64770000D01*
X117440000Y-66635000D02*
X117440000Y-69255000D01*
X117440000Y-69255000D02*
X123860000Y-69255000D01*
X123860000Y-69255000D02*
X123860000Y-66635000D01*
X123860000Y-66635000D02*
X117440000Y-66635000D01*
X116550000Y-67945000D02*
X117440000Y-67945000D01*
X124750000Y-67945000D02*
X123860000Y-67945000D01*
X117440000Y-69810000D02*
X117440000Y-72430000D01*
X117440000Y-72430000D02*
X123860000Y-72430000D01*
X123860000Y-72430000D02*
X123860000Y-69810000D01*
X123860000Y-69810000D02*
X117440000Y-69810000D01*
X116550000Y-71120000D02*
X117440000Y-71120000D01*
X124750000Y-71120000D02*
X123860000Y-71120000D01*
X117440000Y-72985000D02*
X117440000Y-75605000D01*
X117440000Y-75605000D02*
X123860000Y-75605000D01*
X123860000Y-75605000D02*
X123860000Y-72985000D01*
X123860000Y-72985000D02*
X117440000Y-72985000D01*
X116550000Y-74295000D02*
X117440000Y-74295000D01*
X124750000Y-74295000D02*
X123860000Y-74295000D01*
X117440000Y-76160000D02*
X117440000Y-78780000D01*
X117440000Y-78780000D02*
X123860000Y-78780000D01*
X123860000Y-78780000D02*
X123860000Y-76160000D01*
X123860000Y-76160000D02*
X117440000Y-76160000D01*
X116550000Y-77470000D02*
X117440000Y-77470000D01*
X124750000Y-77470000D02*
X123860000Y-77470000D01*
X195575704Y-57505309D02*
G75*
G02X197885000Y-57465000I1154296J40309D01*
G01*
X197884052Y-57444879D02*
G75*
G02X196490000Y-58594000I-1154052J-20121D01*
G01*
X193110000Y-65785000D02*
X193110000Y-56135000D01*
X198061000Y-65785000D02*
X198061000Y-56135000D01*
X193110000Y-65785000D02*
X198061000Y-65785000D01*
X193110000Y-56135000D02*
X198061000Y-56135000D01*
X195996000Y-56589000D02*
X197606000Y-58200000D01*
X195855000Y-56729000D02*
X197465000Y-58341000D01*
X109005000Y-75835000D02*
X109005000Y-71335000D01*
X105005000Y-77085000D02*
X106505000Y-77085000D01*
X102505000Y-71335000D02*
X102505000Y-75835000D01*
X106505000Y-70085000D02*
X105005000Y-70085000D01*
X176895000Y-136310000D02*
X181395000Y-136310000D01*
X175645000Y-132310000D02*
X175645000Y-133810000D01*
X181395000Y-129810000D02*
X176895000Y-129810000D01*
X182645000Y-133810000D02*
X182645000Y-132310000D01*
X176895000Y-128690000D02*
X181395000Y-128690000D01*
X175645000Y-124690000D02*
X175645000Y-126190000D01*
X181395000Y-122190000D02*
X176895000Y-122190000D01*
X182645000Y-126190000D02*
X182645000Y-124690000D01*
X176895000Y-143930000D02*
X181395000Y-143930000D01*
X175645000Y-139930000D02*
X175645000Y-141430000D01*
X181395000Y-137430000D02*
X176895000Y-137430000D01*
X182645000Y-141430000D02*
X182645000Y-139930000D01*
X167370000Y-136310000D02*
X171870000Y-136310000D01*
X166120000Y-132310000D02*
X166120000Y-133810000D01*
X171870000Y-129810000D02*
X167370000Y-129810000D01*
X173120000Y-133810000D02*
X173120000Y-132310000D01*
X186420000Y-136310000D02*
X190920000Y-136310000D01*
X185170000Y-132310000D02*
X185170000Y-133810000D01*
X190920000Y-129810000D02*
X186420000Y-129810000D01*
X192170000Y-133810000D02*
X192170000Y-132310000D01*
X145780000Y-85030000D02*
G75*
G02X143780000Y-85030000I-1000000J0D01*
G01*
X143780000Y-85030000D02*
X138720000Y-85030000D01*
X138720000Y-85030000D02*
X138720000Y-135950000D01*
X138720000Y-135950000D02*
X150840000Y-135950000D01*
X150840000Y-135950000D02*
X150840000Y-85030000D01*
X150840000Y-85030000D02*
X145780000Y-85030000D01*
X135720000Y-84970000D02*
X135720000Y-136010000D01*
X135720000Y-136010000D02*
X153840000Y-136010000D01*
X153840000Y-136010000D02*
X153840000Y-84970000D01*
X153840000Y-84970000D02*
X135720000Y-84970000D01*
X168640000Y-85030000D02*
G75*
G02X166640000Y-85030000I-1000000J0D01*
G01*
X166640000Y-85030000D02*
X161580000Y-85030000D01*
X161580000Y-85030000D02*
X161580000Y-120710000D01*
X161580000Y-120710000D02*
X173700000Y-120710000D01*
X173700000Y-120710000D02*
X173700000Y-85030000D01*
X173700000Y-85030000D02*
X168640000Y-85030000D01*
X158580000Y-84970000D02*
X158580000Y-120770000D01*
X158580000Y-120770000D02*
X176700000Y-120770000D01*
X176700000Y-120770000D02*
X176700000Y-84970000D01*
X176700000Y-84970000D02*
X158580000Y-84970000D01*
X191500000Y-85030000D02*
G75*
G02X189500000Y-85030000I-1000000J0D01*
G01*
X189500000Y-85030000D02*
X184440000Y-85030000D01*
X184440000Y-85030000D02*
X184440000Y-120710000D01*
X184440000Y-120710000D02*
X196560000Y-120710000D01*
X196560000Y-120710000D02*
X196560000Y-85030000D01*
X196560000Y-85030000D02*
X191500000Y-85030000D01*
X181440000Y-84970000D02*
X181440000Y-120770000D01*
X181440000Y-120770000D02*
X199560000Y-120770000D01*
X199560000Y-120770000D02*
X199560000Y-84970000D01*
X199560000Y-84970000D02*
X181440000Y-84970000D01*
X122920000Y-85030000D02*
G75*
G02X120920000Y-85030000I-1000000J0D01*
G01*
X120920000Y-85030000D02*
X115860000Y-85030000D01*
X115860000Y-85030000D02*
X115860000Y-135950000D01*
X115860000Y-135950000D02*
X127980000Y-135950000D01*
X127980000Y-135950000D02*
X127980000Y-85030000D01*
X127980000Y-85030000D02*
X122920000Y-85030000D01*
X112860000Y-84970000D02*
X112860000Y-136010000D01*
X112860000Y-136010000D02*
X130980000Y-136010000D01*
X130980000Y-136010000D02*
X130980000Y-84970000D01*
X130980000Y-84970000D02*
X112860000Y-84970000D01*
X162290000Y-58995000D02*
G75*
G02X160290000Y-58995000I-1000000J0D01*
G01*
X160290000Y-58995000D02*
X159040000Y-58995000D01*
X159040000Y-58995000D02*
X159040000Y-76895000D01*
X159040000Y-76895000D02*
X163540000Y-76895000D01*
X163540000Y-76895000D02*
X163540000Y-58995000D01*
X163540000Y-58995000D02*
X162290000Y-58995000D01*
X156040000Y-58935000D02*
X156040000Y-76955000D01*
X156040000Y-76955000D02*
X166540000Y-76955000D01*
X166540000Y-76955000D02*
X166540000Y-58935000D01*
X166540000Y-58935000D02*
X156040000Y-58935000D01*
X111240000Y-84440000D02*
X191520000Y-84440000D01*
X191520000Y-84440000D02*
X191520000Y-48160000D01*
X191520000Y-48160000D02*
X112040000Y-48160000D01*
X111240000Y-48160000D02*
X111240000Y-84440000D01*
X111250000Y-48160000D02*
X112040000Y-48160000D01*
X117880000Y-47800000D02*
X120880000Y-47800000D01*
X119580000Y-58800000D02*
X183080000Y-58800000D01*
X119080280Y-73299320D02*
X119080280Y-59300000D01*
X183080660Y-73800000D02*
X119580000Y-73800000D01*
X183580000Y-59300000D02*
X183580000Y-73300000D01*
X183580000Y-59300000D02*
G75*
G03X183080000Y-58800000I-500000J0D01*
G01*
X183080660Y-73799700D02*
G75*
G03X183581040Y-73299320I0J500380D01*
G01*
X119080280Y-73299320D02*
G75*
G03X119580660Y-73799700I500380J0D01*
G01*
X119580660Y-58798460D02*
G75*
G03X119080280Y-59298840I0J-500380D01*
G01*
X114380000Y-53800000D02*
X187380000Y-53800000D01*
X187380000Y-53800000D02*
X187380000Y-78800000D01*
X187380000Y-78800000D02*
X114380000Y-78800000D01*
X114380000Y-78800000D02*
X114380000Y-53800000D01*
X196385000Y-67885000D02*
X196385000Y-78165000D01*
X196385000Y-78165000D02*
X199045000Y-78165000D01*
X199045000Y-78165000D02*
X199045000Y-67885000D01*
X199045000Y-67885000D02*
X196385000Y-67885000D01*
X199045000Y-68835000D02*
X205045000Y-68835000D01*
X205045000Y-68835000D02*
X205045000Y-69595000D01*
X205045000Y-69595000D02*
X199045000Y-69595000D01*
X199045000Y-68895000D02*
X205045000Y-68895000D01*
X199045000Y-69015000D02*
X205045000Y-69015000D01*
X199045000Y-69135000D02*
X205045000Y-69135000D01*
X199045000Y-69255000D02*
X205045000Y-69255000D01*
X199045000Y-69375000D02*
X205045000Y-69375000D01*
X199045000Y-69495000D02*
X205045000Y-69495000D01*
X196055000Y-68835000D02*
X196385000Y-68835000D01*
X196055000Y-69595000D02*
X196385000Y-69595000D01*
X196385000Y-70485000D02*
X199045000Y-70485000D01*
X199045000Y-71375000D02*
X205045000Y-71375000D01*
X205045000Y-71375000D02*
X205045000Y-72135000D01*
X205045000Y-72135000D02*
X199045000Y-72135000D01*
X195987929Y-71375000D02*
X196385000Y-71375000D01*
X195987929Y-72135000D02*
X196385000Y-72135000D01*
X196385000Y-73025000D02*
X199045000Y-73025000D01*
X199045000Y-73915000D02*
X205045000Y-73915000D01*
X205045000Y-73915000D02*
X205045000Y-74675000D01*
X205045000Y-74675000D02*
X199045000Y-74675000D01*
X195987929Y-73915000D02*
X196385000Y-73915000D01*
X195987929Y-74675000D02*
X196385000Y-74675000D01*
X196385000Y-75565000D02*
X199045000Y-75565000D01*
X199045000Y-76455000D02*
X205045000Y-76455000D01*
X205045000Y-76455000D02*
X205045000Y-77215000D01*
X205045000Y-77215000D02*
X199045000Y-77215000D01*
X195987929Y-76455000D02*
X196385000Y-76455000D01*
X195987929Y-77215000D02*
X196385000Y-77215000D01*
X193675000Y-69215000D02*
X193675000Y-67945000D01*
X193675000Y-67945000D02*
X194945000Y-67945000D01*
D11*
X199842381Y-150133333D02*
X200556667Y-150133333D01*
X200699524Y-150180953D01*
X200794762Y-150276191D01*
X200842381Y-150419048D01*
X200842381Y-150514286D01*
X200842381Y-149133333D02*
X200842381Y-149704762D01*
X200842381Y-149419048D02*
X199842381Y-149419048D01*
X199985238Y-149514286D01*
X200080476Y-149609524D01*
X200128095Y-149704762D01*
X96186667Y-60412381D02*
X96186667Y-61126667D01*
X96139047Y-61269524D01*
X96043809Y-61364762D01*
X95900952Y-61412381D01*
X95805714Y-61412381D01*
X96567619Y-60412381D02*
X97186667Y-60412381D01*
X96853333Y-60793333D01*
X96996191Y-60793333D01*
X97091429Y-60840952D01*
X97139048Y-60888571D01*
X97186667Y-60983810D01*
X97186667Y-61221905D01*
X97139048Y-61317143D01*
X97091429Y-61364762D01*
X96996191Y-61412381D01*
X96710476Y-61412381D01*
X96615238Y-61364762D01*
X96567619Y-61317143D01*
X133707143Y-101766666D02*
X133754762Y-101814285D01*
X133802381Y-101957142D01*
X133802381Y-102052380D01*
X133754762Y-102195238D01*
X133659524Y-102290476D01*
X133564286Y-102338095D01*
X133373810Y-102385714D01*
X133230952Y-102385714D01*
X133040476Y-102338095D01*
X132945238Y-102290476D01*
X132850000Y-102195238D01*
X132802381Y-102052380D01*
X132802381Y-101957142D01*
X132850000Y-101814285D01*
X132897619Y-101766666D01*
X133802381Y-100814285D02*
X133802381Y-101385714D01*
X133802381Y-101100000D02*
X132802381Y-101100000D01*
X132945238Y-101195238D01*
X133040476Y-101290476D01*
X133088095Y-101385714D01*
X179427143Y-89066666D02*
X179474762Y-89114285D01*
X179522381Y-89257142D01*
X179522381Y-89352380D01*
X179474762Y-89495238D01*
X179379524Y-89590476D01*
X179284286Y-89638095D01*
X179093810Y-89685714D01*
X178950952Y-89685714D01*
X178760476Y-89638095D01*
X178665238Y-89590476D01*
X178570000Y-89495238D01*
X178522381Y-89352380D01*
X178522381Y-89257142D01*
X178570000Y-89114285D01*
X178617619Y-89066666D01*
X178617619Y-88685714D02*
X178570000Y-88638095D01*
X178522381Y-88542857D01*
X178522381Y-88304761D01*
X178570000Y-88209523D01*
X178617619Y-88161904D01*
X178712857Y-88114285D01*
X178808095Y-88114285D01*
X178950952Y-88161904D01*
X179522381Y-88733333D01*
X179522381Y-88114285D01*
X195413334Y-82907143D02*
X195365715Y-82954762D01*
X195222858Y-83002381D01*
X195127620Y-83002381D01*
X194984762Y-82954762D01*
X194889524Y-82859524D01*
X194841905Y-82764286D01*
X194794286Y-82573810D01*
X194794286Y-82430952D01*
X194841905Y-82240476D01*
X194889524Y-82145238D01*
X194984762Y-82050000D01*
X195127620Y-82002381D01*
X195222858Y-82002381D01*
X195365715Y-82050000D01*
X195413334Y-82097619D01*
X195746667Y-82002381D02*
X196365715Y-82002381D01*
X196032381Y-82383333D01*
X196175239Y-82383333D01*
X196270477Y-82430952D01*
X196318096Y-82478571D01*
X196365715Y-82573810D01*
X196365715Y-82811905D01*
X196318096Y-82907143D01*
X196270477Y-82954762D01*
X196175239Y-83002381D01*
X195889524Y-83002381D01*
X195794286Y-82954762D01*
X195746667Y-82907143D01*
X110847143Y-132246666D02*
X110894762Y-132294285D01*
X110942381Y-132437142D01*
X110942381Y-132532380D01*
X110894762Y-132675238D01*
X110799524Y-132770476D01*
X110704286Y-132818095D01*
X110513810Y-132865714D01*
X110370952Y-132865714D01*
X110180476Y-132818095D01*
X110085238Y-132770476D01*
X109990000Y-132675238D01*
X109942381Y-132532380D01*
X109942381Y-132437142D01*
X109990000Y-132294285D01*
X110037619Y-132246666D01*
X110275714Y-131389523D02*
X110942381Y-131389523D01*
X109894762Y-131627619D02*
X110609048Y-131865714D01*
X110609048Y-131246666D01*
X161123334Y-56872143D02*
X161075715Y-56919762D01*
X160932858Y-56967381D01*
X160837620Y-56967381D01*
X160694762Y-56919762D01*
X160599524Y-56824524D01*
X160551905Y-56729286D01*
X160504286Y-56538810D01*
X160504286Y-56395952D01*
X160551905Y-56205476D01*
X160599524Y-56110238D01*
X160694762Y-56015000D01*
X160837620Y-55967381D01*
X160932858Y-55967381D01*
X161075715Y-56015000D01*
X161123334Y-56062619D01*
X162028096Y-55967381D02*
X161551905Y-55967381D01*
X161504286Y-56443571D01*
X161551905Y-56395952D01*
X161647143Y-56348333D01*
X161885239Y-56348333D01*
X161980477Y-56395952D01*
X162028096Y-56443571D01*
X162075715Y-56538810D01*
X162075715Y-56776905D01*
X162028096Y-56872143D01*
X161980477Y-56919762D01*
X161885239Y-56967381D01*
X161647143Y-56967381D01*
X161551905Y-56919762D01*
X161504286Y-56872143D01*
X149058334Y-64492143D02*
X149010715Y-64539762D01*
X148867858Y-64587381D01*
X148772620Y-64587381D01*
X148629762Y-64539762D01*
X148534524Y-64444524D01*
X148486905Y-64349286D01*
X148439286Y-64158810D01*
X148439286Y-64015952D01*
X148486905Y-63825476D01*
X148534524Y-63730238D01*
X148629762Y-63635000D01*
X148772620Y-63587381D01*
X148867858Y-63587381D01*
X149010715Y-63635000D01*
X149058334Y-63682619D01*
X149915477Y-63587381D02*
X149725000Y-63587381D01*
X149629762Y-63635000D01*
X149582143Y-63682619D01*
X149486905Y-63825476D01*
X149439286Y-64015952D01*
X149439286Y-64396905D01*
X149486905Y-64492143D01*
X149534524Y-64539762D01*
X149629762Y-64587381D01*
X149820239Y-64587381D01*
X149915477Y-64539762D01*
X149963096Y-64492143D01*
X150010715Y-64396905D01*
X150010715Y-64158810D01*
X149963096Y-64063571D01*
X149915477Y-64015952D01*
X149820239Y-63968333D01*
X149629762Y-63968333D01*
X149534524Y-64015952D01*
X149486905Y-64063571D01*
X149439286Y-64158810D01*
D10*
X108890000Y-127361905D02*
X108509047Y-127361905D01*
X108509047Y-126561905D01*
X109156666Y-126942857D02*
X109423333Y-126942857D01*
X109537619Y-127361905D02*
X109156666Y-127361905D01*
X109156666Y-126561905D01*
X109537619Y-126561905D01*
X109880476Y-127361905D02*
X109880476Y-126561905D01*
X110070952Y-126561905D01*
X110185238Y-126600000D01*
X110261429Y-126676190D01*
X110299524Y-126752381D01*
X110337619Y-126904762D01*
X110337619Y-127019048D01*
X110299524Y-127171429D01*
X110261429Y-127247619D01*
X110185238Y-127323810D01*
X110070952Y-127361905D01*
X109880476Y-127361905D01*
X110490000Y-127438095D02*
X111099524Y-127438095D01*
X111290000Y-126942857D02*
X111556667Y-126942857D01*
X111670953Y-127361905D02*
X111290000Y-127361905D01*
X111290000Y-126561905D01*
X111670953Y-126561905D01*
X112013810Y-127361905D02*
X112013810Y-126561905D01*
X112470953Y-127361905D01*
X112470953Y-126561905D01*
D11*
X147772381Y-77636666D02*
X147296190Y-77970000D01*
X147772381Y-78208095D02*
X146772381Y-78208095D01*
X146772381Y-77827142D01*
X146820000Y-77731904D01*
X146867619Y-77684285D01*
X146962857Y-77636666D01*
X147105714Y-77636666D01*
X147200952Y-77684285D01*
X147248571Y-77731904D01*
X147296190Y-77827142D01*
X147296190Y-78208095D01*
X147772381Y-76684285D02*
X147772381Y-77255714D01*
X147772381Y-76970000D02*
X146772381Y-76970000D01*
X146915238Y-77065238D01*
X147010476Y-77160476D01*
X147058095Y-77255714D01*
X149280714Y-76922381D02*
X149899762Y-76922381D01*
X149566428Y-77303333D01*
X149709286Y-77303333D01*
X149804524Y-77350952D01*
X149852143Y-77398571D01*
X149899762Y-77493810D01*
X149899762Y-77731905D01*
X149852143Y-77827143D01*
X149804524Y-77874762D01*
X149709286Y-77922381D01*
X149423571Y-77922381D01*
X149328333Y-77874762D01*
X149280714Y-77827143D01*
X150328333Y-77922381D02*
X150328333Y-76922381D01*
X150423571Y-77541429D02*
X150709286Y-77922381D01*
X150709286Y-77255714D02*
X150328333Y-77636667D01*
X151042619Y-76922381D02*
X151661667Y-76922381D01*
X151328333Y-77303333D01*
X151471191Y-77303333D01*
X151566429Y-77350952D01*
X151614048Y-77398571D01*
X151661667Y-77493810D01*
X151661667Y-77731905D01*
X151614048Y-77827143D01*
X151566429Y-77874762D01*
X151471191Y-77922381D01*
X151185476Y-77922381D01*
X151090238Y-77874762D01*
X151042619Y-77827143D01*
X147772381Y-74461666D02*
X147296190Y-74795000D01*
X147772381Y-75033095D02*
X146772381Y-75033095D01*
X146772381Y-74652142D01*
X146820000Y-74556904D01*
X146867619Y-74509285D01*
X146962857Y-74461666D01*
X147105714Y-74461666D01*
X147200952Y-74509285D01*
X147248571Y-74556904D01*
X147296190Y-74652142D01*
X147296190Y-75033095D01*
X146867619Y-74080714D02*
X146820000Y-74033095D01*
X146772381Y-73937857D01*
X146772381Y-73699761D01*
X146820000Y-73604523D01*
X146867619Y-73556904D01*
X146962857Y-73509285D01*
X147058095Y-73509285D01*
X147200952Y-73556904D01*
X147772381Y-74128333D01*
X147772381Y-73509285D01*
X149280714Y-73747381D02*
X149899762Y-73747381D01*
X149566428Y-74128333D01*
X149709286Y-74128333D01*
X149804524Y-74175952D01*
X149852143Y-74223571D01*
X149899762Y-74318810D01*
X149899762Y-74556905D01*
X149852143Y-74652143D01*
X149804524Y-74699762D01*
X149709286Y-74747381D01*
X149423571Y-74747381D01*
X149328333Y-74699762D01*
X149280714Y-74652143D01*
X150328333Y-74747381D02*
X150328333Y-73747381D01*
X150423571Y-74366429D02*
X150709286Y-74747381D01*
X150709286Y-74080714D02*
X150328333Y-74461667D01*
X151042619Y-73747381D02*
X151661667Y-73747381D01*
X151328333Y-74128333D01*
X151471191Y-74128333D01*
X151566429Y-74175952D01*
X151614048Y-74223571D01*
X151661667Y-74318810D01*
X151661667Y-74556905D01*
X151614048Y-74652143D01*
X151566429Y-74699762D01*
X151471191Y-74747381D01*
X151185476Y-74747381D01*
X151090238Y-74699762D01*
X151042619Y-74652143D01*
X147772381Y-71286666D02*
X147296190Y-71620000D01*
X147772381Y-71858095D02*
X146772381Y-71858095D01*
X146772381Y-71477142D01*
X146820000Y-71381904D01*
X146867619Y-71334285D01*
X146962857Y-71286666D01*
X147105714Y-71286666D01*
X147200952Y-71334285D01*
X147248571Y-71381904D01*
X147296190Y-71477142D01*
X147296190Y-71858095D01*
X146772381Y-70953333D02*
X146772381Y-70334285D01*
X147153333Y-70667619D01*
X147153333Y-70524761D01*
X147200952Y-70429523D01*
X147248571Y-70381904D01*
X147343810Y-70334285D01*
X147581905Y-70334285D01*
X147677143Y-70381904D01*
X147724762Y-70429523D01*
X147772381Y-70524761D01*
X147772381Y-70810476D01*
X147724762Y-70905714D01*
X147677143Y-70953333D01*
X149042619Y-70572381D02*
X149661667Y-70572381D01*
X149328333Y-70953333D01*
X149471191Y-70953333D01*
X149566429Y-71000952D01*
X149614048Y-71048571D01*
X149661667Y-71143810D01*
X149661667Y-71381905D01*
X149614048Y-71477143D01*
X149566429Y-71524762D01*
X149471191Y-71572381D01*
X149185476Y-71572381D01*
X149090238Y-71524762D01*
X149042619Y-71477143D01*
X150090238Y-71477143D02*
X150137857Y-71524762D01*
X150090238Y-71572381D01*
X150042619Y-71524762D01*
X150090238Y-71477143D01*
X150090238Y-71572381D01*
X150471190Y-70572381D02*
X151090238Y-70572381D01*
X150756904Y-70953333D01*
X150899762Y-70953333D01*
X150995000Y-71000952D01*
X151042619Y-71048571D01*
X151090238Y-71143810D01*
X151090238Y-71381905D01*
X151042619Y-71477143D01*
X150995000Y-71524762D01*
X150899762Y-71572381D01*
X150614047Y-71572381D01*
X150518809Y-71524762D01*
X150471190Y-71477143D01*
X151518809Y-71572381D02*
X151518809Y-70572381D01*
X151614047Y-71191429D02*
X151899762Y-71572381D01*
X151899762Y-70905714D02*
X151518809Y-71286667D01*
X172537381Y-77636666D02*
X172061190Y-77970000D01*
X172537381Y-78208095D02*
X171537381Y-78208095D01*
X171537381Y-77827142D01*
X171585000Y-77731904D01*
X171632619Y-77684285D01*
X171727857Y-77636666D01*
X171870714Y-77636666D01*
X171965952Y-77684285D01*
X172013571Y-77731904D01*
X172061190Y-77827142D01*
X172061190Y-78208095D01*
X171537381Y-76779523D02*
X171537381Y-76970000D01*
X171585000Y-77065238D01*
X171632619Y-77112857D01*
X171775476Y-77208095D01*
X171965952Y-77255714D01*
X172346905Y-77255714D01*
X172442143Y-77208095D01*
X172489762Y-77160476D01*
X172537381Y-77065238D01*
X172537381Y-76874761D01*
X172489762Y-76779523D01*
X172442143Y-76731904D01*
X172346905Y-76684285D01*
X172108810Y-76684285D01*
X172013571Y-76731904D01*
X171965952Y-76779523D01*
X171918333Y-76874761D01*
X171918333Y-77065238D01*
X171965952Y-77160476D01*
X172013571Y-77208095D01*
X172108810Y-77255714D01*
X175140953Y-77922381D02*
X174569524Y-77922381D01*
X174855238Y-77922381D02*
X174855238Y-76922381D01*
X174760000Y-77065238D01*
X174664762Y-77160476D01*
X174569524Y-77208095D01*
X175569524Y-77922381D02*
X175569524Y-76922381D01*
X175664762Y-77541429D02*
X175950477Y-77922381D01*
X175950477Y-77255714D02*
X175569524Y-77636667D01*
X172537381Y-64936666D02*
X172061190Y-65270000D01*
X172537381Y-65508095D02*
X171537381Y-65508095D01*
X171537381Y-65127142D01*
X171585000Y-65031904D01*
X171632619Y-64984285D01*
X171727857Y-64936666D01*
X171870714Y-64936666D01*
X171965952Y-64984285D01*
X172013571Y-65031904D01*
X172061190Y-65127142D01*
X172061190Y-65508095D01*
X171537381Y-64603333D02*
X171537381Y-63936666D01*
X172537381Y-64365238D01*
X175140953Y-65222381D02*
X174569524Y-65222381D01*
X174855238Y-65222381D02*
X174855238Y-64222381D01*
X174760000Y-64365238D01*
X174664762Y-64460476D01*
X174569524Y-64508095D01*
X175569524Y-65222381D02*
X175569524Y-64222381D01*
X175664762Y-64841429D02*
X175950477Y-65222381D01*
X175950477Y-64555714D02*
X175569524Y-64936667D01*
X172537381Y-68111666D02*
X172061190Y-68445000D01*
X172537381Y-68683095D02*
X171537381Y-68683095D01*
X171537381Y-68302142D01*
X171585000Y-68206904D01*
X171632619Y-68159285D01*
X171727857Y-68111666D01*
X171870714Y-68111666D01*
X171965952Y-68159285D01*
X172013571Y-68206904D01*
X172061190Y-68302142D01*
X172061190Y-68683095D01*
X172537381Y-67635476D02*
X172537381Y-67445000D01*
X172489762Y-67349761D01*
X172442143Y-67302142D01*
X172299286Y-67206904D01*
X172108810Y-67159285D01*
X171727857Y-67159285D01*
X171632619Y-67206904D01*
X171585000Y-67254523D01*
X171537381Y-67349761D01*
X171537381Y-67540238D01*
X171585000Y-67635476D01*
X171632619Y-67683095D01*
X171727857Y-67730714D01*
X171965952Y-67730714D01*
X172061190Y-67683095D01*
X172108810Y-67635476D01*
X172156429Y-67540238D01*
X172156429Y-67349761D01*
X172108810Y-67254523D01*
X172061190Y-67206904D01*
X171965952Y-67159285D01*
X175140953Y-68397381D02*
X174569524Y-68397381D01*
X174855238Y-68397381D02*
X174855238Y-67397381D01*
X174760000Y-67540238D01*
X174664762Y-67635476D01*
X174569524Y-67683095D01*
X175569524Y-68397381D02*
X175569524Y-67397381D01*
X175664762Y-68016429D02*
X175950477Y-68397381D01*
X175950477Y-67730714D02*
X175569524Y-68111667D01*
X119197381Y-55887857D02*
X118721190Y-56221191D01*
X119197381Y-56459286D02*
X118197381Y-56459286D01*
X118197381Y-56078333D01*
X118245000Y-55983095D01*
X118292619Y-55935476D01*
X118387857Y-55887857D01*
X118530714Y-55887857D01*
X118625952Y-55935476D01*
X118673571Y-55983095D01*
X118721190Y-56078333D01*
X118721190Y-56459286D01*
X119197381Y-54935476D02*
X119197381Y-55506905D01*
X119197381Y-55221191D02*
X118197381Y-55221191D01*
X118340238Y-55316429D01*
X118435476Y-55411667D01*
X118483095Y-55506905D01*
X118197381Y-54316429D02*
X118197381Y-54221190D01*
X118245000Y-54125952D01*
X118292619Y-54078333D01*
X118387857Y-54030714D01*
X118578333Y-53983095D01*
X118816429Y-53983095D01*
X119006905Y-54030714D01*
X119102143Y-54078333D01*
X119149762Y-54125952D01*
X119197381Y-54221190D01*
X119197381Y-54316429D01*
X119149762Y-54411667D01*
X119102143Y-54459286D01*
X119006905Y-54506905D01*
X118816429Y-54554524D01*
X118578333Y-54554524D01*
X118387857Y-54506905D01*
X118292619Y-54459286D01*
X118245000Y-54411667D01*
X118197381Y-54316429D01*
X120681905Y-54792619D02*
X120729524Y-54745000D01*
X120824762Y-54697381D01*
X121062858Y-54697381D01*
X121158096Y-54745000D01*
X121205715Y-54792619D01*
X121253334Y-54887857D01*
X121253334Y-54983095D01*
X121205715Y-55125952D01*
X120634286Y-55697381D01*
X121253334Y-55697381D01*
X121634286Y-54792619D02*
X121681905Y-54745000D01*
X121777143Y-54697381D01*
X122015239Y-54697381D01*
X122110477Y-54745000D01*
X122158096Y-54792619D01*
X122205715Y-54887857D01*
X122205715Y-54983095D01*
X122158096Y-55125952D01*
X121586667Y-55697381D01*
X122205715Y-55697381D01*
X122824762Y-54697381D02*
X122920001Y-54697381D01*
X123015239Y-54745000D01*
X123062858Y-54792619D01*
X123110477Y-54887857D01*
X123158096Y-55078333D01*
X123158096Y-55316429D01*
X123110477Y-55506905D01*
X123062858Y-55602143D01*
X123015239Y-55649762D01*
X122920001Y-55697381D01*
X122824762Y-55697381D01*
X122729524Y-55649762D01*
X122681905Y-55602143D01*
X122634286Y-55506905D01*
X122586667Y-55316429D01*
X122586667Y-55078333D01*
X122634286Y-54887857D01*
X122681905Y-54792619D01*
X122729524Y-54745000D01*
X122824762Y-54697381D01*
X119197381Y-59062857D02*
X118721190Y-59396191D01*
X119197381Y-59634286D02*
X118197381Y-59634286D01*
X118197381Y-59253333D01*
X118245000Y-59158095D01*
X118292619Y-59110476D01*
X118387857Y-59062857D01*
X118530714Y-59062857D01*
X118625952Y-59110476D01*
X118673571Y-59158095D01*
X118721190Y-59253333D01*
X118721190Y-59634286D01*
X119197381Y-58110476D02*
X119197381Y-58681905D01*
X119197381Y-58396191D02*
X118197381Y-58396191D01*
X118340238Y-58491429D01*
X118435476Y-58586667D01*
X118483095Y-58681905D01*
X119197381Y-57158095D02*
X119197381Y-57729524D01*
X119197381Y-57443810D02*
X118197381Y-57443810D01*
X118340238Y-57539048D01*
X118435476Y-57634286D01*
X118483095Y-57729524D01*
X120681905Y-57967619D02*
X120729524Y-57920000D01*
X120824762Y-57872381D01*
X121062858Y-57872381D01*
X121158096Y-57920000D01*
X121205715Y-57967619D01*
X121253334Y-58062857D01*
X121253334Y-58158095D01*
X121205715Y-58300952D01*
X120634286Y-58872381D01*
X121253334Y-58872381D01*
X121634286Y-57967619D02*
X121681905Y-57920000D01*
X121777143Y-57872381D01*
X122015239Y-57872381D01*
X122110477Y-57920000D01*
X122158096Y-57967619D01*
X122205715Y-58062857D01*
X122205715Y-58158095D01*
X122158096Y-58300952D01*
X121586667Y-58872381D01*
X122205715Y-58872381D01*
X122824762Y-57872381D02*
X122920001Y-57872381D01*
X123015239Y-57920000D01*
X123062858Y-57967619D01*
X123110477Y-58062857D01*
X123158096Y-58253333D01*
X123158096Y-58491429D01*
X123110477Y-58681905D01*
X123062858Y-58777143D01*
X123015239Y-58824762D01*
X122920001Y-58872381D01*
X122824762Y-58872381D01*
X122729524Y-58824762D01*
X122681905Y-58777143D01*
X122634286Y-58681905D01*
X122586667Y-58491429D01*
X122586667Y-58253333D01*
X122634286Y-58062857D01*
X122681905Y-57967619D01*
X122729524Y-57920000D01*
X122824762Y-57872381D01*
X119197381Y-62237857D02*
X118721190Y-62571191D01*
X119197381Y-62809286D02*
X118197381Y-62809286D01*
X118197381Y-62428333D01*
X118245000Y-62333095D01*
X118292619Y-62285476D01*
X118387857Y-62237857D01*
X118530714Y-62237857D01*
X118625952Y-62285476D01*
X118673571Y-62333095D01*
X118721190Y-62428333D01*
X118721190Y-62809286D01*
X119197381Y-61285476D02*
X119197381Y-61856905D01*
X119197381Y-61571191D02*
X118197381Y-61571191D01*
X118340238Y-61666429D01*
X118435476Y-61761667D01*
X118483095Y-61856905D01*
X118292619Y-60904524D02*
X118245000Y-60856905D01*
X118197381Y-60761667D01*
X118197381Y-60523571D01*
X118245000Y-60428333D01*
X118292619Y-60380714D01*
X118387857Y-60333095D01*
X118483095Y-60333095D01*
X118625952Y-60380714D01*
X119197381Y-60952143D01*
X119197381Y-60333095D01*
X120681905Y-61142619D02*
X120729524Y-61095000D01*
X120824762Y-61047381D01*
X121062858Y-61047381D01*
X121158096Y-61095000D01*
X121205715Y-61142619D01*
X121253334Y-61237857D01*
X121253334Y-61333095D01*
X121205715Y-61475952D01*
X120634286Y-62047381D01*
X121253334Y-62047381D01*
X121634286Y-61142619D02*
X121681905Y-61095000D01*
X121777143Y-61047381D01*
X122015239Y-61047381D01*
X122110477Y-61095000D01*
X122158096Y-61142619D01*
X122205715Y-61237857D01*
X122205715Y-61333095D01*
X122158096Y-61475952D01*
X121586667Y-62047381D01*
X122205715Y-62047381D01*
X122824762Y-61047381D02*
X122920001Y-61047381D01*
X123015239Y-61095000D01*
X123062858Y-61142619D01*
X123110477Y-61237857D01*
X123158096Y-61428333D01*
X123158096Y-61666429D01*
X123110477Y-61856905D01*
X123062858Y-61952143D01*
X123015239Y-61999762D01*
X122920001Y-62047381D01*
X122824762Y-62047381D01*
X122729524Y-61999762D01*
X122681905Y-61952143D01*
X122634286Y-61856905D01*
X122586667Y-61666429D01*
X122586667Y-61428333D01*
X122634286Y-61237857D01*
X122681905Y-61142619D01*
X122729524Y-61095000D01*
X122824762Y-61047381D01*
X139152381Y-68754524D02*
X140152381Y-68087857D01*
X139152381Y-68087857D02*
X140152381Y-68754524D01*
X140152381Y-67183095D02*
X140152381Y-67754524D01*
X140152381Y-67468810D02*
X139152381Y-67468810D01*
X139295238Y-67564048D01*
X139390476Y-67659286D01*
X139438095Y-67754524D01*
X136342381Y-69159285D02*
X136342381Y-69730714D01*
X136342381Y-69445000D02*
X135342381Y-69445000D01*
X135485238Y-69540238D01*
X135580476Y-69635476D01*
X135628095Y-69730714D01*
X136342381Y-68730714D02*
X135342381Y-68730714D01*
X136056667Y-68397380D01*
X135342381Y-68064047D01*
X136342381Y-68064047D01*
X136342381Y-67587857D02*
X135342381Y-67587857D01*
X135818571Y-67587857D02*
X135818571Y-67016428D01*
X136342381Y-67016428D02*
X135342381Y-67016428D01*
X135675714Y-66635476D02*
X135675714Y-66111666D01*
X136342381Y-66635476D01*
X136342381Y-66111666D01*
D10*
X108851905Y-117201905D02*
X108470952Y-117201905D01*
X108470952Y-116401905D01*
X109575714Y-117125714D02*
X109537619Y-117163810D01*
X109423333Y-117201905D01*
X109347143Y-117201905D01*
X109232857Y-117163810D01*
X109156666Y-117087619D01*
X109118571Y-117011429D01*
X109080476Y-116859048D01*
X109080476Y-116744762D01*
X109118571Y-116592381D01*
X109156666Y-116516190D01*
X109232857Y-116440000D01*
X109347143Y-116401905D01*
X109423333Y-116401905D01*
X109537619Y-116440000D01*
X109575714Y-116478095D01*
X109918571Y-117201905D02*
X109918571Y-116401905D01*
X110109047Y-116401905D01*
X110223333Y-116440000D01*
X110299524Y-116516190D01*
X110337619Y-116592381D01*
X110375714Y-116744762D01*
X110375714Y-116859048D01*
X110337619Y-117011429D01*
X110299524Y-117087619D01*
X110223333Y-117163810D01*
X110109047Y-117201905D01*
X109918571Y-117201905D01*
X110528095Y-117278095D02*
X111137619Y-117278095D01*
X111328095Y-116782857D02*
X111594762Y-116782857D01*
X111709048Y-117201905D02*
X111328095Y-117201905D01*
X111328095Y-116401905D01*
X111709048Y-116401905D01*
X112051905Y-117201905D02*
X112051905Y-116401905D01*
X112509048Y-117201905D01*
X112509048Y-116401905D01*
D11*
X147772381Y-68111666D02*
X147296190Y-68445000D01*
X147772381Y-68683095D02*
X146772381Y-68683095D01*
X146772381Y-68302142D01*
X146820000Y-68206904D01*
X146867619Y-68159285D01*
X146962857Y-68111666D01*
X147105714Y-68111666D01*
X147200952Y-68159285D01*
X147248571Y-68206904D01*
X147296190Y-68302142D01*
X147296190Y-68683095D01*
X147105714Y-67254523D02*
X147772381Y-67254523D01*
X146724762Y-67492619D02*
X147439048Y-67730714D01*
X147439048Y-67111666D01*
X150375953Y-68397381D02*
X149804524Y-68397381D01*
X150090238Y-68397381D02*
X150090238Y-67397381D01*
X149995000Y-67540238D01*
X149899762Y-67635476D01*
X149804524Y-67683095D01*
X150804524Y-68397381D02*
X150804524Y-67397381D01*
X150899762Y-68016429D02*
X151185477Y-68397381D01*
X151185477Y-67730714D02*
X150804524Y-68111667D01*
X172537381Y-71286666D02*
X172061190Y-71620000D01*
X172537381Y-71858095D02*
X171537381Y-71858095D01*
X171537381Y-71477142D01*
X171585000Y-71381904D01*
X171632619Y-71334285D01*
X171727857Y-71286666D01*
X171870714Y-71286666D01*
X171965952Y-71334285D01*
X172013571Y-71381904D01*
X172061190Y-71477142D01*
X172061190Y-71858095D01*
X171537381Y-70381904D02*
X171537381Y-70858095D01*
X172013571Y-70905714D01*
X171965952Y-70858095D01*
X171918333Y-70762857D01*
X171918333Y-70524761D01*
X171965952Y-70429523D01*
X172013571Y-70381904D01*
X172108810Y-70334285D01*
X172346905Y-70334285D01*
X172442143Y-70381904D01*
X172489762Y-70429523D01*
X172537381Y-70524761D01*
X172537381Y-70762857D01*
X172489762Y-70858095D01*
X172442143Y-70905714D01*
X175140953Y-71572381D02*
X174569524Y-71572381D01*
X174855238Y-71572381D02*
X174855238Y-70572381D01*
X174760000Y-70715238D01*
X174664762Y-70810476D01*
X174569524Y-70858095D01*
X175569524Y-71572381D02*
X175569524Y-70572381D01*
X175664762Y-71191429D02*
X175950477Y-71572381D01*
X175950477Y-70905714D02*
X175569524Y-71286667D01*
X172537381Y-74461666D02*
X172061190Y-74795000D01*
X172537381Y-75033095D02*
X171537381Y-75033095D01*
X171537381Y-74652142D01*
X171585000Y-74556904D01*
X171632619Y-74509285D01*
X171727857Y-74461666D01*
X171870714Y-74461666D01*
X171965952Y-74509285D01*
X172013571Y-74556904D01*
X172061190Y-74652142D01*
X172061190Y-75033095D01*
X171965952Y-73890238D02*
X171918333Y-73985476D01*
X171870714Y-74033095D01*
X171775476Y-74080714D01*
X171727857Y-74080714D01*
X171632619Y-74033095D01*
X171585000Y-73985476D01*
X171537381Y-73890238D01*
X171537381Y-73699761D01*
X171585000Y-73604523D01*
X171632619Y-73556904D01*
X171727857Y-73509285D01*
X171775476Y-73509285D01*
X171870714Y-73556904D01*
X171918333Y-73604523D01*
X171965952Y-73699761D01*
X171965952Y-73890238D01*
X172013571Y-73985476D01*
X172061190Y-74033095D01*
X172156429Y-74080714D01*
X172346905Y-74080714D01*
X172442143Y-74033095D01*
X172489762Y-73985476D01*
X172537381Y-73890238D01*
X172537381Y-73699761D01*
X172489762Y-73604523D01*
X172442143Y-73556904D01*
X172346905Y-73509285D01*
X172156429Y-73509285D01*
X172061190Y-73556904D01*
X172013571Y-73604523D01*
X171965952Y-73699761D01*
X175140953Y-74747381D02*
X174569524Y-74747381D01*
X174855238Y-74747381D02*
X174855238Y-73747381D01*
X174760000Y-73890238D01*
X174664762Y-73985476D01*
X174569524Y-74033095D01*
X175569524Y-74747381D02*
X175569524Y-73747381D01*
X175664762Y-74366429D02*
X175950477Y-74747381D01*
X175950477Y-74080714D02*
X175569524Y-74461667D01*
X119197381Y-65412857D02*
X118721190Y-65746191D01*
X119197381Y-65984286D02*
X118197381Y-65984286D01*
X118197381Y-65603333D01*
X118245000Y-65508095D01*
X118292619Y-65460476D01*
X118387857Y-65412857D01*
X118530714Y-65412857D01*
X118625952Y-65460476D01*
X118673571Y-65508095D01*
X118721190Y-65603333D01*
X118721190Y-65984286D01*
X119197381Y-64460476D02*
X119197381Y-65031905D01*
X119197381Y-64746191D02*
X118197381Y-64746191D01*
X118340238Y-64841429D01*
X118435476Y-64936667D01*
X118483095Y-65031905D01*
X118197381Y-64127143D02*
X118197381Y-63508095D01*
X118578333Y-63841429D01*
X118578333Y-63698571D01*
X118625952Y-63603333D01*
X118673571Y-63555714D01*
X118768810Y-63508095D01*
X119006905Y-63508095D01*
X119102143Y-63555714D01*
X119149762Y-63603333D01*
X119197381Y-63698571D01*
X119197381Y-63984286D01*
X119149762Y-64079524D01*
X119102143Y-64127143D01*
X120681905Y-64317619D02*
X120729524Y-64270000D01*
X120824762Y-64222381D01*
X121062858Y-64222381D01*
X121158096Y-64270000D01*
X121205715Y-64317619D01*
X121253334Y-64412857D01*
X121253334Y-64508095D01*
X121205715Y-64650952D01*
X120634286Y-65222381D01*
X121253334Y-65222381D01*
X121634286Y-64317619D02*
X121681905Y-64270000D01*
X121777143Y-64222381D01*
X122015239Y-64222381D01*
X122110477Y-64270000D01*
X122158096Y-64317619D01*
X122205715Y-64412857D01*
X122205715Y-64508095D01*
X122158096Y-64650952D01*
X121586667Y-65222381D01*
X122205715Y-65222381D01*
X122824762Y-64222381D02*
X122920001Y-64222381D01*
X123015239Y-64270000D01*
X123062858Y-64317619D01*
X123110477Y-64412857D01*
X123158096Y-64603333D01*
X123158096Y-64841429D01*
X123110477Y-65031905D01*
X123062858Y-65127143D01*
X123015239Y-65174762D01*
X122920001Y-65222381D01*
X122824762Y-65222381D01*
X122729524Y-65174762D01*
X122681905Y-65127143D01*
X122634286Y-65031905D01*
X122586667Y-64841429D01*
X122586667Y-64603333D01*
X122634286Y-64412857D01*
X122681905Y-64317619D01*
X122729524Y-64270000D01*
X122824762Y-64222381D01*
X119197381Y-68587857D02*
X118721190Y-68921191D01*
X119197381Y-69159286D02*
X118197381Y-69159286D01*
X118197381Y-68778333D01*
X118245000Y-68683095D01*
X118292619Y-68635476D01*
X118387857Y-68587857D01*
X118530714Y-68587857D01*
X118625952Y-68635476D01*
X118673571Y-68683095D01*
X118721190Y-68778333D01*
X118721190Y-69159286D01*
X119197381Y-67635476D02*
X119197381Y-68206905D01*
X119197381Y-67921191D02*
X118197381Y-67921191D01*
X118340238Y-68016429D01*
X118435476Y-68111667D01*
X118483095Y-68206905D01*
X118530714Y-66778333D02*
X119197381Y-66778333D01*
X118149762Y-67016429D02*
X118864048Y-67254524D01*
X118864048Y-66635476D01*
X120681905Y-67492619D02*
X120729524Y-67445000D01*
X120824762Y-67397381D01*
X121062858Y-67397381D01*
X121158096Y-67445000D01*
X121205715Y-67492619D01*
X121253334Y-67587857D01*
X121253334Y-67683095D01*
X121205715Y-67825952D01*
X120634286Y-68397381D01*
X121253334Y-68397381D01*
X121634286Y-67492619D02*
X121681905Y-67445000D01*
X121777143Y-67397381D01*
X122015239Y-67397381D01*
X122110477Y-67445000D01*
X122158096Y-67492619D01*
X122205715Y-67587857D01*
X122205715Y-67683095D01*
X122158096Y-67825952D01*
X121586667Y-68397381D01*
X122205715Y-68397381D01*
X122824762Y-67397381D02*
X122920001Y-67397381D01*
X123015239Y-67445000D01*
X123062858Y-67492619D01*
X123110477Y-67587857D01*
X123158096Y-67778333D01*
X123158096Y-68016429D01*
X123110477Y-68206905D01*
X123062858Y-68302143D01*
X123015239Y-68349762D01*
X122920001Y-68397381D01*
X122824762Y-68397381D01*
X122729524Y-68349762D01*
X122681905Y-68302143D01*
X122634286Y-68206905D01*
X122586667Y-68016429D01*
X122586667Y-67778333D01*
X122634286Y-67587857D01*
X122681905Y-67492619D01*
X122729524Y-67445000D01*
X122824762Y-67397381D01*
X119197381Y-71762857D02*
X118721190Y-72096191D01*
X119197381Y-72334286D02*
X118197381Y-72334286D01*
X118197381Y-71953333D01*
X118245000Y-71858095D01*
X118292619Y-71810476D01*
X118387857Y-71762857D01*
X118530714Y-71762857D01*
X118625952Y-71810476D01*
X118673571Y-71858095D01*
X118721190Y-71953333D01*
X118721190Y-72334286D01*
X119197381Y-70810476D02*
X119197381Y-71381905D01*
X119197381Y-71096191D02*
X118197381Y-71096191D01*
X118340238Y-71191429D01*
X118435476Y-71286667D01*
X118483095Y-71381905D01*
X118197381Y-69905714D02*
X118197381Y-70381905D01*
X118673571Y-70429524D01*
X118625952Y-70381905D01*
X118578333Y-70286667D01*
X118578333Y-70048571D01*
X118625952Y-69953333D01*
X118673571Y-69905714D01*
X118768810Y-69858095D01*
X119006905Y-69858095D01*
X119102143Y-69905714D01*
X119149762Y-69953333D01*
X119197381Y-70048571D01*
X119197381Y-70286667D01*
X119149762Y-70381905D01*
X119102143Y-70429524D01*
X120681905Y-70667619D02*
X120729524Y-70620000D01*
X120824762Y-70572381D01*
X121062858Y-70572381D01*
X121158096Y-70620000D01*
X121205715Y-70667619D01*
X121253334Y-70762857D01*
X121253334Y-70858095D01*
X121205715Y-71000952D01*
X120634286Y-71572381D01*
X121253334Y-71572381D01*
X121634286Y-70667619D02*
X121681905Y-70620000D01*
X121777143Y-70572381D01*
X122015239Y-70572381D01*
X122110477Y-70620000D01*
X122158096Y-70667619D01*
X122205715Y-70762857D01*
X122205715Y-70858095D01*
X122158096Y-71000952D01*
X121586667Y-71572381D01*
X122205715Y-71572381D01*
X122824762Y-70572381D02*
X122920001Y-70572381D01*
X123015239Y-70620000D01*
X123062858Y-70667619D01*
X123110477Y-70762857D01*
X123158096Y-70953333D01*
X123158096Y-71191429D01*
X123110477Y-71381905D01*
X123062858Y-71477143D01*
X123015239Y-71524762D01*
X122920001Y-71572381D01*
X122824762Y-71572381D01*
X122729524Y-71524762D01*
X122681905Y-71477143D01*
X122634286Y-71381905D01*
X122586667Y-71191429D01*
X122586667Y-70953333D01*
X122634286Y-70762857D01*
X122681905Y-70667619D01*
X122729524Y-70620000D01*
X122824762Y-70572381D01*
X119197381Y-74937857D02*
X118721190Y-75271191D01*
X119197381Y-75509286D02*
X118197381Y-75509286D01*
X118197381Y-75128333D01*
X118245000Y-75033095D01*
X118292619Y-74985476D01*
X118387857Y-74937857D01*
X118530714Y-74937857D01*
X118625952Y-74985476D01*
X118673571Y-75033095D01*
X118721190Y-75128333D01*
X118721190Y-75509286D01*
X119197381Y-73985476D02*
X119197381Y-74556905D01*
X119197381Y-74271191D02*
X118197381Y-74271191D01*
X118340238Y-74366429D01*
X118435476Y-74461667D01*
X118483095Y-74556905D01*
X118197381Y-73128333D02*
X118197381Y-73318810D01*
X118245000Y-73414048D01*
X118292619Y-73461667D01*
X118435476Y-73556905D01*
X118625952Y-73604524D01*
X119006905Y-73604524D01*
X119102143Y-73556905D01*
X119149762Y-73509286D01*
X119197381Y-73414048D01*
X119197381Y-73223571D01*
X119149762Y-73128333D01*
X119102143Y-73080714D01*
X119006905Y-73033095D01*
X118768810Y-73033095D01*
X118673571Y-73080714D01*
X118625952Y-73128333D01*
X118578333Y-73223571D01*
X118578333Y-73414048D01*
X118625952Y-73509286D01*
X118673571Y-73556905D01*
X118768810Y-73604524D01*
X120681905Y-73842619D02*
X120729524Y-73795000D01*
X120824762Y-73747381D01*
X121062858Y-73747381D01*
X121158096Y-73795000D01*
X121205715Y-73842619D01*
X121253334Y-73937857D01*
X121253334Y-74033095D01*
X121205715Y-74175952D01*
X120634286Y-74747381D01*
X121253334Y-74747381D01*
X121634286Y-73842619D02*
X121681905Y-73795000D01*
X121777143Y-73747381D01*
X122015239Y-73747381D01*
X122110477Y-73795000D01*
X122158096Y-73842619D01*
X122205715Y-73937857D01*
X122205715Y-74033095D01*
X122158096Y-74175952D01*
X121586667Y-74747381D01*
X122205715Y-74747381D01*
X122824762Y-73747381D02*
X122920001Y-73747381D01*
X123015239Y-73795000D01*
X123062858Y-73842619D01*
X123110477Y-73937857D01*
X123158096Y-74128333D01*
X123158096Y-74366429D01*
X123110477Y-74556905D01*
X123062858Y-74652143D01*
X123015239Y-74699762D01*
X122920001Y-74747381D01*
X122824762Y-74747381D01*
X122729524Y-74699762D01*
X122681905Y-74652143D01*
X122634286Y-74556905D01*
X122586667Y-74366429D01*
X122586667Y-74128333D01*
X122634286Y-73937857D01*
X122681905Y-73842619D01*
X122729524Y-73795000D01*
X122824762Y-73747381D01*
X119197381Y-78112857D02*
X118721190Y-78446191D01*
X119197381Y-78684286D02*
X118197381Y-78684286D01*
X118197381Y-78303333D01*
X118245000Y-78208095D01*
X118292619Y-78160476D01*
X118387857Y-78112857D01*
X118530714Y-78112857D01*
X118625952Y-78160476D01*
X118673571Y-78208095D01*
X118721190Y-78303333D01*
X118721190Y-78684286D01*
X119197381Y-77160476D02*
X119197381Y-77731905D01*
X119197381Y-77446191D02*
X118197381Y-77446191D01*
X118340238Y-77541429D01*
X118435476Y-77636667D01*
X118483095Y-77731905D01*
X118197381Y-76827143D02*
X118197381Y-76160476D01*
X119197381Y-76589048D01*
X120681905Y-77017619D02*
X120729524Y-76970000D01*
X120824762Y-76922381D01*
X121062858Y-76922381D01*
X121158096Y-76970000D01*
X121205715Y-77017619D01*
X121253334Y-77112857D01*
X121253334Y-77208095D01*
X121205715Y-77350952D01*
X120634286Y-77922381D01*
X121253334Y-77922381D01*
X121634286Y-77017619D02*
X121681905Y-76970000D01*
X121777143Y-76922381D01*
X122015239Y-76922381D01*
X122110477Y-76970000D01*
X122158096Y-77017619D01*
X122205715Y-77112857D01*
X122205715Y-77208095D01*
X122158096Y-77350952D01*
X121586667Y-77922381D01*
X122205715Y-77922381D01*
X122824762Y-76922381D02*
X122920001Y-76922381D01*
X123015239Y-76970000D01*
X123062858Y-77017619D01*
X123110477Y-77112857D01*
X123158096Y-77303333D01*
X123158096Y-77541429D01*
X123110477Y-77731905D01*
X123062858Y-77827143D01*
X123015239Y-77874762D01*
X122920001Y-77922381D01*
X122824762Y-77922381D01*
X122729524Y-77874762D01*
X122681905Y-77827143D01*
X122634286Y-77731905D01*
X122586667Y-77541429D01*
X122586667Y-77303333D01*
X122634286Y-77112857D01*
X122681905Y-77017619D01*
X122729524Y-76970000D01*
X122824762Y-76922381D01*
X194127381Y-59015238D02*
X193651190Y-59348572D01*
X194127381Y-59586667D02*
X193127381Y-59586667D01*
X193127381Y-59205714D01*
X193175000Y-59110476D01*
X193222619Y-59062857D01*
X193317857Y-59015238D01*
X193460714Y-59015238D01*
X193555952Y-59062857D01*
X193603571Y-59110476D01*
X193651190Y-59205714D01*
X193651190Y-59586667D01*
X193127381Y-58729524D02*
X194127381Y-58396191D01*
X193127381Y-58062857D01*
X194127381Y-57205714D02*
X194127381Y-57777143D01*
X194127381Y-57491429D02*
X193127381Y-57491429D01*
X193270238Y-57586667D01*
X193365476Y-57681905D01*
X193413095Y-57777143D01*
X194127381Y-64095238D02*
X194127381Y-64666667D01*
X194127381Y-64380953D02*
X193127381Y-64380953D01*
X193270238Y-64476191D01*
X193365476Y-64571429D01*
X193413095Y-64666667D01*
X193127381Y-63476191D02*
X193127381Y-63380952D01*
X193175000Y-63285714D01*
X193222619Y-63238095D01*
X193317857Y-63190476D01*
X193508333Y-63142857D01*
X193746429Y-63142857D01*
X193936905Y-63190476D01*
X194032143Y-63238095D01*
X194079762Y-63285714D01*
X194127381Y-63380952D01*
X194127381Y-63476191D01*
X194079762Y-63571429D01*
X194032143Y-63619048D01*
X193936905Y-63666667D01*
X193746429Y-63714286D01*
X193508333Y-63714286D01*
X193317857Y-63666667D01*
X193222619Y-63619048D01*
X193175000Y-63571429D01*
X193127381Y-63476191D01*
X194127381Y-62714286D02*
X193127381Y-62714286D01*
X193746429Y-62619048D02*
X194127381Y-62333333D01*
X193460714Y-62333333D02*
X193841667Y-62714286D01*
X104457667Y-74064762D02*
X104600524Y-74112381D01*
X104838620Y-74112381D01*
X104933858Y-74064762D01*
X104981477Y-74017143D01*
X105029096Y-73921905D01*
X105029096Y-73826667D01*
X104981477Y-73731429D01*
X104933858Y-73683810D01*
X104838620Y-73636190D01*
X104648143Y-73588571D01*
X104552905Y-73540952D01*
X104505286Y-73493333D01*
X104457667Y-73398095D01*
X104457667Y-73302857D01*
X104505286Y-73207619D01*
X104552905Y-73160000D01*
X104648143Y-73112381D01*
X104886239Y-73112381D01*
X105029096Y-73160000D01*
X105362429Y-73112381D02*
X105600524Y-74112381D01*
X105791001Y-73398095D01*
X105981477Y-74112381D01*
X106219572Y-73112381D01*
X107124334Y-74112381D02*
X106552905Y-74112381D01*
X106838619Y-74112381D02*
X106838619Y-73112381D01*
X106743381Y-73255238D01*
X106648143Y-73350476D01*
X106552905Y-73398095D01*
D10*
X104629095Y-79482905D02*
X104362428Y-79101952D01*
X104171952Y-79482905D02*
X104171952Y-78682905D01*
X104476714Y-78682905D01*
X104552905Y-78721000D01*
X104591000Y-78759095D01*
X104629095Y-78835286D01*
X104629095Y-78949571D01*
X104591000Y-79025762D01*
X104552905Y-79063857D01*
X104476714Y-79101952D01*
X104171952Y-79101952D01*
X104971952Y-79063857D02*
X105238619Y-79063857D01*
X105352905Y-79482905D02*
X104971952Y-79482905D01*
X104971952Y-78682905D01*
X105352905Y-78682905D01*
X105657667Y-79444810D02*
X105771953Y-79482905D01*
X105962429Y-79482905D01*
X106038619Y-79444810D01*
X106076715Y-79406714D01*
X106114810Y-79330524D01*
X106114810Y-79254333D01*
X106076715Y-79178143D01*
X106038619Y-79140048D01*
X105962429Y-79101952D01*
X105810048Y-79063857D01*
X105733857Y-79025762D01*
X105695762Y-78987667D01*
X105657667Y-78911476D01*
X105657667Y-78835286D01*
X105695762Y-78759095D01*
X105733857Y-78721000D01*
X105810048Y-78682905D01*
X106000524Y-78682905D01*
X106114810Y-78721000D01*
X106457667Y-79063857D02*
X106724334Y-79063857D01*
X106838620Y-79482905D02*
X106457667Y-79482905D01*
X106457667Y-78682905D01*
X106838620Y-78682905D01*
X107067191Y-78682905D02*
X107524334Y-78682905D01*
X107295763Y-79482905D02*
X107295763Y-78682905D01*
D11*
X177736667Y-133119762D02*
X177879524Y-133167381D01*
X178117620Y-133167381D01*
X178212858Y-133119762D01*
X178260477Y-133072143D01*
X178308096Y-132976905D01*
X178308096Y-132881667D01*
X178260477Y-132786429D01*
X178212858Y-132738810D01*
X178117620Y-132691190D01*
X177927143Y-132643571D01*
X177831905Y-132595952D01*
X177784286Y-132548333D01*
X177736667Y-132453095D01*
X177736667Y-132357857D01*
X177784286Y-132262619D01*
X177831905Y-132215000D01*
X177927143Y-132167381D01*
X178165239Y-132167381D01*
X178308096Y-132215000D01*
X178641429Y-132167381D02*
X178879524Y-133167381D01*
X179070001Y-132453095D01*
X179260477Y-133167381D01*
X179498572Y-132167381D01*
X179831905Y-132262619D02*
X179879524Y-132215000D01*
X179974762Y-132167381D01*
X180212858Y-132167381D01*
X180308096Y-132215000D01*
X180355715Y-132262619D01*
X180403334Y-132357857D01*
X180403334Y-132453095D01*
X180355715Y-132595952D01*
X179784286Y-133167381D01*
X180403334Y-133167381D01*
X177736667Y-125499762D02*
X177879524Y-125547381D01*
X178117620Y-125547381D01*
X178212858Y-125499762D01*
X178260477Y-125452143D01*
X178308096Y-125356905D01*
X178308096Y-125261667D01*
X178260477Y-125166429D01*
X178212858Y-125118810D01*
X178117620Y-125071190D01*
X177927143Y-125023571D01*
X177831905Y-124975952D01*
X177784286Y-124928333D01*
X177736667Y-124833095D01*
X177736667Y-124737857D01*
X177784286Y-124642619D01*
X177831905Y-124595000D01*
X177927143Y-124547381D01*
X178165239Y-124547381D01*
X178308096Y-124595000D01*
X178641429Y-124547381D02*
X178879524Y-125547381D01*
X179070001Y-124833095D01*
X179260477Y-125547381D01*
X179498572Y-124547381D01*
X179784286Y-124547381D02*
X180403334Y-124547381D01*
X180070000Y-124928333D01*
X180212858Y-124928333D01*
X180308096Y-124975952D01*
X180355715Y-125023571D01*
X180403334Y-125118810D01*
X180403334Y-125356905D01*
X180355715Y-125452143D01*
X180308096Y-125499762D01*
X180212858Y-125547381D01*
X179927143Y-125547381D01*
X179831905Y-125499762D01*
X179784286Y-125452143D01*
X177736667Y-140739762D02*
X177879524Y-140787381D01*
X178117620Y-140787381D01*
X178212858Y-140739762D01*
X178260477Y-140692143D01*
X178308096Y-140596905D01*
X178308096Y-140501667D01*
X178260477Y-140406429D01*
X178212858Y-140358810D01*
X178117620Y-140311190D01*
X177927143Y-140263571D01*
X177831905Y-140215952D01*
X177784286Y-140168333D01*
X177736667Y-140073095D01*
X177736667Y-139977857D01*
X177784286Y-139882619D01*
X177831905Y-139835000D01*
X177927143Y-139787381D01*
X178165239Y-139787381D01*
X178308096Y-139835000D01*
X178641429Y-139787381D02*
X178879524Y-140787381D01*
X179070001Y-140073095D01*
X179260477Y-140787381D01*
X179498572Y-139787381D01*
X180308096Y-140120714D02*
X180308096Y-140787381D01*
X180070000Y-139739762D02*
X179831905Y-140454048D01*
X180450953Y-140454048D01*
X168211667Y-133119762D02*
X168354524Y-133167381D01*
X168592620Y-133167381D01*
X168687858Y-133119762D01*
X168735477Y-133072143D01*
X168783096Y-132976905D01*
X168783096Y-132881667D01*
X168735477Y-132786429D01*
X168687858Y-132738810D01*
X168592620Y-132691190D01*
X168402143Y-132643571D01*
X168306905Y-132595952D01*
X168259286Y-132548333D01*
X168211667Y-132453095D01*
X168211667Y-132357857D01*
X168259286Y-132262619D01*
X168306905Y-132215000D01*
X168402143Y-132167381D01*
X168640239Y-132167381D01*
X168783096Y-132215000D01*
X169116429Y-132167381D02*
X169354524Y-133167381D01*
X169545001Y-132453095D01*
X169735477Y-133167381D01*
X169973572Y-132167381D01*
X170830715Y-132167381D02*
X170354524Y-132167381D01*
X170306905Y-132643571D01*
X170354524Y-132595952D01*
X170449762Y-132548333D01*
X170687858Y-132548333D01*
X170783096Y-132595952D01*
X170830715Y-132643571D01*
X170878334Y-132738810D01*
X170878334Y-132976905D01*
X170830715Y-133072143D01*
X170783096Y-133119762D01*
X170687858Y-133167381D01*
X170449762Y-133167381D01*
X170354524Y-133119762D01*
X170306905Y-133072143D01*
X187261667Y-133119762D02*
X187404524Y-133167381D01*
X187642620Y-133167381D01*
X187737858Y-133119762D01*
X187785477Y-133072143D01*
X187833096Y-132976905D01*
X187833096Y-132881667D01*
X187785477Y-132786429D01*
X187737858Y-132738810D01*
X187642620Y-132691190D01*
X187452143Y-132643571D01*
X187356905Y-132595952D01*
X187309286Y-132548333D01*
X187261667Y-132453095D01*
X187261667Y-132357857D01*
X187309286Y-132262619D01*
X187356905Y-132215000D01*
X187452143Y-132167381D01*
X187690239Y-132167381D01*
X187833096Y-132215000D01*
X188166429Y-132167381D02*
X188404524Y-133167381D01*
X188595001Y-132453095D01*
X188785477Y-133167381D01*
X189023572Y-132167381D01*
X189833096Y-132167381D02*
X189642619Y-132167381D01*
X189547381Y-132215000D01*
X189499762Y-132262619D01*
X189404524Y-132405476D01*
X189356905Y-132595952D01*
X189356905Y-132976905D01*
X189404524Y-133072143D01*
X189452143Y-133119762D01*
X189547381Y-133167381D01*
X189737858Y-133167381D01*
X189833096Y-133119762D01*
X189880715Y-133072143D01*
X189928334Y-132976905D01*
X189928334Y-132738810D01*
X189880715Y-132643571D01*
X189833096Y-132595952D01*
X189737858Y-132548333D01*
X189547381Y-132548333D01*
X189452143Y-132595952D01*
X189404524Y-132643571D01*
X189356905Y-132738810D01*
X144018095Y-88352381D02*
X144018095Y-89161905D01*
X144065714Y-89257143D01*
X144113333Y-89304762D01*
X144208571Y-89352381D01*
X144399048Y-89352381D01*
X144494286Y-89304762D01*
X144541905Y-89257143D01*
X144589524Y-89161905D01*
X144589524Y-88352381D01*
X145589524Y-89352381D02*
X145018095Y-89352381D01*
X145303809Y-89352381D02*
X145303809Y-88352381D01*
X145208571Y-88495238D01*
X145113333Y-88590476D01*
X145018095Y-88638095D01*
X166878095Y-88352381D02*
X166878095Y-89161905D01*
X166925714Y-89257143D01*
X166973333Y-89304762D01*
X167068571Y-89352381D01*
X167259048Y-89352381D01*
X167354286Y-89304762D01*
X167401905Y-89257143D01*
X167449524Y-89161905D01*
X167449524Y-88352381D01*
X167878095Y-88447619D02*
X167925714Y-88400000D01*
X168020952Y-88352381D01*
X168259048Y-88352381D01*
X168354286Y-88400000D01*
X168401905Y-88447619D01*
X168449524Y-88542857D01*
X168449524Y-88638095D01*
X168401905Y-88780952D01*
X167830476Y-89352381D01*
X168449524Y-89352381D01*
X189738095Y-88352381D02*
X189738095Y-89161905D01*
X189785714Y-89257143D01*
X189833333Y-89304762D01*
X189928571Y-89352381D01*
X190119048Y-89352381D01*
X190214286Y-89304762D01*
X190261905Y-89257143D01*
X190309524Y-89161905D01*
X190309524Y-88352381D01*
X190690476Y-88352381D02*
X191309524Y-88352381D01*
X190976190Y-88733333D01*
X191119048Y-88733333D01*
X191214286Y-88780952D01*
X191261905Y-88828571D01*
X191309524Y-88923810D01*
X191309524Y-89161905D01*
X191261905Y-89257143D01*
X191214286Y-89304762D01*
X191119048Y-89352381D01*
X190833333Y-89352381D01*
X190738095Y-89304762D01*
X190690476Y-89257143D01*
X121158095Y-88352381D02*
X121158095Y-89161905D01*
X121205714Y-89257143D01*
X121253333Y-89304762D01*
X121348571Y-89352381D01*
X121539048Y-89352381D01*
X121634286Y-89304762D01*
X121681905Y-89257143D01*
X121729524Y-89161905D01*
X121729524Y-88352381D01*
X122634286Y-88685714D02*
X122634286Y-89352381D01*
X122396190Y-88304762D02*
X122158095Y-89019048D01*
X122777143Y-89019048D01*
X160528095Y-62317381D02*
X160528095Y-63126905D01*
X160575714Y-63222143D01*
X160623333Y-63269762D01*
X160718571Y-63317381D01*
X160909048Y-63317381D01*
X161004286Y-63269762D01*
X161051905Y-63222143D01*
X161099524Y-63126905D01*
X161099524Y-62317381D01*
X162051905Y-62317381D02*
X161575714Y-62317381D01*
X161528095Y-62793571D01*
X161575714Y-62745952D01*
X161670952Y-62698333D01*
X161909048Y-62698333D01*
X162004286Y-62745952D01*
X162051905Y-62793571D01*
X162099524Y-62888810D01*
X162099524Y-63126905D01*
X162051905Y-63222143D01*
X162004286Y-63269762D01*
X161909048Y-63317381D01*
X161670952Y-63317381D01*
X161575714Y-63269762D01*
X161528095Y-63222143D01*
X112798095Y-46442381D02*
X112798095Y-47251905D01*
X112845714Y-47347143D01*
X112893333Y-47394762D01*
X112988571Y-47442381D01*
X113179048Y-47442381D01*
X113274286Y-47394762D01*
X113321905Y-47347143D01*
X113369524Y-47251905D01*
X113369524Y-46442381D01*
X114274286Y-46442381D02*
X114083809Y-46442381D01*
X113988571Y-46490000D01*
X113940952Y-46537619D01*
X113845714Y-46680476D01*
X113798095Y-46870952D01*
X113798095Y-47251905D01*
X113845714Y-47347143D01*
X113893333Y-47394762D01*
X113988571Y-47442381D01*
X114179048Y-47442381D01*
X114274286Y-47394762D01*
X114321905Y-47347143D01*
X114369524Y-47251905D01*
X114369524Y-47013810D01*
X114321905Y-46918571D01*
X114274286Y-46870952D01*
X114179048Y-46823333D01*
X113988571Y-46823333D01*
X113893333Y-46870952D01*
X113845714Y-46918571D01*
X113798095Y-47013810D01*
X200326667Y-66127381D02*
X200326667Y-66841667D01*
X200279047Y-66984524D01*
X200183809Y-67079762D01*
X200040952Y-67127381D01*
X199945714Y-67127381D01*
X200755238Y-66222619D02*
X200802857Y-66175000D01*
X200898095Y-66127381D01*
X201136191Y-66127381D01*
X201231429Y-66175000D01*
X201279048Y-66222619D01*
X201326667Y-66317857D01*
X201326667Y-66413095D01*
X201279048Y-66555952D01*
X200707619Y-67127381D01*
X201326667Y-67127381D01*
D10*
X193325714Y-75691667D02*
X193363810Y-75729762D01*
X193401905Y-75844048D01*
X193401905Y-75920238D01*
X193363810Y-76034524D01*
X193287619Y-76110715D01*
X193211429Y-76148810D01*
X193059048Y-76186905D01*
X192944762Y-76186905D01*
X192792381Y-76148810D01*
X192716190Y-76110715D01*
X192640000Y-76034524D01*
X192601905Y-75920238D01*
X192601905Y-75844048D01*
X192640000Y-75729762D01*
X192678095Y-75691667D01*
X193401905Y-74967857D02*
X193401905Y-75348810D01*
X192601905Y-75348810D01*
X192601905Y-74548810D02*
X192601905Y-74396429D01*
X192640000Y-74320238D01*
X192716190Y-74244048D01*
X192868571Y-74205953D01*
X193135238Y-74205953D01*
X193287619Y-74244048D01*
X193363810Y-74320238D01*
X193401905Y-74396429D01*
X193401905Y-74548810D01*
X193363810Y-74625000D01*
X193287619Y-74701191D01*
X193135238Y-74739286D01*
X192868571Y-74739286D01*
X192716190Y-74701191D01*
X192640000Y-74625000D01*
X192601905Y-74548810D01*
X193325714Y-73405953D02*
X193363810Y-73444048D01*
X193401905Y-73558334D01*
X193401905Y-73634524D01*
X193363810Y-73748810D01*
X193287619Y-73825001D01*
X193211429Y-73863096D01*
X193059048Y-73901191D01*
X192944762Y-73901191D01*
X192792381Y-73863096D01*
X192716190Y-73825001D01*
X192640000Y-73748810D01*
X192601905Y-73634524D01*
X192601905Y-73558334D01*
X192640000Y-73444048D01*
X192678095Y-73405953D01*
X193401905Y-73063096D02*
X192601905Y-73063096D01*
X193401905Y-72605953D02*
X192944762Y-72948810D01*
X192601905Y-72605953D02*
X193059048Y-73063096D01*
X193478095Y-72453572D02*
X193478095Y-71844048D01*
X193363810Y-71691667D02*
X193401905Y-71577381D01*
X193401905Y-71386905D01*
X193363810Y-71310715D01*
X193325714Y-71272619D01*
X193249524Y-71234524D01*
X193173333Y-71234524D01*
X193097143Y-71272619D01*
X193059048Y-71310715D01*
X193020952Y-71386905D01*
X192982857Y-71539286D01*
X192944762Y-71615477D01*
X192906667Y-71653572D01*
X192830476Y-71691667D01*
X192754286Y-71691667D01*
X192678095Y-71653572D01*
X192640000Y-71615477D01*
X192601905Y-71539286D01*
X192601905Y-71348810D01*
X192640000Y-71234524D01*
X192982857Y-70891667D02*
X192982857Y-70625000D01*
X193401905Y-70510714D02*
X193401905Y-70891667D01*
X192601905Y-70891667D01*
X192601905Y-70510714D01*
X193401905Y-69786904D02*
X193401905Y-70167857D01*
X192601905Y-70167857D01*
M02*
