G04 #@! TF.GenerationSoftware,KiCad,Pcbnew,(5.1.5)-3*
G04 #@! TF.CreationDate,2020-02-15T17:47:17+01:00*
G04 #@! TF.ProjectId,BE6502 SBC,42453635-3032-4205-9342-432e6b696361,rev?*
G04 #@! TF.SameCoordinates,Original*
G04 #@! TF.FileFunction,Legend,Bot*
G04 #@! TF.FilePolarity,Positive*
%FSLAX46Y46*%
G04 Gerber Fmt 4.6, Leading zero omitted, Abs format (unit mm)*
G04 Created by KiCad (PCBNEW (5.1.5)-3) date 2020-02-15 17:47:17*
%MOMM*%
%LPD*%
G04 APERTURE LIST*
%ADD10C,0.100000*%
%ADD11C,0.200000*%
%ADD12C,0.150000*%
%ADD13C,0.300000*%
G04 APERTURE END LIST*
D10*
X106629047Y-56711904D02*
X107010000Y-56711904D01*
X107048095Y-57092857D01*
X107010000Y-57054761D01*
X106933809Y-57016666D01*
X106743333Y-57016666D01*
X106667142Y-57054761D01*
X106629047Y-57092857D01*
X106590952Y-57169047D01*
X106590952Y-57359523D01*
X106629047Y-57435714D01*
X106667142Y-57473809D01*
X106743333Y-57511904D01*
X106933809Y-57511904D01*
X107010000Y-57473809D01*
X107048095Y-57435714D01*
X106324285Y-56978571D02*
X106133809Y-57511904D01*
X105943333Y-56978571D01*
X105029047Y-57511904D02*
X105029047Y-56711904D01*
X104838571Y-56711904D01*
X104724285Y-56750000D01*
X104648095Y-56826190D01*
X104610000Y-56902380D01*
X104571904Y-57054761D01*
X104571904Y-57169047D01*
X104610000Y-57321428D01*
X104648095Y-57397619D01*
X104724285Y-57473809D01*
X104838571Y-57511904D01*
X105029047Y-57511904D01*
X103771904Y-57435714D02*
X103810000Y-57473809D01*
X103924285Y-57511904D01*
X104000476Y-57511904D01*
X104114761Y-57473809D01*
X104190952Y-57397619D01*
X104229047Y-57321428D01*
X104267142Y-57169047D01*
X104267142Y-57054761D01*
X104229047Y-56902380D01*
X104190952Y-56826190D01*
X104114761Y-56750000D01*
X104000476Y-56711904D01*
X103924285Y-56711904D01*
X103810000Y-56750000D01*
X103771904Y-56788095D01*
D11*
X108585000Y-55880000D02*
X108585000Y-58420000D01*
X102235000Y-55880000D02*
X108585000Y-55880000D01*
X102235000Y-58420000D02*
X102235000Y-55880000D01*
X102235000Y-64770000D02*
X102235000Y-62230000D01*
X103505000Y-64770000D02*
X102235000Y-64770000D01*
X108585000Y-64770000D02*
X108585000Y-62230000D01*
X107315000Y-64770000D02*
X108585000Y-64770000D01*
D12*
X125086666Y-96972380D02*
X125420000Y-96496190D01*
X125658095Y-96972380D02*
X125658095Y-95972380D01*
X125277142Y-95972380D01*
X125181904Y-96020000D01*
X125134285Y-96067619D01*
X125086666Y-96162857D01*
X125086666Y-96305714D01*
X125134285Y-96400952D01*
X125181904Y-96448571D01*
X125277142Y-96496190D01*
X125658095Y-96496190D01*
X124658095Y-96448571D02*
X124324761Y-96448571D01*
X124181904Y-96972380D02*
X124658095Y-96972380D01*
X124658095Y-95972380D01*
X124181904Y-95972380D01*
X123229523Y-96020000D02*
X123324761Y-95972380D01*
X123467619Y-95972380D01*
X123610476Y-96020000D01*
X123705714Y-96115238D01*
X123753333Y-96210476D01*
X123800952Y-96400952D01*
X123800952Y-96543809D01*
X123753333Y-96734285D01*
X123705714Y-96829523D01*
X123610476Y-96924761D01*
X123467619Y-96972380D01*
X123372380Y-96972380D01*
X123229523Y-96924761D01*
X123181904Y-96877142D01*
X123181904Y-96543809D01*
X123372380Y-96543809D01*
X122753333Y-96972380D02*
X122753333Y-95972380D01*
X122324761Y-96924761D02*
X122181904Y-96972380D01*
X121943809Y-96972380D01*
X121848571Y-96924761D01*
X121800952Y-96877142D01*
X121753333Y-96781904D01*
X121753333Y-96686666D01*
X121800952Y-96591428D01*
X121848571Y-96543809D01*
X121943809Y-96496190D01*
X122134285Y-96448571D01*
X122229523Y-96400952D01*
X122277142Y-96353333D01*
X122324761Y-96258095D01*
X122324761Y-96162857D01*
X122277142Y-96067619D01*
X122229523Y-96020000D01*
X122134285Y-95972380D01*
X121896190Y-95972380D01*
X121753333Y-96020000D01*
X121467619Y-95972380D02*
X120896190Y-95972380D01*
X121181904Y-96972380D02*
X121181904Y-95972380D01*
X120562857Y-96448571D02*
X120229523Y-96448571D01*
X120086666Y-96972380D02*
X120562857Y-96972380D01*
X120562857Y-95972380D01*
X120086666Y-95972380D01*
X119086666Y-96972380D02*
X119420000Y-96496190D01*
X119658095Y-96972380D02*
X119658095Y-95972380D01*
X119277142Y-95972380D01*
X119181904Y-96020000D01*
X119134285Y-96067619D01*
X119086666Y-96162857D01*
X119086666Y-96305714D01*
X119134285Y-96400952D01*
X119181904Y-96448571D01*
X119277142Y-96496190D01*
X119658095Y-96496190D01*
X118705714Y-96924761D02*
X118562857Y-96972380D01*
X118324761Y-96972380D01*
X118229523Y-96924761D01*
X118181904Y-96877142D01*
X118134285Y-96781904D01*
X118134285Y-96686666D01*
X118181904Y-96591428D01*
X118229523Y-96543809D01*
X118324761Y-96496190D01*
X118515238Y-96448571D01*
X118610476Y-96400952D01*
X118658095Y-96353333D01*
X118705714Y-96258095D01*
X118705714Y-96162857D01*
X118658095Y-96067619D01*
X118610476Y-96020000D01*
X118515238Y-95972380D01*
X118277142Y-95972380D01*
X118134285Y-96020000D01*
D10*
X150239523Y-98756904D02*
X150239523Y-97956904D01*
X149782380Y-98756904D01*
X149782380Y-97956904D01*
X149401428Y-98756904D02*
X149401428Y-97956904D01*
X149134761Y-98528333D01*
X148868095Y-97956904D01*
X148868095Y-98756904D01*
X148487142Y-98756904D02*
X148487142Y-97956904D01*
X149782380Y-100056904D02*
X150049047Y-99675952D01*
X150239523Y-100056904D02*
X150239523Y-99256904D01*
X149934761Y-99256904D01*
X149858571Y-99295000D01*
X149820476Y-99333095D01*
X149782380Y-99409285D01*
X149782380Y-99523571D01*
X149820476Y-99599761D01*
X149858571Y-99637857D01*
X149934761Y-99675952D01*
X150239523Y-99675952D01*
X149477619Y-100018809D02*
X149363333Y-100056904D01*
X149172857Y-100056904D01*
X149096666Y-100018809D01*
X149058571Y-99980714D01*
X149020476Y-99904523D01*
X149020476Y-99828333D01*
X149058571Y-99752142D01*
X149096666Y-99714047D01*
X149172857Y-99675952D01*
X149325238Y-99637857D01*
X149401428Y-99599761D01*
X149439523Y-99561666D01*
X149477619Y-99485476D01*
X149477619Y-99409285D01*
X149439523Y-99333095D01*
X149401428Y-99295000D01*
X149325238Y-99256904D01*
X149134761Y-99256904D01*
X149020476Y-99295000D01*
X148791904Y-99256904D02*
X148334761Y-99256904D01*
X148563333Y-100056904D02*
X148563333Y-99256904D01*
X150239523Y-101356904D02*
X150239523Y-100556904D01*
X149401428Y-101356904D02*
X149668095Y-100975952D01*
X149858571Y-101356904D02*
X149858571Y-100556904D01*
X149553809Y-100556904D01*
X149477619Y-100595000D01*
X149439523Y-100633095D01*
X149401428Y-100709285D01*
X149401428Y-100823571D01*
X149439523Y-100899761D01*
X149477619Y-100937857D01*
X149553809Y-100975952D01*
X149858571Y-100975952D01*
X148525238Y-101433095D02*
X148601428Y-101395000D01*
X148677619Y-101318809D01*
X148791904Y-101204523D01*
X148868095Y-101166428D01*
X148944285Y-101166428D01*
X148906190Y-101356904D02*
X148982380Y-101318809D01*
X149058571Y-101242619D01*
X149096666Y-101090238D01*
X149096666Y-100823571D01*
X149058571Y-100671190D01*
X148982380Y-100595000D01*
X148906190Y-100556904D01*
X148753809Y-100556904D01*
X148677619Y-100595000D01*
X148601428Y-100671190D01*
X148563333Y-100823571D01*
X148563333Y-101090238D01*
X148601428Y-101242619D01*
X148677619Y-101318809D01*
X148753809Y-101356904D01*
X148906190Y-101356904D01*
D12*
X147946666Y-95972380D02*
X147613333Y-96972380D01*
X147280000Y-95972380D01*
X146946666Y-96448571D02*
X146613333Y-96448571D01*
X146470476Y-96972380D02*
X146946666Y-96972380D01*
X146946666Y-95972380D01*
X146470476Y-95972380D01*
X145470476Y-96877142D02*
X145518095Y-96924761D01*
X145660952Y-96972380D01*
X145756190Y-96972380D01*
X145899047Y-96924761D01*
X145994285Y-96829523D01*
X146041904Y-96734285D01*
X146089523Y-96543809D01*
X146089523Y-96400952D01*
X146041904Y-96210476D01*
X145994285Y-96115238D01*
X145899047Y-96020000D01*
X145756190Y-95972380D01*
X145660952Y-95972380D01*
X145518095Y-96020000D01*
X145470476Y-96067619D01*
X145184761Y-95972380D02*
X144613333Y-95972380D01*
X144899047Y-96972380D02*
X144899047Y-95972380D01*
X144089523Y-95972380D02*
X143899047Y-95972380D01*
X143803809Y-96020000D01*
X143708571Y-96115238D01*
X143660952Y-96305714D01*
X143660952Y-96639047D01*
X143708571Y-96829523D01*
X143803809Y-96924761D01*
X143899047Y-96972380D01*
X144089523Y-96972380D01*
X144184761Y-96924761D01*
X144280000Y-96829523D01*
X144327619Y-96639047D01*
X144327619Y-96305714D01*
X144280000Y-96115238D01*
X144184761Y-96020000D01*
X144089523Y-95972380D01*
X142660952Y-96972380D02*
X142994285Y-96496190D01*
X143232380Y-96972380D02*
X143232380Y-95972380D01*
X142851428Y-95972380D01*
X142756190Y-96020000D01*
X142708571Y-96067619D01*
X142660952Y-96162857D01*
X142660952Y-96305714D01*
X142708571Y-96400952D01*
X142756190Y-96448571D01*
X142851428Y-96496190D01*
X143232380Y-96496190D01*
X142280000Y-96924761D02*
X142137142Y-96972380D01*
X141899047Y-96972380D01*
X141803809Y-96924761D01*
X141756190Y-96877142D01*
X141708571Y-96781904D01*
X141708571Y-96686666D01*
X141756190Y-96591428D01*
X141803809Y-96543809D01*
X141899047Y-96496190D01*
X142089523Y-96448571D01*
X142184761Y-96400952D01*
X142232380Y-96353333D01*
X142280000Y-96258095D01*
X142280000Y-96162857D01*
X142232380Y-96067619D01*
X142184761Y-96020000D01*
X142089523Y-95972380D01*
X141851428Y-95972380D01*
X141708571Y-96020000D01*
D10*
X142596666Y-98718809D02*
X142482380Y-98756904D01*
X142291904Y-98756904D01*
X142215714Y-98718809D01*
X142177619Y-98680714D01*
X142139523Y-98604523D01*
X142139523Y-98528333D01*
X142177619Y-98452142D01*
X142215714Y-98414047D01*
X142291904Y-98375952D01*
X142444285Y-98337857D01*
X142520476Y-98299761D01*
X142558571Y-98261666D01*
X142596666Y-98185476D01*
X142596666Y-98109285D01*
X142558571Y-98033095D01*
X142520476Y-97995000D01*
X142444285Y-97956904D01*
X142253809Y-97956904D01*
X142139523Y-97995000D01*
X142368095Y-97842619D02*
X142368095Y-98871190D01*
X141530000Y-98337857D02*
X141796666Y-98337857D01*
X141796666Y-98756904D02*
X141796666Y-97956904D01*
X141415714Y-97956904D01*
X140844285Y-98337857D02*
X141110952Y-98337857D01*
X141110952Y-98756904D02*
X141110952Y-97956904D01*
X140730000Y-97956904D01*
X140158571Y-98337857D02*
X140425238Y-98337857D01*
X140425238Y-98756904D02*
X140425238Y-97956904D01*
X140044285Y-97956904D01*
X139472857Y-98337857D02*
X139358571Y-98375952D01*
X139320476Y-98414047D01*
X139282380Y-98490238D01*
X139282380Y-98604523D01*
X139320476Y-98680714D01*
X139358571Y-98718809D01*
X139434761Y-98756904D01*
X139739523Y-98756904D01*
X139739523Y-97956904D01*
X139472857Y-97956904D01*
X139396666Y-97995000D01*
X139358571Y-98033095D01*
X139320476Y-98109285D01*
X139320476Y-98185476D01*
X139358571Y-98261666D01*
X139396666Y-98299761D01*
X139472857Y-98337857D01*
X139739523Y-98337857D01*
X142596666Y-100018809D02*
X142482380Y-100056904D01*
X142291904Y-100056904D01*
X142215714Y-100018809D01*
X142177619Y-99980714D01*
X142139523Y-99904523D01*
X142139523Y-99828333D01*
X142177619Y-99752142D01*
X142215714Y-99714047D01*
X142291904Y-99675952D01*
X142444285Y-99637857D01*
X142520476Y-99599761D01*
X142558571Y-99561666D01*
X142596666Y-99485476D01*
X142596666Y-99409285D01*
X142558571Y-99333095D01*
X142520476Y-99295000D01*
X142444285Y-99256904D01*
X142253809Y-99256904D01*
X142139523Y-99295000D01*
X142368095Y-99142619D02*
X142368095Y-100171190D01*
X141530000Y-99637857D02*
X141796666Y-99637857D01*
X141796666Y-100056904D02*
X141796666Y-99256904D01*
X141415714Y-99256904D01*
X140844285Y-99637857D02*
X141110952Y-99637857D01*
X141110952Y-100056904D02*
X141110952Y-99256904D01*
X140730000Y-99256904D01*
X140158571Y-99637857D02*
X140425238Y-99637857D01*
X140425238Y-100056904D02*
X140425238Y-99256904D01*
X140044285Y-99256904D01*
X139739523Y-100056904D02*
X139739523Y-99256904D01*
X139549047Y-99256904D01*
X139434761Y-99295000D01*
X139358571Y-99371190D01*
X139320476Y-99447380D01*
X139282380Y-99599761D01*
X139282380Y-99714047D01*
X139320476Y-99866428D01*
X139358571Y-99942619D01*
X139434761Y-100018809D01*
X139549047Y-100056904D01*
X139739523Y-100056904D01*
X142482380Y-101318809D02*
X142368095Y-101356904D01*
X142177619Y-101356904D01*
X142101428Y-101318809D01*
X142063333Y-101280714D01*
X142025238Y-101204523D01*
X142025238Y-101128333D01*
X142063333Y-101052142D01*
X142101428Y-101014047D01*
X142177619Y-100975952D01*
X142330000Y-100937857D01*
X142406190Y-100899761D01*
X142444285Y-100861666D01*
X142482380Y-100785476D01*
X142482380Y-100709285D01*
X142444285Y-100633095D01*
X142406190Y-100595000D01*
X142330000Y-100556904D01*
X142139523Y-100556904D01*
X142025238Y-100595000D01*
X142253809Y-100442619D02*
X142253809Y-101471190D01*
X141415714Y-100937857D02*
X141682380Y-100937857D01*
X141682380Y-101356904D02*
X141682380Y-100556904D01*
X141301428Y-100556904D01*
X140730000Y-100937857D02*
X140996666Y-100937857D01*
X140996666Y-101356904D02*
X140996666Y-100556904D01*
X140615714Y-100556904D01*
X140044285Y-100937857D02*
X140310952Y-100937857D01*
X140310952Y-101356904D02*
X140310952Y-100556904D01*
X139930000Y-100556904D01*
X139358571Y-100937857D02*
X139625238Y-100937857D01*
X139625238Y-101356904D02*
X139625238Y-100556904D01*
X139244285Y-100556904D01*
X146380000Y-98718809D02*
X146265714Y-98756904D01*
X146075238Y-98756904D01*
X145999047Y-98718809D01*
X145960952Y-98680714D01*
X145922857Y-98604523D01*
X145922857Y-98528333D01*
X145960952Y-98452142D01*
X145999047Y-98414047D01*
X146075238Y-98375952D01*
X146227619Y-98337857D01*
X146303809Y-98299761D01*
X146341904Y-98261666D01*
X146380000Y-98185476D01*
X146380000Y-98109285D01*
X146341904Y-98033095D01*
X146303809Y-97995000D01*
X146227619Y-97956904D01*
X146037142Y-97956904D01*
X145922857Y-97995000D01*
X146151428Y-97842619D02*
X146151428Y-98871190D01*
X145313333Y-98337857D02*
X145580000Y-98337857D01*
X145580000Y-98756904D02*
X145580000Y-97956904D01*
X145199047Y-97956904D01*
X144627619Y-98337857D02*
X144894285Y-98337857D01*
X144894285Y-98756904D02*
X144894285Y-97956904D01*
X144513333Y-97956904D01*
X143941904Y-98337857D02*
X144208571Y-98337857D01*
X144208571Y-98756904D02*
X144208571Y-97956904D01*
X143827619Y-97956904D01*
X143560952Y-98528333D02*
X143180000Y-98528333D01*
X143637142Y-98756904D02*
X143370476Y-97956904D01*
X143103809Y-98756904D01*
X146437142Y-100018809D02*
X146322857Y-100056904D01*
X146132380Y-100056904D01*
X146056190Y-100018809D01*
X146018095Y-99980714D01*
X145980000Y-99904523D01*
X145980000Y-99828333D01*
X146018095Y-99752142D01*
X146056190Y-99714047D01*
X146132380Y-99675952D01*
X146284761Y-99637857D01*
X146360952Y-99599761D01*
X146399047Y-99561666D01*
X146437142Y-99485476D01*
X146437142Y-99409285D01*
X146399047Y-99333095D01*
X146360952Y-99295000D01*
X146284761Y-99256904D01*
X146094285Y-99256904D01*
X145980000Y-99295000D01*
X146208571Y-99142619D02*
X146208571Y-100171190D01*
X145370476Y-99637857D02*
X145637142Y-99637857D01*
X145637142Y-100056904D02*
X145637142Y-99256904D01*
X145256190Y-99256904D01*
X144684761Y-99637857D02*
X144951428Y-99637857D01*
X144951428Y-100056904D02*
X144951428Y-99256904D01*
X144570476Y-99256904D01*
X143999047Y-99637857D02*
X144265714Y-99637857D01*
X144265714Y-100056904D02*
X144265714Y-99256904D01*
X143884761Y-99256904D01*
X143122857Y-99980714D02*
X143160952Y-100018809D01*
X143275238Y-100056904D01*
X143351428Y-100056904D01*
X143465714Y-100018809D01*
X143541904Y-99942619D01*
X143580000Y-99866428D01*
X143618095Y-99714047D01*
X143618095Y-99599761D01*
X143580000Y-99447380D01*
X143541904Y-99371190D01*
X143465714Y-99295000D01*
X143351428Y-99256904D01*
X143275238Y-99256904D01*
X143160952Y-99295000D01*
X143122857Y-99333095D01*
X146399047Y-101318809D02*
X146284761Y-101356904D01*
X146094285Y-101356904D01*
X146018095Y-101318809D01*
X145980000Y-101280714D01*
X145941904Y-101204523D01*
X145941904Y-101128333D01*
X145980000Y-101052142D01*
X146018095Y-101014047D01*
X146094285Y-100975952D01*
X146246666Y-100937857D01*
X146322857Y-100899761D01*
X146360952Y-100861666D01*
X146399047Y-100785476D01*
X146399047Y-100709285D01*
X146360952Y-100633095D01*
X146322857Y-100595000D01*
X146246666Y-100556904D01*
X146056190Y-100556904D01*
X145941904Y-100595000D01*
X146170476Y-100442619D02*
X146170476Y-101471190D01*
X145332380Y-100937857D02*
X145599047Y-100937857D01*
X145599047Y-101356904D02*
X145599047Y-100556904D01*
X145218095Y-100556904D01*
X144646666Y-100937857D02*
X144913333Y-100937857D01*
X144913333Y-101356904D02*
X144913333Y-100556904D01*
X144532380Y-100556904D01*
X143960952Y-100937857D02*
X144227619Y-100937857D01*
X144227619Y-101356904D02*
X144227619Y-100556904D01*
X143846666Y-100556904D01*
X143541904Y-100937857D02*
X143275238Y-100937857D01*
X143160952Y-101356904D02*
X143541904Y-101356904D01*
X143541904Y-100556904D01*
X143160952Y-100556904D01*
X127379523Y-98741904D02*
X127379523Y-97941904D01*
X127189047Y-97941904D01*
X127074761Y-97980000D01*
X126998571Y-98056190D01*
X126960476Y-98132380D01*
X126922380Y-98284761D01*
X126922380Y-98399047D01*
X126960476Y-98551428D01*
X126998571Y-98627619D01*
X127074761Y-98703809D01*
X127189047Y-98741904D01*
X127379523Y-98741904D01*
X126617619Y-98513333D02*
X126236666Y-98513333D01*
X126693809Y-98741904D02*
X126427142Y-97941904D01*
X126160476Y-98741904D01*
X126008095Y-97941904D02*
X125550952Y-97941904D01*
X125779523Y-98741904D02*
X125779523Y-97941904D01*
X125322380Y-98513333D02*
X124941428Y-98513333D01*
X125398571Y-98741904D02*
X125131904Y-97941904D01*
X124865238Y-98741904D01*
X123722380Y-98322857D02*
X123608095Y-98360952D01*
X123570000Y-98399047D01*
X123531904Y-98475238D01*
X123531904Y-98589523D01*
X123570000Y-98665714D01*
X123608095Y-98703809D01*
X123684285Y-98741904D01*
X123989047Y-98741904D01*
X123989047Y-97941904D01*
X123722380Y-97941904D01*
X123646190Y-97980000D01*
X123608095Y-98018095D01*
X123570000Y-98094285D01*
X123570000Y-98170476D01*
X123608095Y-98246666D01*
X123646190Y-98284761D01*
X123722380Y-98322857D01*
X123989047Y-98322857D01*
X127379523Y-100041904D02*
X127379523Y-99241904D01*
X127189047Y-99241904D01*
X127074761Y-99280000D01*
X126998571Y-99356190D01*
X126960476Y-99432380D01*
X126922380Y-99584761D01*
X126922380Y-99699047D01*
X126960476Y-99851428D01*
X126998571Y-99927619D01*
X127074761Y-100003809D01*
X127189047Y-100041904D01*
X127379523Y-100041904D01*
X126617619Y-99813333D02*
X126236666Y-99813333D01*
X126693809Y-100041904D02*
X126427142Y-99241904D01*
X126160476Y-100041904D01*
X126008095Y-99241904D02*
X125550952Y-99241904D01*
X125779523Y-100041904D02*
X125779523Y-99241904D01*
X125322380Y-99813333D02*
X124941428Y-99813333D01*
X125398571Y-100041904D02*
X125131904Y-99241904D01*
X124865238Y-100041904D01*
X124027142Y-99813333D02*
X123646190Y-99813333D01*
X124103333Y-100041904D02*
X123836666Y-99241904D01*
X123570000Y-100041904D01*
X127379523Y-101341904D02*
X127379523Y-100541904D01*
X127189047Y-100541904D01*
X127074761Y-100580000D01*
X126998571Y-100656190D01*
X126960476Y-100732380D01*
X126922380Y-100884761D01*
X126922380Y-100999047D01*
X126960476Y-101151428D01*
X126998571Y-101227619D01*
X127074761Y-101303809D01*
X127189047Y-101341904D01*
X127379523Y-101341904D01*
X126579523Y-101341904D02*
X126579523Y-100541904D01*
X126389047Y-100541904D01*
X126274761Y-100580000D01*
X126198571Y-100656190D01*
X126160476Y-100732380D01*
X126122380Y-100884761D01*
X126122380Y-100999047D01*
X126160476Y-101151428D01*
X126198571Y-101227619D01*
X126274761Y-101303809D01*
X126389047Y-101341904D01*
X126579523Y-101341904D01*
X125322380Y-101341904D02*
X125589047Y-100960952D01*
X125779523Y-101341904D02*
X125779523Y-100541904D01*
X125474761Y-100541904D01*
X125398571Y-100580000D01*
X125360476Y-100618095D01*
X125322380Y-100694285D01*
X125322380Y-100808571D01*
X125360476Y-100884761D01*
X125398571Y-100922857D01*
X125474761Y-100960952D01*
X125779523Y-100960952D01*
X124103333Y-100922857D02*
X123989047Y-100960952D01*
X123950952Y-100999047D01*
X123912857Y-101075238D01*
X123912857Y-101189523D01*
X123950952Y-101265714D01*
X123989047Y-101303809D01*
X124065238Y-101341904D01*
X124370000Y-101341904D01*
X124370000Y-100541904D01*
X124103333Y-100541904D01*
X124027142Y-100580000D01*
X123989047Y-100618095D01*
X123950952Y-100694285D01*
X123950952Y-100770476D01*
X123989047Y-100846666D01*
X124027142Y-100884761D01*
X124103333Y-100922857D01*
X124370000Y-100922857D01*
X127379523Y-102641904D02*
X127379523Y-101841904D01*
X127189047Y-101841904D01*
X127074761Y-101880000D01*
X126998571Y-101956190D01*
X126960476Y-102032380D01*
X126922380Y-102184761D01*
X126922380Y-102299047D01*
X126960476Y-102451428D01*
X126998571Y-102527619D01*
X127074761Y-102603809D01*
X127189047Y-102641904D01*
X127379523Y-102641904D01*
X126579523Y-102641904D02*
X126579523Y-101841904D01*
X126389047Y-101841904D01*
X126274761Y-101880000D01*
X126198571Y-101956190D01*
X126160476Y-102032380D01*
X126122380Y-102184761D01*
X126122380Y-102299047D01*
X126160476Y-102451428D01*
X126198571Y-102527619D01*
X126274761Y-102603809D01*
X126389047Y-102641904D01*
X126579523Y-102641904D01*
X125322380Y-102641904D02*
X125589047Y-102260952D01*
X125779523Y-102641904D02*
X125779523Y-101841904D01*
X125474761Y-101841904D01*
X125398571Y-101880000D01*
X125360476Y-101918095D01*
X125322380Y-101994285D01*
X125322380Y-102108571D01*
X125360476Y-102184761D01*
X125398571Y-102222857D01*
X125474761Y-102260952D01*
X125779523Y-102260952D01*
X124408095Y-102413333D02*
X124027142Y-102413333D01*
X124484285Y-102641904D02*
X124217619Y-101841904D01*
X123950952Y-102641904D01*
X119927142Y-98703809D02*
X119812857Y-98741904D01*
X119622380Y-98741904D01*
X119546190Y-98703809D01*
X119508095Y-98665714D01*
X119470000Y-98589523D01*
X119470000Y-98513333D01*
X119508095Y-98437142D01*
X119546190Y-98399047D01*
X119622380Y-98360952D01*
X119774761Y-98322857D01*
X119850952Y-98284761D01*
X119889047Y-98246666D01*
X119927142Y-98170476D01*
X119927142Y-98094285D01*
X119889047Y-98018095D01*
X119850952Y-97980000D01*
X119774761Y-97941904D01*
X119584285Y-97941904D01*
X119470000Y-97980000D01*
X119698571Y-97827619D02*
X119698571Y-98856190D01*
X118784285Y-97941904D02*
X118936666Y-97941904D01*
X119012857Y-97980000D01*
X119050952Y-98018095D01*
X119127142Y-98132380D01*
X119165238Y-98284761D01*
X119165238Y-98589523D01*
X119127142Y-98665714D01*
X119089047Y-98703809D01*
X119012857Y-98741904D01*
X118860476Y-98741904D01*
X118784285Y-98703809D01*
X118746190Y-98665714D01*
X118708095Y-98589523D01*
X118708095Y-98399047D01*
X118746190Y-98322857D01*
X118784285Y-98284761D01*
X118860476Y-98246666D01*
X119012857Y-98246666D01*
X119089047Y-98284761D01*
X119127142Y-98322857D01*
X119165238Y-98399047D01*
X118212857Y-97941904D02*
X118136666Y-97941904D01*
X118060476Y-97980000D01*
X118022380Y-98018095D01*
X117984285Y-98094285D01*
X117946190Y-98246666D01*
X117946190Y-98437142D01*
X117984285Y-98589523D01*
X118022380Y-98665714D01*
X118060476Y-98703809D01*
X118136666Y-98741904D01*
X118212857Y-98741904D01*
X118289047Y-98703809D01*
X118327142Y-98665714D01*
X118365238Y-98589523D01*
X118403333Y-98437142D01*
X118403333Y-98246666D01*
X118365238Y-98094285D01*
X118327142Y-98018095D01*
X118289047Y-97980000D01*
X118212857Y-97941904D01*
X117450952Y-97941904D02*
X117374761Y-97941904D01*
X117298571Y-97980000D01*
X117260476Y-98018095D01*
X117222380Y-98094285D01*
X117184285Y-98246666D01*
X117184285Y-98437142D01*
X117222380Y-98589523D01*
X117260476Y-98665714D01*
X117298571Y-98703809D01*
X117374761Y-98741904D01*
X117450952Y-98741904D01*
X117527142Y-98703809D01*
X117565238Y-98665714D01*
X117603333Y-98589523D01*
X117641428Y-98437142D01*
X117641428Y-98246666D01*
X117603333Y-98094285D01*
X117565238Y-98018095D01*
X117527142Y-97980000D01*
X117450952Y-97941904D01*
X116689047Y-97941904D02*
X116612857Y-97941904D01*
X116536666Y-97980000D01*
X116498571Y-98018095D01*
X116460476Y-98094285D01*
X116422380Y-98246666D01*
X116422380Y-98437142D01*
X116460476Y-98589523D01*
X116498571Y-98665714D01*
X116536666Y-98703809D01*
X116612857Y-98741904D01*
X116689047Y-98741904D01*
X116765238Y-98703809D01*
X116803333Y-98665714D01*
X116841428Y-98589523D01*
X116879523Y-98437142D01*
X116879523Y-98246666D01*
X116841428Y-98094285D01*
X116803333Y-98018095D01*
X116765238Y-97980000D01*
X116689047Y-97941904D01*
X119927142Y-100003809D02*
X119812857Y-100041904D01*
X119622380Y-100041904D01*
X119546190Y-100003809D01*
X119508095Y-99965714D01*
X119470000Y-99889523D01*
X119470000Y-99813333D01*
X119508095Y-99737142D01*
X119546190Y-99699047D01*
X119622380Y-99660952D01*
X119774761Y-99622857D01*
X119850952Y-99584761D01*
X119889047Y-99546666D01*
X119927142Y-99470476D01*
X119927142Y-99394285D01*
X119889047Y-99318095D01*
X119850952Y-99280000D01*
X119774761Y-99241904D01*
X119584285Y-99241904D01*
X119470000Y-99280000D01*
X119698571Y-99127619D02*
X119698571Y-100156190D01*
X118784285Y-99241904D02*
X118936666Y-99241904D01*
X119012857Y-99280000D01*
X119050952Y-99318095D01*
X119127142Y-99432380D01*
X119165238Y-99584761D01*
X119165238Y-99889523D01*
X119127142Y-99965714D01*
X119089047Y-100003809D01*
X119012857Y-100041904D01*
X118860476Y-100041904D01*
X118784285Y-100003809D01*
X118746190Y-99965714D01*
X118708095Y-99889523D01*
X118708095Y-99699047D01*
X118746190Y-99622857D01*
X118784285Y-99584761D01*
X118860476Y-99546666D01*
X119012857Y-99546666D01*
X119089047Y-99584761D01*
X119127142Y-99622857D01*
X119165238Y-99699047D01*
X118212857Y-99241904D02*
X118136666Y-99241904D01*
X118060476Y-99280000D01*
X118022380Y-99318095D01*
X117984285Y-99394285D01*
X117946190Y-99546666D01*
X117946190Y-99737142D01*
X117984285Y-99889523D01*
X118022380Y-99965714D01*
X118060476Y-100003809D01*
X118136666Y-100041904D01*
X118212857Y-100041904D01*
X118289047Y-100003809D01*
X118327142Y-99965714D01*
X118365238Y-99889523D01*
X118403333Y-99737142D01*
X118403333Y-99546666D01*
X118365238Y-99394285D01*
X118327142Y-99318095D01*
X118289047Y-99280000D01*
X118212857Y-99241904D01*
X117450952Y-99241904D02*
X117374761Y-99241904D01*
X117298571Y-99280000D01*
X117260476Y-99318095D01*
X117222380Y-99394285D01*
X117184285Y-99546666D01*
X117184285Y-99737142D01*
X117222380Y-99889523D01*
X117260476Y-99965714D01*
X117298571Y-100003809D01*
X117374761Y-100041904D01*
X117450952Y-100041904D01*
X117527142Y-100003809D01*
X117565238Y-99965714D01*
X117603333Y-99889523D01*
X117641428Y-99737142D01*
X117641428Y-99546666D01*
X117603333Y-99394285D01*
X117565238Y-99318095D01*
X117527142Y-99280000D01*
X117450952Y-99241904D01*
X116422380Y-100041904D02*
X116879523Y-100041904D01*
X116650952Y-100041904D02*
X116650952Y-99241904D01*
X116727142Y-99356190D01*
X116803333Y-99432380D01*
X116879523Y-99470476D01*
X119927142Y-101303809D02*
X119812857Y-101341904D01*
X119622380Y-101341904D01*
X119546190Y-101303809D01*
X119508095Y-101265714D01*
X119470000Y-101189523D01*
X119470000Y-101113333D01*
X119508095Y-101037142D01*
X119546190Y-100999047D01*
X119622380Y-100960952D01*
X119774761Y-100922857D01*
X119850952Y-100884761D01*
X119889047Y-100846666D01*
X119927142Y-100770476D01*
X119927142Y-100694285D01*
X119889047Y-100618095D01*
X119850952Y-100580000D01*
X119774761Y-100541904D01*
X119584285Y-100541904D01*
X119470000Y-100580000D01*
X119698571Y-100427619D02*
X119698571Y-101456190D01*
X118784285Y-100541904D02*
X118936666Y-100541904D01*
X119012857Y-100580000D01*
X119050952Y-100618095D01*
X119127142Y-100732380D01*
X119165238Y-100884761D01*
X119165238Y-101189523D01*
X119127142Y-101265714D01*
X119089047Y-101303809D01*
X119012857Y-101341904D01*
X118860476Y-101341904D01*
X118784285Y-101303809D01*
X118746190Y-101265714D01*
X118708095Y-101189523D01*
X118708095Y-100999047D01*
X118746190Y-100922857D01*
X118784285Y-100884761D01*
X118860476Y-100846666D01*
X119012857Y-100846666D01*
X119089047Y-100884761D01*
X119127142Y-100922857D01*
X119165238Y-100999047D01*
X118212857Y-100541904D02*
X118136666Y-100541904D01*
X118060476Y-100580000D01*
X118022380Y-100618095D01*
X117984285Y-100694285D01*
X117946190Y-100846666D01*
X117946190Y-101037142D01*
X117984285Y-101189523D01*
X118022380Y-101265714D01*
X118060476Y-101303809D01*
X118136666Y-101341904D01*
X118212857Y-101341904D01*
X118289047Y-101303809D01*
X118327142Y-101265714D01*
X118365238Y-101189523D01*
X118403333Y-101037142D01*
X118403333Y-100846666D01*
X118365238Y-100694285D01*
X118327142Y-100618095D01*
X118289047Y-100580000D01*
X118212857Y-100541904D01*
X117450952Y-100541904D02*
X117374761Y-100541904D01*
X117298571Y-100580000D01*
X117260476Y-100618095D01*
X117222380Y-100694285D01*
X117184285Y-100846666D01*
X117184285Y-101037142D01*
X117222380Y-101189523D01*
X117260476Y-101265714D01*
X117298571Y-101303809D01*
X117374761Y-101341904D01*
X117450952Y-101341904D01*
X117527142Y-101303809D01*
X117565238Y-101265714D01*
X117603333Y-101189523D01*
X117641428Y-101037142D01*
X117641428Y-100846666D01*
X117603333Y-100694285D01*
X117565238Y-100618095D01*
X117527142Y-100580000D01*
X117450952Y-100541904D01*
X116879523Y-100618095D02*
X116841428Y-100580000D01*
X116765238Y-100541904D01*
X116574761Y-100541904D01*
X116498571Y-100580000D01*
X116460476Y-100618095D01*
X116422380Y-100694285D01*
X116422380Y-100770476D01*
X116460476Y-100884761D01*
X116917619Y-101341904D01*
X116422380Y-101341904D01*
X119927142Y-102603809D02*
X119812857Y-102641904D01*
X119622380Y-102641904D01*
X119546190Y-102603809D01*
X119508095Y-102565714D01*
X119470000Y-102489523D01*
X119470000Y-102413333D01*
X119508095Y-102337142D01*
X119546190Y-102299047D01*
X119622380Y-102260952D01*
X119774761Y-102222857D01*
X119850952Y-102184761D01*
X119889047Y-102146666D01*
X119927142Y-102070476D01*
X119927142Y-101994285D01*
X119889047Y-101918095D01*
X119850952Y-101880000D01*
X119774761Y-101841904D01*
X119584285Y-101841904D01*
X119470000Y-101880000D01*
X119698571Y-101727619D02*
X119698571Y-102756190D01*
X118784285Y-101841904D02*
X118936666Y-101841904D01*
X119012857Y-101880000D01*
X119050952Y-101918095D01*
X119127142Y-102032380D01*
X119165238Y-102184761D01*
X119165238Y-102489523D01*
X119127142Y-102565714D01*
X119089047Y-102603809D01*
X119012857Y-102641904D01*
X118860476Y-102641904D01*
X118784285Y-102603809D01*
X118746190Y-102565714D01*
X118708095Y-102489523D01*
X118708095Y-102299047D01*
X118746190Y-102222857D01*
X118784285Y-102184761D01*
X118860476Y-102146666D01*
X119012857Y-102146666D01*
X119089047Y-102184761D01*
X119127142Y-102222857D01*
X119165238Y-102299047D01*
X118212857Y-101841904D02*
X118136666Y-101841904D01*
X118060476Y-101880000D01*
X118022380Y-101918095D01*
X117984285Y-101994285D01*
X117946190Y-102146666D01*
X117946190Y-102337142D01*
X117984285Y-102489523D01*
X118022380Y-102565714D01*
X118060476Y-102603809D01*
X118136666Y-102641904D01*
X118212857Y-102641904D01*
X118289047Y-102603809D01*
X118327142Y-102565714D01*
X118365238Y-102489523D01*
X118403333Y-102337142D01*
X118403333Y-102146666D01*
X118365238Y-101994285D01*
X118327142Y-101918095D01*
X118289047Y-101880000D01*
X118212857Y-101841904D01*
X117450952Y-101841904D02*
X117374761Y-101841904D01*
X117298571Y-101880000D01*
X117260476Y-101918095D01*
X117222380Y-101994285D01*
X117184285Y-102146666D01*
X117184285Y-102337142D01*
X117222380Y-102489523D01*
X117260476Y-102565714D01*
X117298571Y-102603809D01*
X117374761Y-102641904D01*
X117450952Y-102641904D01*
X117527142Y-102603809D01*
X117565238Y-102565714D01*
X117603333Y-102489523D01*
X117641428Y-102337142D01*
X117641428Y-102146666D01*
X117603333Y-101994285D01*
X117565238Y-101918095D01*
X117527142Y-101880000D01*
X117450952Y-101841904D01*
X116917619Y-101841904D02*
X116422380Y-101841904D01*
X116689047Y-102146666D01*
X116574761Y-102146666D01*
X116498571Y-102184761D01*
X116460476Y-102222857D01*
X116422380Y-102299047D01*
X116422380Y-102489523D01*
X116460476Y-102565714D01*
X116498571Y-102603809D01*
X116574761Y-102641904D01*
X116803333Y-102641904D01*
X116879523Y-102603809D01*
X116917619Y-102565714D01*
X105765476Y-136251904D02*
X105765476Y-135451904D01*
X105460714Y-135451904D01*
X105384523Y-135490000D01*
X105346428Y-135528095D01*
X105308333Y-135604285D01*
X105308333Y-135718571D01*
X105346428Y-135794761D01*
X105384523Y-135832857D01*
X105460714Y-135870952D01*
X105765476Y-135870952D01*
X104698809Y-135832857D02*
X104584523Y-135870952D01*
X104546428Y-135909047D01*
X104508333Y-135985238D01*
X104508333Y-136099523D01*
X104546428Y-136175714D01*
X104584523Y-136213809D01*
X104660714Y-136251904D01*
X104965476Y-136251904D01*
X104965476Y-135451904D01*
X104698809Y-135451904D01*
X104622619Y-135490000D01*
X104584523Y-135528095D01*
X104546428Y-135604285D01*
X104546428Y-135680476D01*
X104584523Y-135756666D01*
X104622619Y-135794761D01*
X104698809Y-135832857D01*
X104965476Y-135832857D01*
X104241666Y-135451904D02*
X103708333Y-135451904D01*
X104051190Y-136251904D01*
X105765476Y-129266904D02*
X105765476Y-128466904D01*
X105460714Y-128466904D01*
X105384523Y-128505000D01*
X105346428Y-128543095D01*
X105308333Y-128619285D01*
X105308333Y-128733571D01*
X105346428Y-128809761D01*
X105384523Y-128847857D01*
X105460714Y-128885952D01*
X105765476Y-128885952D01*
X104698809Y-128847857D02*
X104584523Y-128885952D01*
X104546428Y-128924047D01*
X104508333Y-129000238D01*
X104508333Y-129114523D01*
X104546428Y-129190714D01*
X104584523Y-129228809D01*
X104660714Y-129266904D01*
X104965476Y-129266904D01*
X104965476Y-128466904D01*
X104698809Y-128466904D01*
X104622619Y-128505000D01*
X104584523Y-128543095D01*
X104546428Y-128619285D01*
X104546428Y-128695476D01*
X104584523Y-128771666D01*
X104622619Y-128809761D01*
X104698809Y-128847857D01*
X104965476Y-128847857D01*
X103822619Y-128466904D02*
X103975000Y-128466904D01*
X104051190Y-128505000D01*
X104089285Y-128543095D01*
X104165476Y-128657380D01*
X104203571Y-128809761D01*
X104203571Y-129114523D01*
X104165476Y-129190714D01*
X104127380Y-129228809D01*
X104051190Y-129266904D01*
X103898809Y-129266904D01*
X103822619Y-129228809D01*
X103784523Y-129190714D01*
X103746428Y-129114523D01*
X103746428Y-128924047D01*
X103784523Y-128847857D01*
X103822619Y-128809761D01*
X103898809Y-128771666D01*
X104051190Y-128771666D01*
X104127380Y-128809761D01*
X104165476Y-128847857D01*
X104203571Y-128924047D01*
X105765476Y-122281904D02*
X105765476Y-121481904D01*
X105460714Y-121481904D01*
X105384523Y-121520000D01*
X105346428Y-121558095D01*
X105308333Y-121634285D01*
X105308333Y-121748571D01*
X105346428Y-121824761D01*
X105384523Y-121862857D01*
X105460714Y-121900952D01*
X105765476Y-121900952D01*
X104698809Y-121862857D02*
X104584523Y-121900952D01*
X104546428Y-121939047D01*
X104508333Y-122015238D01*
X104508333Y-122129523D01*
X104546428Y-122205714D01*
X104584523Y-122243809D01*
X104660714Y-122281904D01*
X104965476Y-122281904D01*
X104965476Y-121481904D01*
X104698809Y-121481904D01*
X104622619Y-121520000D01*
X104584523Y-121558095D01*
X104546428Y-121634285D01*
X104546428Y-121710476D01*
X104584523Y-121786666D01*
X104622619Y-121824761D01*
X104698809Y-121862857D01*
X104965476Y-121862857D01*
X103784523Y-121481904D02*
X104165476Y-121481904D01*
X104203571Y-121862857D01*
X104165476Y-121824761D01*
X104089285Y-121786666D01*
X103898809Y-121786666D01*
X103822619Y-121824761D01*
X103784523Y-121862857D01*
X103746428Y-121939047D01*
X103746428Y-122129523D01*
X103784523Y-122205714D01*
X103822619Y-122243809D01*
X103898809Y-122281904D01*
X104089285Y-122281904D01*
X104165476Y-122243809D01*
X104203571Y-122205714D01*
X105765476Y-115296904D02*
X105765476Y-114496904D01*
X105460714Y-114496904D01*
X105384523Y-114535000D01*
X105346428Y-114573095D01*
X105308333Y-114649285D01*
X105308333Y-114763571D01*
X105346428Y-114839761D01*
X105384523Y-114877857D01*
X105460714Y-114915952D01*
X105765476Y-114915952D01*
X104698809Y-114877857D02*
X104584523Y-114915952D01*
X104546428Y-114954047D01*
X104508333Y-115030238D01*
X104508333Y-115144523D01*
X104546428Y-115220714D01*
X104584523Y-115258809D01*
X104660714Y-115296904D01*
X104965476Y-115296904D01*
X104965476Y-114496904D01*
X104698809Y-114496904D01*
X104622619Y-114535000D01*
X104584523Y-114573095D01*
X104546428Y-114649285D01*
X104546428Y-114725476D01*
X104584523Y-114801666D01*
X104622619Y-114839761D01*
X104698809Y-114877857D01*
X104965476Y-114877857D01*
X103822619Y-114763571D02*
X103822619Y-115296904D01*
X104013095Y-114458809D02*
X104203571Y-115030238D01*
X103708333Y-115030238D01*
X105765476Y-108311904D02*
X105765476Y-107511904D01*
X105460714Y-107511904D01*
X105384523Y-107550000D01*
X105346428Y-107588095D01*
X105308333Y-107664285D01*
X105308333Y-107778571D01*
X105346428Y-107854761D01*
X105384523Y-107892857D01*
X105460714Y-107930952D01*
X105765476Y-107930952D01*
X104698809Y-107892857D02*
X104584523Y-107930952D01*
X104546428Y-107969047D01*
X104508333Y-108045238D01*
X104508333Y-108159523D01*
X104546428Y-108235714D01*
X104584523Y-108273809D01*
X104660714Y-108311904D01*
X104965476Y-108311904D01*
X104965476Y-107511904D01*
X104698809Y-107511904D01*
X104622619Y-107550000D01*
X104584523Y-107588095D01*
X104546428Y-107664285D01*
X104546428Y-107740476D01*
X104584523Y-107816666D01*
X104622619Y-107854761D01*
X104698809Y-107892857D01*
X104965476Y-107892857D01*
X104241666Y-107511904D02*
X103746428Y-107511904D01*
X104013095Y-107816666D01*
X103898809Y-107816666D01*
X103822619Y-107854761D01*
X103784523Y-107892857D01*
X103746428Y-107969047D01*
X103746428Y-108159523D01*
X103784523Y-108235714D01*
X103822619Y-108273809D01*
X103898809Y-108311904D01*
X104127380Y-108311904D01*
X104203571Y-108273809D01*
X104241666Y-108235714D01*
X105765476Y-101326904D02*
X105765476Y-100526904D01*
X105460714Y-100526904D01*
X105384523Y-100565000D01*
X105346428Y-100603095D01*
X105308333Y-100679285D01*
X105308333Y-100793571D01*
X105346428Y-100869761D01*
X105384523Y-100907857D01*
X105460714Y-100945952D01*
X105765476Y-100945952D01*
X104698809Y-100907857D02*
X104584523Y-100945952D01*
X104546428Y-100984047D01*
X104508333Y-101060238D01*
X104508333Y-101174523D01*
X104546428Y-101250714D01*
X104584523Y-101288809D01*
X104660714Y-101326904D01*
X104965476Y-101326904D01*
X104965476Y-100526904D01*
X104698809Y-100526904D01*
X104622619Y-100565000D01*
X104584523Y-100603095D01*
X104546428Y-100679285D01*
X104546428Y-100755476D01*
X104584523Y-100831666D01*
X104622619Y-100869761D01*
X104698809Y-100907857D01*
X104965476Y-100907857D01*
X104203571Y-100603095D02*
X104165476Y-100565000D01*
X104089285Y-100526904D01*
X103898809Y-100526904D01*
X103822619Y-100565000D01*
X103784523Y-100603095D01*
X103746428Y-100679285D01*
X103746428Y-100755476D01*
X103784523Y-100869761D01*
X104241666Y-101326904D01*
X103746428Y-101326904D01*
X105765476Y-94341904D02*
X105765476Y-93541904D01*
X105460714Y-93541904D01*
X105384523Y-93580000D01*
X105346428Y-93618095D01*
X105308333Y-93694285D01*
X105308333Y-93808571D01*
X105346428Y-93884761D01*
X105384523Y-93922857D01*
X105460714Y-93960952D01*
X105765476Y-93960952D01*
X104698809Y-93922857D02*
X104584523Y-93960952D01*
X104546428Y-93999047D01*
X104508333Y-94075238D01*
X104508333Y-94189523D01*
X104546428Y-94265714D01*
X104584523Y-94303809D01*
X104660714Y-94341904D01*
X104965476Y-94341904D01*
X104965476Y-93541904D01*
X104698809Y-93541904D01*
X104622619Y-93580000D01*
X104584523Y-93618095D01*
X104546428Y-93694285D01*
X104546428Y-93770476D01*
X104584523Y-93846666D01*
X104622619Y-93884761D01*
X104698809Y-93922857D01*
X104965476Y-93922857D01*
X103746428Y-94341904D02*
X104203571Y-94341904D01*
X103975000Y-94341904D02*
X103975000Y-93541904D01*
X104051190Y-93656190D01*
X104127380Y-93732380D01*
X104203571Y-93770476D01*
X105765476Y-87356904D02*
X105765476Y-86556904D01*
X105460714Y-86556904D01*
X105384523Y-86595000D01*
X105346428Y-86633095D01*
X105308333Y-86709285D01*
X105308333Y-86823571D01*
X105346428Y-86899761D01*
X105384523Y-86937857D01*
X105460714Y-86975952D01*
X105765476Y-86975952D01*
X104698809Y-86937857D02*
X104584523Y-86975952D01*
X104546428Y-87014047D01*
X104508333Y-87090238D01*
X104508333Y-87204523D01*
X104546428Y-87280714D01*
X104584523Y-87318809D01*
X104660714Y-87356904D01*
X104965476Y-87356904D01*
X104965476Y-86556904D01*
X104698809Y-86556904D01*
X104622619Y-86595000D01*
X104584523Y-86633095D01*
X104546428Y-86709285D01*
X104546428Y-86785476D01*
X104584523Y-86861666D01*
X104622619Y-86899761D01*
X104698809Y-86937857D01*
X104965476Y-86937857D01*
X104013095Y-86556904D02*
X103936904Y-86556904D01*
X103860714Y-86595000D01*
X103822619Y-86633095D01*
X103784523Y-86709285D01*
X103746428Y-86861666D01*
X103746428Y-87052142D01*
X103784523Y-87204523D01*
X103822619Y-87280714D01*
X103860714Y-87318809D01*
X103936904Y-87356904D01*
X104013095Y-87356904D01*
X104089285Y-87318809D01*
X104127380Y-87280714D01*
X104165476Y-87204523D01*
X104203571Y-87052142D01*
X104203571Y-86861666D01*
X104165476Y-86709285D01*
X104127380Y-86633095D01*
X104089285Y-86595000D01*
X104013095Y-86556904D01*
X112090000Y-127361904D02*
X112470952Y-127361904D01*
X112470952Y-126561904D01*
X111823333Y-126942857D02*
X111556666Y-126942857D01*
X111442380Y-127361904D02*
X111823333Y-127361904D01*
X111823333Y-126561904D01*
X111442380Y-126561904D01*
X111099523Y-127361904D02*
X111099523Y-126561904D01*
X110909047Y-126561904D01*
X110794761Y-126600000D01*
X110718571Y-126676190D01*
X110680476Y-126752380D01*
X110642380Y-126904761D01*
X110642380Y-127019047D01*
X110680476Y-127171428D01*
X110718571Y-127247619D01*
X110794761Y-127323809D01*
X110909047Y-127361904D01*
X111099523Y-127361904D01*
X110490000Y-127438095D02*
X109880476Y-127438095D01*
X109690000Y-126942857D02*
X109423333Y-126942857D01*
X109309047Y-127361904D02*
X109690000Y-127361904D01*
X109690000Y-126561904D01*
X109309047Y-126561904D01*
X108966190Y-127361904D02*
X108966190Y-126561904D01*
X108509047Y-127361904D01*
X108509047Y-126561904D01*
X112128095Y-117201904D02*
X112509047Y-117201904D01*
X112509047Y-116401904D01*
X111404285Y-117125714D02*
X111442380Y-117163809D01*
X111556666Y-117201904D01*
X111632857Y-117201904D01*
X111747142Y-117163809D01*
X111823333Y-117087619D01*
X111861428Y-117011428D01*
X111899523Y-116859047D01*
X111899523Y-116744761D01*
X111861428Y-116592380D01*
X111823333Y-116516190D01*
X111747142Y-116440000D01*
X111632857Y-116401904D01*
X111556666Y-116401904D01*
X111442380Y-116440000D01*
X111404285Y-116478095D01*
X111061428Y-117201904D02*
X111061428Y-116401904D01*
X110870952Y-116401904D01*
X110756666Y-116440000D01*
X110680476Y-116516190D01*
X110642380Y-116592380D01*
X110604285Y-116744761D01*
X110604285Y-116859047D01*
X110642380Y-117011428D01*
X110680476Y-117087619D01*
X110756666Y-117163809D01*
X110870952Y-117201904D01*
X111061428Y-117201904D01*
X110451904Y-117278095D02*
X109842380Y-117278095D01*
X109651904Y-116782857D02*
X109385238Y-116782857D01*
X109270952Y-117201904D02*
X109651904Y-117201904D01*
X109651904Y-116401904D01*
X109270952Y-116401904D01*
X108928095Y-117201904D02*
X108928095Y-116401904D01*
X108470952Y-117201904D01*
X108470952Y-116401904D01*
X191730476Y-72116904D02*
X192187619Y-72116904D01*
X191959047Y-72116904D02*
X191959047Y-71316904D01*
X192035238Y-71431190D01*
X192111428Y-71507380D01*
X192187619Y-71545476D01*
X190778095Y-72116904D02*
X190778095Y-71316904D01*
X190511428Y-71888333D01*
X190244761Y-71316904D01*
X190244761Y-72116904D01*
X189863809Y-72116904D02*
X189863809Y-71316904D01*
X189520952Y-72116904D02*
X189520952Y-71697857D01*
X189559047Y-71621666D01*
X189635238Y-71583571D01*
X189749523Y-71583571D01*
X189825714Y-71621666D01*
X189863809Y-71659761D01*
X189216190Y-71583571D02*
X188797142Y-71583571D01*
X189216190Y-72116904D01*
X188797142Y-72116904D01*
X191692380Y-74580714D02*
X191730476Y-74618809D01*
X191844761Y-74656904D01*
X191920952Y-74656904D01*
X192035238Y-74618809D01*
X192111428Y-74542619D01*
X192149523Y-74466428D01*
X192187619Y-74314047D01*
X192187619Y-74199761D01*
X192149523Y-74047380D01*
X192111428Y-73971190D01*
X192035238Y-73895000D01*
X191920952Y-73856904D01*
X191844761Y-73856904D01*
X191730476Y-73895000D01*
X191692380Y-73933095D01*
X191235238Y-74656904D02*
X191311428Y-74618809D01*
X191349523Y-74542619D01*
X191349523Y-73856904D01*
X190816190Y-74656904D02*
X190892380Y-74618809D01*
X190930476Y-74580714D01*
X190968571Y-74504523D01*
X190968571Y-74275952D01*
X190930476Y-74199761D01*
X190892380Y-74161666D01*
X190816190Y-74123571D01*
X190701904Y-74123571D01*
X190625714Y-74161666D01*
X190587619Y-74199761D01*
X190549523Y-74275952D01*
X190549523Y-74504523D01*
X190587619Y-74580714D01*
X190625714Y-74618809D01*
X190701904Y-74656904D01*
X190816190Y-74656904D01*
X189863809Y-74618809D02*
X189940000Y-74656904D01*
X190092380Y-74656904D01*
X190168571Y-74618809D01*
X190206666Y-74580714D01*
X190244761Y-74504523D01*
X190244761Y-74275952D01*
X190206666Y-74199761D01*
X190168571Y-74161666D01*
X190092380Y-74123571D01*
X189940000Y-74123571D01*
X189863809Y-74161666D01*
X189520952Y-74656904D02*
X189520952Y-73856904D01*
X189444761Y-74352142D02*
X189216190Y-74656904D01*
X189216190Y-74123571D02*
X189520952Y-74428333D01*
X191730476Y-76435000D02*
X191806666Y-76396904D01*
X191920952Y-76396904D01*
X192035238Y-76435000D01*
X192111428Y-76511190D01*
X192149523Y-76587380D01*
X192187619Y-76739761D01*
X192187619Y-76854047D01*
X192149523Y-77006428D01*
X192111428Y-77082619D01*
X192035238Y-77158809D01*
X191920952Y-77196904D01*
X191844761Y-77196904D01*
X191730476Y-77158809D01*
X191692380Y-77120714D01*
X191692380Y-76854047D01*
X191844761Y-76854047D01*
X191349523Y-77196904D02*
X191349523Y-76396904D01*
X190892380Y-77196904D01*
X190892380Y-76396904D01*
X190511428Y-77196904D02*
X190511428Y-76396904D01*
X190320952Y-76396904D01*
X190206666Y-76435000D01*
X190130476Y-76511190D01*
X190092380Y-76587380D01*
X190054285Y-76739761D01*
X190054285Y-76854047D01*
X190092380Y-77006428D01*
X190130476Y-77082619D01*
X190206666Y-77158809D01*
X190320952Y-77196904D01*
X190511428Y-77196904D01*
X192263809Y-68776904D02*
X191997142Y-69576904D01*
X191730476Y-68776904D01*
X191006666Y-69500714D02*
X191044761Y-69538809D01*
X191159047Y-69576904D01*
X191235238Y-69576904D01*
X191349523Y-69538809D01*
X191425714Y-69462619D01*
X191463809Y-69386428D01*
X191501904Y-69234047D01*
X191501904Y-69119761D01*
X191463809Y-68967380D01*
X191425714Y-68891190D01*
X191349523Y-68815000D01*
X191235238Y-68776904D01*
X191159047Y-68776904D01*
X191044761Y-68815000D01*
X191006666Y-68853095D01*
X190206666Y-69500714D02*
X190244761Y-69538809D01*
X190359047Y-69576904D01*
X190435238Y-69576904D01*
X190549523Y-69538809D01*
X190625714Y-69462619D01*
X190663809Y-69386428D01*
X190701904Y-69234047D01*
X190701904Y-69119761D01*
X190663809Y-68967380D01*
X190625714Y-68891190D01*
X190549523Y-68815000D01*
X190435238Y-68776904D01*
X190359047Y-68776904D01*
X190244761Y-68815000D01*
X190206666Y-68853095D01*
D11*
X196850000Y-71120000D02*
X196850000Y-67310000D01*
X196850000Y-78740000D02*
X196850000Y-74930000D01*
X193040000Y-78740000D02*
X193040000Y-67310000D01*
X196850000Y-74295000D02*
X195580000Y-74295000D01*
X196850000Y-71755000D02*
X196850000Y-74295000D01*
X195580000Y-71755000D02*
X196850000Y-71755000D01*
X112395000Y-121285000D02*
X112395000Y-120015000D01*
X112395000Y-126365000D02*
X112395000Y-125095000D01*
X112395000Y-124460000D02*
X111125000Y-124460000D01*
X112395000Y-121920000D02*
X112395000Y-124460000D01*
X111125000Y-121920000D02*
X112395000Y-121920000D01*
X112395000Y-107315000D02*
X112395000Y-111125000D01*
X108585000Y-107315000D02*
X112395000Y-107315000D01*
X108585000Y-116205000D02*
X108585000Y-107315000D01*
X112395000Y-116205000D02*
X108585000Y-116205000D01*
X112395000Y-114935000D02*
X112395000Y-116205000D01*
X112395000Y-114300000D02*
X111125000Y-114300000D01*
X112395000Y-111760000D02*
X112395000Y-114300000D01*
X111125000Y-111760000D02*
X112395000Y-111760000D01*
X108585000Y-126365000D02*
X108585000Y-120015000D01*
X112395000Y-126365000D02*
X108585000Y-126365000D01*
X108585000Y-120015000D02*
X112395000Y-120015000D01*
D12*
X127729523Y-91844761D02*
X127586666Y-91892380D01*
X127348571Y-91892380D01*
X127253333Y-91844761D01*
X127205714Y-91797142D01*
X127158095Y-91701904D01*
X127158095Y-91606666D01*
X127205714Y-91511428D01*
X127253333Y-91463809D01*
X127348571Y-91416190D01*
X127539047Y-91368571D01*
X127634285Y-91320952D01*
X127681904Y-91273333D01*
X127729523Y-91178095D01*
X127729523Y-91082857D01*
X127681904Y-90987619D01*
X127634285Y-90940000D01*
X127539047Y-90892380D01*
X127300952Y-90892380D01*
X127158095Y-90940000D01*
X127443809Y-90749523D02*
X127443809Y-92035238D01*
X126300952Y-90892380D02*
X126491428Y-90892380D01*
X126586666Y-90940000D01*
X126634285Y-90987619D01*
X126729523Y-91130476D01*
X126777142Y-91320952D01*
X126777142Y-91701904D01*
X126729523Y-91797142D01*
X126681904Y-91844761D01*
X126586666Y-91892380D01*
X126396190Y-91892380D01*
X126300952Y-91844761D01*
X126253333Y-91797142D01*
X126205714Y-91701904D01*
X126205714Y-91463809D01*
X126253333Y-91368571D01*
X126300952Y-91320952D01*
X126396190Y-91273333D01*
X126586666Y-91273333D01*
X126681904Y-91320952D01*
X126729523Y-91368571D01*
X126777142Y-91463809D01*
X125586666Y-90892380D02*
X125491428Y-90892380D01*
X125396190Y-90940000D01*
X125348571Y-90987619D01*
X125300952Y-91082857D01*
X125253333Y-91273333D01*
X125253333Y-91511428D01*
X125300952Y-91701904D01*
X125348571Y-91797142D01*
X125396190Y-91844761D01*
X125491428Y-91892380D01*
X125586666Y-91892380D01*
X125681904Y-91844761D01*
X125729523Y-91797142D01*
X125777142Y-91701904D01*
X125824761Y-91511428D01*
X125824761Y-91273333D01*
X125777142Y-91082857D01*
X125729523Y-90987619D01*
X125681904Y-90940000D01*
X125586666Y-90892380D01*
X124634285Y-90892380D02*
X124539047Y-90892380D01*
X124443809Y-90940000D01*
X124396190Y-90987619D01*
X124348571Y-91082857D01*
X124300952Y-91273333D01*
X124300952Y-91511428D01*
X124348571Y-91701904D01*
X124396190Y-91797142D01*
X124443809Y-91844761D01*
X124539047Y-91892380D01*
X124634285Y-91892380D01*
X124729523Y-91844761D01*
X124777142Y-91797142D01*
X124824761Y-91701904D01*
X124872380Y-91511428D01*
X124872380Y-91273333D01*
X124824761Y-91082857D01*
X124777142Y-90987619D01*
X124729523Y-90940000D01*
X124634285Y-90892380D01*
X123681904Y-90892380D02*
X123586666Y-90892380D01*
X123491428Y-90940000D01*
X123443809Y-90987619D01*
X123396190Y-91082857D01*
X123348571Y-91273333D01*
X123348571Y-91511428D01*
X123396190Y-91701904D01*
X123443809Y-91797142D01*
X123491428Y-91844761D01*
X123586666Y-91892380D01*
X123681904Y-91892380D01*
X123777142Y-91844761D01*
X123824761Y-91797142D01*
X123872380Y-91701904D01*
X123920000Y-91511428D01*
X123920000Y-91273333D01*
X123872380Y-91082857D01*
X123824761Y-90987619D01*
X123777142Y-90940000D01*
X123681904Y-90892380D01*
X122158095Y-91511428D02*
X121396190Y-91511428D01*
X120205714Y-91844761D02*
X120062857Y-91892380D01*
X119824761Y-91892380D01*
X119729523Y-91844761D01*
X119681904Y-91797142D01*
X119634285Y-91701904D01*
X119634285Y-91606666D01*
X119681904Y-91511428D01*
X119729523Y-91463809D01*
X119824761Y-91416190D01*
X120015238Y-91368571D01*
X120110476Y-91320952D01*
X120158095Y-91273333D01*
X120205714Y-91178095D01*
X120205714Y-91082857D01*
X120158095Y-90987619D01*
X120110476Y-90940000D01*
X120015238Y-90892380D01*
X119777142Y-90892380D01*
X119634285Y-90940000D01*
X119920000Y-90749523D02*
X119920000Y-92035238D01*
X119300952Y-90892380D02*
X118634285Y-90892380D01*
X119062857Y-91892380D01*
X117920000Y-91368571D02*
X118253333Y-91368571D01*
X118253333Y-91892380D02*
X118253333Y-90892380D01*
X117777142Y-90892380D01*
X117062857Y-91368571D02*
X117396190Y-91368571D01*
X117396190Y-91892380D02*
X117396190Y-90892380D01*
X116920000Y-90892380D01*
X116205714Y-91368571D02*
X116539047Y-91368571D01*
X116539047Y-91892380D02*
X116539047Y-90892380D01*
X116062857Y-90892380D01*
X173449523Y-91844761D02*
X173306666Y-91892380D01*
X173068571Y-91892380D01*
X172973333Y-91844761D01*
X172925714Y-91797142D01*
X172878095Y-91701904D01*
X172878095Y-91606666D01*
X172925714Y-91511428D01*
X172973333Y-91463809D01*
X173068571Y-91416190D01*
X173259047Y-91368571D01*
X173354285Y-91320952D01*
X173401904Y-91273333D01*
X173449523Y-91178095D01*
X173449523Y-91082857D01*
X173401904Y-90987619D01*
X173354285Y-90940000D01*
X173259047Y-90892380D01*
X173020952Y-90892380D01*
X172878095Y-90940000D01*
X173163809Y-90749523D02*
X173163809Y-92035238D01*
X172259047Y-90892380D02*
X172163809Y-90892380D01*
X172068571Y-90940000D01*
X172020952Y-90987619D01*
X171973333Y-91082857D01*
X171925714Y-91273333D01*
X171925714Y-91511428D01*
X171973333Y-91701904D01*
X172020952Y-91797142D01*
X172068571Y-91844761D01*
X172163809Y-91892380D01*
X172259047Y-91892380D01*
X172354285Y-91844761D01*
X172401904Y-91797142D01*
X172449523Y-91701904D01*
X172497142Y-91511428D01*
X172497142Y-91273333D01*
X172449523Y-91082857D01*
X172401904Y-90987619D01*
X172354285Y-90940000D01*
X172259047Y-90892380D01*
X171306666Y-90892380D02*
X171211428Y-90892380D01*
X171116190Y-90940000D01*
X171068571Y-90987619D01*
X171020952Y-91082857D01*
X170973333Y-91273333D01*
X170973333Y-91511428D01*
X171020952Y-91701904D01*
X171068571Y-91797142D01*
X171116190Y-91844761D01*
X171211428Y-91892380D01*
X171306666Y-91892380D01*
X171401904Y-91844761D01*
X171449523Y-91797142D01*
X171497142Y-91701904D01*
X171544761Y-91511428D01*
X171544761Y-91273333D01*
X171497142Y-91082857D01*
X171449523Y-90987619D01*
X171401904Y-90940000D01*
X171306666Y-90892380D01*
X170354285Y-90892380D02*
X170259047Y-90892380D01*
X170163809Y-90940000D01*
X170116190Y-90987619D01*
X170068571Y-91082857D01*
X170020952Y-91273333D01*
X170020952Y-91511428D01*
X170068571Y-91701904D01*
X170116190Y-91797142D01*
X170163809Y-91844761D01*
X170259047Y-91892380D01*
X170354285Y-91892380D01*
X170449523Y-91844761D01*
X170497142Y-91797142D01*
X170544761Y-91701904D01*
X170592380Y-91511428D01*
X170592380Y-91273333D01*
X170544761Y-91082857D01*
X170497142Y-90987619D01*
X170449523Y-90940000D01*
X170354285Y-90892380D01*
X169401904Y-90892380D02*
X169306666Y-90892380D01*
X169211428Y-90940000D01*
X169163809Y-90987619D01*
X169116190Y-91082857D01*
X169068571Y-91273333D01*
X169068571Y-91511428D01*
X169116190Y-91701904D01*
X169163809Y-91797142D01*
X169211428Y-91844761D01*
X169306666Y-91892380D01*
X169401904Y-91892380D01*
X169497142Y-91844761D01*
X169544761Y-91797142D01*
X169592380Y-91701904D01*
X169640000Y-91511428D01*
X169640000Y-91273333D01*
X169592380Y-91082857D01*
X169544761Y-90987619D01*
X169497142Y-90940000D01*
X169401904Y-90892380D01*
X167878095Y-91511428D02*
X167116190Y-91511428D01*
X165925714Y-91844761D02*
X165782857Y-91892380D01*
X165544761Y-91892380D01*
X165449523Y-91844761D01*
X165401904Y-91797142D01*
X165354285Y-91701904D01*
X165354285Y-91606666D01*
X165401904Y-91511428D01*
X165449523Y-91463809D01*
X165544761Y-91416190D01*
X165735238Y-91368571D01*
X165830476Y-91320952D01*
X165878095Y-91273333D01*
X165925714Y-91178095D01*
X165925714Y-91082857D01*
X165878095Y-90987619D01*
X165830476Y-90940000D01*
X165735238Y-90892380D01*
X165497142Y-90892380D01*
X165354285Y-90940000D01*
X165640000Y-90749523D02*
X165640000Y-92035238D01*
X165020952Y-90892380D02*
X164401904Y-90892380D01*
X164735238Y-91273333D01*
X164592380Y-91273333D01*
X164497142Y-91320952D01*
X164449523Y-91368571D01*
X164401904Y-91463809D01*
X164401904Y-91701904D01*
X164449523Y-91797142D01*
X164497142Y-91844761D01*
X164592380Y-91892380D01*
X164878095Y-91892380D01*
X164973333Y-91844761D01*
X165020952Y-91797142D01*
X163640000Y-91368571D02*
X163973333Y-91368571D01*
X163973333Y-91892380D02*
X163973333Y-90892380D01*
X163497142Y-90892380D01*
X162782857Y-91368571D02*
X163116190Y-91368571D01*
X163116190Y-91892380D02*
X163116190Y-90892380D01*
X162640000Y-90892380D01*
X161925714Y-91368571D02*
X162259047Y-91368571D01*
X162259047Y-91892380D02*
X162259047Y-90892380D01*
X161782857Y-90892380D01*
X196261904Y-91844761D02*
X196119047Y-91892380D01*
X195880952Y-91892380D01*
X195785714Y-91844761D01*
X195738095Y-91797142D01*
X195690476Y-91701904D01*
X195690476Y-91606666D01*
X195738095Y-91511428D01*
X195785714Y-91463809D01*
X195880952Y-91416190D01*
X196071428Y-91368571D01*
X196166666Y-91320952D01*
X196214285Y-91273333D01*
X196261904Y-91178095D01*
X196261904Y-91082857D01*
X196214285Y-90987619D01*
X196166666Y-90940000D01*
X196071428Y-90892380D01*
X195833333Y-90892380D01*
X195690476Y-90940000D01*
X195976190Y-90749523D02*
X195976190Y-92035238D01*
X195119047Y-91320952D02*
X195214285Y-91273333D01*
X195261904Y-91225714D01*
X195309523Y-91130476D01*
X195309523Y-91082857D01*
X195261904Y-90987619D01*
X195214285Y-90940000D01*
X195119047Y-90892380D01*
X194928571Y-90892380D01*
X194833333Y-90940000D01*
X194785714Y-90987619D01*
X194738095Y-91082857D01*
X194738095Y-91130476D01*
X194785714Y-91225714D01*
X194833333Y-91273333D01*
X194928571Y-91320952D01*
X195119047Y-91320952D01*
X195214285Y-91368571D01*
X195261904Y-91416190D01*
X195309523Y-91511428D01*
X195309523Y-91701904D01*
X195261904Y-91797142D01*
X195214285Y-91844761D01*
X195119047Y-91892380D01*
X194928571Y-91892380D01*
X194833333Y-91844761D01*
X194785714Y-91797142D01*
X194738095Y-91701904D01*
X194738095Y-91511428D01*
X194785714Y-91416190D01*
X194833333Y-91368571D01*
X194928571Y-91320952D01*
X194119047Y-90892380D02*
X194023809Y-90892380D01*
X193928571Y-90940000D01*
X193880952Y-90987619D01*
X193833333Y-91082857D01*
X193785714Y-91273333D01*
X193785714Y-91511428D01*
X193833333Y-91701904D01*
X193880952Y-91797142D01*
X193928571Y-91844761D01*
X194023809Y-91892380D01*
X194119047Y-91892380D01*
X194214285Y-91844761D01*
X194261904Y-91797142D01*
X194309523Y-91701904D01*
X194357142Y-91511428D01*
X194357142Y-91273333D01*
X194309523Y-91082857D01*
X194261904Y-90987619D01*
X194214285Y-90940000D01*
X194119047Y-90892380D01*
X193166666Y-90892380D02*
X193071428Y-90892380D01*
X192976190Y-90940000D01*
X192928571Y-90987619D01*
X192880952Y-91082857D01*
X192833333Y-91273333D01*
X192833333Y-91511428D01*
X192880952Y-91701904D01*
X192928571Y-91797142D01*
X192976190Y-91844761D01*
X193071428Y-91892380D01*
X193166666Y-91892380D01*
X193261904Y-91844761D01*
X193309523Y-91797142D01*
X193357142Y-91701904D01*
X193404761Y-91511428D01*
X193404761Y-91273333D01*
X193357142Y-91082857D01*
X193309523Y-90987619D01*
X193261904Y-90940000D01*
X193166666Y-90892380D01*
X192214285Y-90892380D02*
X192119047Y-90892380D01*
X192023809Y-90940000D01*
X191976190Y-90987619D01*
X191928571Y-91082857D01*
X191880952Y-91273333D01*
X191880952Y-91511428D01*
X191928571Y-91701904D01*
X191976190Y-91797142D01*
X192023809Y-91844761D01*
X192119047Y-91892380D01*
X192214285Y-91892380D01*
X192309523Y-91844761D01*
X192357142Y-91797142D01*
X192404761Y-91701904D01*
X192452380Y-91511428D01*
X192452380Y-91273333D01*
X192404761Y-91082857D01*
X192357142Y-90987619D01*
X192309523Y-90940000D01*
X192214285Y-90892380D01*
X190690476Y-91511428D02*
X189928571Y-91511428D01*
X188738095Y-91844761D02*
X188595238Y-91892380D01*
X188357142Y-91892380D01*
X188261904Y-91844761D01*
X188214285Y-91797142D01*
X188166666Y-91701904D01*
X188166666Y-91606666D01*
X188214285Y-91511428D01*
X188261904Y-91463809D01*
X188357142Y-91416190D01*
X188547619Y-91368571D01*
X188642857Y-91320952D01*
X188690476Y-91273333D01*
X188738095Y-91178095D01*
X188738095Y-91082857D01*
X188690476Y-90987619D01*
X188642857Y-90940000D01*
X188547619Y-90892380D01*
X188309523Y-90892380D01*
X188166666Y-90940000D01*
X188452380Y-90749523D02*
X188452380Y-92035238D01*
X187404761Y-91368571D02*
X187738095Y-91368571D01*
X187738095Y-91892380D02*
X187738095Y-90892380D01*
X187261904Y-90892380D01*
X186547619Y-91368571D02*
X186880952Y-91368571D01*
X186880952Y-91892380D02*
X186880952Y-90892380D01*
X186404761Y-90892380D01*
X185690476Y-91368571D02*
X186023809Y-91368571D01*
X186023809Y-91892380D02*
X186023809Y-90892380D01*
X185547619Y-90892380D01*
X184833333Y-91368571D02*
X185166666Y-91368571D01*
X185166666Y-91892380D02*
X185166666Y-90892380D01*
X184690476Y-90892380D01*
D11*
X196850000Y-78740000D02*
X193040000Y-78740000D01*
X193040000Y-67310000D02*
X196850000Y-67310000D01*
D13*
X177418571Y-50692857D02*
X177204285Y-50764285D01*
X177132857Y-50835714D01*
X177061428Y-50978571D01*
X177061428Y-51192857D01*
X177132857Y-51335714D01*
X177204285Y-51407142D01*
X177347142Y-51478571D01*
X177918571Y-51478571D01*
X177918571Y-49978571D01*
X177418571Y-49978571D01*
X177275714Y-50050000D01*
X177204285Y-50121428D01*
X177132857Y-50264285D01*
X177132857Y-50407142D01*
X177204285Y-50550000D01*
X177275714Y-50621428D01*
X177418571Y-50692857D01*
X177918571Y-50692857D01*
X176418571Y-50692857D02*
X175918571Y-50692857D01*
X175704285Y-51478571D02*
X176418571Y-51478571D01*
X176418571Y-49978571D01*
X175704285Y-49978571D01*
X174418571Y-49978571D02*
X174704285Y-49978571D01*
X174847142Y-50050000D01*
X174918571Y-50121428D01*
X175061428Y-50335714D01*
X175132857Y-50621428D01*
X175132857Y-51192857D01*
X175061428Y-51335714D01*
X174990000Y-51407142D01*
X174847142Y-51478571D01*
X174561428Y-51478571D01*
X174418571Y-51407142D01*
X174347142Y-51335714D01*
X174275714Y-51192857D01*
X174275714Y-50835714D01*
X174347142Y-50692857D01*
X174418571Y-50621428D01*
X174561428Y-50550000D01*
X174847142Y-50550000D01*
X174990000Y-50621428D01*
X175061428Y-50692857D01*
X175132857Y-50835714D01*
X172918571Y-49978571D02*
X173632857Y-49978571D01*
X173704285Y-50692857D01*
X173632857Y-50621428D01*
X173490000Y-50550000D01*
X173132857Y-50550000D01*
X172990000Y-50621428D01*
X172918571Y-50692857D01*
X172847142Y-50835714D01*
X172847142Y-51192857D01*
X172918571Y-51335714D01*
X172990000Y-51407142D01*
X173132857Y-51478571D01*
X173490000Y-51478571D01*
X173632857Y-51407142D01*
X173704285Y-51335714D01*
X171918571Y-49978571D02*
X171775714Y-49978571D01*
X171632857Y-50050000D01*
X171561428Y-50121428D01*
X171490000Y-50264285D01*
X171418571Y-50550000D01*
X171418571Y-50907142D01*
X171490000Y-51192857D01*
X171561428Y-51335714D01*
X171632857Y-51407142D01*
X171775714Y-51478571D01*
X171918571Y-51478571D01*
X172061428Y-51407142D01*
X172132857Y-51335714D01*
X172204285Y-51192857D01*
X172275714Y-50907142D01*
X172275714Y-50550000D01*
X172204285Y-50264285D01*
X172132857Y-50121428D01*
X172061428Y-50050000D01*
X171918571Y-49978571D01*
X170847142Y-50121428D02*
X170775714Y-50050000D01*
X170632857Y-49978571D01*
X170275714Y-49978571D01*
X170132857Y-50050000D01*
X170061428Y-50121428D01*
X169990000Y-50264285D01*
X169990000Y-50407142D01*
X170061428Y-50621428D01*
X170918571Y-51478571D01*
X169990000Y-51478571D01*
D12*
X179561428Y-53109761D02*
X179418571Y-53157380D01*
X179180476Y-53157380D01*
X179085238Y-53109761D01*
X179037619Y-53062142D01*
X178990000Y-52966904D01*
X178990000Y-52871666D01*
X179037619Y-52776428D01*
X179085238Y-52728809D01*
X179180476Y-52681190D01*
X179370952Y-52633571D01*
X179466190Y-52585952D01*
X179513809Y-52538333D01*
X179561428Y-52443095D01*
X179561428Y-52347857D01*
X179513809Y-52252619D01*
X179466190Y-52205000D01*
X179370952Y-52157380D01*
X179132857Y-52157380D01*
X178990000Y-52205000D01*
X178228095Y-52633571D02*
X178085238Y-52681190D01*
X178037619Y-52728809D01*
X177990000Y-52824047D01*
X177990000Y-52966904D01*
X178037619Y-53062142D01*
X178085238Y-53109761D01*
X178180476Y-53157380D01*
X178561428Y-53157380D01*
X178561428Y-52157380D01*
X178228095Y-52157380D01*
X178132857Y-52205000D01*
X178085238Y-52252619D01*
X178037619Y-52347857D01*
X178037619Y-52443095D01*
X178085238Y-52538333D01*
X178132857Y-52585952D01*
X178228095Y-52633571D01*
X178561428Y-52633571D01*
X176990000Y-53062142D02*
X177037619Y-53109761D01*
X177180476Y-53157380D01*
X177275714Y-53157380D01*
X177418571Y-53109761D01*
X177513809Y-53014523D01*
X177561428Y-52919285D01*
X177609047Y-52728809D01*
X177609047Y-52585952D01*
X177561428Y-52395476D01*
X177513809Y-52300238D01*
X177418571Y-52205000D01*
X177275714Y-52157380D01*
X177180476Y-52157380D01*
X177037619Y-52205000D01*
X176990000Y-52252619D01*
X175228095Y-53157380D02*
X175561428Y-52681190D01*
X175799523Y-53157380D02*
X175799523Y-52157380D01*
X175418571Y-52157380D01*
X175323333Y-52205000D01*
X175275714Y-52252619D01*
X175228095Y-52347857D01*
X175228095Y-52490714D01*
X175275714Y-52585952D01*
X175323333Y-52633571D01*
X175418571Y-52681190D01*
X175799523Y-52681190D01*
X174418571Y-53109761D02*
X174513809Y-53157380D01*
X174704285Y-53157380D01*
X174799523Y-53109761D01*
X174847142Y-53014523D01*
X174847142Y-52633571D01*
X174799523Y-52538333D01*
X174704285Y-52490714D01*
X174513809Y-52490714D01*
X174418571Y-52538333D01*
X174370952Y-52633571D01*
X174370952Y-52728809D01*
X174847142Y-52824047D01*
X174037619Y-52490714D02*
X173799523Y-53157380D01*
X173561428Y-52490714D01*
X173180476Y-53157380D02*
X173180476Y-52490714D01*
X173180476Y-52157380D02*
X173228095Y-52205000D01*
X173180476Y-52252619D01*
X173132857Y-52205000D01*
X173180476Y-52157380D01*
X173180476Y-52252619D01*
X172751904Y-53109761D02*
X172656666Y-53157380D01*
X172466190Y-53157380D01*
X172370952Y-53109761D01*
X172323333Y-53014523D01*
X172323333Y-52966904D01*
X172370952Y-52871666D01*
X172466190Y-52824047D01*
X172609047Y-52824047D01*
X172704285Y-52776428D01*
X172751904Y-52681190D01*
X172751904Y-52633571D01*
X172704285Y-52538333D01*
X172609047Y-52490714D01*
X172466190Y-52490714D01*
X172370952Y-52538333D01*
X171894761Y-53157380D02*
X171894761Y-52490714D01*
X171894761Y-52157380D02*
X171942380Y-52205000D01*
X171894761Y-52252619D01*
X171847142Y-52205000D01*
X171894761Y-52157380D01*
X171894761Y-52252619D01*
X171275714Y-53157380D02*
X171370952Y-53109761D01*
X171418571Y-53062142D01*
X171466190Y-52966904D01*
X171466190Y-52681190D01*
X171418571Y-52585952D01*
X171370952Y-52538333D01*
X171275714Y-52490714D01*
X171132857Y-52490714D01*
X171037619Y-52538333D01*
X170990000Y-52585952D01*
X170942380Y-52681190D01*
X170942380Y-52966904D01*
X170990000Y-53062142D01*
X171037619Y-53109761D01*
X171132857Y-53157380D01*
X171275714Y-53157380D01*
X170513809Y-52490714D02*
X170513809Y-53157380D01*
X170513809Y-52585952D02*
X170466190Y-52538333D01*
X170370952Y-52490714D01*
X170228095Y-52490714D01*
X170132857Y-52538333D01*
X170085238Y-52633571D01*
X170085238Y-53157380D01*
X168894761Y-52871666D02*
X168418571Y-52871666D01*
X168990000Y-53157380D02*
X168656666Y-52157380D01*
X168323333Y-53157380D01*
X126741428Y-88078571D02*
X127027142Y-88078571D01*
X127170000Y-88150000D01*
X127241428Y-88221428D01*
X127384285Y-88435714D01*
X127455714Y-88721428D01*
X127455714Y-89292857D01*
X127384285Y-89435714D01*
X127312857Y-89507142D01*
X127170000Y-89578571D01*
X126884285Y-89578571D01*
X126741428Y-89507142D01*
X126670000Y-89435714D01*
X126598571Y-89292857D01*
X126598571Y-88935714D01*
X126670000Y-88792857D01*
X126741428Y-88721428D01*
X126884285Y-88650000D01*
X127170000Y-88650000D01*
X127312857Y-88721428D01*
X127384285Y-88792857D01*
X127455714Y-88935714D01*
X125241428Y-88078571D02*
X125955714Y-88078571D01*
X126027142Y-88792857D01*
X125955714Y-88721428D01*
X125812857Y-88650000D01*
X125455714Y-88650000D01*
X125312857Y-88721428D01*
X125241428Y-88792857D01*
X125170000Y-88935714D01*
X125170000Y-89292857D01*
X125241428Y-89435714D01*
X125312857Y-89507142D01*
X125455714Y-89578571D01*
X125812857Y-89578571D01*
X125955714Y-89507142D01*
X126027142Y-89435714D01*
X123670000Y-89435714D02*
X123741428Y-89507142D01*
X123955714Y-89578571D01*
X124098571Y-89578571D01*
X124312857Y-89507142D01*
X124455714Y-89364285D01*
X124527142Y-89221428D01*
X124598571Y-88935714D01*
X124598571Y-88721428D01*
X124527142Y-88435714D01*
X124455714Y-88292857D01*
X124312857Y-88150000D01*
X124098571Y-88078571D01*
X123955714Y-88078571D01*
X123741428Y-88150000D01*
X123670000Y-88221428D01*
X123098571Y-88221428D02*
X123027142Y-88150000D01*
X122884285Y-88078571D01*
X122527142Y-88078571D01*
X122384285Y-88150000D01*
X122312857Y-88221428D01*
X122241428Y-88364285D01*
X122241428Y-88507142D01*
X122312857Y-88721428D01*
X123170000Y-89578571D01*
X122241428Y-89578571D01*
X121670000Y-88221428D02*
X121598571Y-88150000D01*
X121455714Y-88078571D01*
X121098571Y-88078571D01*
X120955714Y-88150000D01*
X120884285Y-88221428D01*
X120812857Y-88364285D01*
X120812857Y-88507142D01*
X120884285Y-88721428D01*
X121741428Y-89578571D01*
X120812857Y-89578571D01*
X119241428Y-88078571D02*
X118741428Y-89578571D01*
X118241428Y-88078571D01*
X117741428Y-89578571D02*
X117741428Y-88078571D01*
X117098571Y-89150000D02*
X116384285Y-89150000D01*
X117241428Y-89578571D02*
X116741428Y-88078571D01*
X116241428Y-89578571D01*
D11*
X129857500Y-57467500D02*
X129857500Y-78422500D01*
X142557500Y-57467500D02*
X142557500Y-78422500D01*
X129857500Y-57467500D02*
X142557500Y-57467500D01*
X142557500Y-78422500D02*
X129857500Y-78422500D01*
D12*
X135386071Y-61698928D02*
X135386071Y-61984642D01*
X135457500Y-62127500D01*
X135600357Y-62270357D01*
X135886071Y-62341785D01*
X136386071Y-62341785D01*
X136671785Y-62270357D01*
X136814642Y-62127500D01*
X136886071Y-61984642D01*
X136886071Y-61698928D01*
X136814642Y-61556071D01*
X136671785Y-61413214D01*
X136386071Y-61341785D01*
X135886071Y-61341785D01*
X135600357Y-61413214D01*
X135457500Y-61556071D01*
X135386071Y-61698928D01*
X136814642Y-62913214D02*
X136886071Y-63127500D01*
X136886071Y-63484642D01*
X136814642Y-63627500D01*
X136743214Y-63698928D01*
X136600357Y-63770357D01*
X136457500Y-63770357D01*
X136314642Y-63698928D01*
X136243214Y-63627500D01*
X136171785Y-63484642D01*
X136100357Y-63198928D01*
X136028928Y-63056071D01*
X135957500Y-62984642D01*
X135814642Y-62913214D01*
X135671785Y-62913214D01*
X135528928Y-62984642D01*
X135457500Y-63056071D01*
X135386071Y-63198928D01*
X135386071Y-63556071D01*
X135457500Y-63770357D01*
X136743214Y-65270357D02*
X136814642Y-65198928D01*
X136886071Y-64984642D01*
X136886071Y-64841785D01*
X136814642Y-64627500D01*
X136671785Y-64484642D01*
X136528928Y-64413214D01*
X136243214Y-64341785D01*
X136028928Y-64341785D01*
X135743214Y-64413214D01*
X135600357Y-64484642D01*
X135457500Y-64627500D01*
X135386071Y-64841785D01*
X135386071Y-64984642D01*
X135457500Y-65198928D01*
X135528928Y-65270357D01*
X136886071Y-65913214D02*
X135386071Y-65913214D01*
X136886071Y-67341785D02*
X136886071Y-66627500D01*
X135386071Y-66627500D01*
X136886071Y-68556071D02*
X136886071Y-67841785D01*
X135386071Y-67841785D01*
X136457500Y-68984642D02*
X136457500Y-69698928D01*
X136886071Y-68841785D02*
X135386071Y-69341785D01*
X136886071Y-69841785D01*
X135386071Y-70127500D02*
X135386071Y-70984642D01*
X136886071Y-70556071D02*
X135386071Y-70556071D01*
X135386071Y-71770357D02*
X135386071Y-72056071D01*
X135457500Y-72198928D01*
X135600357Y-72341785D01*
X135886071Y-72413214D01*
X136386071Y-72413214D01*
X136671785Y-72341785D01*
X136814642Y-72198928D01*
X136886071Y-72056071D01*
X136886071Y-71770357D01*
X136814642Y-71627500D01*
X136671785Y-71484642D01*
X136386071Y-71413214D01*
X135886071Y-71413214D01*
X135600357Y-71484642D01*
X135457500Y-71627500D01*
X135386071Y-71770357D01*
X136886071Y-73913214D02*
X136171785Y-73413214D01*
X136886071Y-73056071D02*
X135386071Y-73056071D01*
X135386071Y-73627500D01*
X135457500Y-73770357D01*
X135528928Y-73841785D01*
X135671785Y-73913214D01*
X135886071Y-73913214D01*
X136028928Y-73841785D01*
X136100357Y-73770357D01*
X136171785Y-73627500D01*
X136171785Y-73056071D01*
X194642857Y-88792857D02*
X194142857Y-88792857D01*
X193928571Y-89578571D02*
X194642857Y-89578571D01*
X194642857Y-88078571D01*
X193928571Y-88078571D01*
X193285714Y-88792857D02*
X192785714Y-88792857D01*
X192571428Y-89578571D02*
X193285714Y-89578571D01*
X193285714Y-88078571D01*
X192571428Y-88078571D01*
X191928571Y-89578571D02*
X191928571Y-88078571D01*
X191357142Y-88078571D01*
X191214285Y-88150000D01*
X191142857Y-88221428D01*
X191071428Y-88364285D01*
X191071428Y-88578571D01*
X191142857Y-88721428D01*
X191214285Y-88792857D01*
X191357142Y-88864285D01*
X191928571Y-88864285D01*
X189571428Y-89578571D02*
X190071428Y-88864285D01*
X190428571Y-89578571D02*
X190428571Y-88078571D01*
X189857142Y-88078571D01*
X189714285Y-88150000D01*
X189642857Y-88221428D01*
X189571428Y-88364285D01*
X189571428Y-88578571D01*
X189642857Y-88721428D01*
X189714285Y-88792857D01*
X189857142Y-88864285D01*
X190428571Y-88864285D01*
X188642857Y-88078571D02*
X188357142Y-88078571D01*
X188214285Y-88150000D01*
X188071428Y-88292857D01*
X188000000Y-88578571D01*
X188000000Y-89078571D01*
X188071428Y-89364285D01*
X188214285Y-89507142D01*
X188357142Y-89578571D01*
X188642857Y-89578571D01*
X188785714Y-89507142D01*
X188928571Y-89364285D01*
X189000000Y-89078571D01*
X189000000Y-88578571D01*
X188928571Y-88292857D01*
X188785714Y-88150000D01*
X188642857Y-88078571D01*
X187357142Y-89578571D02*
X187357142Y-88078571D01*
X186857142Y-89150000D01*
X186357142Y-88078571D01*
X186357142Y-89578571D01*
X173782857Y-89507142D02*
X173568571Y-89578571D01*
X173211428Y-89578571D01*
X173068571Y-89507142D01*
X172997142Y-89435714D01*
X172925714Y-89292857D01*
X172925714Y-89150000D01*
X172997142Y-89007142D01*
X173068571Y-88935714D01*
X173211428Y-88864285D01*
X173497142Y-88792857D01*
X173640000Y-88721428D01*
X173711428Y-88650000D01*
X173782857Y-88507142D01*
X173782857Y-88364285D01*
X173711428Y-88221428D01*
X173640000Y-88150000D01*
X173497142Y-88078571D01*
X173140000Y-88078571D01*
X172925714Y-88150000D01*
X172497142Y-88078571D02*
X171640000Y-88078571D01*
X172068571Y-89578571D02*
X172068571Y-88078571D01*
X171211428Y-89150000D02*
X170497142Y-89150000D01*
X171354285Y-89578571D02*
X170854285Y-88078571D01*
X170354285Y-89578571D01*
X170068571Y-88078571D02*
X169211428Y-88078571D01*
X169640000Y-89578571D02*
X169640000Y-88078571D01*
X168711428Y-89578571D02*
X168711428Y-88078571D01*
X167140000Y-89435714D02*
X167211428Y-89507142D01*
X167425714Y-89578571D01*
X167568571Y-89578571D01*
X167782857Y-89507142D01*
X167925714Y-89364285D01*
X167997142Y-89221428D01*
X168068571Y-88935714D01*
X168068571Y-88721428D01*
X167997142Y-88435714D01*
X167925714Y-88292857D01*
X167782857Y-88150000D01*
X167568571Y-88078571D01*
X167425714Y-88078571D01*
X167211428Y-88150000D01*
X167140000Y-88221428D01*
X164497142Y-89578571D02*
X164997142Y-88864285D01*
X165354285Y-89578571D02*
X165354285Y-88078571D01*
X164782857Y-88078571D01*
X164640000Y-88150000D01*
X164568571Y-88221428D01*
X164497142Y-88364285D01*
X164497142Y-88578571D01*
X164568571Y-88721428D01*
X164640000Y-88792857D01*
X164782857Y-88864285D01*
X165354285Y-88864285D01*
X163925714Y-89150000D02*
X163211428Y-89150000D01*
X164068571Y-89578571D02*
X163568571Y-88078571D01*
X163068571Y-89578571D01*
X162568571Y-89578571D02*
X162568571Y-88078571D01*
X162068571Y-89150000D01*
X161568571Y-88078571D01*
X161568571Y-89578571D01*
X150244285Y-88078571D02*
X150530000Y-88078571D01*
X150672857Y-88150000D01*
X150744285Y-88221428D01*
X150887142Y-88435714D01*
X150958571Y-88721428D01*
X150958571Y-89292857D01*
X150887142Y-89435714D01*
X150815714Y-89507142D01*
X150672857Y-89578571D01*
X150387142Y-89578571D01*
X150244285Y-89507142D01*
X150172857Y-89435714D01*
X150101428Y-89292857D01*
X150101428Y-88935714D01*
X150172857Y-88792857D01*
X150244285Y-88721428D01*
X150387142Y-88650000D01*
X150672857Y-88650000D01*
X150815714Y-88721428D01*
X150887142Y-88792857D01*
X150958571Y-88935714D01*
X148744285Y-88078571D02*
X149458571Y-88078571D01*
X149530000Y-88792857D01*
X149458571Y-88721428D01*
X149315714Y-88650000D01*
X148958571Y-88650000D01*
X148815714Y-88721428D01*
X148744285Y-88792857D01*
X148672857Y-88935714D01*
X148672857Y-89292857D01*
X148744285Y-89435714D01*
X148815714Y-89507142D01*
X148958571Y-89578571D01*
X149315714Y-89578571D01*
X149458571Y-89507142D01*
X149530000Y-89435714D01*
X147172857Y-89435714D02*
X147244285Y-89507142D01*
X147458571Y-89578571D01*
X147601428Y-89578571D01*
X147815714Y-89507142D01*
X147958571Y-89364285D01*
X148030000Y-89221428D01*
X148101428Y-88935714D01*
X148101428Y-88721428D01*
X148030000Y-88435714D01*
X147958571Y-88292857D01*
X147815714Y-88150000D01*
X147601428Y-88078571D01*
X147458571Y-88078571D01*
X147244285Y-88150000D01*
X147172857Y-88221428D01*
X146244285Y-88078571D02*
X146101428Y-88078571D01*
X145958571Y-88150000D01*
X145887142Y-88221428D01*
X145815714Y-88364285D01*
X145744285Y-88650000D01*
X145744285Y-89007142D01*
X145815714Y-89292857D01*
X145887142Y-89435714D01*
X145958571Y-89507142D01*
X146101428Y-89578571D01*
X146244285Y-89578571D01*
X146387142Y-89507142D01*
X146458571Y-89435714D01*
X146530000Y-89292857D01*
X146601428Y-89007142D01*
X146601428Y-88650000D01*
X146530000Y-88364285D01*
X146458571Y-88221428D01*
X146387142Y-88150000D01*
X146244285Y-88078571D01*
X145172857Y-88221428D02*
X145101428Y-88150000D01*
X144958571Y-88078571D01*
X144601428Y-88078571D01*
X144458571Y-88150000D01*
X144387142Y-88221428D01*
X144315714Y-88364285D01*
X144315714Y-88507142D01*
X144387142Y-88721428D01*
X145244285Y-89578571D01*
X144315714Y-89578571D01*
X141672857Y-89435714D02*
X141744285Y-89507142D01*
X141958571Y-89578571D01*
X142101428Y-89578571D01*
X142315714Y-89507142D01*
X142458571Y-89364285D01*
X142530000Y-89221428D01*
X142601428Y-88935714D01*
X142601428Y-88721428D01*
X142530000Y-88435714D01*
X142458571Y-88292857D01*
X142315714Y-88150000D01*
X142101428Y-88078571D01*
X141958571Y-88078571D01*
X141744285Y-88150000D01*
X141672857Y-88221428D01*
X141030000Y-89578571D02*
X141030000Y-88078571D01*
X140458571Y-88078571D01*
X140315714Y-88150000D01*
X140244285Y-88221428D01*
X140172857Y-88364285D01*
X140172857Y-88578571D01*
X140244285Y-88721428D01*
X140315714Y-88792857D01*
X140458571Y-88864285D01*
X141030000Y-88864285D01*
X139530000Y-88078571D02*
X139530000Y-89292857D01*
X139458571Y-89435714D01*
X139387142Y-89507142D01*
X139244285Y-89578571D01*
X138958571Y-89578571D01*
X138815714Y-89507142D01*
X138744285Y-89435714D01*
X138672857Y-89292857D01*
X138672857Y-88078571D01*
D10*
X162680476Y-67656904D02*
X162680476Y-66856904D01*
X162223333Y-67656904D01*
X162223333Y-66856904D01*
X161880476Y-67428333D02*
X161499523Y-67428333D01*
X161956666Y-67656904D02*
X161690000Y-66856904D01*
X161423333Y-67656904D01*
X161156666Y-67656904D02*
X161156666Y-66856904D01*
X160699523Y-67656904D01*
X160699523Y-66856904D01*
X160318571Y-67656904D02*
X160318571Y-66856904D01*
X160128095Y-66856904D01*
X160013809Y-66895000D01*
X159937619Y-66971190D01*
X159899523Y-67047380D01*
X159861428Y-67199761D01*
X159861428Y-67314047D01*
X159899523Y-67466428D01*
X159937619Y-67542619D01*
X160013809Y-67618809D01*
X160128095Y-67656904D01*
X160318571Y-67656904D01*
X162470952Y-68195000D02*
X162547142Y-68156904D01*
X162661428Y-68156904D01*
X162775714Y-68195000D01*
X162851904Y-68271190D01*
X162890000Y-68347380D01*
X162928095Y-68499761D01*
X162928095Y-68614047D01*
X162890000Y-68766428D01*
X162851904Y-68842619D01*
X162775714Y-68918809D01*
X162661428Y-68956904D01*
X162585238Y-68956904D01*
X162470952Y-68918809D01*
X162432857Y-68880714D01*
X162432857Y-68614047D01*
X162585238Y-68614047D01*
X162128095Y-68728333D02*
X161747142Y-68728333D01*
X162204285Y-68956904D02*
X161937619Y-68156904D01*
X161670952Y-68956904D01*
X161518571Y-68156904D02*
X161061428Y-68156904D01*
X161290000Y-68956904D02*
X161290000Y-68156904D01*
X160794761Y-68537857D02*
X160528095Y-68537857D01*
X160413809Y-68956904D02*
X160794761Y-68956904D01*
X160794761Y-68156904D01*
X160413809Y-68156904D01*
X160109047Y-68918809D02*
X159994761Y-68956904D01*
X159804285Y-68956904D01*
X159728095Y-68918809D01*
X159690000Y-68880714D01*
X159651904Y-68804523D01*
X159651904Y-68728333D01*
X159690000Y-68652142D01*
X159728095Y-68614047D01*
X159804285Y-68575952D01*
X159956666Y-68537857D01*
X160032857Y-68499761D01*
X160070952Y-68461666D01*
X160109047Y-68385476D01*
X160109047Y-68309285D01*
X160070952Y-68233095D01*
X160032857Y-68195000D01*
X159956666Y-68156904D01*
X159766190Y-68156904D01*
X159651904Y-68195000D01*
D11*
X165100000Y-58420000D02*
X165100000Y-59690000D01*
X157480000Y-58420000D02*
X165100000Y-58420000D01*
X157480000Y-59690000D02*
X157480000Y-58420000D01*
X165100000Y-77470000D02*
X165100000Y-76200000D01*
X157480000Y-77470000D02*
X165100000Y-77470000D01*
X157480000Y-76200000D02*
X157480000Y-77470000D01*
X198120000Y-121285000D02*
X198120000Y-120015000D01*
X182880000Y-121285000D02*
X198120000Y-121285000D01*
X182880000Y-120015000D02*
X182880000Y-121285000D01*
X129540000Y-136525000D02*
X129540000Y-135255000D01*
X114300000Y-136525000D02*
X129540000Y-136525000D01*
X114300000Y-135255000D02*
X114300000Y-136525000D01*
X198120000Y-84455000D02*
X198120000Y-85725000D01*
X182880000Y-84455000D02*
X198120000Y-84455000D01*
X182880000Y-85725000D02*
X182880000Y-84455000D01*
X175260000Y-84455000D02*
X175260000Y-85725000D01*
X160020000Y-84455000D02*
X175260000Y-84455000D01*
X160020000Y-85725000D02*
X160020000Y-84455000D01*
X152400000Y-84455000D02*
X152400000Y-85725000D01*
X137160000Y-84455000D02*
X152400000Y-84455000D01*
X137160000Y-85725000D02*
X137160000Y-84455000D01*
X129540000Y-84455000D02*
X129540000Y-85725000D01*
X114300000Y-84455000D02*
X129540000Y-84455000D01*
X114300000Y-85725000D02*
X114300000Y-84455000D01*
X137160000Y-136525000D02*
X137160000Y-135255000D01*
X152400000Y-136525000D02*
X137160000Y-136525000D01*
X152400000Y-135255000D02*
X152400000Y-136525000D01*
X175260000Y-121285000D02*
X175260000Y-120015000D01*
X160020000Y-121285000D02*
X175260000Y-121285000D01*
X160020000Y-120015000D02*
X160020000Y-121285000D01*
D12*
X179394761Y-54395714D02*
X179394761Y-55205238D01*
X179442380Y-55300476D01*
X179490000Y-55348095D01*
X179585238Y-55395714D01*
X179728095Y-55395714D01*
X179823333Y-55348095D01*
X179394761Y-55014761D02*
X179490000Y-55062380D01*
X179680476Y-55062380D01*
X179775714Y-55014761D01*
X179823333Y-54967142D01*
X179870952Y-54871904D01*
X179870952Y-54586190D01*
X179823333Y-54490952D01*
X179775714Y-54443333D01*
X179680476Y-54395714D01*
X179490000Y-54395714D01*
X179394761Y-54443333D01*
X178918571Y-55062380D02*
X178918571Y-54395714D01*
X178918571Y-54062380D02*
X178966190Y-54110000D01*
X178918571Y-54157619D01*
X178870952Y-54110000D01*
X178918571Y-54062380D01*
X178918571Y-54157619D01*
X178585238Y-54395714D02*
X178204285Y-54395714D01*
X178442380Y-54062380D02*
X178442380Y-54919523D01*
X178394761Y-55014761D01*
X178299523Y-55062380D01*
X178204285Y-55062380D01*
X177870952Y-55062380D02*
X177870952Y-54062380D01*
X177442380Y-55062380D02*
X177442380Y-54538571D01*
X177490000Y-54443333D01*
X177585238Y-54395714D01*
X177728095Y-54395714D01*
X177823333Y-54443333D01*
X177870952Y-54490952D01*
X176537619Y-54395714D02*
X176537619Y-55062380D01*
X176966190Y-54395714D02*
X176966190Y-54919523D01*
X176918571Y-55014761D01*
X176823333Y-55062380D01*
X176680476Y-55062380D01*
X176585238Y-55014761D01*
X176537619Y-54967142D01*
X176061428Y-55062380D02*
X176061428Y-54062380D01*
X176061428Y-54443333D02*
X175966190Y-54395714D01*
X175775714Y-54395714D01*
X175680476Y-54443333D01*
X175632857Y-54490952D01*
X175585238Y-54586190D01*
X175585238Y-54871904D01*
X175632857Y-54967142D01*
X175680476Y-55014761D01*
X175775714Y-55062380D01*
X175966190Y-55062380D01*
X176061428Y-55014761D01*
X175156666Y-54967142D02*
X175109047Y-55014761D01*
X175156666Y-55062380D01*
X175204285Y-55014761D01*
X175156666Y-54967142D01*
X175156666Y-55062380D01*
X174251904Y-55014761D02*
X174347142Y-55062380D01*
X174537619Y-55062380D01*
X174632857Y-55014761D01*
X174680476Y-54967142D01*
X174728095Y-54871904D01*
X174728095Y-54586190D01*
X174680476Y-54490952D01*
X174632857Y-54443333D01*
X174537619Y-54395714D01*
X174347142Y-54395714D01*
X174251904Y-54443333D01*
X173680476Y-55062380D02*
X173775714Y-55014761D01*
X173823333Y-54967142D01*
X173870952Y-54871904D01*
X173870952Y-54586190D01*
X173823333Y-54490952D01*
X173775714Y-54443333D01*
X173680476Y-54395714D01*
X173537619Y-54395714D01*
X173442380Y-54443333D01*
X173394761Y-54490952D01*
X173347142Y-54586190D01*
X173347142Y-54871904D01*
X173394761Y-54967142D01*
X173442380Y-55014761D01*
X173537619Y-55062380D01*
X173680476Y-55062380D01*
X172918571Y-55062380D02*
X172918571Y-54395714D01*
X172918571Y-54490952D02*
X172870952Y-54443333D01*
X172775714Y-54395714D01*
X172632857Y-54395714D01*
X172537619Y-54443333D01*
X172490000Y-54538571D01*
X172490000Y-55062380D01*
X172490000Y-54538571D02*
X172442380Y-54443333D01*
X172347142Y-54395714D01*
X172204285Y-54395714D01*
X172109047Y-54443333D01*
X172061428Y-54538571D01*
X172061428Y-55062380D01*
X170870952Y-54014761D02*
X171728095Y-55300476D01*
X170680476Y-54395714D02*
X170299523Y-54395714D01*
X170537619Y-54062380D02*
X170537619Y-54919523D01*
X170490000Y-55014761D01*
X170394761Y-55062380D01*
X170299523Y-55062380D01*
X169585238Y-55014761D02*
X169680476Y-55062380D01*
X169870952Y-55062380D01*
X169966190Y-55014761D01*
X170013809Y-54919523D01*
X170013809Y-54538571D01*
X169966190Y-54443333D01*
X169870952Y-54395714D01*
X169680476Y-54395714D01*
X169585238Y-54443333D01*
X169537619Y-54538571D01*
X169537619Y-54633809D01*
X170013809Y-54729047D01*
X169109047Y-55062380D02*
X169109047Y-54062380D01*
X169109047Y-54443333D02*
X169013809Y-54395714D01*
X168823333Y-54395714D01*
X168728095Y-54443333D01*
X168680476Y-54490952D01*
X168632857Y-54586190D01*
X168632857Y-54871904D01*
X168680476Y-54967142D01*
X168728095Y-55014761D01*
X168823333Y-55062380D01*
X169013809Y-55062380D01*
X169109047Y-55014761D01*
X168061428Y-55062380D02*
X168156666Y-55014761D01*
X168204285Y-54919523D01*
X168204285Y-54062380D01*
X182133571Y-133802380D02*
X182133571Y-132802380D01*
X181800238Y-133516666D01*
X181466904Y-132802380D01*
X181466904Y-133802380D01*
X180990714Y-133802380D02*
X180990714Y-132802380D01*
X180514523Y-133802380D02*
X180514523Y-132802380D01*
X180276428Y-132802380D01*
X180133571Y-132850000D01*
X180038333Y-132945238D01*
X179990714Y-133040476D01*
X179943095Y-133230952D01*
X179943095Y-133373809D01*
X179990714Y-133564285D01*
X180038333Y-133659523D01*
X180133571Y-133754761D01*
X180276428Y-133802380D01*
X180514523Y-133802380D01*
X179514523Y-133802380D02*
X179514523Y-132802380D01*
X179276428Y-132802380D01*
X179133571Y-132850000D01*
X179038333Y-132945238D01*
X178990714Y-133040476D01*
X178943095Y-133230952D01*
X178943095Y-133373809D01*
X178990714Y-133564285D01*
X179038333Y-133659523D01*
X179133571Y-133754761D01*
X179276428Y-133802380D01*
X179514523Y-133802380D01*
X178038333Y-133802380D02*
X178514523Y-133802380D01*
X178514523Y-132802380D01*
X177705000Y-133278571D02*
X177371666Y-133278571D01*
X177228809Y-133802380D02*
X177705000Y-133802380D01*
X177705000Y-132802380D01*
X177228809Y-132802380D01*
X179855714Y-125182380D02*
X179855714Y-125991904D01*
X179808095Y-126087142D01*
X179760476Y-126134761D01*
X179665238Y-126182380D01*
X179474761Y-126182380D01*
X179379523Y-126134761D01*
X179331904Y-126087142D01*
X179284285Y-125991904D01*
X179284285Y-125182380D01*
X178808095Y-126182380D02*
X178808095Y-125182380D01*
X178427142Y-125182380D01*
X178331904Y-125230000D01*
X178284285Y-125277619D01*
X178236666Y-125372857D01*
X178236666Y-125515714D01*
X178284285Y-125610952D01*
X178331904Y-125658571D01*
X178427142Y-125706190D01*
X178808095Y-125706190D01*
X180950952Y-141422380D02*
X180950952Y-140422380D01*
X180712857Y-140422380D01*
X180570000Y-140470000D01*
X180474761Y-140565238D01*
X180427142Y-140660476D01*
X180379523Y-140850952D01*
X180379523Y-140993809D01*
X180427142Y-141184285D01*
X180474761Y-141279523D01*
X180570000Y-141374761D01*
X180712857Y-141422380D01*
X180950952Y-141422380D01*
X179760476Y-140422380D02*
X179570000Y-140422380D01*
X179474761Y-140470000D01*
X179379523Y-140565238D01*
X179331904Y-140755714D01*
X179331904Y-141089047D01*
X179379523Y-141279523D01*
X179474761Y-141374761D01*
X179570000Y-141422380D01*
X179760476Y-141422380D01*
X179855714Y-141374761D01*
X179950952Y-141279523D01*
X179998571Y-141089047D01*
X179998571Y-140755714D01*
X179950952Y-140565238D01*
X179855714Y-140470000D01*
X179760476Y-140422380D01*
X178998571Y-140422380D02*
X178760476Y-141422380D01*
X178570000Y-140708095D01*
X178379523Y-141422380D01*
X178141428Y-140422380D01*
X177760476Y-141422380D02*
X177760476Y-140422380D01*
X177189047Y-141422380D01*
X177189047Y-140422380D01*
X170497380Y-133802380D02*
X170973571Y-133802380D01*
X170973571Y-132802380D01*
X170164047Y-133278571D02*
X169830714Y-133278571D01*
X169687857Y-133802380D02*
X170164047Y-133802380D01*
X170164047Y-132802380D01*
X169687857Y-132802380D01*
X168925952Y-133278571D02*
X169259285Y-133278571D01*
X169259285Y-133802380D02*
X169259285Y-132802380D01*
X168783095Y-132802380D01*
X168545000Y-132802380D02*
X167973571Y-132802380D01*
X168259285Y-133802380D02*
X168259285Y-132802380D01*
X190563333Y-133802380D02*
X190896666Y-133326190D01*
X191134761Y-133802380D02*
X191134761Y-132802380D01*
X190753809Y-132802380D01*
X190658571Y-132850000D01*
X190610952Y-132897619D01*
X190563333Y-132992857D01*
X190563333Y-133135714D01*
X190610952Y-133230952D01*
X190658571Y-133278571D01*
X190753809Y-133326190D01*
X191134761Y-133326190D01*
X190134761Y-133802380D02*
X190134761Y-132802380D01*
X189134761Y-132850000D02*
X189230000Y-132802380D01*
X189372857Y-132802380D01*
X189515714Y-132850000D01*
X189610952Y-132945238D01*
X189658571Y-133040476D01*
X189706190Y-133230952D01*
X189706190Y-133373809D01*
X189658571Y-133564285D01*
X189610952Y-133659523D01*
X189515714Y-133754761D01*
X189372857Y-133802380D01*
X189277619Y-133802380D01*
X189134761Y-133754761D01*
X189087142Y-133707142D01*
X189087142Y-133373809D01*
X189277619Y-133373809D01*
X188658571Y-133802380D02*
X188658571Y-132802380D01*
X188658571Y-133278571D02*
X188087142Y-133278571D01*
X188087142Y-133802380D02*
X188087142Y-132802380D01*
X187753809Y-132802380D02*
X187182380Y-132802380D01*
X187468095Y-133802380D02*
X187468095Y-132802380D01*
M02*
