M48
; DRILL file {KiCad (5.1.5)-3} date 15/02/2020 17:47:20
; FORMAT={2:4/ absolute / inch / suppress leading zeros}
; #@! TF.CreationDate,2020-02-15T17:47:20+01:00
; #@! TF.GenerationSoftware,Kicad,Pcbnew,(5.1.5)-3
FMAT,2
INCH,TZ
T1C0.0157
T2C0.0315
T3C0.0354
T4C0.0394
T5C0.0433
T6C0.0472
T7C0.0984
T8C0.1200
%
G90
G05
T1
X39750Y-26750
X39750Y-44750
X39750Y-53000
X41250Y-32750
X41250Y-34500
X41250Y-37250
X41250Y-40000
X41250Y-43750
X41250Y-45750
X41250Y-48500
X41750Y-49250
X42000Y-45250
X42250Y-43750
X42250Y-45500
X42500Y-44750
X44250Y-27250
X46000Y-22000
X46250Y-23250
X46500Y-24500
X46750Y-25750
X47000Y-27000
X47250Y-21500
X47250Y-28250
X47500Y-21250
X47500Y-29500
X47750Y-21500
X47750Y-30750
X47750Y-39750
X47750Y-40250
X47750Y-43250
X48000Y-22250
X48500Y-36750
X48500Y-48250
X48750Y-31250
X48750Y-38750
X48750Y-47250
X49000Y-34750
X49000Y-46250
X49250Y-31250
X49250Y-37750
X49250Y-45250
X49500Y-31500
X49500Y-35750
X49500Y-44250
X49750Y-31750
X49750Y-43250
X50000Y-22250
X50000Y-32000
X50000Y-41500
X50000Y-42250
X50500Y-40500
X52000Y-52750
X52500Y-56500
X52750Y-23250
X52750Y-56250
X53000Y-22500
X53250Y-22250
X53250Y-23500
X53250Y-50750
X53500Y-22500
X53500Y-23250
X53750Y-22250
X53750Y-23500
X53750Y-27250
X53750Y-56000
X54000Y-22500
X54000Y-23250
X54250Y-22250
X54250Y-23500
X54500Y-22500
X54500Y-23250
X54500Y-56000
X54750Y-27250
X54750Y-38750
X54750Y-41250
X54750Y-50750
X54750Y-56250
X55000Y-40250
X55250Y-39250
X55250Y-49750
X55500Y-38500
X55500Y-45750
X55500Y-51000
X55750Y-38750
X55750Y-46750
X56000Y-37750
X56000Y-51000
X56250Y-40500
X56250Y-43750
X56250Y-51250
X56500Y-37250
X56500Y-44750
X56500Y-50750
X56750Y-38250
X56750Y-39500
X56750Y-56500
X57000Y-42000
X57250Y-35750
X57250Y-39750
X57500Y-32250
X57500Y-34000
X57500Y-38250
X57750Y-34250
X58250Y-30250
X58250Y-30750
X58250Y-32500
X58250Y-34000
X58250Y-35250
X58250Y-40000
X58250Y-51250
X58250Y-56500
X58500Y-29750
X58500Y-32750
X58500Y-34250
X58500Y-39000
X58500Y-51500
X58750Y-28500
X58750Y-30000
X58750Y-32500
X58750Y-34500
X58750Y-51250
X59000Y-33750
X59000Y-37250
X59000Y-51500
X59250Y-38750
X59250Y-39250
X59250Y-40250
X59250Y-41250
X59250Y-42250
X59250Y-49750
X59250Y-51250
X59750Y-56500
X60750Y-44500
X60750Y-47750
X61750Y-42750
X61750Y-46250
X62000Y-41750
X62000Y-46500
X62250Y-50000
X62250Y-50500
X62250Y-51000
X62500Y-32250
X62500Y-49750
X62500Y-50250
X62500Y-50750
X62750Y-30750
X62750Y-32500
X63000Y-30500
X63750Y-38750
X63750Y-39750
X63750Y-40750
X63750Y-43750
X63750Y-46750
X64049Y-46549
X64246Y-43174
X64250Y-42000
X64295Y-46772
X64500Y-23000
X64500Y-41500
X64555Y-46539
X64750Y-40500
X64750Y-49500
X64750Y-50000
X64787Y-46770
X65000Y-39500
X65047Y-46512
X65250Y-38500
X65279Y-46752
X65500Y-32500
X65500Y-33750
X65500Y-37500
X65539Y-46506
X65750Y-26500
X65750Y-30750
X65750Y-32750
X65750Y-35750
X65750Y-36500
X65771Y-46750
X66000Y-30000
X66000Y-37250
X66031Y-46500
X66250Y-32500
X66250Y-34250
X66250Y-50250
X66264Y-46750
X66500Y-32250
X66500Y-35750
X66500Y-36250
X66500Y-49750
X66524Y-46500
X66750Y-50500
X67000Y-41750
X67750Y-27500
X68000Y-28750
X68000Y-36750
X68000Y-43750
X68500Y-31000
X68500Y-43500
X68500Y-44500
X68500Y-45500
X68500Y-46500
X68500Y-50500
X69750Y-43250
X69750Y-44250
X69750Y-45250
X69750Y-46250
X72750Y-40250
X73750Y-49500
X73750Y-55750
X74000Y-49750
X74000Y-55500
X74250Y-33250
X74250Y-50000
X74250Y-55750
X74500Y-41750
X74500Y-49750
X74500Y-52250
X74500Y-55500
X74750Y-37500
X74750Y-48000
X74750Y-50000
X74750Y-52500
X74750Y-55750
X75000Y-29000
X75000Y-40500
X75000Y-47750
X75000Y-55500
X75250Y-27750
X75250Y-38500
X75250Y-48000
X75250Y-50000
X75500Y-35250
X75500Y-47750
X75750Y-33000
X75750Y-35500
X75750Y-48000
X76000Y-34250
X76000Y-39250
X76000Y-47750
X76250Y-48000
X76500Y-33000
X76500Y-47750
X76750Y-32750
X76750Y-48000
X77000Y-33000
X77000Y-47750
X77250Y-32750
X77250Y-48000
T2
X56750Y-28000
X60750Y-28000
X56750Y-29250
X60750Y-29250
X76031Y-32500
X78000Y-32500
X45000Y-34000
X45000Y-35000
X45000Y-36000
X45000Y-37000
X45000Y-38000
X45000Y-39000
X45000Y-40000
X45000Y-41000
X45000Y-42000
X45000Y-43000
X45000Y-44000
X45000Y-45000
X45000Y-46000
X45000Y-47000
X45000Y-48000
X45000Y-49000
X45000Y-50000
X45000Y-51000
X45000Y-52000
X45000Y-53000
X51000Y-34000
X51000Y-35000
X51000Y-36000
X51000Y-37000
X51000Y-38000
X51000Y-39000
X51000Y-40000
X51000Y-41000
X51000Y-42000
X51000Y-43000
X51000Y-44000
X51000Y-45000
X51000Y-46000
X51000Y-47000
X51000Y-48000
X51000Y-49000
X51000Y-50000
X51000Y-51000
X51000Y-52000
X51000Y-53000
X45500Y-28000
X49500Y-28000
X54000Y-34000
X54000Y-35000
X54000Y-36000
X54000Y-37000
X54000Y-38000
X54000Y-39000
X54000Y-40000
X54000Y-41000
X54000Y-42000
X54000Y-43000
X54000Y-44000
X54000Y-45000
X54000Y-46000
X54000Y-47000
X54000Y-48000
X54000Y-49000
X54000Y-50000
X54000Y-51000
X54000Y-52000
X54000Y-53000
X60000Y-34000
X60000Y-35000
X60000Y-36000
X60000Y-37000
X60000Y-38000
X60000Y-39000
X60000Y-40000
X60000Y-41000
X60000Y-42000
X60000Y-43000
X60000Y-44000
X60000Y-45000
X60000Y-46000
X60000Y-47000
X60000Y-48000
X60000Y-49000
X60000Y-50000
X60000Y-51000
X60000Y-52000
X60000Y-53000
X45500Y-29250
X49500Y-29250
X45500Y-24250
X49500Y-24250
X57750Y-25250
X59719Y-25250
X77000Y-23000
X77000Y-24000
X77000Y-25000
X45500Y-26750
X49500Y-26750
X52500Y-39031
X52500Y-41000
X45500Y-23000
X49500Y-23000
X62531Y-22250
X64500Y-22250
X66500Y-26750
X70500Y-26750
X66500Y-29250
X70500Y-29250
X66500Y-28000
X70500Y-28000
X66500Y-30500
X70500Y-30500
X61500Y-34000
X61500Y-38000
X70500Y-34000
X70500Y-35969
X43500Y-51031
X43500Y-53000
X56750Y-26750
X60750Y-26750
X52000Y-23750
X52000Y-29750
X55000Y-23750
X55000Y-29750
X66500Y-25500
X70500Y-25500
X45500Y-25500
X49500Y-25500
X72000Y-34000
X72000Y-35000
X72000Y-36000
X72000Y-37000
X72000Y-38000
X72000Y-39000
X72000Y-40000
X72000Y-41000
X72000Y-42000
X72000Y-43000
X72000Y-44000
X72000Y-45000
X72000Y-46000
X72000Y-47000
X78000Y-34000
X78000Y-35000
X78000Y-36000
X78000Y-37000
X78000Y-38000
X78000Y-39000
X78000Y-40000
X78000Y-41000
X78000Y-42000
X78000Y-43000
X78000Y-44000
X78000Y-45000
X78000Y-46000
X78000Y-47000
X56750Y-30500
X60750Y-30500
X45500Y-21750
X49500Y-21750
X62000Y-23750
X62000Y-24750
X62000Y-25750
X62000Y-26750
X62000Y-27750
X62000Y-28750
X62000Y-29750
X65000Y-23750
X65000Y-24750
X65000Y-25750
X65000Y-26750
X65000Y-27750
X65000Y-28750
X65000Y-29750
X45500Y-30500
X49500Y-30500
X63000Y-34000
X63000Y-35000
X63000Y-36000
X63000Y-37000
X63000Y-38000
X63000Y-39000
X63000Y-40000
X63000Y-41000
X63000Y-42000
X63000Y-43000
X63000Y-44000
X63000Y-45000
X63000Y-46000
X63000Y-47000
X69000Y-34000
X69000Y-35000
X69000Y-36000
X69000Y-37000
X69000Y-38000
X69000Y-39000
X69000Y-40000
X69000Y-41000
X69000Y-42000
X69000Y-43000
X69000Y-44000
X69000Y-45000
X69000Y-46000
X69000Y-47000
T3
X40750Y-33500
X41750Y-33500
X40750Y-41750
X41750Y-41750
X40750Y-39000
X41750Y-39000
X40750Y-52750
X41750Y-52750
X40750Y-36250
X41750Y-36250
X40750Y-50000
X41750Y-50000
X40750Y-44500
X41750Y-44500
X40750Y-47250
X41750Y-47250
T4
X76750Y-27250
X76750Y-28250
X76750Y-29250
X76750Y-30250
X43500Y-48000
X43500Y-49000
X40000Y-57250
X41000Y-57250
X42000Y-57250
X43000Y-57250
X44000Y-57250
X45000Y-57250
X46000Y-57250
X47000Y-57250
X48000Y-57250
X49000Y-57250
X50000Y-57250
X51000Y-57250
X52000Y-57250
X53000Y-57250
X54000Y-57250
X55000Y-57250
X56000Y-57250
X57000Y-57250
X58000Y-57250
X59000Y-57250
X60000Y-57250
X61000Y-57250
X62000Y-57250
X63000Y-57250
X64000Y-57250
X65000Y-57250
X66000Y-57250
X67000Y-57250
X68000Y-57250
X69000Y-57250
X70000Y-57250
X71000Y-57250
X72000Y-57250
X73000Y-57250
X74000Y-57250
X75000Y-57250
X76000Y-57250
X77000Y-57250
X78000Y-57250
X43500Y-43000
X43500Y-44000
X43500Y-45000
T5
X69250Y-48500
X69250Y-50272
X71809Y-48500
X71809Y-50272
X69250Y-51500
X69250Y-53272
X71809Y-51500
X71809Y-53272
X73000Y-51500
X73000Y-53272
X75559Y-51500
X75559Y-53272
X65500Y-51500
X65500Y-53272
X68059Y-51500
X68059Y-53272
X69250Y-54500
X69250Y-56272
X71809Y-54500
X71809Y-56272
X40750Y-27691
X40750Y-30250
X42522Y-27691
X42522Y-30250
T6
X47000Y-20000
X48000Y-20000
X49000Y-20000
X50000Y-20000
X51000Y-20000
X52000Y-20000
X53000Y-20000
X54000Y-20000
X55000Y-20000
X56000Y-20000
X57000Y-20000
X58000Y-20000
X59000Y-20000
X60000Y-20000
X61000Y-20000
X62000Y-20000
T7
X44835Y-20000
X44835Y-32205
X74362Y-32205
X74362Y-20000
T8
X41000Y-20500
X77000Y-20500
X41000Y-55250
X77000Y-55250
T4
G00X40388Y-23356
M15
G01X40388Y-24144
M16
G05
G00X41175Y-25600
M15
G01X41963Y-25600
M16
G05
G00X42750Y-23356
M15
G01X42750Y-24144
M16
G05
T0
M30
