G04 #@! TF.FileFunction,Legend,Bot*
%FSLAX46Y46*%
G04 Gerber Fmt 4.6, Leading zero omitted, Abs format (unit mm)*
G04 Created by KiCad (PCBNEW 4.0.7) date 01/29/20 23:55:41*
%MOMM*%
%LPD*%
G01*
G04 APERTURE LIST*
%ADD10C,0.100000*%
%ADD11C,0.150000*%
%ADD12C,0.200000*%
G04 APERTURE END LIST*
D10*
D11*
X153359762Y-61380714D02*
X153359762Y-62190238D01*
X153407381Y-62285476D01*
X153455000Y-62333095D01*
X153550239Y-62380714D01*
X153693096Y-62380714D01*
X153788334Y-62333095D01*
X153359762Y-61999762D02*
X153455000Y-62047381D01*
X153645477Y-62047381D01*
X153740715Y-61999762D01*
X153788334Y-61952143D01*
X153835953Y-61856905D01*
X153835953Y-61571190D01*
X153788334Y-61475952D01*
X153740715Y-61428333D01*
X153645477Y-61380714D01*
X153455000Y-61380714D01*
X153359762Y-61428333D01*
X152883572Y-62047381D02*
X152883572Y-61380714D01*
X152883572Y-61047381D02*
X152931191Y-61095000D01*
X152883572Y-61142619D01*
X152835953Y-61095000D01*
X152883572Y-61047381D01*
X152883572Y-61142619D01*
X152550239Y-61380714D02*
X152169287Y-61380714D01*
X152407382Y-61047381D02*
X152407382Y-61904524D01*
X152359763Y-61999762D01*
X152264525Y-62047381D01*
X152169287Y-62047381D01*
X151835953Y-62047381D02*
X151835953Y-61047381D01*
X151407381Y-62047381D02*
X151407381Y-61523571D01*
X151455000Y-61428333D01*
X151550238Y-61380714D01*
X151693096Y-61380714D01*
X151788334Y-61428333D01*
X151835953Y-61475952D01*
X150502619Y-61380714D02*
X150502619Y-62047381D01*
X150931191Y-61380714D02*
X150931191Y-61904524D01*
X150883572Y-61999762D01*
X150788334Y-62047381D01*
X150645476Y-62047381D01*
X150550238Y-61999762D01*
X150502619Y-61952143D01*
X150026429Y-62047381D02*
X150026429Y-61047381D01*
X150026429Y-61428333D02*
X149931191Y-61380714D01*
X149740714Y-61380714D01*
X149645476Y-61428333D01*
X149597857Y-61475952D01*
X149550238Y-61571190D01*
X149550238Y-61856905D01*
X149597857Y-61952143D01*
X149645476Y-61999762D01*
X149740714Y-62047381D01*
X149931191Y-62047381D01*
X150026429Y-61999762D01*
X149121667Y-61952143D02*
X149074048Y-61999762D01*
X149121667Y-62047381D01*
X149169286Y-61999762D01*
X149121667Y-61952143D01*
X149121667Y-62047381D01*
X148216905Y-61999762D02*
X148312143Y-62047381D01*
X148502620Y-62047381D01*
X148597858Y-61999762D01*
X148645477Y-61952143D01*
X148693096Y-61856905D01*
X148693096Y-61571190D01*
X148645477Y-61475952D01*
X148597858Y-61428333D01*
X148502620Y-61380714D01*
X148312143Y-61380714D01*
X148216905Y-61428333D01*
X147645477Y-62047381D02*
X147740715Y-61999762D01*
X147788334Y-61952143D01*
X147835953Y-61856905D01*
X147835953Y-61571190D01*
X147788334Y-61475952D01*
X147740715Y-61428333D01*
X147645477Y-61380714D01*
X147502619Y-61380714D01*
X147407381Y-61428333D01*
X147359762Y-61475952D01*
X147312143Y-61571190D01*
X147312143Y-61856905D01*
X147359762Y-61952143D01*
X147407381Y-61999762D01*
X147502619Y-62047381D01*
X147645477Y-62047381D01*
X146883572Y-62047381D02*
X146883572Y-61380714D01*
X146883572Y-61475952D02*
X146835953Y-61428333D01*
X146740715Y-61380714D01*
X146597857Y-61380714D01*
X146502619Y-61428333D01*
X146455000Y-61523571D01*
X146455000Y-62047381D01*
X146455000Y-61523571D02*
X146407381Y-61428333D01*
X146312143Y-61380714D01*
X146169286Y-61380714D01*
X146074048Y-61428333D01*
X146026429Y-61523571D01*
X146026429Y-62047381D01*
X144835953Y-60999762D02*
X145693096Y-62285476D01*
X144645477Y-61380714D02*
X144264525Y-61380714D01*
X144502620Y-61047381D02*
X144502620Y-61904524D01*
X144455001Y-61999762D01*
X144359763Y-62047381D01*
X144264525Y-62047381D01*
X143550238Y-61999762D02*
X143645476Y-62047381D01*
X143835953Y-62047381D01*
X143931191Y-61999762D01*
X143978810Y-61904524D01*
X143978810Y-61523571D01*
X143931191Y-61428333D01*
X143835953Y-61380714D01*
X143645476Y-61380714D01*
X143550238Y-61428333D01*
X143502619Y-61523571D01*
X143502619Y-61618810D01*
X143978810Y-61714048D01*
X143074048Y-62047381D02*
X143074048Y-61047381D01*
X143074048Y-61428333D02*
X142978810Y-61380714D01*
X142788333Y-61380714D01*
X142693095Y-61428333D01*
X142645476Y-61475952D01*
X142597857Y-61571190D01*
X142597857Y-61856905D01*
X142645476Y-61952143D01*
X142693095Y-61999762D01*
X142788333Y-62047381D01*
X142978810Y-62047381D01*
X143074048Y-61999762D01*
X142026429Y-62047381D02*
X142121667Y-61999762D01*
X142169286Y-61904524D01*
X142169286Y-61047381D01*
X151121666Y-60777381D02*
X151455000Y-60301190D01*
X151693095Y-60777381D02*
X151693095Y-59777381D01*
X151312142Y-59777381D01*
X151216904Y-59825000D01*
X151169285Y-59872619D01*
X151121666Y-59967857D01*
X151121666Y-60110714D01*
X151169285Y-60205952D01*
X151216904Y-60253571D01*
X151312142Y-60301190D01*
X151693095Y-60301190D01*
X150312142Y-60729762D02*
X150407380Y-60777381D01*
X150597857Y-60777381D01*
X150693095Y-60729762D01*
X150740714Y-60634524D01*
X150740714Y-60253571D01*
X150693095Y-60158333D01*
X150597857Y-60110714D01*
X150407380Y-60110714D01*
X150312142Y-60158333D01*
X150264523Y-60253571D01*
X150264523Y-60348810D01*
X150740714Y-60444048D01*
X149931190Y-60110714D02*
X149693095Y-60777381D01*
X149454999Y-60110714D01*
X149074047Y-60777381D02*
X149074047Y-60110714D01*
X149074047Y-59777381D02*
X149121666Y-59825000D01*
X149074047Y-59872619D01*
X149026428Y-59825000D01*
X149074047Y-59777381D01*
X149074047Y-59872619D01*
X148645476Y-60729762D02*
X148550238Y-60777381D01*
X148359762Y-60777381D01*
X148264523Y-60729762D01*
X148216904Y-60634524D01*
X148216904Y-60586905D01*
X148264523Y-60491667D01*
X148359762Y-60444048D01*
X148502619Y-60444048D01*
X148597857Y-60396429D01*
X148645476Y-60301190D01*
X148645476Y-60253571D01*
X148597857Y-60158333D01*
X148502619Y-60110714D01*
X148359762Y-60110714D01*
X148264523Y-60158333D01*
X147788333Y-60777381D02*
X147788333Y-60110714D01*
X147788333Y-59777381D02*
X147835952Y-59825000D01*
X147788333Y-59872619D01*
X147740714Y-59825000D01*
X147788333Y-59777381D01*
X147788333Y-59872619D01*
X147169286Y-60777381D02*
X147264524Y-60729762D01*
X147312143Y-60682143D01*
X147359762Y-60586905D01*
X147359762Y-60301190D01*
X147312143Y-60205952D01*
X147264524Y-60158333D01*
X147169286Y-60110714D01*
X147026428Y-60110714D01*
X146931190Y-60158333D01*
X146883571Y-60205952D01*
X146835952Y-60301190D01*
X146835952Y-60586905D01*
X146883571Y-60682143D01*
X146931190Y-60729762D01*
X147026428Y-60777381D01*
X147169286Y-60777381D01*
X146407381Y-60110714D02*
X146407381Y-60777381D01*
X146407381Y-60205952D02*
X146359762Y-60158333D01*
X146264524Y-60110714D01*
X146121666Y-60110714D01*
X146026428Y-60158333D01*
X145978809Y-60253571D01*
X145978809Y-60777381D01*
X144407380Y-60253571D02*
X144264523Y-60301190D01*
X144216904Y-60348810D01*
X144169285Y-60444048D01*
X144169285Y-60586905D01*
X144216904Y-60682143D01*
X144264523Y-60729762D01*
X144359761Y-60777381D01*
X144740714Y-60777381D01*
X144740714Y-59777381D01*
X144407380Y-59777381D01*
X144312142Y-59825000D01*
X144264523Y-59872619D01*
X144216904Y-59967857D01*
X144216904Y-60063095D01*
X144264523Y-60158333D01*
X144312142Y-60205952D01*
X144407380Y-60253571D01*
X144740714Y-60253571D01*
D10*
X137356667Y-134771905D02*
X136899524Y-134771905D01*
X137128095Y-135571905D02*
X137128095Y-134771905D01*
X136632857Y-134771905D02*
X136632857Y-135419524D01*
X136594762Y-135495714D01*
X136556666Y-135533810D01*
X136480476Y-135571905D01*
X136328095Y-135571905D01*
X136251904Y-135533810D01*
X136213809Y-135495714D01*
X136175714Y-135419524D01*
X136175714Y-134771905D01*
X135337619Y-135571905D02*
X135604286Y-135190952D01*
X135794762Y-135571905D02*
X135794762Y-134771905D01*
X135490000Y-134771905D01*
X135413809Y-134810000D01*
X135375714Y-134848095D01*
X135337619Y-134924286D01*
X135337619Y-135038571D01*
X135375714Y-135114762D01*
X135413809Y-135152857D01*
X135490000Y-135190952D01*
X135794762Y-135190952D01*
X134994762Y-135571905D02*
X134994762Y-134771905D01*
X134537619Y-135571905D01*
X134537619Y-134771905D01*
X138575714Y-136795714D02*
X138613809Y-136833810D01*
X138728095Y-136871905D01*
X138804285Y-136871905D01*
X138918571Y-136833810D01*
X138994762Y-136757619D01*
X139032857Y-136681429D01*
X139070952Y-136529048D01*
X139070952Y-136414762D01*
X139032857Y-136262381D01*
X138994762Y-136186190D01*
X138918571Y-136110000D01*
X138804285Y-136071905D01*
X138728095Y-136071905D01*
X138613809Y-136110000D01*
X138575714Y-136148095D01*
X137851904Y-136871905D02*
X138232857Y-136871905D01*
X138232857Y-136071905D01*
X137432857Y-136071905D02*
X137280476Y-136071905D01*
X137204285Y-136110000D01*
X137128095Y-136186190D01*
X137090000Y-136338571D01*
X137090000Y-136605238D01*
X137128095Y-136757619D01*
X137204285Y-136833810D01*
X137280476Y-136871905D01*
X137432857Y-136871905D01*
X137509047Y-136833810D01*
X137585238Y-136757619D01*
X137623333Y-136605238D01*
X137623333Y-136338571D01*
X137585238Y-136186190D01*
X137509047Y-136110000D01*
X137432857Y-136071905D01*
X136290000Y-136795714D02*
X136328095Y-136833810D01*
X136442381Y-136871905D01*
X136518571Y-136871905D01*
X136632857Y-136833810D01*
X136709048Y-136757619D01*
X136747143Y-136681429D01*
X136785238Y-136529048D01*
X136785238Y-136414762D01*
X136747143Y-136262381D01*
X136709048Y-136186190D01*
X136632857Y-136110000D01*
X136518571Y-136071905D01*
X136442381Y-136071905D01*
X136328095Y-136110000D01*
X136290000Y-136148095D01*
X135947143Y-136871905D02*
X135947143Y-136071905D01*
X135490000Y-136871905D02*
X135832857Y-136414762D01*
X135490000Y-136071905D02*
X135947143Y-136529048D01*
X135223333Y-136071905D02*
X135032857Y-136871905D01*
X134880476Y-136300476D01*
X134728095Y-136871905D01*
X134537619Y-136071905D01*
X134232857Y-136871905D02*
X134232857Y-136071905D01*
X133890000Y-136833810D02*
X133775714Y-136871905D01*
X133585238Y-136871905D01*
X133509048Y-136833810D01*
X133470952Y-136795714D01*
X133432857Y-136719524D01*
X133432857Y-136643333D01*
X133470952Y-136567143D01*
X133509048Y-136529048D01*
X133585238Y-136490952D01*
X133737619Y-136452857D01*
X133813810Y-136414762D01*
X133851905Y-136376667D01*
X133890000Y-136300476D01*
X133890000Y-136224286D01*
X133851905Y-136148095D01*
X133813810Y-136110000D01*
X133737619Y-136071905D01*
X133547143Y-136071905D01*
X133432857Y-136110000D01*
X133090000Y-136452857D02*
X132823333Y-136452857D01*
X132709047Y-136871905D02*
X133090000Y-136871905D01*
X133090000Y-136071905D01*
X132709047Y-136071905D01*
X138423334Y-137371905D02*
X137966191Y-137371905D01*
X138194762Y-138171905D02*
X138194762Y-137371905D01*
X137547143Y-137371905D02*
X137394762Y-137371905D01*
X137318571Y-137410000D01*
X137242381Y-137486190D01*
X137204286Y-137638571D01*
X137204286Y-137905238D01*
X137242381Y-138057619D01*
X137318571Y-138133810D01*
X137394762Y-138171905D01*
X137547143Y-138171905D01*
X137623333Y-138133810D01*
X137699524Y-138057619D01*
X137737619Y-137905238D01*
X137737619Y-137638571D01*
X137699524Y-137486190D01*
X137623333Y-137410000D01*
X137547143Y-137371905D01*
X136290000Y-138133810D02*
X136175714Y-138171905D01*
X135985238Y-138171905D01*
X135909048Y-138133810D01*
X135870952Y-138095714D01*
X135832857Y-138019524D01*
X135832857Y-137943333D01*
X135870952Y-137867143D01*
X135909048Y-137829048D01*
X135985238Y-137790952D01*
X136137619Y-137752857D01*
X136213810Y-137714762D01*
X136251905Y-137676667D01*
X136290000Y-137600476D01*
X136290000Y-137524286D01*
X136251905Y-137448095D01*
X136213810Y-137410000D01*
X136137619Y-137371905D01*
X135947143Y-137371905D01*
X135832857Y-137410000D01*
X135109047Y-138171905D02*
X135490000Y-138171905D01*
X135490000Y-137371905D01*
X134690000Y-137371905D02*
X134537619Y-137371905D01*
X134461428Y-137410000D01*
X134385238Y-137486190D01*
X134347143Y-137638571D01*
X134347143Y-137905238D01*
X134385238Y-138057619D01*
X134461428Y-138133810D01*
X134537619Y-138171905D01*
X134690000Y-138171905D01*
X134766190Y-138133810D01*
X134842381Y-138057619D01*
X134880476Y-137905238D01*
X134880476Y-137638571D01*
X134842381Y-137486190D01*
X134766190Y-137410000D01*
X134690000Y-137371905D01*
X134080476Y-137371905D02*
X133890000Y-138171905D01*
X133737619Y-137600476D01*
X133585238Y-138171905D01*
X133394762Y-137371905D01*
X137185238Y-139395714D02*
X137223333Y-139433810D01*
X137337619Y-139471905D01*
X137413809Y-139471905D01*
X137528095Y-139433810D01*
X137604286Y-139357619D01*
X137642381Y-139281429D01*
X137680476Y-139129048D01*
X137680476Y-139014762D01*
X137642381Y-138862381D01*
X137604286Y-138786190D01*
X137528095Y-138710000D01*
X137413809Y-138671905D01*
X137337619Y-138671905D01*
X137223333Y-138710000D01*
X137185238Y-138748095D01*
X136461428Y-139471905D02*
X136842381Y-139471905D01*
X136842381Y-138671905D01*
X136042381Y-138671905D02*
X135890000Y-138671905D01*
X135813809Y-138710000D01*
X135737619Y-138786190D01*
X135699524Y-138938571D01*
X135699524Y-139205238D01*
X135737619Y-139357619D01*
X135813809Y-139433810D01*
X135890000Y-139471905D01*
X136042381Y-139471905D01*
X136118571Y-139433810D01*
X136194762Y-139357619D01*
X136232857Y-139205238D01*
X136232857Y-138938571D01*
X136194762Y-138786190D01*
X136118571Y-138710000D01*
X136042381Y-138671905D01*
X134899524Y-139395714D02*
X134937619Y-139433810D01*
X135051905Y-139471905D01*
X135128095Y-139471905D01*
X135242381Y-139433810D01*
X135318572Y-139357619D01*
X135356667Y-139281429D01*
X135394762Y-139129048D01*
X135394762Y-139014762D01*
X135356667Y-138862381D01*
X135318572Y-138786190D01*
X135242381Y-138710000D01*
X135128095Y-138671905D01*
X135051905Y-138671905D01*
X134937619Y-138710000D01*
X134899524Y-138748095D01*
X134556667Y-139471905D02*
X134556667Y-138671905D01*
X134099524Y-139471905D02*
X134442381Y-139014762D01*
X134099524Y-138671905D02*
X134556667Y-139129048D01*
D12*
X133350000Y-148590000D02*
X134620000Y-148590000D01*
X133350000Y-152400000D02*
X134620000Y-152400000D01*
D10*
X137413571Y-153803333D02*
X137032619Y-153803333D01*
X137489762Y-154031905D02*
X137223095Y-153231905D01*
X136956428Y-154031905D01*
X136689762Y-154031905D02*
X136689762Y-153231905D01*
X136499286Y-153231905D01*
X136385000Y-153270000D01*
X136308809Y-153346190D01*
X136270714Y-153422381D01*
X136232619Y-153574762D01*
X136232619Y-153689048D01*
X136270714Y-153841429D01*
X136308809Y-153917619D01*
X136385000Y-153993810D01*
X136499286Y-154031905D01*
X136689762Y-154031905D01*
X135661190Y-153231905D02*
X135661190Y-153803333D01*
X135699286Y-153917619D01*
X135775476Y-153993810D01*
X135889762Y-154031905D01*
X135965952Y-154031905D01*
X135280238Y-153231905D02*
X135280238Y-153879524D01*
X135242143Y-153955714D01*
X135204047Y-153993810D01*
X135127857Y-154031905D01*
X134975476Y-154031905D01*
X134899285Y-153993810D01*
X134861190Y-153955714D01*
X134823095Y-153879524D01*
X134823095Y-153231905D01*
X134480238Y-153993810D02*
X134365952Y-154031905D01*
X134175476Y-154031905D01*
X134099286Y-153993810D01*
X134061190Y-153955714D01*
X134023095Y-153879524D01*
X134023095Y-153803333D01*
X134061190Y-153727143D01*
X134099286Y-153689048D01*
X134175476Y-153650952D01*
X134327857Y-153612857D01*
X134404048Y-153574762D01*
X134442143Y-153536667D01*
X134480238Y-153460476D01*
X134480238Y-153384286D01*
X134442143Y-153308095D01*
X134404048Y-153270000D01*
X134327857Y-153231905D01*
X134137381Y-153231905D01*
X134023095Y-153270000D01*
X133794524Y-153231905D02*
X133337381Y-153231905D01*
X133565952Y-154031905D02*
X133565952Y-153231905D01*
X133108809Y-153803333D02*
X132727857Y-153803333D01*
X133185000Y-154031905D02*
X132918333Y-153231905D01*
X132651666Y-154031905D01*
X132118333Y-153612857D02*
X132004047Y-153650952D01*
X131965952Y-153689048D01*
X131927857Y-153765238D01*
X131927857Y-153879524D01*
X131965952Y-153955714D01*
X132004047Y-153993810D01*
X132080238Y-154031905D01*
X132385000Y-154031905D01*
X132385000Y-153231905D01*
X132118333Y-153231905D01*
X132042143Y-153270000D01*
X132004047Y-153308095D01*
X131965952Y-153384286D01*
X131965952Y-153460476D01*
X132004047Y-153536667D01*
X132042143Y-153574762D01*
X132118333Y-153612857D01*
X132385000Y-153612857D01*
X131204047Y-154031905D02*
X131585000Y-154031905D01*
X131585000Y-153231905D01*
X130937381Y-153612857D02*
X130670714Y-153612857D01*
X130556428Y-154031905D02*
X130937381Y-154031905D01*
X130937381Y-153231905D01*
X130556428Y-153231905D01*
D12*
X133350000Y-148590000D02*
X132715000Y-148590000D01*
X134620000Y-148590000D02*
X135255000Y-148590000D01*
X134620000Y-146050000D02*
X134620000Y-148590000D01*
X133350000Y-146050000D02*
X134620000Y-146050000D01*
X133350000Y-148590000D02*
X133350000Y-146050000D01*
X133350000Y-151130000D02*
X134620000Y-151130000D01*
X133350000Y-152400000D02*
X132715000Y-152400000D01*
X133350000Y-151130000D02*
X133350000Y-152400000D01*
X134620000Y-152400000D02*
X135255000Y-152400000D01*
X134620000Y-151130000D02*
X134620000Y-152400000D01*
D10*
X136099285Y-150221905D02*
X136099285Y-149421905D01*
X135832618Y-149993333D01*
X135565951Y-149421905D01*
X135565951Y-150221905D01*
X135223094Y-149993333D02*
X134842142Y-149993333D01*
X135299285Y-150221905D02*
X135032618Y-149421905D01*
X134765951Y-150221905D01*
X134499285Y-150221905D02*
X134499285Y-149421905D01*
X134042142Y-150221905D01*
X134042142Y-149421905D01*
X133661190Y-149421905D02*
X133661190Y-150069524D01*
X133623095Y-150145714D01*
X133584999Y-150183810D01*
X133508809Y-150221905D01*
X133356428Y-150221905D01*
X133280237Y-150183810D01*
X133242142Y-150145714D01*
X133204047Y-150069524D01*
X133204047Y-149421905D01*
X132861190Y-149993333D02*
X132480238Y-149993333D01*
X132937381Y-150221905D02*
X132670714Y-149421905D01*
X132404047Y-150221905D01*
X131756428Y-150221905D02*
X132137381Y-150221905D01*
X132137381Y-149421905D01*
X131102143Y-82746905D02*
X130949762Y-82746905D01*
X130873571Y-82785000D01*
X130797381Y-82861190D01*
X130759286Y-83013571D01*
X130759286Y-83280238D01*
X130797381Y-83432619D01*
X130873571Y-83508810D01*
X130949762Y-83546905D01*
X131102143Y-83546905D01*
X131178333Y-83508810D01*
X131254524Y-83432619D01*
X131292619Y-83280238D01*
X131292619Y-83013571D01*
X131254524Y-82861190D01*
X131178333Y-82785000D01*
X131102143Y-82746905D01*
X130416429Y-82746905D02*
X130416429Y-83394524D01*
X130378334Y-83470714D01*
X130340238Y-83508810D01*
X130264048Y-83546905D01*
X130111667Y-83546905D01*
X130035476Y-83508810D01*
X129997381Y-83470714D01*
X129959286Y-83394524D01*
X129959286Y-82746905D01*
X129692620Y-82746905D02*
X129235477Y-82746905D01*
X129464048Y-83546905D02*
X129464048Y-82746905D01*
X130835476Y-85325000D02*
X130911667Y-85286905D01*
X131025952Y-85286905D01*
X131140238Y-85325000D01*
X131216429Y-85401190D01*
X131254524Y-85477381D01*
X131292619Y-85629762D01*
X131292619Y-85744048D01*
X131254524Y-85896429D01*
X131216429Y-85972619D01*
X131140238Y-86048810D01*
X131025952Y-86086905D01*
X130949762Y-86086905D01*
X130835476Y-86048810D01*
X130797381Y-86010714D01*
X130797381Y-85744048D01*
X130949762Y-85744048D01*
X130454524Y-86086905D02*
X130454524Y-85286905D01*
X129997381Y-86086905D01*
X129997381Y-85286905D01*
X129616429Y-86086905D02*
X129616429Y-85286905D01*
X129425953Y-85286905D01*
X129311667Y-85325000D01*
X129235476Y-85401190D01*
X129197381Y-85477381D01*
X129159286Y-85629762D01*
X129159286Y-85744048D01*
X129197381Y-85896429D01*
X129235476Y-85972619D01*
X129311667Y-86048810D01*
X129425953Y-86086905D01*
X129616429Y-86086905D01*
X131368810Y-77666905D02*
X131102143Y-78466905D01*
X130835476Y-77666905D01*
X130111667Y-78390714D02*
X130149762Y-78428810D01*
X130264048Y-78466905D01*
X130340238Y-78466905D01*
X130454524Y-78428810D01*
X130530715Y-78352619D01*
X130568810Y-78276429D01*
X130606905Y-78124048D01*
X130606905Y-78009762D01*
X130568810Y-77857381D01*
X130530715Y-77781190D01*
X130454524Y-77705000D01*
X130340238Y-77666905D01*
X130264048Y-77666905D01*
X130149762Y-77705000D01*
X130111667Y-77743095D01*
X129311667Y-78390714D02*
X129349762Y-78428810D01*
X129464048Y-78466905D01*
X129540238Y-78466905D01*
X129654524Y-78428810D01*
X129730715Y-78352619D01*
X129768810Y-78276429D01*
X129806905Y-78124048D01*
X129806905Y-78009762D01*
X129768810Y-77857381D01*
X129730715Y-77781190D01*
X129654524Y-77705000D01*
X129540238Y-77666905D01*
X129464048Y-77666905D01*
X129349762Y-77705000D01*
X129311667Y-77743095D01*
D11*
X135254571Y-90654143D02*
X135302190Y-90701762D01*
X135445047Y-90749381D01*
X135540285Y-90749381D01*
X135683143Y-90701762D01*
X135778381Y-90606524D01*
X135826000Y-90511286D01*
X135873619Y-90320810D01*
X135873619Y-90177952D01*
X135826000Y-89987476D01*
X135778381Y-89892238D01*
X135683143Y-89797000D01*
X135540285Y-89749381D01*
X135445047Y-89749381D01*
X135302190Y-89797000D01*
X135254571Y-89844619D01*
X134349809Y-90749381D02*
X134826000Y-90749381D01*
X134826000Y-89749381D01*
X133826000Y-89749381D02*
X133635523Y-89749381D01*
X133540285Y-89797000D01*
X133445047Y-89892238D01*
X133397428Y-90082714D01*
X133397428Y-90416048D01*
X133445047Y-90606524D01*
X133540285Y-90701762D01*
X133635523Y-90749381D01*
X133826000Y-90749381D01*
X133921238Y-90701762D01*
X134016476Y-90606524D01*
X134064095Y-90416048D01*
X134064095Y-90082714D01*
X134016476Y-89892238D01*
X133921238Y-89797000D01*
X133826000Y-89749381D01*
X132397428Y-90654143D02*
X132445047Y-90701762D01*
X132587904Y-90749381D01*
X132683142Y-90749381D01*
X132826000Y-90701762D01*
X132921238Y-90606524D01*
X132968857Y-90511286D01*
X133016476Y-90320810D01*
X133016476Y-90177952D01*
X132968857Y-89987476D01*
X132921238Y-89892238D01*
X132826000Y-89797000D01*
X132683142Y-89749381D01*
X132587904Y-89749381D01*
X132445047Y-89797000D01*
X132397428Y-89844619D01*
X131968857Y-90749381D02*
X131968857Y-89749381D01*
X131397428Y-90749381D02*
X131826000Y-90177952D01*
X131397428Y-89749381D02*
X131968857Y-90320810D01*
X130016476Y-89749381D02*
X129825999Y-89749381D01*
X129730761Y-89797000D01*
X129635523Y-89892238D01*
X129587904Y-90082714D01*
X129587904Y-90416048D01*
X129635523Y-90606524D01*
X129730761Y-90701762D01*
X129825999Y-90749381D01*
X130016476Y-90749381D01*
X130111714Y-90701762D01*
X130206952Y-90606524D01*
X130254571Y-90416048D01*
X130254571Y-90082714D01*
X130206952Y-89892238D01*
X130111714Y-89797000D01*
X130016476Y-89749381D01*
X129159333Y-89749381D02*
X129159333Y-90558905D01*
X129111714Y-90654143D01*
X129064095Y-90701762D01*
X128968857Y-90749381D01*
X128778380Y-90749381D01*
X128683142Y-90701762D01*
X128635523Y-90654143D01*
X128587904Y-90558905D01*
X128587904Y-89749381D01*
X128254571Y-89749381D02*
X127683142Y-89749381D01*
X127968857Y-90749381D02*
X127968857Y-89749381D01*
D12*
X126365000Y-90170000D02*
X126365000Y-64135000D01*
X127000000Y-90170000D02*
X126365000Y-90170000D01*
X137160000Y-90170000D02*
X136525000Y-90170000D01*
X137160000Y-64135000D02*
X137160000Y-90170000D01*
X126365000Y-64135000D02*
X137160000Y-64135000D01*
D11*
X155050239Y-140501667D02*
X154574048Y-140501667D01*
X155145477Y-140787381D02*
X154812144Y-139787381D01*
X154478810Y-140787381D01*
X154145477Y-140787381D02*
X154145477Y-139787381D01*
X153907382Y-139787381D01*
X153764524Y-139835000D01*
X153669286Y-139930238D01*
X153621667Y-140025476D01*
X153574048Y-140215952D01*
X153574048Y-140358810D01*
X153621667Y-140549286D01*
X153669286Y-140644524D01*
X153764524Y-140739762D01*
X153907382Y-140787381D01*
X154145477Y-140787381D01*
X152859762Y-139787381D02*
X152859762Y-140501667D01*
X152907382Y-140644524D01*
X153002620Y-140739762D01*
X153145477Y-140787381D01*
X153240715Y-140787381D01*
X152383572Y-139787381D02*
X152383572Y-140596905D01*
X152335953Y-140692143D01*
X152288334Y-140739762D01*
X152193096Y-140787381D01*
X152002619Y-140787381D01*
X151907381Y-140739762D01*
X151859762Y-140692143D01*
X151812143Y-140596905D01*
X151812143Y-139787381D01*
X151383572Y-140739762D02*
X151240715Y-140787381D01*
X151002619Y-140787381D01*
X150907381Y-140739762D01*
X150859762Y-140692143D01*
X150812143Y-140596905D01*
X150812143Y-140501667D01*
X150859762Y-140406429D01*
X150907381Y-140358810D01*
X151002619Y-140311190D01*
X151193096Y-140263571D01*
X151288334Y-140215952D01*
X151335953Y-140168333D01*
X151383572Y-140073095D01*
X151383572Y-139977857D01*
X151335953Y-139882619D01*
X151288334Y-139835000D01*
X151193096Y-139787381D01*
X150955000Y-139787381D01*
X150812143Y-139835000D01*
X150526429Y-139787381D02*
X149955000Y-139787381D01*
X150240715Y-140787381D02*
X150240715Y-139787381D01*
X149669286Y-140501667D02*
X149193095Y-140501667D01*
X149764524Y-140787381D02*
X149431191Y-139787381D01*
X149097857Y-140787381D01*
X148431190Y-140263571D02*
X148288333Y-140311190D01*
X148240714Y-140358810D01*
X148193095Y-140454048D01*
X148193095Y-140596905D01*
X148240714Y-140692143D01*
X148288333Y-140739762D01*
X148383571Y-140787381D01*
X148764524Y-140787381D01*
X148764524Y-139787381D01*
X148431190Y-139787381D01*
X148335952Y-139835000D01*
X148288333Y-139882619D01*
X148240714Y-139977857D01*
X148240714Y-140073095D01*
X148288333Y-140168333D01*
X148335952Y-140215952D01*
X148431190Y-140263571D01*
X148764524Y-140263571D01*
X147288333Y-140787381D02*
X147764524Y-140787381D01*
X147764524Y-139787381D01*
X146955000Y-140263571D02*
X146621666Y-140263571D01*
X146478809Y-140787381D02*
X146955000Y-140787381D01*
X146955000Y-139787381D01*
X146478809Y-139787381D01*
X144716904Y-140692143D02*
X144764523Y-140739762D01*
X144907380Y-140787381D01*
X145002618Y-140787381D01*
X145145476Y-140739762D01*
X145240714Y-140644524D01*
X145288333Y-140549286D01*
X145335952Y-140358810D01*
X145335952Y-140215952D01*
X145288333Y-140025476D01*
X145240714Y-139930238D01*
X145145476Y-139835000D01*
X145002618Y-139787381D01*
X144907380Y-139787381D01*
X144764523Y-139835000D01*
X144716904Y-139882619D01*
X143812142Y-140787381D02*
X144288333Y-140787381D01*
X144288333Y-139787381D01*
X143288333Y-139787381D02*
X143097856Y-139787381D01*
X143002618Y-139835000D01*
X142907380Y-139930238D01*
X142859761Y-140120714D01*
X142859761Y-140454048D01*
X142907380Y-140644524D01*
X143002618Y-140739762D01*
X143097856Y-140787381D01*
X143288333Y-140787381D01*
X143383571Y-140739762D01*
X143478809Y-140644524D01*
X143526428Y-140454048D01*
X143526428Y-140120714D01*
X143478809Y-139930238D01*
X143383571Y-139835000D01*
X143288333Y-139787381D01*
X141859761Y-140692143D02*
X141907380Y-140739762D01*
X142050237Y-140787381D01*
X142145475Y-140787381D01*
X142288333Y-140739762D01*
X142383571Y-140644524D01*
X142431190Y-140549286D01*
X142478809Y-140358810D01*
X142478809Y-140215952D01*
X142431190Y-140025476D01*
X142383571Y-139930238D01*
X142288333Y-139835000D01*
X142145475Y-139787381D01*
X142050237Y-139787381D01*
X141907380Y-139835000D01*
X141859761Y-139882619D01*
X141431190Y-140787381D02*
X141431190Y-139787381D01*
X140859761Y-140787381D02*
X141288333Y-140215952D01*
X140859761Y-139787381D02*
X141431190Y-140358810D01*
D12*
X126365000Y-140335000D02*
X126365000Y-126365000D01*
X139700000Y-140335000D02*
X126365000Y-140335000D01*
X169545000Y-140335000D02*
X155575000Y-140335000D01*
X169545000Y-126365000D02*
X169545000Y-140335000D01*
X126365000Y-126365000D02*
X169545000Y-126365000D01*
D11*
X153407381Y-123642381D02*
X153407381Y-122642381D01*
X153074047Y-123356667D01*
X152740714Y-122642381D01*
X152740714Y-123642381D01*
X152312143Y-123356667D02*
X151835952Y-123356667D01*
X152407381Y-123642381D02*
X152074048Y-122642381D01*
X151740714Y-123642381D01*
X151407381Y-123642381D02*
X151407381Y-122642381D01*
X150835952Y-123642381D01*
X150835952Y-122642381D01*
X150359762Y-122642381D02*
X150359762Y-123451905D01*
X150312143Y-123547143D01*
X150264524Y-123594762D01*
X150169286Y-123642381D01*
X149978809Y-123642381D01*
X149883571Y-123594762D01*
X149835952Y-123547143D01*
X149788333Y-123451905D01*
X149788333Y-122642381D01*
X149359762Y-123356667D02*
X148883571Y-123356667D01*
X149455000Y-123642381D02*
X149121667Y-122642381D01*
X148788333Y-123642381D01*
X147978809Y-123642381D02*
X148455000Y-123642381D01*
X148455000Y-122642381D01*
X146312142Y-123547143D02*
X146359761Y-123594762D01*
X146502618Y-123642381D01*
X146597856Y-123642381D01*
X146740714Y-123594762D01*
X146835952Y-123499524D01*
X146883571Y-123404286D01*
X146931190Y-123213810D01*
X146931190Y-123070952D01*
X146883571Y-122880476D01*
X146835952Y-122785238D01*
X146740714Y-122690000D01*
X146597856Y-122642381D01*
X146502618Y-122642381D01*
X146359761Y-122690000D01*
X146312142Y-122737619D01*
X145407380Y-123642381D02*
X145883571Y-123642381D01*
X145883571Y-122642381D01*
X144883571Y-122642381D02*
X144693094Y-122642381D01*
X144597856Y-122690000D01*
X144502618Y-122785238D01*
X144454999Y-122975714D01*
X144454999Y-123309048D01*
X144502618Y-123499524D01*
X144597856Y-123594762D01*
X144693094Y-123642381D01*
X144883571Y-123642381D01*
X144978809Y-123594762D01*
X145074047Y-123499524D01*
X145121666Y-123309048D01*
X145121666Y-122975714D01*
X145074047Y-122785238D01*
X144978809Y-122690000D01*
X144883571Y-122642381D01*
X143454999Y-123547143D02*
X143502618Y-123594762D01*
X143645475Y-123642381D01*
X143740713Y-123642381D01*
X143883571Y-123594762D01*
X143978809Y-123499524D01*
X144026428Y-123404286D01*
X144074047Y-123213810D01*
X144074047Y-123070952D01*
X144026428Y-122880476D01*
X143978809Y-122785238D01*
X143883571Y-122690000D01*
X143740713Y-122642381D01*
X143645475Y-122642381D01*
X143502618Y-122690000D01*
X143454999Y-122737619D01*
X143026428Y-123642381D02*
X143026428Y-122642381D01*
X142454999Y-123642381D02*
X142883571Y-123070952D01*
X142454999Y-122642381D02*
X143026428Y-123213810D01*
D12*
X126365000Y-123190000D02*
X126365000Y-109220000D01*
X141605000Y-123190000D02*
X126365000Y-123190000D01*
X169545000Y-123190000D02*
X154305000Y-123190000D01*
X169545000Y-109220000D02*
X169545000Y-123190000D01*
X126365000Y-109220000D02*
X169545000Y-109220000D01*
D11*
X152621667Y-106402143D02*
X152669286Y-106449762D01*
X152812143Y-106497381D01*
X152907381Y-106497381D01*
X153050239Y-106449762D01*
X153145477Y-106354524D01*
X153193096Y-106259286D01*
X153240715Y-106068810D01*
X153240715Y-105925952D01*
X153193096Y-105735476D01*
X153145477Y-105640238D01*
X153050239Y-105545000D01*
X152907381Y-105497381D01*
X152812143Y-105497381D01*
X152669286Y-105545000D01*
X152621667Y-105592619D01*
X151716905Y-106497381D02*
X152193096Y-106497381D01*
X152193096Y-105497381D01*
X151193096Y-105497381D02*
X151002619Y-105497381D01*
X150907381Y-105545000D01*
X150812143Y-105640238D01*
X150764524Y-105830714D01*
X150764524Y-106164048D01*
X150812143Y-106354524D01*
X150907381Y-106449762D01*
X151002619Y-106497381D01*
X151193096Y-106497381D01*
X151288334Y-106449762D01*
X151383572Y-106354524D01*
X151431191Y-106164048D01*
X151431191Y-105830714D01*
X151383572Y-105640238D01*
X151288334Y-105545000D01*
X151193096Y-105497381D01*
X149764524Y-106402143D02*
X149812143Y-106449762D01*
X149955000Y-106497381D01*
X150050238Y-106497381D01*
X150193096Y-106449762D01*
X150288334Y-106354524D01*
X150335953Y-106259286D01*
X150383572Y-106068810D01*
X150383572Y-105925952D01*
X150335953Y-105735476D01*
X150288334Y-105640238D01*
X150193096Y-105545000D01*
X150050238Y-105497381D01*
X149955000Y-105497381D01*
X149812143Y-105545000D01*
X149764524Y-105592619D01*
X149335953Y-106497381D02*
X149335953Y-105497381D01*
X148764524Y-106497381D02*
X149193096Y-105925952D01*
X148764524Y-105497381D02*
X149335953Y-106068810D01*
X147621667Y-106449762D02*
X147478810Y-106497381D01*
X147240714Y-106497381D01*
X147145476Y-106449762D01*
X147097857Y-106402143D01*
X147050238Y-106306905D01*
X147050238Y-106211667D01*
X147097857Y-106116429D01*
X147145476Y-106068810D01*
X147240714Y-106021190D01*
X147431191Y-105973571D01*
X147526429Y-105925952D01*
X147574048Y-105878333D01*
X147621667Y-105783095D01*
X147621667Y-105687857D01*
X147574048Y-105592619D01*
X147526429Y-105545000D01*
X147431191Y-105497381D01*
X147193095Y-105497381D01*
X147050238Y-105545000D01*
X146621667Y-105973571D02*
X146288333Y-105973571D01*
X146145476Y-106497381D02*
X146621667Y-106497381D01*
X146621667Y-105497381D01*
X146145476Y-105497381D01*
X145240714Y-106497381D02*
X145716905Y-106497381D01*
X145716905Y-105497381D01*
X144907381Y-105973571D02*
X144574047Y-105973571D01*
X144431190Y-106497381D02*
X144907381Y-106497381D01*
X144907381Y-105497381D01*
X144431190Y-105497381D01*
X143431190Y-106402143D02*
X143478809Y-106449762D01*
X143621666Y-106497381D01*
X143716904Y-106497381D01*
X143859762Y-106449762D01*
X143955000Y-106354524D01*
X144002619Y-106259286D01*
X144050238Y-106068810D01*
X144050238Y-105925952D01*
X144002619Y-105735476D01*
X143955000Y-105640238D01*
X143859762Y-105545000D01*
X143716904Y-105497381D01*
X143621666Y-105497381D01*
X143478809Y-105545000D01*
X143431190Y-105592619D01*
X143145476Y-105497381D02*
X142574047Y-105497381D01*
X142859762Y-106497381D02*
X142859762Y-105497381D01*
D12*
X126365000Y-106045000D02*
X126365000Y-92075000D01*
X141605000Y-106045000D02*
X126365000Y-106045000D01*
X169545000Y-106045000D02*
X154305000Y-106045000D01*
X169545000Y-64135000D02*
X169545000Y-106045000D01*
X137795000Y-64135000D02*
X169545000Y-64135000D01*
X137795000Y-92075000D02*
X137795000Y-64135000D01*
X126365000Y-92075000D02*
X137795000Y-92075000D01*
D10*
X161226428Y-132261905D02*
X161607381Y-132261905D01*
X161645476Y-132642857D01*
X161607381Y-132604762D01*
X161531190Y-132566667D01*
X161340714Y-132566667D01*
X161264524Y-132604762D01*
X161226428Y-132642857D01*
X161188333Y-132719048D01*
X161188333Y-132909524D01*
X161226428Y-132985714D01*
X161264524Y-133023810D01*
X161340714Y-133061905D01*
X161531190Y-133061905D01*
X161607381Y-133023810D01*
X161645476Y-132985714D01*
X160464523Y-132261905D02*
X160845476Y-132261905D01*
X160883571Y-132642857D01*
X160845476Y-132604762D01*
X160769285Y-132566667D01*
X160578809Y-132566667D01*
X160502619Y-132604762D01*
X160464523Y-132642857D01*
X160426428Y-132719048D01*
X160426428Y-132909524D01*
X160464523Y-132985714D01*
X160502619Y-133023810D01*
X160578809Y-133061905D01*
X160769285Y-133061905D01*
X160845476Y-133023810D01*
X160883571Y-132985714D01*
X159702618Y-132261905D02*
X160083571Y-132261905D01*
X160121666Y-132642857D01*
X160083571Y-132604762D01*
X160007380Y-132566667D01*
X159816904Y-132566667D01*
X159740714Y-132604762D01*
X159702618Y-132642857D01*
X159664523Y-132719048D01*
X159664523Y-132909524D01*
X159702618Y-132985714D01*
X159740714Y-133023810D01*
X159816904Y-133061905D01*
X160007380Y-133061905D01*
X160083571Y-133023810D01*
X160121666Y-132985714D01*
X162293096Y-133561905D02*
X161835953Y-133561905D01*
X162064524Y-134361905D02*
X162064524Y-133561905D01*
X161569286Y-134361905D02*
X161569286Y-133561905D01*
X161188334Y-134361905D02*
X161188334Y-133561905D01*
X160921667Y-134133333D01*
X160655000Y-133561905D01*
X160655000Y-134361905D01*
X160274048Y-133942857D02*
X160007381Y-133942857D01*
X159893095Y-134361905D02*
X160274048Y-134361905D01*
X160274048Y-133561905D01*
X159893095Y-133561905D01*
X159093095Y-134361905D02*
X159359762Y-133980952D01*
X159550238Y-134361905D02*
X159550238Y-133561905D01*
X159245476Y-133561905D01*
X159169285Y-133600000D01*
X159131190Y-133638095D01*
X159093095Y-133714286D01*
X159093095Y-133828571D01*
X159131190Y-133904762D01*
X159169285Y-133942857D01*
X159245476Y-133980952D01*
X159550238Y-133980952D01*
X161226428Y-115116905D02*
X161607381Y-115116905D01*
X161645476Y-115497857D01*
X161607381Y-115459762D01*
X161531190Y-115421667D01*
X161340714Y-115421667D01*
X161264524Y-115459762D01*
X161226428Y-115497857D01*
X161188333Y-115574048D01*
X161188333Y-115764524D01*
X161226428Y-115840714D01*
X161264524Y-115878810D01*
X161340714Y-115916905D01*
X161531190Y-115916905D01*
X161607381Y-115878810D01*
X161645476Y-115840714D01*
X160464523Y-115116905D02*
X160845476Y-115116905D01*
X160883571Y-115497857D01*
X160845476Y-115459762D01*
X160769285Y-115421667D01*
X160578809Y-115421667D01*
X160502619Y-115459762D01*
X160464523Y-115497857D01*
X160426428Y-115574048D01*
X160426428Y-115764524D01*
X160464523Y-115840714D01*
X160502619Y-115878810D01*
X160578809Y-115916905D01*
X160769285Y-115916905D01*
X160845476Y-115878810D01*
X160883571Y-115840714D01*
X159702618Y-115116905D02*
X160083571Y-115116905D01*
X160121666Y-115497857D01*
X160083571Y-115459762D01*
X160007380Y-115421667D01*
X159816904Y-115421667D01*
X159740714Y-115459762D01*
X159702618Y-115497857D01*
X159664523Y-115574048D01*
X159664523Y-115764524D01*
X159702618Y-115840714D01*
X159740714Y-115878810D01*
X159816904Y-115916905D01*
X160007380Y-115916905D01*
X160083571Y-115878810D01*
X160121666Y-115840714D01*
X162293096Y-116416905D02*
X161835953Y-116416905D01*
X162064524Y-117216905D02*
X162064524Y-116416905D01*
X161569286Y-117216905D02*
X161569286Y-116416905D01*
X161188334Y-117216905D02*
X161188334Y-116416905D01*
X160921667Y-116988333D01*
X160655000Y-116416905D01*
X160655000Y-117216905D01*
X160274048Y-116797857D02*
X160007381Y-116797857D01*
X159893095Y-117216905D02*
X160274048Y-117216905D01*
X160274048Y-116416905D01*
X159893095Y-116416905D01*
X159093095Y-117216905D02*
X159359762Y-116835952D01*
X159550238Y-117216905D02*
X159550238Y-116416905D01*
X159245476Y-116416905D01*
X159169285Y-116455000D01*
X159131190Y-116493095D01*
X159093095Y-116569286D01*
X159093095Y-116683571D01*
X159131190Y-116759762D01*
X159169285Y-116797857D01*
X159245476Y-116835952D01*
X159550238Y-116835952D01*
X161226428Y-97971905D02*
X161607381Y-97971905D01*
X161645476Y-98352857D01*
X161607381Y-98314762D01*
X161531190Y-98276667D01*
X161340714Y-98276667D01*
X161264524Y-98314762D01*
X161226428Y-98352857D01*
X161188333Y-98429048D01*
X161188333Y-98619524D01*
X161226428Y-98695714D01*
X161264524Y-98733810D01*
X161340714Y-98771905D01*
X161531190Y-98771905D01*
X161607381Y-98733810D01*
X161645476Y-98695714D01*
X160464523Y-97971905D02*
X160845476Y-97971905D01*
X160883571Y-98352857D01*
X160845476Y-98314762D01*
X160769285Y-98276667D01*
X160578809Y-98276667D01*
X160502619Y-98314762D01*
X160464523Y-98352857D01*
X160426428Y-98429048D01*
X160426428Y-98619524D01*
X160464523Y-98695714D01*
X160502619Y-98733810D01*
X160578809Y-98771905D01*
X160769285Y-98771905D01*
X160845476Y-98733810D01*
X160883571Y-98695714D01*
X159702618Y-97971905D02*
X160083571Y-97971905D01*
X160121666Y-98352857D01*
X160083571Y-98314762D01*
X160007380Y-98276667D01*
X159816904Y-98276667D01*
X159740714Y-98314762D01*
X159702618Y-98352857D01*
X159664523Y-98429048D01*
X159664523Y-98619524D01*
X159702618Y-98695714D01*
X159740714Y-98733810D01*
X159816904Y-98771905D01*
X160007380Y-98771905D01*
X160083571Y-98733810D01*
X160121666Y-98695714D01*
X162293096Y-99271905D02*
X161835953Y-99271905D01*
X162064524Y-100071905D02*
X162064524Y-99271905D01*
X161569286Y-100071905D02*
X161569286Y-99271905D01*
X161188334Y-100071905D02*
X161188334Y-99271905D01*
X160921667Y-99843333D01*
X160655000Y-99271905D01*
X160655000Y-100071905D01*
X160274048Y-99652857D02*
X160007381Y-99652857D01*
X159893095Y-100071905D02*
X160274048Y-100071905D01*
X160274048Y-99271905D01*
X159893095Y-99271905D01*
X159093095Y-100071905D02*
X159359762Y-99690952D01*
X159550238Y-100071905D02*
X159550238Y-99271905D01*
X159245476Y-99271905D01*
X159169285Y-99310000D01*
X159131190Y-99348095D01*
X159093095Y-99424286D01*
X159093095Y-99538571D01*
X159131190Y-99614762D01*
X159169285Y-99652857D01*
X159245476Y-99690952D01*
X159550238Y-99690952D01*
X146805476Y-77816905D02*
X146805476Y-77016905D01*
X146348333Y-77816905D01*
X146348333Y-77016905D01*
X146005476Y-77588333D02*
X145624524Y-77588333D01*
X146081667Y-77816905D02*
X145815000Y-77016905D01*
X145548333Y-77816905D01*
X145281667Y-77816905D02*
X145281667Y-77016905D01*
X144824524Y-77816905D01*
X144824524Y-77016905D01*
X144443572Y-77816905D02*
X144443572Y-77016905D01*
X144253096Y-77016905D01*
X144138810Y-77055000D01*
X144062619Y-77131190D01*
X144024524Y-77207381D01*
X143986429Y-77359762D01*
X143986429Y-77474048D01*
X144024524Y-77626429D01*
X144062619Y-77702619D01*
X144138810Y-77778810D01*
X144253096Y-77816905D01*
X144443572Y-77816905D01*
X146595952Y-78355000D02*
X146672143Y-78316905D01*
X146786428Y-78316905D01*
X146900714Y-78355000D01*
X146976905Y-78431190D01*
X147015000Y-78507381D01*
X147053095Y-78659762D01*
X147053095Y-78774048D01*
X147015000Y-78926429D01*
X146976905Y-79002619D01*
X146900714Y-79078810D01*
X146786428Y-79116905D01*
X146710238Y-79116905D01*
X146595952Y-79078810D01*
X146557857Y-79040714D01*
X146557857Y-78774048D01*
X146710238Y-78774048D01*
X146253095Y-78888333D02*
X145872143Y-78888333D01*
X146329286Y-79116905D02*
X146062619Y-78316905D01*
X145795952Y-79116905D01*
X145643572Y-78316905D02*
X145186429Y-78316905D01*
X145415000Y-79116905D02*
X145415000Y-78316905D01*
X144919762Y-78697857D02*
X144653095Y-78697857D01*
X144538809Y-79116905D02*
X144919762Y-79116905D01*
X144919762Y-78316905D01*
X144538809Y-78316905D01*
X144234047Y-79078810D02*
X144119761Y-79116905D01*
X143929285Y-79116905D01*
X143853095Y-79078810D01*
X143814999Y-79040714D01*
X143776904Y-78964524D01*
X143776904Y-78888333D01*
X143814999Y-78812143D01*
X143853095Y-78774048D01*
X143929285Y-78735952D01*
X144081666Y-78697857D01*
X144157857Y-78659762D01*
X144195952Y-78621667D01*
X144234047Y-78545476D01*
X144234047Y-78469286D01*
X144195952Y-78393095D01*
X144157857Y-78355000D01*
X144081666Y-78316905D01*
X143891190Y-78316905D01*
X143776904Y-78355000D01*
X162045476Y-77816905D02*
X162045476Y-77016905D01*
X161588333Y-77816905D01*
X161588333Y-77016905D01*
X161245476Y-77588333D02*
X160864524Y-77588333D01*
X161321667Y-77816905D02*
X161055000Y-77016905D01*
X160788333Y-77816905D01*
X160521667Y-77816905D02*
X160521667Y-77016905D01*
X160064524Y-77816905D01*
X160064524Y-77016905D01*
X159683572Y-77816905D02*
X159683572Y-77016905D01*
X159493096Y-77016905D01*
X159378810Y-77055000D01*
X159302619Y-77131190D01*
X159264524Y-77207381D01*
X159226429Y-77359762D01*
X159226429Y-77474048D01*
X159264524Y-77626429D01*
X159302619Y-77702619D01*
X159378810Y-77778810D01*
X159493096Y-77816905D01*
X159683572Y-77816905D01*
X161835952Y-78355000D02*
X161912143Y-78316905D01*
X162026428Y-78316905D01*
X162140714Y-78355000D01*
X162216905Y-78431190D01*
X162255000Y-78507381D01*
X162293095Y-78659762D01*
X162293095Y-78774048D01*
X162255000Y-78926429D01*
X162216905Y-79002619D01*
X162140714Y-79078810D01*
X162026428Y-79116905D01*
X161950238Y-79116905D01*
X161835952Y-79078810D01*
X161797857Y-79040714D01*
X161797857Y-78774048D01*
X161950238Y-78774048D01*
X161493095Y-78888333D02*
X161112143Y-78888333D01*
X161569286Y-79116905D02*
X161302619Y-78316905D01*
X161035952Y-79116905D01*
X160883572Y-78316905D02*
X160426429Y-78316905D01*
X160655000Y-79116905D02*
X160655000Y-78316905D01*
X160159762Y-78697857D02*
X159893095Y-78697857D01*
X159778809Y-79116905D02*
X160159762Y-79116905D01*
X160159762Y-78316905D01*
X159778809Y-78316905D01*
X159474047Y-79078810D02*
X159359761Y-79116905D01*
X159169285Y-79116905D01*
X159093095Y-79078810D01*
X159054999Y-79040714D01*
X159016904Y-78964524D01*
X159016904Y-78888333D01*
X159054999Y-78812143D01*
X159093095Y-78774048D01*
X159169285Y-78735952D01*
X159321666Y-78697857D01*
X159397857Y-78659762D01*
X159435952Y-78621667D01*
X159474047Y-78545476D01*
X159474047Y-78469286D01*
X159435952Y-78393095D01*
X159397857Y-78355000D01*
X159321666Y-78316905D01*
X159131190Y-78316905D01*
X159016904Y-78355000D01*
D12*
X164465000Y-139065000D02*
X164465000Y-137795000D01*
X156845000Y-139065000D02*
X164465000Y-139065000D01*
X156845000Y-137795000D02*
X156845000Y-139065000D01*
X164465000Y-127635000D02*
X164465000Y-128905000D01*
X156845000Y-127635000D02*
X164465000Y-127635000D01*
X156845000Y-128905000D02*
X156845000Y-127635000D01*
X164465000Y-121920000D02*
X164465000Y-120650000D01*
X156845000Y-121920000D02*
X164465000Y-121920000D01*
X156845000Y-120650000D02*
X156845000Y-121920000D01*
X164465000Y-110490000D02*
X164465000Y-111760000D01*
X156845000Y-110490000D02*
X164465000Y-110490000D01*
X156845000Y-111760000D02*
X156845000Y-110490000D01*
X164465000Y-104775000D02*
X164465000Y-103505000D01*
X156845000Y-104775000D02*
X164465000Y-104775000D01*
X156845000Y-103505000D02*
X156845000Y-104775000D01*
X164465000Y-93345000D02*
X164465000Y-94615000D01*
X156845000Y-93345000D02*
X164465000Y-93345000D01*
X156845000Y-94615000D02*
X156845000Y-93345000D01*
X164465000Y-87630000D02*
X164465000Y-86360000D01*
X156845000Y-87630000D02*
X164465000Y-87630000D01*
X156845000Y-86360000D02*
X156845000Y-87630000D01*
X149225000Y-87630000D02*
X149225000Y-86360000D01*
X141605000Y-87630000D02*
X149225000Y-87630000D01*
X141605000Y-86360000D02*
X141605000Y-87630000D01*
X164465000Y-68580000D02*
X164465000Y-69850000D01*
X156845000Y-68580000D02*
X164465000Y-68580000D01*
X156845000Y-69850000D02*
X156845000Y-68580000D01*
X149225000Y-68580000D02*
X149225000Y-69850000D01*
X141605000Y-68580000D02*
X149225000Y-68580000D01*
X141605000Y-69850000D02*
X141605000Y-68580000D01*
D11*
X136977381Y-97988572D02*
X136977381Y-97417143D01*
X136977381Y-97702857D02*
X135977381Y-97702857D01*
X136120238Y-97607619D01*
X136215476Y-97512381D01*
X136263095Y-97417143D01*
X135977381Y-98607619D02*
X135977381Y-98702858D01*
X136025000Y-98798096D01*
X136072619Y-98845715D01*
X136167857Y-98893334D01*
X136358333Y-98940953D01*
X136596429Y-98940953D01*
X136786905Y-98893334D01*
X136882143Y-98845715D01*
X136929762Y-98798096D01*
X136977381Y-98702858D01*
X136977381Y-98607619D01*
X136929762Y-98512381D01*
X136882143Y-98464762D01*
X136786905Y-98417143D01*
X136596429Y-98369524D01*
X136358333Y-98369524D01*
X136167857Y-98417143D01*
X136072619Y-98464762D01*
X136025000Y-98512381D01*
X135977381Y-98607619D01*
X136310714Y-99369524D02*
X136977381Y-99369524D01*
X136405952Y-99369524D02*
X136358333Y-99417143D01*
X136310714Y-99512381D01*
X136310714Y-99655239D01*
X136358333Y-99750477D01*
X136453571Y-99798096D01*
X136977381Y-99798096D01*
X136453571Y-100607620D02*
X136453571Y-100274286D01*
X136977381Y-100274286D02*
X135977381Y-100274286D01*
X135977381Y-100750477D01*
X133167381Y-115133572D02*
X133167381Y-114562143D01*
X133167381Y-114847857D02*
X132167381Y-114847857D01*
X132310238Y-114752619D01*
X132405476Y-114657381D01*
X132453095Y-114562143D01*
X132167381Y-115752619D02*
X132167381Y-115847858D01*
X132215000Y-115943096D01*
X132262619Y-115990715D01*
X132357857Y-116038334D01*
X132548333Y-116085953D01*
X132786429Y-116085953D01*
X132976905Y-116038334D01*
X133072143Y-115990715D01*
X133119762Y-115943096D01*
X133167381Y-115847858D01*
X133167381Y-115752619D01*
X133119762Y-115657381D01*
X133072143Y-115609762D01*
X132976905Y-115562143D01*
X132786429Y-115514524D01*
X132548333Y-115514524D01*
X132357857Y-115562143D01*
X132262619Y-115609762D01*
X132215000Y-115657381D01*
X132167381Y-115752619D01*
X132500714Y-116514524D02*
X133167381Y-116514524D01*
X132595952Y-116514524D02*
X132548333Y-116562143D01*
X132500714Y-116657381D01*
X132500714Y-116800239D01*
X132548333Y-116895477D01*
X132643571Y-116943096D01*
X133167381Y-116943096D01*
X132643571Y-117752620D02*
X132643571Y-117419286D01*
X133167381Y-117419286D02*
X132167381Y-117419286D01*
X132167381Y-117895477D01*
X135072381Y-130849762D02*
X135072381Y-130278333D01*
X135072381Y-130564047D02*
X134072381Y-130564047D01*
X134215238Y-130468809D01*
X134310476Y-130373571D01*
X134358095Y-130278333D01*
X134405714Y-131706905D02*
X135072381Y-131706905D01*
X134405714Y-131278333D02*
X134929524Y-131278333D01*
X135024762Y-131325952D01*
X135072381Y-131421190D01*
X135072381Y-131564048D01*
X135024762Y-131659286D01*
X134977143Y-131706905D01*
X134548571Y-132516429D02*
X134548571Y-132183095D01*
X135072381Y-132183095D02*
X134072381Y-132183095D01*
X134072381Y-132659286D01*
M02*
