G04 #@! TF.FileFunction,Soldermask,Bot*
%FSLAX46Y46*%
G04 Gerber Fmt 4.6, Leading zero omitted, Abs format (unit mm)*
G04 Created by KiCad (PCBNEW 4.0.7) date 11/16/19 22:45:39*
%MOMM*%
%LPD*%
G01*
G04 APERTURE LIST*
%ADD10C,0.100000*%
%ADD11C,5.400000*%
%ADD12C,2.000000*%
%ADD13O,2.000000X2.000000*%
%ADD14R,2.200000X2.200000*%
%ADD15C,2.200000*%
%ADD16C,1.840000*%
%ADD17C,2.400000*%
%ADD18R,2.800000X2.000000*%
%ADD19O,2.800000X2.000000*%
%ADD20R,1.600000X1.600000*%
%ADD21C,1.600000*%
%ADD22R,2.100000X2.100000*%
%ADD23O,2.100000X2.100000*%
%ADD24C,1.924000*%
%ADD25R,1.924000X1.924000*%
G04 APERTURE END LIST*
D10*
D11*
X167005000Y-149225000D03*
X128905000Y-149225000D03*
X128905000Y-60960000D03*
X167005000Y-60960000D03*
D12*
X137160000Y-101600000D03*
X137160000Y-96600000D03*
X133350000Y-118745000D03*
X133350000Y-113745000D03*
X137160000Y-118745000D03*
X137160000Y-113745000D03*
X147955000Y-66675000D03*
X142955000Y-66675000D03*
X147955000Y-137160000D03*
X142955000Y-137160000D03*
X150495000Y-133350000D03*
D13*
X140335000Y-133350000D03*
D12*
X150495000Y-129540000D03*
D13*
X140335000Y-129540000D03*
D12*
X150495000Y-114300000D03*
D13*
X140335000Y-114300000D03*
D12*
X140335000Y-100965000D03*
D13*
X150495000Y-100965000D03*
D12*
X153035000Y-75565000D03*
D13*
X153035000Y-85725000D03*
D14*
X131699000Y-70485000D03*
D15*
X131699000Y-67945000D03*
D12*
X150495000Y-118110000D03*
D13*
X140335000Y-118110000D03*
D12*
X140335000Y-97155000D03*
D13*
X150495000Y-97155000D03*
D16*
X129540000Y-130810000D03*
X129540000Y-133350000D03*
X129540000Y-135890000D03*
D17*
X158369000Y-147011000D03*
X158369000Y-151511000D03*
X151869000Y-147011000D03*
X151869000Y-151511000D03*
D18*
X141605000Y-70485000D03*
D19*
X149225000Y-85725000D03*
X141605000Y-73025000D03*
X149225000Y-83185000D03*
X141605000Y-75565000D03*
X149225000Y-80645000D03*
X141605000Y-78105000D03*
X149225000Y-78105000D03*
X141605000Y-80645000D03*
X149225000Y-75565000D03*
X141605000Y-83185000D03*
X149225000Y-73025000D03*
X141605000Y-85725000D03*
X149225000Y-70485000D03*
D20*
X135890000Y-130810000D03*
D21*
X135890000Y-132810000D03*
D12*
X163195000Y-66675000D03*
X158195000Y-66675000D03*
D22*
X133350000Y-85725000D03*
D23*
X133350000Y-83185000D03*
X133350000Y-80645000D03*
X133350000Y-78105000D03*
D18*
X156845000Y-129540000D03*
D19*
X164465000Y-137160000D03*
X156845000Y-132080000D03*
X164465000Y-134620000D03*
X156845000Y-134620000D03*
X164465000Y-132080000D03*
X156845000Y-137160000D03*
X164465000Y-129540000D03*
D18*
X156845000Y-112395000D03*
D19*
X164465000Y-120015000D03*
X156845000Y-114935000D03*
X164465000Y-117475000D03*
X156845000Y-117475000D03*
X164465000Y-114935000D03*
X156845000Y-120015000D03*
X164465000Y-112395000D03*
D18*
X156845000Y-95250000D03*
D19*
X164465000Y-102870000D03*
X156845000Y-97790000D03*
X164465000Y-100330000D03*
X156845000Y-100330000D03*
X164465000Y-97790000D03*
X156845000Y-102870000D03*
X164465000Y-95250000D03*
D18*
X156845000Y-70485000D03*
D19*
X164465000Y-85725000D03*
X156845000Y-73025000D03*
X164465000Y-83185000D03*
X156845000Y-75565000D03*
X164465000Y-80645000D03*
X156845000Y-78105000D03*
X164465000Y-78105000D03*
X156845000Y-80645000D03*
X164465000Y-75565000D03*
X156845000Y-83185000D03*
X164465000Y-73025000D03*
X156845000Y-85725000D03*
X164465000Y-70485000D03*
D24*
X137864000Y-146685000D03*
X137864000Y-149225000D03*
D25*
X137864000Y-151765000D03*
D24*
X143314000Y-151765000D03*
X143314000Y-149225000D03*
X143314000Y-146685000D03*
M02*
