M48
;DRILL file {KiCad 4.0.7} date 11/27/19 23:27:25
;FORMAT={2:4/ absolute / inch / suppress leading zeros}
FMAT,2
INCH,TZ
T1C0.016
T2C0.024
T3C0.030
T4C0.031
T5C0.035
T6C0.039
T7C0.043
T8C0.120
%
G90
G05
M72
T1
X49500Y-57250
X49750Y-57000
X50250Y-38750
X50500Y-39000
X53500Y-50750
X53750Y-50250
X59500Y-50000
X59750Y-31500
X59750Y-32500
X59750Y-51750
X60250Y-27000
X60750Y-50250
X65500Y-32250
X66250Y-33500
X66500Y-30000
X66500Y-38750
X66500Y-46500
X66750Y-27500
X66750Y-53250
X67000Y-45000
X67000Y-57000
T2
X53500Y-51500
X53500Y-52287
T3
X54277Y-57750
X54277Y-58750
X54277Y-59750
X56423Y-57750
X56423Y-58750
X56423Y-59750
T4
X51000Y-51500
X51000Y-52500
X51000Y-53500
X52500Y-44781
X52500Y-46750
X54000Y-38031
X54000Y-40000
X54000Y-44781
X54000Y-46750
X55250Y-38250
X55250Y-39750
X55250Y-45000
X55250Y-46500
X55250Y-51000
X55250Y-52500
X55750Y-27750
X55750Y-28750
X55750Y-29750
X55750Y-30750
X55750Y-31750
X55750Y-32750
X55750Y-33750
X56281Y-26250
X56281Y-54000
X58250Y-26250
X58250Y-54000
X58750Y-27750
X58750Y-28750
X58750Y-29750
X58750Y-30750
X58750Y-31750
X58750Y-32750
X58750Y-33750
X59250Y-38250
X59250Y-39750
X59250Y-45000
X59250Y-46500
X59250Y-51000
X59250Y-52500
X60250Y-29750
X60250Y-33750
X61750Y-27750
X61750Y-28750
X61750Y-29750
X61750Y-30750
X61750Y-31750
X61750Y-32750
X61750Y-33750
X61750Y-37500
X61750Y-38500
X61750Y-39500
X61750Y-40500
X61750Y-44250
X61750Y-45250
X61750Y-46250
X61750Y-47250
X61750Y-51000
X61750Y-52000
X61750Y-53000
X61750Y-54000
X62281Y-26250
X64250Y-26250
X64750Y-27750
X64750Y-28750
X64750Y-29750
X64750Y-30750
X64750Y-31750
X64750Y-32750
X64750Y-33750
X64750Y-37500
X64750Y-38500
X64750Y-39500
X64750Y-40500
X64750Y-44250
X64750Y-45250
X64750Y-46250
X64750Y-47250
X64750Y-51000
X64750Y-52000
X64750Y-53000
X64750Y-54000
T5
X51850Y-26750
X51850Y-27750
T6
X52250Y-30750
X52250Y-31750
X52250Y-32750
X52250Y-33750
T7
X59791Y-57878
X59791Y-59650
X62350Y-57878
X62350Y-59650
T8
X50750Y-24000
X50750Y-58750
X65750Y-24000
X65750Y-58750
T0
M30
