%TF.GenerationSoftware,KiCad,Pcbnew,(5.1.8)-1*%
%TF.CreationDate,2021-11-30T19:51:55+01:00*%
%TF.ProjectId,BE6502 Clock,42453635-3032-4204-936c-6f636b2e6b69,rev?*%
%TF.SameCoordinates,Original*%
%TF.FileFunction,Legend,Bot*%
%TF.FilePolarity,Positive*%
%FSLAX46Y46*%
G04 Gerber Fmt 4.6, Leading zero omitted, Abs format (unit mm)*
G04 Created by KiCad (PCBNEW (5.1.8)-1) date 2021-11-30 19:51:55*
%MOMM*%
%LPD*%
G01*
G04 APERTURE LIST*
%ADD10C,0.150000*%
%ADD11C,0.100000*%
%ADD12C,0.200000*%
G04 APERTURE END LIST*
D10*
X153359761Y-61380714D02*
X153359761Y-62190238D01*
X153407380Y-62285476D01*
X153455000Y-62333095D01*
X153550238Y-62380714D01*
X153693095Y-62380714D01*
X153788333Y-62333095D01*
X153359761Y-61999761D02*
X153455000Y-62047380D01*
X153645476Y-62047380D01*
X153740714Y-61999761D01*
X153788333Y-61952142D01*
X153835952Y-61856904D01*
X153835952Y-61571190D01*
X153788333Y-61475952D01*
X153740714Y-61428333D01*
X153645476Y-61380714D01*
X153455000Y-61380714D01*
X153359761Y-61428333D01*
X152883571Y-62047380D02*
X152883571Y-61380714D01*
X152883571Y-61047380D02*
X152931190Y-61095000D01*
X152883571Y-61142619D01*
X152835952Y-61095000D01*
X152883571Y-61047380D01*
X152883571Y-61142619D01*
X152550238Y-61380714D02*
X152169285Y-61380714D01*
X152407380Y-61047380D02*
X152407380Y-61904523D01*
X152359761Y-61999761D01*
X152264523Y-62047380D01*
X152169285Y-62047380D01*
X151835952Y-62047380D02*
X151835952Y-61047380D01*
X151407380Y-62047380D02*
X151407380Y-61523571D01*
X151455000Y-61428333D01*
X151550238Y-61380714D01*
X151693095Y-61380714D01*
X151788333Y-61428333D01*
X151835952Y-61475952D01*
X150502619Y-61380714D02*
X150502619Y-62047380D01*
X150931190Y-61380714D02*
X150931190Y-61904523D01*
X150883571Y-61999761D01*
X150788333Y-62047380D01*
X150645476Y-62047380D01*
X150550238Y-61999761D01*
X150502619Y-61952142D01*
X150026428Y-62047380D02*
X150026428Y-61047380D01*
X150026428Y-61428333D02*
X149931190Y-61380714D01*
X149740714Y-61380714D01*
X149645476Y-61428333D01*
X149597857Y-61475952D01*
X149550238Y-61571190D01*
X149550238Y-61856904D01*
X149597857Y-61952142D01*
X149645476Y-61999761D01*
X149740714Y-62047380D01*
X149931190Y-62047380D01*
X150026428Y-61999761D01*
X149121666Y-61952142D02*
X149074047Y-61999761D01*
X149121666Y-62047380D01*
X149169285Y-61999761D01*
X149121666Y-61952142D01*
X149121666Y-62047380D01*
X148216904Y-61999761D02*
X148312142Y-62047380D01*
X148502619Y-62047380D01*
X148597857Y-61999761D01*
X148645476Y-61952142D01*
X148693095Y-61856904D01*
X148693095Y-61571190D01*
X148645476Y-61475952D01*
X148597857Y-61428333D01*
X148502619Y-61380714D01*
X148312142Y-61380714D01*
X148216904Y-61428333D01*
X147645476Y-62047380D02*
X147740714Y-61999761D01*
X147788333Y-61952142D01*
X147835952Y-61856904D01*
X147835952Y-61571190D01*
X147788333Y-61475952D01*
X147740714Y-61428333D01*
X147645476Y-61380714D01*
X147502619Y-61380714D01*
X147407380Y-61428333D01*
X147359761Y-61475952D01*
X147312142Y-61571190D01*
X147312142Y-61856904D01*
X147359761Y-61952142D01*
X147407380Y-61999761D01*
X147502619Y-62047380D01*
X147645476Y-62047380D01*
X146883571Y-62047380D02*
X146883571Y-61380714D01*
X146883571Y-61475952D02*
X146835952Y-61428333D01*
X146740714Y-61380714D01*
X146597857Y-61380714D01*
X146502619Y-61428333D01*
X146455000Y-61523571D01*
X146455000Y-62047380D01*
X146455000Y-61523571D02*
X146407380Y-61428333D01*
X146312142Y-61380714D01*
X146169285Y-61380714D01*
X146074047Y-61428333D01*
X146026428Y-61523571D01*
X146026428Y-62047380D01*
X144835952Y-60999761D02*
X145693095Y-62285476D01*
X144645476Y-61380714D02*
X144264523Y-61380714D01*
X144502619Y-61047380D02*
X144502619Y-61904523D01*
X144455000Y-61999761D01*
X144359761Y-62047380D01*
X144264523Y-62047380D01*
X143550238Y-61999761D02*
X143645476Y-62047380D01*
X143835952Y-62047380D01*
X143931190Y-61999761D01*
X143978809Y-61904523D01*
X143978809Y-61523571D01*
X143931190Y-61428333D01*
X143835952Y-61380714D01*
X143645476Y-61380714D01*
X143550238Y-61428333D01*
X143502619Y-61523571D01*
X143502619Y-61618809D01*
X143978809Y-61714047D01*
X143074047Y-62047380D02*
X143074047Y-61047380D01*
X143074047Y-61428333D02*
X142978809Y-61380714D01*
X142788333Y-61380714D01*
X142693095Y-61428333D01*
X142645476Y-61475952D01*
X142597857Y-61571190D01*
X142597857Y-61856904D01*
X142645476Y-61952142D01*
X142693095Y-61999761D01*
X142788333Y-62047380D01*
X142978809Y-62047380D01*
X143074047Y-61999761D01*
X142026428Y-62047380D02*
X142121666Y-61999761D01*
X142169285Y-61904523D01*
X142169285Y-61047380D01*
X151121666Y-60777380D02*
X151455000Y-60301190D01*
X151693095Y-60777380D02*
X151693095Y-59777380D01*
X151312142Y-59777380D01*
X151216904Y-59825000D01*
X151169285Y-59872619D01*
X151121666Y-59967857D01*
X151121666Y-60110714D01*
X151169285Y-60205952D01*
X151216904Y-60253571D01*
X151312142Y-60301190D01*
X151693095Y-60301190D01*
X150312142Y-60729761D02*
X150407380Y-60777380D01*
X150597857Y-60777380D01*
X150693095Y-60729761D01*
X150740714Y-60634523D01*
X150740714Y-60253571D01*
X150693095Y-60158333D01*
X150597857Y-60110714D01*
X150407380Y-60110714D01*
X150312142Y-60158333D01*
X150264523Y-60253571D01*
X150264523Y-60348809D01*
X150740714Y-60444047D01*
X149931190Y-60110714D02*
X149693095Y-60777380D01*
X149455000Y-60110714D01*
X149074047Y-60777380D02*
X149074047Y-60110714D01*
X149074047Y-59777380D02*
X149121666Y-59825000D01*
X149074047Y-59872619D01*
X149026428Y-59825000D01*
X149074047Y-59777380D01*
X149074047Y-59872619D01*
X148645476Y-60729761D02*
X148550238Y-60777380D01*
X148359761Y-60777380D01*
X148264523Y-60729761D01*
X148216904Y-60634523D01*
X148216904Y-60586904D01*
X148264523Y-60491666D01*
X148359761Y-60444047D01*
X148502619Y-60444047D01*
X148597857Y-60396428D01*
X148645476Y-60301190D01*
X148645476Y-60253571D01*
X148597857Y-60158333D01*
X148502619Y-60110714D01*
X148359761Y-60110714D01*
X148264523Y-60158333D01*
X147788333Y-60777380D02*
X147788333Y-60110714D01*
X147788333Y-59777380D02*
X147835952Y-59825000D01*
X147788333Y-59872619D01*
X147740714Y-59825000D01*
X147788333Y-59777380D01*
X147788333Y-59872619D01*
X147169285Y-60777380D02*
X147264523Y-60729761D01*
X147312142Y-60682142D01*
X147359761Y-60586904D01*
X147359761Y-60301190D01*
X147312142Y-60205952D01*
X147264523Y-60158333D01*
X147169285Y-60110714D01*
X147026428Y-60110714D01*
X146931190Y-60158333D01*
X146883571Y-60205952D01*
X146835952Y-60301190D01*
X146835952Y-60586904D01*
X146883571Y-60682142D01*
X146931190Y-60729761D01*
X147026428Y-60777380D01*
X147169285Y-60777380D01*
X146407380Y-60110714D02*
X146407380Y-60777380D01*
X146407380Y-60205952D02*
X146359761Y-60158333D01*
X146264523Y-60110714D01*
X146121666Y-60110714D01*
X146026428Y-60158333D01*
X145978809Y-60253571D01*
X145978809Y-60777380D01*
X144169285Y-60682142D02*
X144216904Y-60729761D01*
X144359761Y-60777380D01*
X144455000Y-60777380D01*
X144597857Y-60729761D01*
X144693095Y-60634523D01*
X144740714Y-60539285D01*
X144788333Y-60348809D01*
X144788333Y-60205952D01*
X144740714Y-60015476D01*
X144693095Y-59920238D01*
X144597857Y-59825000D01*
X144455000Y-59777380D01*
X144359761Y-59777380D01*
X144216904Y-59825000D01*
X144169285Y-59872619D01*
D11*
X137356666Y-134771904D02*
X136899523Y-134771904D01*
X137128095Y-135571904D02*
X137128095Y-134771904D01*
X136632857Y-134771904D02*
X136632857Y-135419523D01*
X136594761Y-135495714D01*
X136556666Y-135533809D01*
X136480476Y-135571904D01*
X136328095Y-135571904D01*
X136251904Y-135533809D01*
X136213809Y-135495714D01*
X136175714Y-135419523D01*
X136175714Y-134771904D01*
X135337619Y-135571904D02*
X135604285Y-135190952D01*
X135794761Y-135571904D02*
X135794761Y-134771904D01*
X135490000Y-134771904D01*
X135413809Y-134810000D01*
X135375714Y-134848095D01*
X135337619Y-134924285D01*
X135337619Y-135038571D01*
X135375714Y-135114761D01*
X135413809Y-135152857D01*
X135490000Y-135190952D01*
X135794761Y-135190952D01*
X134994761Y-135571904D02*
X134994761Y-134771904D01*
X134537619Y-135571904D01*
X134537619Y-134771904D01*
X138575714Y-136795714D02*
X138613809Y-136833809D01*
X138728095Y-136871904D01*
X138804285Y-136871904D01*
X138918571Y-136833809D01*
X138994761Y-136757619D01*
X139032857Y-136681428D01*
X139070952Y-136529047D01*
X139070952Y-136414761D01*
X139032857Y-136262380D01*
X138994761Y-136186190D01*
X138918571Y-136110000D01*
X138804285Y-136071904D01*
X138728095Y-136071904D01*
X138613809Y-136110000D01*
X138575714Y-136148095D01*
X137851904Y-136871904D02*
X138232857Y-136871904D01*
X138232857Y-136071904D01*
X137432857Y-136071904D02*
X137280476Y-136071904D01*
X137204285Y-136110000D01*
X137128095Y-136186190D01*
X137090000Y-136338571D01*
X137090000Y-136605238D01*
X137128095Y-136757619D01*
X137204285Y-136833809D01*
X137280476Y-136871904D01*
X137432857Y-136871904D01*
X137509047Y-136833809D01*
X137585238Y-136757619D01*
X137623333Y-136605238D01*
X137623333Y-136338571D01*
X137585238Y-136186190D01*
X137509047Y-136110000D01*
X137432857Y-136071904D01*
X136290000Y-136795714D02*
X136328095Y-136833809D01*
X136442380Y-136871904D01*
X136518571Y-136871904D01*
X136632857Y-136833809D01*
X136709047Y-136757619D01*
X136747142Y-136681428D01*
X136785238Y-136529047D01*
X136785238Y-136414761D01*
X136747142Y-136262380D01*
X136709047Y-136186190D01*
X136632857Y-136110000D01*
X136518571Y-136071904D01*
X136442380Y-136071904D01*
X136328095Y-136110000D01*
X136290000Y-136148095D01*
X135947142Y-136871904D02*
X135947142Y-136071904D01*
X135490000Y-136871904D02*
X135832857Y-136414761D01*
X135490000Y-136071904D02*
X135947142Y-136529047D01*
X135223333Y-136071904D02*
X135032857Y-136871904D01*
X134880476Y-136300476D01*
X134728095Y-136871904D01*
X134537619Y-136071904D01*
X134232857Y-136871904D02*
X134232857Y-136071904D01*
X133890000Y-136833809D02*
X133775714Y-136871904D01*
X133585238Y-136871904D01*
X133509047Y-136833809D01*
X133470952Y-136795714D01*
X133432857Y-136719523D01*
X133432857Y-136643333D01*
X133470952Y-136567142D01*
X133509047Y-136529047D01*
X133585238Y-136490952D01*
X133737619Y-136452857D01*
X133813809Y-136414761D01*
X133851904Y-136376666D01*
X133890000Y-136300476D01*
X133890000Y-136224285D01*
X133851904Y-136148095D01*
X133813809Y-136110000D01*
X133737619Y-136071904D01*
X133547142Y-136071904D01*
X133432857Y-136110000D01*
X133090000Y-136452857D02*
X132823333Y-136452857D01*
X132709047Y-136871904D02*
X133090000Y-136871904D01*
X133090000Y-136071904D01*
X132709047Y-136071904D01*
X138423333Y-137371904D02*
X137966190Y-137371904D01*
X138194761Y-138171904D02*
X138194761Y-137371904D01*
X137547142Y-137371904D02*
X137394761Y-137371904D01*
X137318571Y-137410000D01*
X137242380Y-137486190D01*
X137204285Y-137638571D01*
X137204285Y-137905238D01*
X137242380Y-138057619D01*
X137318571Y-138133809D01*
X137394761Y-138171904D01*
X137547142Y-138171904D01*
X137623333Y-138133809D01*
X137699523Y-138057619D01*
X137737619Y-137905238D01*
X137737619Y-137638571D01*
X137699523Y-137486190D01*
X137623333Y-137410000D01*
X137547142Y-137371904D01*
X136290000Y-138133809D02*
X136175714Y-138171904D01*
X135985238Y-138171904D01*
X135909047Y-138133809D01*
X135870952Y-138095714D01*
X135832857Y-138019523D01*
X135832857Y-137943333D01*
X135870952Y-137867142D01*
X135909047Y-137829047D01*
X135985238Y-137790952D01*
X136137619Y-137752857D01*
X136213809Y-137714761D01*
X136251904Y-137676666D01*
X136290000Y-137600476D01*
X136290000Y-137524285D01*
X136251904Y-137448095D01*
X136213809Y-137410000D01*
X136137619Y-137371904D01*
X135947142Y-137371904D01*
X135832857Y-137410000D01*
X135109047Y-138171904D02*
X135490000Y-138171904D01*
X135490000Y-137371904D01*
X134690000Y-137371904D02*
X134537619Y-137371904D01*
X134461428Y-137410000D01*
X134385238Y-137486190D01*
X134347142Y-137638571D01*
X134347142Y-137905238D01*
X134385238Y-138057619D01*
X134461428Y-138133809D01*
X134537619Y-138171904D01*
X134690000Y-138171904D01*
X134766190Y-138133809D01*
X134842380Y-138057619D01*
X134880476Y-137905238D01*
X134880476Y-137638571D01*
X134842380Y-137486190D01*
X134766190Y-137410000D01*
X134690000Y-137371904D01*
X134080476Y-137371904D02*
X133890000Y-138171904D01*
X133737619Y-137600476D01*
X133585238Y-138171904D01*
X133394761Y-137371904D01*
X137185238Y-139395714D02*
X137223333Y-139433809D01*
X137337619Y-139471904D01*
X137413809Y-139471904D01*
X137528095Y-139433809D01*
X137604285Y-139357619D01*
X137642380Y-139281428D01*
X137680476Y-139129047D01*
X137680476Y-139014761D01*
X137642380Y-138862380D01*
X137604285Y-138786190D01*
X137528095Y-138710000D01*
X137413809Y-138671904D01*
X137337619Y-138671904D01*
X137223333Y-138710000D01*
X137185238Y-138748095D01*
X136461428Y-139471904D02*
X136842380Y-139471904D01*
X136842380Y-138671904D01*
X136042380Y-138671904D02*
X135890000Y-138671904D01*
X135813809Y-138710000D01*
X135737619Y-138786190D01*
X135699523Y-138938571D01*
X135699523Y-139205238D01*
X135737619Y-139357619D01*
X135813809Y-139433809D01*
X135890000Y-139471904D01*
X136042380Y-139471904D01*
X136118571Y-139433809D01*
X136194761Y-139357619D01*
X136232857Y-139205238D01*
X136232857Y-138938571D01*
X136194761Y-138786190D01*
X136118571Y-138710000D01*
X136042380Y-138671904D01*
X134899523Y-139395714D02*
X134937619Y-139433809D01*
X135051904Y-139471904D01*
X135128095Y-139471904D01*
X135242380Y-139433809D01*
X135318571Y-139357619D01*
X135356666Y-139281428D01*
X135394761Y-139129047D01*
X135394761Y-139014761D01*
X135356666Y-138862380D01*
X135318571Y-138786190D01*
X135242380Y-138710000D01*
X135128095Y-138671904D01*
X135051904Y-138671904D01*
X134937619Y-138710000D01*
X134899523Y-138748095D01*
X134556666Y-139471904D02*
X134556666Y-138671904D01*
X134099523Y-139471904D02*
X134442380Y-139014761D01*
X134099523Y-138671904D02*
X134556666Y-139129047D01*
D12*
X133350000Y-148590000D02*
X134620000Y-148590000D01*
X133350000Y-152400000D02*
X134620000Y-152400000D01*
D11*
X137413571Y-153803333D02*
X137032619Y-153803333D01*
X137489761Y-154031904D02*
X137223095Y-153231904D01*
X136956428Y-154031904D01*
X136689761Y-154031904D02*
X136689761Y-153231904D01*
X136499285Y-153231904D01*
X136385000Y-153270000D01*
X136308809Y-153346190D01*
X136270714Y-153422380D01*
X136232619Y-153574761D01*
X136232619Y-153689047D01*
X136270714Y-153841428D01*
X136308809Y-153917619D01*
X136385000Y-153993809D01*
X136499285Y-154031904D01*
X136689761Y-154031904D01*
X135661190Y-153231904D02*
X135661190Y-153803333D01*
X135699285Y-153917619D01*
X135775476Y-153993809D01*
X135889761Y-154031904D01*
X135965952Y-154031904D01*
X135280238Y-153231904D02*
X135280238Y-153879523D01*
X135242142Y-153955714D01*
X135204047Y-153993809D01*
X135127857Y-154031904D01*
X134975476Y-154031904D01*
X134899285Y-153993809D01*
X134861190Y-153955714D01*
X134823095Y-153879523D01*
X134823095Y-153231904D01*
X134480238Y-153993809D02*
X134365952Y-154031904D01*
X134175476Y-154031904D01*
X134099285Y-153993809D01*
X134061190Y-153955714D01*
X134023095Y-153879523D01*
X134023095Y-153803333D01*
X134061190Y-153727142D01*
X134099285Y-153689047D01*
X134175476Y-153650952D01*
X134327857Y-153612857D01*
X134404047Y-153574761D01*
X134442142Y-153536666D01*
X134480238Y-153460476D01*
X134480238Y-153384285D01*
X134442142Y-153308095D01*
X134404047Y-153270000D01*
X134327857Y-153231904D01*
X134137380Y-153231904D01*
X134023095Y-153270000D01*
X133794523Y-153231904D02*
X133337380Y-153231904D01*
X133565952Y-154031904D02*
X133565952Y-153231904D01*
X133108809Y-153803333D02*
X132727857Y-153803333D01*
X133185000Y-154031904D02*
X132918333Y-153231904D01*
X132651666Y-154031904D01*
X132118333Y-153612857D02*
X132004047Y-153650952D01*
X131965952Y-153689047D01*
X131927857Y-153765238D01*
X131927857Y-153879523D01*
X131965952Y-153955714D01*
X132004047Y-153993809D01*
X132080238Y-154031904D01*
X132385000Y-154031904D01*
X132385000Y-153231904D01*
X132118333Y-153231904D01*
X132042142Y-153270000D01*
X132004047Y-153308095D01*
X131965952Y-153384285D01*
X131965952Y-153460476D01*
X132004047Y-153536666D01*
X132042142Y-153574761D01*
X132118333Y-153612857D01*
X132385000Y-153612857D01*
X131204047Y-154031904D02*
X131585000Y-154031904D01*
X131585000Y-153231904D01*
X130937380Y-153612857D02*
X130670714Y-153612857D01*
X130556428Y-154031904D02*
X130937380Y-154031904D01*
X130937380Y-153231904D01*
X130556428Y-153231904D01*
D12*
X133350000Y-148590000D02*
X132715000Y-148590000D01*
X134620000Y-148590000D02*
X135255000Y-148590000D01*
X134620000Y-146050000D02*
X134620000Y-148590000D01*
X133350000Y-146050000D02*
X134620000Y-146050000D01*
X133350000Y-148590000D02*
X133350000Y-146050000D01*
X133350000Y-151130000D02*
X134620000Y-151130000D01*
X133350000Y-152400000D02*
X132715000Y-152400000D01*
X133350000Y-151130000D02*
X133350000Y-152400000D01*
X134620000Y-152400000D02*
X135255000Y-152400000D01*
X134620000Y-151130000D02*
X134620000Y-152400000D01*
D11*
X136099285Y-150221904D02*
X136099285Y-149421904D01*
X135832619Y-149993333D01*
X135565952Y-149421904D01*
X135565952Y-150221904D01*
X135223095Y-149993333D02*
X134842142Y-149993333D01*
X135299285Y-150221904D02*
X135032619Y-149421904D01*
X134765952Y-150221904D01*
X134499285Y-150221904D02*
X134499285Y-149421904D01*
X134042142Y-150221904D01*
X134042142Y-149421904D01*
X133661190Y-149421904D02*
X133661190Y-150069523D01*
X133623095Y-150145714D01*
X133585000Y-150183809D01*
X133508809Y-150221904D01*
X133356428Y-150221904D01*
X133280238Y-150183809D01*
X133242142Y-150145714D01*
X133204047Y-150069523D01*
X133204047Y-149421904D01*
X132861190Y-149993333D02*
X132480238Y-149993333D01*
X132937380Y-150221904D02*
X132670714Y-149421904D01*
X132404047Y-150221904D01*
X131756428Y-150221904D02*
X132137380Y-150221904D01*
X132137380Y-149421904D01*
X131037142Y-82746904D02*
X130884761Y-82746904D01*
X130808571Y-82785000D01*
X130732380Y-82861190D01*
X130694285Y-83013571D01*
X130694285Y-83280238D01*
X130732380Y-83432619D01*
X130808571Y-83508809D01*
X130884761Y-83546904D01*
X131037142Y-83546904D01*
X131113333Y-83508809D01*
X131189523Y-83432619D01*
X131227619Y-83280238D01*
X131227619Y-83013571D01*
X131189523Y-82861190D01*
X131113333Y-82785000D01*
X131037142Y-82746904D01*
X130351428Y-82746904D02*
X130351428Y-83394523D01*
X130313333Y-83470714D01*
X130275238Y-83508809D01*
X130199047Y-83546904D01*
X130046666Y-83546904D01*
X129970476Y-83508809D01*
X129932380Y-83470714D01*
X129894285Y-83394523D01*
X129894285Y-82746904D01*
X129627619Y-82746904D02*
X129170476Y-82746904D01*
X129399047Y-83546904D02*
X129399047Y-82746904D01*
X130770476Y-85325000D02*
X130846666Y-85286904D01*
X130960952Y-85286904D01*
X131075238Y-85325000D01*
X131151428Y-85401190D01*
X131189523Y-85477380D01*
X131227619Y-85629761D01*
X131227619Y-85744047D01*
X131189523Y-85896428D01*
X131151428Y-85972619D01*
X131075238Y-86048809D01*
X130960952Y-86086904D01*
X130884761Y-86086904D01*
X130770476Y-86048809D01*
X130732380Y-86010714D01*
X130732380Y-85744047D01*
X130884761Y-85744047D01*
X130389523Y-86086904D02*
X130389523Y-85286904D01*
X129932380Y-86086904D01*
X129932380Y-85286904D01*
X129551428Y-86086904D02*
X129551428Y-85286904D01*
X129360952Y-85286904D01*
X129246666Y-85325000D01*
X129170476Y-85401190D01*
X129132380Y-85477380D01*
X129094285Y-85629761D01*
X129094285Y-85744047D01*
X129132380Y-85896428D01*
X129170476Y-85972619D01*
X129246666Y-86048809D01*
X129360952Y-86086904D01*
X129551428Y-86086904D01*
X131303809Y-77666904D02*
X131037142Y-78466904D01*
X130770476Y-77666904D01*
X130046666Y-78390714D02*
X130084761Y-78428809D01*
X130199047Y-78466904D01*
X130275238Y-78466904D01*
X130389523Y-78428809D01*
X130465714Y-78352619D01*
X130503809Y-78276428D01*
X130541904Y-78124047D01*
X130541904Y-78009761D01*
X130503809Y-77857380D01*
X130465714Y-77781190D01*
X130389523Y-77705000D01*
X130275238Y-77666904D01*
X130199047Y-77666904D01*
X130084761Y-77705000D01*
X130046666Y-77743095D01*
X129246666Y-78390714D02*
X129284761Y-78428809D01*
X129399047Y-78466904D01*
X129475238Y-78466904D01*
X129589523Y-78428809D01*
X129665714Y-78352619D01*
X129703809Y-78276428D01*
X129741904Y-78124047D01*
X129741904Y-78009761D01*
X129703809Y-77857380D01*
X129665714Y-77781190D01*
X129589523Y-77705000D01*
X129475238Y-77666904D01*
X129399047Y-77666904D01*
X129284761Y-77705000D01*
X129246666Y-77743095D01*
D10*
X135254571Y-90654142D02*
X135302190Y-90701761D01*
X135445047Y-90749380D01*
X135540285Y-90749380D01*
X135683142Y-90701761D01*
X135778380Y-90606523D01*
X135826000Y-90511285D01*
X135873619Y-90320809D01*
X135873619Y-90177952D01*
X135826000Y-89987476D01*
X135778380Y-89892238D01*
X135683142Y-89797000D01*
X135540285Y-89749380D01*
X135445047Y-89749380D01*
X135302190Y-89797000D01*
X135254571Y-89844619D01*
X134349809Y-90749380D02*
X134826000Y-90749380D01*
X134826000Y-89749380D01*
X133826000Y-89749380D02*
X133635523Y-89749380D01*
X133540285Y-89797000D01*
X133445047Y-89892238D01*
X133397428Y-90082714D01*
X133397428Y-90416047D01*
X133445047Y-90606523D01*
X133540285Y-90701761D01*
X133635523Y-90749380D01*
X133826000Y-90749380D01*
X133921238Y-90701761D01*
X134016476Y-90606523D01*
X134064095Y-90416047D01*
X134064095Y-90082714D01*
X134016476Y-89892238D01*
X133921238Y-89797000D01*
X133826000Y-89749380D01*
X132397428Y-90654142D02*
X132445047Y-90701761D01*
X132587904Y-90749380D01*
X132683142Y-90749380D01*
X132826000Y-90701761D01*
X132921238Y-90606523D01*
X132968857Y-90511285D01*
X133016476Y-90320809D01*
X133016476Y-90177952D01*
X132968857Y-89987476D01*
X132921238Y-89892238D01*
X132826000Y-89797000D01*
X132683142Y-89749380D01*
X132587904Y-89749380D01*
X132445047Y-89797000D01*
X132397428Y-89844619D01*
X131968857Y-90749380D02*
X131968857Y-89749380D01*
X131397428Y-90749380D02*
X131826000Y-90177952D01*
X131397428Y-89749380D02*
X131968857Y-90320809D01*
X130016476Y-89749380D02*
X129826000Y-89749380D01*
X129730761Y-89797000D01*
X129635523Y-89892238D01*
X129587904Y-90082714D01*
X129587904Y-90416047D01*
X129635523Y-90606523D01*
X129730761Y-90701761D01*
X129826000Y-90749380D01*
X130016476Y-90749380D01*
X130111714Y-90701761D01*
X130206952Y-90606523D01*
X130254571Y-90416047D01*
X130254571Y-90082714D01*
X130206952Y-89892238D01*
X130111714Y-89797000D01*
X130016476Y-89749380D01*
X129159333Y-89749380D02*
X129159333Y-90558904D01*
X129111714Y-90654142D01*
X129064095Y-90701761D01*
X128968857Y-90749380D01*
X128778380Y-90749380D01*
X128683142Y-90701761D01*
X128635523Y-90654142D01*
X128587904Y-90558904D01*
X128587904Y-89749380D01*
X128254571Y-89749380D02*
X127683142Y-89749380D01*
X127968857Y-90749380D02*
X127968857Y-89749380D01*
D12*
X126365000Y-90170000D02*
X126365000Y-64135000D01*
X127000000Y-90170000D02*
X126365000Y-90170000D01*
X137160000Y-90170000D02*
X136525000Y-90170000D01*
X137160000Y-64135000D02*
X137160000Y-90170000D01*
X126365000Y-64135000D02*
X137160000Y-64135000D01*
D10*
X155050238Y-140501666D02*
X154574047Y-140501666D01*
X155145476Y-140787380D02*
X154812142Y-139787380D01*
X154478809Y-140787380D01*
X154145476Y-140787380D02*
X154145476Y-139787380D01*
X153907380Y-139787380D01*
X153764523Y-139835000D01*
X153669285Y-139930238D01*
X153621666Y-140025476D01*
X153574047Y-140215952D01*
X153574047Y-140358809D01*
X153621666Y-140549285D01*
X153669285Y-140644523D01*
X153764523Y-140739761D01*
X153907380Y-140787380D01*
X154145476Y-140787380D01*
X152859761Y-139787380D02*
X152859761Y-140501666D01*
X152907380Y-140644523D01*
X153002619Y-140739761D01*
X153145476Y-140787380D01*
X153240714Y-140787380D01*
X152383571Y-139787380D02*
X152383571Y-140596904D01*
X152335952Y-140692142D01*
X152288333Y-140739761D01*
X152193095Y-140787380D01*
X152002619Y-140787380D01*
X151907380Y-140739761D01*
X151859761Y-140692142D01*
X151812142Y-140596904D01*
X151812142Y-139787380D01*
X151383571Y-140739761D02*
X151240714Y-140787380D01*
X151002619Y-140787380D01*
X150907380Y-140739761D01*
X150859761Y-140692142D01*
X150812142Y-140596904D01*
X150812142Y-140501666D01*
X150859761Y-140406428D01*
X150907380Y-140358809D01*
X151002619Y-140311190D01*
X151193095Y-140263571D01*
X151288333Y-140215952D01*
X151335952Y-140168333D01*
X151383571Y-140073095D01*
X151383571Y-139977857D01*
X151335952Y-139882619D01*
X151288333Y-139835000D01*
X151193095Y-139787380D01*
X150955000Y-139787380D01*
X150812142Y-139835000D01*
X150526428Y-139787380D02*
X149955000Y-139787380D01*
X150240714Y-140787380D02*
X150240714Y-139787380D01*
X149669285Y-140501666D02*
X149193095Y-140501666D01*
X149764523Y-140787380D02*
X149431190Y-139787380D01*
X149097857Y-140787380D01*
X148431190Y-140263571D02*
X148288333Y-140311190D01*
X148240714Y-140358809D01*
X148193095Y-140454047D01*
X148193095Y-140596904D01*
X148240714Y-140692142D01*
X148288333Y-140739761D01*
X148383571Y-140787380D01*
X148764523Y-140787380D01*
X148764523Y-139787380D01*
X148431190Y-139787380D01*
X148335952Y-139835000D01*
X148288333Y-139882619D01*
X148240714Y-139977857D01*
X148240714Y-140073095D01*
X148288333Y-140168333D01*
X148335952Y-140215952D01*
X148431190Y-140263571D01*
X148764523Y-140263571D01*
X147288333Y-140787380D02*
X147764523Y-140787380D01*
X147764523Y-139787380D01*
X146955000Y-140263571D02*
X146621666Y-140263571D01*
X146478809Y-140787380D02*
X146955000Y-140787380D01*
X146955000Y-139787380D01*
X146478809Y-139787380D01*
X144716904Y-140692142D02*
X144764523Y-140739761D01*
X144907380Y-140787380D01*
X145002619Y-140787380D01*
X145145476Y-140739761D01*
X145240714Y-140644523D01*
X145288333Y-140549285D01*
X145335952Y-140358809D01*
X145335952Y-140215952D01*
X145288333Y-140025476D01*
X145240714Y-139930238D01*
X145145476Y-139835000D01*
X145002619Y-139787380D01*
X144907380Y-139787380D01*
X144764523Y-139835000D01*
X144716904Y-139882619D01*
X143812142Y-140787380D02*
X144288333Y-140787380D01*
X144288333Y-139787380D01*
X143288333Y-139787380D02*
X143097857Y-139787380D01*
X143002619Y-139835000D01*
X142907380Y-139930238D01*
X142859761Y-140120714D01*
X142859761Y-140454047D01*
X142907380Y-140644523D01*
X143002619Y-140739761D01*
X143097857Y-140787380D01*
X143288333Y-140787380D01*
X143383571Y-140739761D01*
X143478809Y-140644523D01*
X143526428Y-140454047D01*
X143526428Y-140120714D01*
X143478809Y-139930238D01*
X143383571Y-139835000D01*
X143288333Y-139787380D01*
X141859761Y-140692142D02*
X141907380Y-140739761D01*
X142050238Y-140787380D01*
X142145476Y-140787380D01*
X142288333Y-140739761D01*
X142383571Y-140644523D01*
X142431190Y-140549285D01*
X142478809Y-140358809D01*
X142478809Y-140215952D01*
X142431190Y-140025476D01*
X142383571Y-139930238D01*
X142288333Y-139835000D01*
X142145476Y-139787380D01*
X142050238Y-139787380D01*
X141907380Y-139835000D01*
X141859761Y-139882619D01*
X141431190Y-140787380D02*
X141431190Y-139787380D01*
X140859761Y-140787380D02*
X141288333Y-140215952D01*
X140859761Y-139787380D02*
X141431190Y-140358809D01*
D12*
X126365000Y-140335000D02*
X126365000Y-126365000D01*
X139700000Y-140335000D02*
X126365000Y-140335000D01*
X169545000Y-140335000D02*
X155575000Y-140335000D01*
X169545000Y-126365000D02*
X169545000Y-140335000D01*
X126365000Y-126365000D02*
X169545000Y-126365000D01*
D10*
X153407380Y-123642380D02*
X153407380Y-122642380D01*
X153074047Y-123356666D01*
X152740714Y-122642380D01*
X152740714Y-123642380D01*
X152312142Y-123356666D02*
X151835952Y-123356666D01*
X152407380Y-123642380D02*
X152074047Y-122642380D01*
X151740714Y-123642380D01*
X151407380Y-123642380D02*
X151407380Y-122642380D01*
X150835952Y-123642380D01*
X150835952Y-122642380D01*
X150359761Y-122642380D02*
X150359761Y-123451904D01*
X150312142Y-123547142D01*
X150264523Y-123594761D01*
X150169285Y-123642380D01*
X149978809Y-123642380D01*
X149883571Y-123594761D01*
X149835952Y-123547142D01*
X149788333Y-123451904D01*
X149788333Y-122642380D01*
X149359761Y-123356666D02*
X148883571Y-123356666D01*
X149455000Y-123642380D02*
X149121666Y-122642380D01*
X148788333Y-123642380D01*
X147978809Y-123642380D02*
X148455000Y-123642380D01*
X148455000Y-122642380D01*
X146312142Y-123547142D02*
X146359761Y-123594761D01*
X146502619Y-123642380D01*
X146597857Y-123642380D01*
X146740714Y-123594761D01*
X146835952Y-123499523D01*
X146883571Y-123404285D01*
X146931190Y-123213809D01*
X146931190Y-123070952D01*
X146883571Y-122880476D01*
X146835952Y-122785238D01*
X146740714Y-122690000D01*
X146597857Y-122642380D01*
X146502619Y-122642380D01*
X146359761Y-122690000D01*
X146312142Y-122737619D01*
X145407380Y-123642380D02*
X145883571Y-123642380D01*
X145883571Y-122642380D01*
X144883571Y-122642380D02*
X144693095Y-122642380D01*
X144597857Y-122690000D01*
X144502619Y-122785238D01*
X144455000Y-122975714D01*
X144455000Y-123309047D01*
X144502619Y-123499523D01*
X144597857Y-123594761D01*
X144693095Y-123642380D01*
X144883571Y-123642380D01*
X144978809Y-123594761D01*
X145074047Y-123499523D01*
X145121666Y-123309047D01*
X145121666Y-122975714D01*
X145074047Y-122785238D01*
X144978809Y-122690000D01*
X144883571Y-122642380D01*
X143455000Y-123547142D02*
X143502619Y-123594761D01*
X143645476Y-123642380D01*
X143740714Y-123642380D01*
X143883571Y-123594761D01*
X143978809Y-123499523D01*
X144026428Y-123404285D01*
X144074047Y-123213809D01*
X144074047Y-123070952D01*
X144026428Y-122880476D01*
X143978809Y-122785238D01*
X143883571Y-122690000D01*
X143740714Y-122642380D01*
X143645476Y-122642380D01*
X143502619Y-122690000D01*
X143455000Y-122737619D01*
X143026428Y-123642380D02*
X143026428Y-122642380D01*
X142455000Y-123642380D02*
X142883571Y-123070952D01*
X142455000Y-122642380D02*
X143026428Y-123213809D01*
D12*
X126365000Y-123190000D02*
X126365000Y-109220000D01*
X141605000Y-123190000D02*
X126365000Y-123190000D01*
X169545000Y-123190000D02*
X154305000Y-123190000D01*
X169545000Y-109220000D02*
X169545000Y-123190000D01*
X126365000Y-109220000D02*
X169545000Y-109220000D01*
D10*
X152621666Y-106402142D02*
X152669285Y-106449761D01*
X152812142Y-106497380D01*
X152907380Y-106497380D01*
X153050238Y-106449761D01*
X153145476Y-106354523D01*
X153193095Y-106259285D01*
X153240714Y-106068809D01*
X153240714Y-105925952D01*
X153193095Y-105735476D01*
X153145476Y-105640238D01*
X153050238Y-105545000D01*
X152907380Y-105497380D01*
X152812142Y-105497380D01*
X152669285Y-105545000D01*
X152621666Y-105592619D01*
X151716904Y-106497380D02*
X152193095Y-106497380D01*
X152193095Y-105497380D01*
X151193095Y-105497380D02*
X151002619Y-105497380D01*
X150907380Y-105545000D01*
X150812142Y-105640238D01*
X150764523Y-105830714D01*
X150764523Y-106164047D01*
X150812142Y-106354523D01*
X150907380Y-106449761D01*
X151002619Y-106497380D01*
X151193095Y-106497380D01*
X151288333Y-106449761D01*
X151383571Y-106354523D01*
X151431190Y-106164047D01*
X151431190Y-105830714D01*
X151383571Y-105640238D01*
X151288333Y-105545000D01*
X151193095Y-105497380D01*
X149764523Y-106402142D02*
X149812142Y-106449761D01*
X149955000Y-106497380D01*
X150050238Y-106497380D01*
X150193095Y-106449761D01*
X150288333Y-106354523D01*
X150335952Y-106259285D01*
X150383571Y-106068809D01*
X150383571Y-105925952D01*
X150335952Y-105735476D01*
X150288333Y-105640238D01*
X150193095Y-105545000D01*
X150050238Y-105497380D01*
X149955000Y-105497380D01*
X149812142Y-105545000D01*
X149764523Y-105592619D01*
X149335952Y-106497380D02*
X149335952Y-105497380D01*
X148764523Y-106497380D02*
X149193095Y-105925952D01*
X148764523Y-105497380D02*
X149335952Y-106068809D01*
X147621666Y-106449761D02*
X147478809Y-106497380D01*
X147240714Y-106497380D01*
X147145476Y-106449761D01*
X147097857Y-106402142D01*
X147050238Y-106306904D01*
X147050238Y-106211666D01*
X147097857Y-106116428D01*
X147145476Y-106068809D01*
X147240714Y-106021190D01*
X147431190Y-105973571D01*
X147526428Y-105925952D01*
X147574047Y-105878333D01*
X147621666Y-105783095D01*
X147621666Y-105687857D01*
X147574047Y-105592619D01*
X147526428Y-105545000D01*
X147431190Y-105497380D01*
X147193095Y-105497380D01*
X147050238Y-105545000D01*
X146621666Y-105973571D02*
X146288333Y-105973571D01*
X146145476Y-106497380D02*
X146621666Y-106497380D01*
X146621666Y-105497380D01*
X146145476Y-105497380D01*
X145240714Y-106497380D02*
X145716904Y-106497380D01*
X145716904Y-105497380D01*
X144907380Y-105973571D02*
X144574047Y-105973571D01*
X144431190Y-106497380D02*
X144907380Y-106497380D01*
X144907380Y-105497380D01*
X144431190Y-105497380D01*
X143431190Y-106402142D02*
X143478809Y-106449761D01*
X143621666Y-106497380D01*
X143716904Y-106497380D01*
X143859761Y-106449761D01*
X143955000Y-106354523D01*
X144002619Y-106259285D01*
X144050238Y-106068809D01*
X144050238Y-105925952D01*
X144002619Y-105735476D01*
X143955000Y-105640238D01*
X143859761Y-105545000D01*
X143716904Y-105497380D01*
X143621666Y-105497380D01*
X143478809Y-105545000D01*
X143431190Y-105592619D01*
X143145476Y-105497380D02*
X142574047Y-105497380D01*
X142859761Y-106497380D02*
X142859761Y-105497380D01*
D12*
X126365000Y-106045000D02*
X126365000Y-92075000D01*
X141605000Y-106045000D02*
X126365000Y-106045000D01*
X169545000Y-106045000D02*
X154305000Y-106045000D01*
X169545000Y-64135000D02*
X169545000Y-106045000D01*
X137795000Y-64135000D02*
X169545000Y-64135000D01*
X137795000Y-92075000D02*
X137795000Y-64135000D01*
X126365000Y-92075000D02*
X137795000Y-92075000D01*
D11*
X161226428Y-132261904D02*
X161607380Y-132261904D01*
X161645476Y-132642857D01*
X161607380Y-132604761D01*
X161531190Y-132566666D01*
X161340714Y-132566666D01*
X161264523Y-132604761D01*
X161226428Y-132642857D01*
X161188333Y-132719047D01*
X161188333Y-132909523D01*
X161226428Y-132985714D01*
X161264523Y-133023809D01*
X161340714Y-133061904D01*
X161531190Y-133061904D01*
X161607380Y-133023809D01*
X161645476Y-132985714D01*
X160464523Y-132261904D02*
X160845476Y-132261904D01*
X160883571Y-132642857D01*
X160845476Y-132604761D01*
X160769285Y-132566666D01*
X160578809Y-132566666D01*
X160502619Y-132604761D01*
X160464523Y-132642857D01*
X160426428Y-132719047D01*
X160426428Y-132909523D01*
X160464523Y-132985714D01*
X160502619Y-133023809D01*
X160578809Y-133061904D01*
X160769285Y-133061904D01*
X160845476Y-133023809D01*
X160883571Y-132985714D01*
X159702619Y-132261904D02*
X160083571Y-132261904D01*
X160121666Y-132642857D01*
X160083571Y-132604761D01*
X160007380Y-132566666D01*
X159816904Y-132566666D01*
X159740714Y-132604761D01*
X159702619Y-132642857D01*
X159664523Y-132719047D01*
X159664523Y-132909523D01*
X159702619Y-132985714D01*
X159740714Y-133023809D01*
X159816904Y-133061904D01*
X160007380Y-133061904D01*
X160083571Y-133023809D01*
X160121666Y-132985714D01*
X162293095Y-133561904D02*
X161835952Y-133561904D01*
X162064523Y-134361904D02*
X162064523Y-133561904D01*
X161569285Y-134361904D02*
X161569285Y-133561904D01*
X161188333Y-134361904D02*
X161188333Y-133561904D01*
X160921666Y-134133333D01*
X160655000Y-133561904D01*
X160655000Y-134361904D01*
X160274047Y-133942857D02*
X160007380Y-133942857D01*
X159893095Y-134361904D02*
X160274047Y-134361904D01*
X160274047Y-133561904D01*
X159893095Y-133561904D01*
X159093095Y-134361904D02*
X159359761Y-133980952D01*
X159550238Y-134361904D02*
X159550238Y-133561904D01*
X159245476Y-133561904D01*
X159169285Y-133600000D01*
X159131190Y-133638095D01*
X159093095Y-133714285D01*
X159093095Y-133828571D01*
X159131190Y-133904761D01*
X159169285Y-133942857D01*
X159245476Y-133980952D01*
X159550238Y-133980952D01*
X161226428Y-115116904D02*
X161607380Y-115116904D01*
X161645476Y-115497857D01*
X161607380Y-115459761D01*
X161531190Y-115421666D01*
X161340714Y-115421666D01*
X161264523Y-115459761D01*
X161226428Y-115497857D01*
X161188333Y-115574047D01*
X161188333Y-115764523D01*
X161226428Y-115840714D01*
X161264523Y-115878809D01*
X161340714Y-115916904D01*
X161531190Y-115916904D01*
X161607380Y-115878809D01*
X161645476Y-115840714D01*
X160464523Y-115116904D02*
X160845476Y-115116904D01*
X160883571Y-115497857D01*
X160845476Y-115459761D01*
X160769285Y-115421666D01*
X160578809Y-115421666D01*
X160502619Y-115459761D01*
X160464523Y-115497857D01*
X160426428Y-115574047D01*
X160426428Y-115764523D01*
X160464523Y-115840714D01*
X160502619Y-115878809D01*
X160578809Y-115916904D01*
X160769285Y-115916904D01*
X160845476Y-115878809D01*
X160883571Y-115840714D01*
X159702619Y-115116904D02*
X160083571Y-115116904D01*
X160121666Y-115497857D01*
X160083571Y-115459761D01*
X160007380Y-115421666D01*
X159816904Y-115421666D01*
X159740714Y-115459761D01*
X159702619Y-115497857D01*
X159664523Y-115574047D01*
X159664523Y-115764523D01*
X159702619Y-115840714D01*
X159740714Y-115878809D01*
X159816904Y-115916904D01*
X160007380Y-115916904D01*
X160083571Y-115878809D01*
X160121666Y-115840714D01*
X162293095Y-116416904D02*
X161835952Y-116416904D01*
X162064523Y-117216904D02*
X162064523Y-116416904D01*
X161569285Y-117216904D02*
X161569285Y-116416904D01*
X161188333Y-117216904D02*
X161188333Y-116416904D01*
X160921666Y-116988333D01*
X160655000Y-116416904D01*
X160655000Y-117216904D01*
X160274047Y-116797857D02*
X160007380Y-116797857D01*
X159893095Y-117216904D02*
X160274047Y-117216904D01*
X160274047Y-116416904D01*
X159893095Y-116416904D01*
X159093095Y-117216904D02*
X159359761Y-116835952D01*
X159550238Y-117216904D02*
X159550238Y-116416904D01*
X159245476Y-116416904D01*
X159169285Y-116455000D01*
X159131190Y-116493095D01*
X159093095Y-116569285D01*
X159093095Y-116683571D01*
X159131190Y-116759761D01*
X159169285Y-116797857D01*
X159245476Y-116835952D01*
X159550238Y-116835952D01*
X161226428Y-97971904D02*
X161607380Y-97971904D01*
X161645476Y-98352857D01*
X161607380Y-98314761D01*
X161531190Y-98276666D01*
X161340714Y-98276666D01*
X161264523Y-98314761D01*
X161226428Y-98352857D01*
X161188333Y-98429047D01*
X161188333Y-98619523D01*
X161226428Y-98695714D01*
X161264523Y-98733809D01*
X161340714Y-98771904D01*
X161531190Y-98771904D01*
X161607380Y-98733809D01*
X161645476Y-98695714D01*
X160464523Y-97971904D02*
X160845476Y-97971904D01*
X160883571Y-98352857D01*
X160845476Y-98314761D01*
X160769285Y-98276666D01*
X160578809Y-98276666D01*
X160502619Y-98314761D01*
X160464523Y-98352857D01*
X160426428Y-98429047D01*
X160426428Y-98619523D01*
X160464523Y-98695714D01*
X160502619Y-98733809D01*
X160578809Y-98771904D01*
X160769285Y-98771904D01*
X160845476Y-98733809D01*
X160883571Y-98695714D01*
X159702619Y-97971904D02*
X160083571Y-97971904D01*
X160121666Y-98352857D01*
X160083571Y-98314761D01*
X160007380Y-98276666D01*
X159816904Y-98276666D01*
X159740714Y-98314761D01*
X159702619Y-98352857D01*
X159664523Y-98429047D01*
X159664523Y-98619523D01*
X159702619Y-98695714D01*
X159740714Y-98733809D01*
X159816904Y-98771904D01*
X160007380Y-98771904D01*
X160083571Y-98733809D01*
X160121666Y-98695714D01*
X162293095Y-99271904D02*
X161835952Y-99271904D01*
X162064523Y-100071904D02*
X162064523Y-99271904D01*
X161569285Y-100071904D02*
X161569285Y-99271904D01*
X161188333Y-100071904D02*
X161188333Y-99271904D01*
X160921666Y-99843333D01*
X160655000Y-99271904D01*
X160655000Y-100071904D01*
X160274047Y-99652857D02*
X160007380Y-99652857D01*
X159893095Y-100071904D02*
X160274047Y-100071904D01*
X160274047Y-99271904D01*
X159893095Y-99271904D01*
X159093095Y-100071904D02*
X159359761Y-99690952D01*
X159550238Y-100071904D02*
X159550238Y-99271904D01*
X159245476Y-99271904D01*
X159169285Y-99310000D01*
X159131190Y-99348095D01*
X159093095Y-99424285D01*
X159093095Y-99538571D01*
X159131190Y-99614761D01*
X159169285Y-99652857D01*
X159245476Y-99690952D01*
X159550238Y-99690952D01*
X146805476Y-77816904D02*
X146805476Y-77016904D01*
X146348333Y-77816904D01*
X146348333Y-77016904D01*
X146005476Y-77588333D02*
X145624523Y-77588333D01*
X146081666Y-77816904D02*
X145815000Y-77016904D01*
X145548333Y-77816904D01*
X145281666Y-77816904D02*
X145281666Y-77016904D01*
X144824523Y-77816904D01*
X144824523Y-77016904D01*
X144443571Y-77816904D02*
X144443571Y-77016904D01*
X144253095Y-77016904D01*
X144138809Y-77055000D01*
X144062619Y-77131190D01*
X144024523Y-77207380D01*
X143986428Y-77359761D01*
X143986428Y-77474047D01*
X144024523Y-77626428D01*
X144062619Y-77702619D01*
X144138809Y-77778809D01*
X144253095Y-77816904D01*
X144443571Y-77816904D01*
X146595952Y-78355000D02*
X146672142Y-78316904D01*
X146786428Y-78316904D01*
X146900714Y-78355000D01*
X146976904Y-78431190D01*
X147015000Y-78507380D01*
X147053095Y-78659761D01*
X147053095Y-78774047D01*
X147015000Y-78926428D01*
X146976904Y-79002619D01*
X146900714Y-79078809D01*
X146786428Y-79116904D01*
X146710238Y-79116904D01*
X146595952Y-79078809D01*
X146557857Y-79040714D01*
X146557857Y-78774047D01*
X146710238Y-78774047D01*
X146253095Y-78888333D02*
X145872142Y-78888333D01*
X146329285Y-79116904D02*
X146062619Y-78316904D01*
X145795952Y-79116904D01*
X145643571Y-78316904D02*
X145186428Y-78316904D01*
X145415000Y-79116904D02*
X145415000Y-78316904D01*
X144919761Y-78697857D02*
X144653095Y-78697857D01*
X144538809Y-79116904D02*
X144919761Y-79116904D01*
X144919761Y-78316904D01*
X144538809Y-78316904D01*
X144234047Y-79078809D02*
X144119761Y-79116904D01*
X143929285Y-79116904D01*
X143853095Y-79078809D01*
X143815000Y-79040714D01*
X143776904Y-78964523D01*
X143776904Y-78888333D01*
X143815000Y-78812142D01*
X143853095Y-78774047D01*
X143929285Y-78735952D01*
X144081666Y-78697857D01*
X144157857Y-78659761D01*
X144195952Y-78621666D01*
X144234047Y-78545476D01*
X144234047Y-78469285D01*
X144195952Y-78393095D01*
X144157857Y-78355000D01*
X144081666Y-78316904D01*
X143891190Y-78316904D01*
X143776904Y-78355000D01*
X162045476Y-77816904D02*
X162045476Y-77016904D01*
X161588333Y-77816904D01*
X161588333Y-77016904D01*
X161245476Y-77588333D02*
X160864523Y-77588333D01*
X161321666Y-77816904D02*
X161055000Y-77016904D01*
X160788333Y-77816904D01*
X160521666Y-77816904D02*
X160521666Y-77016904D01*
X160064523Y-77816904D01*
X160064523Y-77016904D01*
X159683571Y-77816904D02*
X159683571Y-77016904D01*
X159493095Y-77016904D01*
X159378809Y-77055000D01*
X159302619Y-77131190D01*
X159264523Y-77207380D01*
X159226428Y-77359761D01*
X159226428Y-77474047D01*
X159264523Y-77626428D01*
X159302619Y-77702619D01*
X159378809Y-77778809D01*
X159493095Y-77816904D01*
X159683571Y-77816904D01*
X161835952Y-78355000D02*
X161912142Y-78316904D01*
X162026428Y-78316904D01*
X162140714Y-78355000D01*
X162216904Y-78431190D01*
X162255000Y-78507380D01*
X162293095Y-78659761D01*
X162293095Y-78774047D01*
X162255000Y-78926428D01*
X162216904Y-79002619D01*
X162140714Y-79078809D01*
X162026428Y-79116904D01*
X161950238Y-79116904D01*
X161835952Y-79078809D01*
X161797857Y-79040714D01*
X161797857Y-78774047D01*
X161950238Y-78774047D01*
X161493095Y-78888333D02*
X161112142Y-78888333D01*
X161569285Y-79116904D02*
X161302619Y-78316904D01*
X161035952Y-79116904D01*
X160883571Y-78316904D02*
X160426428Y-78316904D01*
X160655000Y-79116904D02*
X160655000Y-78316904D01*
X160159761Y-78697857D02*
X159893095Y-78697857D01*
X159778809Y-79116904D02*
X160159761Y-79116904D01*
X160159761Y-78316904D01*
X159778809Y-78316904D01*
X159474047Y-79078809D02*
X159359761Y-79116904D01*
X159169285Y-79116904D01*
X159093095Y-79078809D01*
X159055000Y-79040714D01*
X159016904Y-78964523D01*
X159016904Y-78888333D01*
X159055000Y-78812142D01*
X159093095Y-78774047D01*
X159169285Y-78735952D01*
X159321666Y-78697857D01*
X159397857Y-78659761D01*
X159435952Y-78621666D01*
X159474047Y-78545476D01*
X159474047Y-78469285D01*
X159435952Y-78393095D01*
X159397857Y-78355000D01*
X159321666Y-78316904D01*
X159131190Y-78316904D01*
X159016904Y-78355000D01*
D12*
X164465000Y-139065000D02*
X164465000Y-137795000D01*
X156845000Y-139065000D02*
X164465000Y-139065000D01*
X156845000Y-137795000D02*
X156845000Y-139065000D01*
X164465000Y-127635000D02*
X164465000Y-128905000D01*
X156845000Y-127635000D02*
X164465000Y-127635000D01*
X156845000Y-128905000D02*
X156845000Y-127635000D01*
X164465000Y-121920000D02*
X164465000Y-120650000D01*
X156845000Y-121920000D02*
X164465000Y-121920000D01*
X156845000Y-120650000D02*
X156845000Y-121920000D01*
X164465000Y-110490000D02*
X164465000Y-111760000D01*
X156845000Y-110490000D02*
X164465000Y-110490000D01*
X156845000Y-111760000D02*
X156845000Y-110490000D01*
X164465000Y-104775000D02*
X164465000Y-103505000D01*
X156845000Y-104775000D02*
X164465000Y-104775000D01*
X156845000Y-103505000D02*
X156845000Y-104775000D01*
X164465000Y-93345000D02*
X164465000Y-94615000D01*
X156845000Y-93345000D02*
X164465000Y-93345000D01*
X156845000Y-94615000D02*
X156845000Y-93345000D01*
X164465000Y-87630000D02*
X164465000Y-86360000D01*
X156845000Y-87630000D02*
X164465000Y-87630000D01*
X156845000Y-86360000D02*
X156845000Y-87630000D01*
X149225000Y-87630000D02*
X149225000Y-86360000D01*
X141605000Y-87630000D02*
X149225000Y-87630000D01*
X141605000Y-86360000D02*
X141605000Y-87630000D01*
X164465000Y-68580000D02*
X164465000Y-69850000D01*
X156845000Y-68580000D02*
X164465000Y-68580000D01*
X156845000Y-69850000D02*
X156845000Y-68580000D01*
X149225000Y-68580000D02*
X149225000Y-69850000D01*
X141605000Y-68580000D02*
X149225000Y-68580000D01*
X141605000Y-69850000D02*
X141605000Y-68580000D01*
%TO.C,C1*%
D10*
X136977380Y-97988571D02*
X136977380Y-97417142D01*
X136977380Y-97702857D02*
X135977380Y-97702857D01*
X136120238Y-97607619D01*
X136215476Y-97512380D01*
X136263095Y-97417142D01*
X135977380Y-98607619D02*
X135977380Y-98702857D01*
X136025000Y-98798095D01*
X136072619Y-98845714D01*
X136167857Y-98893333D01*
X136358333Y-98940952D01*
X136596428Y-98940952D01*
X136786904Y-98893333D01*
X136882142Y-98845714D01*
X136929761Y-98798095D01*
X136977380Y-98702857D01*
X136977380Y-98607619D01*
X136929761Y-98512380D01*
X136882142Y-98464761D01*
X136786904Y-98417142D01*
X136596428Y-98369523D01*
X136358333Y-98369523D01*
X136167857Y-98417142D01*
X136072619Y-98464761D01*
X136025000Y-98512380D01*
X135977380Y-98607619D01*
X136310714Y-99369523D02*
X136977380Y-99369523D01*
X136405952Y-99369523D02*
X136358333Y-99417142D01*
X136310714Y-99512380D01*
X136310714Y-99655238D01*
X136358333Y-99750476D01*
X136453571Y-99798095D01*
X136977380Y-99798095D01*
X136453571Y-100607619D02*
X136453571Y-100274285D01*
X136977380Y-100274285D02*
X135977380Y-100274285D01*
X135977380Y-100750476D01*
%TO.C,C2*%
X133167380Y-115133571D02*
X133167380Y-114562142D01*
X133167380Y-114847857D02*
X132167380Y-114847857D01*
X132310238Y-114752619D01*
X132405476Y-114657380D01*
X132453095Y-114562142D01*
X132167380Y-115752619D02*
X132167380Y-115847857D01*
X132215000Y-115943095D01*
X132262619Y-115990714D01*
X132357857Y-116038333D01*
X132548333Y-116085952D01*
X132786428Y-116085952D01*
X132976904Y-116038333D01*
X133072142Y-115990714D01*
X133119761Y-115943095D01*
X133167380Y-115847857D01*
X133167380Y-115752619D01*
X133119761Y-115657380D01*
X133072142Y-115609761D01*
X132976904Y-115562142D01*
X132786428Y-115514523D01*
X132548333Y-115514523D01*
X132357857Y-115562142D01*
X132262619Y-115609761D01*
X132215000Y-115657380D01*
X132167380Y-115752619D01*
X132500714Y-116514523D02*
X133167380Y-116514523D01*
X132595952Y-116514523D02*
X132548333Y-116562142D01*
X132500714Y-116657380D01*
X132500714Y-116800238D01*
X132548333Y-116895476D01*
X132643571Y-116943095D01*
X133167380Y-116943095D01*
X132643571Y-117752619D02*
X132643571Y-117419285D01*
X133167380Y-117419285D02*
X132167380Y-117419285D01*
X132167380Y-117895476D01*
%TO.C,C6*%
X135072380Y-130849761D02*
X135072380Y-130278333D01*
X135072380Y-130564047D02*
X134072380Y-130564047D01*
X134215238Y-130468809D01*
X134310476Y-130373571D01*
X134358095Y-130278333D01*
X134405714Y-131706904D02*
X135072380Y-131706904D01*
X134405714Y-131278333D02*
X134929523Y-131278333D01*
X135024761Y-131325952D01*
X135072380Y-131421190D01*
X135072380Y-131564047D01*
X135024761Y-131659285D01*
X134977142Y-131706904D01*
X134548571Y-132516428D02*
X134548571Y-132183095D01*
X135072380Y-132183095D02*
X134072380Y-132183095D01*
X134072380Y-132659285D01*
%TD*%
M02*
