%TF.GenerationSoftware,KiCad,Pcbnew,(5.1.8)-1*%
%TF.CreationDate,2021-11-30T19:47:22+01:00*%
%TF.ProjectId,BE6502 Clock,42453635-3032-4204-936c-6f636b2e6b69,rev?*%
%TF.SameCoordinates,Original*%
%TF.FileFunction,Copper,L1,Top*%
%TF.FilePolarity,Positive*%
%FSLAX46Y46*%
G04 Gerber Fmt 4.6, Leading zero omitted, Abs format (unit mm)*
G04 Created by KiCad (PCBNEW (5.1.8)-1) date 2021-11-30 19:47:22*
%MOMM*%
%LPD*%
G01*
G04 APERTURE LIST*
%TA.AperFunction,ComponentPad*%
%ADD10C,5.000000*%
%TD*%
%TA.AperFunction,ComponentPad*%
%ADD11C,1.600000*%
%TD*%
%TA.AperFunction,ComponentPad*%
%ADD12O,1.600000X1.600000*%
%TD*%
%TA.AperFunction,ComponentPad*%
%ADD13R,1.800000X1.800000*%
%TD*%
%TA.AperFunction,ComponentPad*%
%ADD14C,1.800000*%
%TD*%
%TA.AperFunction,ComponentPad*%
%ADD15C,1.440000*%
%TD*%
%TA.AperFunction,ComponentPad*%
%ADD16C,2.000000*%
%TD*%
%TA.AperFunction,ComponentPad*%
%ADD17R,2.400000X1.600000*%
%TD*%
%TA.AperFunction,ComponentPad*%
%ADD18O,2.400000X1.600000*%
%TD*%
%TA.AperFunction,ComponentPad*%
%ADD19R,1.200000X1.200000*%
%TD*%
%TA.AperFunction,ComponentPad*%
%ADD20C,1.200000*%
%TD*%
%TA.AperFunction,ComponentPad*%
%ADD21R,1.700000X1.700000*%
%TD*%
%TA.AperFunction,ComponentPad*%
%ADD22O,1.700000X1.700000*%
%TD*%
%TA.AperFunction,ComponentPad*%
%ADD23C,1.524000*%
%TD*%
%TA.AperFunction,ComponentPad*%
%ADD24R,1.524000X1.524000*%
%TD*%
%TA.AperFunction,ViaPad*%
%ADD25C,0.600000*%
%TD*%
%TA.AperFunction,Conductor*%
%ADD26C,0.250000*%
%TD*%
G04 APERTURE END LIST*
D10*
%TO.P,M1,1*%
%TO.N,N/C*%
X167005000Y-149225000D03*
%TD*%
%TO.P,M2,1*%
%TO.N,N/C*%
X128905000Y-149225000D03*
%TD*%
%TO.P,M3,1*%
%TO.N,N/C*%
X128905000Y-60960000D03*
%TD*%
%TO.P,M4,1*%
%TO.N,N/C*%
X167005000Y-60960000D03*
%TD*%
D11*
%TO.P,C1,1*%
%TO.N,Net-(C1-Pad1)*%
X137160000Y-101600000D03*
%TO.P,C1,2*%
%TO.N,GND*%
X137160000Y-96600000D03*
%TD*%
%TO.P,C2,1*%
%TO.N,Net-(C2-Pad1)*%
X133350000Y-118745000D03*
%TO.P,C2,2*%
%TO.N,GND*%
X133350000Y-113745000D03*
%TD*%
%TO.P,C3,1*%
%TO.N,Net-(C3-Pad1)*%
X137160000Y-118745000D03*
%TO.P,C3,2*%
%TO.N,GND*%
X137160000Y-113745000D03*
%TD*%
%TO.P,C4,1*%
%TO.N,VCC*%
X147955000Y-66675000D03*
%TO.P,C4,2*%
%TO.N,GND*%
X142955000Y-66675000D03*
%TD*%
%TO.P,C5,1*%
%TO.N,Net-(C5-Pad1)*%
X147955000Y-137160000D03*
%TO.P,C5,2*%
%TO.N,GND*%
X142955000Y-137160000D03*
%TD*%
%TO.P,R1,1*%
%TO.N,VCC*%
X150495000Y-133350000D03*
D12*
%TO.P,R1,2*%
%TO.N,Net-(R1-Pad2)*%
X140335000Y-133350000D03*
%TD*%
D11*
%TO.P,R2,1*%
%TO.N,Net-(R1-Pad2)*%
X150495000Y-129540000D03*
D12*
%TO.P,R2,2*%
%TO.N,Net-(R2-Pad2)*%
X140335000Y-129540000D03*
%TD*%
D11*
%TO.P,R3,1*%
%TO.N,VCC*%
X150495000Y-114300000D03*
D12*
%TO.P,R3,2*%
%TO.N,Net-(C8-Pad1)*%
X140335000Y-114300000D03*
%TD*%
D11*
%TO.P,R6,1*%
%TO.N,VCC*%
X140335000Y-100965000D03*
D12*
%TO.P,R6,2*%
%TO.N,Net-(R6-Pad2)*%
X150495000Y-100965000D03*
%TD*%
D11*
%TO.P,R7,1*%
%TO.N,Net-(D1-Pad2)*%
X153035000Y-75565000D03*
D12*
%TO.P,R7,2*%
%TO.N,CLOCK_OUT*%
X153035000Y-85725000D03*
%TD*%
D13*
%TO.P,D1,1*%
%TO.N,GND*%
X131699000Y-70485000D03*
D14*
%TO.P,D1,2*%
%TO.N,Net-(D1-Pad2)*%
X131699000Y-67945000D03*
%TD*%
D11*
%TO.P,R4,1*%
%TO.N,VCC*%
X150495000Y-118110000D03*
D12*
%TO.P,R4,2*%
%TO.N,Net-(C3-Pad1)*%
X140335000Y-118110000D03*
%TD*%
D11*
%TO.P,R5,1*%
%TO.N,VCC*%
X140335000Y-97155000D03*
D12*
%TO.P,R5,2*%
%TO.N,Net-(R5-Pad2)*%
X150495000Y-97155000D03*
%TD*%
D15*
%TO.P,RV1,1*%
%TO.N,Net-(C6-Pad1)*%
X129540000Y-130810000D03*
%TO.P,RV1,2*%
%TO.N,Net-(R2-Pad2)*%
X129540000Y-133350000D03*
%TO.P,RV1,3*%
%TO.N,N/C*%
X129540000Y-135890000D03*
%TD*%
D16*
%TO.P,SW1,2*%
%TO.N,Net-(C8-Pad1)*%
X158369000Y-147011000D03*
%TO.P,SW1,1*%
%TO.N,GND*%
X158369000Y-151511000D03*
%TO.P,SW1,2*%
%TO.N,Net-(C8-Pad1)*%
X151869000Y-147011000D03*
%TO.P,SW1,1*%
%TO.N,GND*%
X151869000Y-151511000D03*
%TD*%
D17*
%TO.P,U5,1*%
%TO.N,Net-(U1-Pad3)*%
X141605000Y-70485000D03*
D18*
%TO.P,U5,8*%
%TO.N,CLOCK_OUT*%
X149225000Y-85725000D03*
%TO.P,U5,2*%
%TO.N,Net-(U3-Pad3)*%
X141605000Y-73025000D03*
%TO.P,U5,9*%
%TO.N,VCC*%
X149225000Y-83185000D03*
%TO.P,U5,3*%
%TO.N,Net-(U4-Pad1)*%
X141605000Y-75565000D03*
%TO.P,U5,10*%
%TO.N,Net-(U4-Pad8)*%
X149225000Y-80645000D03*
%TO.P,U5,4*%
%TO.N,Net-(U4-Pad11)*%
X141605000Y-78105000D03*
%TO.P,U5,11*%
%TO.N,N/C*%
X149225000Y-78105000D03*
%TO.P,U5,5*%
%TO.N,Net-(U2-Pad3)*%
X141605000Y-80645000D03*
%TO.P,U5,12*%
%TO.N,GND*%
X149225000Y-75565000D03*
%TO.P,U5,6*%
%TO.N,Net-(U4-Pad4)*%
X141605000Y-83185000D03*
%TO.P,U5,13*%
%TO.N,GND*%
X149225000Y-73025000D03*
%TO.P,U5,7*%
X141605000Y-85725000D03*
%TO.P,U5,14*%
%TO.N,VCC*%
X149225000Y-70485000D03*
%TD*%
D19*
%TO.P,C6,1*%
%TO.N,Net-(C6-Pad1)*%
X135890000Y-130810000D03*
D20*
%TO.P,C6,2*%
%TO.N,GND*%
X135890000Y-132810000D03*
%TD*%
D11*
%TO.P,C7,1*%
%TO.N,VCC*%
X163195000Y-66675000D03*
%TO.P,C7,2*%
%TO.N,GND*%
X158195000Y-66675000D03*
%TD*%
D21*
%TO.P,J1,1*%
%TO.N,GND*%
X132715000Y-85725000D03*
D22*
%TO.P,J1,2*%
%TO.N,CLOCK_OUT*%
X132715000Y-83185000D03*
%TO.P,J1,3*%
%TO.N,N/C*%
X132715000Y-80645000D03*
%TO.P,J1,4*%
%TO.N,VCC*%
X132715000Y-78105000D03*
%TD*%
D17*
%TO.P,U1,1*%
%TO.N,GND*%
X156845000Y-129540000D03*
D18*
%TO.P,U1,5*%
%TO.N,Net-(C5-Pad1)*%
X164465000Y-137160000D03*
%TO.P,U1,2*%
%TO.N,Net-(C6-Pad1)*%
X156845000Y-132080000D03*
%TO.P,U1,6*%
X164465000Y-134620000D03*
%TO.P,U1,3*%
%TO.N,Net-(U1-Pad3)*%
X156845000Y-134620000D03*
%TO.P,U1,7*%
%TO.N,Net-(R1-Pad2)*%
X164465000Y-132080000D03*
%TO.P,U1,4*%
%TO.N,VCC*%
X156845000Y-137160000D03*
%TO.P,U1,8*%
X164465000Y-129540000D03*
%TD*%
D17*
%TO.P,U2,1*%
%TO.N,GND*%
X156845000Y-112395000D03*
D18*
%TO.P,U2,5*%
%TO.N,Net-(C2-Pad1)*%
X164465000Y-120015000D03*
%TO.P,U2,2*%
%TO.N,Net-(C8-Pad1)*%
X156845000Y-114935000D03*
%TO.P,U2,6*%
%TO.N,Net-(C3-Pad1)*%
X164465000Y-117475000D03*
%TO.P,U2,3*%
%TO.N,Net-(U2-Pad3)*%
X156845000Y-117475000D03*
%TO.P,U2,7*%
%TO.N,Net-(C3-Pad1)*%
X164465000Y-114935000D03*
%TO.P,U2,4*%
%TO.N,VCC*%
X156845000Y-120015000D03*
%TO.P,U2,8*%
X164465000Y-112395000D03*
%TD*%
D17*
%TO.P,U3,1*%
%TO.N,GND*%
X156845000Y-95250000D03*
D18*
%TO.P,U3,5*%
%TO.N,Net-(C1-Pad1)*%
X164465000Y-102870000D03*
%TO.P,U3,2*%
%TO.N,Net-(R5-Pad2)*%
X156845000Y-97790000D03*
%TO.P,U3,6*%
%TO.N,GND*%
X164465000Y-100330000D03*
%TO.P,U3,3*%
%TO.N,Net-(U3-Pad3)*%
X156845000Y-100330000D03*
%TO.P,U3,7*%
%TO.N,N/C*%
X164465000Y-97790000D03*
%TO.P,U3,4*%
%TO.N,Net-(R6-Pad2)*%
X156845000Y-102870000D03*
%TO.P,U3,8*%
%TO.N,VCC*%
X164465000Y-95250000D03*
%TD*%
D17*
%TO.P,U4,1*%
%TO.N,Net-(U4-Pad1)*%
X156845000Y-70485000D03*
D18*
%TO.P,U4,8*%
%TO.N,Net-(U4-Pad8)*%
X164465000Y-85725000D03*
%TO.P,U4,2*%
%TO.N,Net-(U4-Pad1)*%
X156845000Y-73025000D03*
%TO.P,U4,9*%
%TO.N,Net-(U4-Pad3)*%
X164465000Y-83185000D03*
%TO.P,U4,3*%
X156845000Y-75565000D03*
%TO.P,U4,10*%
%TO.N,Net-(U4-Pad10)*%
X164465000Y-80645000D03*
%TO.P,U4,4*%
%TO.N,Net-(U4-Pad4)*%
X156845000Y-78105000D03*
%TO.P,U4,11*%
%TO.N,Net-(U4-Pad11)*%
X164465000Y-78105000D03*
%TO.P,U4,5*%
%TO.N,Net-(U4-Pad4)*%
X156845000Y-80645000D03*
%TO.P,U4,12*%
%TO.N,Net-(U3-Pad3)*%
X164465000Y-75565000D03*
%TO.P,U4,6*%
%TO.N,Net-(U4-Pad10)*%
X156845000Y-83185000D03*
%TO.P,U4,13*%
%TO.N,Net-(U3-Pad3)*%
X164465000Y-73025000D03*
%TO.P,U4,7*%
%TO.N,GND*%
X156845000Y-85725000D03*
%TO.P,U4,14*%
%TO.N,VCC*%
X164465000Y-70485000D03*
%TD*%
D23*
%TO.P,SW2,3*%
%TO.N,Net-(R6-Pad2)*%
X137864000Y-146685000D03*
%TO.P,SW2,2*%
%TO.N,GND*%
X137864000Y-149225000D03*
D24*
%TO.P,SW2,1*%
%TO.N,Net-(R5-Pad2)*%
X137864000Y-151765000D03*
D23*
%TO.P,SW2,4*%
%TO.N,N/C*%
X143314000Y-151765000D03*
%TO.P,SW2,5*%
X143314000Y-149225000D03*
%TO.P,SW2,6*%
X143314000Y-146685000D03*
%TD*%
D11*
%TO.P,C8,1*%
%TO.N,Net-(C8-Pad1)*%
X129540000Y-118745000D03*
%TO.P,C8,2*%
%TO.N,GND*%
X129540000Y-113745000D03*
%TD*%
D25*
%TO.N,VCC*%
X151130000Y-127000000D03*
X151765000Y-131445000D03*
%TO.N,Net-(D1-Pad2)*%
X153035000Y-68580000D03*
%TO.N,Net-(C6-Pad1)*%
X154305000Y-127635000D03*
X136525000Y-127635000D03*
X135890000Y-128905000D03*
%TO.N,Net-(R5-Pad2)*%
X125730000Y-145415000D03*
X127635000Y-98425000D03*
%TO.N,Net-(R6-Pad2)*%
X126365000Y-144780000D03*
X128270000Y-99060000D03*
%TO.N,Net-(U1-Pad3)*%
X169545000Y-69850000D03*
X169545000Y-135255000D03*
%TO.N,Net-(U2-Pad3)*%
X151765000Y-82550000D03*
X168910000Y-118110000D03*
X151765000Y-80010000D03*
X168275000Y-85090000D03*
%TO.N,Net-(U3-Pad3)*%
X168910000Y-76200000D03*
X168910000Y-98425000D03*
%TO.N,Net-(U4-Pad8)*%
X166370000Y-81915000D03*
%TO.N,Net-(C8-Pad1)*%
X170180000Y-144780000D03*
X170180000Y-114300000D03*
%TD*%
D26*
%TO.N,VCC*%
X132715000Y-78105000D02*
X129540000Y-78105000D01*
X129540000Y-78105000D02*
X127000000Y-78105000D01*
X151765000Y-132715000D02*
X151765000Y-136525000D01*
X151765000Y-136525000D02*
X152400000Y-137160000D01*
X150495000Y-118110000D02*
X150495000Y-119380000D01*
X151130000Y-120015000D02*
X156845000Y-120015000D01*
X150495000Y-119380000D02*
X151130000Y-120015000D01*
X150495000Y-114300000D02*
X150495000Y-111125000D01*
X150495000Y-111125000D02*
X149860000Y-110490000D01*
X150495000Y-133350000D02*
X151130000Y-133350000D01*
X151130000Y-133350000D02*
X151765000Y-132715000D01*
X151765000Y-132715000D02*
X151765000Y-131445000D01*
X152400000Y-137160000D02*
X156845000Y-137160000D01*
X127000000Y-126365000D02*
X127635000Y-127000000D01*
X164465000Y-127635000D02*
X164465000Y-128270000D01*
X163830000Y-127000000D02*
X164465000Y-127635000D01*
X127635000Y-127000000D02*
X151130000Y-127000000D01*
X151130000Y-127000000D02*
X163830000Y-127000000D01*
X147955000Y-66675000D02*
X147955000Y-65405000D01*
X147955000Y-65405000D02*
X147320000Y-64770000D01*
X139065000Y-64770000D02*
X147320000Y-64770000D01*
X127000000Y-78105000D02*
X127000000Y-65405000D01*
X127635000Y-64770000D02*
X139065000Y-64770000D01*
X127000000Y-65405000D02*
X127635000Y-64770000D01*
X147320000Y-64770000D02*
X162560000Y-64770000D01*
X162560000Y-64770000D02*
X163195000Y-65405000D01*
X163195000Y-65405000D02*
X163195000Y-66675000D01*
X127000000Y-78105000D02*
X127000000Y-80645000D01*
X164465000Y-129540000D02*
X164465000Y-128270000D01*
X127000000Y-126365000D02*
X127000000Y-109855000D01*
X127635000Y-110490000D02*
X127000000Y-109855000D01*
X149860000Y-110490000D02*
X127635000Y-110490000D01*
X164465000Y-111125000D02*
X163830000Y-110490000D01*
X164465000Y-112395000D02*
X164465000Y-111125000D01*
X163830000Y-110490000D02*
X149860000Y-110490000D01*
X127000000Y-109855000D02*
X127000000Y-92710000D01*
X140335000Y-97155000D02*
X140335000Y-93980000D01*
X140335000Y-93980000D02*
X139700000Y-93345000D01*
X149860000Y-93345000D02*
X139700000Y-93345000D01*
X164465000Y-95250000D02*
X164465000Y-93980000D01*
X163830000Y-93345000D02*
X149860000Y-93345000D01*
X164465000Y-93980000D02*
X163830000Y-93345000D01*
X139700000Y-93345000D02*
X127635000Y-93345000D01*
X127000000Y-80645000D02*
X127000000Y-92710000D01*
X127635000Y-93345000D02*
X127000000Y-92710000D01*
%TO.N,Net-(D1-Pad2)*%
X131699000Y-67945000D02*
X152400000Y-67945000D01*
X152400000Y-67945000D02*
X153035000Y-68580000D01*
%TO.N,Net-(C1-Pad1)*%
X137160000Y-101600000D02*
X137160000Y-103505000D01*
X164465000Y-104140000D02*
X164465000Y-102870000D01*
X163830000Y-104775000D02*
X164465000Y-104140000D01*
X137795000Y-104775000D02*
X163830000Y-104775000D01*
X137160000Y-104140000D02*
X137795000Y-104775000D01*
X137160000Y-103505000D02*
X137160000Y-104140000D01*
%TO.N,Net-(C2-Pad1)*%
X164465000Y-120015000D02*
X159385000Y-120015000D01*
X159385000Y-120015000D02*
X158115000Y-118745000D01*
X133350000Y-118745000D02*
X133350000Y-119380000D01*
X133350000Y-119380000D02*
X133985000Y-120015000D01*
X153035000Y-118745000D02*
X158115000Y-118745000D01*
X151130000Y-116840000D02*
X153035000Y-118745000D01*
X142875000Y-116840000D02*
X151130000Y-116840000D01*
X142240000Y-117475000D02*
X142875000Y-116840000D01*
X142240000Y-119380000D02*
X142240000Y-117475000D01*
X141605000Y-120015000D02*
X142240000Y-119380000D01*
X133985000Y-120015000D02*
X141605000Y-120015000D01*
%TO.N,Net-(C3-Pad1)*%
X158115000Y-116205000D02*
X163195000Y-116205000D01*
X163195000Y-116205000D02*
X164465000Y-117475000D01*
X140335000Y-116840000D02*
X140335000Y-118110000D01*
X140970000Y-116205000D02*
X140335000Y-116840000D01*
X158115000Y-116205000D02*
X140970000Y-116205000D01*
X137160000Y-118745000D02*
X139700000Y-118745000D01*
X139700000Y-118745000D02*
X140335000Y-118110000D01*
%TO.N,Net-(C5-Pad1)*%
X164465000Y-137160000D02*
X164465000Y-138430000D01*
X147955000Y-138430000D02*
X147955000Y-137160000D01*
X148590000Y-139065000D02*
X147955000Y-138430000D01*
X163830000Y-139065000D02*
X148590000Y-139065000D01*
X164465000Y-138430000D02*
X163830000Y-139065000D01*
%TO.N,Net-(C6-Pad1)*%
X164465000Y-134620000D02*
X160655000Y-134620000D01*
X160655000Y-134620000D02*
X158750000Y-132715000D01*
X158115000Y-132080000D02*
X156845000Y-132080000D01*
X158750000Y-132715000D02*
X158115000Y-132080000D01*
X135890000Y-130810000D02*
X135890000Y-128905000D01*
X129540000Y-130810000D02*
X129540000Y-128270000D01*
X136525000Y-127635000D02*
X154305000Y-127635000D01*
X130175000Y-127635000D02*
X136525000Y-127635000D01*
X129540000Y-128270000D02*
X130175000Y-127635000D01*
%TO.N,CLOCK_OUT*%
X132715000Y-83185000D02*
X133985000Y-83185000D01*
X142875000Y-84455000D02*
X135255000Y-84455000D01*
X135255000Y-84455000D02*
X133985000Y-83185000D01*
X147955000Y-85725000D02*
X149225000Y-85725000D01*
X146685000Y-84455000D02*
X147955000Y-85725000D01*
X142875000Y-84455000D02*
X146685000Y-84455000D01*
X153035000Y-85725000D02*
X149225000Y-85725000D01*
%TO.N,Net-(R1-Pad2)*%
X140970000Y-130810000D02*
X140335000Y-131445000D01*
X150495000Y-129540000D02*
X150495000Y-130175000D01*
X150495000Y-130175000D02*
X151130000Y-130810000D01*
X160020000Y-132080000D02*
X159385000Y-132080000D01*
X159385000Y-132080000D02*
X158115000Y-130810000D01*
X160020000Y-132080000D02*
X164465000Y-132080000D01*
X158115000Y-130810000D02*
X154940000Y-130810000D01*
X163830000Y-131445000D02*
X164465000Y-132080000D01*
X140335000Y-133350000D02*
X140335000Y-131445000D01*
X140970000Y-130810000D02*
X151130000Y-130810000D01*
X151130000Y-130810000D02*
X152400000Y-130810000D01*
X152400000Y-130810000D02*
X154940000Y-130810000D01*
%TO.N,Net-(R5-Pad2)*%
X156845000Y-97790000D02*
X152400000Y-97790000D01*
X152400000Y-97790000D02*
X151765000Y-98425000D01*
X135255000Y-98425000D02*
X127635000Y-98425000D01*
X132715000Y-147320000D02*
X131445000Y-146050000D01*
X131445000Y-146050000D02*
X127000000Y-146050000D01*
X133350000Y-151765000D02*
X132715000Y-151130000D01*
X132715000Y-151130000D02*
X132715000Y-147320000D01*
X137864000Y-151765000D02*
X133350000Y-151765000D01*
X126365000Y-146050000D02*
X125730000Y-145415000D01*
X127000000Y-146050000D02*
X126365000Y-146050000D01*
X135255000Y-98425000D02*
X149860000Y-98425000D01*
X149860000Y-98425000D02*
X151765000Y-98425000D01*
X156210000Y-98425000D02*
X156845000Y-97790000D01*
X150495000Y-97155000D02*
X150495000Y-97790000D01*
X150495000Y-97790000D02*
X149860000Y-98425000D01*
%TO.N,Net-(R6-Pad2)*%
X127635000Y-145415000D02*
X127000000Y-145415000D01*
X132080000Y-145415000D02*
X127635000Y-145415000D01*
X137864000Y-146685000D02*
X134620000Y-146685000D01*
X133350000Y-146685000D02*
X132080000Y-145415000D01*
X134620000Y-146685000D02*
X133350000Y-146685000D01*
X127000000Y-145415000D02*
X126365000Y-144780000D01*
X150495000Y-99695000D02*
X150495000Y-100965000D01*
X149860000Y-99060000D02*
X150495000Y-99695000D01*
X128270000Y-99060000D02*
X149860000Y-99060000D01*
X156845000Y-102870000D02*
X151130000Y-102870000D01*
X150495000Y-102235000D02*
X150495000Y-100965000D01*
X151130000Y-102870000D02*
X150495000Y-102235000D01*
%TO.N,Net-(U1-Pad3)*%
X141605000Y-70485000D02*
X141605000Y-69850000D01*
X141605000Y-69850000D02*
X142240000Y-69215000D01*
X142240000Y-69215000D02*
X168910000Y-69215000D01*
X168910000Y-69215000D02*
X169545000Y-69850000D01*
X167005000Y-135890000D02*
X168910000Y-135890000D01*
X158115000Y-135890000D02*
X167005000Y-135890000D01*
X156845000Y-134620000D02*
X158115000Y-135890000D01*
X168910000Y-135890000D02*
X169545000Y-135255000D01*
%TO.N,Net-(U2-Pad3)*%
X154305000Y-84455000D02*
X152400000Y-84455000D01*
X151765000Y-83820000D02*
X151765000Y-82550000D01*
X152400000Y-84455000D02*
X151765000Y-83820000D01*
X161925000Y-84455000D02*
X167640000Y-84455000D01*
X158115000Y-117475000D02*
X159385000Y-118745000D01*
X159385000Y-118745000D02*
X168275000Y-118745000D01*
X168275000Y-118745000D02*
X168910000Y-118110000D01*
X156845000Y-117475000D02*
X158115000Y-117475000D01*
X146685000Y-80645000D02*
X147955000Y-79375000D01*
X146685000Y-80645000D02*
X141605000Y-80645000D01*
X151130000Y-79375000D02*
X151765000Y-80010000D01*
X147955000Y-79375000D02*
X151130000Y-79375000D01*
X154305000Y-84455000D02*
X161925000Y-84455000D01*
X167640000Y-84455000D02*
X168275000Y-85090000D01*
%TO.N,Net-(U3-Pad3)*%
X168275000Y-75565000D02*
X164465000Y-75565000D01*
X168910000Y-76200000D02*
X168275000Y-75565000D01*
X156845000Y-100330000D02*
X158115000Y-99060000D01*
X168275000Y-99060000D02*
X168910000Y-98425000D01*
X158115000Y-99060000D02*
X168275000Y-99060000D01*
X151765000Y-71755000D02*
X163195000Y-71755000D01*
X142875000Y-71755000D02*
X151765000Y-71755000D01*
X141605000Y-73025000D02*
X142875000Y-71755000D01*
X163195000Y-71755000D02*
X164465000Y-73025000D01*
X164465000Y-75565000D02*
X164465000Y-73025000D01*
%TO.N,Net-(U4-Pad1)*%
X151765000Y-74295000D02*
X155575000Y-74295000D01*
X142875000Y-74295000D02*
X151765000Y-74295000D01*
X141605000Y-75565000D02*
X142875000Y-74295000D01*
X155575000Y-74295000D02*
X156845000Y-73025000D01*
%TO.N,Net-(U4-Pad8)*%
X158115000Y-79375000D02*
X165735000Y-79375000D01*
X166370000Y-80010000D02*
X166370000Y-81915000D01*
X165735000Y-79375000D02*
X166370000Y-80010000D01*
X149225000Y-80645000D02*
X154305000Y-80645000D01*
X154305000Y-80645000D02*
X155575000Y-79375000D01*
X158115000Y-79375000D02*
X155575000Y-79375000D01*
X149860000Y-80645000D02*
X149225000Y-80645000D01*
%TO.N,Net-(U4-Pad3)*%
X165735000Y-76835000D02*
X166370000Y-76835000D01*
X166370000Y-83185000D02*
X165735000Y-83185000D01*
X167005000Y-82550000D02*
X166370000Y-83185000D01*
X167005000Y-77470000D02*
X167005000Y-82550000D01*
X166370000Y-76835000D02*
X167005000Y-77470000D01*
X156845000Y-75565000D02*
X158115000Y-75565000D01*
X165735000Y-83185000D02*
X164465000Y-83185000D01*
X159385000Y-76835000D02*
X165735000Y-76835000D01*
X158115000Y-75565000D02*
X159385000Y-76835000D01*
%TO.N,Net-(U4-Pad10)*%
X160020000Y-80645000D02*
X159385000Y-80645000D01*
X159385000Y-80645000D02*
X156845000Y-83185000D01*
X164465000Y-80645000D02*
X160020000Y-80645000D01*
X164465000Y-80645000D02*
X163830000Y-80645000D01*
%TO.N,Net-(U4-Pad4)*%
X141605000Y-83185000D02*
X146685000Y-83185000D01*
X146685000Y-83185000D02*
X147955000Y-81915000D01*
X156845000Y-80645000D02*
X155575000Y-80645000D01*
X155575000Y-80645000D02*
X154305000Y-81915000D01*
X147955000Y-81915000D02*
X154305000Y-81915000D01*
%TO.N,Net-(U4-Pad11)*%
X160020000Y-78105000D02*
X159385000Y-78105000D01*
X159385000Y-78105000D02*
X158115000Y-76835000D01*
X164465000Y-78105000D02*
X160020000Y-78105000D01*
X141605000Y-78105000D02*
X142875000Y-76835000D01*
X142875000Y-76835000D02*
X158115000Y-76835000D01*
%TO.N,Net-(R2-Pad2)*%
X138430000Y-128270000D02*
X139700000Y-128270000D01*
X131445000Y-133350000D02*
X132080000Y-132715000D01*
X129540000Y-133350000D02*
X131445000Y-133350000D01*
X132080000Y-132715000D02*
X132080000Y-128905000D01*
X132080000Y-128905000D02*
X132715000Y-128270000D01*
X132715000Y-128270000D02*
X138430000Y-128270000D01*
X139700000Y-128270000D02*
X140335000Y-128905000D01*
X140335000Y-128905000D02*
X140335000Y-129540000D01*
%TO.N,Net-(C8-Pad1)*%
X129540000Y-118745000D02*
X129540000Y-116205000D01*
X130175000Y-115570000D02*
X140970000Y-115570000D01*
X129540000Y-116205000D02*
X130175000Y-115570000D01*
X156845000Y-114935000D02*
X161925000Y-114935000D01*
X161925000Y-114935000D02*
X163195000Y-113665000D01*
X168275000Y-145415000D02*
X169545000Y-145415000D01*
X168275000Y-113665000D02*
X163195000Y-113665000D01*
X158424000Y-147011000D02*
X160020000Y-145415000D01*
X160020000Y-145415000D02*
X168275000Y-145415000D01*
X169545000Y-145415000D02*
X170180000Y-144780000D01*
X170180000Y-114300000D02*
X169545000Y-113665000D01*
X169545000Y-113665000D02*
X168275000Y-113665000D01*
X156845000Y-114935000D02*
X152400000Y-114935000D01*
X140970000Y-115570000D02*
X140335000Y-114935000D01*
X151765000Y-115570000D02*
X140970000Y-115570000D01*
X152400000Y-114935000D02*
X151765000Y-115570000D01*
X140335000Y-114935000D02*
X140335000Y-114300000D01*
X158369000Y-147011000D02*
X158424000Y-147011000D01*
X151869000Y-147011000D02*
X158369000Y-147011000D01*
%TD*%
M02*
