G04 #@! TF.FileFunction,Legend,Top*
%FSLAX46Y46*%
G04 Gerber Fmt 4.6, Leading zero omitted, Abs format (unit mm)*
G04 Created by KiCad (PCBNEW 4.0.7) date 11/28/19 15:58:00*
%MOMM*%
%LPD*%
G01*
G04 APERTURE LIST*
%ADD10C,0.100000*%
%ADD11C,0.150000*%
%ADD12C,0.300000*%
%ADD13C,0.200000*%
%ADD14C,0.120000*%
G04 APERTURE END LIST*
D10*
D11*
X195413333Y-78295476D02*
X195413333Y-78771667D01*
X195127619Y-78200238D02*
X196127619Y-78533571D01*
X195127619Y-78866905D01*
X195127619Y-79724048D02*
X195127619Y-79152619D01*
X195127619Y-79438333D02*
X196127619Y-79438333D01*
X195984762Y-79343095D01*
X195889524Y-79247857D01*
X195841905Y-79152619D01*
X195794286Y-80581191D02*
X195127619Y-80581191D01*
X196175238Y-80343095D02*
X195460952Y-80105000D01*
X195460952Y-80724048D01*
X192873333Y-78295476D02*
X192873333Y-78771667D01*
X192587619Y-78200238D02*
X193587619Y-78533571D01*
X192587619Y-78866905D01*
X192587619Y-79724048D02*
X192587619Y-79152619D01*
X192587619Y-79438333D02*
X193587619Y-79438333D01*
X193444762Y-79343095D01*
X193349524Y-79247857D01*
X193301905Y-79152619D01*
X193587619Y-80057381D02*
X193587619Y-80676429D01*
X193206667Y-80343095D01*
X193206667Y-80485953D01*
X193159048Y-80581191D01*
X193111429Y-80628810D01*
X193016190Y-80676429D01*
X192778095Y-80676429D01*
X192682857Y-80628810D01*
X192635238Y-80581191D01*
X192587619Y-80485953D01*
X192587619Y-80200238D01*
X192635238Y-80105000D01*
X192682857Y-80057381D01*
X190333333Y-78295476D02*
X190333333Y-78771667D01*
X190047619Y-78200238D02*
X191047619Y-78533571D01*
X190047619Y-78866905D01*
X190047619Y-79724048D02*
X190047619Y-79152619D01*
X190047619Y-79438333D02*
X191047619Y-79438333D01*
X190904762Y-79343095D01*
X190809524Y-79247857D01*
X190761905Y-79152619D01*
X190952381Y-80105000D02*
X191000000Y-80152619D01*
X191047619Y-80247857D01*
X191047619Y-80485953D01*
X191000000Y-80581191D01*
X190952381Y-80628810D01*
X190857143Y-80676429D01*
X190761905Y-80676429D01*
X190619048Y-80628810D01*
X190047619Y-80057381D01*
X190047619Y-80676429D01*
X187793333Y-78295476D02*
X187793333Y-78771667D01*
X187507619Y-78200238D02*
X188507619Y-78533571D01*
X187507619Y-78866905D01*
X187507619Y-79724048D02*
X187507619Y-79152619D01*
X187507619Y-79438333D02*
X188507619Y-79438333D01*
X188364762Y-79343095D01*
X188269524Y-79247857D01*
X188221905Y-79152619D01*
X187507619Y-80676429D02*
X187507619Y-80105000D01*
X187507619Y-80390714D02*
X188507619Y-80390714D01*
X188364762Y-80295476D01*
X188269524Y-80200238D01*
X188221905Y-80105000D01*
X185253333Y-78295476D02*
X185253333Y-78771667D01*
X184967619Y-78200238D02*
X185967619Y-78533571D01*
X184967619Y-78866905D01*
X184967619Y-79724048D02*
X184967619Y-79152619D01*
X184967619Y-79438333D02*
X185967619Y-79438333D01*
X185824762Y-79343095D01*
X185729524Y-79247857D01*
X185681905Y-79152619D01*
X185967619Y-80343095D02*
X185967619Y-80438334D01*
X185920000Y-80533572D01*
X185872381Y-80581191D01*
X185777143Y-80628810D01*
X185586667Y-80676429D01*
X185348571Y-80676429D01*
X185158095Y-80628810D01*
X185062857Y-80581191D01*
X185015238Y-80533572D01*
X184967619Y-80438334D01*
X184967619Y-80343095D01*
X185015238Y-80247857D01*
X185062857Y-80200238D01*
X185158095Y-80152619D01*
X185348571Y-80105000D01*
X185586667Y-80105000D01*
X185777143Y-80152619D01*
X185872381Y-80200238D01*
X185920000Y-80247857D01*
X185967619Y-80343095D01*
X182713333Y-78295476D02*
X182713333Y-78771667D01*
X182427619Y-78200238D02*
X183427619Y-78533571D01*
X182427619Y-78866905D01*
X182427619Y-79247857D02*
X182427619Y-79438333D01*
X182475238Y-79533572D01*
X182522857Y-79581191D01*
X182665714Y-79676429D01*
X182856190Y-79724048D01*
X183237143Y-79724048D01*
X183332381Y-79676429D01*
X183380000Y-79628810D01*
X183427619Y-79533572D01*
X183427619Y-79343095D01*
X183380000Y-79247857D01*
X183332381Y-79200238D01*
X183237143Y-79152619D01*
X182999048Y-79152619D01*
X182903810Y-79200238D01*
X182856190Y-79247857D01*
X182808571Y-79343095D01*
X182808571Y-79533572D01*
X182856190Y-79628810D01*
X182903810Y-79676429D01*
X182999048Y-79724048D01*
X180173333Y-78295476D02*
X180173333Y-78771667D01*
X179887619Y-78200238D02*
X180887619Y-78533571D01*
X179887619Y-78866905D01*
X180459048Y-79343095D02*
X180506667Y-79247857D01*
X180554286Y-79200238D01*
X180649524Y-79152619D01*
X180697143Y-79152619D01*
X180792381Y-79200238D01*
X180840000Y-79247857D01*
X180887619Y-79343095D01*
X180887619Y-79533572D01*
X180840000Y-79628810D01*
X180792381Y-79676429D01*
X180697143Y-79724048D01*
X180649524Y-79724048D01*
X180554286Y-79676429D01*
X180506667Y-79628810D01*
X180459048Y-79533572D01*
X180459048Y-79343095D01*
X180411429Y-79247857D01*
X180363810Y-79200238D01*
X180268571Y-79152619D01*
X180078095Y-79152619D01*
X179982857Y-79200238D01*
X179935238Y-79247857D01*
X179887619Y-79343095D01*
X179887619Y-79533572D01*
X179935238Y-79628810D01*
X179982857Y-79676429D01*
X180078095Y-79724048D01*
X180268571Y-79724048D01*
X180363810Y-79676429D01*
X180411429Y-79628810D01*
X180459048Y-79533572D01*
X177633333Y-78295476D02*
X177633333Y-78771667D01*
X177347619Y-78200238D02*
X178347619Y-78533571D01*
X177347619Y-78866905D01*
X178347619Y-79105000D02*
X178347619Y-79771667D01*
X177347619Y-79343095D01*
X175093333Y-78295476D02*
X175093333Y-78771667D01*
X174807619Y-78200238D02*
X175807619Y-78533571D01*
X174807619Y-78866905D01*
X175807619Y-79628810D02*
X175807619Y-79438333D01*
X175760000Y-79343095D01*
X175712381Y-79295476D01*
X175569524Y-79200238D01*
X175379048Y-79152619D01*
X174998095Y-79152619D01*
X174902857Y-79200238D01*
X174855238Y-79247857D01*
X174807619Y-79343095D01*
X174807619Y-79533572D01*
X174855238Y-79628810D01*
X174902857Y-79676429D01*
X174998095Y-79724048D01*
X175236190Y-79724048D01*
X175331429Y-79676429D01*
X175379048Y-79628810D01*
X175426667Y-79533572D01*
X175426667Y-79343095D01*
X175379048Y-79247857D01*
X175331429Y-79200238D01*
X175236190Y-79152619D01*
X172553333Y-78295476D02*
X172553333Y-78771667D01*
X172267619Y-78200238D02*
X173267619Y-78533571D01*
X172267619Y-78866905D01*
X173267619Y-79676429D02*
X173267619Y-79200238D01*
X172791429Y-79152619D01*
X172839048Y-79200238D01*
X172886667Y-79295476D01*
X172886667Y-79533572D01*
X172839048Y-79628810D01*
X172791429Y-79676429D01*
X172696190Y-79724048D01*
X172458095Y-79724048D01*
X172362857Y-79676429D01*
X172315238Y-79628810D01*
X172267619Y-79533572D01*
X172267619Y-79295476D01*
X172315238Y-79200238D01*
X172362857Y-79152619D01*
X170013333Y-78295476D02*
X170013333Y-78771667D01*
X169727619Y-78200238D02*
X170727619Y-78533571D01*
X169727619Y-78866905D01*
X170394286Y-79628810D02*
X169727619Y-79628810D01*
X170775238Y-79390714D02*
X170060952Y-79152619D01*
X170060952Y-79771667D01*
X167473333Y-78295476D02*
X167473333Y-78771667D01*
X167187619Y-78200238D02*
X168187619Y-78533571D01*
X167187619Y-78866905D01*
X168187619Y-79105000D02*
X168187619Y-79724048D01*
X167806667Y-79390714D01*
X167806667Y-79533572D01*
X167759048Y-79628810D01*
X167711429Y-79676429D01*
X167616190Y-79724048D01*
X167378095Y-79724048D01*
X167282857Y-79676429D01*
X167235238Y-79628810D01*
X167187619Y-79533572D01*
X167187619Y-79247857D01*
X167235238Y-79152619D01*
X167282857Y-79105000D01*
X164933333Y-78295476D02*
X164933333Y-78771667D01*
X164647619Y-78200238D02*
X165647619Y-78533571D01*
X164647619Y-78866905D01*
X165552381Y-79152619D02*
X165600000Y-79200238D01*
X165647619Y-79295476D01*
X165647619Y-79533572D01*
X165600000Y-79628810D01*
X165552381Y-79676429D01*
X165457143Y-79724048D01*
X165361905Y-79724048D01*
X165219048Y-79676429D01*
X164647619Y-79105000D01*
X164647619Y-79724048D01*
X162393333Y-78295476D02*
X162393333Y-78771667D01*
X162107619Y-78200238D02*
X163107619Y-78533571D01*
X162107619Y-78866905D01*
X162107619Y-79724048D02*
X162107619Y-79152619D01*
X162107619Y-79438333D02*
X163107619Y-79438333D01*
X162964762Y-79343095D01*
X162869524Y-79247857D01*
X162821905Y-79152619D01*
X159853333Y-78295476D02*
X159853333Y-78771667D01*
X159567619Y-78200238D02*
X160567619Y-78533571D01*
X159567619Y-78866905D01*
X160567619Y-79390714D02*
X160567619Y-79485953D01*
X160520000Y-79581191D01*
X160472381Y-79628810D01*
X160377143Y-79676429D01*
X160186667Y-79724048D01*
X159948571Y-79724048D01*
X159758095Y-79676429D01*
X159662857Y-79628810D01*
X159615238Y-79581191D01*
X159567619Y-79485953D01*
X159567619Y-79390714D01*
X159615238Y-79295476D01*
X159662857Y-79247857D01*
X159758095Y-79200238D01*
X159948571Y-79152619D01*
X160186667Y-79152619D01*
X160377143Y-79200238D01*
X160472381Y-79247857D01*
X160520000Y-79295476D01*
X160567619Y-79390714D01*
X157980000Y-78866905D02*
X158027619Y-78771667D01*
X158027619Y-78628810D01*
X157980000Y-78485952D01*
X157884762Y-78390714D01*
X157789524Y-78343095D01*
X157599048Y-78295476D01*
X157456190Y-78295476D01*
X157265714Y-78343095D01*
X157170476Y-78390714D01*
X157075238Y-78485952D01*
X157027619Y-78628810D01*
X157027619Y-78724048D01*
X157075238Y-78866905D01*
X157122857Y-78914524D01*
X157456190Y-78914524D01*
X157456190Y-78724048D01*
X157027619Y-79343095D02*
X158027619Y-79343095D01*
X157027619Y-79914524D01*
X158027619Y-79914524D01*
X157027619Y-80390714D02*
X158027619Y-80390714D01*
X158027619Y-80628809D01*
X157980000Y-80771667D01*
X157884762Y-80866905D01*
X157789524Y-80914524D01*
X157599048Y-80962143D01*
X157456190Y-80962143D01*
X157265714Y-80914524D01*
X157170476Y-80866905D01*
X157075238Y-80771667D01*
X157027619Y-80628809D01*
X157027619Y-80390714D01*
X155487619Y-78200238D02*
X154487619Y-78533571D01*
X155487619Y-78866905D01*
X154582857Y-79771667D02*
X154535238Y-79724048D01*
X154487619Y-79581191D01*
X154487619Y-79485953D01*
X154535238Y-79343095D01*
X154630476Y-79247857D01*
X154725714Y-79200238D01*
X154916190Y-79152619D01*
X155059048Y-79152619D01*
X155249524Y-79200238D01*
X155344762Y-79247857D01*
X155440000Y-79343095D01*
X155487619Y-79485953D01*
X155487619Y-79581191D01*
X155440000Y-79724048D01*
X155392381Y-79771667D01*
X154582857Y-80771667D02*
X154535238Y-80724048D01*
X154487619Y-80581191D01*
X154487619Y-80485953D01*
X154535238Y-80343095D01*
X154630476Y-80247857D01*
X154725714Y-80200238D01*
X154916190Y-80152619D01*
X155059048Y-80152619D01*
X155249524Y-80200238D01*
X155344762Y-80247857D01*
X155440000Y-80343095D01*
X155487619Y-80485953D01*
X155487619Y-80581191D01*
X155440000Y-80724048D01*
X155392381Y-80771667D01*
X152042857Y-78914524D02*
X151995238Y-78866905D01*
X151947619Y-78724048D01*
X151947619Y-78628810D01*
X151995238Y-78485952D01*
X152090476Y-78390714D01*
X152185714Y-78343095D01*
X152376190Y-78295476D01*
X152519048Y-78295476D01*
X152709524Y-78343095D01*
X152804762Y-78390714D01*
X152900000Y-78485952D01*
X152947619Y-78628810D01*
X152947619Y-78724048D01*
X152900000Y-78866905D01*
X152852381Y-78914524D01*
X151947619Y-79819286D02*
X151947619Y-79343095D01*
X152947619Y-79343095D01*
X152947619Y-80343095D02*
X152947619Y-80533572D01*
X152900000Y-80628810D01*
X152804762Y-80724048D01*
X152614286Y-80771667D01*
X152280952Y-80771667D01*
X152090476Y-80724048D01*
X151995238Y-80628810D01*
X151947619Y-80533572D01*
X151947619Y-80343095D01*
X151995238Y-80247857D01*
X152090476Y-80152619D01*
X152280952Y-80105000D01*
X152614286Y-80105000D01*
X152804762Y-80152619D01*
X152900000Y-80247857D01*
X152947619Y-80343095D01*
X152042857Y-81771667D02*
X151995238Y-81724048D01*
X151947619Y-81581191D01*
X151947619Y-81485953D01*
X151995238Y-81343095D01*
X152090476Y-81247857D01*
X152185714Y-81200238D01*
X152376190Y-81152619D01*
X152519048Y-81152619D01*
X152709524Y-81200238D01*
X152804762Y-81247857D01*
X152900000Y-81343095D01*
X152947619Y-81485953D01*
X152947619Y-81581191D01*
X152900000Y-81724048D01*
X152852381Y-81771667D01*
X151947619Y-82200238D02*
X152947619Y-82200238D01*
X151947619Y-82771667D02*
X152519048Y-82343095D01*
X152947619Y-82771667D02*
X152376190Y-82200238D01*
X149407619Y-78914524D02*
X149883810Y-78581190D01*
X149407619Y-78343095D02*
X150407619Y-78343095D01*
X150407619Y-78724048D01*
X150360000Y-78819286D01*
X150312381Y-78866905D01*
X150217143Y-78914524D01*
X150074286Y-78914524D01*
X149979048Y-78866905D01*
X149931429Y-78819286D01*
X149883810Y-78724048D01*
X149883810Y-78343095D01*
X149931429Y-79343095D02*
X149931429Y-79676429D01*
X149407619Y-79819286D02*
X149407619Y-79343095D01*
X150407619Y-79343095D01*
X150407619Y-79819286D01*
X149455238Y-80200238D02*
X149407619Y-80343095D01*
X149407619Y-80581191D01*
X149455238Y-80676429D01*
X149502857Y-80724048D01*
X149598095Y-80771667D01*
X149693333Y-80771667D01*
X149788571Y-80724048D01*
X149836190Y-80676429D01*
X149883810Y-80581191D01*
X149931429Y-80390714D01*
X149979048Y-80295476D01*
X150026667Y-80247857D01*
X150121905Y-80200238D01*
X150217143Y-80200238D01*
X150312381Y-80247857D01*
X150360000Y-80295476D01*
X150407619Y-80390714D01*
X150407619Y-80628810D01*
X150360000Y-80771667D01*
X149931429Y-81200238D02*
X149931429Y-81533572D01*
X149407619Y-81676429D02*
X149407619Y-81200238D01*
X150407619Y-81200238D01*
X150407619Y-81676429D01*
X150407619Y-81962143D02*
X150407619Y-82533572D01*
X149407619Y-82247857D02*
X150407619Y-82247857D01*
X150580000Y-78105000D02*
X150580000Y-82628810D01*
X144327619Y-78343095D02*
X145327619Y-78343095D01*
X144327619Y-79390714D02*
X144803810Y-79057380D01*
X144327619Y-78819285D02*
X145327619Y-78819285D01*
X145327619Y-79200238D01*
X145280000Y-79295476D01*
X145232381Y-79343095D01*
X145137143Y-79390714D01*
X144994286Y-79390714D01*
X144899048Y-79343095D01*
X144851429Y-79295476D01*
X144803810Y-79200238D01*
X144803810Y-78819285D01*
X144232381Y-80485952D02*
X144280000Y-80390714D01*
X144375238Y-80295476D01*
X144518095Y-80152619D01*
X144565714Y-80057380D01*
X144565714Y-79962142D01*
X144327619Y-80009761D02*
X144375238Y-79914523D01*
X144470476Y-79819285D01*
X144660952Y-79771666D01*
X144994286Y-79771666D01*
X145184762Y-79819285D01*
X145280000Y-79914523D01*
X145327619Y-80009761D01*
X145327619Y-80200238D01*
X145280000Y-80295476D01*
X145184762Y-80390714D01*
X144994286Y-80438333D01*
X144660952Y-80438333D01*
X144470476Y-80390714D01*
X144375238Y-80295476D01*
X144327619Y-80200238D01*
X144327619Y-80009761D01*
X145500000Y-78105000D02*
X145500000Y-80628809D01*
X141787619Y-78343095D02*
X142787619Y-78343095D01*
X141787619Y-78914524D01*
X142787619Y-78914524D01*
X141787619Y-79390714D02*
X142787619Y-79390714D01*
X142073333Y-79724048D01*
X142787619Y-80057381D01*
X141787619Y-80057381D01*
X141787619Y-80533571D02*
X142787619Y-80533571D01*
X142960000Y-78105000D02*
X142960000Y-80771666D01*
X139247619Y-78914524D02*
X139723810Y-78581190D01*
X139247619Y-78343095D02*
X140247619Y-78343095D01*
X140247619Y-78724048D01*
X140200000Y-78819286D01*
X140152381Y-78866905D01*
X140057143Y-78914524D01*
X139914286Y-78914524D01*
X139819048Y-78866905D01*
X139771429Y-78819286D01*
X139723810Y-78724048D01*
X139723810Y-78343095D01*
X140295238Y-80057381D02*
X139009524Y-79200238D01*
X140247619Y-80295476D02*
X139247619Y-80533571D01*
X139961905Y-80724048D01*
X139247619Y-80914524D01*
X140247619Y-81152619D01*
X140420000Y-80152619D02*
X140420000Y-81295476D01*
X136707619Y-78914524D02*
X137183810Y-78581190D01*
X136707619Y-78343095D02*
X137707619Y-78343095D01*
X137707619Y-78724048D01*
X137660000Y-78819286D01*
X137612381Y-78866905D01*
X137517143Y-78914524D01*
X137374286Y-78914524D01*
X137279048Y-78866905D01*
X137231429Y-78819286D01*
X137183810Y-78724048D01*
X137183810Y-78343095D01*
X137231429Y-79343095D02*
X137231429Y-79676429D01*
X136707619Y-79819286D02*
X136707619Y-79343095D01*
X137707619Y-79343095D01*
X137707619Y-79819286D01*
X136993333Y-80200238D02*
X136993333Y-80676429D01*
X136707619Y-80105000D02*
X137707619Y-80438333D01*
X136707619Y-80771667D01*
X136707619Y-81105000D02*
X137707619Y-81105000D01*
X137707619Y-81343095D01*
X137660000Y-81485953D01*
X137564762Y-81581191D01*
X137469524Y-81628810D01*
X137279048Y-81676429D01*
X137136190Y-81676429D01*
X136945714Y-81628810D01*
X136850476Y-81581191D01*
X136755238Y-81485953D01*
X136707619Y-81343095D01*
X136707619Y-81105000D01*
X137183810Y-82295476D02*
X136707619Y-82295476D01*
X137707619Y-81962143D02*
X137183810Y-82295476D01*
X137707619Y-82628810D01*
X134215238Y-78295476D02*
X134167619Y-78438333D01*
X134167619Y-78676429D01*
X134215238Y-78771667D01*
X134262857Y-78819286D01*
X134358095Y-78866905D01*
X134453333Y-78866905D01*
X134548571Y-78819286D01*
X134596190Y-78771667D01*
X134643810Y-78676429D01*
X134691429Y-78485952D01*
X134739048Y-78390714D01*
X134786667Y-78343095D01*
X134881905Y-78295476D01*
X134977143Y-78295476D01*
X135072381Y-78343095D01*
X135120000Y-78390714D01*
X135167619Y-78485952D01*
X135167619Y-78724048D01*
X135120000Y-78866905D01*
X134643810Y-79485952D02*
X134167619Y-79485952D01*
X135167619Y-79152619D02*
X134643810Y-79485952D01*
X135167619Y-79819286D01*
X134167619Y-80152619D02*
X135167619Y-80152619D01*
X134167619Y-80724048D01*
X135167619Y-80724048D01*
X134262857Y-81771667D02*
X134215238Y-81724048D01*
X134167619Y-81581191D01*
X134167619Y-81485953D01*
X134215238Y-81343095D01*
X134310476Y-81247857D01*
X134405714Y-81200238D01*
X134596190Y-81152619D01*
X134739048Y-81152619D01*
X134929524Y-81200238D01*
X135024762Y-81247857D01*
X135120000Y-81343095D01*
X135167619Y-81485953D01*
X135167619Y-81581191D01*
X135120000Y-81724048D01*
X135072381Y-81771667D01*
X131627619Y-78343095D02*
X132627619Y-78343095D01*
X132627619Y-78581190D01*
X132580000Y-78724048D01*
X132484762Y-78819286D01*
X132389524Y-78866905D01*
X132199048Y-78914524D01*
X132056190Y-78914524D01*
X131865714Y-78866905D01*
X131770476Y-78819286D01*
X131675238Y-78724048D01*
X131627619Y-78581190D01*
X131627619Y-78343095D01*
X132627619Y-79533571D02*
X132627619Y-79628810D01*
X132580000Y-79724048D01*
X132532381Y-79771667D01*
X132437143Y-79819286D01*
X132246667Y-79866905D01*
X132008571Y-79866905D01*
X131818095Y-79819286D01*
X131722857Y-79771667D01*
X131675238Y-79724048D01*
X131627619Y-79628810D01*
X131627619Y-79533571D01*
X131675238Y-79438333D01*
X131722857Y-79390714D01*
X131818095Y-79343095D01*
X132008571Y-79295476D01*
X132246667Y-79295476D01*
X132437143Y-79343095D01*
X132532381Y-79390714D01*
X132580000Y-79438333D01*
X132627619Y-79533571D01*
X129087619Y-78343095D02*
X130087619Y-78343095D01*
X130087619Y-78581190D01*
X130040000Y-78724048D01*
X129944762Y-78819286D01*
X129849524Y-78866905D01*
X129659048Y-78914524D01*
X129516190Y-78914524D01*
X129325714Y-78866905D01*
X129230476Y-78819286D01*
X129135238Y-78724048D01*
X129087619Y-78581190D01*
X129087619Y-78343095D01*
X129087619Y-79866905D02*
X129087619Y-79295476D01*
X129087619Y-79581190D02*
X130087619Y-79581190D01*
X129944762Y-79485952D01*
X129849524Y-79390714D01*
X129801905Y-79295476D01*
X126547619Y-78343095D02*
X127547619Y-78343095D01*
X127547619Y-78581190D01*
X127500000Y-78724048D01*
X127404762Y-78819286D01*
X127309524Y-78866905D01*
X127119048Y-78914524D01*
X126976190Y-78914524D01*
X126785714Y-78866905D01*
X126690476Y-78819286D01*
X126595238Y-78724048D01*
X126547619Y-78581190D01*
X126547619Y-78343095D01*
X127452381Y-79295476D02*
X127500000Y-79343095D01*
X127547619Y-79438333D01*
X127547619Y-79676429D01*
X127500000Y-79771667D01*
X127452381Y-79819286D01*
X127357143Y-79866905D01*
X127261905Y-79866905D01*
X127119048Y-79819286D01*
X126547619Y-79247857D01*
X126547619Y-79866905D01*
X124007619Y-78343095D02*
X125007619Y-78343095D01*
X125007619Y-78581190D01*
X124960000Y-78724048D01*
X124864762Y-78819286D01*
X124769524Y-78866905D01*
X124579048Y-78914524D01*
X124436190Y-78914524D01*
X124245714Y-78866905D01*
X124150476Y-78819286D01*
X124055238Y-78724048D01*
X124007619Y-78581190D01*
X124007619Y-78343095D01*
X125007619Y-79247857D02*
X125007619Y-79866905D01*
X124626667Y-79533571D01*
X124626667Y-79676429D01*
X124579048Y-79771667D01*
X124531429Y-79819286D01*
X124436190Y-79866905D01*
X124198095Y-79866905D01*
X124102857Y-79819286D01*
X124055238Y-79771667D01*
X124007619Y-79676429D01*
X124007619Y-79390714D01*
X124055238Y-79295476D01*
X124102857Y-79247857D01*
X121467619Y-78343095D02*
X122467619Y-78343095D01*
X122467619Y-78581190D01*
X122420000Y-78724048D01*
X122324762Y-78819286D01*
X122229524Y-78866905D01*
X122039048Y-78914524D01*
X121896190Y-78914524D01*
X121705714Y-78866905D01*
X121610476Y-78819286D01*
X121515238Y-78724048D01*
X121467619Y-78581190D01*
X121467619Y-78343095D01*
X122134286Y-79771667D02*
X121467619Y-79771667D01*
X122515238Y-79533571D02*
X121800952Y-79295476D01*
X121800952Y-79914524D01*
X118927619Y-78343095D02*
X119927619Y-78343095D01*
X119927619Y-78581190D01*
X119880000Y-78724048D01*
X119784762Y-78819286D01*
X119689524Y-78866905D01*
X119499048Y-78914524D01*
X119356190Y-78914524D01*
X119165714Y-78866905D01*
X119070476Y-78819286D01*
X118975238Y-78724048D01*
X118927619Y-78581190D01*
X118927619Y-78343095D01*
X119927619Y-79819286D02*
X119927619Y-79343095D01*
X119451429Y-79295476D01*
X119499048Y-79343095D01*
X119546667Y-79438333D01*
X119546667Y-79676429D01*
X119499048Y-79771667D01*
X119451429Y-79819286D01*
X119356190Y-79866905D01*
X119118095Y-79866905D01*
X119022857Y-79819286D01*
X118975238Y-79771667D01*
X118927619Y-79676429D01*
X118927619Y-79438333D01*
X118975238Y-79343095D01*
X119022857Y-79295476D01*
X116387619Y-78343095D02*
X117387619Y-78343095D01*
X117387619Y-78581190D01*
X117340000Y-78724048D01*
X117244762Y-78819286D01*
X117149524Y-78866905D01*
X116959048Y-78914524D01*
X116816190Y-78914524D01*
X116625714Y-78866905D01*
X116530476Y-78819286D01*
X116435238Y-78724048D01*
X116387619Y-78581190D01*
X116387619Y-78343095D01*
X117387619Y-79771667D02*
X117387619Y-79581190D01*
X117340000Y-79485952D01*
X117292381Y-79438333D01*
X117149524Y-79343095D01*
X116959048Y-79295476D01*
X116578095Y-79295476D01*
X116482857Y-79343095D01*
X116435238Y-79390714D01*
X116387619Y-79485952D01*
X116387619Y-79676429D01*
X116435238Y-79771667D01*
X116482857Y-79819286D01*
X116578095Y-79866905D01*
X116816190Y-79866905D01*
X116911429Y-79819286D01*
X116959048Y-79771667D01*
X117006667Y-79676429D01*
X117006667Y-79485952D01*
X116959048Y-79390714D01*
X116911429Y-79343095D01*
X116816190Y-79295476D01*
X113847619Y-78343095D02*
X114847619Y-78343095D01*
X114847619Y-78581190D01*
X114800000Y-78724048D01*
X114704762Y-78819286D01*
X114609524Y-78866905D01*
X114419048Y-78914524D01*
X114276190Y-78914524D01*
X114085714Y-78866905D01*
X113990476Y-78819286D01*
X113895238Y-78724048D01*
X113847619Y-78581190D01*
X113847619Y-78343095D01*
X114847619Y-79247857D02*
X114847619Y-79914524D01*
X113847619Y-79485952D01*
X192873333Y-52895476D02*
X192873333Y-53371667D01*
X192587619Y-52800238D02*
X193587619Y-53133571D01*
X192587619Y-53466905D01*
X192587619Y-54324048D02*
X192587619Y-53752619D01*
X192587619Y-54038333D02*
X193587619Y-54038333D01*
X193444762Y-53943095D01*
X193349524Y-53847857D01*
X193301905Y-53752619D01*
X193587619Y-54657381D02*
X193587619Y-55276429D01*
X193206667Y-54943095D01*
X193206667Y-55085953D01*
X193159048Y-55181191D01*
X193111429Y-55228810D01*
X193016190Y-55276429D01*
X192778095Y-55276429D01*
X192682857Y-55228810D01*
X192635238Y-55181191D01*
X192587619Y-55085953D01*
X192587619Y-54800238D01*
X192635238Y-54705000D01*
X192682857Y-54657381D01*
X190333333Y-52895476D02*
X190333333Y-53371667D01*
X190047619Y-52800238D02*
X191047619Y-53133571D01*
X190047619Y-53466905D01*
X190047619Y-54324048D02*
X190047619Y-53752619D01*
X190047619Y-54038333D02*
X191047619Y-54038333D01*
X190904762Y-53943095D01*
X190809524Y-53847857D01*
X190761905Y-53752619D01*
X190952381Y-54705000D02*
X191000000Y-54752619D01*
X191047619Y-54847857D01*
X191047619Y-55085953D01*
X191000000Y-55181191D01*
X190952381Y-55228810D01*
X190857143Y-55276429D01*
X190761905Y-55276429D01*
X190619048Y-55228810D01*
X190047619Y-54657381D01*
X190047619Y-55276429D01*
X187793333Y-52895476D02*
X187793333Y-53371667D01*
X187507619Y-52800238D02*
X188507619Y-53133571D01*
X187507619Y-53466905D01*
X187507619Y-54324048D02*
X187507619Y-53752619D01*
X187507619Y-54038333D02*
X188507619Y-54038333D01*
X188364762Y-53943095D01*
X188269524Y-53847857D01*
X188221905Y-53752619D01*
X187507619Y-55276429D02*
X187507619Y-54705000D01*
X187507619Y-54990714D02*
X188507619Y-54990714D01*
X188364762Y-54895476D01*
X188269524Y-54800238D01*
X188221905Y-54705000D01*
X185253333Y-52895476D02*
X185253333Y-53371667D01*
X184967619Y-52800238D02*
X185967619Y-53133571D01*
X184967619Y-53466905D01*
X184967619Y-54324048D02*
X184967619Y-53752619D01*
X184967619Y-54038333D02*
X185967619Y-54038333D01*
X185824762Y-53943095D01*
X185729524Y-53847857D01*
X185681905Y-53752619D01*
X185967619Y-54943095D02*
X185967619Y-55038334D01*
X185920000Y-55133572D01*
X185872381Y-55181191D01*
X185777143Y-55228810D01*
X185586667Y-55276429D01*
X185348571Y-55276429D01*
X185158095Y-55228810D01*
X185062857Y-55181191D01*
X185015238Y-55133572D01*
X184967619Y-55038334D01*
X184967619Y-54943095D01*
X185015238Y-54847857D01*
X185062857Y-54800238D01*
X185158095Y-54752619D01*
X185348571Y-54705000D01*
X185586667Y-54705000D01*
X185777143Y-54752619D01*
X185872381Y-54800238D01*
X185920000Y-54847857D01*
X185967619Y-54943095D01*
X182713333Y-52895476D02*
X182713333Y-53371667D01*
X182427619Y-52800238D02*
X183427619Y-53133571D01*
X182427619Y-53466905D01*
X182427619Y-53847857D02*
X182427619Y-54038333D01*
X182475238Y-54133572D01*
X182522857Y-54181191D01*
X182665714Y-54276429D01*
X182856190Y-54324048D01*
X183237143Y-54324048D01*
X183332381Y-54276429D01*
X183380000Y-54228810D01*
X183427619Y-54133572D01*
X183427619Y-53943095D01*
X183380000Y-53847857D01*
X183332381Y-53800238D01*
X183237143Y-53752619D01*
X182999048Y-53752619D01*
X182903810Y-53800238D01*
X182856190Y-53847857D01*
X182808571Y-53943095D01*
X182808571Y-54133572D01*
X182856190Y-54228810D01*
X182903810Y-54276429D01*
X182999048Y-54324048D01*
X180173333Y-52895476D02*
X180173333Y-53371667D01*
X179887619Y-52800238D02*
X180887619Y-53133571D01*
X179887619Y-53466905D01*
X180459048Y-53943095D02*
X180506667Y-53847857D01*
X180554286Y-53800238D01*
X180649524Y-53752619D01*
X180697143Y-53752619D01*
X180792381Y-53800238D01*
X180840000Y-53847857D01*
X180887619Y-53943095D01*
X180887619Y-54133572D01*
X180840000Y-54228810D01*
X180792381Y-54276429D01*
X180697143Y-54324048D01*
X180649524Y-54324048D01*
X180554286Y-54276429D01*
X180506667Y-54228810D01*
X180459048Y-54133572D01*
X180459048Y-53943095D01*
X180411429Y-53847857D01*
X180363810Y-53800238D01*
X180268571Y-53752619D01*
X180078095Y-53752619D01*
X179982857Y-53800238D01*
X179935238Y-53847857D01*
X179887619Y-53943095D01*
X179887619Y-54133572D01*
X179935238Y-54228810D01*
X179982857Y-54276429D01*
X180078095Y-54324048D01*
X180268571Y-54324048D01*
X180363810Y-54276429D01*
X180411429Y-54228810D01*
X180459048Y-54133572D01*
X177633333Y-52895476D02*
X177633333Y-53371667D01*
X177347619Y-52800238D02*
X178347619Y-53133571D01*
X177347619Y-53466905D01*
X178347619Y-53705000D02*
X178347619Y-54371667D01*
X177347619Y-53943095D01*
X175093333Y-52895476D02*
X175093333Y-53371667D01*
X174807619Y-52800238D02*
X175807619Y-53133571D01*
X174807619Y-53466905D01*
X175807619Y-54228810D02*
X175807619Y-54038333D01*
X175760000Y-53943095D01*
X175712381Y-53895476D01*
X175569524Y-53800238D01*
X175379048Y-53752619D01*
X174998095Y-53752619D01*
X174902857Y-53800238D01*
X174855238Y-53847857D01*
X174807619Y-53943095D01*
X174807619Y-54133572D01*
X174855238Y-54228810D01*
X174902857Y-54276429D01*
X174998095Y-54324048D01*
X175236190Y-54324048D01*
X175331429Y-54276429D01*
X175379048Y-54228810D01*
X175426667Y-54133572D01*
X175426667Y-53943095D01*
X175379048Y-53847857D01*
X175331429Y-53800238D01*
X175236190Y-53752619D01*
X172553333Y-52895476D02*
X172553333Y-53371667D01*
X172267619Y-52800238D02*
X173267619Y-53133571D01*
X172267619Y-53466905D01*
X173267619Y-54276429D02*
X173267619Y-53800238D01*
X172791429Y-53752619D01*
X172839048Y-53800238D01*
X172886667Y-53895476D01*
X172886667Y-54133572D01*
X172839048Y-54228810D01*
X172791429Y-54276429D01*
X172696190Y-54324048D01*
X172458095Y-54324048D01*
X172362857Y-54276429D01*
X172315238Y-54228810D01*
X172267619Y-54133572D01*
X172267619Y-53895476D01*
X172315238Y-53800238D01*
X172362857Y-53752619D01*
X170013333Y-52895476D02*
X170013333Y-53371667D01*
X169727619Y-52800238D02*
X170727619Y-53133571D01*
X169727619Y-53466905D01*
X170394286Y-54228810D02*
X169727619Y-54228810D01*
X170775238Y-53990714D02*
X170060952Y-53752619D01*
X170060952Y-54371667D01*
X167473333Y-52895476D02*
X167473333Y-53371667D01*
X167187619Y-52800238D02*
X168187619Y-53133571D01*
X167187619Y-53466905D01*
X168187619Y-53705000D02*
X168187619Y-54324048D01*
X167806667Y-53990714D01*
X167806667Y-54133572D01*
X167759048Y-54228810D01*
X167711429Y-54276429D01*
X167616190Y-54324048D01*
X167378095Y-54324048D01*
X167282857Y-54276429D01*
X167235238Y-54228810D01*
X167187619Y-54133572D01*
X167187619Y-53847857D01*
X167235238Y-53752619D01*
X167282857Y-53705000D01*
X164933333Y-52895476D02*
X164933333Y-53371667D01*
X164647619Y-52800238D02*
X165647619Y-53133571D01*
X164647619Y-53466905D01*
X165552381Y-53752619D02*
X165600000Y-53800238D01*
X165647619Y-53895476D01*
X165647619Y-54133572D01*
X165600000Y-54228810D01*
X165552381Y-54276429D01*
X165457143Y-54324048D01*
X165361905Y-54324048D01*
X165219048Y-54276429D01*
X164647619Y-53705000D01*
X164647619Y-54324048D01*
X162393333Y-52895476D02*
X162393333Y-53371667D01*
X162107619Y-52800238D02*
X163107619Y-53133571D01*
X162107619Y-53466905D01*
X162107619Y-54324048D02*
X162107619Y-53752619D01*
X162107619Y-54038333D02*
X163107619Y-54038333D01*
X162964762Y-53943095D01*
X162869524Y-53847857D01*
X162821905Y-53752619D01*
X159853333Y-52895476D02*
X159853333Y-53371667D01*
X159567619Y-52800238D02*
X160567619Y-53133571D01*
X159567619Y-53466905D01*
X160567619Y-53990714D02*
X160567619Y-54085953D01*
X160520000Y-54181191D01*
X160472381Y-54228810D01*
X160377143Y-54276429D01*
X160186667Y-54324048D01*
X159948571Y-54324048D01*
X159758095Y-54276429D01*
X159662857Y-54228810D01*
X159615238Y-54181191D01*
X159567619Y-54085953D01*
X159567619Y-53990714D01*
X159615238Y-53895476D01*
X159662857Y-53847857D01*
X159758095Y-53800238D01*
X159948571Y-53752619D01*
X160186667Y-53752619D01*
X160377143Y-53800238D01*
X160472381Y-53847857D01*
X160520000Y-53895476D01*
X160567619Y-53990714D01*
X157980000Y-53466905D02*
X158027619Y-53371667D01*
X158027619Y-53228810D01*
X157980000Y-53085952D01*
X157884762Y-52990714D01*
X157789524Y-52943095D01*
X157599048Y-52895476D01*
X157456190Y-52895476D01*
X157265714Y-52943095D01*
X157170476Y-52990714D01*
X157075238Y-53085952D01*
X157027619Y-53228810D01*
X157027619Y-53324048D01*
X157075238Y-53466905D01*
X157122857Y-53514524D01*
X157456190Y-53514524D01*
X157456190Y-53324048D01*
X157027619Y-53943095D02*
X158027619Y-53943095D01*
X157027619Y-54514524D01*
X158027619Y-54514524D01*
X157027619Y-54990714D02*
X158027619Y-54990714D01*
X158027619Y-55228809D01*
X157980000Y-55371667D01*
X157884762Y-55466905D01*
X157789524Y-55514524D01*
X157599048Y-55562143D01*
X157456190Y-55562143D01*
X157265714Y-55514524D01*
X157170476Y-55466905D01*
X157075238Y-55371667D01*
X157027619Y-55228809D01*
X157027619Y-54990714D01*
X155487619Y-52800238D02*
X154487619Y-53133571D01*
X155487619Y-53466905D01*
X154582857Y-54371667D02*
X154535238Y-54324048D01*
X154487619Y-54181191D01*
X154487619Y-54085953D01*
X154535238Y-53943095D01*
X154630476Y-53847857D01*
X154725714Y-53800238D01*
X154916190Y-53752619D01*
X155059048Y-53752619D01*
X155249524Y-53800238D01*
X155344762Y-53847857D01*
X155440000Y-53943095D01*
X155487619Y-54085953D01*
X155487619Y-54181191D01*
X155440000Y-54324048D01*
X155392381Y-54371667D01*
X154582857Y-55371667D02*
X154535238Y-55324048D01*
X154487619Y-55181191D01*
X154487619Y-55085953D01*
X154535238Y-54943095D01*
X154630476Y-54847857D01*
X154725714Y-54800238D01*
X154916190Y-54752619D01*
X155059048Y-54752619D01*
X155249524Y-54800238D01*
X155344762Y-54847857D01*
X155440000Y-54943095D01*
X155487619Y-55085953D01*
X155487619Y-55181191D01*
X155440000Y-55324048D01*
X155392381Y-55371667D01*
X152042857Y-53514524D02*
X151995238Y-53466905D01*
X151947619Y-53324048D01*
X151947619Y-53228810D01*
X151995238Y-53085952D01*
X152090476Y-52990714D01*
X152185714Y-52943095D01*
X152376190Y-52895476D01*
X152519048Y-52895476D01*
X152709524Y-52943095D01*
X152804762Y-52990714D01*
X152900000Y-53085952D01*
X152947619Y-53228810D01*
X152947619Y-53324048D01*
X152900000Y-53466905D01*
X152852381Y-53514524D01*
X151947619Y-54419286D02*
X151947619Y-53943095D01*
X152947619Y-53943095D01*
X152947619Y-54943095D02*
X152947619Y-55133572D01*
X152900000Y-55228810D01*
X152804762Y-55324048D01*
X152614286Y-55371667D01*
X152280952Y-55371667D01*
X152090476Y-55324048D01*
X151995238Y-55228810D01*
X151947619Y-55133572D01*
X151947619Y-54943095D01*
X151995238Y-54847857D01*
X152090476Y-54752619D01*
X152280952Y-54705000D01*
X152614286Y-54705000D01*
X152804762Y-54752619D01*
X152900000Y-54847857D01*
X152947619Y-54943095D01*
X152042857Y-56371667D02*
X151995238Y-56324048D01*
X151947619Y-56181191D01*
X151947619Y-56085953D01*
X151995238Y-55943095D01*
X152090476Y-55847857D01*
X152185714Y-55800238D01*
X152376190Y-55752619D01*
X152519048Y-55752619D01*
X152709524Y-55800238D01*
X152804762Y-55847857D01*
X152900000Y-55943095D01*
X152947619Y-56085953D01*
X152947619Y-56181191D01*
X152900000Y-56324048D01*
X152852381Y-56371667D01*
X151947619Y-56800238D02*
X152947619Y-56800238D01*
X151947619Y-57371667D02*
X152519048Y-56943095D01*
X152947619Y-57371667D02*
X152376190Y-56800238D01*
X149407619Y-53514524D02*
X149883810Y-53181190D01*
X149407619Y-52943095D02*
X150407619Y-52943095D01*
X150407619Y-53324048D01*
X150360000Y-53419286D01*
X150312381Y-53466905D01*
X150217143Y-53514524D01*
X150074286Y-53514524D01*
X149979048Y-53466905D01*
X149931429Y-53419286D01*
X149883810Y-53324048D01*
X149883810Y-52943095D01*
X149931429Y-53943095D02*
X149931429Y-54276429D01*
X149407619Y-54419286D02*
X149407619Y-53943095D01*
X150407619Y-53943095D01*
X150407619Y-54419286D01*
X149455238Y-54800238D02*
X149407619Y-54943095D01*
X149407619Y-55181191D01*
X149455238Y-55276429D01*
X149502857Y-55324048D01*
X149598095Y-55371667D01*
X149693333Y-55371667D01*
X149788571Y-55324048D01*
X149836190Y-55276429D01*
X149883810Y-55181191D01*
X149931429Y-54990714D01*
X149979048Y-54895476D01*
X150026667Y-54847857D01*
X150121905Y-54800238D01*
X150217143Y-54800238D01*
X150312381Y-54847857D01*
X150360000Y-54895476D01*
X150407619Y-54990714D01*
X150407619Y-55228810D01*
X150360000Y-55371667D01*
X149931429Y-55800238D02*
X149931429Y-56133572D01*
X149407619Y-56276429D02*
X149407619Y-55800238D01*
X150407619Y-55800238D01*
X150407619Y-56276429D01*
X150407619Y-56562143D02*
X150407619Y-57133572D01*
X149407619Y-56847857D02*
X150407619Y-56847857D01*
X150580000Y-52705000D02*
X150580000Y-57228810D01*
X144327619Y-52943095D02*
X145327619Y-52943095D01*
X144327619Y-53990714D02*
X144803810Y-53657380D01*
X144327619Y-53419285D02*
X145327619Y-53419285D01*
X145327619Y-53800238D01*
X145280000Y-53895476D01*
X145232381Y-53943095D01*
X145137143Y-53990714D01*
X144994286Y-53990714D01*
X144899048Y-53943095D01*
X144851429Y-53895476D01*
X144803810Y-53800238D01*
X144803810Y-53419285D01*
X144232381Y-55085952D02*
X144280000Y-54990714D01*
X144375238Y-54895476D01*
X144518095Y-54752619D01*
X144565714Y-54657380D01*
X144565714Y-54562142D01*
X144327619Y-54609761D02*
X144375238Y-54514523D01*
X144470476Y-54419285D01*
X144660952Y-54371666D01*
X144994286Y-54371666D01*
X145184762Y-54419285D01*
X145280000Y-54514523D01*
X145327619Y-54609761D01*
X145327619Y-54800238D01*
X145280000Y-54895476D01*
X145184762Y-54990714D01*
X144994286Y-55038333D01*
X144660952Y-55038333D01*
X144470476Y-54990714D01*
X144375238Y-54895476D01*
X144327619Y-54800238D01*
X144327619Y-54609761D01*
X145500000Y-52705000D02*
X145500000Y-55228809D01*
X141787619Y-52943095D02*
X142787619Y-52943095D01*
X141787619Y-53514524D01*
X142787619Y-53514524D01*
X141787619Y-53990714D02*
X142787619Y-53990714D01*
X142073333Y-54324048D01*
X142787619Y-54657381D01*
X141787619Y-54657381D01*
X141787619Y-55133571D02*
X142787619Y-55133571D01*
X142960000Y-52705000D02*
X142960000Y-55371666D01*
X139247619Y-53514524D02*
X139723810Y-53181190D01*
X139247619Y-52943095D02*
X140247619Y-52943095D01*
X140247619Y-53324048D01*
X140200000Y-53419286D01*
X140152381Y-53466905D01*
X140057143Y-53514524D01*
X139914286Y-53514524D01*
X139819048Y-53466905D01*
X139771429Y-53419286D01*
X139723810Y-53324048D01*
X139723810Y-52943095D01*
X140295238Y-54657381D02*
X139009524Y-53800238D01*
X140247619Y-54895476D02*
X139247619Y-55133571D01*
X139961905Y-55324048D01*
X139247619Y-55514524D01*
X140247619Y-55752619D01*
X140420000Y-54752619D02*
X140420000Y-55895476D01*
X136707619Y-53514524D02*
X137183810Y-53181190D01*
X136707619Y-52943095D02*
X137707619Y-52943095D01*
X137707619Y-53324048D01*
X137660000Y-53419286D01*
X137612381Y-53466905D01*
X137517143Y-53514524D01*
X137374286Y-53514524D01*
X137279048Y-53466905D01*
X137231429Y-53419286D01*
X137183810Y-53324048D01*
X137183810Y-52943095D01*
X137231429Y-53943095D02*
X137231429Y-54276429D01*
X136707619Y-54419286D02*
X136707619Y-53943095D01*
X137707619Y-53943095D01*
X137707619Y-54419286D01*
X136993333Y-54800238D02*
X136993333Y-55276429D01*
X136707619Y-54705000D02*
X137707619Y-55038333D01*
X136707619Y-55371667D01*
X136707619Y-55705000D02*
X137707619Y-55705000D01*
X137707619Y-55943095D01*
X137660000Y-56085953D01*
X137564762Y-56181191D01*
X137469524Y-56228810D01*
X137279048Y-56276429D01*
X137136190Y-56276429D01*
X136945714Y-56228810D01*
X136850476Y-56181191D01*
X136755238Y-56085953D01*
X136707619Y-55943095D01*
X136707619Y-55705000D01*
X137183810Y-56895476D02*
X136707619Y-56895476D01*
X137707619Y-56562143D02*
X137183810Y-56895476D01*
X137707619Y-57228810D01*
X134215238Y-52895476D02*
X134167619Y-53038333D01*
X134167619Y-53276429D01*
X134215238Y-53371667D01*
X134262857Y-53419286D01*
X134358095Y-53466905D01*
X134453333Y-53466905D01*
X134548571Y-53419286D01*
X134596190Y-53371667D01*
X134643810Y-53276429D01*
X134691429Y-53085952D01*
X134739048Y-52990714D01*
X134786667Y-52943095D01*
X134881905Y-52895476D01*
X134977143Y-52895476D01*
X135072381Y-52943095D01*
X135120000Y-52990714D01*
X135167619Y-53085952D01*
X135167619Y-53324048D01*
X135120000Y-53466905D01*
X134643810Y-54085952D02*
X134167619Y-54085952D01*
X135167619Y-53752619D02*
X134643810Y-54085952D01*
X135167619Y-54419286D01*
X134167619Y-54752619D02*
X135167619Y-54752619D01*
X134167619Y-55324048D01*
X135167619Y-55324048D01*
X134262857Y-56371667D02*
X134215238Y-56324048D01*
X134167619Y-56181191D01*
X134167619Y-56085953D01*
X134215238Y-55943095D01*
X134310476Y-55847857D01*
X134405714Y-55800238D01*
X134596190Y-55752619D01*
X134739048Y-55752619D01*
X134929524Y-55800238D01*
X135024762Y-55847857D01*
X135120000Y-55943095D01*
X135167619Y-56085953D01*
X135167619Y-56181191D01*
X135120000Y-56324048D01*
X135072381Y-56371667D01*
X131627619Y-52943095D02*
X132627619Y-52943095D01*
X132627619Y-53181190D01*
X132580000Y-53324048D01*
X132484762Y-53419286D01*
X132389524Y-53466905D01*
X132199048Y-53514524D01*
X132056190Y-53514524D01*
X131865714Y-53466905D01*
X131770476Y-53419286D01*
X131675238Y-53324048D01*
X131627619Y-53181190D01*
X131627619Y-52943095D01*
X132627619Y-54133571D02*
X132627619Y-54228810D01*
X132580000Y-54324048D01*
X132532381Y-54371667D01*
X132437143Y-54419286D01*
X132246667Y-54466905D01*
X132008571Y-54466905D01*
X131818095Y-54419286D01*
X131722857Y-54371667D01*
X131675238Y-54324048D01*
X131627619Y-54228810D01*
X131627619Y-54133571D01*
X131675238Y-54038333D01*
X131722857Y-53990714D01*
X131818095Y-53943095D01*
X132008571Y-53895476D01*
X132246667Y-53895476D01*
X132437143Y-53943095D01*
X132532381Y-53990714D01*
X132580000Y-54038333D01*
X132627619Y-54133571D01*
X129087619Y-52943095D02*
X130087619Y-52943095D01*
X130087619Y-53181190D01*
X130040000Y-53324048D01*
X129944762Y-53419286D01*
X129849524Y-53466905D01*
X129659048Y-53514524D01*
X129516190Y-53514524D01*
X129325714Y-53466905D01*
X129230476Y-53419286D01*
X129135238Y-53324048D01*
X129087619Y-53181190D01*
X129087619Y-52943095D01*
X129087619Y-54466905D02*
X129087619Y-53895476D01*
X129087619Y-54181190D02*
X130087619Y-54181190D01*
X129944762Y-54085952D01*
X129849524Y-53990714D01*
X129801905Y-53895476D01*
X126547619Y-52943095D02*
X127547619Y-52943095D01*
X127547619Y-53181190D01*
X127500000Y-53324048D01*
X127404762Y-53419286D01*
X127309524Y-53466905D01*
X127119048Y-53514524D01*
X126976190Y-53514524D01*
X126785714Y-53466905D01*
X126690476Y-53419286D01*
X126595238Y-53324048D01*
X126547619Y-53181190D01*
X126547619Y-52943095D01*
X127452381Y-53895476D02*
X127500000Y-53943095D01*
X127547619Y-54038333D01*
X127547619Y-54276429D01*
X127500000Y-54371667D01*
X127452381Y-54419286D01*
X127357143Y-54466905D01*
X127261905Y-54466905D01*
X127119048Y-54419286D01*
X126547619Y-53847857D01*
X126547619Y-54466905D01*
X124007619Y-52943095D02*
X125007619Y-52943095D01*
X125007619Y-53181190D01*
X124960000Y-53324048D01*
X124864762Y-53419286D01*
X124769524Y-53466905D01*
X124579048Y-53514524D01*
X124436190Y-53514524D01*
X124245714Y-53466905D01*
X124150476Y-53419286D01*
X124055238Y-53324048D01*
X124007619Y-53181190D01*
X124007619Y-52943095D01*
X125007619Y-53847857D02*
X125007619Y-54466905D01*
X124626667Y-54133571D01*
X124626667Y-54276429D01*
X124579048Y-54371667D01*
X124531429Y-54419286D01*
X124436190Y-54466905D01*
X124198095Y-54466905D01*
X124102857Y-54419286D01*
X124055238Y-54371667D01*
X124007619Y-54276429D01*
X124007619Y-53990714D01*
X124055238Y-53895476D01*
X124102857Y-53847857D01*
X121467619Y-52943095D02*
X122467619Y-52943095D01*
X122467619Y-53181190D01*
X122420000Y-53324048D01*
X122324762Y-53419286D01*
X122229524Y-53466905D01*
X122039048Y-53514524D01*
X121896190Y-53514524D01*
X121705714Y-53466905D01*
X121610476Y-53419286D01*
X121515238Y-53324048D01*
X121467619Y-53181190D01*
X121467619Y-52943095D01*
X122134286Y-54371667D02*
X121467619Y-54371667D01*
X122515238Y-54133571D02*
X121800952Y-53895476D01*
X121800952Y-54514524D01*
X118927619Y-52943095D02*
X119927619Y-52943095D01*
X119927619Y-53181190D01*
X119880000Y-53324048D01*
X119784762Y-53419286D01*
X119689524Y-53466905D01*
X119499048Y-53514524D01*
X119356190Y-53514524D01*
X119165714Y-53466905D01*
X119070476Y-53419286D01*
X118975238Y-53324048D01*
X118927619Y-53181190D01*
X118927619Y-52943095D01*
X119927619Y-54419286D02*
X119927619Y-53943095D01*
X119451429Y-53895476D01*
X119499048Y-53943095D01*
X119546667Y-54038333D01*
X119546667Y-54276429D01*
X119499048Y-54371667D01*
X119451429Y-54419286D01*
X119356190Y-54466905D01*
X119118095Y-54466905D01*
X119022857Y-54419286D01*
X118975238Y-54371667D01*
X118927619Y-54276429D01*
X118927619Y-54038333D01*
X118975238Y-53943095D01*
X119022857Y-53895476D01*
X116387619Y-52943095D02*
X117387619Y-52943095D01*
X117387619Y-53181190D01*
X117340000Y-53324048D01*
X117244762Y-53419286D01*
X117149524Y-53466905D01*
X116959048Y-53514524D01*
X116816190Y-53514524D01*
X116625714Y-53466905D01*
X116530476Y-53419286D01*
X116435238Y-53324048D01*
X116387619Y-53181190D01*
X116387619Y-52943095D01*
X117387619Y-54371667D02*
X117387619Y-54181190D01*
X117340000Y-54085952D01*
X117292381Y-54038333D01*
X117149524Y-53943095D01*
X116959048Y-53895476D01*
X116578095Y-53895476D01*
X116482857Y-53943095D01*
X116435238Y-53990714D01*
X116387619Y-54085952D01*
X116387619Y-54276429D01*
X116435238Y-54371667D01*
X116482857Y-54419286D01*
X116578095Y-54466905D01*
X116816190Y-54466905D01*
X116911429Y-54419286D01*
X116959048Y-54371667D01*
X117006667Y-54276429D01*
X117006667Y-54085952D01*
X116959048Y-53990714D01*
X116911429Y-53943095D01*
X116816190Y-53895476D01*
X113847619Y-52943095D02*
X114847619Y-52943095D01*
X114847619Y-53181190D01*
X114800000Y-53324048D01*
X114704762Y-53419286D01*
X114609524Y-53466905D01*
X114419048Y-53514524D01*
X114276190Y-53514524D01*
X114085714Y-53466905D01*
X113990476Y-53419286D01*
X113895238Y-53324048D01*
X113847619Y-53181190D01*
X113847619Y-52943095D01*
X114847619Y-53847857D02*
X114847619Y-54514524D01*
X113847619Y-54085952D01*
X193206667Y-143319524D02*
X193206667Y-142843333D01*
X193492381Y-143414762D02*
X192492381Y-143081429D01*
X193492381Y-142748095D01*
X193492381Y-141890952D02*
X193492381Y-142462381D01*
X193492381Y-142176667D02*
X192492381Y-142176667D01*
X192635238Y-142271905D01*
X192730476Y-142367143D01*
X192778095Y-142462381D01*
X192492381Y-141557619D02*
X192492381Y-140938571D01*
X192873333Y-141271905D01*
X192873333Y-141129047D01*
X192920952Y-141033809D01*
X192968571Y-140986190D01*
X193063810Y-140938571D01*
X193301905Y-140938571D01*
X193397143Y-140986190D01*
X193444762Y-141033809D01*
X193492381Y-141129047D01*
X193492381Y-141414762D01*
X193444762Y-141510000D01*
X193397143Y-141557619D01*
X190666667Y-143319524D02*
X190666667Y-142843333D01*
X190952381Y-143414762D02*
X189952381Y-143081429D01*
X190952381Y-142748095D01*
X190952381Y-141890952D02*
X190952381Y-142462381D01*
X190952381Y-142176667D02*
X189952381Y-142176667D01*
X190095238Y-142271905D01*
X190190476Y-142367143D01*
X190238095Y-142462381D01*
X190047619Y-141510000D02*
X190000000Y-141462381D01*
X189952381Y-141367143D01*
X189952381Y-141129047D01*
X190000000Y-141033809D01*
X190047619Y-140986190D01*
X190142857Y-140938571D01*
X190238095Y-140938571D01*
X190380952Y-140986190D01*
X190952381Y-141557619D01*
X190952381Y-140938571D01*
X188126667Y-143319524D02*
X188126667Y-142843333D01*
X188412381Y-143414762D02*
X187412381Y-143081429D01*
X188412381Y-142748095D01*
X188412381Y-141890952D02*
X188412381Y-142462381D01*
X188412381Y-142176667D02*
X187412381Y-142176667D01*
X187555238Y-142271905D01*
X187650476Y-142367143D01*
X187698095Y-142462381D01*
X188412381Y-140938571D02*
X188412381Y-141510000D01*
X188412381Y-141224286D02*
X187412381Y-141224286D01*
X187555238Y-141319524D01*
X187650476Y-141414762D01*
X187698095Y-141510000D01*
X185586667Y-143319524D02*
X185586667Y-142843333D01*
X185872381Y-143414762D02*
X184872381Y-143081429D01*
X185872381Y-142748095D01*
X185872381Y-141890952D02*
X185872381Y-142462381D01*
X185872381Y-142176667D02*
X184872381Y-142176667D01*
X185015238Y-142271905D01*
X185110476Y-142367143D01*
X185158095Y-142462381D01*
X184872381Y-141271905D02*
X184872381Y-141176666D01*
X184920000Y-141081428D01*
X184967619Y-141033809D01*
X185062857Y-140986190D01*
X185253333Y-140938571D01*
X185491429Y-140938571D01*
X185681905Y-140986190D01*
X185777143Y-141033809D01*
X185824762Y-141081428D01*
X185872381Y-141176666D01*
X185872381Y-141271905D01*
X185824762Y-141367143D01*
X185777143Y-141414762D01*
X185681905Y-141462381D01*
X185491429Y-141510000D01*
X185253333Y-141510000D01*
X185062857Y-141462381D01*
X184967619Y-141414762D01*
X184920000Y-141367143D01*
X184872381Y-141271905D01*
X183046667Y-143319524D02*
X183046667Y-142843333D01*
X183332381Y-143414762D02*
X182332381Y-143081429D01*
X183332381Y-142748095D01*
X183332381Y-142367143D02*
X183332381Y-142176667D01*
X183284762Y-142081428D01*
X183237143Y-142033809D01*
X183094286Y-141938571D01*
X182903810Y-141890952D01*
X182522857Y-141890952D01*
X182427619Y-141938571D01*
X182380000Y-141986190D01*
X182332381Y-142081428D01*
X182332381Y-142271905D01*
X182380000Y-142367143D01*
X182427619Y-142414762D01*
X182522857Y-142462381D01*
X182760952Y-142462381D01*
X182856190Y-142414762D01*
X182903810Y-142367143D01*
X182951429Y-142271905D01*
X182951429Y-142081428D01*
X182903810Y-141986190D01*
X182856190Y-141938571D01*
X182760952Y-141890952D01*
X180506667Y-143319524D02*
X180506667Y-142843333D01*
X180792381Y-143414762D02*
X179792381Y-143081429D01*
X180792381Y-142748095D01*
X180220952Y-142271905D02*
X180173333Y-142367143D01*
X180125714Y-142414762D01*
X180030476Y-142462381D01*
X179982857Y-142462381D01*
X179887619Y-142414762D01*
X179840000Y-142367143D01*
X179792381Y-142271905D01*
X179792381Y-142081428D01*
X179840000Y-141986190D01*
X179887619Y-141938571D01*
X179982857Y-141890952D01*
X180030476Y-141890952D01*
X180125714Y-141938571D01*
X180173333Y-141986190D01*
X180220952Y-142081428D01*
X180220952Y-142271905D01*
X180268571Y-142367143D01*
X180316190Y-142414762D01*
X180411429Y-142462381D01*
X180601905Y-142462381D01*
X180697143Y-142414762D01*
X180744762Y-142367143D01*
X180792381Y-142271905D01*
X180792381Y-142081428D01*
X180744762Y-141986190D01*
X180697143Y-141938571D01*
X180601905Y-141890952D01*
X180411429Y-141890952D01*
X180316190Y-141938571D01*
X180268571Y-141986190D01*
X180220952Y-142081428D01*
X177966667Y-143319524D02*
X177966667Y-142843333D01*
X178252381Y-143414762D02*
X177252381Y-143081429D01*
X178252381Y-142748095D01*
X177252381Y-142510000D02*
X177252381Y-141843333D01*
X178252381Y-142271905D01*
X175426667Y-143319524D02*
X175426667Y-142843333D01*
X175712381Y-143414762D02*
X174712381Y-143081429D01*
X175712381Y-142748095D01*
X174712381Y-141986190D02*
X174712381Y-142176667D01*
X174760000Y-142271905D01*
X174807619Y-142319524D01*
X174950476Y-142414762D01*
X175140952Y-142462381D01*
X175521905Y-142462381D01*
X175617143Y-142414762D01*
X175664762Y-142367143D01*
X175712381Y-142271905D01*
X175712381Y-142081428D01*
X175664762Y-141986190D01*
X175617143Y-141938571D01*
X175521905Y-141890952D01*
X175283810Y-141890952D01*
X175188571Y-141938571D01*
X175140952Y-141986190D01*
X175093333Y-142081428D01*
X175093333Y-142271905D01*
X175140952Y-142367143D01*
X175188571Y-142414762D01*
X175283810Y-142462381D01*
X172886667Y-143319524D02*
X172886667Y-142843333D01*
X173172381Y-143414762D02*
X172172381Y-143081429D01*
X173172381Y-142748095D01*
X172172381Y-141938571D02*
X172172381Y-142414762D01*
X172648571Y-142462381D01*
X172600952Y-142414762D01*
X172553333Y-142319524D01*
X172553333Y-142081428D01*
X172600952Y-141986190D01*
X172648571Y-141938571D01*
X172743810Y-141890952D01*
X172981905Y-141890952D01*
X173077143Y-141938571D01*
X173124762Y-141986190D01*
X173172381Y-142081428D01*
X173172381Y-142319524D01*
X173124762Y-142414762D01*
X173077143Y-142462381D01*
X170346667Y-143319524D02*
X170346667Y-142843333D01*
X170632381Y-143414762D02*
X169632381Y-143081429D01*
X170632381Y-142748095D01*
X169965714Y-141986190D02*
X170632381Y-141986190D01*
X169584762Y-142224286D02*
X170299048Y-142462381D01*
X170299048Y-141843333D01*
X167806667Y-143319524D02*
X167806667Y-142843333D01*
X168092381Y-143414762D02*
X167092381Y-143081429D01*
X168092381Y-142748095D01*
X167092381Y-142510000D02*
X167092381Y-141890952D01*
X167473333Y-142224286D01*
X167473333Y-142081428D01*
X167520952Y-141986190D01*
X167568571Y-141938571D01*
X167663810Y-141890952D01*
X167901905Y-141890952D01*
X167997143Y-141938571D01*
X168044762Y-141986190D01*
X168092381Y-142081428D01*
X168092381Y-142367143D01*
X168044762Y-142462381D01*
X167997143Y-142510000D01*
X165266667Y-143319524D02*
X165266667Y-142843333D01*
X165552381Y-143414762D02*
X164552381Y-143081429D01*
X165552381Y-142748095D01*
X164647619Y-142462381D02*
X164600000Y-142414762D01*
X164552381Y-142319524D01*
X164552381Y-142081428D01*
X164600000Y-141986190D01*
X164647619Y-141938571D01*
X164742857Y-141890952D01*
X164838095Y-141890952D01*
X164980952Y-141938571D01*
X165552381Y-142510000D01*
X165552381Y-141890952D01*
X162726667Y-143319524D02*
X162726667Y-142843333D01*
X163012381Y-143414762D02*
X162012381Y-143081429D01*
X163012381Y-142748095D01*
X163012381Y-141890952D02*
X163012381Y-142462381D01*
X163012381Y-142176667D02*
X162012381Y-142176667D01*
X162155238Y-142271905D01*
X162250476Y-142367143D01*
X162298095Y-142462381D01*
X160186667Y-143319524D02*
X160186667Y-142843333D01*
X160472381Y-143414762D02*
X159472381Y-143081429D01*
X160472381Y-142748095D01*
X159472381Y-142224286D02*
X159472381Y-142129047D01*
X159520000Y-142033809D01*
X159567619Y-141986190D01*
X159662857Y-141938571D01*
X159853333Y-141890952D01*
X160091429Y-141890952D01*
X160281905Y-141938571D01*
X160377143Y-141986190D01*
X160424762Y-142033809D01*
X160472381Y-142129047D01*
X160472381Y-142224286D01*
X160424762Y-142319524D01*
X160377143Y-142367143D01*
X160281905Y-142414762D01*
X160091429Y-142462381D01*
X159853333Y-142462381D01*
X159662857Y-142414762D01*
X159567619Y-142367143D01*
X159520000Y-142319524D01*
X159472381Y-142224286D01*
X156980000Y-142748095D02*
X156932381Y-142843333D01*
X156932381Y-142986190D01*
X156980000Y-143129048D01*
X157075238Y-143224286D01*
X157170476Y-143271905D01*
X157360952Y-143319524D01*
X157503810Y-143319524D01*
X157694286Y-143271905D01*
X157789524Y-143224286D01*
X157884762Y-143129048D01*
X157932381Y-142986190D01*
X157932381Y-142890952D01*
X157884762Y-142748095D01*
X157837143Y-142700476D01*
X157503810Y-142700476D01*
X157503810Y-142890952D01*
X157932381Y-142271905D02*
X156932381Y-142271905D01*
X157932381Y-141700476D01*
X156932381Y-141700476D01*
X157932381Y-141224286D02*
X156932381Y-141224286D01*
X156932381Y-140986191D01*
X156980000Y-140843333D01*
X157075238Y-140748095D01*
X157170476Y-140700476D01*
X157360952Y-140652857D01*
X157503810Y-140652857D01*
X157694286Y-140700476D01*
X157789524Y-140748095D01*
X157884762Y-140843333D01*
X157932381Y-140986191D01*
X157932381Y-141224286D01*
X154392381Y-143414762D02*
X155392381Y-143081429D01*
X154392381Y-142748095D01*
X155297143Y-141843333D02*
X155344762Y-141890952D01*
X155392381Y-142033809D01*
X155392381Y-142129047D01*
X155344762Y-142271905D01*
X155249524Y-142367143D01*
X155154286Y-142414762D01*
X154963810Y-142462381D01*
X154820952Y-142462381D01*
X154630476Y-142414762D01*
X154535238Y-142367143D01*
X154440000Y-142271905D01*
X154392381Y-142129047D01*
X154392381Y-142033809D01*
X154440000Y-141890952D01*
X154487619Y-141843333D01*
X155297143Y-140843333D02*
X155344762Y-140890952D01*
X155392381Y-141033809D01*
X155392381Y-141129047D01*
X155344762Y-141271905D01*
X155249524Y-141367143D01*
X155154286Y-141414762D01*
X154963810Y-141462381D01*
X154820952Y-141462381D01*
X154630476Y-141414762D01*
X154535238Y-141367143D01*
X154440000Y-141271905D01*
X154392381Y-141129047D01*
X154392381Y-141033809D01*
X154440000Y-140890952D01*
X154487619Y-140843333D01*
X152757143Y-142700476D02*
X152804762Y-142748095D01*
X152852381Y-142890952D01*
X152852381Y-142986190D01*
X152804762Y-143129048D01*
X152709524Y-143224286D01*
X152614286Y-143271905D01*
X152423810Y-143319524D01*
X152280952Y-143319524D01*
X152090476Y-143271905D01*
X151995238Y-143224286D01*
X151900000Y-143129048D01*
X151852381Y-142986190D01*
X151852381Y-142890952D01*
X151900000Y-142748095D01*
X151947619Y-142700476D01*
X152852381Y-141795714D02*
X152852381Y-142271905D01*
X151852381Y-142271905D01*
X151852381Y-141271905D02*
X151852381Y-141081428D01*
X151900000Y-140986190D01*
X151995238Y-140890952D01*
X152185714Y-140843333D01*
X152519048Y-140843333D01*
X152709524Y-140890952D01*
X152804762Y-140986190D01*
X152852381Y-141081428D01*
X152852381Y-141271905D01*
X152804762Y-141367143D01*
X152709524Y-141462381D01*
X152519048Y-141510000D01*
X152185714Y-141510000D01*
X151995238Y-141462381D01*
X151900000Y-141367143D01*
X151852381Y-141271905D01*
X152757143Y-139843333D02*
X152804762Y-139890952D01*
X152852381Y-140033809D01*
X152852381Y-140129047D01*
X152804762Y-140271905D01*
X152709524Y-140367143D01*
X152614286Y-140414762D01*
X152423810Y-140462381D01*
X152280952Y-140462381D01*
X152090476Y-140414762D01*
X151995238Y-140367143D01*
X151900000Y-140271905D01*
X151852381Y-140129047D01*
X151852381Y-140033809D01*
X151900000Y-139890952D01*
X151947619Y-139843333D01*
X152852381Y-139414762D02*
X151852381Y-139414762D01*
X152852381Y-138843333D02*
X152280952Y-139271905D01*
X151852381Y-138843333D02*
X152423810Y-139414762D01*
X150312381Y-142700476D02*
X149836190Y-143033810D01*
X150312381Y-143271905D02*
X149312381Y-143271905D01*
X149312381Y-142890952D01*
X149360000Y-142795714D01*
X149407619Y-142748095D01*
X149502857Y-142700476D01*
X149645714Y-142700476D01*
X149740952Y-142748095D01*
X149788571Y-142795714D01*
X149836190Y-142890952D01*
X149836190Y-143271905D01*
X149788571Y-142271905D02*
X149788571Y-141938571D01*
X150312381Y-141795714D02*
X150312381Y-142271905D01*
X149312381Y-142271905D01*
X149312381Y-141795714D01*
X150264762Y-141414762D02*
X150312381Y-141271905D01*
X150312381Y-141033809D01*
X150264762Y-140938571D01*
X150217143Y-140890952D01*
X150121905Y-140843333D01*
X150026667Y-140843333D01*
X149931429Y-140890952D01*
X149883810Y-140938571D01*
X149836190Y-141033809D01*
X149788571Y-141224286D01*
X149740952Y-141319524D01*
X149693333Y-141367143D01*
X149598095Y-141414762D01*
X149502857Y-141414762D01*
X149407619Y-141367143D01*
X149360000Y-141319524D01*
X149312381Y-141224286D01*
X149312381Y-140986190D01*
X149360000Y-140843333D01*
X149788571Y-140414762D02*
X149788571Y-140081428D01*
X150312381Y-139938571D02*
X150312381Y-140414762D01*
X149312381Y-140414762D01*
X149312381Y-139938571D01*
X149312381Y-139652857D02*
X149312381Y-139081428D01*
X150312381Y-139367143D02*
X149312381Y-139367143D01*
X149140000Y-143510000D02*
X149140000Y-138986190D01*
X145232381Y-143271905D02*
X144232381Y-143271905D01*
X145232381Y-142224286D02*
X144756190Y-142557620D01*
X145232381Y-142795715D02*
X144232381Y-142795715D01*
X144232381Y-142414762D01*
X144280000Y-142319524D01*
X144327619Y-142271905D01*
X144422857Y-142224286D01*
X144565714Y-142224286D01*
X144660952Y-142271905D01*
X144708571Y-142319524D01*
X144756190Y-142414762D01*
X144756190Y-142795715D01*
X145327619Y-141129048D02*
X145280000Y-141224286D01*
X145184762Y-141319524D01*
X145041905Y-141462381D01*
X144994286Y-141557620D01*
X144994286Y-141652858D01*
X145232381Y-141605239D02*
X145184762Y-141700477D01*
X145089524Y-141795715D01*
X144899048Y-141843334D01*
X144565714Y-141843334D01*
X144375238Y-141795715D01*
X144280000Y-141700477D01*
X144232381Y-141605239D01*
X144232381Y-141414762D01*
X144280000Y-141319524D01*
X144375238Y-141224286D01*
X144565714Y-141176667D01*
X144899048Y-141176667D01*
X145089524Y-141224286D01*
X145184762Y-141319524D01*
X145232381Y-141414762D01*
X145232381Y-141605239D01*
X144060000Y-143510000D02*
X144060000Y-140986191D01*
X142692381Y-143271905D02*
X141692381Y-143271905D01*
X142692381Y-142700476D01*
X141692381Y-142700476D01*
X142692381Y-142224286D02*
X141692381Y-142224286D01*
X142406667Y-141890952D01*
X141692381Y-141557619D01*
X142692381Y-141557619D01*
X142692381Y-141081429D02*
X141692381Y-141081429D01*
X141520000Y-143510000D02*
X141520000Y-140843334D01*
X140152381Y-142700476D02*
X139676190Y-143033810D01*
X140152381Y-143271905D02*
X139152381Y-143271905D01*
X139152381Y-142890952D01*
X139200000Y-142795714D01*
X139247619Y-142748095D01*
X139342857Y-142700476D01*
X139485714Y-142700476D01*
X139580952Y-142748095D01*
X139628571Y-142795714D01*
X139676190Y-142890952D01*
X139676190Y-143271905D01*
X139104762Y-141557619D02*
X140390476Y-142414762D01*
X139152381Y-141319524D02*
X140152381Y-141081429D01*
X139438095Y-140890952D01*
X140152381Y-140700476D01*
X139152381Y-140462381D01*
X138980000Y-141462381D02*
X138980000Y-140319524D01*
X137612381Y-142700476D02*
X137136190Y-143033810D01*
X137612381Y-143271905D02*
X136612381Y-143271905D01*
X136612381Y-142890952D01*
X136660000Y-142795714D01*
X136707619Y-142748095D01*
X136802857Y-142700476D01*
X136945714Y-142700476D01*
X137040952Y-142748095D01*
X137088571Y-142795714D01*
X137136190Y-142890952D01*
X137136190Y-143271905D01*
X137088571Y-142271905D02*
X137088571Y-141938571D01*
X137612381Y-141795714D02*
X137612381Y-142271905D01*
X136612381Y-142271905D01*
X136612381Y-141795714D01*
X137326667Y-141414762D02*
X137326667Y-140938571D01*
X137612381Y-141510000D02*
X136612381Y-141176667D01*
X137612381Y-140843333D01*
X137612381Y-140510000D02*
X136612381Y-140510000D01*
X136612381Y-140271905D01*
X136660000Y-140129047D01*
X136755238Y-140033809D01*
X136850476Y-139986190D01*
X137040952Y-139938571D01*
X137183810Y-139938571D01*
X137374286Y-139986190D01*
X137469524Y-140033809D01*
X137564762Y-140129047D01*
X137612381Y-140271905D01*
X137612381Y-140510000D01*
X137136190Y-139319524D02*
X137612381Y-139319524D01*
X136612381Y-139652857D02*
X137136190Y-139319524D01*
X136612381Y-138986190D01*
X135024762Y-143319524D02*
X135072381Y-143176667D01*
X135072381Y-142938571D01*
X135024762Y-142843333D01*
X134977143Y-142795714D01*
X134881905Y-142748095D01*
X134786667Y-142748095D01*
X134691429Y-142795714D01*
X134643810Y-142843333D01*
X134596190Y-142938571D01*
X134548571Y-143129048D01*
X134500952Y-143224286D01*
X134453333Y-143271905D01*
X134358095Y-143319524D01*
X134262857Y-143319524D01*
X134167619Y-143271905D01*
X134120000Y-143224286D01*
X134072381Y-143129048D01*
X134072381Y-142890952D01*
X134120000Y-142748095D01*
X134596190Y-142129048D02*
X135072381Y-142129048D01*
X134072381Y-142462381D02*
X134596190Y-142129048D01*
X134072381Y-141795714D01*
X135072381Y-141462381D02*
X134072381Y-141462381D01*
X135072381Y-140890952D01*
X134072381Y-140890952D01*
X134977143Y-139843333D02*
X135024762Y-139890952D01*
X135072381Y-140033809D01*
X135072381Y-140129047D01*
X135024762Y-140271905D01*
X134929524Y-140367143D01*
X134834286Y-140414762D01*
X134643810Y-140462381D01*
X134500952Y-140462381D01*
X134310476Y-140414762D01*
X134215238Y-140367143D01*
X134120000Y-140271905D01*
X134072381Y-140129047D01*
X134072381Y-140033809D01*
X134120000Y-139890952D01*
X134167619Y-139843333D01*
X132532381Y-143271905D02*
X131532381Y-143271905D01*
X131532381Y-143033810D01*
X131580000Y-142890952D01*
X131675238Y-142795714D01*
X131770476Y-142748095D01*
X131960952Y-142700476D01*
X132103810Y-142700476D01*
X132294286Y-142748095D01*
X132389524Y-142795714D01*
X132484762Y-142890952D01*
X132532381Y-143033810D01*
X132532381Y-143271905D01*
X131532381Y-142081429D02*
X131532381Y-141986190D01*
X131580000Y-141890952D01*
X131627619Y-141843333D01*
X131722857Y-141795714D01*
X131913333Y-141748095D01*
X132151429Y-141748095D01*
X132341905Y-141795714D01*
X132437143Y-141843333D01*
X132484762Y-141890952D01*
X132532381Y-141986190D01*
X132532381Y-142081429D01*
X132484762Y-142176667D01*
X132437143Y-142224286D01*
X132341905Y-142271905D01*
X132151429Y-142319524D01*
X131913333Y-142319524D01*
X131722857Y-142271905D01*
X131627619Y-142224286D01*
X131580000Y-142176667D01*
X131532381Y-142081429D01*
X129992381Y-143271905D02*
X128992381Y-143271905D01*
X128992381Y-143033810D01*
X129040000Y-142890952D01*
X129135238Y-142795714D01*
X129230476Y-142748095D01*
X129420952Y-142700476D01*
X129563810Y-142700476D01*
X129754286Y-142748095D01*
X129849524Y-142795714D01*
X129944762Y-142890952D01*
X129992381Y-143033810D01*
X129992381Y-143271905D01*
X129992381Y-141748095D02*
X129992381Y-142319524D01*
X129992381Y-142033810D02*
X128992381Y-142033810D01*
X129135238Y-142129048D01*
X129230476Y-142224286D01*
X129278095Y-142319524D01*
X127452381Y-143271905D02*
X126452381Y-143271905D01*
X126452381Y-143033810D01*
X126500000Y-142890952D01*
X126595238Y-142795714D01*
X126690476Y-142748095D01*
X126880952Y-142700476D01*
X127023810Y-142700476D01*
X127214286Y-142748095D01*
X127309524Y-142795714D01*
X127404762Y-142890952D01*
X127452381Y-143033810D01*
X127452381Y-143271905D01*
X126547619Y-142319524D02*
X126500000Y-142271905D01*
X126452381Y-142176667D01*
X126452381Y-141938571D01*
X126500000Y-141843333D01*
X126547619Y-141795714D01*
X126642857Y-141748095D01*
X126738095Y-141748095D01*
X126880952Y-141795714D01*
X127452381Y-142367143D01*
X127452381Y-141748095D01*
X124912381Y-143271905D02*
X123912381Y-143271905D01*
X123912381Y-143033810D01*
X123960000Y-142890952D01*
X124055238Y-142795714D01*
X124150476Y-142748095D01*
X124340952Y-142700476D01*
X124483810Y-142700476D01*
X124674286Y-142748095D01*
X124769524Y-142795714D01*
X124864762Y-142890952D01*
X124912381Y-143033810D01*
X124912381Y-143271905D01*
X123912381Y-142367143D02*
X123912381Y-141748095D01*
X124293333Y-142081429D01*
X124293333Y-141938571D01*
X124340952Y-141843333D01*
X124388571Y-141795714D01*
X124483810Y-141748095D01*
X124721905Y-141748095D01*
X124817143Y-141795714D01*
X124864762Y-141843333D01*
X124912381Y-141938571D01*
X124912381Y-142224286D01*
X124864762Y-142319524D01*
X124817143Y-142367143D01*
X122372381Y-143271905D02*
X121372381Y-143271905D01*
X121372381Y-143033810D01*
X121420000Y-142890952D01*
X121515238Y-142795714D01*
X121610476Y-142748095D01*
X121800952Y-142700476D01*
X121943810Y-142700476D01*
X122134286Y-142748095D01*
X122229524Y-142795714D01*
X122324762Y-142890952D01*
X122372381Y-143033810D01*
X122372381Y-143271905D01*
X121705714Y-141843333D02*
X122372381Y-141843333D01*
X121324762Y-142081429D02*
X122039048Y-142319524D01*
X122039048Y-141700476D01*
X119832381Y-143271905D02*
X118832381Y-143271905D01*
X118832381Y-143033810D01*
X118880000Y-142890952D01*
X118975238Y-142795714D01*
X119070476Y-142748095D01*
X119260952Y-142700476D01*
X119403810Y-142700476D01*
X119594286Y-142748095D01*
X119689524Y-142795714D01*
X119784762Y-142890952D01*
X119832381Y-143033810D01*
X119832381Y-143271905D01*
X118832381Y-141795714D02*
X118832381Y-142271905D01*
X119308571Y-142319524D01*
X119260952Y-142271905D01*
X119213333Y-142176667D01*
X119213333Y-141938571D01*
X119260952Y-141843333D01*
X119308571Y-141795714D01*
X119403810Y-141748095D01*
X119641905Y-141748095D01*
X119737143Y-141795714D01*
X119784762Y-141843333D01*
X119832381Y-141938571D01*
X119832381Y-142176667D01*
X119784762Y-142271905D01*
X119737143Y-142319524D01*
X117292381Y-143271905D02*
X116292381Y-143271905D01*
X116292381Y-143033810D01*
X116340000Y-142890952D01*
X116435238Y-142795714D01*
X116530476Y-142748095D01*
X116720952Y-142700476D01*
X116863810Y-142700476D01*
X117054286Y-142748095D01*
X117149524Y-142795714D01*
X117244762Y-142890952D01*
X117292381Y-143033810D01*
X117292381Y-143271905D01*
X116292381Y-141843333D02*
X116292381Y-142033810D01*
X116340000Y-142129048D01*
X116387619Y-142176667D01*
X116530476Y-142271905D01*
X116720952Y-142319524D01*
X117101905Y-142319524D01*
X117197143Y-142271905D01*
X117244762Y-142224286D01*
X117292381Y-142129048D01*
X117292381Y-141938571D01*
X117244762Y-141843333D01*
X117197143Y-141795714D01*
X117101905Y-141748095D01*
X116863810Y-141748095D01*
X116768571Y-141795714D01*
X116720952Y-141843333D01*
X116673333Y-141938571D01*
X116673333Y-142129048D01*
X116720952Y-142224286D01*
X116768571Y-142271905D01*
X116863810Y-142319524D01*
X114752381Y-143271905D02*
X113752381Y-143271905D01*
X113752381Y-143033810D01*
X113800000Y-142890952D01*
X113895238Y-142795714D01*
X113990476Y-142748095D01*
X114180952Y-142700476D01*
X114323810Y-142700476D01*
X114514286Y-142748095D01*
X114609524Y-142795714D01*
X114704762Y-142890952D01*
X114752381Y-143033810D01*
X114752381Y-143271905D01*
X113752381Y-142367143D02*
X113752381Y-141700476D01*
X114752381Y-142129048D01*
X129215238Y-110910714D02*
X129215238Y-111720238D01*
X129167619Y-111815476D01*
X129120000Y-111863095D01*
X129024761Y-111910714D01*
X128881904Y-111910714D01*
X128786666Y-111863095D01*
X129215238Y-111529762D02*
X129120000Y-111577381D01*
X128929523Y-111577381D01*
X128834285Y-111529762D01*
X128786666Y-111482143D01*
X128739047Y-111386905D01*
X128739047Y-111101190D01*
X128786666Y-111005952D01*
X128834285Y-110958333D01*
X128929523Y-110910714D01*
X129120000Y-110910714D01*
X129215238Y-110958333D01*
X129691428Y-111577381D02*
X129691428Y-110910714D01*
X129691428Y-110577381D02*
X129643809Y-110625000D01*
X129691428Y-110672619D01*
X129739047Y-110625000D01*
X129691428Y-110577381D01*
X129691428Y-110672619D01*
X130024761Y-110910714D02*
X130405713Y-110910714D01*
X130167618Y-110577381D02*
X130167618Y-111434524D01*
X130215237Y-111529762D01*
X130310475Y-111577381D01*
X130405713Y-111577381D01*
X130739047Y-111577381D02*
X130739047Y-110577381D01*
X131167619Y-111577381D02*
X131167619Y-111053571D01*
X131120000Y-110958333D01*
X131024762Y-110910714D01*
X130881904Y-110910714D01*
X130786666Y-110958333D01*
X130739047Y-111005952D01*
X132072381Y-110910714D02*
X132072381Y-111577381D01*
X131643809Y-110910714D02*
X131643809Y-111434524D01*
X131691428Y-111529762D01*
X131786666Y-111577381D01*
X131929524Y-111577381D01*
X132024762Y-111529762D01*
X132072381Y-111482143D01*
X132548571Y-111577381D02*
X132548571Y-110577381D01*
X132548571Y-110958333D02*
X132643809Y-110910714D01*
X132834286Y-110910714D01*
X132929524Y-110958333D01*
X132977143Y-111005952D01*
X133024762Y-111101190D01*
X133024762Y-111386905D01*
X132977143Y-111482143D01*
X132929524Y-111529762D01*
X132834286Y-111577381D01*
X132643809Y-111577381D01*
X132548571Y-111529762D01*
X133453333Y-111482143D02*
X133500952Y-111529762D01*
X133453333Y-111577381D01*
X133405714Y-111529762D01*
X133453333Y-111482143D01*
X133453333Y-111577381D01*
X134358095Y-111529762D02*
X134262857Y-111577381D01*
X134072380Y-111577381D01*
X133977142Y-111529762D01*
X133929523Y-111482143D01*
X133881904Y-111386905D01*
X133881904Y-111101190D01*
X133929523Y-111005952D01*
X133977142Y-110958333D01*
X134072380Y-110910714D01*
X134262857Y-110910714D01*
X134358095Y-110958333D01*
X134929523Y-111577381D02*
X134834285Y-111529762D01*
X134786666Y-111482143D01*
X134739047Y-111386905D01*
X134739047Y-111101190D01*
X134786666Y-111005952D01*
X134834285Y-110958333D01*
X134929523Y-110910714D01*
X135072381Y-110910714D01*
X135167619Y-110958333D01*
X135215238Y-111005952D01*
X135262857Y-111101190D01*
X135262857Y-111386905D01*
X135215238Y-111482143D01*
X135167619Y-111529762D01*
X135072381Y-111577381D01*
X134929523Y-111577381D01*
X135691428Y-111577381D02*
X135691428Y-110910714D01*
X135691428Y-111005952D02*
X135739047Y-110958333D01*
X135834285Y-110910714D01*
X135977143Y-110910714D01*
X136072381Y-110958333D01*
X136120000Y-111053571D01*
X136120000Y-111577381D01*
X136120000Y-111053571D02*
X136167619Y-110958333D01*
X136262857Y-110910714D01*
X136405714Y-110910714D01*
X136500952Y-110958333D01*
X136548571Y-111053571D01*
X136548571Y-111577381D01*
X137739047Y-110529762D02*
X136881904Y-111815476D01*
X137929523Y-110910714D02*
X138310475Y-110910714D01*
X138072380Y-110577381D02*
X138072380Y-111434524D01*
X138119999Y-111529762D01*
X138215237Y-111577381D01*
X138310475Y-111577381D01*
X139024762Y-111529762D02*
X138929524Y-111577381D01*
X138739047Y-111577381D01*
X138643809Y-111529762D01*
X138596190Y-111434524D01*
X138596190Y-111053571D01*
X138643809Y-110958333D01*
X138739047Y-110910714D01*
X138929524Y-110910714D01*
X139024762Y-110958333D01*
X139072381Y-111053571D01*
X139072381Y-111148810D01*
X138596190Y-111244048D01*
X139500952Y-111577381D02*
X139500952Y-110577381D01*
X139500952Y-110958333D02*
X139596190Y-110910714D01*
X139786667Y-110910714D01*
X139881905Y-110958333D01*
X139929524Y-111005952D01*
X139977143Y-111101190D01*
X139977143Y-111386905D01*
X139929524Y-111482143D01*
X139881905Y-111529762D01*
X139786667Y-111577381D01*
X139596190Y-111577381D01*
X139500952Y-111529762D01*
X140548571Y-111577381D02*
X140453333Y-111529762D01*
X140405714Y-111434524D01*
X140405714Y-110577381D01*
X122572380Y-108751667D02*
X123048571Y-108751667D01*
X122477142Y-109037381D02*
X122810475Y-108037381D01*
X123143809Y-109037381D01*
X123477142Y-109037381D02*
X123477142Y-108370714D01*
X123477142Y-108561190D02*
X123524761Y-108465952D01*
X123572380Y-108418333D01*
X123667618Y-108370714D01*
X123762857Y-108370714D01*
X124524762Y-109037381D02*
X124524762Y-108037381D01*
X124524762Y-108989762D02*
X124429524Y-109037381D01*
X124239047Y-109037381D01*
X124143809Y-108989762D01*
X124096190Y-108942143D01*
X124048571Y-108846905D01*
X124048571Y-108561190D01*
X124096190Y-108465952D01*
X124143809Y-108418333D01*
X124239047Y-108370714D01*
X124429524Y-108370714D01*
X124524762Y-108418333D01*
X125429524Y-108370714D02*
X125429524Y-109037381D01*
X125000952Y-108370714D02*
X125000952Y-108894524D01*
X125048571Y-108989762D01*
X125143809Y-109037381D01*
X125286667Y-109037381D01*
X125381905Y-108989762D01*
X125429524Y-108942143D01*
X125905714Y-109037381D02*
X125905714Y-108370714D01*
X125905714Y-108037381D02*
X125858095Y-108085000D01*
X125905714Y-108132619D01*
X125953333Y-108085000D01*
X125905714Y-108037381D01*
X125905714Y-108132619D01*
X126381904Y-108370714D02*
X126381904Y-109037381D01*
X126381904Y-108465952D02*
X126429523Y-108418333D01*
X126524761Y-108370714D01*
X126667619Y-108370714D01*
X126762857Y-108418333D01*
X126810476Y-108513571D01*
X126810476Y-109037381D01*
X127429523Y-109037381D02*
X127334285Y-108989762D01*
X127286666Y-108942143D01*
X127239047Y-108846905D01*
X127239047Y-108561190D01*
X127286666Y-108465952D01*
X127334285Y-108418333D01*
X127429523Y-108370714D01*
X127572381Y-108370714D01*
X127667619Y-108418333D01*
X127715238Y-108465952D01*
X127762857Y-108561190D01*
X127762857Y-108846905D01*
X127715238Y-108942143D01*
X127667619Y-108989762D01*
X127572381Y-109037381D01*
X127429523Y-109037381D01*
X128953333Y-109037381D02*
X128953333Y-108037381D01*
X129286667Y-108751667D01*
X129620000Y-108037381D01*
X129620000Y-109037381D01*
X130477143Y-108989762D02*
X130381905Y-109037381D01*
X130191428Y-109037381D01*
X130096190Y-108989762D01*
X130048571Y-108894524D01*
X130048571Y-108513571D01*
X130096190Y-108418333D01*
X130191428Y-108370714D01*
X130381905Y-108370714D01*
X130477143Y-108418333D01*
X130524762Y-108513571D01*
X130524762Y-108608810D01*
X130048571Y-108704048D01*
X131381905Y-108370714D02*
X131381905Y-109180238D01*
X131334286Y-109275476D01*
X131286667Y-109323095D01*
X131191428Y-109370714D01*
X131048571Y-109370714D01*
X130953333Y-109323095D01*
X131381905Y-108989762D02*
X131286667Y-109037381D01*
X131096190Y-109037381D01*
X131000952Y-108989762D01*
X130953333Y-108942143D01*
X130905714Y-108846905D01*
X130905714Y-108561190D01*
X130953333Y-108465952D01*
X131000952Y-108418333D01*
X131096190Y-108370714D01*
X131286667Y-108370714D01*
X131381905Y-108418333D01*
X132286667Y-109037381D02*
X132286667Y-108513571D01*
X132239048Y-108418333D01*
X132143810Y-108370714D01*
X131953333Y-108370714D01*
X131858095Y-108418333D01*
X132286667Y-108989762D02*
X132191429Y-109037381D01*
X131953333Y-109037381D01*
X131858095Y-108989762D01*
X131810476Y-108894524D01*
X131810476Y-108799286D01*
X131858095Y-108704048D01*
X131953333Y-108656429D01*
X132191429Y-108656429D01*
X132286667Y-108608810D01*
X133477143Y-108132619D02*
X133524762Y-108085000D01*
X133620000Y-108037381D01*
X133858096Y-108037381D01*
X133953334Y-108085000D01*
X134000953Y-108132619D01*
X134048572Y-108227857D01*
X134048572Y-108323095D01*
X134000953Y-108465952D01*
X133429524Y-109037381D01*
X134048572Y-109037381D01*
X134953334Y-108037381D02*
X134477143Y-108037381D01*
X134429524Y-108513571D01*
X134477143Y-108465952D01*
X134572381Y-108418333D01*
X134810477Y-108418333D01*
X134905715Y-108465952D01*
X134953334Y-108513571D01*
X135000953Y-108608810D01*
X135000953Y-108846905D01*
X134953334Y-108942143D01*
X134905715Y-108989762D01*
X134810477Y-109037381D01*
X134572381Y-109037381D01*
X134477143Y-108989762D01*
X134429524Y-108942143D01*
X135858096Y-108037381D02*
X135667619Y-108037381D01*
X135572381Y-108085000D01*
X135524762Y-108132619D01*
X135429524Y-108275476D01*
X135381905Y-108465952D01*
X135381905Y-108846905D01*
X135429524Y-108942143D01*
X135477143Y-108989762D01*
X135572381Y-109037381D01*
X135762858Y-109037381D01*
X135858096Y-108989762D01*
X135905715Y-108942143D01*
X135953334Y-108846905D01*
X135953334Y-108608810D01*
X135905715Y-108513571D01*
X135858096Y-108465952D01*
X135762858Y-108418333D01*
X135572381Y-108418333D01*
X135477143Y-108465952D01*
X135429524Y-108513571D01*
X135381905Y-108608810D01*
X136572381Y-108037381D02*
X136667620Y-108037381D01*
X136762858Y-108085000D01*
X136810477Y-108132619D01*
X136858096Y-108227857D01*
X136905715Y-108418333D01*
X136905715Y-108656429D01*
X136858096Y-108846905D01*
X136810477Y-108942143D01*
X136762858Y-108989762D01*
X136667620Y-109037381D01*
X136572381Y-109037381D01*
X136477143Y-108989762D01*
X136429524Y-108942143D01*
X136381905Y-108846905D01*
X136334286Y-108656429D01*
X136334286Y-108418333D01*
X136381905Y-108227857D01*
X136429524Y-108132619D01*
X136477143Y-108085000D01*
X136572381Y-108037381D01*
X138429525Y-108513571D02*
X138572382Y-108561190D01*
X138620001Y-108608810D01*
X138667620Y-108704048D01*
X138667620Y-108846905D01*
X138620001Y-108942143D01*
X138572382Y-108989762D01*
X138477144Y-109037381D01*
X138096191Y-109037381D01*
X138096191Y-108037381D01*
X138429525Y-108037381D01*
X138524763Y-108085000D01*
X138572382Y-108132619D01*
X138620001Y-108227857D01*
X138620001Y-108323095D01*
X138572382Y-108418333D01*
X138524763Y-108465952D01*
X138429525Y-108513571D01*
X138096191Y-108513571D01*
X139524763Y-108370714D02*
X139524763Y-109037381D01*
X139096191Y-108370714D02*
X139096191Y-108894524D01*
X139143810Y-108989762D01*
X139239048Y-109037381D01*
X139381906Y-109037381D01*
X139477144Y-108989762D01*
X139524763Y-108942143D01*
X139953334Y-108989762D02*
X140048572Y-109037381D01*
X140239048Y-109037381D01*
X140334287Y-108989762D01*
X140381906Y-108894524D01*
X140381906Y-108846905D01*
X140334287Y-108751667D01*
X140239048Y-108704048D01*
X140096191Y-108704048D01*
X140000953Y-108656429D01*
X139953334Y-108561190D01*
X139953334Y-108513571D01*
X140000953Y-108418333D01*
X140096191Y-108370714D01*
X140239048Y-108370714D01*
X140334287Y-108418333D01*
X141572382Y-109037381D02*
X141572382Y-108037381D01*
X141905716Y-108751667D01*
X142239049Y-108037381D01*
X142239049Y-109037381D01*
X142858096Y-109037381D02*
X142762858Y-108989762D01*
X142715239Y-108942143D01*
X142667620Y-108846905D01*
X142667620Y-108561190D01*
X142715239Y-108465952D01*
X142762858Y-108418333D01*
X142858096Y-108370714D01*
X143000954Y-108370714D01*
X143096192Y-108418333D01*
X143143811Y-108465952D01*
X143191430Y-108561190D01*
X143191430Y-108846905D01*
X143143811Y-108942143D01*
X143096192Y-108989762D01*
X143000954Y-109037381D01*
X142858096Y-109037381D01*
X143620001Y-108370714D02*
X143620001Y-109037381D01*
X143620001Y-108465952D02*
X143667620Y-108418333D01*
X143762858Y-108370714D01*
X143905716Y-108370714D01*
X144000954Y-108418333D01*
X144048573Y-108513571D01*
X144048573Y-109037381D01*
X144524763Y-109037381D02*
X144524763Y-108370714D01*
X144524763Y-108037381D02*
X144477144Y-108085000D01*
X144524763Y-108132619D01*
X144572382Y-108085000D01*
X144524763Y-108037381D01*
X144524763Y-108132619D01*
X144858096Y-108370714D02*
X145239048Y-108370714D01*
X145000953Y-108037381D02*
X145000953Y-108894524D01*
X145048572Y-108989762D01*
X145143810Y-109037381D01*
X145239048Y-109037381D01*
X145715239Y-109037381D02*
X145620001Y-108989762D01*
X145572382Y-108942143D01*
X145524763Y-108846905D01*
X145524763Y-108561190D01*
X145572382Y-108465952D01*
X145620001Y-108418333D01*
X145715239Y-108370714D01*
X145858097Y-108370714D01*
X145953335Y-108418333D01*
X146000954Y-108465952D01*
X146048573Y-108561190D01*
X146048573Y-108846905D01*
X146000954Y-108942143D01*
X145953335Y-108989762D01*
X145858097Y-109037381D01*
X145715239Y-109037381D01*
X146477144Y-109037381D02*
X146477144Y-108370714D01*
X146477144Y-108561190D02*
X146524763Y-108465952D01*
X146572382Y-108418333D01*
X146667620Y-108370714D01*
X146762859Y-108370714D01*
D12*
X117298574Y-106572857D02*
X117512860Y-106644286D01*
X117584288Y-106715714D01*
X117655717Y-106858571D01*
X117655717Y-107072857D01*
X117584288Y-107215714D01*
X117512860Y-107287143D01*
X117370002Y-107358571D01*
X116798574Y-107358571D01*
X116798574Y-105858571D01*
X117298574Y-105858571D01*
X117441431Y-105930000D01*
X117512860Y-106001429D01*
X117584288Y-106144286D01*
X117584288Y-106287143D01*
X117512860Y-106430000D01*
X117441431Y-106501429D01*
X117298574Y-106572857D01*
X116798574Y-106572857D01*
X118298574Y-106572857D02*
X118798574Y-106572857D01*
X119012860Y-107358571D02*
X118298574Y-107358571D01*
X118298574Y-105858571D01*
X119012860Y-105858571D01*
X120298574Y-105858571D02*
X120012860Y-105858571D01*
X119870003Y-105930000D01*
X119798574Y-106001429D01*
X119655717Y-106215714D01*
X119584288Y-106501429D01*
X119584288Y-107072857D01*
X119655717Y-107215714D01*
X119727145Y-107287143D01*
X119870003Y-107358571D01*
X120155717Y-107358571D01*
X120298574Y-107287143D01*
X120370003Y-107215714D01*
X120441431Y-107072857D01*
X120441431Y-106715714D01*
X120370003Y-106572857D01*
X120298574Y-106501429D01*
X120155717Y-106430000D01*
X119870003Y-106430000D01*
X119727145Y-106501429D01*
X119655717Y-106572857D01*
X119584288Y-106715714D01*
X121798574Y-105858571D02*
X121084288Y-105858571D01*
X121012859Y-106572857D01*
X121084288Y-106501429D01*
X121227145Y-106430000D01*
X121584288Y-106430000D01*
X121727145Y-106501429D01*
X121798574Y-106572857D01*
X121870002Y-106715714D01*
X121870002Y-107072857D01*
X121798574Y-107215714D01*
X121727145Y-107287143D01*
X121584288Y-107358571D01*
X121227145Y-107358571D01*
X121084288Y-107287143D01*
X121012859Y-107215714D01*
X122798573Y-105858571D02*
X122941430Y-105858571D01*
X123084287Y-105930000D01*
X123155716Y-106001429D01*
X123227145Y-106144286D01*
X123298573Y-106430000D01*
X123298573Y-106787143D01*
X123227145Y-107072857D01*
X123155716Y-107215714D01*
X123084287Y-107287143D01*
X122941430Y-107358571D01*
X122798573Y-107358571D01*
X122655716Y-107287143D01*
X122584287Y-107215714D01*
X122512859Y-107072857D01*
X122441430Y-106787143D01*
X122441430Y-106430000D01*
X122512859Y-106144286D01*
X122584287Y-106001429D01*
X122655716Y-105930000D01*
X122798573Y-105858571D01*
X123870001Y-106001429D02*
X123941430Y-105930000D01*
X124084287Y-105858571D01*
X124441430Y-105858571D01*
X124584287Y-105930000D01*
X124655716Y-106001429D01*
X124727144Y-106144286D01*
X124727144Y-106287143D01*
X124655716Y-106501429D01*
X123798573Y-107358571D01*
X124727144Y-107358571D01*
X127012858Y-106572857D02*
X127227144Y-106644286D01*
X127298572Y-106715714D01*
X127370001Y-106858571D01*
X127370001Y-107072857D01*
X127298572Y-107215714D01*
X127227144Y-107287143D01*
X127084286Y-107358571D01*
X126512858Y-107358571D01*
X126512858Y-105858571D01*
X127012858Y-105858571D01*
X127155715Y-105930000D01*
X127227144Y-106001429D01*
X127298572Y-106144286D01*
X127298572Y-106287143D01*
X127227144Y-106430000D01*
X127155715Y-106501429D01*
X127012858Y-106572857D01*
X126512858Y-106572857D01*
X128655715Y-106358571D02*
X128655715Y-107358571D01*
X128012858Y-106358571D02*
X128012858Y-107144286D01*
X128084286Y-107287143D01*
X128227144Y-107358571D01*
X128441429Y-107358571D01*
X128584286Y-107287143D01*
X128655715Y-107215714D01*
X129370001Y-107358571D02*
X129370001Y-106358571D01*
X129370001Y-105858571D02*
X129298572Y-105930000D01*
X129370001Y-106001429D01*
X129441429Y-105930000D01*
X129370001Y-105858571D01*
X129370001Y-106001429D01*
X130298573Y-107358571D02*
X130155715Y-107287143D01*
X130084287Y-107144286D01*
X130084287Y-105858571D01*
X131512858Y-107358571D02*
X131512858Y-105858571D01*
X131512858Y-107287143D02*
X131370001Y-107358571D01*
X131084287Y-107358571D01*
X130941429Y-107287143D01*
X130870001Y-107215714D01*
X130798572Y-107072857D01*
X130798572Y-106644286D01*
X130870001Y-106501429D01*
X130941429Y-106430000D01*
X131084287Y-106358571D01*
X131370001Y-106358571D01*
X131512858Y-106430000D01*
X134012858Y-107358571D02*
X134012858Y-106572857D01*
X133941429Y-106430000D01*
X133798572Y-106358571D01*
X133512858Y-106358571D01*
X133370001Y-106430000D01*
X134012858Y-107287143D02*
X133870001Y-107358571D01*
X133512858Y-107358571D01*
X133370001Y-107287143D01*
X133298572Y-107144286D01*
X133298572Y-107001429D01*
X133370001Y-106858571D01*
X133512858Y-106787143D01*
X133870001Y-106787143D01*
X134012858Y-106715714D01*
X136512858Y-105858571D02*
X136227144Y-105858571D01*
X136084287Y-105930000D01*
X136012858Y-106001429D01*
X135870001Y-106215714D01*
X135798572Y-106501429D01*
X135798572Y-107072857D01*
X135870001Y-107215714D01*
X135941429Y-107287143D01*
X136084287Y-107358571D01*
X136370001Y-107358571D01*
X136512858Y-107287143D01*
X136584287Y-107215714D01*
X136655715Y-107072857D01*
X136655715Y-106715714D01*
X136584287Y-106572857D01*
X136512858Y-106501429D01*
X136370001Y-106430000D01*
X136084287Y-106430000D01*
X135941429Y-106501429D01*
X135870001Y-106572857D01*
X135798572Y-106715714D01*
X138012858Y-105858571D02*
X137298572Y-105858571D01*
X137227143Y-106572857D01*
X137298572Y-106501429D01*
X137441429Y-106430000D01*
X137798572Y-106430000D01*
X137941429Y-106501429D01*
X138012858Y-106572857D01*
X138084286Y-106715714D01*
X138084286Y-107072857D01*
X138012858Y-107215714D01*
X137941429Y-107287143D01*
X137798572Y-107358571D01*
X137441429Y-107358571D01*
X137298572Y-107287143D01*
X137227143Y-107215714D01*
X139012857Y-105858571D02*
X139155714Y-105858571D01*
X139298571Y-105930000D01*
X139370000Y-106001429D01*
X139441429Y-106144286D01*
X139512857Y-106430000D01*
X139512857Y-106787143D01*
X139441429Y-107072857D01*
X139370000Y-107215714D01*
X139298571Y-107287143D01*
X139155714Y-107358571D01*
X139012857Y-107358571D01*
X138870000Y-107287143D01*
X138798571Y-107215714D01*
X138727143Y-107072857D01*
X138655714Y-106787143D01*
X138655714Y-106430000D01*
X138727143Y-106144286D01*
X138798571Y-106001429D01*
X138870000Y-105930000D01*
X139012857Y-105858571D01*
X140084285Y-106001429D02*
X140155714Y-105930000D01*
X140298571Y-105858571D01*
X140655714Y-105858571D01*
X140798571Y-105930000D01*
X140870000Y-106001429D01*
X140941428Y-106144286D01*
X140941428Y-106287143D01*
X140870000Y-106501429D01*
X140012857Y-107358571D01*
X140941428Y-107358571D01*
X143369999Y-107287143D02*
X143227142Y-107358571D01*
X142941428Y-107358571D01*
X142798570Y-107287143D01*
X142727142Y-107215714D01*
X142655713Y-107072857D01*
X142655713Y-106644286D01*
X142727142Y-106501429D01*
X142798570Y-106430000D01*
X142941428Y-106358571D01*
X143227142Y-106358571D01*
X143369999Y-106430000D01*
X144227142Y-107358571D02*
X144084284Y-107287143D01*
X144012856Y-107215714D01*
X143941427Y-107072857D01*
X143941427Y-106644286D01*
X144012856Y-106501429D01*
X144084284Y-106430000D01*
X144227142Y-106358571D01*
X144441427Y-106358571D01*
X144584284Y-106430000D01*
X144655713Y-106501429D01*
X144727142Y-106644286D01*
X144727142Y-107072857D01*
X144655713Y-107215714D01*
X144584284Y-107287143D01*
X144441427Y-107358571D01*
X144227142Y-107358571D01*
X145369999Y-107358571D02*
X145369999Y-106358571D01*
X145369999Y-106501429D02*
X145441427Y-106430000D01*
X145584285Y-106358571D01*
X145798570Y-106358571D01*
X145941427Y-106430000D01*
X146012856Y-106572857D01*
X146012856Y-107358571D01*
X146012856Y-106572857D02*
X146084285Y-106430000D01*
X146227142Y-106358571D01*
X146441427Y-106358571D01*
X146584285Y-106430000D01*
X146655713Y-106572857D01*
X146655713Y-107358571D01*
X147369999Y-106358571D02*
X147369999Y-107858571D01*
X147369999Y-106430000D02*
X147512856Y-106358571D01*
X147798570Y-106358571D01*
X147941427Y-106430000D01*
X148012856Y-106501429D01*
X148084285Y-106644286D01*
X148084285Y-107072857D01*
X148012856Y-107215714D01*
X147941427Y-107287143D01*
X147798570Y-107358571D01*
X147512856Y-107358571D01*
X147369999Y-107287143D01*
X149369999Y-106358571D02*
X149369999Y-107358571D01*
X148727142Y-106358571D02*
X148727142Y-107144286D01*
X148798570Y-107287143D01*
X148941428Y-107358571D01*
X149155713Y-107358571D01*
X149298570Y-107287143D01*
X149369999Y-107215714D01*
X149869999Y-106358571D02*
X150441428Y-106358571D01*
X150084285Y-105858571D02*
X150084285Y-107144286D01*
X150155713Y-107287143D01*
X150298571Y-107358571D01*
X150441428Y-107358571D01*
X151512856Y-107287143D02*
X151369999Y-107358571D01*
X151084285Y-107358571D01*
X150941428Y-107287143D01*
X150869999Y-107144286D01*
X150869999Y-106572857D01*
X150941428Y-106430000D01*
X151084285Y-106358571D01*
X151369999Y-106358571D01*
X151512856Y-106430000D01*
X151584285Y-106572857D01*
X151584285Y-106715714D01*
X150869999Y-106858571D01*
X152227142Y-107358571D02*
X152227142Y-106358571D01*
X152227142Y-106644286D02*
X152298570Y-106501429D01*
X152369999Y-106430000D01*
X152512856Y-106358571D01*
X152655713Y-106358571D01*
D11*
X135024762Y-74104524D02*
X135072381Y-73961667D01*
X135072381Y-73723571D01*
X135024762Y-73628333D01*
X134977143Y-73580714D01*
X134881905Y-73533095D01*
X134786667Y-73533095D01*
X134691429Y-73580714D01*
X134643810Y-73628333D01*
X134596190Y-73723571D01*
X134548571Y-73914048D01*
X134500952Y-74009286D01*
X134453333Y-74056905D01*
X134358095Y-74104524D01*
X134262857Y-74104524D01*
X134167619Y-74056905D01*
X134120000Y-74009286D01*
X134072381Y-73914048D01*
X134072381Y-73675952D01*
X134120000Y-73533095D01*
X134596190Y-72914048D02*
X135072381Y-72914048D01*
X134072381Y-73247381D02*
X134596190Y-72914048D01*
X134072381Y-72580714D01*
X135072381Y-72247381D02*
X134072381Y-72247381D01*
X135072381Y-71675952D01*
X134072381Y-71675952D01*
X134977143Y-70628333D02*
X135024762Y-70675952D01*
X135072381Y-70818809D01*
X135072381Y-70914047D01*
X135024762Y-71056905D01*
X134929524Y-71152143D01*
X134834286Y-71199762D01*
X134643810Y-71247381D01*
X134500952Y-71247381D01*
X134310476Y-71199762D01*
X134215238Y-71152143D01*
X134120000Y-71056905D01*
X134072381Y-70914047D01*
X134072381Y-70818809D01*
X134120000Y-70675952D01*
X134167619Y-70628333D01*
X137612381Y-73485476D02*
X137136190Y-73818810D01*
X137612381Y-74056905D02*
X136612381Y-74056905D01*
X136612381Y-73675952D01*
X136660000Y-73580714D01*
X136707619Y-73533095D01*
X136802857Y-73485476D01*
X136945714Y-73485476D01*
X137040952Y-73533095D01*
X137088571Y-73580714D01*
X137136190Y-73675952D01*
X137136190Y-74056905D01*
X137088571Y-73056905D02*
X137088571Y-72723571D01*
X137612381Y-72580714D02*
X137612381Y-73056905D01*
X136612381Y-73056905D01*
X136612381Y-72580714D01*
X137326667Y-72199762D02*
X137326667Y-71723571D01*
X137612381Y-72295000D02*
X136612381Y-71961667D01*
X137612381Y-71628333D01*
X137612381Y-71295000D02*
X136612381Y-71295000D01*
X136612381Y-71056905D01*
X136660000Y-70914047D01*
X136755238Y-70818809D01*
X136850476Y-70771190D01*
X137040952Y-70723571D01*
X137183810Y-70723571D01*
X137374286Y-70771190D01*
X137469524Y-70818809D01*
X137564762Y-70914047D01*
X137612381Y-71056905D01*
X137612381Y-71295000D01*
X137136190Y-70104524D02*
X137612381Y-70104524D01*
X136612381Y-70437857D02*
X137136190Y-70104524D01*
X136612381Y-69771190D01*
X140152381Y-73485476D02*
X139676190Y-73818810D01*
X140152381Y-74056905D02*
X139152381Y-74056905D01*
X139152381Y-73675952D01*
X139200000Y-73580714D01*
X139247619Y-73533095D01*
X139342857Y-73485476D01*
X139485714Y-73485476D01*
X139580952Y-73533095D01*
X139628571Y-73580714D01*
X139676190Y-73675952D01*
X139676190Y-74056905D01*
X139104762Y-72342619D02*
X140390476Y-73199762D01*
X139152381Y-72104524D02*
X140152381Y-71866429D01*
X139438095Y-71675952D01*
X140152381Y-71485476D01*
X139152381Y-71247381D01*
X138980000Y-72247381D02*
X138980000Y-71104524D01*
X142692381Y-74056905D02*
X141692381Y-74056905D01*
X142692381Y-73485476D01*
X141692381Y-73485476D01*
X142692381Y-73009286D02*
X141692381Y-73009286D01*
X142406667Y-72675952D01*
X141692381Y-72342619D01*
X142692381Y-72342619D01*
X142692381Y-71866429D02*
X141692381Y-71866429D01*
X141520000Y-74295000D02*
X141520000Y-71628334D01*
X145232381Y-74056905D02*
X144232381Y-74056905D01*
X145232381Y-73009286D02*
X144756190Y-73342620D01*
X145232381Y-73580715D02*
X144232381Y-73580715D01*
X144232381Y-73199762D01*
X144280000Y-73104524D01*
X144327619Y-73056905D01*
X144422857Y-73009286D01*
X144565714Y-73009286D01*
X144660952Y-73056905D01*
X144708571Y-73104524D01*
X144756190Y-73199762D01*
X144756190Y-73580715D01*
X145327619Y-71914048D02*
X145280000Y-72009286D01*
X145184762Y-72104524D01*
X145041905Y-72247381D01*
X144994286Y-72342620D01*
X144994286Y-72437858D01*
X145232381Y-72390239D02*
X145184762Y-72485477D01*
X145089524Y-72580715D01*
X144899048Y-72628334D01*
X144565714Y-72628334D01*
X144375238Y-72580715D01*
X144280000Y-72485477D01*
X144232381Y-72390239D01*
X144232381Y-72199762D01*
X144280000Y-72104524D01*
X144375238Y-72009286D01*
X144565714Y-71961667D01*
X144899048Y-71961667D01*
X145089524Y-72009286D01*
X145184762Y-72104524D01*
X145232381Y-72199762D01*
X145232381Y-72390239D01*
X144060000Y-74295000D02*
X144060000Y-71771191D01*
X150312381Y-73485476D02*
X149836190Y-73818810D01*
X150312381Y-74056905D02*
X149312381Y-74056905D01*
X149312381Y-73675952D01*
X149360000Y-73580714D01*
X149407619Y-73533095D01*
X149502857Y-73485476D01*
X149645714Y-73485476D01*
X149740952Y-73533095D01*
X149788571Y-73580714D01*
X149836190Y-73675952D01*
X149836190Y-74056905D01*
X149788571Y-73056905D02*
X149788571Y-72723571D01*
X150312381Y-72580714D02*
X150312381Y-73056905D01*
X149312381Y-73056905D01*
X149312381Y-72580714D01*
X150264762Y-72199762D02*
X150312381Y-72056905D01*
X150312381Y-71818809D01*
X150264762Y-71723571D01*
X150217143Y-71675952D01*
X150121905Y-71628333D01*
X150026667Y-71628333D01*
X149931429Y-71675952D01*
X149883810Y-71723571D01*
X149836190Y-71818809D01*
X149788571Y-72009286D01*
X149740952Y-72104524D01*
X149693333Y-72152143D01*
X149598095Y-72199762D01*
X149502857Y-72199762D01*
X149407619Y-72152143D01*
X149360000Y-72104524D01*
X149312381Y-72009286D01*
X149312381Y-71771190D01*
X149360000Y-71628333D01*
X149788571Y-71199762D02*
X149788571Y-70866428D01*
X150312381Y-70723571D02*
X150312381Y-71199762D01*
X149312381Y-71199762D01*
X149312381Y-70723571D01*
X149312381Y-70437857D02*
X149312381Y-69866428D01*
X150312381Y-70152143D02*
X149312381Y-70152143D01*
X149140000Y-74295000D02*
X149140000Y-69771190D01*
X152757143Y-73485476D02*
X152804762Y-73533095D01*
X152852381Y-73675952D01*
X152852381Y-73771190D01*
X152804762Y-73914048D01*
X152709524Y-74009286D01*
X152614286Y-74056905D01*
X152423810Y-74104524D01*
X152280952Y-74104524D01*
X152090476Y-74056905D01*
X151995238Y-74009286D01*
X151900000Y-73914048D01*
X151852381Y-73771190D01*
X151852381Y-73675952D01*
X151900000Y-73533095D01*
X151947619Y-73485476D01*
X152852381Y-72580714D02*
X152852381Y-73056905D01*
X151852381Y-73056905D01*
X151852381Y-72056905D02*
X151852381Y-71866428D01*
X151900000Y-71771190D01*
X151995238Y-71675952D01*
X152185714Y-71628333D01*
X152519048Y-71628333D01*
X152709524Y-71675952D01*
X152804762Y-71771190D01*
X152852381Y-71866428D01*
X152852381Y-72056905D01*
X152804762Y-72152143D01*
X152709524Y-72247381D01*
X152519048Y-72295000D01*
X152185714Y-72295000D01*
X151995238Y-72247381D01*
X151900000Y-72152143D01*
X151852381Y-72056905D01*
X152757143Y-70628333D02*
X152804762Y-70675952D01*
X152852381Y-70818809D01*
X152852381Y-70914047D01*
X152804762Y-71056905D01*
X152709524Y-71152143D01*
X152614286Y-71199762D01*
X152423810Y-71247381D01*
X152280952Y-71247381D01*
X152090476Y-71199762D01*
X151995238Y-71152143D01*
X151900000Y-71056905D01*
X151852381Y-70914047D01*
X151852381Y-70818809D01*
X151900000Y-70675952D01*
X151947619Y-70628333D01*
X152852381Y-70199762D02*
X151852381Y-70199762D01*
X152852381Y-69628333D02*
X152280952Y-70056905D01*
X151852381Y-69628333D02*
X152423810Y-70199762D01*
X154392381Y-74199762D02*
X155392381Y-73866429D01*
X154392381Y-73533095D01*
X155297143Y-72628333D02*
X155344762Y-72675952D01*
X155392381Y-72818809D01*
X155392381Y-72914047D01*
X155344762Y-73056905D01*
X155249524Y-73152143D01*
X155154286Y-73199762D01*
X154963810Y-73247381D01*
X154820952Y-73247381D01*
X154630476Y-73199762D01*
X154535238Y-73152143D01*
X154440000Y-73056905D01*
X154392381Y-72914047D01*
X154392381Y-72818809D01*
X154440000Y-72675952D01*
X154487619Y-72628333D01*
X155297143Y-71628333D02*
X155344762Y-71675952D01*
X155392381Y-71818809D01*
X155392381Y-71914047D01*
X155344762Y-72056905D01*
X155249524Y-72152143D01*
X155154286Y-72199762D01*
X154963810Y-72247381D01*
X154820952Y-72247381D01*
X154630476Y-72199762D01*
X154535238Y-72152143D01*
X154440000Y-72056905D01*
X154392381Y-71914047D01*
X154392381Y-71818809D01*
X154440000Y-71675952D01*
X154487619Y-71628333D01*
X156980000Y-73533095D02*
X156932381Y-73628333D01*
X156932381Y-73771190D01*
X156980000Y-73914048D01*
X157075238Y-74009286D01*
X157170476Y-74056905D01*
X157360952Y-74104524D01*
X157503810Y-74104524D01*
X157694286Y-74056905D01*
X157789524Y-74009286D01*
X157884762Y-73914048D01*
X157932381Y-73771190D01*
X157932381Y-73675952D01*
X157884762Y-73533095D01*
X157837143Y-73485476D01*
X157503810Y-73485476D01*
X157503810Y-73675952D01*
X157932381Y-73056905D02*
X156932381Y-73056905D01*
X157932381Y-72485476D01*
X156932381Y-72485476D01*
X157932381Y-72009286D02*
X156932381Y-72009286D01*
X156932381Y-71771191D01*
X156980000Y-71628333D01*
X157075238Y-71533095D01*
X157170476Y-71485476D01*
X157360952Y-71437857D01*
X157503810Y-71437857D01*
X157694286Y-71485476D01*
X157789524Y-71533095D01*
X157884762Y-71628333D01*
X157932381Y-71771191D01*
X157932381Y-72009286D01*
X195746667Y-74104524D02*
X195746667Y-73628333D01*
X196032381Y-74199762D02*
X195032381Y-73866429D01*
X196032381Y-73533095D01*
X196032381Y-72675952D02*
X196032381Y-73247381D01*
X196032381Y-72961667D02*
X195032381Y-72961667D01*
X195175238Y-73056905D01*
X195270476Y-73152143D01*
X195318095Y-73247381D01*
X195365714Y-71818809D02*
X196032381Y-71818809D01*
X194984762Y-72056905D02*
X195699048Y-72295000D01*
X195699048Y-71675952D01*
X193206667Y-74104524D02*
X193206667Y-73628333D01*
X193492381Y-74199762D02*
X192492381Y-73866429D01*
X193492381Y-73533095D01*
X193492381Y-72675952D02*
X193492381Y-73247381D01*
X193492381Y-72961667D02*
X192492381Y-72961667D01*
X192635238Y-73056905D01*
X192730476Y-73152143D01*
X192778095Y-73247381D01*
X192492381Y-72342619D02*
X192492381Y-71723571D01*
X192873333Y-72056905D01*
X192873333Y-71914047D01*
X192920952Y-71818809D01*
X192968571Y-71771190D01*
X193063810Y-71723571D01*
X193301905Y-71723571D01*
X193397143Y-71771190D01*
X193444762Y-71818809D01*
X193492381Y-71914047D01*
X193492381Y-72199762D01*
X193444762Y-72295000D01*
X193397143Y-72342619D01*
X190666667Y-74104524D02*
X190666667Y-73628333D01*
X190952381Y-74199762D02*
X189952381Y-73866429D01*
X190952381Y-73533095D01*
X190952381Y-72675952D02*
X190952381Y-73247381D01*
X190952381Y-72961667D02*
X189952381Y-72961667D01*
X190095238Y-73056905D01*
X190190476Y-73152143D01*
X190238095Y-73247381D01*
X190047619Y-72295000D02*
X190000000Y-72247381D01*
X189952381Y-72152143D01*
X189952381Y-71914047D01*
X190000000Y-71818809D01*
X190047619Y-71771190D01*
X190142857Y-71723571D01*
X190238095Y-71723571D01*
X190380952Y-71771190D01*
X190952381Y-72342619D01*
X190952381Y-71723571D01*
X188126667Y-74104524D02*
X188126667Y-73628333D01*
X188412381Y-74199762D02*
X187412381Y-73866429D01*
X188412381Y-73533095D01*
X188412381Y-72675952D02*
X188412381Y-73247381D01*
X188412381Y-72961667D02*
X187412381Y-72961667D01*
X187555238Y-73056905D01*
X187650476Y-73152143D01*
X187698095Y-73247381D01*
X188412381Y-71723571D02*
X188412381Y-72295000D01*
X188412381Y-72009286D02*
X187412381Y-72009286D01*
X187555238Y-72104524D01*
X187650476Y-72199762D01*
X187698095Y-72295000D01*
X185586667Y-74104524D02*
X185586667Y-73628333D01*
X185872381Y-74199762D02*
X184872381Y-73866429D01*
X185872381Y-73533095D01*
X185872381Y-72675952D02*
X185872381Y-73247381D01*
X185872381Y-72961667D02*
X184872381Y-72961667D01*
X185015238Y-73056905D01*
X185110476Y-73152143D01*
X185158095Y-73247381D01*
X184872381Y-72056905D02*
X184872381Y-71961666D01*
X184920000Y-71866428D01*
X184967619Y-71818809D01*
X185062857Y-71771190D01*
X185253333Y-71723571D01*
X185491429Y-71723571D01*
X185681905Y-71771190D01*
X185777143Y-71818809D01*
X185824762Y-71866428D01*
X185872381Y-71961666D01*
X185872381Y-72056905D01*
X185824762Y-72152143D01*
X185777143Y-72199762D01*
X185681905Y-72247381D01*
X185491429Y-72295000D01*
X185253333Y-72295000D01*
X185062857Y-72247381D01*
X184967619Y-72199762D01*
X184920000Y-72152143D01*
X184872381Y-72056905D01*
X183046667Y-74104524D02*
X183046667Y-73628333D01*
X183332381Y-74199762D02*
X182332381Y-73866429D01*
X183332381Y-73533095D01*
X183332381Y-73152143D02*
X183332381Y-72961667D01*
X183284762Y-72866428D01*
X183237143Y-72818809D01*
X183094286Y-72723571D01*
X182903810Y-72675952D01*
X182522857Y-72675952D01*
X182427619Y-72723571D01*
X182380000Y-72771190D01*
X182332381Y-72866428D01*
X182332381Y-73056905D01*
X182380000Y-73152143D01*
X182427619Y-73199762D01*
X182522857Y-73247381D01*
X182760952Y-73247381D01*
X182856190Y-73199762D01*
X182903810Y-73152143D01*
X182951429Y-73056905D01*
X182951429Y-72866428D01*
X182903810Y-72771190D01*
X182856190Y-72723571D01*
X182760952Y-72675952D01*
X180506667Y-74104524D02*
X180506667Y-73628333D01*
X180792381Y-74199762D02*
X179792381Y-73866429D01*
X180792381Y-73533095D01*
X180220952Y-73056905D02*
X180173333Y-73152143D01*
X180125714Y-73199762D01*
X180030476Y-73247381D01*
X179982857Y-73247381D01*
X179887619Y-73199762D01*
X179840000Y-73152143D01*
X179792381Y-73056905D01*
X179792381Y-72866428D01*
X179840000Y-72771190D01*
X179887619Y-72723571D01*
X179982857Y-72675952D01*
X180030476Y-72675952D01*
X180125714Y-72723571D01*
X180173333Y-72771190D01*
X180220952Y-72866428D01*
X180220952Y-73056905D01*
X180268571Y-73152143D01*
X180316190Y-73199762D01*
X180411429Y-73247381D01*
X180601905Y-73247381D01*
X180697143Y-73199762D01*
X180744762Y-73152143D01*
X180792381Y-73056905D01*
X180792381Y-72866428D01*
X180744762Y-72771190D01*
X180697143Y-72723571D01*
X180601905Y-72675952D01*
X180411429Y-72675952D01*
X180316190Y-72723571D01*
X180268571Y-72771190D01*
X180220952Y-72866428D01*
X177966667Y-74104524D02*
X177966667Y-73628333D01*
X178252381Y-74199762D02*
X177252381Y-73866429D01*
X178252381Y-73533095D01*
X177252381Y-73295000D02*
X177252381Y-72628333D01*
X178252381Y-73056905D01*
X175426667Y-74104524D02*
X175426667Y-73628333D01*
X175712381Y-74199762D02*
X174712381Y-73866429D01*
X175712381Y-73533095D01*
X174712381Y-72771190D02*
X174712381Y-72961667D01*
X174760000Y-73056905D01*
X174807619Y-73104524D01*
X174950476Y-73199762D01*
X175140952Y-73247381D01*
X175521905Y-73247381D01*
X175617143Y-73199762D01*
X175664762Y-73152143D01*
X175712381Y-73056905D01*
X175712381Y-72866428D01*
X175664762Y-72771190D01*
X175617143Y-72723571D01*
X175521905Y-72675952D01*
X175283810Y-72675952D01*
X175188571Y-72723571D01*
X175140952Y-72771190D01*
X175093333Y-72866428D01*
X175093333Y-73056905D01*
X175140952Y-73152143D01*
X175188571Y-73199762D01*
X175283810Y-73247381D01*
X172886667Y-74104524D02*
X172886667Y-73628333D01*
X173172381Y-74199762D02*
X172172381Y-73866429D01*
X173172381Y-73533095D01*
X172172381Y-72723571D02*
X172172381Y-73199762D01*
X172648571Y-73247381D01*
X172600952Y-73199762D01*
X172553333Y-73104524D01*
X172553333Y-72866428D01*
X172600952Y-72771190D01*
X172648571Y-72723571D01*
X172743810Y-72675952D01*
X172981905Y-72675952D01*
X173077143Y-72723571D01*
X173124762Y-72771190D01*
X173172381Y-72866428D01*
X173172381Y-73104524D01*
X173124762Y-73199762D01*
X173077143Y-73247381D01*
X170346667Y-74104524D02*
X170346667Y-73628333D01*
X170632381Y-74199762D02*
X169632381Y-73866429D01*
X170632381Y-73533095D01*
X169965714Y-72771190D02*
X170632381Y-72771190D01*
X169584762Y-73009286D02*
X170299048Y-73247381D01*
X170299048Y-72628333D01*
X167806667Y-74104524D02*
X167806667Y-73628333D01*
X168092381Y-74199762D02*
X167092381Y-73866429D01*
X168092381Y-73533095D01*
X167092381Y-73295000D02*
X167092381Y-72675952D01*
X167473333Y-73009286D01*
X167473333Y-72866428D01*
X167520952Y-72771190D01*
X167568571Y-72723571D01*
X167663810Y-72675952D01*
X167901905Y-72675952D01*
X167997143Y-72723571D01*
X168044762Y-72771190D01*
X168092381Y-72866428D01*
X168092381Y-73152143D01*
X168044762Y-73247381D01*
X167997143Y-73295000D01*
X165266667Y-74104524D02*
X165266667Y-73628333D01*
X165552381Y-74199762D02*
X164552381Y-73866429D01*
X165552381Y-73533095D01*
X164647619Y-73247381D02*
X164600000Y-73199762D01*
X164552381Y-73104524D01*
X164552381Y-72866428D01*
X164600000Y-72771190D01*
X164647619Y-72723571D01*
X164742857Y-72675952D01*
X164838095Y-72675952D01*
X164980952Y-72723571D01*
X165552381Y-73295000D01*
X165552381Y-72675952D01*
X162726667Y-74104524D02*
X162726667Y-73628333D01*
X163012381Y-74199762D02*
X162012381Y-73866429D01*
X163012381Y-73533095D01*
X163012381Y-72675952D02*
X163012381Y-73247381D01*
X163012381Y-72961667D02*
X162012381Y-72961667D01*
X162155238Y-73056905D01*
X162250476Y-73152143D01*
X162298095Y-73247381D01*
X160186667Y-74104524D02*
X160186667Y-73628333D01*
X160472381Y-74199762D02*
X159472381Y-73866429D01*
X160472381Y-73533095D01*
X159472381Y-73009286D02*
X159472381Y-72914047D01*
X159520000Y-72818809D01*
X159567619Y-72771190D01*
X159662857Y-72723571D01*
X159853333Y-72675952D01*
X160091429Y-72675952D01*
X160281905Y-72723571D01*
X160377143Y-72771190D01*
X160424762Y-72818809D01*
X160472381Y-72914047D01*
X160472381Y-73009286D01*
X160424762Y-73104524D01*
X160377143Y-73152143D01*
X160281905Y-73199762D01*
X160091429Y-73247381D01*
X159853333Y-73247381D01*
X159662857Y-73199762D01*
X159567619Y-73152143D01*
X159520000Y-73104524D01*
X159472381Y-73009286D01*
X132532381Y-74056905D02*
X131532381Y-74056905D01*
X131532381Y-73818810D01*
X131580000Y-73675952D01*
X131675238Y-73580714D01*
X131770476Y-73533095D01*
X131960952Y-73485476D01*
X132103810Y-73485476D01*
X132294286Y-73533095D01*
X132389524Y-73580714D01*
X132484762Y-73675952D01*
X132532381Y-73818810D01*
X132532381Y-74056905D01*
X131532381Y-72866429D02*
X131532381Y-72771190D01*
X131580000Y-72675952D01*
X131627619Y-72628333D01*
X131722857Y-72580714D01*
X131913333Y-72533095D01*
X132151429Y-72533095D01*
X132341905Y-72580714D01*
X132437143Y-72628333D01*
X132484762Y-72675952D01*
X132532381Y-72771190D01*
X132532381Y-72866429D01*
X132484762Y-72961667D01*
X132437143Y-73009286D01*
X132341905Y-73056905D01*
X132151429Y-73104524D01*
X131913333Y-73104524D01*
X131722857Y-73056905D01*
X131627619Y-73009286D01*
X131580000Y-72961667D01*
X131532381Y-72866429D01*
X129992381Y-74056905D02*
X128992381Y-74056905D01*
X128992381Y-73818810D01*
X129040000Y-73675952D01*
X129135238Y-73580714D01*
X129230476Y-73533095D01*
X129420952Y-73485476D01*
X129563810Y-73485476D01*
X129754286Y-73533095D01*
X129849524Y-73580714D01*
X129944762Y-73675952D01*
X129992381Y-73818810D01*
X129992381Y-74056905D01*
X129992381Y-72533095D02*
X129992381Y-73104524D01*
X129992381Y-72818810D02*
X128992381Y-72818810D01*
X129135238Y-72914048D01*
X129230476Y-73009286D01*
X129278095Y-73104524D01*
X127452381Y-74056905D02*
X126452381Y-74056905D01*
X126452381Y-73818810D01*
X126500000Y-73675952D01*
X126595238Y-73580714D01*
X126690476Y-73533095D01*
X126880952Y-73485476D01*
X127023810Y-73485476D01*
X127214286Y-73533095D01*
X127309524Y-73580714D01*
X127404762Y-73675952D01*
X127452381Y-73818810D01*
X127452381Y-74056905D01*
X126547619Y-73104524D02*
X126500000Y-73056905D01*
X126452381Y-72961667D01*
X126452381Y-72723571D01*
X126500000Y-72628333D01*
X126547619Y-72580714D01*
X126642857Y-72533095D01*
X126738095Y-72533095D01*
X126880952Y-72580714D01*
X127452381Y-73152143D01*
X127452381Y-72533095D01*
X124912381Y-74056905D02*
X123912381Y-74056905D01*
X123912381Y-73818810D01*
X123960000Y-73675952D01*
X124055238Y-73580714D01*
X124150476Y-73533095D01*
X124340952Y-73485476D01*
X124483810Y-73485476D01*
X124674286Y-73533095D01*
X124769524Y-73580714D01*
X124864762Y-73675952D01*
X124912381Y-73818810D01*
X124912381Y-74056905D01*
X123912381Y-73152143D02*
X123912381Y-72533095D01*
X124293333Y-72866429D01*
X124293333Y-72723571D01*
X124340952Y-72628333D01*
X124388571Y-72580714D01*
X124483810Y-72533095D01*
X124721905Y-72533095D01*
X124817143Y-72580714D01*
X124864762Y-72628333D01*
X124912381Y-72723571D01*
X124912381Y-73009286D01*
X124864762Y-73104524D01*
X124817143Y-73152143D01*
X122372381Y-74056905D02*
X121372381Y-74056905D01*
X121372381Y-73818810D01*
X121420000Y-73675952D01*
X121515238Y-73580714D01*
X121610476Y-73533095D01*
X121800952Y-73485476D01*
X121943810Y-73485476D01*
X122134286Y-73533095D01*
X122229524Y-73580714D01*
X122324762Y-73675952D01*
X122372381Y-73818810D01*
X122372381Y-74056905D01*
X121705714Y-72628333D02*
X122372381Y-72628333D01*
X121324762Y-72866429D02*
X122039048Y-73104524D01*
X122039048Y-72485476D01*
X119832381Y-74056905D02*
X118832381Y-74056905D01*
X118832381Y-73818810D01*
X118880000Y-73675952D01*
X118975238Y-73580714D01*
X119070476Y-73533095D01*
X119260952Y-73485476D01*
X119403810Y-73485476D01*
X119594286Y-73533095D01*
X119689524Y-73580714D01*
X119784762Y-73675952D01*
X119832381Y-73818810D01*
X119832381Y-74056905D01*
X118832381Y-72580714D02*
X118832381Y-73056905D01*
X119308571Y-73104524D01*
X119260952Y-73056905D01*
X119213333Y-72961667D01*
X119213333Y-72723571D01*
X119260952Y-72628333D01*
X119308571Y-72580714D01*
X119403810Y-72533095D01*
X119641905Y-72533095D01*
X119737143Y-72580714D01*
X119784762Y-72628333D01*
X119832381Y-72723571D01*
X119832381Y-72961667D01*
X119784762Y-73056905D01*
X119737143Y-73104524D01*
X117292381Y-74056905D02*
X116292381Y-74056905D01*
X116292381Y-73818810D01*
X116340000Y-73675952D01*
X116435238Y-73580714D01*
X116530476Y-73533095D01*
X116720952Y-73485476D01*
X116863810Y-73485476D01*
X117054286Y-73533095D01*
X117149524Y-73580714D01*
X117244762Y-73675952D01*
X117292381Y-73818810D01*
X117292381Y-74056905D01*
X116292381Y-72628333D02*
X116292381Y-72818810D01*
X116340000Y-72914048D01*
X116387619Y-72961667D01*
X116530476Y-73056905D01*
X116720952Y-73104524D01*
X117101905Y-73104524D01*
X117197143Y-73056905D01*
X117244762Y-73009286D01*
X117292381Y-72914048D01*
X117292381Y-72723571D01*
X117244762Y-72628333D01*
X117197143Y-72580714D01*
X117101905Y-72533095D01*
X116863810Y-72533095D01*
X116768571Y-72580714D01*
X116720952Y-72628333D01*
X116673333Y-72723571D01*
X116673333Y-72914048D01*
X116720952Y-73009286D01*
X116768571Y-73056905D01*
X116863810Y-73104524D01*
X114752381Y-74056905D02*
X113752381Y-74056905D01*
X113752381Y-73818810D01*
X113800000Y-73675952D01*
X113895238Y-73580714D01*
X113990476Y-73533095D01*
X114180952Y-73485476D01*
X114323810Y-73485476D01*
X114514286Y-73533095D01*
X114609524Y-73580714D01*
X114704762Y-73675952D01*
X114752381Y-73818810D01*
X114752381Y-74056905D01*
X113752381Y-73152143D02*
X113752381Y-72485476D01*
X114752381Y-72914048D01*
D13*
X198755000Y-113030000D02*
X198755000Y-144145000D01*
X198120000Y-144145000D02*
X198120000Y-113030000D01*
X197485000Y-113030000D02*
X197485000Y-144145000D01*
X198120000Y-106680000D02*
X198120000Y-89535000D01*
X197485000Y-89535000D02*
X197485000Y-106680000D01*
X197485000Y-77470000D02*
X197485000Y-83185000D01*
X198120000Y-77470000D02*
X198120000Y-83185000D01*
X198755000Y-106680000D02*
X198755000Y-77470000D01*
X198755000Y-67310000D02*
X198755000Y-74930000D01*
X198120000Y-74930000D02*
X198120000Y-67310000D01*
X197485000Y-67310000D02*
X197485000Y-74930000D01*
X198120000Y-60960000D02*
X198120000Y-52070000D01*
X198755000Y-52070000D02*
X198755000Y-60960000D01*
X198755000Y-48260000D02*
X198755000Y-49530000D01*
X198120000Y-48260000D02*
X198120000Y-49530000D01*
X197485000Y-49530000D02*
X197485000Y-48260000D01*
X197485000Y-60960000D02*
X197485000Y-52070000D01*
X196850000Y-89535000D02*
X196850000Y-147320000D01*
X196850000Y-48260000D02*
X196850000Y-83185000D01*
D11*
X198572381Y-111735952D02*
X197572381Y-111735952D01*
X197572381Y-111354999D01*
X197620000Y-111259761D01*
X197667619Y-111212142D01*
X197762857Y-111164523D01*
X197905714Y-111164523D01*
X198000952Y-111212142D01*
X198048571Y-111259761D01*
X198096190Y-111354999D01*
X198096190Y-111735952D01*
X198572381Y-110735952D02*
X197572381Y-110735952D01*
X198572381Y-110259762D02*
X197572381Y-110259762D01*
X198572381Y-109688333D01*
X197572381Y-109688333D01*
X198572381Y-107926428D02*
X198572381Y-108497857D01*
X198572381Y-108212143D02*
X197572381Y-108212143D01*
X197715238Y-108307381D01*
X197810476Y-108402619D01*
X197858095Y-108497857D01*
X198572381Y-66015952D02*
X197572381Y-66015952D01*
X197572381Y-65634999D01*
X197620000Y-65539761D01*
X197667619Y-65492142D01*
X197762857Y-65444523D01*
X197905714Y-65444523D01*
X198000952Y-65492142D01*
X198048571Y-65539761D01*
X198096190Y-65634999D01*
X198096190Y-66015952D01*
X198572381Y-65015952D02*
X197572381Y-65015952D01*
X198572381Y-64539762D02*
X197572381Y-64539762D01*
X198572381Y-63968333D01*
X197572381Y-63968333D01*
X198572381Y-62206428D02*
X198572381Y-62777857D01*
X198572381Y-62492143D02*
X197572381Y-62492143D01*
X197715238Y-62587381D01*
X197810476Y-62682619D01*
X197858095Y-62777857D01*
D14*
X199450000Y-146855000D02*
X100270000Y-146855000D01*
X100270000Y-146855000D02*
X100270000Y-149515000D01*
X100270000Y-149515000D02*
X199450000Y-149515000D01*
X199450000Y-149515000D02*
X199450000Y-146855000D01*
X198500000Y-149515000D02*
X198500000Y-155515000D01*
X198500000Y-155515000D02*
X197740000Y-155515000D01*
X197740000Y-155515000D02*
X197740000Y-149515000D01*
X198440000Y-149515000D02*
X198440000Y-155515000D01*
X198320000Y-149515000D02*
X198320000Y-155515000D01*
X198200000Y-149515000D02*
X198200000Y-155515000D01*
X198080000Y-149515000D02*
X198080000Y-155515000D01*
X197960000Y-149515000D02*
X197960000Y-155515000D01*
X197840000Y-149515000D02*
X197840000Y-155515000D01*
X198500000Y-146525000D02*
X198500000Y-146855000D01*
X197740000Y-146525000D02*
X197740000Y-146855000D01*
X196850000Y-146855000D02*
X196850000Y-149515000D01*
X195960000Y-149515000D02*
X195960000Y-155515000D01*
X195960000Y-155515000D02*
X195200000Y-155515000D01*
X195200000Y-155515000D02*
X195200000Y-149515000D01*
X195960000Y-146457929D02*
X195960000Y-146855000D01*
X195200000Y-146457929D02*
X195200000Y-146855000D01*
X194310000Y-146855000D02*
X194310000Y-149515000D01*
X193420000Y-149515000D02*
X193420000Y-155515000D01*
X193420000Y-155515000D02*
X192660000Y-155515000D01*
X192660000Y-155515000D02*
X192660000Y-149515000D01*
X193420000Y-146457929D02*
X193420000Y-146855000D01*
X192660000Y-146457929D02*
X192660000Y-146855000D01*
X191770000Y-146855000D02*
X191770000Y-149515000D01*
X190880000Y-149515000D02*
X190880000Y-155515000D01*
X190880000Y-155515000D02*
X190120000Y-155515000D01*
X190120000Y-155515000D02*
X190120000Y-149515000D01*
X190880000Y-146457929D02*
X190880000Y-146855000D01*
X190120000Y-146457929D02*
X190120000Y-146855000D01*
X189230000Y-146855000D02*
X189230000Y-149515000D01*
X188340000Y-149515000D02*
X188340000Y-155515000D01*
X188340000Y-155515000D02*
X187580000Y-155515000D01*
X187580000Y-155515000D02*
X187580000Y-149515000D01*
X188340000Y-146457929D02*
X188340000Y-146855000D01*
X187580000Y-146457929D02*
X187580000Y-146855000D01*
X186690000Y-146855000D02*
X186690000Y-149515000D01*
X185800000Y-149515000D02*
X185800000Y-155515000D01*
X185800000Y-155515000D02*
X185040000Y-155515000D01*
X185040000Y-155515000D02*
X185040000Y-149515000D01*
X185800000Y-146457929D02*
X185800000Y-146855000D01*
X185040000Y-146457929D02*
X185040000Y-146855000D01*
X184150000Y-146855000D02*
X184150000Y-149515000D01*
X183260000Y-149515000D02*
X183260000Y-155515000D01*
X183260000Y-155515000D02*
X182500000Y-155515000D01*
X182500000Y-155515000D02*
X182500000Y-149515000D01*
X183260000Y-146457929D02*
X183260000Y-146855000D01*
X182500000Y-146457929D02*
X182500000Y-146855000D01*
X181610000Y-146855000D02*
X181610000Y-149515000D01*
X180720000Y-149515000D02*
X180720000Y-155515000D01*
X180720000Y-155515000D02*
X179960000Y-155515000D01*
X179960000Y-155515000D02*
X179960000Y-149515000D01*
X180720000Y-146457929D02*
X180720000Y-146855000D01*
X179960000Y-146457929D02*
X179960000Y-146855000D01*
X179070000Y-146855000D02*
X179070000Y-149515000D01*
X178180000Y-149515000D02*
X178180000Y-155515000D01*
X178180000Y-155515000D02*
X177420000Y-155515000D01*
X177420000Y-155515000D02*
X177420000Y-149515000D01*
X178180000Y-146457929D02*
X178180000Y-146855000D01*
X177420000Y-146457929D02*
X177420000Y-146855000D01*
X176530000Y-146855000D02*
X176530000Y-149515000D01*
X175640000Y-149515000D02*
X175640000Y-155515000D01*
X175640000Y-155515000D02*
X174880000Y-155515000D01*
X174880000Y-155515000D02*
X174880000Y-149515000D01*
X175640000Y-146457929D02*
X175640000Y-146855000D01*
X174880000Y-146457929D02*
X174880000Y-146855000D01*
X173990000Y-146855000D02*
X173990000Y-149515000D01*
X173100000Y-149515000D02*
X173100000Y-155515000D01*
X173100000Y-155515000D02*
X172340000Y-155515000D01*
X172340000Y-155515000D02*
X172340000Y-149515000D01*
X173100000Y-146457929D02*
X173100000Y-146855000D01*
X172340000Y-146457929D02*
X172340000Y-146855000D01*
X171450000Y-146855000D02*
X171450000Y-149515000D01*
X170560000Y-149515000D02*
X170560000Y-155515000D01*
X170560000Y-155515000D02*
X169800000Y-155515000D01*
X169800000Y-155515000D02*
X169800000Y-149515000D01*
X170560000Y-146457929D02*
X170560000Y-146855000D01*
X169800000Y-146457929D02*
X169800000Y-146855000D01*
X168910000Y-146855000D02*
X168910000Y-149515000D01*
X168020000Y-149515000D02*
X168020000Y-155515000D01*
X168020000Y-155515000D02*
X167260000Y-155515000D01*
X167260000Y-155515000D02*
X167260000Y-149515000D01*
X168020000Y-146457929D02*
X168020000Y-146855000D01*
X167260000Y-146457929D02*
X167260000Y-146855000D01*
X166370000Y-146855000D02*
X166370000Y-149515000D01*
X165480000Y-149515000D02*
X165480000Y-155515000D01*
X165480000Y-155515000D02*
X164720000Y-155515000D01*
X164720000Y-155515000D02*
X164720000Y-149515000D01*
X165480000Y-146457929D02*
X165480000Y-146855000D01*
X164720000Y-146457929D02*
X164720000Y-146855000D01*
X163830000Y-146855000D02*
X163830000Y-149515000D01*
X162940000Y-149515000D02*
X162940000Y-155515000D01*
X162940000Y-155515000D02*
X162180000Y-155515000D01*
X162180000Y-155515000D02*
X162180000Y-149515000D01*
X162940000Y-146457929D02*
X162940000Y-146855000D01*
X162180000Y-146457929D02*
X162180000Y-146855000D01*
X161290000Y-146855000D02*
X161290000Y-149515000D01*
X160400000Y-149515000D02*
X160400000Y-155515000D01*
X160400000Y-155515000D02*
X159640000Y-155515000D01*
X159640000Y-155515000D02*
X159640000Y-149515000D01*
X160400000Y-146457929D02*
X160400000Y-146855000D01*
X159640000Y-146457929D02*
X159640000Y-146855000D01*
X158750000Y-146855000D02*
X158750000Y-149515000D01*
X157860000Y-149515000D02*
X157860000Y-155515000D01*
X157860000Y-155515000D02*
X157100000Y-155515000D01*
X157100000Y-155515000D02*
X157100000Y-149515000D01*
X157860000Y-146457929D02*
X157860000Y-146855000D01*
X157100000Y-146457929D02*
X157100000Y-146855000D01*
X156210000Y-146855000D02*
X156210000Y-149515000D01*
X155320000Y-149515000D02*
X155320000Y-155515000D01*
X155320000Y-155515000D02*
X154560000Y-155515000D01*
X154560000Y-155515000D02*
X154560000Y-149515000D01*
X155320000Y-146457929D02*
X155320000Y-146855000D01*
X154560000Y-146457929D02*
X154560000Y-146855000D01*
X153670000Y-146855000D02*
X153670000Y-149515000D01*
X152780000Y-149515000D02*
X152780000Y-155515000D01*
X152780000Y-155515000D02*
X152020000Y-155515000D01*
X152020000Y-155515000D02*
X152020000Y-149515000D01*
X152780000Y-146457929D02*
X152780000Y-146855000D01*
X152020000Y-146457929D02*
X152020000Y-146855000D01*
X151130000Y-146855000D02*
X151130000Y-149515000D01*
X150240000Y-149515000D02*
X150240000Y-155515000D01*
X150240000Y-155515000D02*
X149480000Y-155515000D01*
X149480000Y-155515000D02*
X149480000Y-149515000D01*
X150240000Y-146457929D02*
X150240000Y-146855000D01*
X149480000Y-146457929D02*
X149480000Y-146855000D01*
X148590000Y-146855000D02*
X148590000Y-149515000D01*
X147700000Y-149515000D02*
X147700000Y-155515000D01*
X147700000Y-155515000D02*
X146940000Y-155515000D01*
X146940000Y-155515000D02*
X146940000Y-149515000D01*
X147700000Y-146457929D02*
X147700000Y-146855000D01*
X146940000Y-146457929D02*
X146940000Y-146855000D01*
X146050000Y-146855000D02*
X146050000Y-149515000D01*
X145160000Y-149515000D02*
X145160000Y-155515000D01*
X145160000Y-155515000D02*
X144400000Y-155515000D01*
X144400000Y-155515000D02*
X144400000Y-149515000D01*
X145160000Y-146457929D02*
X145160000Y-146855000D01*
X144400000Y-146457929D02*
X144400000Y-146855000D01*
X143510000Y-146855000D02*
X143510000Y-149515000D01*
X142620000Y-149515000D02*
X142620000Y-155515000D01*
X142620000Y-155515000D02*
X141860000Y-155515000D01*
X141860000Y-155515000D02*
X141860000Y-149515000D01*
X142620000Y-146457929D02*
X142620000Y-146855000D01*
X141860000Y-146457929D02*
X141860000Y-146855000D01*
X140970000Y-146855000D02*
X140970000Y-149515000D01*
X140080000Y-149515000D02*
X140080000Y-155515000D01*
X140080000Y-155515000D02*
X139320000Y-155515000D01*
X139320000Y-155515000D02*
X139320000Y-149515000D01*
X140080000Y-146457929D02*
X140080000Y-146855000D01*
X139320000Y-146457929D02*
X139320000Y-146855000D01*
X138430000Y-146855000D02*
X138430000Y-149515000D01*
X137540000Y-149515000D02*
X137540000Y-155515000D01*
X137540000Y-155515000D02*
X136780000Y-155515000D01*
X136780000Y-155515000D02*
X136780000Y-149515000D01*
X137540000Y-146457929D02*
X137540000Y-146855000D01*
X136780000Y-146457929D02*
X136780000Y-146855000D01*
X135890000Y-146855000D02*
X135890000Y-149515000D01*
X135000000Y-149515000D02*
X135000000Y-155515000D01*
X135000000Y-155515000D02*
X134240000Y-155515000D01*
X134240000Y-155515000D02*
X134240000Y-149515000D01*
X135000000Y-146457929D02*
X135000000Y-146855000D01*
X134240000Y-146457929D02*
X134240000Y-146855000D01*
X133350000Y-146855000D02*
X133350000Y-149515000D01*
X132460000Y-149515000D02*
X132460000Y-155515000D01*
X132460000Y-155515000D02*
X131700000Y-155515000D01*
X131700000Y-155515000D02*
X131700000Y-149515000D01*
X132460000Y-146457929D02*
X132460000Y-146855000D01*
X131700000Y-146457929D02*
X131700000Y-146855000D01*
X130810000Y-146855000D02*
X130810000Y-149515000D01*
X129920000Y-149515000D02*
X129920000Y-155515000D01*
X129920000Y-155515000D02*
X129160000Y-155515000D01*
X129160000Y-155515000D02*
X129160000Y-149515000D01*
X129920000Y-146457929D02*
X129920000Y-146855000D01*
X129160000Y-146457929D02*
X129160000Y-146855000D01*
X128270000Y-146855000D02*
X128270000Y-149515000D01*
X127380000Y-149515000D02*
X127380000Y-155515000D01*
X127380000Y-155515000D02*
X126620000Y-155515000D01*
X126620000Y-155515000D02*
X126620000Y-149515000D01*
X127380000Y-146457929D02*
X127380000Y-146855000D01*
X126620000Y-146457929D02*
X126620000Y-146855000D01*
X125730000Y-146855000D02*
X125730000Y-149515000D01*
X124840000Y-149515000D02*
X124840000Y-155515000D01*
X124840000Y-155515000D02*
X124080000Y-155515000D01*
X124080000Y-155515000D02*
X124080000Y-149515000D01*
X124840000Y-146457929D02*
X124840000Y-146855000D01*
X124080000Y-146457929D02*
X124080000Y-146855000D01*
X123190000Y-146855000D02*
X123190000Y-149515000D01*
X122300000Y-149515000D02*
X122300000Y-155515000D01*
X122300000Y-155515000D02*
X121540000Y-155515000D01*
X121540000Y-155515000D02*
X121540000Y-149515000D01*
X122300000Y-146457929D02*
X122300000Y-146855000D01*
X121540000Y-146457929D02*
X121540000Y-146855000D01*
X120650000Y-146855000D02*
X120650000Y-149515000D01*
X119760000Y-149515000D02*
X119760000Y-155515000D01*
X119760000Y-155515000D02*
X119000000Y-155515000D01*
X119000000Y-155515000D02*
X119000000Y-149515000D01*
X119760000Y-146457929D02*
X119760000Y-146855000D01*
X119000000Y-146457929D02*
X119000000Y-146855000D01*
X118110000Y-146855000D02*
X118110000Y-149515000D01*
X117220000Y-149515000D02*
X117220000Y-155515000D01*
X117220000Y-155515000D02*
X116460000Y-155515000D01*
X116460000Y-155515000D02*
X116460000Y-149515000D01*
X117220000Y-146457929D02*
X117220000Y-146855000D01*
X116460000Y-146457929D02*
X116460000Y-146855000D01*
X115570000Y-146855000D02*
X115570000Y-149515000D01*
X114680000Y-149515000D02*
X114680000Y-155515000D01*
X114680000Y-155515000D02*
X113920000Y-155515000D01*
X113920000Y-155515000D02*
X113920000Y-149515000D01*
X114680000Y-146457929D02*
X114680000Y-146855000D01*
X113920000Y-146457929D02*
X113920000Y-146855000D01*
X113030000Y-146855000D02*
X113030000Y-149515000D01*
X112140000Y-149515000D02*
X112140000Y-155515000D01*
X112140000Y-155515000D02*
X111380000Y-155515000D01*
X111380000Y-155515000D02*
X111380000Y-149515000D01*
X112140000Y-146457929D02*
X112140000Y-146855000D01*
X111380000Y-146457929D02*
X111380000Y-146855000D01*
X110490000Y-146855000D02*
X110490000Y-149515000D01*
X109600000Y-149515000D02*
X109600000Y-155515000D01*
X109600000Y-155515000D02*
X108840000Y-155515000D01*
X108840000Y-155515000D02*
X108840000Y-149515000D01*
X109600000Y-146457929D02*
X109600000Y-146855000D01*
X108840000Y-146457929D02*
X108840000Y-146855000D01*
X107950000Y-146855000D02*
X107950000Y-149515000D01*
X107060000Y-149515000D02*
X107060000Y-155515000D01*
X107060000Y-155515000D02*
X106300000Y-155515000D01*
X106300000Y-155515000D02*
X106300000Y-149515000D01*
X107060000Y-146457929D02*
X107060000Y-146855000D01*
X106300000Y-146457929D02*
X106300000Y-146855000D01*
X105410000Y-146855000D02*
X105410000Y-149515000D01*
X104520000Y-149515000D02*
X104520000Y-155515000D01*
X104520000Y-155515000D02*
X103760000Y-155515000D01*
X103760000Y-155515000D02*
X103760000Y-149515000D01*
X104520000Y-146457929D02*
X104520000Y-146855000D01*
X103760000Y-146457929D02*
X103760000Y-146855000D01*
X102870000Y-146855000D02*
X102870000Y-149515000D01*
X101980000Y-149515000D02*
X101980000Y-155515000D01*
X101980000Y-155515000D02*
X101220000Y-155515000D01*
X101220000Y-155515000D02*
X101220000Y-149515000D01*
X101980000Y-146457929D02*
X101980000Y-146855000D01*
X101220000Y-146457929D02*
X101220000Y-146855000D01*
X198120000Y-144145000D02*
X199390000Y-144145000D01*
X199390000Y-144145000D02*
X199390000Y-145415000D01*
X106426000Y-140335000D02*
G75*
G03X106426000Y-140335000I-2286000J0D01*
G01*
X197866000Y-140335000D02*
G75*
G03X197866000Y-140335000I-2286000J0D01*
G01*
X197866000Y-55880000D02*
G75*
G03X197866000Y-55880000I-2286000J0D01*
G01*
X106426000Y-55880000D02*
G75*
G03X106426000Y-55880000I-2286000J0D01*
G01*
X194885000Y-88960000D02*
X197545000Y-88960000D01*
X194885000Y-86360000D02*
X194885000Y-88960000D01*
X197545000Y-86360000D02*
X197545000Y-88960000D01*
X194885000Y-86360000D02*
X197545000Y-86360000D01*
X194885000Y-85090000D02*
X194885000Y-83760000D01*
X194885000Y-83760000D02*
X196215000Y-83760000D01*
X100270000Y-74870000D02*
X100270000Y-77530000D01*
X196850000Y-74870000D02*
X100270000Y-74870000D01*
X196850000Y-77530000D02*
X100270000Y-77530000D01*
X196850000Y-74870000D02*
X196850000Y-77530000D01*
X198120000Y-74870000D02*
X199450000Y-74870000D01*
X199450000Y-74870000D02*
X199450000Y-76200000D01*
X100270000Y-49470000D02*
X100270000Y-52130000D01*
X196850000Y-49470000D02*
X100270000Y-49470000D01*
X196850000Y-52130000D02*
X100270000Y-52130000D01*
X196850000Y-49470000D02*
X196850000Y-52130000D01*
X198120000Y-49470000D02*
X199450000Y-49470000D01*
X199450000Y-49470000D02*
X199450000Y-50800000D01*
D11*
X199842381Y-150133333D02*
X200556667Y-150133333D01*
X200699524Y-150180953D01*
X200794762Y-150276191D01*
X200842381Y-150419048D01*
X200842381Y-150514286D01*
X200842381Y-149133333D02*
X200842381Y-149704762D01*
X200842381Y-149419048D02*
X199842381Y-149419048D01*
X199985238Y-149514286D01*
X200080476Y-149609524D01*
X200128095Y-149704762D01*
D10*
X193236905Y-88931429D02*
X193884524Y-88931429D01*
X193960714Y-88893334D01*
X193998810Y-88855238D01*
X194036905Y-88779048D01*
X194036905Y-88626667D01*
X193998810Y-88550476D01*
X193960714Y-88512381D01*
X193884524Y-88474286D01*
X193236905Y-88474286D01*
X193998810Y-88131429D02*
X194036905Y-88017143D01*
X194036905Y-87826667D01*
X193998810Y-87750477D01*
X193960714Y-87712381D01*
X193884524Y-87674286D01*
X193808333Y-87674286D01*
X193732143Y-87712381D01*
X193694048Y-87750477D01*
X193655952Y-87826667D01*
X193617857Y-87979048D01*
X193579762Y-88055239D01*
X193541667Y-88093334D01*
X193465476Y-88131429D01*
X193389286Y-88131429D01*
X193313095Y-88093334D01*
X193275000Y-88055239D01*
X193236905Y-87979048D01*
X193236905Y-87788572D01*
X193275000Y-87674286D01*
X193617857Y-87064762D02*
X193655952Y-86950476D01*
X193694048Y-86912381D01*
X193770238Y-86874286D01*
X193884524Y-86874286D01*
X193960714Y-86912381D01*
X193998810Y-86950476D01*
X194036905Y-87026667D01*
X194036905Y-87331429D01*
X193236905Y-87331429D01*
X193236905Y-87064762D01*
X193275000Y-86988572D01*
X193313095Y-86950476D01*
X193389286Y-86912381D01*
X193465476Y-86912381D01*
X193541667Y-86950476D01*
X193579762Y-86988572D01*
X193617857Y-87064762D01*
X193617857Y-87331429D01*
X194113095Y-86721905D02*
X194113095Y-86112381D01*
X194036905Y-85921905D02*
X193236905Y-85921905D01*
X193236905Y-85617143D01*
X193275000Y-85540952D01*
X193313095Y-85502857D01*
X193389286Y-85464762D01*
X193503571Y-85464762D01*
X193579762Y-85502857D01*
X193617857Y-85540952D01*
X193655952Y-85617143D01*
X193655952Y-85921905D01*
X193236905Y-85198095D02*
X194036905Y-85007619D01*
X193465476Y-84855238D01*
X194036905Y-84702857D01*
X193236905Y-84512381D01*
X194036905Y-83750476D02*
X193655952Y-84017143D01*
X194036905Y-84207619D02*
X193236905Y-84207619D01*
X193236905Y-83902857D01*
X193275000Y-83826666D01*
X193313095Y-83788571D01*
X193389286Y-83750476D01*
X193503571Y-83750476D01*
X193579762Y-83788571D01*
X193617857Y-83826666D01*
X193655952Y-83902857D01*
X193655952Y-84207619D01*
D11*
X95916905Y-81621381D02*
X96583572Y-82621381D01*
X96583572Y-81621381D02*
X95916905Y-82621381D01*
X96916905Y-82335667D02*
X97393096Y-82335667D01*
X96821667Y-82621381D02*
X97155000Y-81621381D01*
X97488334Y-82621381D01*
X98345477Y-82621381D02*
X97774048Y-82621381D01*
X98059762Y-82621381D02*
X98059762Y-81621381D01*
X97964524Y-81764238D01*
X97869286Y-81859476D01*
X97774048Y-81907095D01*
X157099000Y-104878143D02*
X157146619Y-104925762D01*
X157099000Y-104973381D01*
X157051381Y-104925762D01*
X157099000Y-104878143D01*
X157099000Y-104973381D01*
X199902381Y-76533333D02*
X200616667Y-76533333D01*
X200759524Y-76580953D01*
X200854762Y-76676191D01*
X200902381Y-76819048D01*
X200902381Y-76914286D01*
X199997619Y-76104762D02*
X199950000Y-76057143D01*
X199902381Y-75961905D01*
X199902381Y-75723809D01*
X199950000Y-75628571D01*
X199997619Y-75580952D01*
X200092857Y-75533333D01*
X200188095Y-75533333D01*
X200330952Y-75580952D01*
X200902381Y-76152381D01*
X200902381Y-75533333D01*
X199902381Y-51133333D02*
X200616667Y-51133333D01*
X200759524Y-51180953D01*
X200854762Y-51276191D01*
X200902381Y-51419048D01*
X200902381Y-51514286D01*
X199902381Y-50752381D02*
X199902381Y-50133333D01*
X200283333Y-50466667D01*
X200283333Y-50323809D01*
X200330952Y-50228571D01*
X200378571Y-50180952D01*
X200473810Y-50133333D01*
X200711905Y-50133333D01*
X200807143Y-50180952D01*
X200854762Y-50228571D01*
X200902381Y-50323809D01*
X200902381Y-50609524D01*
X200854762Y-50704762D01*
X200807143Y-50752381D01*
M02*
