M48
;DRILL file {KiCad 4.0.7} date 11/28/19 15:58:01
;FORMAT={2:4/ absolute / inch / suppress leading zeros}
FMAT,2
INCH,TZ
T1C0.016
T2C0.031
T3C0.039
T4C0.040
T5C0.120
T6C0.126
%
G90
G05
M72
T1
X41750Y-36000
X42000Y-36250
X42250Y-36500
X42500Y-36750
X44100Y-37000
X45500Y-44500
X46500Y-44750
X47500Y-45000
X48500Y-45250
X49500Y-45500
X50500Y-45750
X51500Y-46000
X52500Y-46250
X55750Y-34500
X59000Y-29500
X61250Y-29250
X62500Y-29500
X62750Y-29250
X62750Y-38000
X63000Y-37750
X63250Y-37500
X63500Y-37250
X63750Y-37000
X64750Y-36750
X65750Y-36500
X66750Y-36250
X67750Y-36000
X68750Y-35750
X69750Y-35500
X70500Y-37750
X70500Y-38250
X70500Y-50000
X70750Y-35250
X70750Y-49000
X71000Y-36000
X71000Y-36500
X71000Y-37000
X71000Y-37750
X71000Y-48000
X71250Y-35750
X71250Y-36250
X71250Y-36750
X71250Y-37500
X71250Y-47000
X71500Y-35500
X71500Y-46000
X71750Y-35250
X71750Y-45000
X72250Y-43250
X72250Y-44250
X75250Y-29250
X77500Y-31500
X77500Y-36250
X77500Y-36750
X78000Y-37000
X78250Y-36750
X78250Y-54000
T2
X60500Y-21500
X60500Y-31500
X60500Y-55750
X62469Y-21500
X62469Y-31500
X62469Y-55750
T3
X40000Y-20000
X40000Y-30000
X40000Y-57250
X41000Y-20000
X41000Y-30000
X41000Y-57250
X42000Y-20000
X42000Y-30000
X42000Y-57250
X43000Y-20000
X43000Y-30000
X43000Y-57250
X44000Y-20000
X44000Y-30000
X44000Y-57250
X45000Y-20000
X45000Y-30000
X45000Y-57250
X46000Y-20000
X46000Y-30000
X46000Y-57250
X47000Y-20000
X47000Y-30000
X47000Y-57250
X48000Y-20000
X48000Y-30000
X48000Y-57250
X49000Y-20000
X49000Y-30000
X49000Y-57250
X50000Y-20000
X50000Y-30000
X50000Y-57250
X51000Y-20000
X51000Y-30000
X51000Y-57250
X52000Y-20000
X52000Y-30000
X52000Y-57250
X53000Y-20000
X53000Y-30000
X53000Y-57250
X54000Y-20000
X54000Y-30000
X54000Y-57250
X55000Y-20000
X55000Y-30000
X55000Y-57250
X56000Y-20000
X56000Y-30000
X56000Y-57250
X57000Y-20000
X57000Y-30000
X57000Y-57250
X58000Y-20000
X58000Y-30000
X58000Y-57250
X59000Y-20000
X59000Y-30000
X59000Y-57250
X60000Y-20000
X60000Y-30000
X60000Y-57250
X61000Y-20000
X61000Y-30000
X61000Y-57250
X62000Y-20000
X62000Y-30000
X62000Y-57250
X63000Y-20000
X63000Y-30000
X63000Y-57250
X64000Y-20000
X64000Y-30000
X64000Y-57250
X65000Y-20000
X65000Y-30000
X65000Y-57250
X66000Y-20000
X66000Y-30000
X66000Y-57250
X67000Y-20000
X67000Y-30000
X67000Y-57250
X68000Y-20000
X68000Y-30000
X68000Y-57250
X69000Y-20000
X69000Y-30000
X69000Y-57250
X70000Y-20000
X70000Y-30000
X70000Y-57250
X71000Y-20000
X71000Y-30000
X71000Y-57250
X72000Y-20000
X72000Y-30000
X72000Y-57250
X73000Y-20000
X73000Y-30000
X73000Y-57250
X74000Y-20000
X74000Y-30000
X74000Y-57250
X75000Y-20000
X75000Y-30000
X75000Y-57250
X76000Y-20000
X76000Y-30000
X76000Y-57250
X77000Y-20000
X77000Y-30000
X77000Y-57250
X77250Y-33500
X77250Y-34500
X78000Y-20000
X78000Y-30000
X78000Y-57250
T4
X44650Y-33750
X45650Y-33750
X46650Y-33750
X47650Y-33750
X48250Y-52750
X48650Y-33750
X49250Y-52750
X49650Y-33750
X50250Y-52750
X50650Y-33750
X51250Y-52750
X51650Y-33750
X52250Y-52750
X52650Y-33750
X53250Y-52750
X53650Y-33750
X54250Y-52750
X55250Y-33750
X55250Y-52750
X56250Y-33750
X57250Y-33750
X57250Y-52750
X58250Y-33750
X58250Y-52750
X59250Y-33750
X59250Y-52750
X60250Y-33750
X60250Y-52750
X61250Y-33750
X61250Y-52750
X62250Y-33750
X62250Y-52750
X62300Y-41750
X62300Y-42750
X62300Y-43750
X63250Y-52750
X63300Y-41750
X63300Y-42750
X63300Y-43750
X64250Y-33750
X64250Y-52750
X65250Y-33750
X66250Y-33750
X66250Y-52750
X67250Y-33750
X67250Y-52750
X68250Y-33750
X68250Y-52750
X69250Y-33750
X69250Y-52750
X70250Y-33750
X70250Y-52750
X71250Y-33750
X71250Y-52750
X72250Y-52750
X73250Y-52750
X74250Y-33750
X74250Y-34750
X74250Y-35750
X74250Y-36750
X74250Y-37750
X74250Y-38750
X74250Y-39750
X74250Y-40750
X74250Y-41750
X74250Y-42750
X74250Y-43750
X74250Y-44750
X74250Y-45750
X74250Y-46750
X74250Y-47750
X74250Y-48750
X74250Y-49750
X74250Y-50750
X75250Y-33750
X75250Y-34750
X75250Y-35750
X75250Y-36750
X75250Y-37750
X75250Y-38750
X75250Y-39750
X75250Y-40750
X75250Y-41750
X75250Y-42750
X75250Y-43750
X75250Y-44750
X75250Y-45750
X75250Y-46750
X75250Y-47750
X75250Y-48750
X75250Y-49750
X75250Y-50750
T5
X41000Y-22000
X41000Y-55250
X77000Y-22000
X77000Y-55250
T6
X42750Y-52750
X43250Y-33750
X63250Y-39750
X63250Y-50750
X72750Y-33750
X75250Y-52750
T0
M30
