G04 #@! TF.FileFunction,Soldermask,Top*
%FSLAX46Y46*%
G04 Gerber Fmt 4.6, Leading zero omitted, Abs format (unit mm)*
G04 Created by KiCad (PCBNEW 4.0.7) date 11/28/19 17:45:08*
%MOMM*%
%LPD*%
G01*
G04 APERTURE LIST*
%ADD10C,0.100000*%
%ADD11R,2.100000X2.100000*%
%ADD12O,2.100000X2.100000*%
%ADD13C,5.400000*%
%ADD14O,2.127200X2.127200*%
%ADD15C,3.600000*%
%ADD16C,2.000000*%
G04 APERTURE END LIST*
D10*
D11*
X198120000Y-145415000D03*
D12*
X195580000Y-145415000D03*
X193040000Y-145415000D03*
X190500000Y-145415000D03*
X187960000Y-145415000D03*
X185420000Y-145415000D03*
X182880000Y-145415000D03*
X180340000Y-145415000D03*
X177800000Y-145415000D03*
X175260000Y-145415000D03*
X172720000Y-145415000D03*
X170180000Y-145415000D03*
X167640000Y-145415000D03*
X165100000Y-145415000D03*
X162560000Y-145415000D03*
X160020000Y-145415000D03*
X157480000Y-145415000D03*
X154940000Y-145415000D03*
X152400000Y-145415000D03*
X149860000Y-145415000D03*
X147320000Y-145415000D03*
X144780000Y-145415000D03*
X142240000Y-145415000D03*
X139700000Y-145415000D03*
X137160000Y-145415000D03*
X134620000Y-145415000D03*
X132080000Y-145415000D03*
X129540000Y-145415000D03*
X127000000Y-145415000D03*
X124460000Y-145415000D03*
X121920000Y-145415000D03*
X119380000Y-145415000D03*
X116840000Y-145415000D03*
X114300000Y-145415000D03*
X111760000Y-145415000D03*
X109220000Y-145415000D03*
X106680000Y-145415000D03*
X104140000Y-145415000D03*
X101600000Y-145415000D03*
D13*
X104140000Y-140335000D03*
X195580000Y-140335000D03*
X195580000Y-55880000D03*
X104140000Y-55880000D03*
D11*
X196215000Y-85090000D03*
D12*
X196215000Y-87630000D03*
D14*
X158242000Y-111125000D03*
X160782000Y-111125000D03*
X160782000Y-108585000D03*
X158242000Y-108585000D03*
X160782000Y-106045000D03*
X145415000Y-133985000D03*
X140335000Y-133985000D03*
X137795000Y-133985000D03*
X135255000Y-133985000D03*
X132715000Y-133985000D03*
X130175000Y-133985000D03*
X127635000Y-133985000D03*
X125095000Y-133985000D03*
X180975000Y-85725000D03*
X178435000Y-85725000D03*
X175895000Y-85725000D03*
X173355000Y-85725000D03*
X170815000Y-85725000D03*
X168275000Y-85725000D03*
X165735000Y-85725000D03*
X163195000Y-85725000D03*
X158115000Y-85725000D03*
X155575000Y-85725000D03*
X153035000Y-85725000D03*
X150495000Y-85725000D03*
X147955000Y-85725000D03*
X145415000Y-85725000D03*
X142875000Y-85725000D03*
X140335000Y-85725000D03*
X121031000Y-85725000D03*
X136271000Y-85725000D03*
X133731000Y-85725000D03*
X131191000Y-85725000D03*
D15*
X160655000Y-128905000D03*
X160655000Y-100965000D03*
X184785000Y-85725000D03*
X109855000Y-85725000D03*
X191135000Y-133985000D03*
X108585000Y-133985000D03*
D14*
X113411000Y-85725000D03*
X115951000Y-85725000D03*
X118491000Y-85725000D03*
X123571000Y-85725000D03*
X126111000Y-85725000D03*
X128651000Y-85725000D03*
X122555000Y-133985000D03*
X147955000Y-133985000D03*
X150495000Y-133985000D03*
X153035000Y-133985000D03*
X155575000Y-133985000D03*
X158115000Y-133985000D03*
X160655000Y-133985000D03*
X163195000Y-133985000D03*
X168275000Y-133985000D03*
X170815000Y-133985000D03*
X173355000Y-133985000D03*
X175895000Y-133985000D03*
X178435000Y-133985000D03*
X180975000Y-133985000D03*
X183515000Y-133985000D03*
X186055000Y-133985000D03*
X188595000Y-85725000D03*
X191135000Y-85725000D03*
X188595000Y-88265000D03*
X191135000Y-88265000D03*
X188595000Y-90805000D03*
X191135000Y-90805000D03*
X188595000Y-93345000D03*
X191135000Y-93345000D03*
X188595000Y-95885000D03*
X191135000Y-95885000D03*
X188595000Y-98425000D03*
X191135000Y-98425000D03*
X188595000Y-100965000D03*
X191135000Y-100965000D03*
X188595000Y-103505000D03*
X191135000Y-103505000D03*
X188595000Y-106045000D03*
X191135000Y-106045000D03*
X188595000Y-108585000D03*
X191135000Y-108585000D03*
X188595000Y-111125000D03*
X191135000Y-111125000D03*
X188595000Y-113665000D03*
X191135000Y-113665000D03*
X188595000Y-116205000D03*
X191135000Y-116205000D03*
X188595000Y-118745000D03*
X191135000Y-118745000D03*
X188595000Y-121285000D03*
X191135000Y-121285000D03*
X188595000Y-123825000D03*
X191135000Y-123825000D03*
X188595000Y-126365000D03*
X191135000Y-126365000D03*
X188595000Y-128905000D03*
X191135000Y-128905000D03*
X158242000Y-106045000D03*
D11*
X198120000Y-76200000D03*
D12*
X195580000Y-76200000D03*
X193040000Y-76200000D03*
X190500000Y-76200000D03*
X187960000Y-76200000D03*
X185420000Y-76200000D03*
X182880000Y-76200000D03*
X180340000Y-76200000D03*
X177800000Y-76200000D03*
X175260000Y-76200000D03*
X172720000Y-76200000D03*
X170180000Y-76200000D03*
X167640000Y-76200000D03*
X165100000Y-76200000D03*
X162560000Y-76200000D03*
X160020000Y-76200000D03*
X157480000Y-76200000D03*
X154940000Y-76200000D03*
X152400000Y-76200000D03*
X149860000Y-76200000D03*
X147320000Y-76200000D03*
X144780000Y-76200000D03*
X142240000Y-76200000D03*
X139700000Y-76200000D03*
X137160000Y-76200000D03*
X134620000Y-76200000D03*
X132080000Y-76200000D03*
X129540000Y-76200000D03*
X127000000Y-76200000D03*
X124460000Y-76200000D03*
X121920000Y-76200000D03*
X119380000Y-76200000D03*
X116840000Y-76200000D03*
X114300000Y-76200000D03*
X111760000Y-76200000D03*
X109220000Y-76200000D03*
X106680000Y-76200000D03*
X104140000Y-76200000D03*
X101600000Y-76200000D03*
D11*
X198120000Y-50800000D03*
D12*
X195580000Y-50800000D03*
X193040000Y-50800000D03*
X190500000Y-50800000D03*
X187960000Y-50800000D03*
X185420000Y-50800000D03*
X182880000Y-50800000D03*
X180340000Y-50800000D03*
X177800000Y-50800000D03*
X175260000Y-50800000D03*
X172720000Y-50800000D03*
X170180000Y-50800000D03*
X167640000Y-50800000D03*
X165100000Y-50800000D03*
X162560000Y-50800000D03*
X160020000Y-50800000D03*
X157480000Y-50800000D03*
X154940000Y-50800000D03*
X152400000Y-50800000D03*
X149860000Y-50800000D03*
X147320000Y-50800000D03*
X144780000Y-50800000D03*
X142240000Y-50800000D03*
X139700000Y-50800000D03*
X137160000Y-50800000D03*
X134620000Y-50800000D03*
X132080000Y-50800000D03*
X129540000Y-50800000D03*
X127000000Y-50800000D03*
X124460000Y-50800000D03*
X121920000Y-50800000D03*
X119380000Y-50800000D03*
X116840000Y-50800000D03*
X114300000Y-50800000D03*
X111760000Y-50800000D03*
X109220000Y-50800000D03*
X106680000Y-50800000D03*
X104140000Y-50800000D03*
X101600000Y-50800000D03*
D16*
X153670000Y-54610000D03*
X158670000Y-54610000D03*
X153670000Y-80010000D03*
X158670000Y-80010000D03*
X153670000Y-141605000D03*
X158670000Y-141605000D03*
M02*
